<svg xmlns="http://www.w3.org/2000/svg" xmlns:xlink="http://www.w3.org/1999/xlink"><symbol id="icon-arrow" viewBox="0 0 23 12">
  <path d="M-2.3677e-07 6.20833L22.0606 6.20833M22.0606 6.20833L16.5454 11.625M22.0606 6.20833L16.5454 0.791665" stroke="#7E01A2"/>
</symbol><symbol id="icon-logo" viewBox="0 0 48 48">
  <path d="M17.4 31.3636C16.5188 31.3636 15.8928 30.9004 15.5217 29.9739C15.1739 29.0475 15 27.5651 15 25.5269C15 22.5159 15.429 19.6555 16.287 16.9456C16.4957 16.2739 16.8319 15.7875 17.2957 15.4864C17.7826 15.1621 18.4551 15 19.313 15C19.7768 15 20.1014 15.0579 20.287 15.1737C20.4725 15.2895 20.5652 15.5096 20.5652 15.8338C20.5652 16.2044 20.3913 17.0382 20.0435 18.3353C19.8116 19.2617 19.6261 20.0724 19.487 20.7672C19.3478 21.4621 19.2319 22.3191 19.1391 23.3382C19.9043 21.3463 20.7623 19.725 21.713 18.4742C22.6638 17.2235 23.5913 16.3318 24.4957 15.7991C25.4232 15.2664 26.2696 15 27.0348 15C28.542 15 29.2957 15.7527 29.2957 17.2583C29.2957 18.1616 29.0406 19.7944 28.5304 22.1569C28.0899 24.172 27.8696 25.5038 27.8696 26.1523C27.8696 27.0787 28.2058 27.542 28.8783 27.542C29.342 27.542 29.887 27.264 30.513 26.7082C31.1623 26.1291 32.0203 25.2027 33.087 23.9288C33.3652 23.6045 33.6783 23.4424 34.0261 23.4424C34.3275 23.4424 34.5594 23.5814 34.7217 23.8593C34.9072 24.1372 35 24.5194 35 25.0058C35 25.9323 34.7797 26.6503 34.3391 27.1598C33.342 28.3874 32.2638 29.3949 31.1043 30.1824C29.9681 30.9699 28.6696 31.3636 27.2087 31.3636C26.0261 31.3636 25.1333 31.0278 24.5304 30.3561C23.9275 29.6613 23.6261 28.6653 23.6261 27.3683C23.6261 26.7197 23.7884 25.5617 24.113 23.894C24.4145 22.4349 24.5652 21.4273 24.5652 20.8715C24.5652 20.5009 24.4377 20.3156 24.1826 20.3156C23.8812 20.3156 23.4522 20.7093 22.8957 21.4968C22.3623 22.2611 21.8058 23.2803 21.2261 24.5541C20.6696 25.828 20.2174 27.1714 19.8696 28.5843C19.6145 29.6728 19.313 30.414 18.9652 30.8078C18.6406 31.1783 18.1188 31.3636 17.4 31.3636Z" fill="white"/>
  <path d="M46 24C46 36.1503 36.1503 46 24 46C11.8497 46 2 36.1503 2 24C2 11.8497 11.8497 2 24 2C36.1503 2 46 11.8497 46 24Z" fill="none" stroke="white" stroke-width="4"/>
</symbol><symbol id="icon-short-logo" viewBox="0 0 48 48">
  <path d="M17.4 31.3636C16.5188 31.3636 15.8928 30.9004 15.5217 29.9739C15.1739 29.0475 15 27.5651 15 25.5269C15 22.5159 15.429 19.6555 16.287 16.9456C16.4957 16.2739 16.8319 15.7875 17.2957 15.4864C17.7826 15.1621 18.4551 15 19.313 15C19.7768 15 20.1014 15.0579 20.287 15.1737C20.4725 15.2895 20.5652 15.5096 20.5652 15.8338C20.5652 16.2044 20.3913 17.0382 20.0435 18.3353C19.8116 19.2617 19.6261 20.0724 19.487 20.7672C19.3478 21.4621 19.2319 22.3191 19.1391 23.3382C19.9043 21.3463 20.7623 19.725 21.713 18.4742C22.6638 17.2235 23.5913 16.3318 24.4957 15.7991C25.4232 15.2664 26.2696 15 27.0348 15C28.542 15 29.2957 15.7527 29.2957 17.2583C29.2957 18.1616 29.0406 19.7944 28.5304 22.1569C28.0899 24.172 27.8696 25.5038 27.8696 26.1523C27.8696 27.0787 28.2058 27.542 28.8783 27.542C29.342 27.542 29.887 27.264 30.513 26.7082C31.1623 26.1291 32.0203 25.2027 33.087 23.9288C33.3652 23.6045 33.6783 23.4424 34.0261 23.4424C34.3275 23.4424 34.5594 23.5814 34.7217 23.8593C34.9072 24.1372 35 24.5194 35 25.0058C35 25.9323 34.7797 26.6503 34.3391 27.1598C33.342 28.3874 32.2638 29.3949 31.1043 30.1824C29.9681 30.9699 28.6696 31.3636 27.2087 31.3636C26.0261 31.3636 25.1333 31.0278 24.5304 30.3561C23.9275 29.6613 23.6261 28.6653 23.6261 27.3683C23.6261 26.7197 23.7884 25.5617 24.113 23.894C24.4145 22.4349 24.5652 21.4273 24.5652 20.8715C24.5652 20.5009 24.4377 20.3156 24.1826 20.3156C23.8812 20.3156 23.4522 20.7093 22.8957 21.4968C22.3623 22.2611 21.8058 23.2803 21.2261 24.5541C20.6696 25.828 20.2174 27.1714 19.8696 28.5843C19.6145 29.6728 19.313 30.414 18.9652 30.8078C18.6406 31.1783 18.1188 31.3636 17.4 31.3636Z" fill="white"/>
  <path d="M46 24C46 36.1503 36.1503 46 24 46C11.8497 46 2 36.1503 2 24C2 11.8497 11.8497 2 24 2C36.1503 2 46 11.8497 46 24Z" fill="none" stroke="white" stroke-width="4"/>
</symbol></svg>