<svg xmlns="http://www.w3.org/2000/svg" xmlns:xlink="http://www.w3.org/1999/xlink"><symbol id="icon-arrow-dark" viewBox="0 0 50 50">
  <circle cx="25" cy="25" r="25" fill="#2C2727"/>
  <path d="M37.0607 26.0607C37.6464 25.4749 37.6464 24.5251 37.0607 23.9393L27.5147 14.3934C26.9289 13.8076 25.9792 13.8076 25.3934 14.3934C24.8076 14.9792 24.8076 15.9289 25.3934 16.5147L33.8787 25L25.3934 33.4853C24.8076 34.0711 24.8076 35.0208 25.3934 35.6066C25.9792 36.1924 26.9289 36.1924 27.5147 35.6066L37.0607 26.0607ZM14 26.5H36V23.5H14V26.5Z" fill="white"/>
</symbol><symbol id="icon-arrow" viewBox="0 0 50 50">
  <circle cx="25" cy="25" r="25" fill="currentColor"/>
  <path d="M37.0607 26.0607C37.6464 25.4749 37.6464 24.5251 37.0607 23.9393L27.5147 14.3934C26.9289 13.8076 25.9792 13.8076 25.3934 14.3934C24.8076 14.9792 24.8076 15.9289 25.3934 16.5147L33.8787 25L25.3934 33.4853C24.8076 34.0711 24.8076 35.0208 25.3934 35.6066C25.9792 36.1924 26.9289 36.1924 27.5147 35.6066L37.0607 26.0607ZM14 26.5H36V23.5H14V26.5Z" fill="white"/>
</symbol><symbol id="icon-burger" viewBox="0 0 40 23">
    <rect width="40" height="2" rx="2.5" fill="#e8eaed"/>
    <rect y="9" width="40" height="2" rx="2.5" fill="#e8eaed"/>
    <rect y="18" width="40" height="2" rx="2.5" fill="#e8eaed"/>
</symbol><symbol id="icon-close" viewBox="0 0 20 20">
    <path d="M.293 18.291a1 1 0 101.414 1.414L10 11.413l8.292 8.292a1 1 0 101.414-1.414l-8.292-8.292 8.292-8.292A1 1 0 1018.291.293L9.999 8.585 1.707.293A1 1 0 10.293 1.707L8.585 10 .293 18.291z"/>
</symbol><symbol id="icon-instagram" viewBox="0 0 80 80">
  <circle cx="40" cy="40" r="40" fill="white"/>
  <rect x="17" y="16" width="46" height="47" rx="15" fill="#000000"/>
  <circle cx="40" cy="40" r="10" fill="white"/>
  <circle cx="40" cy="40" r="8" fill="#000000"/>
  <circle cx="52.5" cy="25.5" r="2.5" fill="white"/>
</symbol></svg>