<svg xmlns="http://www.w3.org/2000/svg" xmlns:xlink="http://www.w3.org/1999/xlink"><symbol id="icon-arrow-round" viewBox="0 0 77 77">
<path d="M38.1875 -1.66923e-06C48.3155 -2.11194e-06 58.0286 4.02331 65.1901 11.1849C72.3517 18.3464 76.375 28.0595 76.375 38.1875C76.375 48.3155 72.3517 58.0286 65.1901 65.1901C58.0286 72.3517 48.3155 76.375 38.1875 76.375C28.0595 76.375 18.3464 72.3517 11.1849 65.1901C4.02331 58.0286 -1.22652e-06 48.3155 -1.66923e-06 38.1875C-2.11194e-06 28.0595 4.02331 18.3464 11.1849 11.1849C18.3464 4.02331 28.0595 -1.22652e-06 38.1875 -1.66923e-06V-1.66923e-06ZM21.4805 35.8008C20.8475 35.8008 20.2404 36.0522 19.7928 36.4998C19.3452 36.9474 19.0937 37.5545 19.0937 38.1875C19.0937 38.8205 19.3452 39.4276 19.7928 39.8752C20.2404 40.3228 20.8475 40.5742 21.4805 40.5742L49.133 40.5742L38.8844 50.818C38.4363 51.2662 38.1845 51.874 38.1845 52.5078C38.1845 53.1416 38.4363 53.7494 38.8844 54.1976C39.3326 54.6458 39.9404 54.8975 40.5742 54.8975C41.208 54.8975 41.8159 54.6458 42.264 54.1976L56.5843 39.8773C56.8066 39.6556 56.9829 39.3922 57.1033 39.1022C57.2236 38.8123 57.2855 38.5014 57.2855 38.1875C57.2855 37.8736 57.2236 37.5627 57.1033 37.2727C56.9829 36.9828 56.8066 36.7194 56.5843 36.4977L42.264 22.1774C41.8159 21.7292 41.208 21.4775 40.5742 21.4775C39.9404 21.4775 39.3326 21.7292 38.8844 22.1774C38.4363 22.6256 38.1845 23.2334 38.1845 23.8672C38.1845 24.501 38.4363 25.1088 38.8844 25.557L49.133 35.8008L21.4805 35.8008Z"/>
</symbol><symbol id="icon-arrow" viewBox="0 0 33 30">
  <path d="M0.585785 13.5858C-0.195263 14.3668 -0.195263 15.6332 0.585785 16.4142L13.3137 29.1421C14.0948 29.9232 15.3611 29.9232 16.1421 29.1421C16.9232 28.3611 16.9232 27.0948 16.1421 26.3137L4.82843 15L16.1421 3.68629C16.9232 2.90524 16.9232 1.63891 16.1421 0.857866C15.3611 0.0768171 14.0948 0.0768173 13.3137 0.857866L0.585785 13.5858ZM33 13L2 13L2 17L33 17L33 13Z" fill="currentFilter"/>
</symbol></svg>