<svg xmlns="http://www.w3.org/2000/svg" width="22.661" height="40.634" viewBox="0 0 22.661 40.634">
  <g id="Vector_smart-object_copy_2" data-name="Vector smart object copy 2" transform="translate(22.661 40.634) rotate(180)" opacity="0.85">
    <g id="Vector_smart-object_copy_2-2" data-name="Vector smart object copy 2" transform="translate(0 0)">
      <g id="group_12" data-name="group 12" transform="translate(0 0)">
        <path id="contour_10" data-name="contour 10" d="M21.6,17.486,7.634,1.49A4.368,4.368,0,0,0,1.5,1.058a4.306,4.306,0,0,0-.434,6.1l11.49,13.164L1.074,33.477a4.325,4.325,0,0,0,3.284,7.157,4.349,4.349,0,0,0,3.286-1.491L21.6,23.153A4.3,4.3,0,0,0,21.6,17.486Z" fill="#currentColor"/>
      </g>
    </g>
    <path id="Color_Overlay" data-name="Color Overlay" d="M1.509,39.576a4.307,4.307,0,0,1-.436-6.1L12.555,20.321,1.064,7.158a4.306,4.306,0,0,1,.434-6.1,4.367,4.367,0,0,1,6.135.432l13.963,16a4.3,4.3,0,0,1,0,5.666L7.644,39.143a4.366,4.366,0,0,1-6.135.433Z" transform="translate(0 0)" fill="#currentColor"/>
  </g>
</svg>
