<svg width="20" height="22" viewBox="0 0 20 22" fill="none" xmlns="http://www.w3.org/2000/svg">
<path fill-rule="evenodd" clip-rule="evenodd" d="M16 2C14.8954 2 14 2.89543 14 4C14 4.34734 14.0885 4.674 14.2443 4.95864C14.2545 4.97406 14.2643 4.98984 14.2737 5.00598C14.283 5.02201 14.2919 5.03818 14.3003 5.05449C14.6531 5.62211 15.2824 6 16 6C17.1046 6 18 5.10457 18 4C18 2.89543 17.1046 2 16 2ZM13.1581 6.81486C13.883 7.54668 14.8885 8 16 8C18.2091 8 20 6.20914 20 4C20 1.79086 18.2091 0 16 0C13.7909 0 12 1.79086 12 4C12 4.37702 12.0522 4.74186 12.1497 5.08769L6.84194 8.18515C6.11704 7.45332 5.11146 7 4 7C1.79086 7 0 8.79086 0 11C0 13.2091 1.79086 15 4 15C5.11166 15 6.11741 14.5465 6.84234 13.8145L12.1509 16.9079C12.0526 17.255 12 17.6214 12 18C12 20.2091 13.7909 22 16 22C18.2091 22 20 20.2091 20 18C20 15.7909 18.2091 14 16 14C14.8902 14 13.886 14.452 13.1613 15.1819L7.8505 12.0871C7.94789 11.7415 8 11.3768 8 11C8 10.623 7.94784 10.2582 7.85034 9.91233L13.1581 6.81486ZM5.69965 9.94535C5.70804 9.96172 5.71692 9.97796 5.72631 9.99404C5.73576 10.0102 5.7456 10.0261 5.7558 10.0415C5.91149 10.3261 6 10.6527 6 11C6 11.3473 5.91147 11.6739 5.75575 11.9586C5.74545 11.9742 5.73552 11.9902 5.72599 12.0065C5.71674 12.0224 5.70798 12.0384 5.69971 12.0546C5.34681 12.6221 4.71753 13 4 13C2.89543 13 2 12.1046 2 11C2 9.89543 2.89543 9 4 9C4.71749 9 5.34674 9.37782 5.69965 9.94535ZM14 18C14 17.6749 14.0776 17.3678 14.2153 17.0965C14.24 17.064 14.2629 17.0296 14.284 16.9935C14.3042 16.9588 14.3221 16.9235 14.3377 16.8875C14.6966 16.3523 15.3072 16 16 16C17.1046 16 18 16.8954 18 18C18 19.1046 17.1046 20 16 20C14.8954 20 14 19.1046 14 18Z" fill="currentColor" />
</svg>
