<svg width="24" height="24" viewBox="0 0 24 24" fill="none" xmlns="http://www.w3.org/2000/svg">
<path fill-rule="evenodd" clip-rule="evenodd" d="M11.8154 17.9308H13.028C13.028 17.9308 13.3918 17.8727 13.5736 17.6983C13.7555 17.5238 13.7555 17.175 13.7555 17.175C13.7555 17.175 13.7555 15.6633 14.4831 15.4307C15.2107 15.1981 16.1807 16.9424 17.1508 17.582C17.8784 18.1053 18.4241 17.989 18.4241 17.989L21.0918 17.9308C21.0918 17.9308 22.4863 17.8727 21.8194 16.768C21.7587 16.7099 21.4556 16.0121 19.8186 14.5586C18.1209 13.0469 18.3634 13.3376 20.3642 10.7211C21.5768 9.15128 22.0619 8.221 21.9406 7.75586C21.8194 7.34886 20.9099 7.46514 20.9099 7.46514H17.8784C17.8784 7.46514 17.6359 7.407 17.5146 7.52329C17.3327 7.63957 17.2721 7.814 17.2721 7.814C17.2721 7.814 16.787 9.035 16.1807 10.0816C14.8469 12.2329 14.3012 12.3491 14.1193 12.2329C13.6343 11.9421 13.7555 10.9537 13.7555 10.3141C13.7555 8.221 14.1193 7.34886 13.0886 7.11628C12.7855 7.05814 12.5429 7 11.6941 7C10.6028 7 9.69331 7 9.20826 7.23257C8.84448 7.407 8.60196 7.75586 8.78385 7.75586C8.96574 7.75586 9.45079 7.87214 9.69331 8.16286C9.93583 8.68614 9.93583 9.55828 9.93583 9.55828C9.93583 9.55828 10.1177 12.0584 9.51142 12.3491C9.087 12.5817 8.54133 12.1166 7.32873 10.1397C6.72242 9.15128 6.23738 7.98843 6.23738 7.98843C6.23738 7.98843 6.17675 7.75586 5.99486 7.63957C5.81297 7.52329 5.50982 7.46514 5.50982 7.46514H2.6602C2.6602 7.46514 2.23578 7.46514 2.05389 7.63957C1.93263 7.814 2.05389 8.10471 2.05389 8.10471C2.05389 8.10471 4.29721 13.105 6.84368 15.6633C9.20827 18.1053 11.8154 17.9308 11.8154 17.9308Z" fill="#1F1F1F"/>
</svg>
