<svg width="14" height="14" viewBox="0 0 14 14" fill="none"
  xmlns="http://www.w3.org/2000/svg">
  <path d="M11.9179 11.3438V3.14916H12.4134C12.5947 3.14916 12.7414 3.07874 12.841 2.96525C12.938 2.85466 12.9832 2.71176 12.9832 2.57403C12.9832 2.4363 12.938 2.2934 12.841 2.18281C12.7414 2.06932 12.5947 1.9989 12.4134 1.9989H9.25208V1.33375C9.25208 0.729502 8.7744 0.183328 8.14067 0.183328H5.86096C5.22526 0.183328 4.74955 0.727564 4.74955 1.33375V1.9989H1.58627C1.40497 1.9989 1.25832 2.06932 1.15871 2.18281C1.06165 2.2934 1.0165 2.4363 1.0165 2.57403C1.0165 2.71176 1.06165 2.85466 1.15871 2.96525C1.25832 3.07874 1.40497 3.14916 1.58627 3.14916H2.08176V11.3438C2.08176 12.4213 2.96808 13.3074 4.04734 13.3074H9.95429C11.0317 13.3074 11.9179 12.4212 11.9179 11.3438ZM8.09987 1.33375V1.9989H5.8998V1.33375C5.8998 1.3337 5.8998 1.33364 5.8998 1.33359H8.09987C8.09987 1.33364 8.09987 1.3337 8.09987 1.33375ZM7.85221 9.93188C7.85221 10.1129 7.92277 10.2592 8.03631 10.3585C8.14691 10.4552 8.28974 10.5002 8.42733 10.5002C8.56493 10.5002 8.70776 10.4552 8.81836 10.3585C8.9319 10.2592 9.00246 10.1129 9.00246 9.93188V5.30226C9.00246 5.12127 8.9319 4.97493 8.81836 4.87563C8.70776 4.77889 8.56493 4.73396 8.42733 4.73396C8.28974 4.73396 8.14691 4.77889 8.03631 4.87563C7.92277 4.97493 7.85221 5.12127 7.85221 5.30226V9.93188ZM4.99721 9.93188C4.99721 10.1129 5.06777 10.2592 5.18131 10.3585C5.29192 10.4552 5.43475 10.5002 5.57234 10.5002C5.70993 10.5002 5.85277 10.4552 5.96337 10.3585C6.07691 10.2592 6.14747 10.1129 6.14747 9.93188V5.30226C6.14747 5.12096 6.07704 4.97435 5.96344 4.87487C5.85277 4.77795 5.70983 4.73307 5.57217 4.73323C5.43451 4.73339 5.29171 4.77858 5.18119 4.87546C5.06776 4.97489 4.99721 5.12128 4.99721 5.30226V9.93188ZM3.23397 11.3438V3.14916H3.23697H3.25227H3.26757H3.28287H3.29817H3.31347H3.32877H3.34407H3.35937H3.37468H3.38998H3.40528H3.42058H3.43588H3.45118H3.46648H3.48178H3.49708H3.51238H3.52768H3.54298H3.55828H3.57358H3.58888H3.60418H3.61948H3.63478H3.65008H3.66538H3.68068H3.69598H3.71128H3.72658H3.74188H3.75718H3.77248H3.78778H3.80308H3.81838H3.83368H3.84898H3.86428H3.87958H3.89488H3.91018H3.92548H3.94078H3.95608H3.97138H3.98668H4.00198H4.01728H4.03258H4.04788H4.06318H4.07848H4.09378H4.10908H4.12438H4.13968H4.15498H4.17028H4.18558H4.20088H4.21618H4.23148H4.24678H4.26208H4.27738H4.29268H4.30798H4.32328H4.33859H4.35389H4.36919H4.38449H4.39979H4.41509H4.43039H4.44569H4.46099H4.47629H4.49159H4.50689H4.52219H4.53749H4.55279H4.56809H4.58339H4.59869H4.61399H4.62929H4.64459H4.65989H4.67519H4.69049H4.70579H4.72109H4.73639H4.75169H4.76699H4.78229H4.79759H4.81289H4.82819H4.84349H4.85879H4.87409H4.88939H4.90469H4.91999H4.93529H4.95059H4.96589H4.98119H4.99649H5.01179H5.02709H5.04239H5.05769H5.07299H5.08829H5.10359H5.11889H5.13419H5.14949H5.16479H5.18009H5.19539H5.21069H5.22599H5.24129H5.25659H5.27189H5.28719H5.3025H5.3178H5.3331H5.3484H5.3637H5.379H5.3943H5.4096H5.4249H5.4402H5.4555H5.4708H5.4861H5.5014H5.5167H5.532H5.5473H5.5626H5.5779H5.5932H5.6085H5.6238H5.6391H5.6544H5.6697H5.685H5.7003H5.7156H5.7309H5.7462H5.7615H5.7768H5.7921H5.8074H5.8227H5.838H5.8533H5.8686H5.8839H5.8992H5.9145H5.9298H5.9451H5.9604H5.9757H5.991H6.0063H6.0216H6.0369H6.0522H6.0675H6.0828H6.0981H6.1134H6.1287H6.144H6.1593H6.1746H6.1899H6.2052H6.2205H6.2358H6.2511H6.26641H6.2817H6.29701H6.31231H6.32761H6.34291H6.35821H6.37351H6.38881H6.40411H6.41941H6.43471H6.45001H6.46531H6.48061H6.49591H6.51121H6.52651H6.54181H6.55711H6.57241H6.58771H6.60301H6.61831H6.63361H6.64891H6.66421H6.67951H6.69481H6.71011H6.72541H6.74071H6.75601H6.77131H6.78661H6.80191H6.81721H6.83251H6.84781H6.86311H6.87841H6.89371H6.90901H6.92431H6.93961H6.95491H6.97021H6.98551H7.00081H7.01611H7.03141H7.04671H7.06201H7.07731H7.09261H7.10791H7.12321H7.13851H7.15381H7.16911H7.18441H7.19971H7.21501H7.23031H7.24562H7.26092H7.27622H7.29152H7.30682H7.32212H7.33742H7.35272H7.36802H7.38332H7.39862H7.41392H7.42922H7.44452H7.45982H7.47512H7.49042H7.50572H7.52102H7.53632H7.55162H7.56692H7.58222H7.59752H7.61282H7.62812H7.64342H7.65872H7.67402H7.68932H7.70462H7.71992H7.73522H7.75052H7.76582H7.78112H7.79642H7.81172H7.82702H7.84232H7.85762H7.87292H7.88822H7.90352H7.91882H7.93412H7.94942H7.96472H7.98002H7.99532H8.01062H8.02592H8.04122H8.05652H8.07182H8.08712H8.10242H8.11772H8.13302H8.14832H8.16362H8.17892H8.19422H8.20953H8.22482H8.24013H8.25543H8.27073H8.28603H8.30133H8.31663H8.33193H8.34723H8.36253H8.37783H8.39313H8.40843H8.42373H8.43903H8.45433H8.46963H8.48493H8.50023H8.51553H8.53083H8.54613H8.56143H8.57673H8.59203H8.60733H8.62263H8.63793H8.65323H8.66853H8.68383H8.69913H8.71443H8.72973H8.74503H8.76033H8.77563H8.79093H8.80623H8.82153H8.83683H8.85213H8.86743H8.88273H8.89803H8.91333H8.92863H8.94393H8.95923H8.97453H8.98983H9.00513H9.02043H9.03573H9.05103H9.06633H9.08163H9.09693H9.11223H9.12753H9.14283H9.15813H9.17344H9.18874H9.20403H9.21934H9.23464H9.24994H9.26524H9.28054H9.29584H9.31114H9.32644H9.34174H9.35704H9.37234H9.38764H9.40294H9.41824H9.43354H9.44884H9.46414H9.47944H9.49474H9.51004H9.52534H9.54064H9.55594H9.57124H9.58654H9.60184H9.61714H9.63244H9.64774H9.66304H9.67834H9.69364H9.70894H9.72424H9.73954H9.75484H9.77014H9.78544H9.80074H9.81604H9.83134H9.84664H9.86194H9.87724H9.89254H9.90784H9.92314H9.93844H9.95374H9.96904H9.98434H9.99964H10.0149H10.0302H10.0455H10.0608H10.0761H10.0914H10.1067H10.122H10.1373H10.1526H10.1679H10.1832H10.1985H10.2138H10.2291H10.2444H10.2597H10.275H10.2903H10.3056H10.3209H10.3362H10.3515H10.3668H10.3821H10.3974H10.4127H10.428H10.4433H10.4586H10.4739H10.4892H10.5045H10.5198H10.5351H10.5504H10.5657H10.581H10.5963H10.6116H10.627H10.6423H10.6576H10.6729H10.6882H10.7035H10.7188H10.7341H10.7494H10.7647H10.7677V11.3438C10.7677 11.7914 10.4019 12.1571 9.95429 12.1571H4.04734C3.59799 12.1571 3.23397 11.7916 3.23397 11.3438Z" fill="#660000" stroke="#660000" stroke-width="0.3"/>
</svg>
