<svg xmlns="http://www.w3.org/2000/svg" fill="none" viewBox="0 0 24 24">
  <defs/>
  <mask id="a" width="14" height="14" x="5" y="5" fill="#000" maskUnits="userSpaceOnUse">
    <path fill="#fff" d="M5 5H19V19H5z"/>
    <path fill-rule="evenodd" d="M14.8884 8.88877C14.8884 10.4816 13.5925 11.7775 11.9997 11.7775C10.4068 11.7775 9.11088 10.4816 9.11088 8.88877C9.11088 7.29591 10.4068 6 11.9997 6C13.5925 6 14.8884 7.29591 14.8884 8.88877ZM13.8724 8.88852C13.8724 7.85592 13.0322 7.01578 11.9997 7.01578C10.9668 7.01578 10.1267 7.85592 10.1267 8.88852C10.1267 9.92111 10.9668 10.7618 11.9997 10.7618C13.0322 10.7618 13.8724 9.92111 13.8724 8.88852ZM6 18.0652C6 14.7571 8.69115 12.0655 11.9997 12.0655C15.3081 12.0655 17.9995 14.7571 18 18.0652H16.984C16.984 15.3174 14.7481 13.0812 12 13.0812C9.25168 13.0812 7.01578 15.3174 7.01578 18.0652H6Z" clip-rule="evenodd"/>
  </mask>
  <path fill="currentColor" fill-rule="evenodd" d="M14.8884 8.88877C14.8884 10.4816 13.5925 11.7775 11.9997 11.7775C10.4068 11.7775 9.11088 10.4816 9.11088 8.88877C9.11088 7.29591 10.4068 6 11.9997 6C13.5925 6 14.8884 7.29591 14.8884 8.88877ZM13.8724 8.88852C13.8724 7.85592 13.0322 7.01578 11.9997 7.01578C10.9668 7.01578 10.1267 7.85592 10.1267 8.88852C10.1267 9.92111 10.9668 10.7618 11.9997 10.7618C13.0322 10.7618 13.8724 9.92111 13.8724 8.88852ZM6 18.0652C6 14.7571 8.69115 12.0655 11.9997 12.0655C15.3081 12.0655 17.9995 14.7571 18 18.0652H16.984C16.984 15.3174 14.7481 13.0812 12 13.0812C9.25168 13.0812 7.01578 15.3174 7.01578 18.0652H6Z" clip-rule="evenodd"/>
  <path fill="currentColor" d="M6 18.0652H5.7C5.7 18.2309 5.83431 18.3652 6 18.3652V18.0652ZM18 18.0652V18.3652C18.0796 18.3652 18.1559 18.3336 18.2121 18.2773C18.2684 18.2211 18.3 18.1447 18.3 18.0652L18 18.0652ZM16.984 18.0652H16.684C16.684 18.2309 16.8183 18.3652 16.984 18.3652V18.0652ZM7.01578 18.0652V18.3652C7.18146 18.3652 7.31578 18.2309 7.31578 18.0652H7.01578ZM11.9997 12.0775C13.7582 12.0775 15.1884 10.6473 15.1884 8.88877H14.5884C14.5884 10.3159 13.4268 11.4775 11.9997 11.4775V12.0775ZM8.81088 8.88877C8.81088 10.6473 10.2411 12.0775 11.9997 12.0775V11.4775C10.5725 11.4775 9.41088 10.3159 9.41088 8.88877H8.81088ZM11.9997 5.7C10.2411 5.7 8.81088 7.13023 8.81088 8.88877H9.41088C9.41088 7.4616 10.5725 6.3 11.9997 6.3V5.7ZM15.1884 8.88877C15.1884 7.13023 13.7582 5.7 11.9997 5.7V6.3C13.4268 6.3 14.5884 7.4616 14.5884 8.88877H15.1884ZM11.9997 7.31578C12.8666 7.31578 13.5724 8.02161 13.5724 8.88852H14.1724C14.1724 7.69024 13.1979 6.71578 11.9997 6.71578V7.31578ZM10.4267 8.88852C10.4267 8.02164 11.1325 7.31578 11.9997 7.31578V6.71578C10.8011 6.71578 9.82666 7.69021 9.82666 8.88852H10.4267ZM11.9997 10.4618C11.1326 10.4618 10.4267 9.7555 10.4267 8.88852H9.82666C9.82666 10.0867 10.801 11.0618 11.9997 11.0618V10.4618ZM13.5724 8.88852C13.5724 9.75553 12.8664 10.4618 11.9997 10.4618V11.0618C13.198 11.0618 14.1724 10.0867 14.1724 8.88852H13.5724ZM11.9997 11.7655C8.52545 11.7655 5.7 14.5915 5.7 18.0652H6.3C6.3 14.9228 8.85686 12.3655 11.9997 12.3655V11.7655ZM18.3 18.0652C18.2995 14.5915 15.4738 11.7655 11.9997 11.7655V12.3655C15.1424 12.3655 17.6995 14.9228 17.7 18.0653L18.3 18.0652ZM16.984 18.3652H18V17.7652H16.984V18.3652ZM12 13.3812C14.5824 13.3812 16.684 15.4831 16.684 18.0652H17.284C17.284 15.1517 14.9138 12.7812 12 12.7812V13.3812ZM7.31578 18.0652C7.31578 15.4831 9.41737 13.3812 12 13.3812V12.7812C9.086 12.7812 6.71578 15.1517 6.71578 18.0652H7.31578ZM6 18.3652H7.01578V17.7652H6V18.3652Z" mask="url(#a)"/>
</svg>
