<svg width="16" height="15" viewBox="0 0 16 15" fill="none"
  xmlns="http://www.w3.org/2000/svg">
  <mask id="path-1-outside-1" maskUnits="userSpaceOnUse" x="0" y="0" width="16" height="15" fill="black">
    <rect fill="white" width="16" height="15"/>
    <path fill-rule="evenodd" clip-rule="evenodd" d="M12.6667 2.4H6.6C6.50667 1.60667 5.76 1 4.82667 1H4.73333H4.64C3.70667 1 2.91333 1.65333 2.86667 2.44667C1.79333 2.68 1 3.61333 1 4.73333V11.7333C1 13.04 2.02667 14.0667 3.33333 14.0667H12.6667C13.9733 14.0667 15 13.04 15 11.7333V4.73333C15 3.42667 13.9733 2.4 12.6667 2.4ZM4.64 1.93333H4.73333H4.82667C5.2 1.93333 5.57333 2.12 5.66667 2.4H3.84667C3.94 2.12 4.26667 1.93333 4.64 1.93333ZM14.0667 11.7333C14.0667 12.5267 13.46 13.1333 12.6667 13.1333H3.33333C2.54 13.1333 1.93333 12.5267 1.93333 11.7333V4.73333C1.93333 3.94 2.54 3.33333 3.33333 3.33333H12.6667C13.46 3.33333 14.0667 3.94 14.0667 4.73333V11.7333ZM8.00016 5.19994C6.18016 5.19994 4.73349 6.6466 4.73349 8.4666C4.73349 10.2866 6.18016 11.7333 8.00016 11.7333C9.82016 11.7333 11.2668 10.2866 11.2668 8.4666C11.2668 6.6466 9.82016 5.19994 8.00016 5.19994ZM8.00016 10.7999C6.69349 10.7999 5.66682 9.77327 5.66682 8.4666C5.66682 7.15994 6.69349 6.13327 8.00016 6.13327C9.30682 6.13327 10.3335 7.15994 10.3335 8.4666C10.3335 9.77327 9.30682 10.7999 8.00016 10.7999ZM11.2666 4.73328H12.2C12.48 4.73328 12.6666 4.91994 12.6666 5.19994C12.6666 5.47994 12.48 5.66661 12.2 5.66661H11.2666C10.9866 5.66661 10.8 5.47994 10.8 5.19994C10.8 4.91994 10.9866 4.73328 11.2666 4.73328Z"/>
  </mask>
  <path fill-rule="evenodd" clip-rule="evenodd" d="M12.6667 2.4H6.6C6.50667 1.60667 5.76 1 4.82667 1H4.73333H4.64C3.70667 1 2.91333 1.65333 2.86667 2.44667C1.79333 2.68 1 3.61333 1 4.73333V11.7333C1 13.04 2.02667 14.0667 3.33333 14.0667H12.6667C13.9733 14.0667 15 13.04 15 11.7333V4.73333C15 3.42667 13.9733 2.4 12.6667 2.4ZM4.64 1.93333H4.73333H4.82667C5.2 1.93333 5.57333 2.12 5.66667 2.4H3.84667C3.94 2.12 4.26667 1.93333 4.64 1.93333ZM14.0667 11.7333C14.0667 12.5267 13.46 13.1333 12.6667 13.1333H3.33333C2.54 13.1333 1.93333 12.5267 1.93333 11.7333V4.73333C1.93333 3.94 2.54 3.33333 3.33333 3.33333H12.6667C13.46 3.33333 14.0667 3.94 14.0667 4.73333V11.7333ZM8.00016 5.19994C6.18016 5.19994 4.73349 6.6466 4.73349 8.4666C4.73349 10.2866 6.18016 11.7333 8.00016 11.7333C9.82016 11.7333 11.2668 10.2866 11.2668 8.4666C11.2668 6.6466 9.82016 5.19994 8.00016 5.19994ZM8.00016 10.7999C6.69349 10.7999 5.66682 9.77327 5.66682 8.4666C5.66682 7.15994 6.69349 6.13327 8.00016 6.13327C9.30682 6.13327 10.3335 7.15994 10.3335 8.4666C10.3335 9.77327 9.30682 10.7999 8.00016 10.7999ZM11.2666 4.73328H12.2C12.48 4.73328 12.6666 4.91994 12.6666 5.19994C12.6666 5.47994 12.48 5.66661 12.2 5.66661H11.2666C10.9866 5.66661 10.8 5.47994 10.8 5.19994C10.8 4.91994 10.9866 4.73328 11.2666 4.73328Z" fill="#660000"/>
  <path d="M6.6 2.4L6.40137 2.42337L6.42215 2.6H6.6V2.4ZM2.86667 2.44667L2.90915 2.6421L3.05741 2.60987L3.06632 2.45841L2.86667 2.44667ZM5.66667 2.4V2.6H5.94415L5.8564 2.33675L5.66667 2.4ZM3.84667 2.4L3.65693 2.33675L3.56918 2.6H3.84667V2.4ZM6.6 2.6H12.6667V2.2H6.6V2.6ZM4.82667 1.2C5.67857 1.2 6.32208 1.74943 6.40137 2.42337L6.79863 2.37663C6.69125 1.46391 5.84143 0.8 4.82667 0.8V1.2ZM4.73333 1.2H4.82667V0.8H4.73333V1.2ZM4.64 1.2H4.73333V0.8H4.64V1.2ZM3.06632 2.45841C3.10531 1.79553 3.78586 1.2 4.64 1.2V0.8C3.62747 0.8 2.72135 1.51114 2.66701 2.43492L3.06632 2.45841ZM1.2 4.73333C1.2 3.71152 1.92368 2.85633 2.90915 2.6421L2.82418 2.25123C1.66298 2.50367 0.8 3.51514 0.8 4.73333H1.2ZM1.2 11.7333V4.73333H0.8V11.7333H1.2ZM3.33333 13.8667C2.13712 13.8667 1.2 12.9295 1.2 11.7333H0.8C0.8 13.1505 1.91621 14.2667 3.33333 14.2667V13.8667ZM12.6667 13.8667H3.33333V14.2667H12.6667V13.8667ZM14.8 11.7333C14.8 12.9295 13.8629 13.8667 12.6667 13.8667V14.2667C14.0838 14.2667 15.2 13.1505 15.2 11.7333H14.8ZM14.8 4.73333V11.7333H15.2V4.73333H14.8ZM12.6667 2.6C13.8629 2.6 14.8 3.53712 14.8 4.73333H15.2C15.2 3.31621 14.0838 2.2 12.6667 2.2V2.6ZM4.73333 1.73333H4.64V2.13333H4.73333V1.73333ZM4.82667 1.73333H4.73333V2.13333H4.82667V1.73333ZM5.8564 2.33675C5.78861 2.13339 5.62678 1.98265 5.44649 1.88557C5.26428 1.78746 5.0448 1.73333 4.82667 1.73333V2.13333C4.98186 2.13333 5.13572 2.17254 5.25685 2.23776C5.37989 2.30401 5.45139 2.38661 5.47693 2.46325L5.8564 2.33675ZM3.84667 2.6H5.66667V2.2H3.84667V2.6ZM4.64 1.73333C4.21435 1.73333 3.78683 1.94707 3.65693 2.33675L4.0364 2.46325C4.09317 2.29293 4.31898 2.13333 4.64 2.13333V1.73333ZM12.6667 13.3333C13.5705 13.3333 14.2667 12.6371 14.2667 11.7333H13.8667C13.8667 12.4162 13.3495 12.9333 12.6667 12.9333V13.3333ZM3.33333 13.3333H12.6667V12.9333H3.33333V13.3333ZM1.73333 11.7333C1.73333 12.6371 2.42954 13.3333 3.33333 13.3333V12.9333C2.65046 12.9333 2.13333 12.4162 2.13333 11.7333H1.73333ZM1.73333 4.73333V11.7333H2.13333V4.73333H1.73333ZM3.33333 3.13333C2.42954 3.13333 1.73333 3.82954 1.73333 4.73333H2.13333C2.13333 4.05046 2.65046 3.53333 3.33333 3.53333V3.13333ZM12.6667 3.13333H3.33333V3.53333H12.6667V3.13333ZM14.2667 4.73333C14.2667 3.82954 13.5705 3.13333 12.6667 3.13333V3.53333C13.3495 3.53333 13.8667 4.05046 13.8667 4.73333H14.2667ZM14.2667 11.7333V4.73333H13.8667V11.7333H14.2667ZM4.93349 8.4666C4.93349 6.75706 6.29061 5.39994 8.00016 5.39994V4.99994C6.0697 4.99994 4.53349 6.53615 4.53349 8.4666H4.93349ZM8.00016 11.5333C6.29061 11.5333 4.93349 10.1761 4.93349 8.4666H4.53349C4.53349 10.3971 6.0697 11.9333 8.00016 11.9333V11.5333ZM11.0668 8.4666C11.0668 10.1761 9.7097 11.5333 8.00016 11.5333V11.9333C9.93061 11.9333 11.4668 10.3971 11.4668 8.4666H11.0668ZM8.00016 5.39994C9.7097 5.39994 11.0668 6.75706 11.0668 8.4666H11.4668C11.4668 6.53615 9.93061 4.99994 8.00016 4.99994V5.39994ZM5.46682 8.4666C5.46682 9.88373 6.58303 10.9999 8.00016 10.9999V10.5999C6.80395 10.5999 5.86682 9.66281 5.86682 8.4666H5.46682ZM8.00016 5.93327C6.58303 5.93327 5.46682 7.04948 5.46682 8.4666H5.86682C5.86682 7.27039 6.80395 6.33327 8.00016 6.33327V5.93327ZM10.5335 8.4666C10.5335 7.04948 9.41728 5.93327 8.00016 5.93327V6.33327C9.19637 6.33327 10.1335 7.27039 10.1335 8.4666H10.5335ZM8.00016 10.9999C9.41728 10.9999 10.5335 9.88373 10.5335 8.4666H10.1335C10.1335 9.66281 9.19637 10.5999 8.00016 10.5999V10.9999ZM12.2 4.53328H11.2666V4.93328H12.2V4.53328ZM12.8666 5.19994C12.8666 5.01449 12.8039 4.84441 12.6797 4.72019C12.5555 4.59597 12.3854 4.53328 12.2 4.53328V4.93328C12.2945 4.93328 12.3578 4.96392 12.3969 5.00303C12.436 5.04214 12.4666 5.10539 12.4666 5.19994H12.8666ZM12.2 5.86661C12.3854 5.86661 12.5555 5.80392 12.6797 5.6797C12.8039 5.55548 12.8666 5.38539 12.8666 5.19994H12.4666C12.4666 5.29449 12.436 5.35774 12.3969 5.39685C12.3578 5.43597 12.2945 5.46661 12.2 5.46661V5.86661ZM11.2666 5.86661H12.2V5.46661H11.2666V5.86661ZM10.6 5.19994C10.6 5.38539 10.6626 5.55548 10.7869 5.6797C10.9111 5.80392 11.0812 5.86661 11.2666 5.86661V5.46661C11.1721 5.46661 11.1088 5.43597 11.0697 5.39685C11.0306 5.35774 11 5.29449 11 5.19994H10.6ZM11.2666 4.53328C11.0812 4.53328 10.9111 4.59597 10.7869 4.72019C10.6626 4.84441 10.6 5.01449 10.6 5.19994H11C11 5.10539 11.0306 5.04214 11.0697 5.00303C11.1088 4.96392 11.1721 4.93328 11.2666 4.93328V4.53328Z" fill="#660000" mask="url(#path-1-outside-1)"/>
</svg>
