<svg xmlns="http://www.w3.org/2000/svg" width="10.453" height="10.452" viewBox="0 0 10.453 10.452"><path d="M-12850.261-5693.705a5.021,5.021,0,0,1-1.9-.552,10.4,10.4,0,0,1-3.427-2.682,9.4,9.4,0,0,1-1.672-2.788,3.6,3.6,0,0,1-.28-1.552,1.258,1.258,0,0,1,.4-.849c.265-.251.517-.516.777-.771a.738.738,0,0,1,1.107,0c.21.207.416.417.626.626s.4.4.606.61a.737.737,0,0,1,0,1.133c-.255.255-.506.513-.768.765a.157.157,0,0,0-.039.2,4.583,4.583,0,0,0,.694,1.11,7.975,7.975,0,0,0,1.936,1.762c.161.1.339.174.507.268a.153.153,0,0,0,.213-.042c.255-.258.513-.517.774-.771a.73.73,0,0,1,1.107,0c.412.413.829.826,1.242,1.239a.741.741,0,0,1,0,1.129c-.235.235-.483.461-.706.71a1.358,1.358,0,0,1-1.073.458C-12850.18-5693.7-12850.22-5693.7-12850.261-5693.705Zm-.529-6.764a2.746,2.746,0,0,0-1.584-.791l.112-.807a3.55,3.55,0,0,1,2.046,1.02,3.574,3.574,0,0,1,1,1.936l-.8.136A2.745,2.745,0,0,0-12850.79-5700.469Zm1.455-1.417a5.1,5.1,0,0,0-2.933-1.462l.113-.807a5.924,5.924,0,0,1,3.395,1.691,5.968,5.968,0,0,1,1.665,3.214l-.8.136A5.126,5.126,0,0,0-12849.335-5701.885Z" transform="translate(12857.548 5704.154)" fill="#1f627c"/></svg>