<svg width="28" height="29" viewBox="0 0 28 29" fill="none"
  xmlns="http://www.w3.org/2000/svg">
  <path d="M18.6671 11.7526L2.88721 19.5088L18.6671 27.8L34.9819 19.5088L18.6671 11.7526Z" fill="white" stroke="#1F1F1F" stroke-linejoin="round"/>
  <path d="M18.6671 5.3337L2.88721 13.0899L18.6671 21.381L34.9819 13.0899L18.6671 5.3337Z" fill="white"/>
  <path d="M18.6671 1.58932L2.88721 9.34553L18.6671 17.6367L34.9819 9.34553L18.6671 1.58932Z" fill="white"/>
  <path d="M18.6671 21.381L2.88721 13.0899V14.9621L18.6671 23.5207V21.381Z" fill="white"/>
  <path d="M34.9819 13.0899L18.6671 21.381V23.5207L34.9819 14.9621V13.0899Z" fill="white"/>
  <path d="M2.88721 13.0899L18.6671 5.3337L34.9819 13.0899M2.88721 13.0899L18.6671 21.381M2.88721 13.0899V14.9621L18.6671 23.5207M34.9819 13.0899L18.6671 21.381M34.9819 13.0899V14.9621L18.6671 23.5207M18.6671 21.381V23.5207M2.88721 9.34553L18.6671 1.58932L34.9819 9.34553L18.6671 17.6367L2.88721 9.34553Z" stroke="#1F1F1F" stroke-linejoin="round"/>
  <path d="M34.9902 13.1058L18.6754 21.3969V23.5366L34.9902 14.978V13.1058Z" fill="white" stroke="#1F1F1F" stroke-linejoin="round"/>
  <path d="M2.88721 9.34553L18.6671 1.58932L27.4922 5.78488L34.9819 9.34553L27.4922 13.1517L18.6671 17.6367L2.88721 9.34553Z" fill="white"/>
  <path d="M27.4922 5.78488L18.6671 1.58932L2.88721 9.34553L18.6671 17.6367L34.9819 9.34553L27.4922 5.78488ZM27.4922 5.78488V23.4604" fill="none" stroke="#1F1F1F" stroke-linejoin="round"/>
  <path d="M6.87999 10.5973V3.15316C6.87999 2.55714 6.64322 1.98553 6.22177 1.56409C5.80032 1.14264 5.22872 0.905872 4.6327 0.905872C4.03668 0.905872 3.46508 1.14264 3.04363 1.56409C2.62218 1.98553 2.38542 2.55714 2.38542 3.15316V10.5973C1.69832 11.0757 1.18184 11.761 0.911153 12.5533C0.640467 13.3455 0.629702 14.2036 0.880425 15.0024C1.13115 15.8012 1.63027 16.4992 2.30515 16.9947C2.98003 17.4902 3.79544 17.7575 4.6327 17.7575C5.46996 17.7575 6.28537 17.4902 6.96025 16.9947C7.63513 16.4992 8.13425 15.8012 8.38497 15.0024C8.6357 14.2036 8.62493 13.3455 8.35425 12.5533C8.08356 11.761 7.56708 11.0757 6.87999 10.5973Z" fill="white" stroke="#1F1F1F" stroke-miterlimit="10" stroke-linecap="round" stroke-linejoin="round"/>
  <path d="M4.63269 5.40044V12.1423" fill="none" stroke="#1F1F1F" stroke-miterlimit="10" stroke-linecap="round" stroke-linejoin="round"/>
  <path d="M4.63285 15.5132C5.56371 15.5132 6.31832 14.7586 6.31832 13.8278C6.31832 12.8969 5.56371 12.1423 4.63285 12.1423C3.702 12.1423 2.94739 12.8969 2.94739 13.8278C2.94739 14.7586 3.702 15.5132 4.63285 15.5132Z" fill="none" stroke="#1F1F1F" stroke-miterlimit="10" stroke-linecap="round" stroke-linejoin="round"/>
</svg>
