<svg xmlns="http://www.w3.org/2000/svg" fill="none" viewBox="0 0 16 23">
  <defs/>
  <path fill="#6B5B73" d="M0 16c.07.9.47 1.74 1.1 2.34.64.59 1.47.89 2.3.83h1.05c0 1.01.38 1.99 1.04 2.7A3.43 3.43 0 008.01 23c.94 0 1.84-.4 2.51-1.12a3.99 3.99 0 001.04-2.71h1.04c.83.06 1.66-.24 2.3-.83A3.56 3.56 0 0016 16c0-.47-.12-.93-.32-1.34a5.18 5.18 0 01-.49-2.8 6.92 6.92 0 00-1.31-5.34 7.25 7.25 0 00-3.52-2.32A3.02 3.02 0 009.9.84 2.57 2.57 0 008.01 0C7.3 0 6.62.3 6.12.84a3 3 0 00-.47 3.35 7.26 7.26 0 00-3.53 2.33 6.94 6.94 0 00-1.31 5.34c.1.96-.07 1.93-.49 2.8-.2.4-.31.87-.32 1.34zm8 5.08c-.46 0-.92-.2-1.25-.56a2 2 0 01-.52-1.35h3.55a2 2 0 01-.52 1.35c-.33.36-.78.56-1.25.56zM8 1.92c.18 0 .35.05.5.16.15.1.26.25.33.43a1.03 1.03 0 01-.2 1.04.87.87 0 01-.45.26.83.83 0 01-.51-.05.9.9 0 01-.4-.35 1.01 1.01 0 01.1-1.21c.18-.18.4-.28.64-.28zM1.9 15.53c.58-1.2.82-2.56.67-3.9a4.84 4.84 0 01.88-3.85 6.1 6.1 0 012.08-1.53A5.72 5.72 0 018 5.75c.85-.02 1.69.15 2.47.5a6.1 6.1 0 012.08 1.53 4.67 4.67 0 01.88 3.85c-.15 1.34.09 2.7.67 3.9.5 1.05-.7 1.72-1.5 1.72H3.4c-.8 0-2-.68-1.5-1.72z"/>
</svg>
