<svg xmlns="http://www.w3.org/2000/svg" fill="none" viewBox="0 0 24 24">
  <defs/>
  <mask id="a" width="14" height="14" x="7" y="5" fill="#000" maskUnits="userSpaceOnUse">
    <path fill="#fff" d="M7 5H21V19H7z"/>
    <path fill-rule="evenodd" d="M8.47732 6C8.2137 6 8 6.2137 8 6.47732V17.8535C8 18.1171 8.2137 18.3308 8.47732 18.3308H16.0222C16.2858 18.3308 16.4995 18.1171 16.4995 17.8535V15.2091C16.4995 14.9455 16.2858 14.7318 16.0222 14.7318C15.7586 14.7318 15.5449 14.9455 15.5449 15.2091V17.3762H8.95465V6.95465H15.5449V9.02304C15.5449 9.28666 15.7586 9.50037 16.0222 9.50037C16.2858 9.50037 16.4995 9.28666 16.4995 9.02304V6.47732C16.4995 6.2137 16.2858 6 16.0222 6H8.47732ZM17.1198 9.71322C17.3062 9.52682 17.6085 9.52682 17.7949 9.71322L19.8601 11.7784C20.0465 11.9648 20.0465 12.2671 19.8601 12.4535L17.7949 14.5187C17.6085 14.7051 17.3062 14.7051 17.1198 14.5187C16.9334 14.3323 16.9334 14.0301 17.1198 13.8437L18.3701 12.5934H11.4872C11.2236 12.5934 11.0099 12.3797 11.0099 12.116C11.0099 11.8524 11.2236 11.6387 11.4872 11.6387H18.3703L17.1198 10.3883C16.9334 10.2019 16.9334 9.89963 17.1198 9.71322Z" clip-rule="evenodd"/>
  </mask>
  <path fill="currentColor" fill-rule="evenodd" d="M8.47732 6C8.2137 6 8 6.2137 8 6.47732V17.8535C8 18.1171 8.2137 18.3308 8.47732 18.3308H16.0222C16.2858 18.3308 16.4995 18.1171 16.4995 17.8535V15.2091C16.4995 14.9455 16.2858 14.7318 16.0222 14.7318C15.7586 14.7318 15.5449 14.9455 15.5449 15.2091V17.3762H8.95465V6.95465H15.5449V9.02304C15.5449 9.28666 15.7586 9.50037 16.0222 9.50037C16.2858 9.50037 16.4995 9.28666 16.4995 9.02304V6.47732C16.4995 6.2137 16.2858 6 16.0222 6H8.47732ZM17.1198 9.71322C17.3062 9.52682 17.6085 9.52682 17.7949 9.71322L19.8601 11.7784C20.0465 11.9648 20.0465 12.2671 19.8601 12.4535L17.7949 14.5187C17.6085 14.7051 17.3062 14.7051 17.1198 14.5187C16.9334 14.3323 16.9334 14.0301 17.1198 13.8437L18.3701 12.5934H11.4872C11.2236 12.5934 11.0099 12.3797 11.0099 12.116C11.0099 11.8524 11.2236 11.6387 11.4872 11.6387H18.3703L17.1198 10.3883C16.9334 10.2019 16.9334 9.89963 17.1198 9.71322Z" clip-rule="evenodd"/>
  <path fill="currentColor" d="M15.5449 17.3762V17.5762C15.6553 17.5762 15.7449 17.4867 15.7449 17.3762H15.5449ZM8.95465 17.3762H8.75465C8.75465 17.4867 8.84419 17.5762 8.95465 17.5762V17.3762ZM8.95465 6.95465V6.75465C8.84419 6.75465 8.75465 6.84419 8.75465 6.95465H8.95465ZM15.5449 6.95465H15.7449C15.7449 6.84419 15.6553 6.75465 15.5449 6.75465V6.95465ZM19.8601 12.4535L19.7187 12.3121L19.8601 12.4535ZM17.7949 14.5187L17.9363 14.6601L17.7949 14.5187ZM17.1198 13.8437L17.2613 13.9851L17.1198 13.8437ZM18.3701 12.5934L18.5115 12.7348C18.5687 12.6776 18.5859 12.5916 18.5549 12.5168C18.5239 12.4421 18.451 12.3934 18.3701 12.3934V12.5934ZM18.3703 11.6387V11.8387C18.4512 11.8387 18.5241 11.79 18.5551 11.7153C18.586 11.6405 18.5689 11.5545 18.5117 11.4973L18.3703 11.6387ZM17.1198 10.3883L17.2613 10.2468L17.1198 10.3883ZM8.2 6.47732C8.2 6.32416 8.32416 6.2 8.47732 6.2V5.8C8.10325 5.8 7.8 6.10325 7.8 6.47732H8.2ZM8.2 17.8535V6.47732H7.8V17.8535H8.2ZM8.47732 18.1308C8.32416 18.1308 8.2 18.0067 8.2 17.8535H7.8C7.8 18.2276 8.10325 18.5308 8.47732 18.5308V18.1308ZM16.0222 18.1308H8.47732V18.5308H16.0222V18.1308ZM16.2995 17.8535C16.2995 18.0067 16.1754 18.1308 16.0222 18.1308V18.5308C16.3963 18.5308 16.6995 18.2276 16.6995 17.8535H16.2995ZM16.2995 15.2091V17.8535H16.6995V15.2091H16.2995ZM16.0222 14.9318C16.1754 14.9318 16.2995 15.056 16.2995 15.2091H16.6995C16.6995 14.8351 16.3963 14.5318 16.0222 14.5318V14.9318ZM15.7449 15.2091C15.7449 15.056 15.869 14.9318 16.0222 14.9318V14.5318C15.6481 14.5318 15.3449 14.8351 15.3449 15.2091H15.7449ZM15.7449 17.3762V15.2091H15.3449V17.3762H15.7449ZM8.95465 17.5762H15.5449V17.1762H8.95465V17.5762ZM8.75465 6.95465V17.3762H9.15465V6.95465H8.75465ZM15.5449 6.75465H8.95465V7.15465H15.5449V6.75465ZM15.7449 9.02304V6.95465H15.3449V9.02304H15.7449ZM16.0222 9.30037C15.869 9.30037 15.7449 9.17621 15.7449 9.02304H15.3449C15.3449 9.39712 15.6481 9.70037 16.0222 9.70037V9.30037ZM16.2995 9.02304C16.2995 9.17621 16.1754 9.30037 16.0222 9.30037V9.70037C16.3963 9.70037 16.6995 9.39712 16.6995 9.02304H16.2995ZM16.2995 6.47732V9.02304H16.6995V6.47732H16.2995ZM16.0222 6.2C16.1754 6.2 16.2995 6.32416 16.2995 6.47732H16.6995C16.6995 6.10325 16.3963 5.8 16.0222 5.8V6.2ZM8.47732 6.2H16.0222V5.8H8.47732V6.2ZM17.9363 9.5718C17.6718 9.30729 17.2429 9.30729 16.9784 9.5718L17.2613 9.85465C17.3696 9.74634 17.5451 9.74634 17.6534 9.85465L17.9363 9.5718ZM20.0015 11.637L17.9363 9.5718L17.6534 9.85465L19.7187 11.9199L20.0015 11.637ZM20.0015 12.5949C20.266 12.3304 20.266 11.9015 20.0015 11.637L19.7187 11.9199C19.827 12.0282 19.827 12.2038 19.7187 12.3121L20.0015 12.5949ZM17.9363 14.6601L20.0015 12.5949L19.7187 12.3121L17.6534 14.3773L17.9363 14.6601ZM16.9784 14.6601C17.2429 14.9246 17.6718 14.9246 17.9363 14.6601L17.6534 14.3773C17.5451 14.4856 17.3696 14.4856 17.2613 14.3773L16.9784 14.6601ZM16.9784 13.7022C16.7139 13.9667 16.7139 14.3956 16.9784 14.6601L17.2613 14.3773C17.153 14.269 17.153 14.0934 17.2613 13.9851L16.9784 13.7022ZM18.2287 12.4519L16.9784 13.7022L17.2613 13.9851L18.5115 12.7348L18.2287 12.4519ZM11.4872 12.7934H18.3701V12.3934H11.4872V12.7934ZM10.8099 12.116C10.8099 12.4901 11.1131 12.7934 11.4872 12.7934V12.3934C11.334 12.3934 11.2099 12.2692 11.2099 12.116H10.8099ZM11.4872 11.4387C11.1131 11.4387 10.8099 11.742 10.8099 12.116H11.2099C11.2099 11.9629 11.334 11.8387 11.4872 11.8387V11.4387ZM18.3703 11.4387H11.4872V11.8387H18.3703V11.4387ZM16.9784 10.5297L18.2289 11.7801L18.5117 11.4973L17.2613 10.2468L16.9784 10.5297ZM16.9784 9.5718C16.7139 9.83631 16.7139 10.2652 16.9784 10.5297L17.2613 10.2468C17.153 10.1385 17.153 9.96295 17.2613 9.85465L16.9784 9.5718Z" mask="url(#a)"/>
</svg>
