<svg xmlns="http://www.w3.org/2000/svg" width="20.901" height="18.958" viewBox="0 0 20.901 18.958">
  <g transform="translate(-984 -11.956)">
    <path d="M14.808,22.543a6.027,6.027,0,0,0-2.768.664,6.14,6.14,0,0,0-1.589,1.171,6.141,6.141,0,0,0-1.589-1.171,6.028,6.028,0,0,0-2.768-.664A6.1,6.1,0,0,0,0,28.636c0,2.38,1.257,4.907,3.735,7.512A36.12,36.12,0,0,0,10.1,41.275l.351.227.351-.227a36.12,36.12,0,0,0,6.364-5.126c2.479-2.605,3.735-5.132,3.735-7.512A6.1,6.1,0,0,0,14.808,22.543Zm1.421,12.714a34.187,34.187,0,0,1-5.779,4.7,34.188,34.188,0,0,1-5.779-4.7C2.43,32.9,1.293,30.673,1.293,28.636a4.8,4.8,0,0,1,8.641-2.88l.517.688.517-.688a4.8,4.8,0,0,1,8.641,2.88C19.608,30.673,18.472,32.9,16.229,35.257Z" transform="translate(984 -10.587)">
  </g>
</svg>
