<svg width="30" height="26" viewBox="0 0 30 26" fill="none"
  xmlns="http://www.w3.org/2000/svg">
  <path d="M14.7666 10.8666L1 17.6333L14.7666 24.8666L28.9998 17.6333L14.7666 10.8666Z" fill="white" stroke="#1F1F1F" stroke-linejoin="round"/>
  <path d="M14.7667 1L1.00012 7.76663L14.7667 14.9999L29 7.76663L14.7667 1Z" fill="white"/>
  <path d="M14.7667 6L1.00012 12.7666L14.7667 19.9999L29 12.7666L14.7667 6Z" fill="white"/>
  <path d="M14.7667 1L1.00012 7.76663L14.7667 14.9999L29 7.76663L14.7667 1Z" fill="none" stroke="#1F1F1F" stroke-linejoin="round"/>
  <path d="M14.7667 6L1.00012 12.7666L14.7667 19.9999L29 12.7666L14.7667 6Z" fill="none" stroke="#1F1F1F" stroke-linejoin="round"/>
  <path d="M14.7667 1L1.00012 7.76663L14.7667 14.9999L29 7.76663L22.4659 4.66026L14.7667 1Z" fill="white" stroke="#1F1F1F" stroke-linejoin="round"/>
</svg>
