<svg width="11" height="11" viewBox="0 0 11 11" fill="none"
  xmlns="http://www.w3.org/2000/svg">
  <path fill-rule="evenodd" clip-rule="evenodd" d="M0.292893 8.77817C-0.0976311 9.1687 -0.0976311 9.80186 0.292893 10.1924C0.683418 10.5829 1.31658 10.5829 1.70711 10.1924L5.24265 6.65685L8.77818 10.1924C9.16871 10.5829 9.80187 10.5829 10.1924 10.1924C10.5829 9.80186 10.5829 9.1687 10.1924 8.77817L6.65686 5.24264L10.1924 1.70711C10.5829 1.31658 10.5829 0.683418 10.1924 0.292893C9.80186 -0.097631 9.1687 -0.0976313 8.77817 0.292893L5.24265 3.82842L1.70712 0.292893C1.31659 -0.0976313 0.683427 -0.097631 0.292903 0.292893C-0.0976217 0.683418 -0.0976219 1.31658 0.292903 1.70711L3.82843 5.24264L0.292893 8.77817Z" fill="currentColor"/>
</svg>
