<svg xmlns="http://www.w3.org/2000/svg" width="45.871" height="39.229" viewBox="0 0 45.871 39.229">
  <g id="Market_valuation" data-name="Market valuation" transform="translate(-6.522 62.519)">
    <path id="contour_204" data-name="contour 204" d="M100.413,85.889H109.4a.546.546,0,1,0,0-1.092h-8.984a.546.546,0,1,0,0,1.092Zm0,0" transform="translate(-83.282 -138.704)" fill="#43698c"/>
    <path id="contour_205" data-name="contour 205" d="M157.5,131.206a.546.546,0,0,0-.546-.546h-5.622a.546.546,0,0,0,0,1.092h5.622A.546.546,0,0,0,157.5,131.206Zm0,0" transform="translate(-129.212 -179.883)" fill="#43698c"/>
    <path id="contour_206" data-name="contour 206" d="M100.413,131.752h2.445a.546.546,0,1,0,0-1.092h-2.445a.546.546,0,1,0,0,1.092Zm0,0" transform="translate(-83.447 -179.883)" fill="#43698c"/>
    <path id="contour_207" data-name="contour 207" d="M222.948,85.889h3.042a.546.546,0,1,0,0-1.092h-3.042a.546.546,0,1,0,0,1.092Zm0,0" transform="translate(-193.807 -138.704)" fill="#43698c"/>
    <path id="contour_208" data-name="contour 208" d="M136.32,180.66h-4.985a.546.546,0,0,0,0,1.092h4.985a.546.546,0,1,0,0-1.092Zm0,0" transform="translate(-111.229 -224.776)" fill="#43698c"/>
    <path id="contour_209" data-name="contour 209" d="M100.413,181.752h.625a.546.546,0,0,0,0-1.092h-.625a.546.546,0,0,0,0,1.092Zm0,0" transform="translate(-83.483 -224.776)" fill="#43698c"/>
    <path id="contour_210" data-name="contour 210" d="M181.771,230.66h-.436a.546.546,0,0,0,0,1.092h.436a.546.546,0,1,0,0-1.092Zm0,0" transform="translate(-156.42 -269.669)" fill="#43698c"/>
    <path id="contour_211" data-name="contour 211" d="M105.587,230.66h-5.174a.546.546,0,0,0,0,1.092h5.174a.546.546,0,1,0,0-1.092Zm0,0" transform="translate(-83.385 -269.669)" fill="#43698c"/>
    <path id="contour_212" data-name="contour 212" d="M239.231,165.936a.546.546,0,0,0,.321.987h1.105v6.112a.546.546,0,0,0,.546.546h7.972a.546.546,0,0,0,.546-.546v-6.112h1.105a.546.546,0,0,0,.321-.987l-1-.731v-.971a.546.546,0,0,0-1.092,0v.176l-3.541-2.578a.545.545,0,0,0-.643,0Zm9.919-.1a.546.546,0,0,0-.52.545v6.112h-6.88v-6.112a.546.546,0,0,0-.521-.545l3.96-2.884Zm0,0" transform="translate(-208.221 -206.943)" fill="#43698c"/>
    <path id="contour_213" data-name="contour 213" d="M42.029,32.209a.673.673,0,0,0-.974,0l-.731.756L37.646,30.2a10.427,10.427,0,0,0-.47-13.865,9.661,9.661,0,0,0-5.962-2.922V11.881h6.3a.6.6,0,0,0,.591-.611V4.654A4.111,4.111,0,0,0,34.068.481c-.066,0-.132,0-.2.005V.481H10.28A4.621,4.621,0,0,0,5.751,5.117l-.2,23.4H.591A.6.6,0,0,0,0,29.127V32.91a6.317,6.317,0,0,0,5.86,6.447v.007h18.89v-.011c.114.007.228.011.343.011a6.255,6.255,0,0,0,6.078-5.714,9.678,9.678,0,0,0,5.5-2.447l2.678,2.769-.731.755a.729.729,0,0,0,0,1.008l3.125,3.232a2.36,2.36,0,0,0,2.336.658,2.455,2.455,0,0,0,1.712-1.77,2.551,2.551,0,0,0-.637-2.415Zm-3.35-8.684A8.841,8.841,0,0,1,36.2,29.71h0A8.253,8.253,0,0,1,25.519,30.8,8.915,8.915,0,0,1,22.4,20.177a8.406,8.406,0,0,1,9.466-5.231,8.68,8.68,0,0,1,6.81,8.579ZM36.924,4.655V10.66h-5.71V4.655a2.856,2.856,0,1,1,5.71,0ZM6.12,38.143a5.1,5.1,0,0,1-4.938-5.232V29.738H18.972v3.173a6.564,6.564,0,0,0,2.544,5.232Zm18.971,0a5.1,5.1,0,0,1-4.938-5.232V29.127a.6.6,0,0,0-.591-.611H6.733l.2-23.388A3.415,3.415,0,0,1,10.28,1.7H31.219a4.231,4.231,0,0,0-1.186,2.952v8.7A10.014,10.014,0,0,0,20.379,23.5a10.018,10.018,0,0,0,9.6,10.2,5.048,5.048,0,0,1-4.886,4.448ZM44.18,37.96a1.01,1.01,0,0,1-1.462,0L40.08,35.233l1.462-1.512,2.638,2.728a1.1,1.1,0,0,1,0,1.511Zm0,0" transform="translate(6.521 -63)" fill="#43698c"/>
  </g>
</svg>
