<svg id="Векторный_смарт-объект_копия_2" data-name="Векторный смарт-объект копия 2" xmlns="http://www.w3.org/2000/svg" width="11.796" height="21.151" viewBox="0 0 11.796 21.151">
  <g id="Векторный_смарт-объект_копия_2-2" data-name="Векторный смарт-объект копия 2" transform="translate(0 0)">
    <g id="Сгруппировать_12" data-name="Сгруппировать 12" transform="translate(0)">
      <path id="Контур_10" data-name="Контур 10" d="M11.241,12.049,3.974,20.375A2.273,2.273,0,0,1,.78,20.6a2.241,2.241,0,0,1-.226-3.175l5.981-6.852L.559,3.725A2.252,2.252,0,0,1,2.268,0,2.264,2.264,0,0,1,3.979.776L11.242,9.1A2.24,2.24,0,0,1,11.241,12.049Z" transform="translate(0 0)" fill="#43698c"/>
    </g>
  </g>
  <path id="Color_Overlay" data-name="Color Overlay" d="M.786.551A2.242,2.242,0,0,0,.559,3.726l5.976,6.848L.554,17.425A2.242,2.242,0,0,0,.78,20.6a2.273,2.273,0,0,0,3.194-.225l7.268-8.326a2.24,2.24,0,0,0,0-2.949L3.979.776A2.272,2.272,0,0,0,.786.551Z" transform="translate(0 0)" fill="#43698c"/>
</svg>
