<svg width="120" height="69" viewBox="0 0 120 69" fill="none" xmlns="http://www.w3.org/2000/svg">
<path d="M109.175 64.2012C112.367 64.2012 114.964 61.7172 114.964 58.6641C114.964 56.8551 114.031 55.1704 112.522 54.1446C113.045 53.3784 113.326 52.4829 113.326 51.5449C113.326 49.5118 111.948 47.716 109.969 47.0605C109.694 44.2257 107.238 42 104.259 42C103.076 42 101.933 42.352 100.974 42.9996C100.046 42.3697 98.9192 42 97.7051 42C94.7261 42 92.2702 44.2257 91.9957 47.0605C90.0163 47.716 88.6385 49.5118 88.6385 51.5449C88.6385 52.4829 88.9191 53.3784 89.4424 54.1446C87.9328 55.1704 87 56.8551 87 58.6641C87 61.7172 89.5971 64.2012 92.7895 64.2012H96.8858V67.418H92.7895C92.337 67.418 91.9702 67.7721 91.9702 68.209C91.9702 68.6458 92.337 69 92.7895 69H109.175C109.627 69 109.994 68.6458 109.994 68.209C109.994 67.7721 109.627 67.418 109.175 67.418H105.078V64.2012H109.175ZM104.259 43.582C106.5 43.582 108.388 45.3674 108.348 47.6551C108.341 48.037 108.617 48.369 109.005 48.4442C110.559 48.7457 111.687 50.0497 111.687 51.5449C111.687 52.3974 111.339 53.1978 110.706 53.7988C110.297 54.1863 110.417 54.8495 110.937 55.081C112.388 55.7276 113.326 57.134 113.326 58.6641C113.326 60.8449 111.464 62.6191 109.175 62.6191H106.63C107.694 61.6133 108.356 60.212 108.356 58.6641C108.356 56.8551 107.423 55.1704 105.913 54.1446C106.436 53.3784 106.717 52.4829 106.717 51.5449C106.717 49.5093 105.362 47.7153 103.415 47.0619C103.308 45.9567 102.87 44.9441 102.198 44.1198C102.819 43.7702 103.529 43.582 104.259 43.582ZM103.44 67.418H98.5243V64.2012C99.3327 64.2012 102.942 64.2012 103.44 64.2012V67.418ZM102.621 62.6191C102.193 62.6191 98.9304 62.6191 98.5243 62.6191V57.4097L101.561 54.4773C101.881 54.1684 101.881 53.6676 101.561 53.3587C101.242 53.0498 100.723 53.0498 100.403 53.3587L98.5243 55.1724V47.5898C98.5243 47.153 98.1575 46.7988 97.7051 46.7988C97.2526 46.7988 96.8858 47.153 96.8858 47.5898V52.0083L95.0073 50.1946C94.6874 49.8857 94.1686 49.8857 93.8487 50.1946C93.5287 50.5035 93.5287 51.0043 93.8487 51.3133L96.8858 54.2456V58.3364L95.0073 56.5227C94.6874 56.2138 94.1686 56.2138 93.8487 56.5227C93.5287 56.8316 93.5287 57.3324 93.8487 57.6413L96.8858 60.5737V62.6191H92.7895C90.5006 62.6191 88.6385 60.8449 88.6385 58.6641C88.6385 57.134 89.5763 55.7276 91.0276 55.0811C91.5473 54.8495 91.6669 54.1863 91.2587 53.7988C90.6257 53.1978 90.2771 52.3974 90.2771 51.5449C90.2771 50.0497 91.405 48.7457 92.9591 48.4442C93.3553 48.3674 93.668 48.012 93.609 47.5493C93.6312 45.358 95.4601 43.582 97.7051 43.582C99.95 43.582 101.779 45.3579 101.801 47.5493C101.743 48.0072 102.05 48.3665 102.451 48.4442C103.974 48.7396 105.078 50.0436 105.078 51.5449C105.078 52.3974 104.73 53.1978 104.097 53.7988C103.689 54.1863 103.808 54.8495 104.328 55.081C105.779 55.7276 106.717 57.134 106.717 58.6641C106.717 60.8449 104.879 62.6191 102.621 62.6191Z" fill="#323640"/>
<rect x="75" y="18" width="16" height="50" fill="#FFE700"/>
<rect x="28" y="18" width="15" height="51" fill="#FFE700"/>
<path d="M42.7999 67.85V9.40002H76.0499V67.85" stroke="#323640" stroke-width="2" stroke-linecap="round" stroke-linejoin="round"  fill="white"/>
<path d="M1 67.85H119.2" stroke="#323640" stroke-width="2" stroke-linecap="round" stroke-linejoin="round"/><path d="M46.9999 9.4V1H72.1999V9.4" stroke="#323640" stroke-width="2" stroke-linecap="round" stroke-linejoin="round"  fill="white"/>
<path d="M52.6 67.85V54.55" stroke="#323640" stroke-width="2" stroke-linecap="round" stroke-linejoin="round"  fill="white"/>
<path d="M66.6 67.85V54.55" stroke="#323640" stroke-width="2" stroke-linecap="round" stroke-linejoin="round"/>
<path d="M50.15 54.55H69.05" stroke="#323640" stroke-width="2" stroke-linecap="round" stroke-linejoin="round"/>
<path d="M27.75 26.55H34.75M27.75 34.6H34.75M27.75 42.65H34.75M27.75 51.0501H34.75M27.75 59.1001H34.75" stroke="white" stroke-width="2" stroke-linecap="round" stroke-linejoin="round"/>
<path d="M84.1 26.55H91.1M84.1 34.6H91.1M84.1 42.65H91.1M84.1 51.0501H91.1M84.1 59.1001H91.1" stroke="white" stroke-width="2" stroke-linecap="round" stroke-linejoin="round"/>
<path d="M57.185 13.95H51.9V21.7012H57.185V13.95Z" stroke="#323640" stroke-width="2" stroke-linecap="round" stroke-linejoin="round"  fill="white"/>
<path d="M67.051 13.95H61.766V21.7012H67.051V13.95Z" stroke="#323640" stroke-width="2" stroke-linecap="round" stroke-linejoin="round"  fill="white"/>
<path d="M67.051 28.0433H61.766V35.7946H67.051V28.0433Z" stroke="#323640" stroke-width="2" stroke-linecap="round" stroke-linejoin="round"  fill="white"/>
<path d="M67.051 42.1365H61.766V49.8878H67.051V42.1365Z" stroke="#323640" stroke-width="2" stroke-linecap="round" stroke-linejoin="round"  fill="white"/>
<path d="M57.185 28.0433H51.9V35.7946H57.185V28.0433Z" stroke="#323640" stroke-width="2" stroke-linecap="round" stroke-linejoin="round"  fill="white"/>
<path d="M57.185 42.1365H51.9V49.8878H57.185V42.1365Z" stroke="#323640" stroke-width="2" stroke-linecap="round" stroke-linejoin="round"  fill="white"/>
<path d="M76.0499 17.8H91.4499V67.5001" stroke="#323640" stroke-width="2" stroke-linecap="round" stroke-linejoin="round" fill="#FFE700"/>
<path d="M42.8 17.45H27.75V67.5" stroke="#323640" stroke-width="2" stroke-linecap="round" stroke-linejoin="round" fill="#FFE700"/>
<path d="M7.50001 62.5H12.5H18C19.1667 62.5 21.7 61.7 22.5 58.5C23.3 55.3 20.8334 53.8334 19.5 53.5C21.1 49.9 18.8334 47.6667 17.5 47C17.1667 45.3333 16.7579 42 12.5 42C7.50001 42 8.00001 47 7.50001 47C7.00001 47 5.5 48 5 49.5C4.61994 50.6402 5 52 5.5 53.5C4.5 54 3 55.5 3 57.5C3 60.7 6.00001 62.1667 7.50001 62.5Z" stroke="#323640" stroke-width="1.8" stroke-linecap="round" stroke-linejoin="round" fill="white"/>
<path d="M12.5 46.5001V67.0001" stroke="#323640" stroke-width="1.8" stroke-linecap="round" stroke-linejoin="round"/>
<path d="M16 52.5001L12.5 56.5001" stroke="#323640" stroke-width="1.8" stroke-linecap="round" stroke-linejoin="round"/>
<path d="M9 49.5001L12 52.5001" stroke="#323640" stroke-width="1.8" stroke-linecap="round" stroke-linejoin="round"/>
<path d="M9.5 56L12.5 59" stroke="#323640" stroke-width="1.8" stroke-linecap="round" stroke-linejoin="round"/>
</svg>
