<svg width="14" height="8" viewBox="0 0 14 8" fill="none"
  xmlns="http://www.w3.org/2000/svg">
  <path fill-rule="evenodd" clip-rule="evenodd" d="M1.42863 1.55652C1.49395 1.67411 1.61737 1.87091 1.79771 2.12068C2.096 2.53365 2.44896 2.94627 2.85627 3.33215C4.03226 4.44626 5.4179 5.12031 7 5.12031C8.5821 5.12031 9.96774 4.44626 11.1437 3.33215C11.551 2.94627 11.904 2.53365 12.2023 2.12068C12.3826 1.87091 12.5061 1.67429 12.5714 1.55652C12.6718 1.37566 12.6067 1.14766 12.4258 1.04721C12.245 0.946751 12.017 1.01189 11.9165 1.19275C11.8649 1.28583 11.7571 1.45777 11.5949 1.68217C11.3225 2.05931 10.9996 2.43679 10.6284 2.78839C9.58066 3.78112 8.36764 4.37117 7 4.37117C5.63236 4.37117 4.41934 3.78112 3.37141 2.78822C3.00027 2.43662 2.6773 2.05914 2.40491 1.682C2.24291 1.4576 2.13508 1.28566 2.08331 1.19258C1.98303 1.01189 1.75503 0.946751 1.57417 1.04721C1.39332 1.14766 1.32818 1.37566 1.42863 1.55652ZM12.1378 3.89529C11.995 3.74221 11.7523 3.73655 11.6054 3.87352C11.454 4.0146 11.4494 4.25546 11.59 4.40614L12.3502 5.22145C12.493 5.37453 12.7358 5.38019 12.8827 5.24322C13.0341 5.10214 13.0387 4.86128 12.8981 4.7106L12.1378 3.89529ZM10.0423 5.3867C9.93774 5.20551 9.70237 5.14533 9.52837 5.24579C9.34923 5.34916 9.29043 5.58282 9.39346 5.76127L9.95094 6.72675C10.0555 6.90794 10.2909 6.96811 10.4649 6.86766C10.644 6.76429 10.7028 6.53063 10.5998 6.35218L10.0423 5.3867ZM6.62543 6.24847C6.62543 6.03915 6.79926 5.86944 7 5.86944C7.20691 5.86944 7.37457 6.04224 7.37457 6.24847V7.36325C7.37457 7.57257 7.20074 7.74228 7 7.74228C6.79309 7.74228 6.62543 7.56948 6.62543 7.36325V6.24847ZM3.95769 5.3867C4.06243 5.20551 4.29763 5.14533 4.47163 5.24579C4.65077 5.34916 4.70957 5.58282 4.60654 5.76127L4.04906 6.72675C3.94432 6.90794 3.70912 6.96811 3.53512 6.86766C3.35598 6.76429 3.29718 6.53063 3.40021 6.35218L3.95769 5.3867ZM1.86217 3.89529C2.00497 3.74221 2.24771 3.73655 2.39462 3.87352C2.54599 4.0146 2.55062 4.25546 2.41005 4.40614L1.64977 5.22162C1.50697 5.3747 1.26423 5.38036 1.11732 5.24339C0.965951 5.10231 0.961322 4.86145 1.10189 4.71077L1.86217 3.89529Z" fill="#6B5B73" stroke="#6B5B73" stroke-width="0.4"/>
</svg>
