<svg fill="none" xmlns="http://www.w3.org/2000/svg" viewBox="-5 -7 24 24">
<path fill-rule="evenodd" clip-rule="evenodd" d="M6.4199 10.2598C6.2949 10.3531 6.1474 10.4 5.9999 10.4C5.8524 10.4 5.7049 10.3531 5.5799 10.2598C4.4209 9.39314 1.21265 6.91491 0.45265 5.48766C-0.4791 3.73788 0.07365 1.50002 1.6879 0.489865C2.2184 0.15771 2.79715 0 3.36815 0C4.36965 0 5.3474 0.485048 5.9999 1.36513C6.6529 0.484794 7.6304 0 8.63165 0C9.20265 0 9.7814 0.15771 10.3122 0.489865C11.9262 1.50002 12.4792 3.73788 11.5474 5.48766C10.7874 6.91491 7.5789 9.39314 6.4199 10.2598ZM10.0474 0.915581C9.6149 0.644786 9.1254 0.501782 8.63165 0.501782C7.76215 0.501782 6.94915 0.92547 6.4009 1.66458L5.9999 2.20541L5.59865 1.66458C5.0509 0.925724 4.23765 0.501782 3.36815 0.501782C2.8744 0.501782 2.3849 0.644786 1.9524 0.915581C0.55965 1.7873 0.0848998 3.73231 0.89365 5.25135C1.61515 6.60608 4.89165 9.11956 5.8789 9.85765C5.92365 9.89112 5.9694 9.89822 5.9999 9.89822C6.0304 9.89822 6.07615 9.89112 6.12115 9.85765C7.10815 9.11956 10.3849 6.60608 11.1064 5.25135C11.9152 3.73231 11.4404 1.7873 10.0474 0.915581Z" fill="#6B5B73" stroke="#6B5B73" stroke-width="0.6"/>
</svg>
