<svg xmlns="http://www.w3.org/2000/svg" fill="none" viewBox="0 0 40 39">
  <defs/>
  <g stroke-linecap="round" stroke-linejoin="round" stroke-width="1.6" clip-path="url(#clip0)">
    <path stroke="#1F1F1F" stroke-miterlimit="10" d="M12.28 24.78c5.9 0 10.7-1.36 10.7-3.03 0-1.67-4.8-3.03-10.7-3.03-5.9 0-10.7 1.36-10.7 3.03 0 1.67 4.8 3.03 10.7 3.03zM1.58 26.5c0 1.67 4.76 3.03 10.7 3.03 5.94 0 10.7-1.36 10.7-3.03" fill="none" />
    <path stroke="#1F1F1F" stroke-miterlimit="10" d="M22.97 21.75v9.5c0 1.67-4.8 3.04-10.7 3.04-5.87 0-10.69-1.37-10.69-3.03v-9.27" fill="none" />
    <path fill="#fff" stroke="#1F1F1F" stroke-miterlimit="10" d="M25.56 5.7c-3 3-8.11 4.9-13.02 0v11.06a21.02 21.02 0 0013.02 18.98 21.02 21.02 0 0013.01-18.98V5.7c-5 5-10.16 2.85-13.01 0z" fill="none" />
    <path stroke="#E72430" d="M32.4 15.71l-8.07 8.06-3.66-3.66" fill="none" />
  </g>
  <defs>
    <clipPath id="clip0">
      <path fill="#fff" d="M0 0h39v39H0z" transform="translate(.5)"/>
    </clipPath>
  </defs>
</svg>
