<svg width="70" height="70" viewBox="0 0 70 70" fill="none" xmlns="http://www.w3.org/2000/svg">
  <path fill-rule="evenodd" clip-rule="evenodd" d="M65.4165 50.2082C64.9227 49.9613 64.3235 50.1622 64.0613 50.6481C58.4865 60.9797 47.5631 68 35 68C16.7746 68 2 53.2254 2 35C2 16.7746 16.7746 2 35 2C53.2254 2 68 16.7746 68 35C68 36.8178 67.853 38.6012 67.5703 40.3391C67.5002 40.7704 67.7041 41.2023 68.0877 41.4115C68.6838 41.7366 69.4243 41.3926 69.5345 40.7226C69.8407 38.8605 70 36.9488 70 35C70 15.67 54.33 0 35 0C15.67 0 0 15.67 0 35C0 54.33 15.67 70 35 70C48.3455 70 59.9465 62.5307 65.8506 51.5445C66.1122 51.0577 65.9108 50.4554 65.4165 50.2082ZM66.2863 45.5242C66.1287 45.9929 66.3204 46.5113 66.7527 46.7515C67.2892 47.0495 67.9662 46.8015 68.1629 46.2201C68.2442 45.9795 68.3231 45.7377 68.3993 45.4947C68.538 45.0532 68.3408 44.5782 67.9362 44.3535C67.3734 44.0408 66.6667 44.3385 66.4727 44.9524C66.4123 45.1438 66.3501 45.3344 66.2863 45.5242Z" fill="currentColor"/>
  <path fill-rule="evenodd" clip-rule="evenodd" d="M28 59C28 58.4477 28.4477 58 29 58H41C41.5523 58 42 58.4477 42 59C42 59.5523 41.5523 60 41 60H29C28.4477 60 28 59.5523 28 59Z" fill="currentColor"/>
  <path fill-rule="evenodd" clip-rule="evenodd" d="M52.1059 57.4192C52.4599 57.7287 52.9852 57.7557 53.3491 57.458C59.8504 52.1399 64 44.0545 64 35C64 18.9837 51.0163 6 35 6C18.9837 6 6 18.9837 6 35C6 44.0546 10.1497 52.1401 16.6511 57.4582C17.0149 57.7558 17.5401 57.7288 17.8939 57.4194C17.9656 57.3886 18.0348 57.3489 18.1001 57.3C21.9645 54.4017 26.7838 51.9554 34.5588 51.4981C42.6856 51.0202 49.2647 55.4891 51.9335 57.324C51.9888 57.362 52.0465 57.3937 52.1059 57.4192ZM52.0397 54.9788C52.4179 55.2304 52.918 55.2031 53.2526 54.896C58.6295 49.9606 62 42.8739 62 35C62 20.0883 49.9117 8 35 8C20.0883 8 8 20.0883 8 35C8 42.8583 11.3571 49.9325 16.7154 54.8666C17.0583 55.1823 17.5747 55.2016 17.9573 54.9355C21.9216 52.1774 26.909 49.9445 34.4414 49.5016C42.3462 49.0367 48.834 52.8465 52.0397 54.9788Z" fill="currentColor"/>
  <path fill-rule="evenodd" clip-rule="evenodd" d="M18 29V36H52V29H18ZM17 27C16.4477 27 16 27.4477 16 28V37C16 37.5523 16.4477 38 17 38H53C53.5523 38 54 37.5523 54 37V28C54 27.4477 53.5523 27 53 27H17Z" fill="currentColor"/>
  <path fill-rule="evenodd" clip-rule="evenodd" d="M29 27.5C29.5523 27.5 30 27.9477 30 28.5V36.5C30 37.0523 29.5523 37.5 29 37.5C28.4477 37.5 28 37.0523 28 36.5V28.5C28 27.9477 28.4477 27.5 29 27.5Z" fill="currentColor"/>
  <path fill-rule="evenodd" clip-rule="evenodd" d="M35 27.5C35.5523 27.5 36 27.9477 36 28.5V36.5C36 37.0523 35.5523 37.5 35 37.5C34.4477 37.5 34 37.0523 34 36.5V28.5C34 27.9477 34.4477 27.5 35 27.5Z" fill="currentColor"/>
  <path fill-rule="evenodd" clip-rule="evenodd" d="M41 27.5C41.5523 27.5 42 27.9477 42 28.5V36.5C42 37.0523 41.5523 37.5 41 37.5C40.4477 37.5 40 37.0523 40 36.5V28.5C40 27.9477 40.4477 27.5 41 27.5Z" fill="currentColor"/>
  <path fill-rule="evenodd" clip-rule="evenodd" d="M47 27.5C47.5523 27.5 48 27.9477 48 28.5V36.5C48 37.0523 47.5523 37.5 47 37.5C46.4477 37.5 46 37.0523 46 36.5V28.5C46 27.9477 46.4477 27.5 47 27.5Z" fill="currentColor"/>
  <path fill-rule="evenodd" clip-rule="evenodd" d="M23 27.5C23.5523 27.5 24 27.9477 24 28.5V36C24 36.5523 23.5523 37 23 37C22.4477 37 22 36.5523 22 36V28.5C22 27.9477 22.4477 27.5 23 27.5Z" fill="currentColor"/>
</svg>
