<svg xmlns="http://www.w3.org/2000/svg" width="36.679" height="36.679" viewBox="0 0 36.679 36.679">
  <g id="call" transform="translate(4.042 4.87)">
    <rect id="rectangle_189" data-name="rectangle 189" width="36.679" height="36.679" rx="2" transform="translate(-4.042 -4.87)" fill="#426b8c"/>
    <g id="group_89" data-name="group 89" transform="translate(0 0)">
      <g id="group_88" data-name="group 88" transform="translate(0)">
        <path id="contour_187" data-name="contour 187" d="M27.06,21.943,24,19.9l-2.72-1.813a1.2,1.2,0,0,0-1.618.263L17.98,20.517a1.2,1.2,0,0,1-1.53.317,19.594,19.594,0,0,1-5.471-4.216,19.734,19.734,0,0,1-4.216-5.471,1.2,1.2,0,0,1,.317-1.53L9.243,7.933a1.2,1.2,0,0,0,.263-1.618L7.749,3.68,5.653.537A1.2,1.2,0,0,0,4.031.172L1.615,1.621A2.952,2.952,0,0,0,.274,3.357C-.387,5.766-.52,11.081,8,19.6S21.83,27.983,24.24,27.322a2.952,2.952,0,0,0,1.735-1.341l1.45-2.416A1.2,1.2,0,0,0,27.06,21.943Z" transform="translate(0 0)" fill="#fff"/>
        <path id="contour_188" data-name="contour 188" d="M282.958,62.744a8.1,8.1,0,0,1,8.088,8.088.476.476,0,1,0,.952,0,9.05,9.05,0,0,0-9.04-9.04.476.476,0,0,0,0,.952Z" transform="translate(-267.257 -58.462)" fill="#fff"/>
        <path id="contour_189" data-name="contour 189" d="M282.957,115.708a5.24,5.24,0,0,1,5.234,5.234.476.476,0,0,0,.952,0,6.192,6.192,0,0,0-6.185-6.185.476.476,0,0,0,0,.952Z" transform="translate(-267.256 -108.571)" fill="#fff"/>
        <path id="contour_190" data-name="contour 190" d="M282.958,168.675a2.382,2.382,0,0,1,2.379,2.379.476.476,0,0,0,.952,0,3.334,3.334,0,0,0-3.331-3.331.476.476,0,0,0,0,.952Z" transform="translate(-267.257 -158.683)" fill="#fff"/>
      </g>
    </g>
  </g>
</svg>
