<svg width="22" height="17" viewBox="0 0 22 17" fill="none" xmlns="http://www.w3.org/2000/svg">
<path fill-rule="evenodd" clip-rule="evenodd" d="M5 4C5 2.89543 5.89543 2 7 2C8.10457 2 9 2.89543 9 4C9 5.10457 8.10457 6 7 6C5.89543 6 5 5.10457 5 4ZM7 0C8.86384 0 10.4299 1.27477 10.874 3H21C21.5523 3 22 3.44772 22 4C22 4.55228 21.5523 5 21 5H10.874C10.4299 6.72523 8.86384 8 7 8C5.13616 8 3.57006 6.72523 3.12602 5H1C0.447715 5 0 4.55228 0 4C0 3.44772 0.447715 3 1 3H3.12602C3.57006 1.27477 5.13616 0 7 0ZM13 13C13 11.8954 13.8954 11 15 11C16.1046 11 17 11.8954 17 13C17 14.1046 16.1046 15 15 15C13.8954 15 13 14.1046 13 13ZM18.874 12C18.4299 10.2748 16.8638 9 15 9C13.1362 9 11.5701 10.2748 11.126 12H1C0.447715 12 0 12.4477 0 13C0 13.5523 0.447715 14 1 14H11.126C11.5701 15.7252 13.1362 17 15 17C16.8638 17 18.4299 15.7252 18.874 14H21C21.5523 14 22 13.5523 22 13C22 12.4477 21.5523 12 21 12H18.874Z" fill="currentColor" />
</svg>
