<svg width="30" height="30" viewBox="0 0 30 30" fill="none" xmlns="http://www.w3.org/2000/svg">
  <path fill-rule="evenodd" clip-rule="evenodd" d="M16.6877 7.91016H29.5605C29.8033 7.91016 30 8.10691 30 8.34961V29.5605C30 29.8032 29.8033 30 29.5605 30H8.34961C3.74561 30 0 26.2544 0 21.6504V8.34961C0 3.74561 3.74561 0 8.34961 0C12.8062 0 16.4584 3.50965 16.6877 7.91016ZM8.34961 0.878906C4.23023 0.878906 0.878906 4.23023 0.878906 8.34961V17.9246C2.25041 15.1857 5.08377 13.3008 8.34961 13.3008C11.6154 13.3008 14.4488 15.1857 15.8203 17.9246V8.34961C15.8203 4.23023 12.469 0.878906 8.34961 0.878906ZM8.34961 14.1797C4.23023 14.1797 0.878906 17.531 0.878906 21.6504C0.878906 25.7698 4.23023 29.1211 8.34961 29.1211C12.469 29.1211 15.8203 25.7698 15.8203 21.6504C15.8203 17.531 12.469 14.1797 8.34961 14.1797ZM16.6992 21.6504C16.6992 24.9162 14.8143 27.7496 12.0754 29.1211H17.2559H19.4058H29.1211V8.78906H28.2422H27.3633H16.6992V21.6504ZM20.332 26.9238C20.332 26.9297 20.3318 26.9355 20.3316 26.9412L20.332 26.9238Z" fill="black"/>
  <path d="M8.34961 24.7266C10.0458 24.7266 11.4258 23.3466 11.4258 21.6504C11.4258 19.9542 10.0458 18.5742 8.34961 18.5742C6.65338 18.5742 5.27344 19.9542 5.27344 21.6504C5.27344 23.3466 6.65338 24.7266 8.34961 24.7266ZM8.34961 19.4531C9.56121 19.4531 10.5469 20.4388 10.5469 21.6504C10.5469 22.862 9.56121 23.8477 8.34961 23.8477C7.13801 23.8477 6.15234 22.862 6.15234 21.6504C6.15234 20.4388 7.13801 19.4531 8.34961 19.4531Z" fill="black"/>
  <path d="M8.34961 15.0586C6.91342 15.0586 5.54824 15.5125 4.40168 16.3712C4.20744 16.5167 4.16789 16.7921 4.31338 16.9864C4.45887 17.1806 4.73426 17.2202 4.92855 17.0747C5.92189 16.3307 7.10484 15.9375 8.34961 15.9375C11.4997 15.9375 14.0625 18.5003 14.0625 21.6504C14.0625 24.8005 11.4997 27.3633 8.34961 27.3633C5.19949 27.3633 2.63672 24.8005 2.63672 21.6504C2.63672 20.4056 3.02994 19.2227 3.77391 18.2293C3.91939 18.0351 3.8799 17.7596 3.68561 17.6142C3.49131 17.4686 3.21592 17.5082 3.07043 17.7025C2.21174 18.849 1.75781 20.2142 1.75781 21.6504C1.75781 25.2851 4.71486 28.2422 8.34961 28.2422C11.9844 28.2422 14.9414 25.2851 14.9414 21.6504C14.9414 18.0156 11.9844 15.0586 8.34961 15.0586Z" fill="black"/>
</svg>
