<svg xmlns="http://www.w3.org/2000/svg" width="9.301" height="17.014" viewBox="0 0 9.301 17.014">
  <g id="icon-dollar" transform="translate(0 0)">
    <path d="M16.411,11.032c0,1.855-1.314,3.44-3.712,3.857v2.126H10.655V15.036a8.423,8.423,0,0,1-3.545-.9L7.736,11.7a7.352,7.352,0,0,0,3.462.918c1.188,0,2-.46,2-1.294,0-.792-.667-1.3-2.211-1.816-2.23-.751-3.754-1.793-3.754-3.814,0-1.836,1.294-3.273,3.525-3.712V0H12.8V1.835a7.5,7.5,0,0,1,3.024.688l-.6,2.358a6.891,6.891,0,0,0-3-.711c-1.356,0-1.794.584-1.794,1.168,0,.688.73,1.125,2.5,1.794C15.411,8.006,16.411,9.153,16.411,11.032Z" transform="translate(-7.11 0)" fill="currentColor"/>
  </g>
</svg>
