<svg xmlns="http://www.w3.org/2000/svg" width="47.996" height="47.995" viewBox="0 0 47.996 47.995">
  <g id="Icon_Sell_Profitable" data-name="Icon Sell Profitable" transform="translate(0 -0.5)">
    <path id="contour_214" data-name="contour 214" d="M282.512.5a10.511,10.511,0,1,0,10.511,10.511A10.511,10.511,0,0,0,282.512.5Zm0,19.833a9.322,9.322,0,1,1,9.321-9.322A9.322,9.322,0,0,1,282.512,20.333Zm0,0" transform="translate(-245.027)" fill="#43698c"/>
    <path id="contour_215" data-name="contour 215" d="M34.816,67.282a21.888,21.888,0,0,0-7.866-1.309,26.141,26.141,0,0,0-4.137.32V50.145c0-1.415-1.257-2.7-3.54-3.611a21.879,21.879,0,0,0-7.866-1.309A21.886,21.886,0,0,0,3.54,46.535C1.258,47.448,0,48.73,0,50.145V76.093c0,1.415,1.257,2.7,3.54,3.61a21.879,21.879,0,0,0,7.866,1.309,25.959,25.959,0,0,0,4.137-.321v3.175c0,1.415,1.257,2.7,3.54,3.61a21.879,21.879,0,0,0,7.866,1.309,21.89,21.89,0,0,0,7.866-1.309c2.283-.913,3.54-2.2,3.54-3.61V70.893c0-1.415-1.256-2.7-3.539-3.611ZM11.407,46.415c6.021,0,10.217,1.966,10.217,3.73s-4.2,3.73-10.217,3.73S1.19,51.909,1.19,50.145s4.2-3.73,10.216-3.73ZM1.19,52.4a8.231,8.231,0,0,0,2.35,1.358,21.879,21.879,0,0,0,7.866,1.309,21.881,21.881,0,0,0,7.866-1.309,8.212,8.212,0,0,0,2.35-1.358V54.47c0,1.764-4.2,3.73-10.217,3.73S1.19,56.234,1.19,54.47Zm0,4.325a8.24,8.24,0,0,0,2.35,1.359,21.887,21.887,0,0,0,7.866,1.309,21.9,21.9,0,0,0,7.866-1.309,8.23,8.23,0,0,0,2.35-1.359v2.073c0,1.764-4.2,3.73-10.217,3.73S1.19,60.559,1.19,58.794Zm0,4.325a8.24,8.24,0,0,0,2.35,1.358,21.887,21.887,0,0,0,7.866,1.309,21.89,21.89,0,0,0,7.866-1.309,8.221,8.221,0,0,0,2.35-1.358v2.072c0,1.764-4.2,3.73-10.217,3.73S1.19,64.883,1.19,63.119ZM15.544,79.486a24.631,24.631,0,0,1-4.137.337c-6.02,0-10.216-1.966-10.216-3.73V74.021a8.241,8.241,0,0,0,2.35,1.358,21.887,21.887,0,0,0,7.866,1.309,25.96,25.96,0,0,0,4.137-.321Zm0-4.325a24.592,24.592,0,0,1-4.137.337c-6.02,0-10.216-1.965-10.216-3.73V69.7a8.231,8.231,0,0,0,2.35,1.358,21.879,21.879,0,0,0,7.866,1.309,25.962,25.962,0,0,0,4.137-.322Zm0-4.325a24.612,24.612,0,0,1-4.139.337c-6.02,0-10.216-1.966-10.216-3.73V65.371A8.241,8.241,0,0,0,3.54,66.73a21.879,21.879,0,0,0,7.866,1.309,21.89,21.89,0,0,0,7.866-1.309,8.221,8.221,0,0,0,2.35-1.358v1.148a16.352,16.352,0,0,0-2.539.763c-2.252.9-3.5,2.161-3.538,3.553ZM37.167,83.867c0,1.764-4.2,3.73-10.217,3.73s-10.217-1.965-10.217-3.73V81.794a8.249,8.249,0,0,0,2.351,1.359,21.886,21.886,0,0,0,7.866,1.309,21.894,21.894,0,0,0,7.866-1.309,8.224,8.224,0,0,0,2.35-1.359Zm0-4.325c0,1.764-4.2,3.73-10.217,3.73s-10.217-1.966-10.217-3.73V77.47a8.24,8.24,0,0,0,2.351,1.358,21.878,21.878,0,0,0,7.866,1.309,21.886,21.886,0,0,0,7.866-1.309,8.216,8.216,0,0,0,2.35-1.358Zm0-4.325c0,1.764-4.2,3.73-10.217,3.73s-10.217-1.965-10.217-3.73V73.145A8.239,8.239,0,0,0,19.085,74.5a21.886,21.886,0,0,0,7.866,1.309A21.886,21.886,0,0,0,34.816,74.5a8.215,8.215,0,0,0,2.35-1.358Zm-10.217-.595c-6.021,0-10.217-1.965-10.217-3.73s4.2-3.73,10.217-3.73,10.217,1.965,10.217,3.73-4.2,3.73-10.217,3.73Zm0,0" transform="translate(0 -40.291)" fill="#43698c"/>
    <path id="contour_216" data-name="contour 216" d="M315.139,35.7a.6.6,0,0,0-1.19,0v1.054l-4.063-2.958a.6.6,0,0,0-.7,0l-6.942,5.054a.595.595,0,0,0,.35,1.076h1.438v7.6a.6.6,0,0,0,.595.595h9.817a.6.6,0,0,0,.6-.595v-7.6h1.438a.595.595,0,0,0,.35-1.076l-1.689-1.229Zm-4.563,11.236H308.5V45.29h2.079Zm3.869-8.2a.6.6,0,0,0-.595.595v7.6h-2.084V44.695a.6.6,0,0,0-.595-.595H307.9a.6.6,0,0,0-.6.595v2.237h-2.084v-7.6a.6.6,0,0,0-.6-.595h-.2l5.114-3.723,5.113,3.723Zm0,0" transform="translate(-272.051 -29.889)" fill="#43698c"/>
  </g>
</svg>
