<svg xmlns="http://www.w3.org/2000/svg" width="41.358" height="41.357" viewBox="0 0 41.358 41.357">
  <g transform="translate(0.5 0.5)">
    <circle cx="20.179" cy="20.179" r="20.179" fill="none" stroke="currentColor" stroke-miterlimit="10" stroke-width="1"/>
    <g transform="translate(10.701 11.295)">
      <path d="M95.09,87.394c2.538,0,2.839.01,3.841.055a5.25,5.25,0,0,1,1.765.328,3.149,3.149,0,0,1,1.8,1.8,5.27,5.27,0,0,1,.327,1.766c.046,1,.056,1.3.056,3.841s-.01,2.839-.056,3.841a5.261,5.261,0,0,1-.327,1.765,3.148,3.148,0,0,1-1.8,1.8,5.25,5.25,0,0,1-1.765.328c-1,.045-1.3.055-3.841.055s-2.839-.009-3.841-.055a5.242,5.242,0,0,1-1.765-.328,3.151,3.151,0,0,1-1.8-1.8,5.261,5.261,0,0,1-.327-1.765c-.045-1-.055-1.3-.055-3.841s.01-2.839.055-3.841a5.269,5.269,0,0,1,.327-1.766,3.152,3.152,0,0,1,1.8-1.8,5.242,5.242,0,0,1,1.765-.328c1-.045,1.3-.055,3.841-.055m0-1.713c-2.582,0-2.906.011-3.92.057a6.987,6.987,0,0,0-2.307.442,4.866,4.866,0,0,0-2.78,2.78,6.975,6.975,0,0,0-.442,2.308c-.047,1.013-.057,1.337-.057,3.919s.011,2.905.057,3.919a6.975,6.975,0,0,0,.442,2.308,4.866,4.866,0,0,0,2.78,2.78,6.986,6.986,0,0,0,2.307.442c1.014.046,1.338.057,3.92.057s2.905-.011,3.919-.057a6.983,6.983,0,0,0,2.307-.442,4.861,4.861,0,0,0,2.78-2.78,6.99,6.99,0,0,0,.442-2.308c.046-1.014.057-1.338.057-3.919s-.011-2.906-.057-3.919a6.99,6.99,0,0,0-.442-2.308,4.861,4.861,0,0,0-2.78-2.78,6.984,6.984,0,0,0-2.307-.442c-1.014-.046-1.338-.057-3.919-.057" transform="translate(-85.584 -85.681)" fill="currentColor"/>
      <path d="M97.844,93.059a4.882,4.882,0,1,0,4.882,4.882,4.881,4.881,0,0,0-4.882-4.882m0,8.05a3.169,3.169,0,1,1,3.168-3.168,3.169,3.169,0,0,1-3.168,3.168" transform="translate(-88.337 -88.435)" fill="currentColor"/>
      <path d="M109.307,92.072a1.141,1.141,0,1,1-1.14-1.141,1.141,1.141,0,0,1,1.14,1.141" transform="translate(-93.586 -87.641)" fill="currentColor"/>
    </g>
  </g>
</svg>
