<svg width="24" height="24" viewBox="0 0 24 24" fill="none" xmlns="http://www.w3.org/2000/svg">
<path d="M5.43109 8.16438H6.94235V15.8356H5.43109V12.4712H1.51126V15.8356H0V8.16438H1.51126V11.1342H5.43109V8.16438Z" fill="#7047B2"/>
<path d="M9.28865 9.11781C10.1073 8.3726 11.1384 8 12.382 8C13.6257 8 14.6568 8.3726 15.4754 9.11781C16.3018 9.86301 16.7151 10.8237 16.7151 12C16.7151 13.1763 16.3018 14.137 15.4754 14.8822C14.6568 15.6274 13.6257 16 12.382 16C11.1384 16 10.1073 15.6274 9.28865 14.8822C8.47005 14.137 8.06076 13.1763 8.06076 12C8.06076 10.8237 8.47005 9.86301 9.28865 9.11781ZM14.2947 10.1479C13.7988 9.67306 13.1613 9.43562 12.382 9.43562C11.6028 9.43562 10.9613 9.67306 10.4575 10.1479C9.96164 10.6228 9.7137 11.2402 9.7137 12C9.7137 12.7598 9.96164 13.3772 10.4575 13.8521C10.9613 14.3269 11.6028 14.5644 12.382 14.5644C13.1613 14.5644 13.7988 14.3269 14.2947 13.8521C14.7985 13.3772 15.0503 12.7598 15.0503 12C15.0503 11.2402 14.7985 10.6228 14.2947 10.1479Z" fill="#7047B2"/>
<path d="M22.3234 11.7699C22.8351 11.8429 23.2404 12.0402 23.5395 12.3616C23.8465 12.6758 24 13.1105 24 13.6658C24 14.3744 23.7481 14.9151 23.2444 15.2877C22.7406 15.653 22.1031 15.8356 21.3317 15.8356H17.8369V8.16438H21.1074C21.8551 8.16438 22.4533 8.33242 22.902 8.66849C23.3585 8.99726 23.5868 9.47215 23.5868 10.0932C23.5868 10.9479 23.1657 11.4995 22.3234 11.7479V11.7699ZM20.8712 9.45753H19.3482V11.2986H20.8122C21.1979 11.2986 21.493 11.2183 21.6977 11.0575C21.9023 10.8968 22.0047 10.6667 22.0047 10.3671C22.0047 10.0749 21.9023 9.85205 21.6977 9.69863C21.493 9.5379 21.2176 9.45753 20.8712 9.45753ZM21.0719 14.5425C21.4812 14.5425 21.804 14.4548 22.0401 14.2795C22.2762 14.0968 22.3943 13.8447 22.3943 13.5233C22.3943 13.2018 22.2762 12.9534 22.0401 12.7781C21.804 12.5954 21.4616 12.5041 21.0129 12.5041H19.3482V14.5425H21.0719Z" fill="#7047B2"/>
</svg>
