<svg width="120" height="70" viewBox="0 0 120 70" fill="none" xmlns="http://www.w3.org/2000/svg">
<g clip-path="url(#clip0)">
<rect x="34" y="18" width="26" height="50" fill="#FFE700"/>
<path d="M34.8528 18.3167H60.2207V68.7001" stroke="#323640" stroke-width="2" stroke-linejoin="round" fill="#FFE700"/>
<path d="M8.78027 68.3478V0.700073L34.8528 7.04205V68.3478" stroke="#323640" stroke-width="2" stroke-linejoin="round" fill="white"/>
<path d="M4.2002 68.3478H118.5" stroke="#323640" stroke-width="2" stroke-linecap="round" stroke-linejoin="round"/>
<path d="M34.8528 25.0109H50.0031" stroke="white" stroke-width="2" stroke-linecap="round" stroke-linejoin="round"/>
<path d="M34.8528 38.7518H50.0031" stroke="white" stroke-width="2" stroke-linecap="round" stroke-linejoin="round"/>
<path d="M34.8528 52.1404H50.0031" stroke="white" stroke-width="2" stroke-linecap="round" stroke-linejoin="round"/>
<path d="M34.8528 31.7053H50.0031" stroke="white" stroke-width="2" stroke-linecap="round" stroke-linejoin="round"/>
<path d="M34.8528 45.0938H50.0031" stroke="white" stroke-width="2" stroke-linecap="round" stroke-linejoin="round"/>
<path d="M34.8528 58.8349H50.0031" stroke="white" stroke-width="2" stroke-linecap="round" stroke-linejoin="round"/>
<path d="M19.7022 11.9746H14.4172V19.7259H19.7022V11.9746Z" stroke="#323640" stroke-width="2" stroke-linecap="round" stroke-linejoin="round"  fill="white"/>
<path d="M29.5682 11.9746H24.2832V19.7259H29.5682V11.9746Z" stroke="#323640" stroke-width="2" stroke-linecap="round" stroke-linejoin="round"  fill="white"/>
<path d="M29.5682 26.068H24.2832V33.8193H29.5682V26.068Z" stroke="#323640" stroke-width="2" stroke-linecap="round" stroke-linejoin="round"  fill="white"/>
<path d="M29.5682 40.1612H24.2832V47.9125H29.5682V40.1612Z" stroke="#323640" stroke-width="2" stroke-linecap="round" stroke-linejoin="round"  fill="white"/>
<path d="M29.5682 54.2545H24.2832V62.0058H29.5682V54.2545Z" stroke="#323640" stroke-width="2" stroke-linecap="round" stroke-linejoin="round"  fill="white"/>
<path d="M19.7022 26.068H14.4172V33.8193H19.7022V26.068Z" stroke="#323640" stroke-width="2" stroke-linecap="round" stroke-linejoin="round"  fill="white"/>
<path d="M19.7022 40.1612H14.4172V47.9125H19.7022V40.1612Z" stroke="#323640" stroke-width="2" stroke-linecap="round" stroke-linejoin="round"  fill="white"/>
<path d="M19.7022 54.2545H14.4172V62.0058H19.7022V54.2545Z" stroke="#323640" stroke-width="2" stroke-linecap="round" stroke-linejoin="round"  fill="white"/>
<path d="M54.5835 25.0109H54.9358" stroke="white" stroke-width="2" stroke-linecap="round" stroke-linejoin="round"/>
<path d="M54.5835 31.7053H54.9358" stroke="white" stroke-width="2" stroke-linecap="round" stroke-linejoin="round"/>
<path d="M54.5835 38.7518H54.9358" stroke="white" stroke-width="2" stroke-linecap="round" stroke-linejoin="round"/>
<path d="M54.5835 45.0938H54.9358" stroke="white" stroke-width="2" stroke-linecap="round" stroke-linejoin="round"/>
<path d="M54.5835 52.1404H54.9358" stroke="white" stroke-width="2" stroke-linecap="round" stroke-linejoin="round"/>
<path d="M54.6001 58.8H54.9524" stroke="white" stroke-width="2" stroke-linecap="round" stroke-linejoin="round"/>
<g clip-path="url(#clip1)">
<path d="M115 51.8613C115 49.6212 114.111 47.4752 112.545 45.891C112.744 45.2687 112.845 44.6205 112.845 43.9571C112.845 40.4648 110.004 37.6234 106.512 37.6234C105.703 37.6234 104.909 37.7773 104.167 38.0727C103.259 34.3629 99.9072 31.6016 95.9217 31.6016C93.417 31.6016 91.1626 32.6923 89.6075 34.4234C88.2356 32.6597 86.1157 31.6016 83.8395 31.6016C79.8109 31.6016 76.5334 34.8791 76.5334 38.9077C76.5334 39.7019 76.6588 40.4773 76.9068 41.2199C75.053 43.0619 74 45.5758 74 48.2012C74 49.5753 74.278 50.905 74.8262 52.1535C74.958 52.4537 75.2516 52.6325 75.5598 52.6325C75.6673 52.6325 75.7766 52.6107 75.8814 52.5647C76.2863 52.3869 76.4704 51.9145 76.2926 51.5095C75.834 50.4653 75.6016 49.3522 75.6016 48.2012C75.6016 45.8473 76.6127 43.6005 78.3758 42.0366C78.6328 41.8087 78.7157 41.4423 78.5821 41.1259C78.2854 40.4237 78.1349 39.6774 78.1349 38.9077C78.1349 35.7623 80.694 33.2031 83.8395 33.2031C85.7723 33.2031 87.561 34.1805 88.6111 35.7811C87.8634 37.045 87.4334 38.518 87.4334 40.0898V46.2402L84.6403 49.0334V42.2544C84.6403 41.8122 84.2817 41.4537 83.8395 41.4537C83.3973 41.4537 83.0387 41.8122 83.0387 42.2544V46.1401L81.4937 44.5952C81.1809 44.2825 80.674 44.2825 80.3612 44.5952C80.0485 44.9079 80.0485 45.415 80.3612 45.7277L83.0387 48.4052V56.3997C82.332 56.3317 81.6405 56.1745 80.975 55.9277C80.5604 55.7739 80.0995 55.9853 79.9457 56.4001C79.7919 56.8147 80.0035 57.2756 80.418 57.4293C81.2624 57.7424 82.1408 57.9359 83.0387 58.0081V62.8813C82.4559 62.6157 81.8178 62.476 81.1576 62.476C78.6535 62.476 76.6162 64.5133 76.6162 67.0174C76.6162 67.6862 76.7593 68.3319 77.0415 68.9363C77.1732 69.2182 77.4561 69.3984 77.7672 69.3984H110.953C111.395 69.3984 111.754 69.0398 111.754 68.5976C111.754 68.1553 111.395 67.7968 110.953 67.7968H107.312V60.3114C111.619 59.9066 115 56.2717 115 51.8613ZM106.512 39.225C109.121 39.225 111.244 41.3478 111.244 43.9571C111.244 44.5956 111.119 45.2147 110.873 45.7971C110.739 46.1135 110.822 46.4798 111.079 46.7078C112.553 48.0152 113.398 49.8935 113.398 51.8613C113.398 55.3876 110.734 58.3018 107.312 58.7V55.8688L110.1 53.0817C110.412 52.769 110.412 52.262 110.1 51.9493C109.787 51.6365 109.28 51.6365 108.967 51.9493L107.312 53.6038V48.1273C107.312 47.685 106.954 47.3265 106.512 47.3265C106.07 47.3265 105.711 47.685 105.711 48.1273V51.1431L104.41 49.8422V40.0898C104.41 39.9661 104.407 39.8432 104.402 39.7208C105.054 39.3956 105.774 39.225 106.512 39.225ZM104.356 52.0533L105.711 53.4081V58.7005C104.329 58.5378 103.024 57.9585 101.976 57.0425C103.271 55.7237 104.139 53.9857 104.356 52.0533ZM95.9217 33.2031C99.7191 33.2031 102.808 36.2925 102.808 40.0898V51.0996C102.808 54.6259 100.144 57.5401 96.7225 57.9383V55.1071L99.5097 52.32C99.8224 52.0073 99.8224 51.5003 99.5097 51.1875C99.197 50.8748 98.6901 50.8748 98.3771 51.1875L96.7225 52.8422V47.3657C96.7225 46.9235 96.3639 46.565 95.9217 46.565C95.4795 46.565 95.1209 46.9235 95.1209 47.3657V50.3816L94.0113 49.2719C93.6985 48.9592 93.1916 48.9592 92.8787 49.2719C92.566 49.5846 92.566 50.0917 92.8787 50.4045L95.1209 52.6467V57.9385C91.6997 57.5402 89.035 54.6262 89.035 51.0998V40.0898C89.035 36.2925 92.1243 33.2031 95.9217 33.2031ZM93.8024 62.4761C93.3204 62.4761 92.8414 62.5533 92.3861 62.7024C91.4771 61.1739 89.836 60.2228 88.0121 60.2228C86.7408 60.2228 85.5504 60.7058 84.6403 61.5098V58.0085C86.315 57.8758 87.8986 57.3265 89.292 56.394C90.6919 58.1434 92.7682 59.3287 95.1209 59.5499V62.6719C94.7034 62.5449 94.2608 62.4761 93.8024 62.4761ZM87.4334 48.5052V51.0996C87.4334 52.5269 87.7881 53.8727 88.413 55.0545C87.2808 55.8144 85.9978 56.2708 84.6403 56.3999V51.2984L87.4334 48.5052ZM78.2178 67.0175C78.2178 65.3965 79.5366 64.0776 81.1576 64.0776C81.9495 64.0776 82.6923 64.3883 83.2493 64.9524C83.4554 65.1612 83.7591 65.2405 84.0412 65.1593C84.3231 65.0779 84.538 64.8489 84.6011 64.5623C84.9509 62.9758 86.3854 61.8245 88.0122 61.8245C89.4537 61.8245 90.7288 62.6909 91.2605 64.0319C91.3452 64.2455 91.5176 64.4124 91.7337 64.4902C91.9496 64.568 92.1889 64.5493 92.3903 64.4387C92.8204 64.2026 93.3087 64.0777 93.8024 64.0777C95.4234 64.0777 96.7422 65.3965 96.7422 67.0176C96.7422 67.284 96.7071 67.5448 96.6376 67.797H78.3224C78.2528 67.5447 78.2178 67.2839 78.2178 67.0175ZM98.2763 67.7969C98.3206 67.5413 98.3438 67.2813 98.3438 67.0175C98.3438 65.6246 97.7129 64.3767 96.7225 63.543V59.5499C98.2047 59.4106 99.577 58.8886 100.74 58.084C102.107 59.3502 103.858 60.1343 105.711 60.3108V67.7969H98.2763Z" fill="black"/>
<path d="M78.2034 55.3415C78.3522 55.1926 78.438 54.986 78.438 54.7754C78.438 54.5648 78.3523 54.3582 78.2034 54.2092C78.0544 54.0603 77.8478 53.9746 77.6372 53.9746C77.4257 53.9746 77.22 54.0603 77.0711 54.2092C76.9213 54.3582 76.8364 54.5648 76.8364 54.7754C76.8364 54.986 76.9213 55.1926 77.0711 55.3415C77.22 55.4905 77.4258 55.5762 77.6372 55.5762C77.8478 55.5762 78.0544 55.4905 78.2034 55.3415Z" fill="black"/>
</g>
</g>
<defs>
<clipPath id="clip0">
<rect width="120" height="70" fill="white"/>
</clipPath>
<clipPath id="clip1">
<rect width="41" height="41" fill="white" transform="translate(74 30)"/>
</clipPath>
</defs>
</svg>
