<svg xmlns="http://www.w3.org/2000/svg" width="14.037" height="17.739" viewBox="0 0 14.037 17.739">
  <g transform="translate(5.5 2.191)">
    <path d="M90.8,7.527a3.642,3.642,0,0,0,2.661-1.1,3.642,3.642,0,0,0,1.1-2.661,3.642,3.642,0,0,0-1.1-2.661,3.763,3.763,0,0,0-5.322,0,3.642,3.642,0,0,0-1.1,2.661,3.642,3.642,0,0,0,1.1,2.661A3.643,3.643,0,0,0,90.8,7.527Zm0,0" transform="translate(-89.375 -1.691)" fill="none" stroke="currentColor" stroke-width="1"/>
    <path d="M13.005,251.784a9.3,9.3,0,0,0-.127-.987,7.78,7.78,0,0,0-.243-.993,4.9,4.9,0,0,0-.408-.926,3.494,3.494,0,0,0-.615-.8,2.713,2.713,0,0,0-.884-.555,3.055,3.055,0,0,0-1.129-.2,1.145,1.145,0,0,0-.612.259c-.183.12-.4.258-.637.411a3.652,3.652,0,0,1-.825.363,3.2,3.2,0,0,1-2.017,0,3.643,3.643,0,0,1-.824-.363c-.237-.152-.452-.29-.638-.411a1.144,1.144,0,0,0-.611-.259,3.05,3.05,0,0,0-1.128.2,2.711,2.711,0,0,0-.884.555,3.5,3.5,0,0,0-.615.8A4.912,4.912,0,0,0,.4,249.8a7.8,7.8,0,0,0-.243.993,9.264,9.264,0,0,0-.127.988c-.021.3-.031.609-.031.923A2.6,2.6,0,0,0,.77,254.67a2.774,2.774,0,0,0,1.986.724H10.28a2.774,2.774,0,0,0,1.986-.724,2.594,2.594,0,0,0,.771-1.963c0-.315-.011-.625-.032-.923Zm0,0" transform="translate(-5 -240.347)" fill="none" stroke="currentColor" stroke-width="1"/>
  </g>
</svg>
