<svg id="startup" xmlns="http://www.w3.org/2000/svg" width="74.876" height="74.903" viewBox="0 0 74.876 74.903">
  <path id="contour_242" data-name="contour 242" d="M63.725,52.532a8.454,8.454,0,1,0-9.662,0,14.191,14.191,0,0,0-5.278,3.3A14.4,14.4,0,0,0,44.4,66.143v3.623a3.623,3.623,0,0,0,3.623,3.623H69.763a3.623,3.623,0,0,0,3.623-3.623V66.578a14.976,14.976,0,0,0-9.662-14.046Zm-10.87-6.92a6.039,6.039,0,1,1,6.039,6.039A6.039,6.039,0,0,1,52.855,45.612Zm-20.531,6.92a8.454,8.454,0,1,0-9.662,0A14.493,14.493,0,0,0,13,66.143v3.623a3.623,3.623,0,0,0,3.623,3.623H38.362a3.623,3.623,0,0,0,3.623-3.623V66.578a14.976,14.976,0,0,0-9.662-14.046Zm-10.87-6.92a6.039,6.039,0,1,1,6.039,6.039A6.039,6.039,0,0,1,21.454,45.612Zm10.314-9.988a10.87,10.87,0,0,1,6.594,9.988,10.676,10.676,0,0,1-.217,2.162,1.208,1.208,0,0,0,1.208,1.461h7.754a1.208,1.208,0,0,0,1.208-1.461,10.677,10.677,0,0,1-.29-2.162,10.87,10.87,0,0,1,6.594-9.988,1.208,1.208,0,0,0,.556-1.787,14.6,14.6,0,0,0-7.15-5.483,8.454,8.454,0,1,0-9.734,0,14.6,14.6,0,0,0-7.114,5.483,1.208,1.208,0,0,0,.592,1.787Zm5.386-14.167A6.039,6.039,0,1,1,43.193,27.5,6.039,6.039,0,0,1,37.155,21.457Z" transform="translate(1.49 1.513)" fill="#d5e1e6"/>
  <path id="contour_243" data-name="contour 243" d="M61.386,2.212A1.208,1.208,0,0,0,60.178,1c-2.693.4-17.029-2.415-29.469,9.662-4.118.543-16.775-2.572-27.645,8.309a3.623,3.623,0,0,0,0,5.121l7.6,7.6v8.563L1.483,47.139a1.208,1.208,0,0,0,.181,2.041L5.42,51.065,1.132,59.639a1.208,1.208,0,0,0,1.618,1.618l8.575-4.287,1.884,3.756a1.208,1.208,0,0,0,2.041.181l6.884-9.179H30.7l7.6,7.6a3.623,3.623,0,0,0,5.121,0c10.87-10.87,7.766-23.49,8.309-27.645C63.8,19.241,60.988,4.881,61.386,2.212ZM4.768,20.678c9.662-9.662,20.99-7.246,23.515-7.6L11.869,29.494l-7.1-7.1a1.208,1.208,0,0,1,0-1.715ZM14.49,57.9l-1.546-3.092a1.208,1.208,0,0,0-1.618-.531l-6.413,3.2,3.2-6.413a1.208,1.208,0,0,0-.531-1.618L4.49,47.9l7.246-5.447,8.176,8.176Zm7.536-8.587-8.949-8.949V34.108L28.282,49.313Zm19.686,8.309a1.208,1.208,0,0,1-1.715,0l-7.1-7.1L49.309,34.108C48.946,36.608,51.374,47.961,41.712,57.622ZM49.659,30.34h0L31.193,48.818,13.572,31.2c.157-.157,18.635-18.635,18.478-18.466C43.463,1.306,56.942,3.746,58.971,3.42,58.645,5.5,61.108,18.891,49.659,30.34ZM36.024,17.912a8.454,8.454,0,1,0,8.454,8.454,8.454,8.454,0,0,0-8.454-8.454Zm0,14.493a6.039,6.039,0,1,1,6.039-6.039A6.039,6.039,0,0,1,36.024,32.405Z" transform="translate(-1.002 -0.981)" fill="#40798f"/>
</svg>
