<svg xmlns="http://www.w3.org/2000/svg" width="14.078" height="15.251" viewBox="0 0 14.078 15.251">
  <g id="icon-euro" transform="translate(0 0)">
    <path d="M29.251,12.075A4.487,4.487,0,0,1,26,13.545a4.958,4.958,0,0,1-4.447-3.36h5.434a.853.853,0,0,0,0-1.706H21.122a7.139,7.139,0,0,1-.052-.853,7.054,7.054,0,0,1,.066-.96h5.853a.853.853,0,0,0,0-1.706H21.6A4.932,4.932,0,0,1,26,1.706a4.487,4.487,0,0,1,3.248,1.47A.853.853,0,0,0,30.488,2,6.175,6.175,0,0,0,26,0a6.76,6.76,0,0,0-6.219,4.959H17.5a.853.853,0,1,0,0,1.706h1.921a8.783,8.783,0,0,0-.054.96c0,.289.015.573.043.853H17.5a.853.853,0,1,0,0,1.706H19.75A6.778,6.778,0,0,0,26,15.251a6.175,6.175,0,0,0,4.484-2,.853.853,0,0,0-1.237-1.176Z" transform="translate(-16.644 0)" fill="currentColor"/>
  </g>
</svg>
