<svg xmlns="http://www.w3.org/2000/svg" width="41.181" height="41.181" viewBox="0 0 41.181 41.181">
  <g id="vkontakte" transform="translate(-1079 -6468)">
    <g>
      <circle cx="20.091" cy="20.091" r="20.091" transform="translate(1079.5 6468.5)" fill="none" stroke="currentColor" stroke-miterlimit="10" stroke-width="1"/>
      <path id="vk" d="M19.915,13.028c-.388-.49-.277-.708,0-1.146,0-.005,3.208-4.431,3.538-5.932h0c.164-.547,0-.949-.793-.949H20.038a1.126,1.126,0,0,0-1.141.731A21.463,21.463,0,0,1,15.671,11c-.61.6-.892.791-1.225.791-.164,0-.419-.192-.419-.739V5.949c0-.656-.187-.949-.74-.949H9.161a.628.628,0,0,0-.668.591c0,.622.945.765,1.043,2.515v3.8c0,.832-.151.985-.486.985-.892,0-3.057-3.211-4.34-6.886C4.451,5.289,4.2,5,3.525,5H.9c-.749,0-.9.345-.9.731C0,6.414.892,9.8,4.148,14.285,6.318,17.343,9.374,19,12.154,19c1.671,0,1.875-.368,1.875-1,0-2.922-.151-3.2.686-3.2.388,0,1.056.192,2.616,1.667C19.114,18.217,19.407,19,20.4,19h2.624c.748,0,1.127-.368.909-1.094C23.439,16.379,20.067,13.238,19.915,13.028Z" transform="translate(1088 6477)" fill="currentColor"/>
    </g>
  </g>
</svg>
