<svg width="70" height="70" viewBox="0 0 70 70" fill="none" xmlns="http://www.w3.org/2000/svg">
  <path d="M19.4937 42.2214H24.2602C24.514 42.2214 24.7575 42.1206 24.9369 41.9411C25.1164 41.7616 25.2172 41.5182 25.2172 41.2644C25.2172 41.0106 25.1164 40.7672 24.9369 40.5877C24.7575 40.4082 24.514 40.3074 24.2602 40.3074H19.4937C19.2398 40.3074 18.9964 40.4082 18.8169 40.5877C18.6375 40.7672 18.5366 41.0106 18.5366 41.2644C18.5366 41.5182 18.6375 41.7616 18.8169 41.9411C18.9964 42.1206 19.2398 42.2214 19.4937 42.2214Z" fill="currentColor"/>
  <path d="M27.9448 41.2644C27.945 41.5182 28.0458 41.7615 28.2253 41.941C28.4047 42.1204 28.6481 42.2213 28.9019 42.2214H50.8556C51.1094 42.2214 51.3529 42.1206 51.5323 41.9411C51.7118 41.7616 51.8126 41.5182 51.8126 41.2644C51.8126 41.0106 51.7118 40.7672 51.5323 40.5877C51.3529 40.4082 51.1094 40.3074 50.8556 40.3074H28.9019C28.648 40.3074 28.4046 40.4082 28.2251 40.5877C28.0457 40.7672 27.9448 41.0106 27.9448 41.2644Z" fill="currentColor"/>
  <path d="M19.4937 48.4448H24.2602C24.514 48.4448 24.7575 48.344 24.9369 48.1645C25.1164 47.985 25.2172 47.7416 25.2172 47.4878C25.2172 47.234 25.1164 46.9905 24.9369 46.8111C24.7575 46.6316 24.514 46.5308 24.2602 46.5308H19.4937C19.2398 46.5308 18.9964 46.6316 18.8169 46.8111C18.6375 46.9905 18.5366 47.234 18.5366 47.4878C18.5366 47.7416 18.6375 47.985 18.8169 48.1645C18.9964 48.344 19.2398 48.4448 19.4937 48.4448Z" fill="currentColor"/>
  <path d="M50.8556 46.5308H28.9019C28.648 46.5308 28.4046 46.6316 28.2251 46.8111C28.0457 46.9905 27.9448 47.234 27.9448 47.4878C27.9448 47.7416 28.0457 47.985 28.2251 48.1645C28.4046 48.344 28.648 48.4448 28.9019 48.4448H50.8556C51.1094 48.4448 51.3529 48.344 51.5323 48.1645C51.7118 47.985 51.8126 47.7416 51.8126 47.4878C51.8126 47.234 51.7118 46.9905 51.5323 46.8111C51.3529 46.6316 51.1094 46.5308 50.8556 46.5308Z" fill="currentColor"/>
  <path d="M19.4937 54.6687H24.2602C24.514 54.6687 24.7575 54.5679 24.9369 54.3884C25.1164 54.2089 25.2172 53.9655 25.2172 53.7117C25.2172 53.4578 25.1164 53.2144 24.9369 53.0349C24.7575 52.8555 24.514 52.7546 24.2602 52.7546H19.4937C19.2398 52.7546 18.9964 52.8555 18.8169 53.0349C18.6375 53.2144 18.5366 53.4578 18.5366 53.7117C18.5366 53.9655 18.6375 54.2089 18.8169 54.3884C18.9964 54.5679 19.2398 54.6687 19.4937 54.6687Z" fill="currentColor"/>
  <path d="M50.8556 52.7546H28.9019C28.648 52.7546 28.4046 52.8555 28.2251 53.0349C28.0457 53.2144 27.9448 53.4578 27.9448 53.7117C27.9448 53.9655 28.0457 54.2089 28.2251 54.3884C28.4046 54.5679 28.648 54.6687 28.9019 54.6687H50.8556C51.1094 54.6687 51.3529 54.5679 51.5323 54.3884C51.7118 54.2089 51.8126 53.9655 51.8126 53.7117C51.8126 53.4578 51.7118 53.2144 51.5323 53.0349C51.3529 52.8555 51.1094 52.7546 50.8556 52.7546Z" fill="currentColor"/>
  <path d="M58.3922 2.49194H11.957C11.7032 2.49194 11.4598 2.59277 11.2803 2.77225C11.1008 2.95173 11 3.19515 11 3.44897V66.5507C10.9999 66.7401 11.0559 66.9252 11.1611 67.0827C11.2662 67.2402 11.4158 67.363 11.5907 67.4355C11.7657 67.5079 11.9582 67.5269 12.1439 67.4899C12.3296 67.4529 12.5002 67.3617 12.6341 67.2277L16.6005 63.2607L20.5676 67.2277C20.7471 67.4071 20.9905 67.5079 21.2443 67.5079C21.4981 67.5079 21.7415 67.4071 21.9211 67.2277L25.8876 63.2607L29.8546 67.2277C30.0342 67.4071 30.2776 67.5079 30.5314 67.5079C30.7852 67.5079 31.0286 67.4071 31.2081 67.2277L35.1746 63.2607L39.1416 67.2277C39.3212 67.4071 39.5646 67.5079 39.8184 67.5079C40.0722 67.5079 40.3156 67.4071 40.4952 67.2277L44.4616 63.2612L48.4281 67.2277C48.6077 67.4071 48.8511 67.5079 49.1049 67.5079C49.3587 67.5079 49.6021 67.4071 49.7816 67.2277L53.7487 63.2607L57.7152 67.2277C57.849 67.3617 58.0196 67.4529 58.2053 67.4899C58.391 67.5269 58.5836 67.5079 58.7585 67.4355C58.9335 67.363 59.083 67.2402 59.1881 67.0827C59.2933 66.9252 59.3493 66.7401 59.3492 66.5507V3.44897C59.3492 3.19515 59.2484 2.95173 59.0689 2.77225C58.8894 2.59277 58.646 2.49194 58.3922 2.49194ZM57.4352 64.2402L54.4273 61.2323C54.2479 61.053 54.0046 60.9523 53.7509 60.9523C53.4972 60.9523 53.2538 61.053 53.0744 61.2323L49.1073 65.1994L45.1403 61.2323C44.9609 61.053 44.7175 60.9523 44.4638 60.9523C44.2101 60.9523 43.9668 61.053 43.7873 61.2323L39.8203 65.1994L35.8533 61.2323C35.6738 61.053 35.4305 60.9523 35.1768 60.9523C34.9231 60.9523 34.6798 61.053 34.5003 61.2323L30.5333 65.1994L26.5663 61.2323C26.3868 61.053 26.1435 60.9523 25.8898 60.9523C25.6361 60.9523 25.3927 61.053 25.2133 61.2323L21.2463 65.1994L17.2792 61.2323C17.0998 61.053 16.8564 60.9523 16.6027 60.9523C16.349 60.9523 16.1057 61.053 15.9263 61.2323L12.9184 64.2402V4.40601H57.4395L57.4352 64.2402Z" fill="currentColor"/>
  <path d="M37.1817 15.5454H33.0908C32.6392 15.5454 32.2726 15.912 32.2726 16.3636V23.1817H30.3636C29.912 23.1817 29.5454 23.5482 29.5454 23.9999C29.5454 24.4515 29.912 24.8181 30.3636 24.8181H32.2726V25.6362C32.2726 26.0879 32.6392 26.4544 33.0908 26.4544C33.5424 26.4544 33.909 26.0879 33.909 25.6362V24.8181H36.3635C36.8152 24.8181 37.1817 24.4515 37.1817 23.9999C37.1817 23.5482 36.8152 23.1817 36.3635 23.1817H33.909V22.0909H37.1817C38.9861 22.0909 40.4544 20.6225 40.4544 18.8181C40.4544 17.0138 38.9861 15.5454 37.1817 15.5454ZM37.1817 20.4545H33.909V17.1818H37.1817C38.084 17.1818 38.8181 17.9159 38.8181 18.8181C38.8181 19.7204 38.084 20.4545 37.1817 20.4545Z" fill="currentColor"/>
  <path d="M35.0001 9C28.3837 9 23 14.3837 23 21.0001C23 27.6164 28.3837 32.9999 35.0001 32.9999C41.6164 32.9999 46.9999 27.6164 46.9999 21.0001C46.9999 14.3837 41.6164 9 35.0001 9V9ZM35.0001 31.3636C29.2858 31.3636 24.6364 26.7142 24.6364 21.0001C24.6364 15.2858 29.2858 10.6364 35.0001 10.6364C40.7142 10.6364 45.3636 15.2858 45.3636 21.0001C45.3636 26.7142 40.7142 31.3636 35.0001 31.3636Z" fill="currentColor"/>
</svg>
