<svg xmlns="http://www.w3.org/2000/svg" width="38.316" height="38.316" viewBox="0 0 38.316 38.316"><g transform="translate(-72.495 -598.602)"><path d="M14.185,22.543a5.774,5.774,0,0,0-2.652.636A5.882,5.882,0,0,0,10.011,24.3a5.883,5.883,0,0,0-1.522-1.122,5.774,5.774,0,0,0-2.652-.636A5.843,5.843,0,0,0,0,28.38c0,2.279,1.2,4.7,3.578,7.2a34.6,34.6,0,0,0,6.1,4.91l.336.217.336-.217a34.6,34.6,0,0,0,6.1-4.91c2.374-2.5,3.578-4.916,3.578-7.2A5.843,5.843,0,0,0,14.185,22.543Zm1.361,12.179a32.748,32.748,0,0,1-5.535,4.5,32.748,32.748,0,0,1-5.535-4.5c-2.148-2.257-3.237-4.391-3.237-6.342a4.6,4.6,0,0,1,8.277-2.759l.5.659.5-.659a4.6,4.6,0,0,1,8.277,2.759C18.783,30.331,17.694,32.464,15.546,34.722Z" transform="translate(82.073 587.511)" fill="#fff"/><g transform="translate(72.495 598.602)" fill="none" stroke="#e8e5e5" stroke-width="1.4"><circle cx="19.158" cy="19.158" r="19.158" stroke="none"/><circle cx="19.158" cy="19.158" r="18.458" fill="none"/></g></g></svg>
