<svg xmlns="http://www.w3.org/2000/svg" width="52.997" height="38.253" viewBox="0 0 52.997 38.253">
  <g id="Icon_Mortgage_Online" data-name="Icon Mortgage Online" transform="translate(0.001 -0.199)">
    <path id="contour_196" data-name="contour 196" d="M104.178,62.231V39.368a.689.689,0,0,0-.689-.689H66.533a.689.689,0,0,0-.689.689V62.231a.689.689,0,0,0,.689.689h36.956A.689.689,0,0,0,104.178,62.231Zm-1.378-.689H67.222V40.057H102.8Zm0,0" transform="translate(-58.282 -34.06)" fill="#43698c"/>
    <path id="contour_197" data-name="contour 197" d="M3.5,38.452h45.98a3.511,3.511,0,0,0,.642-6.963V3.439A3.244,3.244,0,0,0,46.887.2H6.571a3.244,3.244,0,0,0-3.24,3.24V31.434A3.511,3.511,0,0,0,3.5,38.452Zm1.2-35.013A1.864,1.864,0,0,1,6.571,1.577H46.887a1.864,1.864,0,0,1,1.862,1.862V31.43h-14.9a1.967,1.967,0,0,0-1.964,1.965.587.587,0,0,1-.586.586h-10.2a.588.588,0,0,1-.586-.586A1.967,1.967,0,0,0,18.54,31.43H4.709ZM3.5,32.808H18.54a.587.587,0,0,1,.586.586,1.968,1.968,0,0,0,1.964,1.964h10.2a1.967,1.967,0,0,0,1.965-1.964.587.587,0,0,1,.586-.586H49.484a2.133,2.133,0,1,1,0,4.266H3.5a2.133,2.133,0,1,1,0-4.266Zm0,0" transform="translate(0)" fill="#43698c"/>
    <path id="contour_198" data-name="contour 198" d="M155.366,88.912h1.665v7.021a.689.689,0,0,0,.689.689h11.371a.689.689,0,0,0,.689-.689V88.912h1.665a.689.689,0,0,0,.406-1.246l-8.04-5.853a.69.69,0,0,0-.811,0l-8.04,5.853a.689.689,0,0,0,.406,1.246Zm8.04-5.69,5.923,4.312h-.237a.689.689,0,0,0-.689.689v7.021H158.41V88.223a.689.689,0,0,0-.689-.689h-.237Zm0,0" transform="translate(-136.912 -72.122)" fill="#43698c"/>
    <path id="contour_199" data-name="contour 199" d="M213.751,118.888a2.2,2.2,0,1,0-2.2-2.2A2.2,2.2,0,0,0,213.751,118.888Zm0-3.014a.818.818,0,1,1-.818.818A.818.818,0,0,1,213.751,115.874Zm0,0" transform="translate(-187.257 -101.169)" fill="#43698c"/>
  </g>
</svg>
