<svg xmlns="http://www.w3.org/2000/svg" width="46" height="46" viewBox="0 0 46 46"><g><g><g><path fill="#fff" d="M0 23C0 10.297 10.297 0 23 0s23 10.297 23 23-10.297 23-23 23S0 35.703 0 23z"/></g><g><path fill="#dd483e" d="M28.455 11.598c-1.262 0-2.469.29-3.586.86a7.954 7.954 0 0 0-2.058 1.517 7.955 7.955 0 0 0-2.059-1.517 7.808 7.808 0 0 0-3.586-.86c-4.352 0-7.893 3.54-7.893 7.893 0 3.082 1.628 6.356 4.84 9.73 2.68 2.818 5.962 5.167 8.243 6.64l.455.294.454-.293c2.281-1.474 5.563-3.823 8.244-6.64 3.21-3.375 4.839-6.649 4.839-9.731 0-4.352-3.541-7.893-7.893-7.893z"/></g></g></g></svg>
