<svg width="22" height="22" viewBox="0 0 22 22" fill="none" xmlns="http://www.w3.org/2000/svg">
<path fill-rule="evenodd" clip-rule="evenodd" d="M11 2C6.02944 2 2 6.02944 2 11C2 15.9706 6.02944 20 11 20C15.9706 20 20 15.9706 20 11C20 6.02944 15.9706 2 11 2ZM0 11C0 4.92487 4.92487 0 11 0C17.0751 0 22 4.92487 22 11C22 17.0751 17.0751 22 11 22C4.92487 22 0 17.0751 0 11ZM11.2582 7.02428C10.7927 6.94443 10.314 7.03191 9.90675 7.27123C9.49955 7.51054 9.19019 7.88625 9.03345 8.33181C8.85018 8.85279 8.27926 9.12657 7.75827 8.9433C7.23728 8.76002 6.96351 8.18911 7.14678 7.66812C7.46025 6.77701 8.07898 6.02559 8.89339 5.54696C9.70779 5.06833 10.6653 4.89337 11.5963 5.05307C12.5274 5.21277 13.3719 5.69682 13.9802 6.41949C14.5884 7.14201 14.9214 8.05644 14.9201 9.00087C14.9197 10.5312 13.7851 11.5419 12.9748 12.082C12.5392 12.3724 12.1107 12.586 11.795 12.7263C11.6358 12.7971 11.5016 12.8508 11.405 12.8876C11.3566 12.906 11.3174 12.9203 11.2888 12.9305L11.2541 12.9426L11.243 12.9464L11.2391 12.9477L11.2376 12.9482C11.2373 12.9483 11.2363 12.9486 10.9201 12L11.2363 12.9486C10.7124 13.1233 10.1461 12.8401 9.97143 12.3162C9.7969 11.7926 10.0796 11.2267 10.6028 11.0516L10.6188 11.046C10.6342 11.0406 10.6594 11.0314 10.693 11.0186C10.7605 10.9929 10.8607 10.9529 10.9827 10.8986C11.2296 10.7889 11.551 10.6275 11.8654 10.4179C12.555 9.95818 12.9201 9.4691 12.9201 8.99996L12.9201 8.99847C12.9208 8.52615 12.7543 8.06883 12.4502 7.70749C12.146 7.34615 11.7238 7.10413 11.2582 7.02428ZM11 15C10.4477 15 10 15.4477 10 16C10 16.5523 10.4477 17 11 17H11.01C11.5623 17 12.01 16.5523 12.01 16C12.01 15.4477 11.5623 15 11.01 15H11Z" fill="currentColor" />
</svg>
