<svg width="40" height="22" viewBox="0 0 40 22" fill="none" xmlns="http://www.w3.org/2000/svg">
<path d="M0 17.3786L2.3023 4.21301H7.8936L8.69235 0L12.1458 0.0478751L11.4175 4.16513L13.3204 4.21301L12.9446 6.8222H10.9712L9.11523 17.3547L5.5913 17.3786L7.47073 6.8222H5.33288L3.50043 17.3547L0 17.3786Z" fill="#DDDBDD"/>
<path d="M2.7998 2.46433L6.34723 2.4404L6.79359 0.0227051H3.26966L2.7998 2.46433Z" fill="#878787"/>
<path d="M27.9138 5.05527L28.0547 4.26534L24.6953 4.2414L22.4399 17.3592L25.9404 17.3831L26.7156 12.9307L27.303 9.62734C27.303 9.62734 27.7023 7.56872 30.7329 7.1139C30.7564 7.1139 30.7329 7.01815 30.7329 7.01815L31.2498 3.8584C31.2732 3.8584 29.2529 3.8584 27.9138 5.05527Z" fill="#878787"/>
<path d="M36.2925 3.92884C32.1577 3.95278 31.4529 7.0886 31.4529 7.0886L30.2078 14.0544C30.2078 14.0544 29.5265 17.3099 33.2384 17.5972C33.8022 17.645 34.2486 17.645 34.2486 17.645C34.2486 17.645 38.1719 17.8126 38.8767 13.5757C39.6049 9.1951 39.9808 7.20828 39.9808 7.20828C39.9808 7.20828 40.4977 3.9049 36.2925 3.92884ZM36.5039 7.11253L35.2118 14.4135C35.2118 14.4135 35.0943 15.2752 34.2721 15.2034C33.4498 15.1316 33.6848 14.2699 33.6848 14.2699L34.9534 7.11253C34.9534 7.11253 35.0473 6.37047 35.8696 6.37047C36.6214 6.37047 36.5039 7.11253 36.5039 7.11253Z" fill="#878787"/>
<path d="M21.0292 4.21058C21.0292 4.21058 19.7841 3.5882 17.5992 4.09089C15.4144 4.59358 14.7331 6.36495 14.6626 6.58039C14.1458 8.54327 13.2061 13.4505 13.1826 14.5755C13.1591 15.7006 13.582 16.2033 13.7934 16.4905C14.0048 16.8017 14.8741 17.7832 17.7402 17.5917C17.7402 17.5917 17.5992 18.4295 17.4348 18.6688C17.2469 18.9082 16.9414 19.1476 16.4011 18.98C16.0722 18.8843 16.1662 18.3816 16.1662 18.3816H12.8067C12.8067 18.3816 12.3368 20.7514 14.3102 21.661C15.1325 22.044 16.2836 22.068 17.8107 21.9004C19.4317 21.7329 20.5359 20.9669 20.8178 19.4827C20.9587 18.7646 21.4991 16.1793 21.4991 16.1793L23.449 4.18664H21.0292V4.21058ZM19.5257 7.10702L18.2336 14.408C18.2336 14.408 18.1161 15.2697 17.2938 15.1979C16.4716 15.1261 16.7065 14.2643 16.7065 14.2643L17.9751 7.10702C17.9751 7.10702 18.0691 6.36495 18.8914 6.36495C19.6431 6.36495 19.5257 7.10702 19.5257 7.10702Z" fill="#878787"/>
</svg>
