<svg xmlns="http://www.w3.org/2000/svg" width="23.014" height="23.014" viewBox="0 0 23.014 23.014"><path d="M18.9,0H4.117A4.122,4.122,0,0,0,0,4.117V18.9a4.122,4.122,0,0,0,4.117,4.117H18.9A4.122,4.122,0,0,0,23.014,18.9V4.117A4.122,4.122,0,0,0,18.9,0Zm2.769,18.9A2.772,2.772,0,0,1,18.9,21.665H4.117A2.772,2.772,0,0,1,1.348,18.9V4.117A2.772,2.772,0,0,1,4.117,1.348H18.9a2.772,2.772,0,0,1,2.769,2.769Z" transform="translate(0 0)"/><path d="M80.829,81.778H70.56a2.118,2.118,0,0,0-4.016,0h-1.6a.674.674,0,0,0,0,1.348h1.6a2.118,2.118,0,0,0,4.016,0H80.829a.674.674,0,1,0,0-1.348ZM68.552,83.223a.77.77,0,1,1,.77-.77A.771.771,0,0,1,68.552,83.223Z" transform="translate(-61.378 -76.723)"/><path d="M80.829,210.311h-1.6a2.118,2.118,0,0,0-4.016,0H64.941a.674.674,0,0,0,0,1.348H75.21a2.118,2.118,0,0,0,4.016,0h1.6a.674.674,0,1,0,0-1.348Zm-3.611,1.444a.77.77,0,1,1,.77-.77A.771.771,0,0,1,77.218,211.756Z" transform="translate(-61.378 -199.479)"/><path d="M80.829,338.844h-7.38a2.118,2.118,0,0,0-4.016,0H64.941a.674.674,0,1,0,0,1.348h4.492a2.118,2.118,0,0,0,4.016,0h7.38a.674.674,0,1,0,0-1.348Zm-9.388,1.444a.77.77,0,1,1,.77-.77A.771.771,0,0,1,71.441,340.289Z" transform="translate(-61.378 -322.234)"/></svg>
