<svg xmlns="http://www.w3.org/2000/svg" width="38.487" height="36.493" viewBox="0 0 38.487 36.493">
  <g id="telegram-01" transform="translate(-1.9 -1.9)">
    <path id="contour_179" data-name="contour 179" d="M39.17,38.393H3.117A1.191,1.191,0,0,1,1.9,37.228V3.065A1.191,1.191,0,0,1,3.117,1.9H39.17a1.191,1.191,0,0,1,1.217,1.165V37.228A1.191,1.191,0,0,1,39.17,38.393Z" transform="translate(0 0)" fill="#41b4e6"/>
    <path id="contour_180" data-name="contour 180" d="M55.626,102.575l10.746,8.09L72.329,89.1,43.7,98.871l8.712,2.5,15.9-9.256Z" transform="translate(-38.026 -79.328)" fill="#fff"/>
    <path id="contour_181" data-name="contour 181" d="M174.1,153.341l3.084,9.769,1.071-8.2,16.4-13.714Z" transform="translate(-160.357 -131.427)" fill="#d2d2d7"/>
    <path id="contour_182" data-name="contour 182" d="M202.969,327.241l-5.124,5.133,1.069-8.223Z" transform="translate(-181.017 -300.706)" fill="#b9b9be"/>
  </g>
</svg>
