<svg width="25" height="25" viewBox="0 0 25 25" fill="none"
  xmlns="http://www.w3.org/2000/svg">
  <g clip-path="url(#clip0)">
    <path d="M5 2.5H2.5V5H5V2.5Z" fill="#1F1F1F"/>
    <path d="M17.5 0V1.25H16.25V2.5H17.5V7.5H18.75V8.75H17.5V10H18.75H20V7.5H23.75V8.75H25V7.5V0H17.5ZM23.75 6.25H18.75V1.25H23.75V6.25Z" fill="#1F1F1F"/>
    <path d="M22.5 2.5H20V5H22.5V2.5Z" fill="#1F1F1F"/>
    <path d="M5 20H2.5V22.5H5V20Z" fill="#1F1F1F"/>
    <path d="M18.75 17.5H17.5V18.75H18.75V17.5Z" fill="#1F1F1F"/>
    <path d="M12.5 23.75H11.25V25H12.5V23.75Z" fill="#1F1F1F"/>
    <path d="M13.75 18.75H12.5V20H13.75V18.75Z" fill="#1F1F1F"/>
    <path d="M13.75 21.25H12.5V22.5H13.75V21.25Z" fill="#1F1F1F"/>
    <path d="M25 15H23.75V16.25H25V15Z" fill="#1F1F1F"/>
    <path d="M1.25 15H0V16.25H1.25V15Z" fill="#1F1F1F"/>
    <path d="M1.25 8.75H0V10H1.25V8.75Z" fill="#1F1F1F"/>
    <path d="M13.75 1.25V2.5H11.25V3.75H15V2.5V1.25H13.75Z" fill="#1F1F1F"/>
    <path d="M23.75 10V11.25H21.25V12.5H17.5V11.25H16.25V12.5H13.75V13.75H17.5L15 15V16.25H13.75V13.75H12.5V15H11.25V13.75H10L10.072 16.25H8.75H11.25V17.5H12.5V16.25H15V17.5H13.75V18.75H15V21.25H16.25V22.5H17.5V21.25H21.25V18.75H22.5V17.5H21.25V15H15L17.5 13.75H21.25V15H22.5L22.5 12.5L23.75 12.5H25V11.25V10H23.75ZM20 16.25V20H16.25V16.25H20Z" fill="#1F1F1F"/>
    <path d="M16.25 7.5H15V8.75H13.75V10V11.25H15V10H16.25V8.75H17.5V7.5H16.25Z" fill="#1F1F1F"/>
    <path d="M16.25 23.75H13.75V25H16.25V23.75Z" fill="#1F1F1F"/>
    <path d="M11.25 1.25H10V2.5H11.25V1.25Z" fill="#1F1F1F"/>
    <path d="M21.25 10H20V11.25H21.25V10Z" fill="#1F1F1F"/>
    <path d="M22.5 8.75H21.25V10H22.5V8.75Z" fill="#1F1F1F"/>
    <path d="M6.25 15H5V16.25H6.25V15Z" fill="#1F1F1F"/>
    <path d="M7.5 23.75V18.75H8.75V17.5V16.25H7.5V17.5H3.75V16.25H2.5H1.25V17.5H0V25H7.5H10V23.75H7.5ZM6.25 23.75H1.25V18.75H6.25V23.75Z" fill="#1F1F1F"/>
    <path d="M8.75 7.5H7.5V8.75H8.75V7.5Z" fill="#1F1F1F"/>
    <path d="M8.75 0H7.5H0V7.5H1.25V8.75H2.5V7.5H3.75V8.75H5V7.5H7.5V5H8.75V3.75H7.5V1.25H8.75H10V0H8.75ZM6.25 6.25H1.25V1.25H6.25V6.25Z" fill="#1F1F1F"/>
    <path d="M16.25 3.75H15V5H16.25V3.75Z" fill="#1F1F1F"/>
    <path d="M13.75 0H12.5V1.25H13.75V0Z" fill="#1F1F1F"/>
    <path d="M15 7.5V6.25H13.75V5H12.5V6.25H10H8.75V7.5H10V10H6.25V8.75H5V10H1.25V11.25H3.75V12.5H0V13.75H3.75V15H5V13.75H6.25V15H7.5V13.75H10V12.5H7.5V11.25H10H12.5L13.75 12.5V11.25H12.5V10H11.25V7.5H15ZM7.5 12.5H5V11.25H7.5V12.5Z" fill="#1F1F1F"/>
    <path d="M12.5 11.25V12.5H13.75L12.5 11.25Z" fill="#1F1F1F"/>
    <path d="M11.25 20V18.75V17.5H10V18.75H8.75V20H10V21.25H8.75V22.5H11.25V21.25H12.5V20H11.25Z" fill="#1F1F1F"/>
    <path d="M22.5 22.5V21.25H21.25V22.5H17.5V23.75H20V25H21.25V23.75H23.75V25H25V23.75V22.5H22.5Z" fill="#1F1F1F"/>
    <path d="M23.75 17.5V18.75H22.5V20H25V18.75V17.5H23.75Z" fill="#1F1F1F"/>
  </g>
  <defs>
    <clipPath>
      <rect width="25" height="25" fill="white"/>
    </clipPath>
  </defs>
</svg>
