<svg width="20" height="14" viewBox="0 0 20 14" fill="none" xmlns="http://www.w3.org/2000/svg">
<path fill-rule="evenodd" clip-rule="evenodd" d="M14.2929 0.292893C14.6834 -0.0976311 15.3166 -0.0976311 15.7071 0.292893L19.7071 4.29289C20.0976 4.68342 20.0976 5.31658 19.7071 5.70711C19.3166 6.09763 18.6834 6.09763 18.2929 5.70711L15 2.41421L11.7071 5.70711C11.3166 6.09763 10.6834 6.09763 10.2929 5.70711C9.90237 5.31658 9.90237 4.68342 10.2929 4.29289L14.2929 0.292893Z" fill="currentColor" />
<path fill-rule="evenodd" clip-rule="evenodd" d="M15 2.98023e-08C15.5523 2.98023e-08 16 0.447715 16 1V13C16 13.5523 15.5523 14 15 14C14.4477 14 14 13.5523 14 13V1C14 0.447715 14.4477 2.98023e-08 15 2.98023e-08Z" fill="currentColor" />
<path fill-rule="evenodd" clip-rule="evenodd" d="M4.29289 13.7071C4.68342 14.0976 5.31658 14.0976 5.70711 13.7071L9.70711 9.70711C10.0976 9.31658 10.0976 8.68342 9.70711 8.29289C9.31658 7.90237 8.68342 7.90237 8.29289 8.29289L5 11.5858L1.70711 8.29289C1.31658 7.90237 0.683417 7.90237 0.292893 8.29289C-0.0976311 8.68342 -0.0976311 9.31658 0.292893 9.70711L4.29289 13.7071Z" fill="currentColor" />
<path fill-rule="evenodd" clip-rule="evenodd" d="M5 14C5.55228 14 6 13.5523 6 13V1C6 0.447715 5.55228 2.98023e-08 5 2.98023e-08C4.44772 2.98023e-08 4 0.447715 4 1V13C4 13.5523 4.44772 14 5 14Z" fill="currentColor" />
</svg>
