<svg xmlns="http://www.w3.org/2000/svg" width="17.025" height="17.025" viewBox="0 0 17.025 17.025">
  <g transform="translate(0 0)">
    <g transform="translate(0 0)">
      <path d="M12.949,55.765a1.193,1.193,0,0,0-1.8,0c-.422.418-.843.836-1.258,1.261a.248.248,0,0,1-.347.064c-.273-.149-.563-.269-.825-.432a13.079,13.079,0,0,1-3.153-2.87,7.47,7.47,0,0,1-1.13-1.81.259.259,0,0,1,.064-.333c.422-.407.833-.825,1.247-1.244a1.2,1.2,0,0,0,0-1.846c-.329-.333-.659-.659-.988-.992s-.677-.684-1.02-1.02a1.2,1.2,0,0,0-1.8,0C1.5,46.965,1.1,47.394.663,47.8A2.053,2.053,0,0,0,.018,49.19a5.869,5.869,0,0,0,.453,2.526A15.35,15.35,0,0,0,3.2,56.254a16.859,16.859,0,0,0,5.583,4.368,8.075,8.075,0,0,0,3.093.9,2.267,2.267,0,0,0,1.945-.74c.361-.4.769-.772,1.151-1.158a1.205,1.205,0,0,0,.007-1.835Q13.966,56.773,12.949,55.765Z" transform="translate(-0.006 -44.503)"/>
      <path d="M241.694,101.038l1.307-.223A5.868,5.868,0,0,0,238.038,96l-.184,1.314a4.535,4.535,0,0,1,3.84,3.723Z" transform="translate(-229.427 -92.599)"/>
      <path d="M248.465,2.756A9.639,9.639,0,0,0,242.938,0l-.184,1.314a8.411,8.411,0,0,1,7.117,6.9l1.307-.223A9.71,9.71,0,0,0,248.465,2.756Z" transform="translate(-234.154)"/>
    </g>
  </g>
</svg>
