<svg width="70" height="70" viewBox="0 0 70 70" fill="none" xmlns="http://www.w3.org/2000/svg">
  <path d="M18.5741 49.3935C18.3629 49.0434 17.9836 48.8296 17.5736 48.8296H10.5714C10.1619 48.8296 9.78212 49.0434 9.57136 49.3935L6.07003 55.2061C5.84775 55.5744 5.84775 56.035 6.07003 56.4037L9.57136 62.2164C9.78212 62.566 10.1619 62.7802 10.5714 62.7802H17.5736C17.9836 62.7802 18.3629 62.566 18.5741 62.2164L22.0749 56.4037C22.2972 56.035 22.2972 55.5744 22.0749 55.2061L18.5741 49.3935ZM16.9135 60.455H11.232L8.43114 55.8049L11.232 51.1544H16.9135L19.7143 55.8049L16.9135 60.455Z" fill="currentColor"/>
  <path fill-rule="evenodd" clip-rule="evenodd" d="M5.85549 -0.269531L14.8854 5.3525L15.9111 9.95053L31.4141 24.8793L30.0241 26.3117L14.0891 10.967L13.1148 6.59957L6.14468 2.25996L2.26971 6.12007L6.64837 13.0991L11.5289 14.5576L26.9143 29.884L25.5001 31.2927L10.4713 16.3216L5.35181 14.7916L-0.269531 5.83199L5.85549 -0.269531Z" fill="currentColor"/>
  <path fill-rule="evenodd" clip-rule="evenodd" d="M45.2929 33.1641C45.6834 32.7751 46.3166 32.7751 46.7071 33.1641L50.9142 37.3551L49.2902 38.9728C48.8064 39.4548 48.8064 40.2361 49.2902 40.7181C49.7365 41.1627 50.4471 41.2019 50.94 40.8091L52.5654 39.5138L67.1226 53.6527C70.8645 57.287 70.9025 63.267 67.2071 66.9482C63.5117 70.6294 57.5087 70.5915 53.8604 66.864L39.6671 52.3626L40.894 50.8349C41.3301 50.2919 41.2865 49.509 40.7929 49.0172C40.2992 48.5255 39.5134 48.4821 38.9682 48.9166L37.4258 50.1458L33.7929 46.5268C33.4024 46.1378 33.4024 45.5071 33.7929 45.118C34.1834 44.729 34.8166 44.729 35.2071 45.118L37.5742 47.4761L37.7188 47.3608C39.0598 46.2922 40.9928 46.3989 42.2071 47.6085C43.4214 48.8181 43.5284 50.7437 42.4557 52.0795L42.3329 52.2324L55.2924 65.4732C58.1627 68.4058 62.8856 68.4356 65.7929 65.5394C68.7002 62.6432 68.6703 57.9385 65.7264 55.0792L52.4346 42.1694L52.1894 42.3648C50.9007 43.3918 49.0429 43.2893 47.876 42.1269C46.6111 40.8669 46.6111 38.824 47.876 37.5641L48.0858 37.3551L45.2929 34.5729C44.9024 34.1838 44.9024 33.5531 45.2929 33.1641Z" fill="currentColor"/>
  <path fill-rule="evenodd" clip-rule="evenodd" d="M68.2071 55.5779C68.5976 55.9669 68.5976 56.5977 68.2071 56.9867L57.2071 67.9445C56.8166 68.3335 56.1834 68.3335 55.7929 67.9445C55.4024 67.5555 55.4024 66.9247 55.7929 66.5357L66.7929 55.5779C67.1834 55.1889 67.8166 55.1889 68.2071 55.5779Z" fill="currentColor"/>
  <path fill-rule="evenodd" clip-rule="evenodd" d="M9.92562 48.811H18.0744L22.1577 55.7842L18.0744 62.7573H9.92562L5.84229 55.7842L9.92562 48.811ZM11.0744 50.8034L8.15769 55.7842L11.0744 60.765H16.9256L19.8423 55.7842L16.9256 50.8034H11.0744Z" fill="currentColor"/>
  <path fill-rule="evenodd" clip-rule="evenodd" d="M67.9583 12.9053C67.9861 13.2488 68 13.5959 68 13.9453C68 20.5473 62.6274 25.8993 56 25.8993C54.7877 25.8993 53.6173 25.7202 52.5141 25.3871L50.9417 26.9535L51.0037 26.9773L27.0822 50.807L27.0583 50.7453L25.4859 52.3117C25.8202 53.4106 26 54.5765 26 55.7842C26 62.3862 20.6274 67.7381 14 67.7381C7.37258 67.7381 2 62.3862 2 55.7842C2 49.1822 7.37258 43.8302 14 43.8302C15.2123 43.8302 16.3827 44.0093 17.4859 44.3424L19.0583 42.776L18.9964 42.7522L42.9179 18.9225L42.9417 18.9842L44.5141 17.4178C44.1798 16.3189 44 15.153 44 13.9453C44 7.34332 49.3726 1.99135 56 1.99135C56.358 1.99135 56.7063 2.0036 57.0477 2.02939L50.2929 8.75826C50.0197 9.03047 49.9283 9.43516 50.0583 9.7977L52.5583 16.7708C52.6591 17.0521 52.8813 17.2735 53.1637 17.3739L60.1637 19.8643C60.5276 19.9938 60.9339 19.9028 61.2071 19.6306L67.9583 12.9053ZM67.5198 10.5246L60.2404 17.7761L54.2825 15.6564L52.1546 9.72129L59.4345 2.46934C59.4563 2.47596 59.4782 2.48266 59.5 2.48943L61.0762 0.944061C59.5024 0.333844 57.7905 -0.000976562 56 -0.000976562C48.268 -0.000976562 42 6.24299 42 13.9453C42 14.9022 42.0967 15.8366 42.281 16.7394L16.8048 42.1178C15.8986 41.9343 14.9606 41.8379 14 41.8379C6.26801 41.8379 0 48.0819 0 55.7842C0 63.4865 6.26801 69.7305 14 69.7305C21.732 69.7305 28 63.4865 28 55.7842C28 54.8273 27.9033 53.8929 27.719 52.9902L53.1953 27.6117C54.1015 27.7952 55.0394 27.8916 56 27.8916C63.732 27.8916 70 21.6476 70 13.9453C70 12.1685 69.6664 10.4693 69.0583 8.90642L67.5 10.4587C67.5067 10.4807 67.5133 10.5026 67.5198 10.5246Z" fill="currentColor"/>
</svg>
