<svg xmlns="http://www.w3.org/2000/svg" width="31.088" height="24.5" viewBox="0 0 31.088 24.5">
  <g transform="translate(0 -54.247)">
    <g transform="translate(2.599 56.846)">
      <g transform="translate(0 0)">
        <path d="M44.609,97.054a1.8,1.8,0,1,0,1.8,1.8A1.8,1.8,0,0,0,44.609,97.054Zm0,2.3a.5.5,0,1,1,.5-.5A.505.505,0,0,1,44.609,99.357Z" transform="translate(-42.81 -97.054)" fill="currentColor"/>
      </g>
    </g>
    <g transform="translate(0 54.247)">
      <path d="M29.862,62.345V57.777a1.608,1.608,0,0,0-1.6-1.606l-20.229-.01a4.446,4.446,0,0,0-.542-.647,4.361,4.361,0,0,0-3.15-1.266,4.4,4.4,0,0,0-3.854,6.4c.006.012,1.052,1.766,1.052,1.766V77.128a1.607,1.607,0,0,0,1.6,1.605l25.117.014a1.608,1.608,0,0,0,1.606-1.606v-8.5s.738-1.237.744-1.25a4.412,4.412,0,0,0,.482-2A4.364,4.364,0,0,0,29.862,62.345Zm-4.424-4.881-3.124,3.124L19.187,57.46ZM21.49,61.411l-5.444,5.444-1.991-1.991h0l-1.493-1.493,5.444-5.444ZM10.649,69.094,13.644,66.1l3.848,3.848L14.5,72.942Zm.73,2.377L8.02,74.83,5.328,72.139l3.359-3.359ZM8.314,60.647a4.411,4.411,0,0,0,.318-3.192l8.194,0-5.088,5.088L9.916,60.725a.582.582,0,0,0-.824.824l3.727,3.727L9.825,68.271,7.4,65.845a.582.582,0,0,0-.824.824l1.287,1.287L2.828,72.992v-8.41l.46.77a1.293,1.293,0,0,0,2.221,0S8.308,60.66,8.314,60.647Zm-6.69-.608a3.069,3.069,0,0,1-.33-1.414,3.119,3.119,0,0,1,3.06-3.085,3.087,3.087,0,0,1,2.224.894,3.121,3.121,0,0,1,.517.672c.006.012.013.023.019.034a3.111,3.111,0,0,1,.058,2.9L4.4,64.689Zm1.515,17.4a.311.311,0,0,1-.311-.311v-2.49L4.5,72.962l4.481,4.481Zm7.494,0-1.79-1.79L12.2,72.295l5.153,5.153Zm4.687-3.678,2.995-2.995,2.175,2.175L17.495,75.94ZM19,77.448l-.685-.685,2.995-2.995L25,77.451Zm9.253,0H26.643l-4.507-4.507,1.356-1.356a.582.582,0,0,0-.824-.824l-1.357,1.357-2.586-2.586h0L16.87,67.679l2.207-2.207,1.144,1.144a.647.647,0,0,0,.915-.915l-1.144-1.144,7.092-7.092h1.172a.312.312,0,0,1,.312.312V61.41a4.365,4.365,0,0,0-1.94-.418,4.4,4.4,0,0,0-3.854,6.4c.006.012,2.806,4.7,2.806,4.7a1.293,1.293,0,0,0,2.221,0l.767-1.286v6.331h0A.313.313,0,0,1,28.255,77.453Zm1.208-10.669-.817,1.369v0L26.69,71.434l-2.774-4.65a3.068,3.068,0,0,1-.33-1.414,3.119,3.119,0,0,1,3.06-3.085,3.105,3.105,0,0,1,2.818,4.5Z" transform="translate(0 -54.247)" fill="currentColor"/>
    </g>
    <g transform="translate(24.891 63.591)">
      <g transform="translate(0 0)">
        <path d="M411.746,208.133a1.8,1.8,0,1,0,1.8,1.8A1.8,1.8,0,0,0,411.746,208.133Zm0,2.3a.5.5,0,1,1,.5-.5A.505.505,0,0,1,411.746,210.436Z" transform="translate(-409.947 -208.133)" fill="currentColor"/>
      </g>
    </g>
  </g>
</svg>
