<svg width="20" height="18" viewBox="0 0 20 18" fill="none" xmlns="http://www.w3.org/2000/svg">
<path fill-rule="evenodd" clip-rule="evenodd" d="M12.1167 0.44469C12.8097 0.151368 13.5535 0 14.3053 0C15.0572 0 15.801 0.151368 16.494 0.44469C17.1868 0.737927 17.8143 1.16691 18.3416 1.70571C18.8691 2.24434 19.2861 2.88235 19.5702 3.58258C19.8542 4.28277 20 5.03233 20 5.78868C20 6.54503 19.8542 7.29459 19.5702 7.99478C19.2862 8.69495 18.8692 9.3329 18.3417 9.8715C18.3417 9.87155 18.3418 9.87145 18.3417 9.8715L10.6526 17.7263C10.4814 17.9013 10.2458 18 9.99977 18C9.75372 18 9.51818 17.9013 9.34694 17.7263L1.65779 9.8715C0.593216 8.78399 0 7.31486 0 5.78868C0 4.2625 0.593216 2.79337 1.65779 1.70586C2.7233 0.617388 4.17463 0.00047518 5.69419 0.00047518C7.21375 0.00047518 8.66508 0.617388 9.73059 1.70586L9.99977 1.98084L10.2688 1.70601C10.2688 1.70596 10.2687 1.70606 10.2688 1.70601C10.7961 1.16714 11.4238 0.737955 12.1167 0.44469ZM14.3053 1.8C13.8004 1.8 13.2996 1.9016 12.8315 2.09976C12.3632 2.29795 11.9359 2.58923 11.5747 2.95838L10.6526 3.90041C10.4814 4.07533 10.2458 4.17407 9.99977 4.17407C9.75372 4.17407 9.51818 4.07533 9.34694 3.90041L8.42494 2.95854C7.69569 2.21357 6.7128 1.80048 5.69419 1.80048C4.67557 1.80048 3.69269 2.21357 2.96344 2.95854C2.23325 3.70446 1.81818 4.72199 1.81818 5.78868C1.81818 6.85537 2.23325 7.8729 2.96344 8.61883L9.99977 15.8068L17.0361 8.61883C17.3975 8.24979 17.6858 7.80995 17.8829 7.32404C18.08 6.83808 18.1818 6.31628 18.1818 5.78868C18.1818 5.26109 18.08 4.73928 17.8829 4.25333C17.6858 3.76741 17.3977 3.32772 17.0362 2.95869C16.675 2.58953 16.2474 2.29795 15.7792 2.09976C15.3111 1.9016 14.8103 1.8 14.3053 1.8Z" fill="currentColor" />
</svg>
