<svg width="120" height="70" viewBox="0 0 120 70" fill="none" xmlns="http://www.w3.org/2000/svg">
<g clip-path="url(#clip0)">
<rect x="32.5232" y="1" width="13.4579" height="5" fill="#FFE700"/>
<rect x="26.9158" y="6" width="24.6729" height="63" fill="#FFE700"/>
<path d="M27.4766 12.6H51.028" stroke="white" stroke-width="2" stroke-linecap="round" stroke-linejoin="round" fill="white"/>
<path d="M27.0839 18.9H3.92505V68.95" stroke="#323640" stroke-width="2" stroke-linecap="round" stroke-linejoin="round" fill="white"/>
<path d="M51.0278 26.25H75.3643V68.6" stroke="#323640" stroke-width="2" stroke-linecap="round" stroke-linejoin="round" fill="white"/>
<path d="M56.1309 26.25V21.35H69.8692V26.25" stroke="#323640" stroke-width="2" stroke-linecap="round" stroke-linejoin="round" fill="white"/>
<path d="M59.6633 21.35V15.75H66.7287V21.35" stroke="#323640" stroke-width="2" stroke-linecap="round" stroke-linejoin="round" fill="white"/>
<path d="M63.1963 15.75V7" stroke="#323640" stroke-width="2" stroke-linecap="round" stroke-linejoin="round" fill="white"/>
<path d="M59.271 68.95V57.4H67.514V68.95" stroke="#323640" stroke-width="2" stroke-linecap="round" stroke-linejoin="round" fill="white"/>
<path d="M14.1308 26.6H8.6355V34.3H14.1308V26.6Z" stroke="#323640" stroke-width="2" stroke-linecap="round" stroke-linejoin="round" fill="white"/>
<path d="M23.5515 26.6H18.0562V34.3H23.5515V26.6Z" stroke="#323640" stroke-width="2" stroke-linecap="round" stroke-linejoin="round" fill="white"/>
<path d="M23.5515 40.6H18.0562V48.3H23.5515V40.6Z" stroke="#323640" stroke-width="2" stroke-linecap="round" stroke-linejoin="round" fill="white"/>
<path d="M23.5515 54.6H18.0562V62.3H23.5515V54.6Z" stroke="#323640" stroke-width="2" stroke-linecap="round" stroke-linejoin="round" fill="white"/>
<path d="M14.1308 40.6H8.6355V48.3H14.1308V40.6Z" stroke="#323640" stroke-width="2" stroke-linecap="round" stroke-linejoin="round" fill="white"/>
<path d="M14.1308 54.6H8.6355V62.3H14.1308V54.6Z" stroke="#323640" stroke-width="2" stroke-linecap="round" stroke-linejoin="round" fill="white"/>
<path d="M59.6633 32.2H60.0585" stroke="#323640" stroke-width="2" stroke-linecap="round" stroke-linejoin="round"/>
<path d="M59.6633 39.2H60.0585" stroke="#323640" stroke-width="2" stroke-linecap="round" stroke-linejoin="round"/>
<path d="M59.6633 46.2H60.0585" stroke="#323640" stroke-width="2" stroke-linecap="round" stroke-linejoin="round"/>
<path d="M59.6633 53.2H60.0585" stroke="#323640" stroke-width="2" stroke-linecap="round" stroke-linejoin="round"/>
<path d="M65.9438 32.2H66.339" stroke="#323640" stroke-width="2" stroke-linecap="round" stroke-linejoin="round"/>
<path d="M65.9438 39.2H66.339" stroke="#323640" stroke-width="2" stroke-linecap="round" stroke-linejoin="round"/>
<path d="M65.9438 46.2H66.339" stroke="#323640" stroke-width="2" stroke-linecap="round" stroke-linejoin="round"/>
<path d="M65.9438 53.2H66.339" stroke="#323640" stroke-width="2" stroke-linecap="round" stroke-linejoin="round"/>
<path d="M27.4766 68.9501V6.30005H51.028V68.9501" stroke="#323640" stroke-width="2" stroke-linecap="round" stroke-linejoin="round" fill="#FFE700"/>
<path d="M32.5793 6.30005V1.05005H46.3177V6.30005" stroke="#323640" stroke-width="2" stroke-linecap="round" stroke-linejoin="round" fill="#FFE700"/>
<path d="M32.5793 21H46.7102M32.5793 31.15H46.7102M32.5793 40.95H46.7102M32.5793 51.1H46.7102M32.5793 60.9H46.7102" stroke="white" stroke-width="2" stroke-linecap="round" stroke-linejoin="round" fill="#FFE700"/>
<path d="M0.784912 68.95H118.878" stroke="#323640" stroke-width="2" stroke-linecap="round" stroke-linejoin="round"/>
<g clip-path="url(#clip1)">
<path d="M95.6013 44.3223V68.8667" stroke="#323640" stroke-width="1.8" stroke-linecap="round"/>
<path d="M99.701 46.4111L95.6013 50.0667" stroke="#323640" stroke-width="1.8" stroke-linecap="round"/>
<path d="M79.2024 64.6889H86.8161H94.4298L86.8161 49.5444L79.2024 64.6889Z" stroke="#323640" stroke-width="1.8" stroke-linejoin="round" fill="white"/>
<path d="M86.8162 61.0333V68.8667" stroke="#323640" stroke-width="1.8" stroke-linecap="round"/>
<path d="M75.7009 39L76.8599 37.5333L83.8879 46.9333H80.3739L84.4736 53.7222L82.1309 54.2444L83.3022 55.2889M114.343 64.1667H100.287L107.315 49.5444L114.343 64.1667Z" stroke="#323640" stroke-width="1.8" stroke-linejoin="round" <path d="M79.2024 64.6889H86.8161H94.4298L86.8161 49.5444L79.2024 64.6889Z" stroke="#323640" stroke-width="1.8" stroke-linejoin="round" fill="white"/>
<path d="M107.315 61.0333V68.8667" stroke="#323640" stroke-width="1.8" stroke-linecap="round" stroke-linejoin="round"/>
<path d="M91.5015 51.1111L95.0155 54.2444" stroke="#323640" stroke-width="1.8" stroke-linecap="round"/>
<path d="M104.386 55.2889H102.629C102.044 56.5075 99.8182 59.0489 95.6013 59.4667C91.3845 59.8845 89.9399 56.5075 89.7446 54.7667" stroke="#323640" stroke-width="1.8" stroke-linejoin="round" fill="white"/>
<path d="M79.7881 41.7111C80.9594 40.4925 83.8878 37.9511 86.2305 37.5333C85.6448 35.6185 85.6448 31.0577 90.3301 28.1333C95.0155 25.2088 99.7009 26.9148 101.458 28.1333C103.215 29.3518 106.377 32.9377 104.972 37.5333C107.51 38.2296 112.586 40.98 112.586 46.4111C112.586 47.8037 111.883 51.0066 109.072 52.6777" stroke="#323640" stroke-width="1.8" stroke-linejoin="round" fill="white"/>

</g>
</g>
<defs>
<clipPath id="clip0">
<rect width="120" height="70" fill="white"/>
</clipPath>
<clipPath id="clip1">
<rect width="52.7103" height="47" fill="white" transform="translate(62.8037 25)"/>
</clipPath>
</defs>
</svg>
