<svg width="24" height="16" viewBox="0 0 24 16" fill="none" xmlns="http://www.w3.org/2000/svg">
<path d="M22.2026 0.137939H1.79742C0.804703 0.137939 0 0.942643 0 1.93536V14.0647C0 15.0574 0.804703 15.8621 1.79742 15.8621H22.2026C23.1952 15.8621 24 15.0574 24 14.0647V1.93536C24 0.942643 23.1953 0.137939 22.2026 0.137939Z" fill="#41479B"/>
<path d="M23.9751 1.63824C23.8335 0.787034 23.094 0.137909 22.2026 0.137909H21.7349L14.069 5.16042V0.137956H9.93103V5.16047L6.09806 2.64921L2.26509 0.137956H1.79742C0.906 0.137956 0.166547 0.787034 0.0248906 1.63828L6.57698 5.9311H0V10.069H6.57698L0.0248906 14.3618C0.166547 15.213 0.906 15.8621 1.79742 15.8621H2.26509L9.93103 10.8396V15.8621H14.069V10.8396L21.7349 15.8621H22.2026C23.094 15.8621 23.8335 15.213 23.9751 14.3618L17.423 10.0689H24V5.931H17.423L23.9751 1.63824Z" fill="#F5F5F5"/>
<path d="M13.2414 0.137939H10.7586V6.75861H0V9.24139H10.7586V15.8621H13.2414V9.24139H24V6.75861H13.2414V0.137939Z" fill="#FF4B55"/>
<path d="M1.16206 15.7462L9.90814 10.069H8.38808L0.432266 15.2333C0.626938 15.4605 0.87711 15.6385 1.16206 15.7462Z" fill="#FF4B55"/>
<path d="M16.237 10.069H14.7169L23.188 15.5676C23.425 15.412 23.6228 15.2017 23.7639 14.9548L16.237 10.069Z" fill="#FF4B55"/>
<path d="M0.189957 1.13163L7.58355 5.93103H9.10361L0.72555 0.492584C0.500597 0.660022 0.316519 0.878928 0.189957 1.13163Z" fill="#FF4B55"/>
<path d="M15.5888 5.93103L23.5592 0.757201C23.3624 0.530748 23.1103 0.353748 22.8233 0.248138L14.0688 5.93103H15.5888Z" fill="#FF4B55"/>
</svg>
