<svg xmlns="http://www.w3.org/2000/svg" width="37.689" height="37.185" viewBox="0 0 37.689 37.185">
  <g id="whatsapp-01" transform="translate(69.7 -2.3)">
    <path id="contour_183" data-name="contour 183" d="M38.084,39.485H4.206A1.9,1.9,0,0,1,2.3,37.579V4.206A1.9,1.9,0,0,1,4.206,2.3H38.084a1.9,1.9,0,0,1,1.906,1.906V37.579A1.9,1.9,0,0,1,38.084,39.485Z" transform="translate(-72)" fill="#1bd741"/>
    <g id="group_87" data-name="group 87" transform="translate(-63.691 6.65)">
      <g id="group_86" data-name="group 86" transform="translate(0)">
        <circle id="ellipse_54" data-name="ellipse 54" cx="11.255" cy="11.255" r="11.255" transform="translate(2.309 2.298)" fill="#1bd741"/>
        <path id="contour_184" data-name="contour 184" d="M79,175.4l9.585,8.015-8.8.785Z" transform="translate(-76.41 -160.344)" fill="#1bd741"/>
        <path id="contour_185" data-name="contour 185" d="M55.9,68.263l1.906-6.749A13.475,13.475,0,1,1,62.85,66.48ZM63.22,64l.415.258A11.173,11.173,0,1,0,60,60.729l.28.426-1.1,3.89Z" transform="translate(-55.9 -41.1)" fill="#fff"/>
        <path id="contour_186" data-name="contour 186" d="M119.1,105.337l-.874-.045a1.06,1.06,0,0,0-.751.258,3.961,3.961,0,0,0-1.312,2.018,6.1,6.1,0,0,0,1.424,4.8,14.3,14.3,0,0,0,7.69,5.594,3.762,3.762,0,0,0,3.173-.392,2.82,2.82,0,0,0,1.233-1.8l.146-.65a.44.44,0,0,0-.258-.5l-2.993-1.39a.45.45,0,0,0-.549.135l-1.166,1.513a.336.336,0,0,1-.37.112,9.148,9.148,0,0,1-4.944-4.226.342.342,0,0,1,.045-.381l1.11-1.289a.47.47,0,0,0,.078-.482l-1.278-2.993A.476.476,0,0,0,119.1,105.337Z" transform="translate(-109.325 -98.096)" fill="#fff"/>
      </g>
    </g>
  </g>
</svg>
