<?xml version="1.0" encoding="utf-8"?>
<!-- Generator: Adobe Illustrator 25.0.1, SVG Export Plug-In . SVG Version: 6.00 Build 0)  -->
<svg version="1.1" id="meeting" xmlns="http://www.w3.org/2000/svg" xmlns:xlink="http://www.w3.org/1999/xlink" x="0px" y="0px"
  viewBox="0 0 80.5 77.9" style="enable-background:new 0 0 80.5 77.9;" xml:space="preserve">
<style type="text/css">
  .st0{fill:#D5E1E6;}
  .st1{fill:#40798F;}
</style>
<g id="group_90" transform="translate(15.574 23.352)">
  <path id="contour_234" class="st0" d="M5.2,23.4H1.3c-0.7,0-1.3-0.6-1.3-1.3c0-0.7,0.6-1.3,1.3-1.3c0,0,0,0,0,0h3.9
    c0.7,0,1.3,0.6,1.3,1.3C6.5,22.8,5.9,23.4,5.2,23.4C5.2,23.4,5.2,23.4,5.2,23.4L5.2,23.4z"/>
  <path id="contour_235" class="st0" d="M3.5,36.8c-0.3-0.6-0.1-1.4,0.6-1.7c0,0,0,0,0,0l3.5-1.8c0.6-0.4,1.4-0.2,1.8,0.4
    c0.4,0.6,0.2,1.4-0.4,1.8c0,0-0.1,0.1-0.2,0.1l-3.5,1.8C4.6,37.7,3.9,37.5,3.5,36.8C3.5,36.8,3.5,36.8,3.5,36.8L3.5,36.8z"/>
  <path id="contour_236" class="st0" d="M63.6,23.4h-3.9c-0.7,0-1.3-0.6-1.3-1.3c0-0.7,0.6-1.3,1.3-1.3h3.9
    c0.7,0,1.3,0.6,1.3,1.3C64.9,22.8,64.3,23.4,63.6,23.4L63.6,23.4z"/>
  <path id="contour_237" class="st0" d="M55.6,10.3c-0.3-0.6-0.1-1.4,0.6-1.7l3.5-1.8c0.6-0.3,1.4-0.1,1.8,0.6
    c0.3,0.6,0.1,1.4-0.6,1.8l-3.5,1.8C56.7,11.2,55.9,10.9,55.6,10.3C55.6,10.3,55.6,10.3,55.6,10.3L55.6,10.3z"/>
  <path id="contour_238" class="st0" d="M59.6,37.4l-3.5-1.8c-0.7-0.3-1-1-0.7-1.7c0.3-0.7,1-1,1.7-0.7c0.1,0,0.1,0,0.2,0.1
    l3.5,1.8c0.6,0.3,0.9,1.1,0.6,1.8C61,37.5,60.3,37.7,59.6,37.4z"/>
  <path id="contour_239" class="st0" d="M21.5,45.4h9.7V33.2l-3.3-2.2c-0.6-0.3-0.9-1.1-0.6-1.8c0.3-0.6,1.1-0.9,1.8-0.6
    c0.1,0,0.2,0.1,0.2,0.2l3.2,2.1l3.2-2.1c0.6-0.3,1.4-0.1,1.8,0.6c0.3,0.5,0.1,1.2-0.3,1.6l-3.3,2.2v12.3h9.6c1.3-3.1,3.1-6,5.4-8.5
    C57,28,56.3,14,47.3,5.8S24.4-1.8,16.2,7.2C8.5,15.5,8.5,28.3,16,36.8C18.3,39.3,20.2,42.3,21.5,45.4z M38.9,15.6
    c2.9,0,5.2,2.3,5.2,5.2S41.8,26,38.9,26s-5.2-2.3-5.2-5.2C33.7,17.9,36.1,15.6,38.9,15.6L38.9,15.6z M26,15.6
    c2.9,0,5.2,2.3,5.2,5.2c0,2.9-2.3,5.2-5.2,5.2s-5.2-2.3-5.2-5.2C20.8,17.9,23.1,15.6,26,15.6L26,15.6z"/>
  <path id="contour_240" class="st0" d="M22.4,48c0.4,1.2,0.6,2.5,0.8,3.8l0.2,1.5c0.1,0.7,0.6,1.1,1.3,1.1h15.6
    c0.7,0,1.2-0.5,1.3-1.1l0.2-2c0.1-1.1,0.4-2.3,0.7-3.4H22.4z"/>
</g>
<path class="st1" d="M52.5,17.5c4.3-3.2,5.2-9.3,1.9-13.6s-9.3-5.2-13.6-1.9c-4.3,3.2-5.2,9.3-1.9,13.6c0.6,0.7,1.2,1.4,1.9,1.9
  c-0.6,0.2-1.3,0.4-1.9,0.6c-3.7-3.5-9.5-3.5-13.2,0c-0.6-0.3-1.2-0.5-1.9-0.6c4.3-3.2,5.2-9.3,1.9-13.6s-9.3-5.2-13.6-1.9
  s-5.2,9.3-1.9,13.6c0.6,0.7,1.2,1.4,1.9,1.9C5,19.6,0,26.2,0,33.8v1.3c0,0.7,0.6,1.3,1.3,1.3h19.1c-3.9,3.2-6.1,8-6.1,13v1.3
  c0,0.7,0.6,1.3,1.3,1.3h33.7c0.7,0,1.3-0.6,1.3-1.3v-1.3c0-5-2.2-9.8-6.1-13h19.1c0.7,0,1.3-0.6,1.3-1.3v-1.3
  C64.9,26.2,59.8,19.6,52.5,17.5z M39.6,9.7c0-3.9,3.2-7.1,7.1-7.1c3.9,0,7.1,3.2,7.1,7.1s-3.2,7.1-7.1,7.1
  C42.8,16.9,39.6,13.7,39.6,9.7z M32.4,18.2L32.4,18.2c3.9,0,7.1,3.2,7.1,7.1s-3.2,7.1-7.1,7.1s-7.1-3.2-7.1-7.1
  C25.3,21.4,28.5,18.2,32.4,18.2z M11,9.7c0-3.9,3.2-7.1,7.1-7.1s7.1,3.2,7.1,7.1s-3.2,7.1-7.1,7.1S11,13.7,11,9.7z M2.6,33.8
  c0-7.9,6.4-14.3,14.3-14.3h2.6c1.6,0,3.2,0.3,4.7,0.8c-2.6,4.3-1.5,9.8,2.5,12.8c-0.7,0.2-1.3,0.4-2,0.7H2.6z M48,49.3H16.9
  c0-7.9,6.4-14.3,14.3-14.3h2.6C41.6,35.1,48,41.4,48,49.3z M62.3,33.8H40.2c-0.6-0.3-1.3-0.5-1.9-0.7c4-3,5.1-8.6,2.5-12.8
  c1.5-0.5,3.1-0.8,4.7-0.8H48C55.9,19.5,62.3,25.9,62.3,33.8C62.3,33.8,62.3,33.8,62.3,33.8z"/>
</svg>
