<svg xmlns="http://www.w3.org/2000/svg" fill="none" viewBox="0 0 24 24">
  <defs/>
  <path fill="currentColor" stroke="currentColor" stroke-width=".2" d="M9.86293 16.6137C10.1271 17.175 10.9188 17.1933 11.2086 16.6448L15.1034 9.27239L16.5609 12.0753C16.8009 12.5367 17.4255 12.6212 17.7795 12.2401L19.899 9.95746C20.1817 9.65305 20.1641 9.17713 19.8596 8.89446C19.5552 8.61179 19.0793 8.62942 18.7966 8.93383L17.4033 10.4344L15.776 7.30516C15.4962 6.76693 14.727 6.76442 14.4436 7.30082L10.5824 14.6096L8.6154 10.4297C8.41551 10.0049 7.87964 9.86506 7.49763 10.1379L5.21503 11.7683C4.877 12.0098 4.7987 12.4796 5.04016 12.8176C5.28161 13.1556 5.75138 13.2339 6.08941 12.9925L7.63821 11.8862L9.86293 16.6137Z"/>
</svg>
