<svg xmlns="http://www.w3.org/2000/svg" fill="none" viewBox="0 0 24 24">
  <defs/>
  <path fill="currentColor" stroke="currentColor" stroke-width=".2" d="M6.69689 18.4697L6.69743 18.4699C6.89406 18.5607 7.09312 18.6071 7.29384 18.6071C7.60003 18.6071 7.92115 18.5004 8.16732 18.3004L9.63256 17.1142H12C15.3683 17.1142 18.1 14.3677 18.1 11C18.1 7.63198 15.368 4.9 12 4.9C8.63198 4.9 5.9 7.63198 5.9 11V17.2133C5.9 17.7492 6.20638 18.2398 6.69689 18.4697ZM7.35851 17.3065L7.35778 17.3071C7.3348 17.3262 7.31541 17.3301 7.29917 17.3301C7.27977 17.3301 7.26163 17.3246 7.24015 17.3175C7.24025 17.3175 7.23933 17.3172 7.23758 17.3163C7.23588 17.3154 7.23367 17.3141 7.23116 17.3123C7.22609 17.3086 7.2204 17.3034 7.2151 17.2965C7.2052 17.2835 7.19479 17.2622 7.19479 17.2275V11C7.19479 8.33978 9.35362 6.19479 12 6.19479C14.6602 6.19479 16.8052 8.35362 16.8052 11C16.8052 13.6608 14.66 15.8194 12 15.8194H9.3981C9.24604 15.8194 9.10967 15.8708 8.99271 15.9707L7.35851 17.3065Z"/>
</svg>
