<svg width="61" height="60" viewBox="0 0 61 60" fill="none" xmlns="http://www.w3.org/2000/svg">
<rect x="7.25" y="41.3793" width="45.5172" height="17.5862" fill="#FFE700"/>
<path d="M23.0024 44.4387L21.0079 48.6811H20.8662L19.0279 44.4387H17.0903L19.9041 49.7983L17.26 54.8621H19.2255L21.0079 50.93H21.1496L22.8038 54.8621H24.7703L22.1252 49.7983L24.94 44.4387H23.0024Z" fill="#323640"/>
<path d="M29.0126 44.4387H27.2871V54.8621H33.8075V53.5752H29.0126V44.4387Z" fill="#323640"/>
<path d="M40.2917 49.7559C39.9668 49.5201 39.6151 49.3194 39.2375 49.1549C38.8599 48.9904 38.5113 48.8208 38.1906 48.6459C37.8699 48.4711 37.601 48.2694 37.3848 48.0377C37.1675 47.8059 37.0599 47.5018 37.0599 47.1252C37.0599 46.9742 37.0972 46.8159 37.1727 46.6515C37.2482 46.487 37.3517 46.338 37.4841 46.2056C37.6155 46.0732 37.7665 45.9635 37.9372 45.8735C38.1079 45.7835 38.2858 45.7297 38.4751 45.7111C38.8144 45.6832 39.0927 45.678 39.3099 45.6966C39.5261 45.7163 39.701 45.7484 39.8334 45.7959C39.9648 45.8435 40.0672 45.8901 40.1375 45.9377C40.2079 45.9852 40.272 46.0225 40.3289 46.0504C40.3382 46.0411 40.3661 45.9935 40.4137 45.9087C40.4603 45.8239 40.5172 45.7173 40.5834 45.5901C40.6486 45.4628 40.7199 45.3263 40.7955 45.1804C40.871 45.0335 40.9372 44.9001 40.993 44.777C40.7189 44.598 40.361 44.4677 39.9182 44.388C39.4744 44.3084 39.0358 44.268 38.6034 44.268C38.1792 44.268 37.7758 44.3332 37.3941 44.4656C37.0124 44.598 36.6772 44.7894 36.3896 45.0387C36.102 45.288 35.8734 45.5921 35.7037 45.9511C35.5341 46.3101 35.4492 46.7197 35.4492 47.1811C35.4492 47.6901 35.5568 48.1142 35.7741 48.4535C35.9903 48.7928 36.2644 49.0877 36.5944 49.337C36.9244 49.5863 37.2782 49.8035 37.6548 49.9877C38.0313 50.1718 38.383 50.3549 38.7089 50.539C39.0348 50.7232 39.3048 50.928 39.522 51.1546C39.7382 51.3811 39.8468 51.6542 39.8468 51.9749C39.8468 52.5035 39.6937 52.9018 39.3875 53.1697C39.0813 53.4387 38.6396 53.5732 38.0655 53.5732C37.8761 53.5732 37.6744 53.5535 37.4572 53.5163C37.2399 53.479 37.0237 53.4294 36.8065 53.3673C36.5892 53.3052 36.3793 53.2401 36.1775 53.1697C35.9748 53.0994 35.8072 53.0259 35.6758 52.9504L35.3789 54.167C35.5393 54.3087 35.7296 54.4287 35.952 54.528C36.1734 54.6273 36.4061 54.7049 36.6524 54.7618C36.8975 54.8187 37.1406 54.859 37.3806 54.8818C37.6206 54.9046 37.8544 54.917 38.081 54.917C38.6086 54.917 39.0803 54.8373 39.4951 54.677C39.9099 54.5166 40.2586 54.3025 40.542 54.0335C40.8255 53.7646 41.0437 53.4532 41.1999 53.1004C41.3561 52.7477 41.4337 52.3815 41.4337 52.0039C41.4337 51.4473 41.3251 50.9921 41.1089 50.6394C40.8886 50.2866 40.6175 49.9918 40.2917 49.7559Z" fill="#323640"/>
<path d="M25.3537 13.4483H12.9399V17.5862V19.6552V21.7242V23.7931V25.8621V27.9311V30V32.069V36.2069H23.2848H25.3537H47.0779V32.069V30V27.9311V25.8621V23.7931V21.7242V17.5862H25.3537V13.4483ZM15.0089 19.6552H23.2848V21.7242H15.0089V19.6552ZM15.0089 23.7931H23.2848V25.8621H15.0089V23.7931ZM15.0089 27.9311H23.2848V30H15.0089V27.9311ZM23.2848 34.138H15.0089V32.069H23.2848V34.138ZM45.0089 34.138H25.3537V32.069H45.0089V34.138ZM45.0089 30H25.3537V27.9311H45.0089V30ZM45.0089 25.8621H25.3537V23.7931H45.0089V25.8621ZM45.0089 19.6552V21.7242H25.3537V19.6552H45.0089ZM15.0089 17.5862V15.5173H23.2848V17.5862H15.0089Z" fill="#323640"/>
<path fill-rule="evenodd" clip-rule="evenodd" d="M51.9181 11.8097L52.7157 12.6072C53.1895 13.081 53.2846 13.6666 53.2846 14.46V40.3448V57.4521V57.931C53.2846 58.7969 52.4136 59.641 51.3833 59.9069C51.3629 59.9122 51.343 59.9184 51.3229 59.9247C51.2919 59.9343 51.2608 59.9441 51.2281 59.9503C51.0667 59.9824 50.9022 60 50.7367 60H9.28084C9.11532 60 8.95084 59.9824 8.78946 59.9503C8.75679 59.9441 8.72565 59.9343 8.69464 59.9247C8.67459 59.9184 8.6546 59.9122 8.63429 59.9069C7.60395 59.641 6.73291 58.7969 6.73291 57.931V57.4521V40.3448V3.0269C6.73291 0.947586 8.05394 0 9.28084 0H39.3036C39.8157 0 40.3164 0.207931 40.6774 0.568965L41.475 1.36655L51.9181 11.8097ZM40.8708 12.4138H49.5967L40.8708 3.68793V12.4138ZM9.09251 57.8864C9.15239 57.9085 9.21358 57.931 9.28084 57.931H50.7367C50.804 57.931 50.8652 57.9085 50.925 57.8864C50.9305 57.8844 50.936 57.8824 50.9415 57.8803C51.1029 57.8028 51.2157 57.6424 51.2157 57.4521V42.4138H51.2116V40.3448H51.2157V14.46C51.2157 14.4522 51.2154 14.4468 51.2152 14.4414C51.2149 14.4359 51.2146 14.4305 51.2146 14.4228C51.0843 14.4569 50.9508 14.4828 50.8112 14.4828H38.8019V2.47345C38.8019 2.33379 38.8277 2.19931 38.8619 2.06897H9.28084C8.83601 2.06897 8.80188 2.80241 8.80188 3.0269V40.3448H8.80441V42.4138H8.80188V57.4521C8.80188 57.6424 8.91463 57.8038 9.07601 57.8803C9.08151 57.8824 9.087 57.8844 9.09251 57.8864Z" fill="#323640"/>
</svg>
