<svg xmlns="http://www.w3.org/2000/svg" width="20.32" height="20.322" viewBox="0 0 20.32 20.322">
  <g id="icon-phone-2" transform="translate(0.499)">
    <g>
      <path d="M15.076,57.347a1.389,1.389,0,0,0-2.1,0c-.491.487-.982.973-1.464,1.468a.289.289,0,0,1-.4.074c-.318-.173-.656-.313-.961-.5a15.228,15.228,0,0,1-3.671-3.341A8.7,8.7,0,0,1,5.16,52.938a.3.3,0,0,1,.074-.388c.491-.474.969-.961,1.452-1.448a1.394,1.394,0,0,0,0-2.149c-.384-.388-.767-.767-1.151-1.155S4.743,47,4.343,46.61a1.4,1.4,0,0,0-2.1,0c-.495.487-.969.986-1.473,1.464A2.39,2.39,0,0,0,.02,49.691a6.833,6.833,0,0,0,.528,2.941A17.871,17.871,0,0,0,3.72,57.916,19.629,19.629,0,0,0,10.221,63a9.4,9.4,0,0,0,3.6,1.048,2.639,2.639,0,0,0,2.264-.862c.421-.47.9-.9,1.341-1.349a1.4,1.4,0,0,0,.008-2.137Q16.259,58.521,15.076,57.347Z" transform="translate(-0.006 -44.234)" fill="none" stroke="currentColor" stroke-width="1"/>
      <path d="M242.325,101.865l1.522-.26A6.832,6.832,0,0,0,238.068,96l-.215,1.53a5.28,5.28,0,0,1,4.471,4.335Z" transform="translate(-228.043 -92.04)" fill="currentColor"/>
      <path d="M249.4,3.209A11.223,11.223,0,0,0,242.969,0l-.214,1.53a9.793,9.793,0,0,1,8.287,8.031l1.522-.26A11.305,11.305,0,0,0,249.4,3.209Z" transform="translate(-232.741)" fill="currentColor"/>
    </g>
  </g>
</svg>
