<svg xmlns="http://www.w3.org/2000/svg" width="23.002" height="23.003" viewBox="0 0 23.002 23.003"><g transform="translate(18 -0.001)"><g transform="translate(-18 0.001)"><g transform="translate(0 0)"><path d="M-14541.981,631a.384.384,0,0,1-.384-.384.384.384,0,0,1,.384-.384h2.682V623.72a.384.384,0,0,1,.384-.384.384.384,0,0,1,.384.384v6.9a.384.384,0,0,1-.384.384Zm-1.919-.384v-.384h-3.065v.384a.384.384,0,0,1-.384.384h-4.6a.384.384,0,0,1-.384-.384v-5.752a.384.384,0,0,1,.384-.384.384.384,0,0,1,.384.384v5.368h3.833v-.384a.384.384,0,0,1,.384-.384h3.833a.384.384,0,0,1,.384.384v.767a.384.384,0,0,1-.384.384A.384.384,0,0,1-14543.9,630.619Zm-15.986.27a.381.381,0,0,1,0-.541l22.235-22.235a.381.381,0,0,1,.54,0,.381.381,0,0,1,0,.541l-22.234,22.235a.371.371,0,0,1-.271.113A.371.371,0,0,1-14559.887,630.889Zm15.223-2.569V626.4h-.384a.384.384,0,0,1-.384-.384.384.384,0,0,1,.384-.384h.384V624.1h-1.534v4.22a.383.383,0,0,1-.384.38.383.383,0,0,1-.384-.38v-4.6a.384.384,0,0,1,.384-.384h2.3a.384.384,0,0,1,.384.384v4.6a.383.383,0,0,1-.384.38A.38.38,0,0,1-14544.664,628.32Zm-13.8-1.151V610.682a.383.383,0,0,1,.384-.38h2.683v-1.151a.384.384,0,0,1,.384-.384h2.682v-.384a.384.384,0,0,1,.384-.384h2.3a.384.384,0,0,1,.384.384v.384h2.683a.384.384,0,0,1,.384.384V610.3h2.682a.383.383,0,0,1,.384.38V612.6a.384.384,0,0,1-.384.384.384.384,0,0,1-.384-.384v-1.535h-9.581a.384.384,0,0,1-.384-.384.383.383,0,0,1,.384-.38h6.516v-.767h-2.683a.384.384,0,0,1-.384-.384v-.384h-1.534v.384a.384.384,0,0,1-.384.384h-2.682v1.147a.384.384,0,0,1-.384.384h-2.687v16.1a.38.38,0,0,1-.38.384A.384.384,0,0,1-14558.466,627.169Zm15.717,0a.384.384,0,0,1-.384-.384V623.72a.384.384,0,0,1,.384-.384h2.3a.384.384,0,0,1,.384.384v3.066a.384.384,0,0,1-.384.384Zm.384-.767h1.534v-2.3h-1.534Zm-8.05.767a.384.384,0,0,1-.384-.384V623.72a.384.384,0,0,1,.384-.384h2.3a.387.387,0,0,1,.388.384v3.066a.387.387,0,0,1-.388.384Zm.383-.767h1.535v-2.3h-1.535Zm-6.9-.767V612.217a.384.384,0,0,1,.384-.384h11.5a.384.384,0,0,1,.384.384v1.918a.384.384,0,0,1-.384.384.384.384,0,0,1-.384-.384V612.6h-1.534v2.3h.768a.382.382,0,0,1,.383.38.383.383,0,0,1-.383.384h-.768v.767a.384.384,0,0,1-.384.384.384.384,0,0,1-.384-.384v-.767h-1.531v2.3a.38.38,0,0,1,.38.384.38.38,0,0,1-.38.384.384.384,0,0,1-.384.384.384.384,0,0,1-.384-.384h-1.534v2.3a.384.384,0,0,1-.384.384.384.384,0,0,1-.384.384h-1.531v1.535a.384.384,0,0,1-.384.384.383.383,0,0,1-.383-.384V621.8h-1.535v2.3h.384a.384.384,0,0,1,.384.384.384.384,0,0,1-.384.384h-.384v.767a.384.384,0,0,1-.384.384A.384.384,0,0,1-14556.935,625.635Zm3.069-4.6h1.531v-2.3h-1.531Zm-2.3,0h1.535v-2.3h-1.535Zm4.6-3.066h1.534v-2.3h-1.534Zm-2.3,0h1.531v-2.3h-1.531Zm-2.3,0h1.535v-2.3h-1.535Zm6.9-3.066h1.531v-2.3h-1.531Zm-2.3,0h1.534v-2.3h-1.534Zm-2.3,0h1.531v-2.3h-1.531Zm-2.3,0h1.535v-2.3h-1.535Zm18.516,8.7-6.52-6.519a.382.382,0,0,1,0-.541.386.386,0,0,1,.545,0l5.861,5.861V617.2h-2.683a.384.384,0,0,1-.384-.384v-.384h-.767v.384a.384.384,0,0,1-.384.384.384.384,0,0,1-.384-.384v-.767a.384.384,0,0,1,.384-.384h1.534a.38.38,0,0,1,.38.384v.384h2.687a.383.383,0,0,1,.383.384v6.519a.384.384,0,0,1-.237.354.414.414,0,0,1-.146.029A.382.382,0,0,1-14537.651,623.607Z" transform="translate(14560 -608)"/></g></g></g></svg>
