<svg xmlns="http://www.w3.org/2000/svg" width="46" height="46" viewBox="0 0 46 46"><g><g><g><path fill="#fff" d="M0 23C0 10.297 10.297 0 23 0s23 10.297 23 23-10.297 23-23 23S0 35.703 0 23z"/></g><g><path fill="#dd483e" d="M30.296 28.067c-2.396 2.518-5.314 4.659-7.485 6.091-2.172-1.432-5.09-3.573-7.486-6.09-2.904-3.053-4.377-5.939-4.377-8.577a6.225 6.225 0 0 1 6.218-6.218c1.974 0 3.788.906 4.975 2.487l.67.892.67-.892a6.172 6.172 0 0 1 4.974-2.487 6.225 6.225 0 0 1 6.218 6.218c0 2.638-1.473 5.524-4.377 8.576zm-1.841-16.469c-1.262 0-2.469.29-3.586.86a7.954 7.954 0 0 0-2.058 1.517 7.955 7.955 0 0 0-2.059-1.517 7.808 7.808 0 0 0-3.586-.86c-4.352 0-7.893 3.54-7.893 7.893 0 3.082 1.628 6.356 4.84 9.73 2.68 2.818 5.962 5.167 8.243 6.64l.455.294.454-.293c2.281-1.474 5.563-3.823 8.244-6.64 3.21-3.375 4.839-6.649 4.839-9.731 0-4.352-3.541-7.893-7.893-7.893z"/></g></g></g></svg>
