<svg xmlns="http://www.w3.org/2000/svg" width="41.181" height="41.181" viewBox="0 0 41.181 41.181">
  <g transform="translate(0.5 0.5)">
    <circle cx="20.091" cy="20.091" r="20.091" fill="none" stroke="currentColor" stroke-miterlimit="10" stroke-width="1"/>
    <path d="M99.507,272.88H88.488a3.914,3.914,0,0,0-3.915,3.915V282.3a3.914,3.914,0,0,0,3.915,3.915H99.507a3.915,3.915,0,0,0,3.915-3.915V276.8A3.915,3.915,0,0,0,99.507,272.88Zm-2.647,6.937-5.154,2.458a.207.207,0,0,1-.3-.186v-5.07a.207.207,0,0,1,.3-.184l5.154,2.612A.207.207,0,0,1,96.86,279.817Z" transform="translate(-73.907 -259.238)" fill="currentColor"/>
  </g>
</svg>
