<svg width="20" height="22" viewBox="0 0 20 22" fill="none" xmlns="http://www.w3.org/2000/svg">
<path fill-rule="evenodd" clip-rule="evenodd" d="M10.6139 0.210648C10.2528 -0.0702159 9.74714 -0.0702159 9.38603 0.210648L0.386029 7.21065C0.142442 7.4001 -3.05176e-05 7.69141 -3.05176e-05 8V19C-3.05176e-05 19.7957 0.31604 20.5587 0.878649 21.1213C1.44126 21.6839 2.20432 22 2.99997 22H6.99997H13H17C17.7956 22 18.5587 21.6839 19.1213 21.1213C19.6839 20.5587 20 19.7957 20 19V8C20 7.69141 19.8575 7.4001 19.6139 7.21065L10.6139 0.210648ZM14 20H17C17.2652 20 17.5195 19.8946 17.7071 19.7071C17.8946 19.5196 18 19.2652 18 19V8.48908L9.99997 2.26686L1.99997 8.48908V19C1.99997 19.2652 2.10533 19.5196 2.29286 19.7071C2.4804 19.8946 2.73475 20 2.99997 20H5.99997V11C5.99997 10.4477 6.44768 10 6.99997 10H13C13.5523 10 14 10.4477 14 11V20ZM7.99997 20V12H12V20H7.99997Z" fill="currentColor" />
</svg>
