<svg xmlns="http://www.w3.org/2000/svg" fill="none" viewBox="0 0 24 24">
  <defs/>
  <path fill="currentColor" fill-rule="evenodd" d="M8 7.5h1.45c.28 0 .5.22.5.5v1.45a.5.5 0 01-.5.5H8a.5.5 0 01-.5-.5V8c0-.28.22-.5.5-.5zM6 8c0-1.1.9-2 2-2h1.45a2 2 0 012 2v1.45a2 2 0 01-2 2H8a2 2 0 01-2-2V8zm8.55-.5H16c.28 0 .5.22.5.5v1.45a.5.5 0 01-.5.5h-1.45a.5.5 0 01-.5-.5V8c0-.28.22-.5.5-.5zm-2 .5c0-1.1.9-2 2-2H16a2 2 0 012 2v1.45a2 2 0 01-2 2h-1.45a2 2 0 01-2-2V8zM16 14.05h-1.45a.5.5 0 00-.5.5V16c0 .28.22.5.5.5H16a.5.5 0 00.5-.5v-1.45a.5.5 0 00-.5-.5zm-1.45-1.5a2 2 0 00-2 2V16c0 1.1.9 2 2 2H16a2 2 0 002-2v-1.45a2 2 0 00-2-2h-1.45zM8 14.05h1.45c.28 0 .5.22.5.5V16a.5.5 0 01-.5.5H8a.5.5 0 01-.5-.5v-1.45c0-.28.22-.5.5-.5zm-2 .5c0-1.1.9-2 2-2h1.45a2 2 0 012 2V16a2 2 0 01-2 2H8a2 2 0 01-2-2v-1.45z" clip-rule="evenodd"/>
</svg>
