<svg width="120" height="70" viewBox="0 0 120 70" fill="none" xmlns="http://www.w3.org/2000/svg">
<path d="M93.9502 30.5L76.4502 19.5V69.5H93.9502V30.5Z" fill="#FFE700"/>
<path d="M75.95 19.6001L93.7999 30.4501V68.9501" stroke="#323640" stroke-width="2" stroke-linecap="round" stroke-linejoin="round" fill="#FFE700"/>
<path d="M31.9502 68.6513V1H75.9502V69" stroke="#323640" stroke-width="2" stroke-linecap="round" stroke-linejoin="round" fill="white"/>
<path d="M1 68.9501H118.55" stroke="#323640" stroke-width="2" stroke-linecap="round" stroke-linejoin="round"/>
<rect x="36.05" y="7.70007" width="5.25" height="7.91" stroke="#323640" stroke-width="2" stroke-linejoin="round" fill="white"/>
<rect x="36.05" y="23.8" width="5.25" height="7.91" stroke="#323640" stroke-width="2" stroke-linejoin="round" fill="white"/>
<rect x="36.05" y="39.2001" width="5.25" height="7.91" stroke="#323640" stroke-width="2" stroke-linejoin="round" fill="white"/>
<rect x="36.05" y="55.3" width="5.25" height="7.91" stroke="#323640" stroke-width="2" stroke-linejoin="round" fill="white"/>
<rect x="50.75" y="7.70007" width="5.25001" height="7.91" stroke="#323640" stroke-width="2" stroke-linejoin="round" fill="white"/>
<rect x="50.75" y="23.8" width="5.25001" height="7.91" stroke="#323640" stroke-width="2" stroke-linejoin="round" fill="white"/>
<rect x="50.75" y="39.2001" width="5.25001" height="7.91" stroke="#323640" stroke-width="2" stroke-linejoin="round" fill="white"/>
<rect x="65.45" y="7.70007" width="5.25" height="7.91" stroke="#323640" stroke-width="2" stroke-linejoin="round" fill="white"/>
<rect x="65.45" y="23.8" width="5.25" height="7.91" stroke="#323640" stroke-width="2" stroke-linejoin="round" fill="white"/>
<rect x="65.45" y="39.2001" width="5.25" height="7.91" stroke="#323640" stroke-width="2" stroke-linejoin="round" fill="white"/>
<rect x="65.45" y="55.3" width="5.25" height="7.91" stroke="#323640" stroke-width="2" stroke-linejoin="round" fill="white"/>
<path d="M47.25 68.9501V53.2001H58.8V68.9501" stroke="#323640" stroke-width="2" stroke-linecap="round" stroke-linejoin="round" fill="white"/>
<path d="M80.1501 35H80.5025" stroke="white" stroke-width="2" stroke-linecap="round" stroke-linejoin="round"/>
<path d="M80.1501 35H80.5025" stroke="white" stroke-width="2" stroke-linecap="round" stroke-linejoin="round"/>
<path d="M80.1501 42H80.5025" stroke="white" stroke-width="2" stroke-linecap="round" stroke-linejoin="round"/>
<path d="M80.1501 49H80.5025" stroke="white" stroke-width="2" stroke-linecap="round" stroke-linejoin="round"/>
<path d="M80.1501 56H80.5025" stroke="white" stroke-width="2" stroke-linecap="round" stroke-linejoin="round"/>
<path d="M80.1501 62.3H80.5025" stroke="white" stroke-width="2" stroke-linecap="round" stroke-linejoin="round"/>
<path d="M86 35H86.3523" stroke="white" stroke-width="2" stroke-linecap="round" stroke-linejoin="round"/>
<path d="M86 42H86.3523" stroke="white" stroke-width="2" stroke-linecap="round" stroke-linejoin="round"/>
<path d="M86 49H86.3523" stroke="white" stroke-width="2" stroke-linecap="round" stroke-linejoin="round"/>
<path d="M86 56H86.3523" stroke="white" stroke-width="2" stroke-linecap="round" stroke-linejoin="round"/>
<path d="M86 62.3H86.3523" stroke="white" stroke-width="2" stroke-linecap="round" stroke-linejoin="round"/>
<g clip-path="url(#clip0)">
<path d="M28.1509 68.3007H22.147V63.1464H28.1509C28.47 63.1464 28.7621 62.9676 28.9073 62.6835C29.0526 62.3994 29.0264 62.0579 28.8395 61.7992L24.9015 56.3496H26.395C26.7083 56.3496 26.9962 56.1771 27.1441 55.9009C27.2919 55.6246 27.2758 55.2894 27.1019 55.0287L23.4512 49.5527H24.6958C25.017 49.5527 25.3107 49.3716 25.4549 49.0846C25.5991 48.7976 25.5692 48.4538 25.3775 48.1961L20.2799 41.3426C20.1195 41.127 19.8667 41 19.5981 41C19.3296 41 19.0768 41.127 18.9164 41.3426L14.5005 47.2796L10.0846 41.3426C9.92428 41.127 9.67144 41 9.40285 41C9.13426 41 8.88141 41.127 8.72112 41.3426L3.62348 48.1961C3.43175 48.4538 3.40178 48.7976 3.54605 49.0846C3.69025 49.3716 3.98399 49.5527 4.3052 49.5527H5.54976L1.89906 55.0287C1.72528 55.2894 1.70908 55.6246 1.85691 55.9009C2.00475 56.1771 2.29265 56.3496 2.60599 56.3496H4.09948L0.161494 61.7992C-0.0254194 62.0578 -0.051644 62.3994 0.0935823 62.6835C0.238865 62.9676 0.531017 63.1464 0.85013 63.1464H6.85402V68.3007H0.85013C0.38092 68.3007 0.000521902 68.6811 0.000521902 69.1503C0.000521902 69.6195 0.38092 69.9999 0.85013 69.9999C1.69498 69.9999 27.7194 69.9999 28.1509 69.9999C28.6201 69.9999 29.0005 69.6195 29.0005 69.1503C29.0005 68.6811 28.6201 68.3007 28.1509 68.3007ZM15.7451 49.5527L14.5005 51.4195L13.2559 49.5527C14.0475 49.5527 14.9535 49.5527 15.7451 49.5527ZM2.5123 61.4472L6.45023 55.9976C6.63715 55.739 6.66337 55.3975 6.51815 55.1133C6.37292 54.8292 6.08071 54.6504 5.76165 54.6504H4.19351L7.84421 49.1744C8.01799 48.9136 8.03419 48.5784 7.88635 48.3022C7.73852 48.026 7.45062 47.8535 7.13728 47.8535H5.99603L9.40285 43.2732L12.8097 47.8535H11.6685C11.3551 47.8535 11.0672 48.026 10.9194 48.3022C10.7716 48.5784 10.7878 48.9136 10.9615 49.1744L13.7891 53.4157C13.7907 53.4181 13.7924 53.4205 13.794 53.423L14.6122 54.6504H13.044C12.7258 54.6504 12.4342 54.8282 12.2886 55.1112C12.143 55.3942 12.1678 55.7348 12.3527 55.9938L16.248 61.4472C11.9239 61.4472 6.84457 61.4472 2.5123 61.4472ZM10.2525 68.3007H8.55324V63.1464H10.2525V68.3007ZM17.0493 68.3007H11.9517V63.1464H17.0493V68.3007ZM14.695 56.3496H16.1997C16.513 56.3496 16.8009 56.1771 16.9488 55.9009C17.0966 55.6246 17.0805 55.2894 16.9066 55.0287L15.5216 52.9512L18.0395 49.1744C18.2133 48.9137 18.2295 48.5785 18.0817 48.3023C17.9339 48.026 17.646 47.8536 17.3326 47.8536H16.1913L19.5981 43.2732L23.005 47.8535H21.8637C21.5504 47.8535 21.2625 48.026 21.1146 48.3022C20.9668 48.5784 20.983 48.9136 21.1568 49.1744L24.8075 54.6504H23.2393C22.9202 54.6504 22.6281 54.8292 22.4828 55.1133C22.3377 55.3975 22.3638 55.7389 22.5507 55.9976L26.4887 61.4472C25.9183 61.4472 19.6253 61.4472 18.3361 61.4472L14.695 56.3496ZM20.4477 68.3007H18.7485V63.1464H20.4477V68.3007Z" fill="#323640"/>
</g>
<path d="M100.976 64.5581H104.283H107.921C108.692 64.5581 110.368 64.029 110.897 61.9126C111.426 59.7962 109.794 58.8262 108.913 58.6057C109.971 56.2248 108.472 54.7478 107.59 54.3068C107.369 53.2046 107.099 51 104.283 51C100.976 51 101.307 54.3068 100.976 54.3068C100.645 54.3068 99.6534 54.9682 99.3227 55.9603C99.0714 56.7143 99.3227 57.6137 99.6534 58.6057C98.9921 58.9364 98 59.9285 98 61.2512C98 63.3676 99.9841 64.3376 100.976 64.5581Z" stroke="#323640" stroke-width="1.3" stroke-linecap="round" stroke-linejoin="round" fill="white"/>
<path d="M104.283 53.9761V67.5342" stroke="#323640" stroke-width="1.3" stroke-linecap="round" stroke-linejoin="round"/>
<path d="M106.598 57.9443L104.283 60.5898" stroke="#323640" stroke-width="1.3" stroke-linecap="round" stroke-linejoin="round"/>
<path d="M101.968 55.9603L103.952 57.9444" stroke="#323640" stroke-width="1.3" stroke-linecap="round" stroke-linejoin="round"/>
<path d="M102.299 60.2591L104.283 62.2432" stroke="#323640" stroke-width="1.3" stroke-linecap="round" stroke-linejoin="round"/>
<defs>
<clipPath id="clip0">
<rect width="29" height="29" fill="white" transform="translate(0 41)"/>
</clipPath>
</defs>
</svg>
