<svg width="24" height="24" viewBox="0 0 24 24" fill="none" xmlns="http://www.w3.org/2000/svg">
  <g clip-path="url(#clip0)">
    <path d="M23.6108 10.8703C22.2638 9.14325 20.5191 7.71473 18.5653 6.73926C16.5708 5.7435 14.4252 5.22685 12.1854 5.19975C12.1237 5.19806 11.876 5.19806 11.8143 5.19975C9.57457 5.22689 7.42892 5.7435 5.43449 6.73926C3.48069 7.71473 1.73605 9.1432 0.389057 10.8703C-0.129848 11.5356 -0.129848 12.4648 0.389057 13.1301C1.73601 14.8572 3.48069 16.2857 5.43449 17.2611C7.42892 18.2569 9.57452 18.7736 11.8143 18.8006C11.876 18.8023 12.1237 18.8023 12.1854 18.8006C14.4252 18.7735 16.5708 18.2569 18.5653 17.2611C20.5191 16.2857 22.2638 14.8572 23.6108 13.1301C24.1297 12.4648 24.1297 11.5356 23.6108 10.8703ZM5.87066 16.3876C4.04629 15.4767 2.41701 14.1427 1.15893 12.5297C0.91579 12.2179 0.91579 11.7825 1.15893 11.4707C2.41696 9.85771 4.04624 8.52365 5.87066 7.61278C6.38881 7.35412 6.91794 7.13044 7.45686 6.94106C6.07039 8.18737 5.19688 9.99356 5.19688 12.0002C5.19688 14.0069 6.07044 15.8132 7.45704 17.0595C6.91812 16.8701 6.38886 16.6463 5.87066 16.3876ZM11.9999 17.8269C8.78703 17.8269 6.17319 15.213 6.17319 12.0001C6.17319 8.78723 8.78703 6.17344 11.9999 6.17344C15.2128 6.17344 17.8267 8.78728 17.8267 12.0002C17.8267 15.2131 15.2128 17.8269 11.9999 17.8269ZM22.8409 12.5296C21.5829 14.1426 19.9536 15.4767 18.1292 16.3876C17.6117 16.646 17.0829 16.8687 16.5446 17.0578C17.9301 15.8116 18.803 14.006 18.803 12.0001C18.803 9.99323 17.9292 8.18681 16.5425 6.9405C17.0816 7.12992 17.6109 7.35389 18.1292 7.61268C19.9536 8.52356 21.5829 9.85762 22.841 11.4706C23.0841 11.7824 23.0841 12.2179 22.8409 12.5296Z" fill="currentColor"/>
    <path d="M11.9997 9.50653C10.6248 9.50653 9.50623 10.6251 9.50623 12C9.50623 13.375 10.6248 14.4936 11.9997 14.4936C13.3747 14.4936 14.4932 13.375 14.4932 12C14.4933 10.6251 13.3747 9.50653 11.9997 9.50653ZM11.9997 13.5173C11.1632 13.5173 10.4825 12.8367 10.4825 12C10.4825 11.1634 11.1631 10.4828 11.9997 10.4828C12.8363 10.4828 13.5169 11.1634 13.5169 12C13.517 12.8367 12.8363 13.5173 11.9997 13.5173Z" fill="currentColor"/>
  </g>
  <defs>
    <clipPath id="clip0">
      <rect width="24" height="24" fill="currentColor"/>
    </clipPath>
  </defs>
</svg>
