<svg xmlns="http://www.w3.org/2000/svg" width="36.679" height="36.679" viewBox="0 0 36.679 36.679">
  <g id="viber" transform="translate(204 -1)">
    <rect id="rectangle_188" data-name="rectangle 188" width="36.679" height="36.679" rx="2" transform="translate(-204 1)" fill="#7d3daf"/>
    <g id="group_90" data-name="group 90" transform="translate(-197.893 7.09)">
      <path id="contour_191" data-name="contour 191" d="M101.029,78.027,101.022,78A8.479,8.479,0,0,0,95.3,72.49l-.028-.006a31.811,31.811,0,0,0-11.974,0l-.029.006A8.482,8.482,0,0,0,77.543,78l-.007.029a23.436,23.436,0,0,0,0,10.1l.007.029a8.551,8.551,0,0,0,5.409,5.427v2.677A1.076,1.076,0,0,0,84.8,97l2.713-2.82c.588.033,1.177.051,1.766.051a31.913,31.913,0,0,0,5.987-.568l.028-.006a8.479,8.479,0,0,0,5.724-5.508l.007-.029A23.436,23.436,0,0,0,101.029,78.027Zm-2.147,9.61a6.413,6.413,0,0,1-4.041,3.87,29.65,29.65,0,0,1-6.369.514.151.151,0,0,0-.112.046L86.38,94.1l-2.107,2.162a.247.247,0,0,1-.425-.17V91.657a.153.153,0,0,0-.124-.15h0a6.415,6.415,0,0,1-4.041-3.87,21.268,21.268,0,0,1,0-9.125,6.415,6.415,0,0,1,4.041-3.87,29.628,29.628,0,0,1,11.119,0,6.411,6.411,0,0,1,4.041,3.87A21.245,21.245,0,0,1,98.882,87.637Z" transform="translate(-76.986 -71.916)" fill="#fff"/>
      <path id="contour_192" data-name="contour 192" d="M159.224,152.245c-.248-.075-.485-.126-.7-.217A16,16,0,0,1,152.492,148a15.642,15.642,0,0,1-2.305-3.528c-.3-.6-.545-1.226-.8-1.847a1.6,1.6,0,0,1,.469-1.578,3.705,3.705,0,0,1,1.241-.933.8.8,0,0,1,1,.236,12.855,12.855,0,0,1,1.542,2.158,1.027,1.027,0,0,1-.288,1.392c-.117.079-.223.172-.332.262a1.088,1.088,0,0,0-.25.264.723.723,0,0,0-.048.635,5.748,5.748,0,0,0,3.228,3.574,1.643,1.643,0,0,0,.827.2c.506-.059.669-.614,1.024-.9a.965.965,0,0,1,1.162-.051c.373.236.735.49,1.095.746a12.531,12.531,0,0,1,1.03.784.817.817,0,0,1,.245,1.012,3.42,3.42,0,0,1-1.47,1.619,3.546,3.546,0,0,1-.635.2C158.976,152.17,159.44,152.179,159.224,152.245Z" transform="translate(-143.417 -134.476)" fill="#fff"/>
      <path id="contour_193" data-name="contour 193" d="M221.9,131.457a6.046,6.046,0,0,1,5.944,5c.089.5.121,1.014.161,1.523a.357.357,0,0,1-.335.42c-.239,0-.346-.2-.361-.411-.031-.424-.052-.849-.11-1.269a5.317,5.317,0,0,0-4.282-4.444c-.332-.059-.672-.075-1.008-.11-.213-.022-.491-.035-.538-.3a.363.363,0,0,1,.359-.409c.057,0,.115,0,.173,0C224.871,131.54,221.838,131.457,221.9,131.457Z" transform="translate(-209.593 -126.603)" fill="#fff"/>
      <path id="contour_194" data-name="contour 194" d="M232.578,155.245a1.358,1.358,0,0,1-.029.207.338.338,0,0,1-.636.035.9.9,0,0,1-.036-.288,3.605,3.605,0,0,0-.456-1.808,3.365,3.365,0,0,0-1.411-1.324,4.059,4.059,0,0,0-1.125-.345c-.17-.028-.341-.045-.511-.069a.324.324,0,0,1-.307-.364.32.32,0,0,1,.356-.316,4.678,4.678,0,0,1,1.95.508,3.943,3.943,0,0,1,2.146,3.064c.009.062.024.124.029.187.012.155.019.31.031.514C232.573,155.282,232.566,155.041,232.578,155.245Z" transform="translate(-215.753 -144.528)" fill="#fff"/>
      <path id="contour_195" data-name="contour 195" d="M235.822,173.547a.368.368,0,0,1-.408-.362,3.741,3.741,0,0,0-.07-.475,1.338,1.338,0,0,0-.493-.775,1.288,1.288,0,0,0-.4-.194c-.183-.053-.372-.038-.555-.083a.34.34,0,0,1-.276-.394.358.358,0,0,1,.377-.287,2.046,2.046,0,0,1,2.1,2.038.944.944,0,0,1,0,.289.3.3,0,0,1-.266.243C235.573,173.551,235.935,173.539,235.822,173.547Z" transform="translate(-220.848 -162.902)" fill="#fff"/>
    </g>
  </g>
</svg>
