<svg width="17" height="9" viewBox="0 0 17 9" fill="none"
  xmlns="http://www.w3.org/2000/svg">
  <path d="M16.0609 5.29073L16.0609 5.29071C15.6246 4.02952 14.589 2.93198 13.24 2.1509C11.8902 1.3693 10.2195 0.9 8.5 0.9C6.78051 0.9 5.10977 1.3693 3.75996 2.1509C2.41105 2.93198 1.37537 4.02952 0.939083 5.29071L1.03353 5.32338L0.939083 5.29071C0.811189 5.66043 1.00728 6.06373 1.37679 6.19162L1.37685 6.19164C1.7471 6.31951 2.14983 6.12322 2.27771 5.75393L2.27772 5.7539C2.67278 4.61187 3.75602 3.62245 5.17782 3.00101C4.94816 3.4802 4.81765 4.01584 4.81765 4.58201C4.81765 6.61237 6.46946 8.26419 8.49983 8.26419C10.5302 8.26419 12.182 6.61237 12.182 4.58201C12.182 4.0157 12.0515 3.48016 11.8218 3.00102C13.2436 3.62246 14.3269 4.61187 14.7219 5.7539L14.7219 5.75393C14.8234 6.04689 15.0977 6.23066 15.3913 6.23066C15.4683 6.23066 15.5465 6.21787 15.6228 6.19171L15.623 6.19164C15.9927 6.06393 16.1888 5.66059 16.0609 5.29073ZM10.7656 4.58218C10.7656 5.83143 9.74925 6.84783 8.5 6.84783C7.25075 6.84783 6.23436 5.83143 6.23436 4.58218C6.23436 3.33293 7.25075 2.31654 8.5 2.31654C9.74925 2.31654 10.7656 3.33293 10.7656 4.58218Z" fill="#6B5B73" stroke="#6B5B73" stroke-width="0.2"/>
</svg>
