<svg width="61" height="60" viewBox="0 0 61 60" fill="none" xmlns="http://www.w3.org/2000/svg">
<rect x="8.00854" y="41" width="44" height="18" fill="#FFE700"/>
<path d="M24.0449 45.9655C23.6063 45.5041 23.0549 45.1327 22.3897 44.8555C21.7245 44.5783 20.9538 44.4386 20.0776 44.4386H16.938V54.862H20.8835C21.0149 54.862 21.2176 54.8455 21.4918 54.8124C21.7649 54.7793 22.067 54.7048 22.397 54.5858C22.727 54.4679 23.0683 54.291 23.4221 54.0552C23.7759 53.8193 24.0935 53.4965 24.377 53.0858C24.6604 52.6751 24.8932 52.1662 25.0773 51.5579C25.2614 50.9496 25.3535 50.2162 25.3535 49.3586C25.3535 48.7358 25.2449 48.1296 25.0287 47.541C24.8114 46.9534 24.4835 46.4279 24.0449 45.9655ZM22.8076 52.5138C22.2987 53.2493 21.469 53.6165 20.3187 53.6165H18.6356V45.7245H19.6256C20.4366 45.7245 21.0966 45.831 21.6056 46.0431C22.1145 46.2551 22.518 46.5334 22.8149 46.8779C23.1118 47.2224 23.3114 47.6062 23.4159 48.0303C23.5194 48.4545 23.5711 48.8838 23.5711 49.3172C23.5711 50.7127 23.3166 51.7793 22.8076 52.5138Z" fill="#323640"/>
<path d="M34.4207 45.6262C34.0297 45.1824 33.5725 44.8462 33.049 44.6145C32.5256 44.3828 31.9525 44.2679 31.3307 44.2679C30.709 44.2679 30.1359 44.3828 29.6125 44.6145C29.089 44.8462 28.6318 45.1824 28.2407 45.6262C27.8497 46.07 27.5425 46.6235 27.3211 47.2876C27.0997 47.9528 26.989 48.7235 26.989 49.5997C26.989 50.4759 27.0997 51.2497 27.3211 51.919C27.5425 52.5883 27.8487 53.1448 28.2407 53.5876C28.6318 54.0314 29.089 54.3655 29.6125 54.5921C30.1359 54.8186 30.709 54.9314 31.3307 54.9314C31.9525 54.9314 32.5256 54.8186 33.049 54.5921C33.5725 54.3655 34.0297 54.0314 34.4207 53.5876C34.8118 53.1438 35.118 52.5883 35.3404 51.919C35.5618 51.2497 35.6725 50.4759 35.6725 49.5997C35.6725 48.7235 35.5618 47.9517 35.3404 47.2876C35.118 46.6235 34.8118 46.07 34.4207 45.6262ZM33.7204 51.4462C33.5787 51.95 33.3832 52.3586 33.1338 52.67C32.8835 52.9814 32.6011 53.2059 32.2856 53.3414C31.969 53.4779 31.6369 53.5462 31.2883 53.5462C30.949 53.5462 30.6252 53.4738 30.319 53.3269C30.0128 53.18 29.7387 52.9504 29.4987 52.6338C29.2587 52.3173 29.0694 51.9107 28.9328 51.41C28.7963 50.9104 28.7228 50.3073 28.7135 49.5997C28.7228 48.8735 28.7983 48.2611 28.94 47.7614C29.0818 47.2617 29.2773 46.8542 29.5266 46.5376C29.7759 46.221 30.0594 45.9986 30.3749 45.8662C30.6904 45.7338 31.0225 45.6686 31.3721 45.6686C31.7114 45.6686 32.0342 45.739 32.3414 45.8807C32.6476 46.0224 32.9218 46.2531 33.1618 46.5738C33.4018 46.8945 33.5911 47.3021 33.7276 47.7976C33.8642 48.2931 33.9376 48.8942 33.9469 49.6007C33.9366 50.3269 33.8621 50.9424 33.7204 51.4462Z" fill="#323640"/>
<path d="M40.4175 46.5386C40.6668 46.2221 40.9502 45.9997 41.2657 45.8673C41.5813 45.7348 41.9133 45.6697 42.263 45.6697C42.5744 45.6697 42.8733 45.7317 43.1609 45.8538C43.4485 45.9759 43.7102 46.1745 43.9461 46.4476L45.1202 45.4007C44.7333 45.0242 44.2947 44.7407 43.8054 44.5524C43.3151 44.3631 42.7875 44.27 42.2216 44.27C41.6082 44.27 41.0382 44.3848 40.5106 44.6166C39.982 44.8483 39.5226 45.1845 39.1316 45.6283C38.7406 46.0721 38.4333 46.6255 38.212 47.2897C37.9906 47.9548 37.8799 48.7255 37.8799 49.6017C37.8799 50.4779 37.9906 51.2517 38.212 51.921C38.4333 52.5904 38.7395 53.1469 39.1316 53.5897C39.5226 54.0335 39.9799 54.3676 40.5033 54.5942C41.0268 54.8207 41.5999 54.9335 42.2216 54.9335C42.7875 54.9335 43.3151 54.8393 43.8054 54.651C44.2957 54.4617 44.7333 54.1793 45.1202 53.8028L43.9461 52.7704C43.7009 53.0445 43.4299 53.2421 43.133 53.3641C42.8361 53.4862 42.5175 53.5483 42.1782 53.5483C41.8388 53.5483 41.5151 53.4759 41.2088 53.329C40.9026 53.1821 40.6285 52.9524 40.3885 52.6359C40.1485 52.3193 39.9592 51.9128 39.8226 51.4121C39.6861 50.9124 39.6126 50.3093 39.6033 49.6017C39.6126 48.8755 39.6882 48.2631 39.8299 47.7635C39.9716 47.2638 40.1671 46.8552 40.4175 46.5386Z" fill="#323640"/>
<path d="M13.9742 14.4828H20.1811C20.7521 14.4828 21.2156 14.0193 21.2156 13.4483C21.2156 12.8773 20.7521 12.4138 20.1811 12.4138H13.9742C13.4031 12.4138 12.9397 12.8773 12.9397 13.4483C12.9397 14.0193 13.4031 14.4828 13.9742 14.4828Z" fill="#323640"/>
<path d="M13.9742 19.6552H23.2845C23.8556 19.6552 24.319 19.1918 24.319 18.6207C24.319 18.0497 23.8556 17.5862 23.2845 17.5862H13.9742C13.4031 17.5862 12.9397 18.0497 12.9397 18.6207C12.9397 19.1918 13.4031 19.6552 13.9742 19.6552Z" fill="#323640"/>
<path d="M27.4224 19.6552C27.6914 19.6552 27.9604 19.5414 28.1569 19.3552C28.3431 19.1587 28.4569 18.8897 28.4569 18.6207C28.4569 18.3518 28.3431 18.0828 28.1569 17.8863C27.7741 17.5035 27.0707 17.5035 26.6879 17.8863C26.5017 18.0828 26.3879 18.3518 26.3879 18.6207C26.3879 18.8897 26.5017 19.1587 26.6879 19.3552C26.8845 19.5414 27.1535 19.6552 27.4224 19.6552Z" fill="#323640"/>
<path d="M31.5604 19.6552H39.8362C40.4073 19.6552 40.8707 19.1918 40.8707 18.6207C40.8707 18.0497 40.4073 17.5862 39.8362 17.5862H31.5604C30.9893 17.5862 30.5259 18.0497 30.5259 18.6207C30.5259 19.1918 30.9893 19.6552 31.5604 19.6552Z" fill="#323640"/>
<path d="M13.2397 33.4035C13.0535 33.6 12.9397 33.869 12.9397 34.1379C12.9397 34.4069 13.0535 34.6759 13.2397 34.8724C13.4362 35.0586 13.7052 35.1724 13.9742 35.1724C14.2431 35.1724 14.5121 35.0586 14.7087 34.8724C14.8949 34.6759 15.0087 34.4069 15.0087 34.1379C15.0087 33.8586 14.8949 33.6 14.7087 33.4035C14.3259 33.0207 13.6225 33.0207 13.2397 33.4035Z" fill="#323640"/>
<path d="M26.388 33.1035H18.1121C17.5411 33.1035 17.0776 33.5669 17.0776 34.1379C17.0776 34.709 17.5411 35.1724 18.1121 35.1724H26.388C26.959 35.1724 27.4225 34.709 27.4225 34.1379C27.4225 33.5669 26.959 33.1035 26.388 33.1035Z" fill="#323640"/>
<path d="M46.0431 17.5862H43.9742C43.4031 17.5862 42.9397 18.0497 42.9397 18.6207C42.9397 19.1918 43.4031 19.6552 43.9742 19.6552H46.0431C46.6142 19.6552 47.0776 19.1918 47.0776 18.6207C47.0776 18.0497 46.6142 17.5862 46.0431 17.5862Z" fill="#323640"/>
<path d="M13.9742 24.8276H36.7328C37.3038 24.8276 37.7673 24.3642 37.7673 23.7931C37.7673 23.2221 37.3038 22.7587 36.7328 22.7587H13.9742C13.4031 22.7587 12.9397 23.2221 12.9397 23.7931C12.9397 24.3642 13.4031 24.8276 13.9742 24.8276Z" fill="#323640"/>
<path d="M46.0431 22.7587H39.8362C39.2652 22.7587 38.8018 23.2221 38.8018 23.7931C38.8018 24.3642 39.2652 24.8276 39.8362 24.8276H46.0431C46.6142 24.8276 47.0776 24.3642 47.0776 23.7931C47.0776 23.2221 46.6142 22.7587 46.0431 22.7587Z" fill="#323640"/>
<path d="M13.9742 30H18.1121C18.6831 30 19.1466 29.5365 19.1466 28.9655C19.1466 28.3945 18.6831 27.931 18.1121 27.931H13.9742C13.4031 27.931 12.9397 28.3945 12.9397 28.9655C12.9397 29.5365 13.4031 30 13.9742 30Z" fill="#323640"/>
<path d="M32.5949 27.931H22.2501C21.679 27.931 21.2156 28.3945 21.2156 28.9655C21.2156 29.5365 21.679 30 22.2501 30H32.5949C33.1659 30 33.6294 29.5365 33.6294 28.9655C33.6294 28.3945 33.1659 27.931 32.5949 27.931Z" fill="#323640"/>
<path d="M46.0431 27.931H36.7327C36.1617 27.931 35.6982 28.3945 35.6982 28.9655C35.6982 29.5365 36.1617 30 36.7327 30H46.0431C46.6141 30 47.0776 29.5365 47.0776 28.9655C47.0776 28.3945 46.6141 27.931 46.0431 27.931Z" fill="#323640"/>
<path fill-rule="evenodd" clip-rule="evenodd" d="M51.9178 11.8097L52.7154 12.6072C53.1892 13.081 53.2844 13.6666 53.2844 14.46V40.3448V57.4521V57.931C53.2844 58.7969 52.4134 59.641 51.383 59.9069C51.3627 59.9122 51.3427 59.9184 51.3227 59.9247C51.2917 59.9343 51.2605 59.9441 51.2278 59.9503C51.0665 59.9824 50.902 60 50.7365 60H9.2806C9.11508 60 8.9506 59.9824 8.78922 59.9503C8.75654 59.9441 8.7254 59.9343 8.69439 59.9247C8.67434 59.9184 8.65435 59.9122 8.63405 59.9069C7.6037 59.641 6.73267 58.7969 6.73267 57.931V57.4521V40.3448V3.0269C6.73267 0.947586 8.0537 0 9.2806 0H39.3034C39.8154 0 40.3161 0.207931 40.6772 0.568965L41.4747 1.36655L51.9178 11.8097ZM40.8706 12.4138H49.5965L40.8706 3.68793V12.4138ZM9.09227 57.8864C9.15215 57.9085 9.21334 57.931 9.2806 57.931H50.7365C50.8037 57.931 50.8649 57.9085 50.9248 57.8864C50.9303 57.8844 50.9358 57.8824 50.9413 57.8803C51.1027 57.8028 51.2154 57.6424 51.2154 57.4521V42.4138H8.80163V57.4521C8.80163 57.6424 8.91439 57.8038 9.07577 57.8803C9.08126 57.8824 9.08676 57.8844 9.09227 57.8864ZM8.80163 3.0269V40.3448H8.80176V42.4137H51.2156V39.3103H51.2154V14.46C51.2154 14.4522 51.2152 14.4468 51.2149 14.4414C51.2147 14.4359 51.2144 14.4305 51.2144 14.4228C51.084 14.4569 50.9506 14.4828 50.8109 14.4828H38.8016V2.47345C38.8016 2.33379 38.8275 2.19931 38.8616 2.06897H9.2806C8.83577 2.06897 8.80163 2.80241 8.80163 3.0269Z" fill="#323640"/>
</svg>
