<svg width="24" height="7" viewBox="0 0 24 7" fill="none" xmlns="http://www.w3.org/2000/svg">
<path fill-rule="evenodd" clip-rule="evenodd" d="M6.46721 1.33164e-07V0.00305704L6.46718 0.00305701C6.46047 0.00304845 5.52926 0.00186135 5.28057 0.920086C5.05214 1.76375 4.40838 4.09301 4.39058 4.1572H4.21259C4.21259 4.1572 3.554 1.77598 3.3226 0.91703C3.07341 -0.00305652 2.13596 1.33164e-07 2.13596 1.33164e-07H0V6.99999H2.13596V2.84279H2.22496H2.31396L3.55993 6.99999H5.04324L6.28921 2.84585H6.46721V6.99999H8.60317V1.33164e-07H6.46721ZM14.2697 1.33164e-07C14.2697 1.33164e-07 13.6437 0.0580787 13.35 0.733624L11.837 4.1572H11.659V1.33164e-07H9.52309V6.99999H11.5404C11.5404 6.99999 12.196 6.93886 12.4897 6.26637L13.973 2.84279H14.151V6.99999H16.287V1.33164e-07H14.2697ZM17.2358 6.99997V3.17902H23.8662C23.5488 4.10522 22.6944 4.76854 21.6857 4.76854H19.3718V6.99997H17.2358Z" fill="#4DB45E"/>
<path fill-rule="evenodd" clip-rule="evenodd" d="M21.7068 0H17C17.2352 0.92766 18.1966 1.67234 19.4402 1.91489C19.7224 1.97021 20.0193 2 20.3251 2H23.953C23.9853 1.88936 24 1.7766 24 1.65957C24 0.742553 22.974 0 21.7068 0Z" fill="url(#paint0_linear)"/>
<defs>
<linearGradient id="paint0_linear" x1="17.0006" y1="1" x2="24" y2="1" gradientUnits="userSpaceOnUse">
<stop offset="0.3" stop-color="#00B4E6"/>
<stop offset="1" stop-color="#088CCB"/>
</linearGradient>
</defs>
</svg>
