<svg width="70" height="70" viewBox="0 0 70 70" fill="none" xmlns="http://www.w3.org/2000/svg">
  <path fill-rule="evenodd" clip-rule="evenodd" d="M21.8598 0.731729C22.2307 0.422691 22.7693 0.42269 23.1402 0.731729L24.8598 2.16476C25.2307 2.47379 25.7693 2.47379 26.1402 2.16476L27.8598 0.731729C28.2307 0.422691 28.7693 0.422691 29.1402 0.731729L30.9539 2.24316C31.3033 2.53434 31.8052 2.55304 32.1753 2.28867L34.4188 0.686217C34.7889 0.42185 35.2908 0.440551 35.6402 0.731729L37.4539 2.24316C37.8033 2.53434 38.3052 2.55304 38.6753 2.28867L40.9188 0.686217C41.2889 0.42185 41.7908 0.440552 42.1402 0.731729L43.8598 2.16476C44.2307 2.47379 44.7693 2.47379 45.1402 2.16476L46.8598 0.73173C47.2307 0.422691 47.7693 0.422691 48.1402 0.731729L49.8598 2.16476C50.2307 2.47379 50.7693 2.4738 51.1402 2.16476L52.8598 0.731729C53.2307 0.422691 53.7693 0.422691 54.1402 0.731729L57.5 3.53158V58.5H12V3.53158L15.3598 0.731729C15.7092 0.440552 16.2111 0.42185 16.5812 0.686217L18.8247 2.28867C19.1948 2.55304 19.6967 2.53434 20.0461 2.24316L21.8598 0.731729ZM16.6753 3.21123C16.3052 2.94686 15.8033 2.96556 15.4539 3.25674L14 4.46833V56.5H55.5V4.46832L54.1402 3.33514C53.7693 3.02611 53.2307 3.02611 52.8598 3.33514L51.1402 4.76817C50.7693 5.07721 50.2307 5.07721 49.8598 4.76817L48.1402 3.33514C47.7693 3.02611 47.2307 3.02611 46.8598 3.33514L45.1402 4.76817C44.7693 5.07721 44.2307 5.07721 43.8598 4.76817L42.0461 3.25674C41.6967 2.96556 41.1948 2.94686 40.8247 3.21123L38.5812 4.81368C38.2111 5.07805 37.7092 5.05935 37.3598 4.76817L35.5461 3.25674C35.1967 2.96556 34.6948 2.94686 34.3247 3.21123L32.0812 4.81368C31.7111 5.07805 31.2092 5.05935 30.8598 4.76817L28.5 2.80166L26.1402 4.76817C25.7693 5.07721 25.2307 5.07721 24.8598 4.76817L23.1402 3.33515C22.7693 3.02611 22.2307 3.02611 21.8598 3.33515L20.1402 4.76817C19.7908 5.05935 19.2889 5.07805 18.9188 4.81368L16.6753 3.21123Z" fill="currentColor"/>
  <path fill-rule="evenodd" clip-rule="evenodd" d="M37.7629 12.5352C38.2957 12.6806 38.6098 13.2303 38.4645 13.7631L36.9645 19.2631C36.8192 19.7959 36.2695 20.1101 35.7366 19.9648C35.2038 19.8195 34.8897 19.2697 35.035 18.7369L36.535 13.2369C36.6803 12.7041 37.2301 12.3899 37.7629 12.5352Z" fill="currentColor"/>
  <path fill-rule="evenodd" clip-rule="evenodd" d="M46.7071 17.7929C47.0976 18.1834 47.0976 18.8166 46.7071 19.2071L42.2071 23.7071C41.8166 24.0976 41.1834 24.0976 40.7929 23.7071C40.4024 23.3166 40.4024 22.6834 40.7929 22.2929L45.2929 17.7929C45.6834 17.4024 46.3166 17.4024 46.7071 17.7929Z" fill="currentColor"/>
  <path fill-rule="evenodd" clip-rule="evenodd" d="M52.4704 26.7575C52.6043 27.2933 52.2786 27.8362 51.7428 27.9701L45.7428 29.4701C45.207 29.6041 44.664 29.2783 44.5301 28.7425C44.3961 28.2067 44.7219 27.6638 45.2577 27.5298L51.2577 26.0298C51.7935 25.8959 52.3364 26.2217 52.4704 26.7575Z" fill="currentColor"/>
  <path fill-rule="evenodd" clip-rule="evenodd" d="M17.7929 41.2929C18.1834 40.9024 18.8166 40.9024 19.2071 41.2929L23.2071 45.2929C23.5976 45.6834 23.5976 46.3166 23.2071 46.7071C22.8166 47.0976 22.1834 47.0976 21.7929 46.7071L17.7929 42.7071C17.4024 42.3166 17.4024 41.6834 17.7929 41.2929Z" fill="currentColor"/>
  <path fill-rule="evenodd" clip-rule="evenodd" d="M31.082 18.6675L46.2991 33.8846L34.556 38.3582L33.0822 39.8321L36.699 43.2845L36.7073 43.2927C37.3836 43.969 37.7139 44.7852 37.674 45.6224C37.6351 46.439 37.2501 47.1641 36.7073 47.707C36.1644 48.2498 35.4393 48.6348 34.6227 48.6737C33.7875 48.7135 32.9733 48.3848 32.2979 47.7118L28.7044 44.2099L27.0002 45.9141L19.0859 37.9998L27.1317 29.9541L31.082 18.6675ZM30.1187 42.7955L33.7073 46.2927C34.031 46.6164 34.3148 46.6861 34.5276 46.676C34.761 46.6649 35.0359 46.5499 35.293 46.2927C35.5502 46.0356 35.6652 45.7607 35.6763 45.5273C35.6863 45.3162 35.6178 45.035 35.3004 44.7144L31.6676 41.2466L30.1187 42.7955ZM31.6351 38.4507L33.4443 36.6415L42.7012 33.1151L31.9183 22.3322L28.8686 31.0456L26.431 33.4832L31.6351 38.4507ZM25.0164 34.8978L30.2205 39.8653L27.0002 43.0856L21.9144 37.9998L25.0164 34.8978Z" fill="currentColor"/>
  <path fill-rule="evenodd" clip-rule="evenodd" d="M2 30C2 26.6863 4.68629 24 8 24H13C13.5523 24 14 24.4477 14 25C14 25.5523 13.5523 26 13 26H8C5.79086 26 4 27.7909 4 30V61.5C4 62.0523 3.55228 62.5 3 62.5C2.44772 62.5 2 62.0523 2 61.5V30Z" fill="currentColor"/>
  <path fill-rule="evenodd" clip-rule="evenodd" d="M68 30C68 26.6863 65.3137 24 62 24H57C56.4477 24 56 24.4477 56 25C56 25.5523 56.4477 26 57 26H62C64.2091 26 66 27.7909 66 30V61.5C66 62.0523 66.4477 62.5 67 62.5C67.5523 62.5 68 62.0523 68 61.5V30Z" fill="currentColor"/>
  <path fill-rule="evenodd" clip-rule="evenodd" d="M0 61H30.5V63H39.5V61H69.5V64C69.5 67.3137 66.8137 70 63.5 70H6C2.68629 70 0 67.3137 0 64V61ZM2 63V64C2 66.2091 3.79086 68 6 68H63.5C65.7091 68 67.5 66.2091 67.5 64V63H41.5C41.5 64.1046 40.6046 65 39.5 65H30.5C29.3954 65 28.5 64.1046 28.5 63H2Z" fill="currentColor"/>
</svg>
