<svg width="61" height="60" viewBox="0 0 61 60" fill="none" xmlns="http://www.w3.org/2000/svg">
<rect x="8.00854" y="41" width="44" height="17" fill="#FFE700"/>
<path fill-rule="evenodd" clip-rule="evenodd" d="M51.9176 11.8097L52.7152 12.6072C53.189 13.081 53.2842 13.6666 53.2842 14.46V40.3448V57.4521V57.931C53.2842 58.7969 52.4131 59.641 51.3828 59.9069C51.3625 59.9122 51.3425 59.9184 51.3224 59.9247C51.2914 59.9343 51.2603 59.9441 51.2276 59.9503C51.0662 59.9824 50.9017 60 50.7362 60H9.28035C9.11484 60 8.95035 59.9824 8.78897 59.9503C8.7563 59.9441 8.72516 59.9343 8.69415 59.9247C8.6741 59.9184 8.65411 59.9122 8.6338 59.9069C7.60346 59.641 6.73242 58.7969 6.73242 57.931V57.4521V40.3448V3.0269C6.73242 0.947586 8.05346 0 9.28035 0H39.3031C39.8152 0 40.3159 0.207931 40.6769 0.568965L41.4745 1.36655L51.9176 11.8097ZM40.8704 12.4138H49.5962L40.8704 3.68793V12.4138ZM9.09203 57.8864C9.15191 57.9085 9.21309 57.931 9.28035 57.931H50.7362C50.8035 57.931 50.8647 57.9085 50.9245 57.8864C50.9301 57.8844 50.9356 57.8824 50.9411 57.8803C51.1024 57.8028 51.2152 57.6424 51.2152 57.4521V42.4317H51.2156V40L51.2152 40V14.46C51.2152 14.4522 51.2149 14.4468 51.2147 14.4414C51.2144 14.4359 51.2142 14.4305 51.2142 14.4228C51.0838 14.4569 50.9504 14.4828 50.8107 14.4828H38.8014V2.47345C38.8014 2.33379 38.8273 2.19931 38.8614 2.06897H9.28035C8.83553 2.06897 8.80139 2.80241 8.80139 3.0269V40.3448H8.81323V42.4138H8.80139V57.4521C8.80139 57.6424 8.91415 57.8038 9.07553 57.8803C9.08102 57.8824 9.08652 57.8844 9.09203 57.8864Z" fill="#323640"/>
<path d="M22.8112 45.2869C22.4667 45.0045 22.0778 44.7914 21.6443 44.6507C21.2109 44.5089 20.7722 44.4386 20.3295 44.4386H17.3315V54.862H19.0291V51.0996H20.2881C20.8343 51.0996 21.335 51.02 21.7871 50.8596C22.2391 50.6993 22.626 50.4727 22.9467 50.181C23.2674 49.8893 23.5167 49.5283 23.6967 49.0989C23.8757 48.6696 23.9657 48.1917 23.9657 47.6631C23.9657 47.1634 23.8591 46.7134 23.6471 46.312C23.435 45.9107 23.1557 45.5703 22.8112 45.2869ZM22.1678 48.7307C22.0633 49.0183 21.9278 49.2417 21.7581 49.402C21.5884 49.5624 21.4022 49.6783 21.1995 49.7486C20.9967 49.8189 20.7909 49.8552 20.584 49.8552H19.0281V45.7255H20.3005C20.734 45.7255 21.0826 45.7938 21.3474 45.9303C21.6112 46.0669 21.816 46.2365 21.9629 46.4393C22.1088 46.642 22.205 46.8541 22.2526 47.0755C22.2991 47.2969 22.3229 47.4924 22.3229 47.662C22.3229 48.0872 22.2712 48.4431 22.1678 48.7307Z" fill="#323640"/>
<path d="M33.0642 45.9655C32.6256 45.5041 32.0742 45.1327 31.409 44.8555C30.7438 44.5783 29.9731 44.4386 29.0969 44.4386H25.9573V54.862H29.9028C30.0342 54.862 30.2369 54.8455 30.5111 54.8124C30.7842 54.7793 31.0862 54.7048 31.4162 54.5858C31.7462 54.4679 32.0876 54.291 32.4414 54.0552C32.7952 53.8193 33.1128 53.4965 33.3962 53.0858C33.6797 52.6752 33.9125 52.1662 34.0966 51.5579C34.2807 50.9496 34.3728 50.2162 34.3728 49.3586C34.3728 48.7358 34.2642 48.1296 34.048 47.541C33.8297 46.9534 33.5028 46.4279 33.0642 45.9655ZM31.8269 52.5138C31.318 53.2493 30.4883 53.6165 29.338 53.6165H27.6549V45.7245H28.6449C29.4559 45.7245 30.1159 45.831 30.6249 46.0431C31.1338 46.2551 31.5373 46.5334 31.8342 46.8779C32.1311 47.2224 32.3307 47.6062 32.4352 48.0303C32.5387 48.4545 32.5904 48.8838 32.5904 49.3172C32.5904 50.7127 32.3359 51.7793 31.8269 52.5138Z" fill="#323640"/>
<path d="M36.8345 54.862H38.56V50.1665H42.9162V49.0069H38.56V45.7255H43.3538V44.4386H36.8345V54.862Z" fill="#323640"/>
<path d="M38.4365 23.961C37.5175 23.961 36.3895 24.081 35.0785 24.319C33.2485 22.377 31.3385 19.541 29.9905 16.757C31.3275 11.128 30.6585 10.331 30.3635 9.95501C30.0495 9.55501 29.6065 8.90601 29.1025 8.90601C28.8915 8.90601 28.3155 9.00201 28.0865 9.07801C27.5105 9.27001 27.2005 9.71401 26.9525 10.293C26.2455 11.946 27.2155 14.764 28.2135 16.936C27.3605 20.329 25.9295 24.39 24.4255 27.686C20.6355 29.422 18.6225 31.127 18.4405 32.754C18.3745 33.346 18.5145 34.215 19.5555 34.996C19.8405 35.209 20.1745 35.322 20.5225 35.322C21.3975 35.322 22.2815 34.652 23.3045 33.215C24.0505 32.167 24.8515 30.738 25.6875 28.964C28.3655 27.793 31.6785 26.735 34.5155 26.142C36.0955 27.659 37.5105 28.427 38.7265 28.427C39.6225 28.427 40.3905 28.015 40.9465 27.236C41.5255 26.425 41.6575 25.699 41.3365 25.076C40.9515 24.327 40.0025 23.961 38.4365 23.961ZM20.5445 33.634C20.0765 33.275 20.1035 33.033 20.1135 32.942C20.1755 32.386 21.0465 31.399 23.1835 30.198C21.5635 33.19 20.6935 33.587 20.5445 33.634ZM28.7445 10.712C28.7875 10.698 29.7895 11.813 28.8405 13.928C27.4145 12.469 28.6465 10.745 28.7445 10.712ZM26.6775 26.738C27.6925 24.319 28.6365 21.648 29.3515 19.174C30.4745 21.192 31.8235 23.15 33.1735 24.718C31.0395 25.219 28.7675 25.926 26.6775 26.738ZM39.5785 26.259C39.2705 26.69 38.6025 26.7 38.3685 26.7C37.8355 26.7 37.6365 26.383 36.8215 25.756C37.4935 25.67 38.1275 25.648 38.6325 25.648C39.5215 25.648 39.6845 25.779 39.8075 25.845C39.7855 25.916 39.7275 26.05 39.5785 26.259Z" fill="#323640"/>
</svg>
