<svg xmlns="http://www.w3.org/2000/svg" fill="none" viewBox="0 0 17 17">
  <defs/>
  <path fill="#fff" stroke="#fff" stroke-width=".2" d="M12.26 12.22V5.56h.42a.43.43 0 00.45-.45c0-.1-.04-.21-.11-.3a.43.43 0 00-.34-.14H10.1v-.56a.9.9 0 00-.88-.91H7.38a.9.9 0 00-.88.91v.56H3.9a.43.43 0 00-.44.44.43.43 0 00.44.44h.43v6.67c0 .86.7 1.57 1.57 1.57h4.78c.86 0 1.57-.71 1.57-1.57zM9.21 4.1v.56H7.4v-.56a.06.06 0 010-.02h1.82a.06.06 0 010 .02zm-.2 6.96a.43.43 0 00.45.44c.1 0 .21-.03.3-.1a.43.43 0 00.14-.34V7.32a.43.43 0 00-.44-.43c-.11 0-.22.03-.3.1a.43.43 0 00-.15.33v3.75zm-2.31 0a.43.43 0 00.44.44c.11 0 .22-.03.3-.1a.43.43 0 00.15-.34V7.32a.43.43 0 00-.45-.43c-.1 0-.21.03-.3.1a.43.43 0 00-.14.33v3.75zm-1.47 1.15V5.56H11.37v6.66c0 .37-.3.68-.68.68H5.91a.68.68 0 01-.68-.68z"/>
</svg>
