<svg width="50" height="50" viewBox="0 0 50 50" fill="none"
  xmlns="http://www.w3.org/2000/svg">
  <circle cx="25" cy="25" r="25" fill="black"/>
  <path d="M23.4023 17.7812V32H21.5273V19.3242H16.4297L16.1758 24.959C16.0781 26.847 15.8828 28.2663 15.5898 29.2168C15.3034 30.1673 14.8802 30.8672 14.3203 31.3164C13.7604 31.7591 13.0117 31.987 12.0742 32H11.459V30.4668L11.8496 30.4473C12.4551 30.4017 12.9206 30.2064 13.2461 29.8613C13.5716 29.5098 13.819 28.9531 13.9883 28.1914C14.1576 27.4297 14.278 26.2578 14.3496 24.6758L14.6426 17.7812H23.4023ZM30.502 25.6133H28.7734V32H26.8984V17.7812H28.7734V24.0508H30.2383L35.209 17.7812H37.543L32.1133 24.6758L37.9434 32H35.6484L30.502 25.6133Z" fill="white"/>
<svg width="50" height="50" viewBox="0 0 50 50" fill="none" xmlns="http://www.w3.org/2000/svg">
  <circle cx="25" cy="25" r="25" fill="black"/>
  <path d="M23.4023 17.7812V32H21.5273V19.3242H16.4297L16.1758 24.959C16.0781 26.847 15.8828 28.2663 15.5898 29.2168C15.3034 30.1673 14.8802 30.8672 14.3203 31.3164C13.7604 31.7591 13.0117 31.987 12.0742 32H11.459V30.4668L11.8496 30.4473C12.4551 30.4017 12.9206 30.2064 13.2461 29.8613C13.5716 29.5098 13.819 28.9531 13.9883 28.1914C14.1576 27.4297 14.278 26.2578 14.3496 24.6758L14.6426 17.7812H23.4023ZM30.502 25.6133H28.7734V32H26.8984V17.7812H28.7734V24.0508H30.2383L35.209 17.7812H37.543L32.1133 24.6758L37.9434 32H35.6484L30.502 25.6133Z" fill="white"/>
</svg>
