<svg id="Icon_Transaction_Payment" data-name="Icon Transaction  Payment" xmlns="http://www.w3.org/2000/svg" width="22.496" height="39.636" viewBox="0 0 22.496 39.636">
  <path id="contour_217" data-name="contour 217" d="M98.337,385.071H102.3a.536.536,0,1,0,0-1.071H98.337a.536.536,0,1,0,0,1.071Zm0,0" transform="translate(-89.07 -349.72)" fill="#43698c"/>
  <path id="contour_218" data-name="contour 218" d="M4.821,39.636H17.676A4.826,4.826,0,0,0,22.5,34.815V4.821A4.826,4.826,0,0,0,17.676,0H4.821A4.826,4.826,0,0,0,0,4.821V34.815A4.826,4.826,0,0,0,4.821,39.636ZM1.071,4.821A3.754,3.754,0,0,1,4.821,1.071H17.676a3.754,3.754,0,0,1,3.749,3.749v.214H1.071Zm0,1.285H21.425V29.995H1.071Zm0,24.96H21.425v3.749a3.754,3.754,0,0,1-3.749,3.749H4.821a3.754,3.754,0,0,1-3.749-3.749Zm0,0" fill="#43698c"/>
  <path id="contour_219" data-name="contour 219" d="M39.576,246H32.934a.536.536,0,1,0,0,1.071h6.642a.536.536,0,0,0,0-1.071Zm0,0" transform="translate(-29.506 -224.04)" fill="#43698c"/>
  <path id="contour_220" data-name="contour 220" d="M128.826,247.071a.536.536,0,0,0,0-1.071h-3.892a.536.536,0,1,0,0,1.071Zm0,0" transform="translate(-113.293 -224.04)" fill="#43698c"/>
  <path id="contour_221" data-name="contour 221" d="M191.926,246h-1.589a.536.536,0,0,0,0,1.071h1.589a.536.536,0,1,0,0-1.071Zm0,0" transform="translate(-172.858 -224.04)" fill="#43698c"/>
  <path id="contour_222" data-name="contour 222" d="M34.22,282H32.934a.536.536,0,1,0,0,1.071H34.22a.536.536,0,1,0,0-1.071Zm0,0" transform="translate(-29.506 -256.826)" fill="#43698c"/>
  <path id="contour_223" data-name="contour 223" d="M72.291,282H68.934a.536.536,0,1,0,0,1.071h3.357a.536.536,0,1,0,0-1.071Zm0,0" transform="translate(-62.292 -256.826)" fill="#43698c"/>
  <path id="contour_224" data-name="contour 224" d="M135.461,282h-7.124a.536.536,0,0,0,0,1.071h7.124a.536.536,0,1,0,0-1.071Zm0,0" transform="translate(-116.392 -256.826)" fill="#43698c"/>
  <path id="contour_225" data-name="contour 225" d="M50.537,96.359h1.294v5.456a.536.536,0,0,0,.536.536H61.2a.536.536,0,0,0,.536-.536V96.359h1.294a.536.536,0,0,0,.315-.968L57.1,90.841a.536.536,0,0,0-.63,0l-6.249,4.55a.536.536,0,0,0,.315.968Zm6.249-4.422,4.6,3.351H61.2a.536.536,0,0,0-.536.536v5.456H52.9V95.823a.536.536,0,0,0-.536-.536h-.184Zm0,0" transform="translate(-45.538 -82.638)" fill="#43698c"/>
  <path id="contour_226" data-name="contour 226" d="M108.586,126.965a1.707,1.707,0,1,0-1.707-1.707A1.707,1.707,0,0,0,108.586,126.965Zm0-2.342a.636.636,0,1,1-.636.635A.636.636,0,0,1,108.586,124.622Zm0,0" transform="translate(-97.338 -112.521)" fill="#43698c"/>
</svg>
