<svg width="30" height="30" viewBox="0 0 30 30" fill="none"
  xmlns="http://www.w3.org/2000/svg">
  <path d="M29.0318 16.0847V4.03427C29.0318 3.07983 28.2555 2.30347 27.301 2.30347H19.9354V1.36322C19.9354 0.676117 19.3764 0.117188 18.6893 0.117188H11.3107C10.6238 0.117188 10.0646 0.676117 10.0646 1.36322V2.30347H2.69897C1.74454 2.30347 0.96817 3.07983 0.96817 4.03427V16.0847C0.404663 16.2847 0 16.8233 0 17.4545V26.7941C0 27.3754 0.879593 27.3764 0.879593 26.7941V17.4545C0.879593 17.1384 1.13686 16.8812 1.45294 16.8812H28.5471C28.8631 16.8812 29.1204 17.1384 29.1204 17.4545V28.3962C29.1204 28.7123 28.8631 28.9696 28.5471 28.9696H1.45294C1.13686 28.9696 0.879593 28.7123 0.879593 28.3962V26.5533C0.879593 25.9719 0 25.971 0 26.5533V28.3962C0 29.1973 0.651855 29.8492 1.45294 29.8492H28.5471C29.3481 29.8492 30 29.1973 30 28.3962V17.4545C30 16.8233 29.5953 16.2847 29.0318 16.0847ZM10.9442 1.36322C10.9442 1.16112 11.1088 0.99678 11.3107 0.99678H18.6893C18.8912 0.99678 19.0558 1.16112 19.0558 1.36322V2.30347H10.9442V1.36322ZM2.69897 3.18306H27.301C27.7702 3.18306 28.1522 3.56483 28.1522 4.03427V16.0016H20.9649V11.8758C21.6845 11.5402 21.524 10.7849 21.5442 10.6995L21.8484 10.6993C21.9058 11.0557 22.2146 11.3356 22.5964 11.3356C22.6025 11.3356 23.0704 11.3354 23.9983 11.3354C24.416 11.3351 24.7559 10.9955 24.7559 10.5778V8.00446C24.7559 7.58675 24.416 7.24686 23.9983 7.24686L22.5959 7.24709C22.2196 7.24709 21.9065 7.52266 21.8481 7.88269H21.5565C21.4943 7.54303 21.1965 7.27753 20.8294 7.27753C19.0608 7.27776 19.7715 7.27776 17.9162 7.27776C16.13 7.27776 14.1275 8.86162 14.0291 11.2958C14.014 11.6647 14.3118 11.9687 14.6768 11.9687C14.8766 11.9449 15.2435 12.0598 15.5136 11.7368C15.6484 11.5757 16.1607 11.0683 16.9924 10.8531C17.0522 10.8376 17.14 10.8614 17.1416 10.9694C17.1474 11.4214 17.4316 11.7849 17.8194 11.916V16.0016H10.5405V14.764C10.5405 13.8231 10.881 12.9238 11.4997 12.2317C12.0618 11.6027 12.3715 10.7915 12.3715 9.9472C12.3715 8.66615 11.6656 7.50114 10.5295 6.90697C10.1031 6.68404 9.59244 6.9928 9.59244 7.47368C9.55879 9.62769 9.66614 9.75609 9.51279 9.75609H8.37204C8.32809 9.75609 8.29239 9.72038 8.29239 9.67644V7.47368C8.29239 6.9928 7.78152 6.68381 7.35535 6.90697C6.21918 7.50114 5.51331 8.66615 5.51331 9.9472C5.51331 10.7915 5.82298 11.6027 6.38512 12.2317C7.00378 12.9238 7.34459 13.8231 7.34459 14.7643V16.0016H1.84776V4.03427C1.84776 3.56483 2.22977 3.18306 2.69897 3.18306ZM20.6648 10.5558L20.6639 10.9696C20.6639 11.0355 20.6101 11.0891 20.5444 11.0891C18.148 11.0706 18.0212 11.1573 18.0212 10.9694C18.0212 10.3304 17.43 9.85748 16.8052 9.99367C15.8386 10.2042 15.214 10.759 14.9274 11.0717C15.1373 9.16832 16.7606 8.15735 17.9162 8.15735L20.6996 8.15712C20.7573 8.49174 21.0496 8.76251 21.4194 8.76251C21.4286 8.76251 21.9667 8.76205 21.9608 8.76205C22.3368 8.76205 22.6497 8.48625 22.7083 8.12645H23.8763V10.4558C23.5309 10.4558 23.0527 10.4558 22.7097 10.4558C22.6568 10.1017 22.3508 9.81972 21.9695 9.81972C21.9587 9.81972 21.3982 9.82018 21.4041 9.82018C21.0004 9.82018 20.6687 10.1486 20.6648 10.5558ZM18.6992 11.9687H20.0853V16.0016H18.6992V11.9687ZM8.37204 10.6357H9.51279C10.0417 10.6357 10.472 10.2054 10.472 9.67644V7.90672C11.1095 8.38394 11.4919 9.13399 11.4919 9.9472C11.4919 10.5748 11.2619 11.1779 10.844 11.6453C10.0811 12.4988 9.66087 13.6066 9.66087 14.764V16.0016H8.22395V14.764C8.22395 13.6063 7.80396 12.4988 7.04086 11.6453C6.62292 11.1779 6.3929 10.5748 6.3929 9.9472C6.3929 9.13399 6.77536 8.38394 7.4128 7.90672V9.67644C7.4128 10.2054 7.84309 10.6357 8.37204 10.6357Z" fill="#1F1F1F"/>
  <path d="M18.5506 21.6873C19.4181 21.6873 20.1239 20.9814 20.1239 20.1139C20.1239 19.2462 19.4181 18.5406 18.5506 18.5406H11.4493C10.5818 18.5406 9.87598 19.2462 9.87598 20.1139C9.87598 20.9814 10.5818 21.6873 11.4493 21.6873H18.5506ZM10.7556 20.1139C10.7556 19.7312 11.0666 19.4202 11.4493 19.4202H18.5506C18.9331 19.4202 19.2443 19.7312 19.2443 20.1139C19.2443 20.4964 18.9333 20.8077 18.5506 20.8077H11.4493C11.0668 20.8074 10.7556 20.4964 10.7556 20.1139Z" fill="#1F1F1F"/>
  <path d="M3.8846 16V5.21986H26.1154V16C26.1154 16.5814 26.995 16.5823 26.995 16V5.18462C26.995 4.71907 26.6162 4.34027 26.1507 4.34027H3.84935C3.3838 4.34027 3.005 4.71907 3.005 5.18462V16C3.005 16.5814 3.8846 16.5823 3.8846 16Z" fill="#1F1F1F"/>
</svg>
