<svg id="target" xmlns="http://www.w3.org/2000/svg" width="74.677" height="74.678" viewBox="0 0 74.677 74.678">
  <g id="group_89" data-name="group 89" transform="translate(16.868 14.459)">
    <path id="contour_230" data-name="contour 230" d="M61.839,13H54.613A3.613,3.613,0,0,0,51,16.613v55.4a1.2,1.2,0,0,0,1.2,1.2H64.248a1.2,1.2,0,0,0,1.2-1.2v-55.4A3.613,3.613,0,0,0,61.839,13Z" transform="translate(-7.643 -13)" fill="#d5e1e6"/>
    <path id="contour_231" data-name="contour 231" d="M43.839,29H36.613A3.613,3.613,0,0,0,33,32.613V68.744a1.2,1.2,0,0,0,1.2,1.2H46.248a1.2,1.2,0,0,0,1.2-1.2V32.613A3.613,3.613,0,0,0,43.839,29Z" transform="translate(-11.321 -9.73)" fill="#d5e1e6"/>
    <path id="contour_232" data-name="contour 232" d="M25.839,45H18.613A3.613,3.613,0,0,0,15,48.613V65.474a1.2,1.2,0,0,0,1.2,1.2H28.248a1.2,1.2,0,0,0,1.2-1.2V48.613A3.613,3.613,0,0,0,25.839,45Z" transform="translate(-15 -6.46)" fill="#d5e1e6"/>
  </g>
  <path id="contour_233" data-name="contour 233" d="M60.015,5.819H56.4V2.206a1.2,1.2,0,0,0-2.059-.855L48.321,7.372a1.2,1.2,0,0,0-.349.855v4.324l-2.613,2.613a26.5,26.5,0,1,0,1.7,1.7l2.613-2.613h4.324a1.2,1.2,0,0,0,.855-.349L60.87,7.878a1.2,1.2,0,0,0-.855-2.059Zm-8.431,28.9a24.184,24.184,0,1,1-7.961-17.837l-5.107,5.107a16.861,16.861,0,1,0,1.71,1.71L45.334,18.6a23.979,23.979,0,0,1,6.251,16.126Zm-24.942.855a1.2,1.2,0,0,0,1.71,0l4.167-4.167a6.022,6.022,0,1,1-1.71-1.71l-4.167,4.167a1.2,1.2,0,0,0,0,1.71Zm5.889-7.6a8.431,8.431,0,1,0,1.71,1.71L38.517,25.4a14.452,14.452,0,1,1-1.7-1.7ZM53.5,11.84H50.38V8.721l3.613-3.613V7.023a1.2,1.2,0,0,0,1.2,1.2h1.915Z" transform="translate(-0.995 -0.994)" fill="#40798f"/>
</svg>
