<svg xmlns="http://www.w3.org/2000/svg" fill="none" viewBox="0 0 16 15">
  <defs/>
  <mask width="16" height="15" x="0" y="0" fill="#000" maskUnits="userSpaceOnUse">
    <path fill="#fff" d="M0 0h16v15H0z"/>
    <path fill-rule="evenodd" d="M12.67 2.4H6.6C6.5 1.6 5.76 1 4.83 1h-.19c-.93 0-1.73.65-1.77 1.45A2.35 2.35 0 001 4.73v7c0 1.31 1.03 2.34 2.33 2.34h9.34c1.3 0 2.33-1.03 2.33-2.34v-7c0-1.3-1.03-2.33-2.33-2.33zm-8.03-.47h.19c.37 0 .74.19.84.47H3.85c.09-.28.42-.47.79-.47zm9.43 9.8c0 .8-.61 1.4-1.4 1.4H3.33c-.79 0-1.4-.6-1.4-1.4v-7c0-.79.61-1.4 1.4-1.4h9.34c.79 0 1.4.61 1.4 1.4v7zM8 5.2a3.25 3.25 0 00-3.27 3.27A3.25 3.25 0 008 11.73a3.25 3.25 0 003.27-3.26A3.25 3.25 0 008 5.2zm0 5.6a2.31 2.31 0 01-2.33-2.33c0-1.31 1.02-2.34 2.33-2.34 1.3 0 2.33 1.03 2.33 2.34 0 1.3-1.02 2.33-2.33 2.33zm3.27-6.07h.93c.28 0 .47.19.47.47 0 .28-.19.47-.47.47h-.93c-.28 0-.47-.19-.47-.47 0-.28.19-.47.47-.47z" clip-rule="evenodd"/>
  </mask>
  <path fill="#660000" fill-rule="evenodd" d="M12.67 2.4H6.6C6.5 1.6 5.76 1 4.83 1h-.19c-.93 0-1.73.65-1.77 1.45A2.35 2.35 0 001 4.73v7c0 1.31 1.03 2.34 2.33 2.34h9.34c1.3 0 2.33-1.03 2.33-2.34v-7c0-1.3-1.03-2.33-2.33-2.33zm-8.03-.47h.19c.37 0 .74.19.84.47H3.85c.09-.28.42-.47.79-.47zm9.43 9.8c0 .8-.61 1.4-1.4 1.4H3.33c-.79 0-1.4-.6-1.4-1.4v-7c0-.79.61-1.4 1.4-1.4h9.34c.79 0 1.4.61 1.4 1.4v7zM8 5.2a3.25 3.25 0 00-3.27 3.27A3.25 3.25 0 008 11.73a3.25 3.25 0 003.27-3.26A3.25 3.25 0 008 5.2zm0 5.6a2.31 2.31 0 01-2.33-2.33c0-1.31 1.02-2.34 2.33-2.34 1.3 0 2.33 1.03 2.33 2.34 0 1.3-1.02 2.33-2.33 2.33zm3.27-6.07h.93c.28 0 .47.19.47.47 0 .28-.19.47-.47.47h-.93c-.28 0-.47-.19-.47-.47 0-.28.19-.47.47-.47z" clip-rule="evenodd"/>
  <path fill="#660000" d="M6.6 2.4l-.2.02.02.18h.18v-.2zm-3.73.05l.04.2.15-.04v-.15l-.2-.01zm2.8-.05v.2h.27l-.08-.26-.2.06zm-1.82 0l-.2-.06-.08.26h.28v-.2zm2.75.2h6.07v-.4H6.6v.4zM4.83 1.2c.85 0 1.5.55 1.57 1.22l.4-.04C6.7 1.46 5.84.8 4.83.8v.4zm-.1 0h.1V.8h-.1v.4zm-.09 0h.1V.8h-.1v.4zM3.07 2.46c.04-.66.72-1.26 1.57-1.26V.8c-1.01 0-1.92.71-1.97 1.63l.4.03zM1.2 4.73c0-1.02.72-1.87 1.7-2.09l-.08-.39A2.55 2.55 0 00.8 4.73h.4zm0 7v-7H.8v7h.4zm2.13 2.14c-1.2 0-2.13-.94-2.13-2.14H.8a2.51 2.51 0 002.53 2.54v-.4zm9.34 0H3.33v.4h9.34v-.4zm2.13-2.14c0 1.2-.94 2.14-2.13 2.14v.4a2.51 2.51 0 002.53-2.54h-.4zm0-7v7h.4v-7h-.4zM12.67 2.6c1.2 0 2.13.94 2.13 2.13h.4a2.51 2.51 0 00-2.53-2.53v.4zm-7.94-.87h-.09v.4h.1v-.4zm.1 0h-.1v.4h.1v-.4zm1.03.6a.83.83 0 00-.41-.44c-.19-.1-.4-.16-.62-.16v.4c.15 0 .3.04.43.1.12.07.2.16.22.23l.38-.12zm-2.01.27h1.82v-.4H3.85v.4zm.79-.87c-.43 0-.85.22-.98.6l.38.13c.05-.17.28-.33.6-.33v-.4zm8.03 11.6c.9 0 1.6-.7 1.6-1.6h-.4c0 .69-.52 1.2-1.2 1.2v.4zm-9.34 0h9.34v-.4H3.33v.4zm-1.6-1.6c0 .9.7 1.6 1.6 1.6v-.4c-.68 0-1.2-.51-1.2-1.2h-.4zm0-7v7h.4v-7h-.4zm1.6-1.6c-.9 0-1.6.7-1.6 1.6h.4c0-.68.52-1.2 1.2-1.2v-.4zm9.34 0H3.33v.4h9.34v-.4zm1.6 1.6c0-.9-.7-1.6-1.6-1.6v.4c.68 0 1.2.52 1.2 1.2h.4zm0 7v-7h-.4v7h.4zM4.93 8.47A3.05 3.05 0 018 5.4V5a3.45 3.45 0 00-3.47 3.47h.4zM8 11.53a3.05 3.05 0 01-3.07-3.06h-.4A3.45 3.45 0 008 11.93v-.4zm3.07-3.06A3.05 3.05 0 018 11.53v.4a3.45 3.45 0 003.47-3.46h-.4zM8 5.4a3.05 3.05 0 013.07 3.07h.4A3.45 3.45 0 008 5v.4zM5.47 8.47A2.51 2.51 0 008 11v-.4c-1.2 0-2.13-.94-2.13-2.13h-.4zM8 5.93a2.51 2.51 0 00-2.53 2.54h.4c0-1.2.93-2.14 2.13-2.14v-.4zm2.53 2.54A2.51 2.51 0 008 5.93v.4c1.2 0 2.13.94 2.13 2.14h.4zM8 11a2.51 2.51 0 002.53-2.53h-.4c0 1.2-.93 2.13-2.13 2.13v.4zm4.2-6.47h-.93v.4h.93v-.4zm.67.67a.67.67 0 00-.19-.48.67.67 0 00-.48-.19v.4c.1 0 .16.03.2.07.04.04.07.1.07.2h.4zm-.67.67c.19 0 .36-.07.48-.19s.19-.3.19-.48h-.4c0 .1-.03.16-.07.2a.27.27 0 01-.2.07v.4zm-.93 0h.93v-.4h-.93v.4zm-.67-.67c0 .19.06.36.19.48.12.12.3.19.48.19v-.4a.27.27 0 01-.2-.07.27.27 0 01-.07-.2h-.4zm.67-.67a.67.67 0 00-.48.19.67.67 0 00-.19.48h.4c0-.1.03-.16.07-.2.04-.04.1-.07.2-.07v-.4z" mask="url(#a)"/>
</svg>
