<svg xmlns="http://www.w3.org/2000/svg" fill="none" viewBox="0 0 5 10">
  <defs/>
  <path fill="#6B5B73" d="M1.46 2.72c-.03-.14-.06-.31-.06-.47 0-.28.07-.57.24-.74a.9.9 0 01.64-.25c.21 0 .48.07.65.24a.9.9 0 01.23.66c0 .28-.08.49-.3.7-.27.23-.66.35-1.03.49-.39.15-.9.36-1.21.71-.27.3-.45.69-.45 1.2 0 .73.3 1.2.57 1.49.34.32.84.57 1.47.57.65 0 1.18-.24 1.53-.59.35-.36.61-.93.61-1.62H2.98c0 .28-.05.56-.22.74a.68.68 0 01-.53.21.62.62 0 01-.42-.14.71.71 0 01-.24-.54c0-.17.07-.37.2-.5.15-.15.36-.23.57-.32l.42-.16c.52-.21.78-.35.98-.5a2 2 0 00.82-1.72c0-.67-.2-1.19-.6-1.56-.3-.3-.84-.62-1.7-.62C1.47 0 .95.3.64.59.33.87 0 1.4 0 2.24l.03.48h1.43zm0 6.13c0 .46.37.84.84.84.46 0 .84-.38.84-.84A.84.84 0 002.3 8a.84.84 0 00-.84.84z"/>
</svg>
