<svg width="133" height="133" viewBox="0 0 133 133" fill="none"
  xmlns="http://www.w3.org/2000/svg">
  <path d="M129.484 52.9058C129.825 53.1031 130.205 53.1984 130.581 53.1984C131.068 53.1984 131.553 53.0366 131.954 52.7218C132.662 52.161 132.961 51.2256 132.704 50.3566L121.638 12.6725C121.425 11.9499 120.861 11.3846 120.139 11.1718L82.5147 0.088264C81.6493 -0.162224 80.7153 0.130382 80.1531 0.839729C79.5932 1.54908 79.5202 2.52886 79.9694 3.31358L87.1779 15.951L75.8993 27.2474C75.4677 27.6797 75.2508 28.2471 75.2508 28.8146H11.0673C4.96546 28.8146 0.00119749 33.7867 0.00119749 39.8982V95.3159V99.7493C0.00119749 105.861 4.96546 110.833 11.0673 110.833H29.6186L25.1921 119.7H2.21442C1.37561 119.7 0.609834 120.174 0.233586 120.926C-0.142662 121.677 -0.0585595 122.575 0.443843 123.246L7.08352 132.113C7.50182 132.672 8.15693 133 8.8541 133H92.9566C93.6538 133 94.3089 132.672 94.7272 132.113L97.3831 128.567V130.783C97.3831 132.007 98.3746 133 99.5963 133H121.729C122.95 133 123.942 132.007 123.942 130.783V128.567H130.581C131.803 128.567 132.795 127.573 132.795 126.35V104.183C132.795 102.959 131.803 101.966 130.581 101.966H123.942V99.7493C123.942 98.5257 122.95 97.5326 121.729 97.5326H101.81V95.3159V55.4151C102.376 55.4151 102.943 55.1979 103.374 54.7656L114.051 44.0722L119.515 47.2V57.3215L115.175 72.5392C114.996 73.1643 115.102 73.836 115.461 74.3791L119.887 81.0292C120.299 81.6455 120.989 82.0157 121.729 82.0157C122.468 82.0157 123.158 81.6455 123.57 81.0292L127.996 74.3791C128.357 73.8382 128.461 73.1665 128.282 72.5392L123.942 57.3215V49.7337L129.484 52.9058ZM121.729 75.8022L119.71 72.772L121.729 65.7007L123.747 72.772L121.729 75.8022ZM117.731 15.0843L126.908 46.3266L114.779 39.3861L101.219 31.6254L86.5405 5.89383L117.731 15.0843ZM11.0673 33.248H78.761L83.1875 37.6815H11.0673C9.84562 37.6815 8.8541 38.6745 8.8541 39.8982V86.4491C8.8541 87.6727 9.84562 88.6658 11.0673 88.6658H90.7434C91.9651 88.6658 92.9566 87.6727 92.9566 86.4491V47.466L97.3831 51.8994V93.0992H4.42765V39.8982C4.42765 36.2317 7.40665 33.248 11.0673 33.248ZM88.5302 43.0326V84.2324H13.2805V42.1149H87.6139L88.5302 43.0326ZM4.42765 99.7493V97.5326H97.3831V99.7493C97.3831 103.416 94.4041 106.399 90.7434 106.399H68.6112H33.1996H11.0673C7.40665 106.399 4.42765 103.416 4.42765 99.7493ZM34.5673 110.833H67.2434L71.6698 119.7H30.1409L34.5673 110.833ZM91.85 128.567H9.96071L6.64087 124.133H26.5599H75.2508H95.1699L91.85 128.567ZM76.6186 119.7L72.1922 110.833H90.7434C93.2444 110.833 95.5284 109.966 97.3831 108.559V119.7H76.6186ZM128.368 106.399V124.133H123.942V106.399H128.368ZM119.515 104.183V126.35V128.567H101.81V101.966H119.515V104.183ZM101.81 50.064L101.161 49.4145L92.3082 40.5477L90.0949 38.3309L81.2421 29.4641L80.5936 28.8146L89.4531 19.9411L97.673 34.3497C97.8678 34.6933 98.1533 34.9793 98.4963 35.1744L110.065 41.7957L101.81 50.064Z" fill="black"/>
</svg>
