<svg width="37" height="36" viewBox="0 0 37 36" fill="none" xmlns="http://www.w3.org/2000/svg">
<g clip-path="url(#clip0)">
<path d="M18.0085 25.5001C17.3875 25.5001 16.8835 24.9961 16.8835 24.3751V1.125C16.8835 0.503998 17.3875 0 18.0085 0C18.6295 0 19.1335 0.503998 19.1335 1.125V24.3751C19.1335 24.9961 18.6295 25.5001 18.0085 25.5001Z" fill="currentColor"/>
<path d="M18.0084 25.5001C17.7203 25.5001 17.4325 25.3905 17.2133 25.17L11.2134 19.1701C10.7739 18.7306 10.7739 18.0182 11.2134 17.5784C11.6528 17.139 12.3653 17.139 12.805 17.5784L18.0098 22.7835L23.2148 17.5784C23.6543 17.139 24.367 17.139 24.8065 17.5784C25.2459 18.0182 25.2459 18.7306 24.8065 19.1701L18.8063 25.17C18.5844 25.3905 18.2965 25.5001 18.0084 25.5001Z" fill="currentColor"/>
<path d="M31.8835 36H4.13364C1.85809 36 0.00854492 34.1505 0.00854492 31.8749V25.1249C0.00854492 24.5039 0.512543 23.9999 1.13354 23.9999C1.75455 23.9999 2.25854 24.5039 2.25854 25.1249V31.8749C2.25854 32.9085 3.1001 33.75 4.13364 33.75H31.8835C32.917 33.75 33.7585 32.9085 33.7585 31.8749V25.1249C33.7585 24.5039 34.2625 23.9999 34.8835 23.9999C35.5045 23.9999 36.0085 24.5039 36.0085 25.1249V31.8749C36.0085 34.1505 34.159 36 31.8835 36Z" fill="currentColor"/>
</g>
<defs>
<clipPath id="clip0">
<rect width="36" height="36" fill="white" transform="translate(0.00854492)"/>
</clipPath>
</defs>
</svg>
