<svg width="30" height="30" viewBox="0 0 30 30" fill="none"
  xmlns="http://www.w3.org/2000/svg">
  <path d="M28.5938 17.3438C28.7181 17.3438 28.8373 17.2944 28.9252 17.2065C29.0131 17.1185 29.0625 16.9993 29.0625 16.875V13.125C29.0625 13.0007 29.0131 12.8815 28.9252 12.7935C28.8373 12.7056 28.7181 12.6562 28.5938 12.6562H26.0002C25.7152 11.3119 25.185 10.0316 24.4359 8.87953L26.2678 7.04344C26.3555 6.95555 26.4048 6.83645 26.4048 6.71227C26.4048 6.58808 26.3555 6.46898 26.2678 6.38109L23.6194 3.73266C23.5315 3.64492 23.4124 3.59565 23.2882 3.59565C23.164 3.59565 23.0449 3.64492 22.957 3.73266L21.1205 5.56406C19.9684 4.81503 18.6881 4.28477 17.3438 3.99984V1.40625C17.3438 1.28193 17.2944 1.1627 17.2065 1.07479C17.1185 0.986886 16.9993 0.9375 16.875 0.9375H13.125C13.0007 0.9375 12.8815 0.986886 12.7935 1.07479C12.7056 1.1627 12.6562 1.28193 12.6562 1.40625V3.99984C11.3119 4.28477 10.0316 4.81503 8.87953 5.56406L7.04344 3.73219C6.95555 3.64445 6.83645 3.59518 6.71227 3.59518C6.58808 3.59518 6.46898 3.64445 6.38109 3.73219L3.73266 6.38063C3.64492 6.46851 3.59565 6.58762 3.59565 6.7118C3.59565 6.83598 3.64492 6.95508 3.73266 7.04297L5.56453 8.87906C4.81528 10.0313 4.28486 11.3117 3.99984 12.6562H1.40625C1.28193 12.6562 1.1627 12.7056 1.07479 12.7935C0.986886 12.8815 0.9375 13.0007 0.9375 13.125V16.875C0.9375 16.9993 0.986886 17.1185 1.07479 17.2065C1.1627 17.2944 1.28193 17.3438 1.40625 17.3438H3.99984C4.28477 18.6881 4.81503 19.9684 5.56406 21.1205L3.73219 22.9566C3.64445 23.0444 3.59518 23.1636 3.59518 23.2877C3.59518 23.4119 3.64445 23.531 3.73219 23.6189L6.38063 26.2673C6.46851 26.3551 6.58762 26.4044 6.7118 26.4044C6.83598 26.4044 6.95508 26.3551 7.04297 26.2673L8.87906 24.4355C10.0313 25.1847 11.3117 25.7151 12.6562 26.0002V28.5938C12.6562 28.7181 12.7056 28.8373 12.7935 28.9252C12.8815 29.0131 13.0007 29.0625 13.125 29.0625H16.875C16.9993 29.0625 17.1185 29.0131 17.2065 28.9252C17.2944 28.8373 17.3438 28.7181 17.3438 28.5938V26.0002C18.6877 25.7141 19.9674 25.1831 21.1191 24.4336L24.9436 28.2581C25.3838 28.6945 25.9789 28.9387 26.5987 28.9373C27.2186 28.936 27.8126 28.6892 28.2509 28.2509C28.6892 27.8126 28.936 27.2186 28.9373 26.5987C28.9387 25.9789 28.6945 25.3838 28.2581 24.9436L24.4336 21.1191C25.1831 19.9674 25.7141 18.6877 26.0002 17.3438H28.5938ZM27.5953 27.5953C27.4647 27.7259 27.3097 27.8295 27.1391 27.9002C26.9684 27.9709 26.7856 28.0073 26.6009 28.0073C26.4162 28.0073 26.2333 27.9709 26.0627 27.9002C25.892 27.8295 25.737 27.7259 25.6064 27.5953L16.6308 18.6202C16.4128 18.4024 16.1538 18.23 15.8689 18.1129C15.5839 17.9958 15.2786 17.9362 14.9705 17.9377C14.8727 17.9376 14.775 17.9434 14.678 17.955C14.0698 18.028 13.453 17.9509 12.8816 17.7302C12.3102 17.5096 11.8016 17.1523 11.4004 16.6895C10.9991 16.2267 10.7174 15.6726 10.58 15.0757C10.4425 14.4788 10.4536 13.8573 10.612 13.2656L12.6797 15.3338C12.7676 15.4217 12.8868 15.4711 13.0111 15.4711H15C15.1243 15.4711 15.2435 15.4217 15.3315 15.3338C15.4194 15.2459 15.4688 15.1267 15.4688 15.0023V13.0111C15.4687 12.8868 15.4193 12.7676 15.3314 12.6797L13.2656 10.612C13.8572 10.4539 14.4784 10.4432 15.0751 10.5808C15.6717 10.7184 16.2256 11.0002 16.6881 11.4014C17.1507 11.8026 17.5078 12.311 17.7283 12.8822C17.9489 13.4535 18.0261 14.07 17.9531 14.678C17.9079 15.0326 17.9443 15.3929 18.0596 15.7314C18.1749 16.0698 18.366 16.3775 18.6183 16.6308L27.5953 25.6064C27.7259 25.737 27.8295 25.892 27.9002 26.0627C27.9709 26.2333 28.0073 26.4162 28.0073 26.6009C28.0073 26.7856 27.9709 26.9684 27.9002 27.1391C27.8295 27.3097 27.7259 27.4647 27.5953 27.5953ZM19.283 15.9703C19.1313 15.8171 19.0168 15.6312 18.948 15.4268C18.8793 15.2225 18.8582 15.0051 18.8864 14.7914C18.9869 13.9582 18.8616 13.1133 18.5238 12.3451C18.1859 11.5769 17.6479 10.9135 16.966 10.4244C16.284 9.93525 15.4832 9.63831 14.6472 9.56462C13.8112 9.49093 12.9708 9.64318 12.2137 10.0055C12.1462 10.0379 12.0874 10.086 12.0423 10.1459C11.9972 10.2057 11.9671 10.2755 11.9545 10.3494C11.9419 10.4232 11.9472 10.499 11.97 10.5704C11.9928 10.6418 12.0323 10.7067 12.0853 10.7597L14.5312 13.2052V14.5312H13.2052L10.7597 12.0853C10.7067 12.0323 10.6418 11.9928 10.5704 11.97C10.499 11.9472 10.4232 11.9419 10.3494 11.9545C10.2755 11.9671 10.2057 11.9972 10.1459 12.0423C10.086 12.0874 10.0379 12.1462 10.0055 12.2137C9.6433 12.9705 9.49105 13.8107 9.56464 14.6465C9.63823 15.4822 9.93496 16.2829 10.4238 16.9647C10.9127 17.6466 11.5757 18.1846 12.3436 18.5226C13.1115 18.8605 13.9561 18.986 14.7891 18.8859C15.0028 18.8578 15.2202 18.879 15.4245 18.9478C15.6289 19.0166 15.8147 19.1313 15.968 19.283L18.3792 21.6937C16.7863 22.4985 14.9587 22.7092 13.2244 22.2881C11.4902 21.8669 9.96276 20.8416 8.91626 19.3959C7.86976 17.9503 7.37269 16.1791 7.51425 14.4C7.65581 12.621 8.42673 10.9506 9.68867 9.68867C10.9506 8.42673 12.621 7.65581 14.4 7.51425C16.1791 7.37269 17.9503 7.86976 19.3959 8.91626C20.8416 9.96276 21.8669 11.4902 22.2881 13.2244C22.7092 14.9587 22.4985 16.7863 21.6937 18.3792L19.283 15.9703ZM25.1508 16.7981C24.9247 18.0919 24.4514 19.3299 23.7567 20.4445L22.3861 19.0739C23.3695 17.2919 23.6764 15.2148 23.2504 13.2245C22.8244 11.2343 21.6942 9.46472 20.0675 8.24136C18.4409 7.018 16.4272 6.42308 14.3969 6.56602C12.3666 6.70895 10.4562 7.58014 9.01699 9.01933C7.57779 10.4585 6.70661 12.369 6.56368 14.3993C6.42074 16.4296 7.01566 18.4432 8.23902 20.0699C9.46238 21.6965 11.2319 22.8268 13.2222 23.2528C15.2124 23.6787 17.2896 23.3718 19.0716 22.3884L20.4422 23.7591C19.3276 24.4538 18.0895 24.9271 16.7958 25.1531C16.6872 25.1717 16.5887 25.228 16.5175 25.312C16.4462 25.396 16.4069 25.5024 16.4062 25.6125V28.125H13.5938V25.6125C13.5937 25.502 13.5546 25.395 13.4833 25.3105C13.412 25.226 13.3132 25.1695 13.2042 25.1508C11.7255 24.8919 10.3221 24.3103 9.09375 23.4473C9.00348 23.3839 8.89372 23.3543 8.7838 23.3639C8.67388 23.3734 8.57084 23.4214 8.49281 23.4994L6.71531 25.2736L4.72875 23.287L6.50297 21.5095C6.58098 21.4315 6.62896 21.3285 6.63848 21.2185C6.648 21.1086 6.61844 20.9989 6.555 20.9086C5.6917 19.6796 5.11007 18.2753 4.85156 16.7958C4.83282 16.6864 4.77589 16.5873 4.69092 16.516C4.60595 16.4446 4.49844 16.4058 4.3875 16.4062H1.875V13.5938H4.3875C4.49803 13.5937 4.60499 13.5546 4.68947 13.4833C4.77396 13.412 4.83054 13.3132 4.84922 13.2042C5.10806 11.7255 5.68967 10.3221 6.55266 9.09375C6.61609 9.00348 6.64566 8.89372 6.63614 8.7838C6.62662 8.67388 6.57863 8.57084 6.50063 8.49281L4.72641 6.71531L6.71297 4.72875L8.49047 6.50297C8.56849 6.58098 8.67154 6.62896 8.78146 6.63848C8.89138 6.648 9.00113 6.61844 9.09141 6.555C10.3204 5.6917 11.7247 5.11007 13.2042 4.85156C13.3136 4.83282 13.4127 4.77589 13.484 4.69092C13.5554 4.60595 13.5942 4.49844 13.5938 4.3875V1.875H16.4062V4.3875C16.4063 4.49803 16.4454 4.60499 16.5167 4.68947C16.588 4.77396 16.6868 4.83054 16.7958 4.84922C18.2753 5.10773 19.6796 5.68935 20.9086 6.55266C20.9989 6.61609 21.1086 6.64566 21.2185 6.63614C21.3285 6.62662 21.4315 6.57863 21.5095 6.50063L23.287 4.72641L25.2736 6.71297L23.4994 8.49047C23.4214 8.56849 23.3734 8.67154 23.3639 8.78146C23.3543 8.89138 23.3839 9.00113 23.4473 9.09141C24.3106 10.3204 24.8923 11.7247 25.1508 13.2042C25.1695 13.3132 25.226 13.412 25.3105 13.4833C25.395 13.5546 25.502 13.5937 25.6125 13.5938H28.125V16.4062H25.6125C25.502 16.4063 25.395 16.4454 25.3105 16.5167C25.226 16.588 25.1695 16.6868 25.1508 16.7958V16.7981Z" fill="#1F1F1F"/>
  <path d="M26.2697 26.9325C26.3581 27.0179 26.4765 27.0651 26.5994 27.0641C26.7223 27.063 26.8399 27.0137 26.9268 26.9268C27.0137 26.8399 27.063 26.7223 27.064 26.5994C27.0651 26.4765 27.0179 26.3581 26.9325 26.2697L26.6011 25.9378C26.5131 25.8499 26.3938 25.8004 26.2694 25.8004C26.145 25.8004 26.0257 25.8499 25.9378 25.9378C25.8498 26.0258 25.8004 26.1451 25.8004 26.2695C25.8004 26.3938 25.8498 26.5131 25.9378 26.6011L26.2697 26.9325Z" fill="#1F1F1F"/>
</svg>
