<svg xmlns="http://www.w3.org/2000/svg" width="11.656" height="15.28" viewBox="0 0 11.656 15.28">
  <g id="ruble" transform="translate(0 0)">
    <path d="M167.854,128.533h-4.53a.846.846,0,0,0-.846.846v6.4h-.966a.846.846,0,1,0,0,1.691h.966V139.4h-.966a.846.846,0,1,0,0,1.691h.966v1.872a.846.846,0,0,0,1.692,0V141.1h3.684a.846.846,0,1,0,0-1.691H164.17v-1.932h3.684a4.469,4.469,0,1,0,0-8.939Zm0,7.247H164.17v-5.556h3.684a2.778,2.778,0,1,1,0,5.556Z" transform="translate(-160.667 -128.533)" fill="currentColor"/>
  </g>
</svg>
