<svg xmlns="http://www.w3.org/2000/svg" fill="none" viewBox="0 0 17 17">
  <defs/>
  <path fill="#fff" stroke="#fff" stroke-width=".3" d="M10.29 3.64h0c.65-.65 1.7-.65 2.36 0l.71.71-3.07-.71zm0 0l-6.44 6.44m6.44-6.44l-6.44 6.44m-.96 4.03h0a.49.49 0 01-.12-.48m.12.48l.98-3.78-.15-.04-.95 3.34m.12.48a.49.49 0 00.48.12s0 0 0 0l3.34-.95-.04-.15.04.15h0a.49.49 0 00.21-.13l-.1-.1M2.89 14.1l3.93-1.06m-4.05.58l.14.04-.14-.04h0zm1.08-3.55h0l.1.1-.1-.1zm2.97 2.97l.1.1 6.44-6.44-6.54 6.34zm7.03-7.52c0 .45-.17.87-.49 1.18l.49-1.18zm0 0c0-.44-.17-.86-.49-1.18l.49 1.18zm-1.18-.49h0c.13.13.2.3.2.5a.7.7 0 01-.2.48s0 0 0 0l-.6.61-1.7-1.7.6-.6a.7.7 0 01.99 0s0 0 0 0l.71.71zm-1.3 2.28l-5.05 5.05-2.37.68.67-2.37 5.06-5.05 1.7 1.7z"/>
</svg>
