<svg width="20" height="20" viewBox="0 0 20 20" fill="none" xmlns="http://www.w3.org/2000/svg">
<g clip-path="url(#clip0)">
<path d="M19.9619 3.90547C19.2133 4.22937 18.4205 4.44328 17.6088 4.54034C18.4644 4.03484 19.105 3.24128 19.4119 2.3066C18.6025 2.76861 17.7217 3.09676 16.8044 3.27798C16.1875 2.62924 15.3704 2.19902 14.4798 2.05407C13.5891 1.90911 12.6748 2.05753 11.8786 2.47629C11.0824 2.89505 10.4489 3.56075 10.0764 4.37009C9.70381 5.17943 9.61303 6.08718 9.81813 6.95249C6.41 6.79562 3.38875 5.18383 1.36813 2.74892C1.0003 3.36465 0.807922 4.0666 0.81125 4.78088C0.810749 5.44489 0.97684 6.09875 1.29478 6.68439C1.61271 7.27003 2.07265 7.76933 2.63375 8.13795C1.98352 8.1186 1.34744 7.94626 0.77875 7.63534V7.68394C0.778551 8.61596 1.10576 9.51938 1.70491 10.2411C2.30406 10.9628 3.1383 11.4584 4.06625 11.6439C3.71475 11.7363 3.35258 11.7837 2.98875 11.7848C2.72563 11.7848 2.47438 11.7596 2.22375 11.714C2.48783 12.5161 2.99938 13.2171 3.68719 13.7196C4.37501 14.222 5.20486 14.5009 6.06125 14.5174C4.61026 15.6359 2.81987 16.2427 0.976875 16.2406C0.650441 16.2418 0.324226 16.2238 0 16.1864C1.88006 17.3722 4.06648 18.0016 6.29938 18C13.8413 18 17.9625 11.8512 17.9625 6.52616C17.9625 6.35637 17.9625 6.18351 17.9494 6.01002C18.7556 5.44131 19.4503 4.73348 20 3.92085L19.9619 3.90547Z" fill="currentColor"/>
</g>
<defs>
<clipPath id="clip0">
<rect width="20" height="20" fill="white"/>
</clipPath>
</defs>
</svg>
