<svg width="20" height="20" viewBox="0 0 20 20" fill="none" xmlns="http://www.w3.org/2000/svg">
<path d="M19.5414 5.6772C19.6812 5.28651 19.5414 5 18.8807 5H16.6919C16.135 5 15.8805 5.24786 15.7407 5.52008C15.7407 5.52008 14.6279 7.80457 13.0509 9.28583C12.5419 9.71685 12.3093 9.85297 12.0319 9.85297C11.8931 9.85297 11.6915 9.71685 11.6915 9.32616V5.6772C11.6915 5.20837 11.5308 5 11.0667 5H7.62734C7.28001 5 7.07041 5.21677 7.07041 5.42346C7.07041 5.86708 7.85889 5.96959 7.93974 7.21979V9.93194C7.93974 10.526 7.81298 10.6343 7.53352 10.6343C6.79194 10.6343 4.98741 8.34146 3.91647 5.71669C3.70787 5.20669 3.49728 5.00084 2.93835 5.00084H0.750557C0.12476 5.00084 0 5.2487 0 5.52092C0 6.00991 0.741575 8.42968 3.45436 11.63C5.26288 13.8153 7.80899 15 10.1285 15C11.5189 15 11.6905 14.737 11.6905 14.2833V12.6315C11.6905 12.1055 11.8233 11.9997 12.2634 11.9997C12.5868 11.9997 13.1437 12.1375 14.4422 13.1902C15.9254 14.4387 16.1709 14.9992 17.0043 14.9992H19.1921C19.8169 14.9992 20.1293 14.7362 19.9497 14.2169C19.753 13.7002 19.0444 12.9482 18.1042 12.0585C17.5932 11.551 16.8296 11.0049 16.5971 10.7318C16.2727 10.3798 16.3665 10.2243 16.5971 9.91178C16.5981 9.91262 19.264 6.75181 19.5414 5.6772Z" fill="currentColor"/>
</svg>
