<svg width="20" height="20" viewBox="0 0 20 20" fill="none" xmlns="http://www.w3.org/2000/svg">
<path d="M19.5826 5.18694C19.4687 4.76346 19.2455 4.37727 18.9353 4.06702C18.625 3.75677 18.2386 3.53335 17.8147 3.41911C16.2545 3 10 3 10 3C10 3 3.74554 3 2.18527 3.41688C1.76121 3.53075 1.37461 3.75405 1.0643 4.06436C0.753989 4.37466 0.530891 4.76105 0.417411 5.18471C-8.51495e-08 6.74522 0 10 0 10C0 10 -8.51495e-08 13.2548 0.417411 14.8131C0.647321 15.6736 1.32589 16.3513 2.18527 16.5809C3.74554 17 10 17 10 17C10 17 16.2545 17 17.8147 16.5809C18.6763 16.3513 19.3527 15.6736 19.5826 14.8131C20 13.2548 20 10 20 10C20 10 20 6.74522 19.5826 5.18694ZM8.01339 12.9873V7.01274L13.192 9.97771L8.01339 12.9873Z" fill="currentColor"/>
</svg>
