<svg xmlns="http://www.w3.org/2000/svg" width="40" height="40" viewBox="0 0 40 40">
  <g transform="translate(16.255 14.178)">
    <circle cx="20" cy="20" r="20" transform="translate(-16.255 -14.178)" fill="#fff" opacity="0.8"/>
    <g transform="translate(0 0)">
      <g transform="translate(0)">
        <path d="M6.558,7.029l-4.24,4.858a1.326,1.326,0,0,1-1.863.131,1.308,1.308,0,0,1-.132-1.852l3.489-4-3.486-4A1.314,1.314,0,0,1,1.323,0a1.321,1.321,0,0,1,1,.453L6.559,5.309A1.307,1.307,0,0,1,6.558,7.029Z" fill="#6a6961"/>
      </g>
    </g>
    <path d="M.458.321A1.308,1.308,0,0,0,.326,2.173L3.812,6.168l-3.489,4a1.308,1.308,0,0,0,.132,1.852,1.326,1.326,0,0,0,1.863-.131l4.24-4.858a1.307,1.307,0,0,0,0-1.721L2.321.453A1.326,1.326,0,0,0,.458.321Z" transform="translate(0 0)" fill="#6a6961"/>
  </g>
</svg>
