<svg xmlns="http://www.w3.org/2000/svg" width="15" height="15" viewBox="0 0 15 15"><g><g><path fill="#1f627c" d="M12.426 7.176a.9.9 0 0 0-.894-.907H8.847V3.55a.9.9 0 0 0-.895-.906.9.9 0 0 0-.894.907v3.626a.9.9 0 0 0 .894.906h3.58a.9.9 0 0 0 .894-.906zm-4.474 5.44c-2.96 0-5.369-2.44-5.369-5.44 0-3 2.409-5.44 5.37-5.44 2.96 0 5.368 2.44 5.368 5.44 0 3-2.408 5.44-5.369 5.44zm0-12.693C4-.077.794 3.171.794 7.176s3.204 7.253 7.158 7.253 7.16-3.248 7.16-7.253c0-4.006-3.206-7.253-7.16-7.253z"/></g></g></svg>