<svg xmlns="http://www.w3.org/2000/svg" fill="none" viewBox="0 0 64 13">
  <defs/>
  <path fill="#1F1F1F" d="M37.06 9.3h-6.93l-1.49 3.33h-1.37L32.95.15h1.3l5.68 12.48h-1.38l-1.5-3.34zm-.48-1.07l-2.99-6.7-2.98 6.7h5.97zM58.01 1.29h-4.37V.15H63.7v1.14h-4.37v11.34h-1.31V1.29zM50.48 12.63l-2.84-4.01c-.32.03-.65.05-1 .05H43.3v3.96H42V.15h4.65a5.6 5.6 0 013.73 1.14c.9.76 1.35 1.8 1.35 3.14 0 .97-.25 1.8-.75 2.48a4.05 4.05 0 01-2.09 1.44l3.04 4.28h-1.44zM46.6 7.55c1.23 0 2.17-.28 2.82-.82.65-.55.98-1.32.98-2.3 0-1.01-.33-1.79-.98-2.32-.65-.55-1.6-.82-2.82-.82h-3.3v6.26h3.3zM22.02 12.63l-3-4.33-2.95 4.33h-3.3l4.6-6.35L13 .15h3.26l2.86 4.05 2.8-4.05h3.11L20.7 6.17l4.64 6.46h-3.32zM5.89 12.84c-1.78 0-3.16-.5-4.16-1.48C.75 10.38.26 8.96.26 7.14v-7h2.87v6.9c0 2.23.93 3.34 2.77 3.34.9 0 1.59-.27 2.06-.8.48-.55.71-1.4.71-2.55V.15h2.85v6.99c0 1.83-.5 3.24-1.5 4.22-.98.99-2.36 1.48-4.13 1.48z"/>
</svg>
