<svg xmlns="http://www.w3.org/2000/svg" width="20.415" height="18.517" viewBox="0 0 20.415 18.517">
  <path id="favorite" d="M14.464,22.543a5.887,5.887,0,0,0-2.7.649,6,6,0,0,0-1.552,1.144,6,6,0,0,0-1.552-1.144,5.887,5.887,0,0,0-2.7-.649A5.958,5.958,0,0,0,0,28.494c0,2.324,1.228,4.793,3.649,7.337a35.28,35.28,0,0,0,6.216,5.007l.343.221.343-.221a35.28,35.28,0,0,0,6.216-5.007c2.421-2.544,3.648-5.013,3.648-7.337A5.958,5.958,0,0,0,14.464,22.543Z" transform="translate(0 -22.543)" fill="#dd483e"/>
</svg>
