<svg xmlns="http://www.w3.org/2000/svg" width="20.13" height="18.259" viewBox="0 0 20.13 18.259">
  <path id="favorite" d="M14.261,22.543a5.8,5.8,0,0,0-2.666.64,5.914,5.914,0,0,0-1.53,1.128,5.914,5.914,0,0,0-1.53-1.128,5.805,5.805,0,0,0-2.666-.64A5.875,5.875,0,0,0,0,28.411c0,2.292,1.21,4.726,3.6,7.235a34.787,34.787,0,0,0,6.129,4.937l.338.218.338-.218a34.787,34.787,0,0,0,6.129-4.937c2.387-2.509,3.6-4.943,3.6-7.235A5.875,5.875,0,0,0,14.261,22.543ZM15.63,34.788a32.926,32.926,0,0,1-5.565,4.529A32.926,32.926,0,0,1,4.5,34.788c-2.16-2.27-3.254-4.415-3.254-6.377a4.623,4.623,0,0,1,8.322-2.774l.5.663.5-.663a4.623,4.623,0,0,1,8.322,2.774C18.885,30.373,17.79,32.518,15.63,34.788Z" transform="translate(0 -22.543)" fill="#dd483e"/>
</svg>
