<svg width="42" height="51" viewBox="0 0 42 51" fill="none" xmlns="http://www.w3.org/2000/svg">
  <path fill-rule="evenodd" clip-rule="evenodd" d="M0 9.27273C0 4.15154 4.17868 0 9.33333 0H28.8007C31.276 0 33.65 0.976946 35.4003 2.71592L39.2663 6.55681C41.0167 8.29578 42 10.6543 42 13.1136V41.7273C42 46.8485 37.8213 51 32.6667 51H9.33333C4.17868 51 0 46.8485 0 41.7273V9.27273ZM37.3333 16.2273V41.7273C37.3333 44.2879 35.244 46.3636 32.6667 46.3636H9.33333C6.756 46.3636 4.66667 44.2879 4.66667 41.7273V9.27273C4.66667 6.71213 6.756 4.63636 9.33333 4.63636H25.6667V9.27273C25.6667 13.1136 28.8007 16.2273 32.6667 16.2273H37.3333ZM37.0745 11.5909C36.8453 10.9362 36.4692 10.3346 35.9665 9.83522L32.1005 5.99432C31.5978 5.49491 30.9923 5.12119 30.3333 4.89354V9.27273C30.3333 10.553 31.378 11.5909 32.6667 11.5909H37.0745Z" fill="url(#paint0_linear)" fill-opacity="0.5"/>
  <defs>
    <linearGradient id="paint0_linear" x1="21" y1="0" x2="21" y2="51" gradientUnits="userSpaceOnUse">
      <stop stop-color="#DA0052"/>
      <stop offset="1" stop-color="#5F00BD"/>
    </linearGradient>
  </defs>
</svg>
