<svg width="160" height="106" viewBox="0 0 160 106" fill="none"
  xmlns="http://www.w3.org/2000/svg">
  <path d="M103.53 36.8702C103 36.8702 102.491 36.6595 102.116 36.2844C101.741 35.9093 101.53 35.4006 101.53 34.8702V7.94019C101.528 7.07997 101.184 6.25589 100.575 5.64856C99.9655 5.04123 99.1404 4.70019 98.2802 4.7002H58.1502C57.2917 4.70283 56.4691 5.04503 55.862 5.65208C55.255 6.25913 54.9128 7.0817 54.9102 7.94019V13.9402C54.9102 14.4706 54.6994 14.9793 54.3244 15.3544C53.9493 15.7295 53.4406 15.9402 52.9102 15.9402C52.3797 15.9402 51.871 15.7295 51.4959 15.3544C51.1209 14.9793 50.9102 14.4706 50.9102 13.9402V7.94019C50.9128 6.02084 51.6764 4.18085 53.0336 2.82366C54.3908 1.46647 56.2308 0.702841 58.1502 0.700195H98.2802C100.201 0.700193 102.044 1.46266 103.403 2.82013C104.763 4.17761 105.528 6.01911 105.53 7.94019V34.8702C105.53 35.4006 105.319 35.9093 104.944 36.2844C104.569 36.6595 104.061 36.8702 103.53 36.8702Z" fill="black"/>
  <path d="M52.9102 60.0703C52.3797 60.0703 51.871 59.8596 51.4959 59.4845C51.1209 59.1095 50.9102 58.6007 50.9102 58.0703V41.8203C50.9102 41.2899 51.1209 40.7812 51.4959 40.4061C51.871 40.031 52.3797 39.8203 52.9102 39.8203C53.4406 39.8203 53.9493 40.031 54.3244 40.4061C54.6994 40.7812 54.9102 41.2899 54.9102 41.8203V58.0703C54.9102 58.6007 54.6994 59.1095 54.3244 59.4845C53.9493 59.8596 53.4406 60.0703 52.9102 60.0703Z" fill="black"/>
  <path d="M98.2802 105.301H58.1502C56.2308 105.298 54.3908 104.534 53.0336 103.177C51.6764 101.82 50.9128 99.98 50.9102 98.0607V80.0007C50.9102 79.4702 51.1209 78.9615 51.4959 78.5864C51.871 78.2114 52.3797 78.0007 52.9102 78.0007C53.4406 78.0007 53.9493 78.2114 54.3244 78.5864C54.6994 78.9615 54.9102 79.4702 54.9102 80.0007V98.0807C54.9128 98.9392 55.255 99.7617 55.862 100.369C56.4691 100.976 57.2917 101.318 58.1502 101.321H98.2802C99.1404 101.321 99.9655 100.98 100.575 100.372C101.184 99.765 101.528 98.9409 101.53 98.0807V57.4307C101.53 56.9002 101.741 56.3915 102.116 56.0164C102.491 55.6414 103 55.4307 103.53 55.4307C104.061 55.4307 104.569 55.6414 104.944 56.0164C105.319 56.3915 105.53 56.9002 105.53 57.4307V98.0607C105.528 99.9817 104.763 101.823 103.403 103.181C102.044 104.538 100.201 105.301 98.2802 105.301Z" fill="black"/>
  <path d="M87.5701 9.87012H68.8701C68.3397 9.87012 67.831 9.6594 67.4559 9.28433C67.0808 8.90926 66.8701 8.40055 66.8701 7.87012C66.8701 7.33968 67.0808 6.83098 67.4559 6.45591C67.831 6.08083 68.3397 5.87012 68.8701 5.87012H87.5701C88.1005 5.87012 88.6093 6.08083 88.9843 6.45591C89.3594 6.83098 89.5701 7.33968 89.5701 7.87012C89.5701 8.40055 89.3594 8.90926 88.9843 9.28433C88.6093 9.6594 88.1005 9.87012 87.5701 9.87012Z" fill="black"/>
  <path d="M70.0001 51.5204C69.5628 51.5196 69.1378 51.3756 68.7901 51.1104L59.1701 43.8204H26.2201C24.0709 43.8177 22.0107 42.9621 20.4919 41.4415C18.9732 39.9208 18.1201 37.8595 18.1201 35.7104V20.7104C18.1201 18.5621 18.9735 16.5018 20.4926 14.9828C22.0116 13.4637 24.0719 12.6104 26.2201 12.6104H63.8801C64.9477 12.609 66.005 12.8185 66.9914 13.2267C67.9778 13.635 68.8739 14.2339 69.6283 14.9892C70.3827 15.7446 70.9806 16.6414 71.3876 17.6283C71.7946 18.6153 72.0028 19.6728 72.0001 20.7404V49.5204C71.9999 49.8924 71.8959 50.2571 71.6998 50.5733C71.5037 50.8895 71.2233 51.1448 70.8901 51.3104C70.6136 51.4481 70.309 51.52 70.0001 51.5204ZM26.2201 16.6404C25.1335 16.643 24.0922 17.0758 23.3239 17.8441C22.5556 18.6125 22.1228 19.6538 22.1201 20.7404V35.7404C22.1201 36.8287 22.5518 37.8725 23.3204 38.643C24.089 39.4135 25.1318 39.8477 26.2201 39.8504H59.8301C60.2674 39.8511 60.6925 39.9951 61.0401 40.2604L68.0001 45.4904V20.7404C67.9975 19.6521 67.5633 18.6092 66.7928 17.8406C66.0223 17.072 64.9784 16.6404 63.8901 16.6404H26.2201Z" fill="black"/>
  <path d="M69.9998 89.6803C69.5625 89.6796 69.1375 89.5356 68.7898 89.2703L59.1598 82.0003H8.1598C6.00971 81.9977 3.94844 81.1424 2.42809 79.622C0.907745 78.1017 0.052451 76.0404 0.0498047 73.8903V64.1803C0.052451 62.0302 0.907745 59.9689 2.42809 58.4486C3.94844 56.9283 6.00971 56.073 8.1598 56.0703H63.8798C66.0316 56.0703 68.0955 56.9244 69.618 58.4451C71.1405 59.9657 71.9972 62.0285 71.9998 64.1803V87.6803C71.9996 88.0524 71.8956 88.417 71.6995 88.7333C71.5034 89.0495 71.223 89.3047 70.8898 89.4703C70.6133 89.6081 70.3087 89.68 69.9998 89.6803ZM8.1598 60.0703C7.07058 60.073 6.02672 60.5068 5.25651 61.277C4.48631 62.0472 4.05245 63.0911 4.0498 64.1803V73.8703C4.04717 74.4117 4.15153 74.9483 4.3569 75.4493C4.56227 75.9502 4.86459 76.4057 5.2465 76.7895C5.62841 77.1732 6.08239 77.4778 6.58234 77.6856C7.0823 77.8934 7.61838 78.0003 8.1598 78.0003H59.8298C60.266 77.9981 60.6909 78.1386 61.0398 78.4003L67.9998 83.6503V64.1803C67.9972 63.0911 67.5633 62.0472 66.7931 61.277C66.0229 60.5068 64.979 60.073 63.8898 60.0703H8.1598Z" fill="black"/>
  <path d="M93.6699 66.6697C93.1395 66.6697 92.6308 66.459 92.2557 66.084C91.8806 65.7089 91.6699 65.2002 91.6699 64.6697V40.9997C91.6726 38.8497 92.5279 36.7884 94.0482 35.268C95.5686 33.7477 97.6298 32.8924 99.7799 32.8897H151.84C152.909 32.8845 153.968 33.0903 154.957 33.4954C155.946 33.9005 156.846 34.4968 157.604 35.2503C158.362 36.0038 158.964 36.8995 159.375 37.8862C159.786 38.8728 159.999 39.9309 160 40.9997V50.8797C160 51.9495 159.789 53.0086 159.378 53.9964C158.967 54.9842 158.366 55.8811 157.608 56.6356C156.849 57.3902 155.949 57.9875 154.96 58.3932C153.97 58.7989 152.91 59.005 151.84 58.9997H104.5L94.8799 66.2897C94.5285 66.5443 94.1038 66.6777 93.6699 66.6697ZM99.7799 36.8697C99.2389 36.8711 98.7034 36.9789 98.204 37.1872C97.7047 37.3954 97.2512 37.7 96.8696 38.0835C96.4879 38.467 96.1855 38.922 95.9797 39.4223C95.7739 39.9227 95.6686 40.4587 95.6699 40.9997V60.6397L102.67 55.3797C103.013 55.1125 103.435 54.9681 103.87 54.9697H151.87C152.411 54.9724 152.948 54.868 153.449 54.6627C153.95 54.4573 154.405 54.155 154.789 53.773C155.173 53.3911 155.477 52.9372 155.685 52.4372C155.893 51.9373 156 51.4012 156 50.8597V40.9997C156 39.9097 155.567 38.8643 154.796 38.0935C154.025 37.3228 152.98 36.8897 151.89 36.8897L99.7799 36.8697Z" fill="black"/>
  <path d="M142.34 67.7305H127.09C126.559 67.7305 126.051 67.5197 125.676 67.1447C125.301 66.7696 125.09 66.2609 125.09 65.7305C125.09 65.2 125.301 64.6913 125.676 64.3163C126.051 63.9412 126.559 63.7305 127.09 63.7305H142.34C142.87 63.7305 143.379 63.9412 143.754 64.3163C144.129 64.6913 144.34 65.2 144.34 65.7305C144.34 66.2609 144.129 66.7696 143.754 67.1447C143.379 67.5197 142.87 67.7305 142.34 67.7305Z" fill="black"/>
  <path d="M152.8 67.7305H149.22C148.689 67.7305 148.181 67.5197 147.806 67.1447C147.43 66.7696 147.22 66.2609 147.22 65.7305C147.22 65.2 147.43 64.6913 147.806 64.3163C148.181 63.9412 148.689 63.7305 149.22 63.7305H152.8C153.33 63.7305 153.839 63.9412 154.214 64.3163C154.589 64.6913 154.8 65.2 154.8 65.7305C154.8 66.2609 154.589 66.7696 154.214 67.1447C153.839 67.5197 153.33 67.7305 152.8 67.7305Z" fill="black"/>
  <path d="M11.3896 32.3503C10.8592 32.3503 10.3505 32.1396 9.97543 31.7646C9.60036 31.3895 9.38965 30.8808 9.38965 30.3503V21.1104C9.38965 20.5799 9.60036 20.0712 9.97543 19.6961C10.3505 19.3211 10.8592 19.1104 11.3896 19.1104C11.9201 19.1104 12.4288 19.3211 12.8039 19.6961C13.1789 20.0712 13.3896 20.5799 13.3896 21.1104V30.3503C13.3896 30.8808 13.1789 31.3895 12.8039 31.7646C12.4288 32.1396 11.9201 32.3503 11.3896 32.3503Z" fill="black"/>
  <path d="M11.3896 39.5304C10.8592 39.5304 10.3505 39.3197 9.97543 38.9446C9.60036 38.5696 9.38965 38.0609 9.38965 37.5304V35.6904C9.38965 35.16 9.60036 34.6513 9.97543 34.2762C10.3505 33.9011 10.8592 33.6904 11.3896 33.6904C11.9201 33.6904 12.4288 33.9011 12.8039 34.2762C13.1789 34.6513 13.3896 35.16 13.3896 35.6904V37.5304C13.3896 38.0609 13.1789 38.5696 12.8039 38.9446C12.4288 39.3197 11.9201 39.5304 11.3896 39.5304Z" fill="black"/>
  <path d="M56.3994 25H27.3994C26.869 25 26.3603 24.7893 25.9852 24.4142C25.6101 24.0391 25.3994 23.5304 25.3994 23C25.3994 22.4696 25.6101 21.9609 25.9852 21.5858C26.3603 21.2107 26.869 21 27.3994 21H56.3994C56.9298 21 57.4386 21.2107 57.8136 21.5858C58.1887 21.9609 58.3994 22.4696 58.3994 23C58.3994 23.5304 58.1887 24.0391 57.8136 24.4142C57.4386 24.7893 56.9298 25 56.3994 25Z" fill="black"/>
  <path d="M47.6694 33.7197H27.3594C26.8289 33.7197 26.3202 33.509 25.9452 33.1339C25.5701 32.7589 25.3594 32.2502 25.3594 31.7197C25.3594 31.1893 25.5701 30.6806 25.9452 30.3055C26.3202 29.9304 26.8289 29.7197 27.3594 29.7197H47.6694C48.1998 29.7197 48.7085 29.9304 49.0836 30.3055C49.4587 30.6806 49.6694 31.1893 49.6694 31.7197C49.6694 32.2502 49.4587 32.7589 49.0836 33.1339C48.7085 33.509 48.1998 33.7197 47.6694 33.7197Z" fill="black"/>
  <path d="M22.9997 66.1807H10.4297C9.89925 66.1807 9.39055 65.97 9.01547 65.5949C8.6404 65.2198 8.42969 64.7111 8.42969 64.1807C8.42969 63.6502 8.6404 63.1415 9.01547 62.7664C9.39055 62.3914 9.89925 62.1807 10.4297 62.1807H22.9997C23.5301 62.1807 24.0388 62.3914 24.4139 62.7664C24.789 63.1415 24.9997 63.6502 24.9997 64.1807C24.9997 64.7111 24.789 65.2198 24.4139 65.5949C24.0388 65.97 23.5301 66.1807 22.9997 66.1807Z" fill="black"/>
  <path d="M59.5702 66.1807H30.7402C30.2098 66.1807 29.7011 65.97 29.326 65.5949C28.9509 65.2198 28.7402 64.7111 28.7402 64.1807C28.7402 63.6502 28.9509 63.1415 29.326 62.7664C29.7011 62.3914 30.2098 62.1807 30.7402 62.1807H59.5702C60.1007 62.1807 60.6094 62.3914 60.9845 62.7664C61.3595 63.1415 61.5702 63.6502 61.5702 64.1807C61.5702 64.7111 61.3595 65.2198 60.9845 65.5949C60.6094 65.97 60.1007 66.1807 59.5702 66.1807Z" fill="black"/>
  <path d="M30.7397 74.9102H10.4297C9.89925 74.9102 9.39055 74.6994 9.01547 74.3244C8.6404 73.9493 8.42969 73.4406 8.42969 72.9102C8.42969 72.3797 8.6404 71.871 9.01547 71.4959C9.39055 71.1209 9.89925 70.9102 10.4297 70.9102H30.7397C31.2701 70.9102 31.7788 71.1209 32.1539 71.4959C32.529 71.871 32.7397 72.3797 32.7397 72.9102C32.7397 73.4406 32.529 73.9493 32.1539 74.3244C31.7788 74.6994 31.2701 74.9102 30.7397 74.9102Z" fill="black"/>
  <path d="M135.729 43H106.729C106.199 43 105.69 42.7893 105.315 42.4142C104.94 42.0391 104.729 41.5304 104.729 41C104.729 40.4696 104.94 39.9609 105.315 39.5858C105.69 39.2107 106.199 39 106.729 39H135.729C136.26 39 136.769 39.2107 137.144 39.5858C137.519 39.9609 137.729 40.4696 137.729 41C137.729 41.5304 137.519 42.0391 137.144 42.4142C136.769 42.7893 136.26 43 135.729 43Z" fill="black"/>
  <path d="M126.999 51.7002H106.689C106.159 51.7002 105.65 51.4895 105.275 51.1144C104.9 50.7393 104.689 50.2306 104.689 49.7002C104.689 49.1698 104.9 48.6611 105.275 48.286C105.65 47.9109 106.159 47.7002 106.689 47.7002H126.999C127.53 47.7002 128.039 47.9109 128.414 48.286C128.789 48.6611 128.999 49.1698 128.999 49.7002C128.999 50.2306 128.789 50.7393 128.414 51.1144C128.039 51.4895 127.53 51.7002 126.999 51.7002Z" fill="black"/>
</svg>
