<svg width="160" height="160" viewBox="0 0 160 160" fill="none"
  xmlns="http://www.w3.org/2000/svg">
  <path d="M147.84 111.88C147.31 111.88 146.801 111.67 146.426 111.295C146.051 110.919 145.84 110.411 145.84 109.88C145.84 109.35 146.051 108.841 146.426 108.466C146.801 108.091 147.31 107.88 147.84 107.88C149.086 107.878 150.28 107.382 151.16 106.501C152.041 105.62 152.537 104.426 152.54 103.18V27.5203C152.537 26.2746 152.041 25.0807 151.16 24.1998C150.28 23.319 149.086 22.823 147.84 22.8203H12.16C10.9143 22.823 9.72033 23.319 8.83948 24.1998C7.95863 25.0807 7.4626 26.2746 7.45996 27.5203V103.18C7.4626 104.426 7.95863 105.62 8.83948 106.501C9.72033 107.382 10.9143 107.878 12.16 107.88C12.6904 107.88 13.1991 108.091 13.5742 108.466C13.9492 108.841 14.16 109.35 14.16 109.88C14.16 110.411 13.9492 110.919 13.5742 111.295C13.1991 111.67 12.6904 111.88 12.16 111.88C9.85339 111.878 7.64205 110.96 6.01105 109.329C4.38006 107.698 3.46261 105.487 3.45996 103.18V27.5203C3.46261 25.2137 4.38006 23.0024 6.01105 21.3714C7.64205 19.7404 9.85339 18.823 12.16 18.8203H147.84C150.147 18.823 152.358 19.7404 153.989 21.3714C155.62 23.0024 156.537 25.2137 156.54 27.5203V103.18C156.537 105.487 155.62 107.698 153.989 109.329C152.358 110.96 150.147 111.878 147.84 111.88Z" fill="black"/>
  <path d="M146.93 111.75H133.05C132.52 111.75 132.011 111.54 131.636 111.165C131.261 110.789 131.05 110.281 131.05 109.75C131.05 109.22 131.261 108.711 131.636 108.336C132.011 107.961 132.52 107.75 133.05 107.75H144.93V22.8203H15.0703V107.75H60.9003C61.4307 107.75 61.9395 107.961 62.3145 108.336C62.6896 108.711 62.9003 109.22 62.9003 109.75C62.9003 110.281 62.6896 110.789 62.3145 111.165C61.9395 111.54 61.4307 111.75 60.9003 111.75H13.0703C12.5399 111.75 12.0312 111.54 11.6561 111.165C11.281 110.789 11.0703 110.281 11.0703 109.75V20.8203C11.0703 20.2899 11.281 19.7812 11.6561 19.4061C12.0312 19.031 12.5399 18.8203 13.0703 18.8203H146.93C147.461 18.8203 147.969 19.031 148.345 19.4061C148.72 19.7812 148.93 20.2899 148.93 20.8203V109.75C148.93 110.281 148.72 110.789 148.345 111.165C147.969 111.54 147.461 111.75 146.93 111.75Z" fill="black"/>
  <path d="M70.11 83.3104C69.5713 83.3156 69.037 83.214 68.5379 83.0112C68.0388 82.8084 67.5849 82.5085 67.2026 82.129C66.8203 81.7495 66.5172 81.2978 66.3107 80.8003C66.1043 80.3027 65.9987 79.7691 66 79.2304V51.4504C66.0042 50.7263 66.201 50.0164 66.5702 49.3936C66.9395 48.7707 67.4678 48.2573 68.101 47.9061C68.7341 47.5549 69.4494 47.3786 70.1733 47.3951C70.8971 47.4117 71.6036 47.6206 72.22 48.0004L95.22 61.8404C95.8224 62.2046 96.3206 62.7181 96.6664 63.3312C97.0122 63.9444 97.1939 64.6364 97.1939 65.3404C97.1939 66.0443 97.0122 66.7363 96.6664 67.3495C96.3206 67.9626 95.8224 68.4761 95.22 68.8404L87.48 73.5004C87.0252 73.7749 86.4799 73.8574 85.9642 73.7299C85.4485 73.6024 85.0045 73.2752 84.73 72.8204C84.4555 72.3655 84.3729 71.8202 84.5005 71.3045C84.628 70.7888 84.9552 70.3449 85.41 70.0704L93.19 65.3704L94.19 63.5104L93.19 65.2204L70.19 51.3804L70.06 51.4504V79.2304L70.19 79.3004L74.43 76.7304C74.8835 76.4545 75.4281 76.3702 75.9438 76.4958C76.4595 76.6215 76.9042 76.9468 77.18 77.4004C77.4558 77.8539 77.5402 78.3984 77.4146 78.9141C77.2889 79.4298 76.9635 79.8745 76.51 80.1504L72.26 82.7204C71.6137 83.1168 70.8681 83.3214 70.11 83.3104Z" fill="black"/>
  <path d="M136 13.7002H90.5098C89.9793 13.7002 89.4706 13.4895 89.0956 13.1144C88.7205 12.7393 88.5098 12.2306 88.5098 11.7002C88.5098 11.1698 88.7205 10.6611 89.0956 10.286C89.4706 9.91091 89.9793 9.7002 90.5098 9.7002H136C136.53 9.7002 137.039 9.91091 137.414 10.286C137.789 10.6611 138 11.1698 138 11.7002C138 12.2306 137.789 12.7393 137.414 13.1144C137.039 13.4895 136.53 13.7002 136 13.7002Z" fill="black"/>
  <path d="M79.9997 13.7002H71.4297C70.8993 13.7002 70.3905 13.4895 70.0155 13.1144C69.6404 12.7393 69.4297 12.2306 69.4297 11.7002C69.4297 11.1698 69.6404 10.6611 70.0155 10.286C70.3905 9.91091 70.8993 9.7002 71.4297 9.7002H79.9997C80.5301 9.7002 81.0388 9.91091 81.4139 10.286C81.789 10.6611 81.9997 11.1698 81.9997 11.7002C81.9997 12.2306 81.789 12.7393 81.4139 13.1144C81.0388 13.4895 80.5301 13.7002 79.9997 13.7002Z" fill="black"/>
  <path d="M99.94 82.6301C99.5411 82.631 99.1511 82.5126 98.82 82.2901C98.6025 82.1425 98.4163 81.9534 98.2719 81.7338C98.1276 81.5141 98.028 81.2682 97.9787 81.01C97.9295 80.7518 97.9317 80.4864 97.9851 80.2291C98.0385 79.9717 98.1421 79.7274 98.29 79.5101C98.81 78.7485 99.2906 77.9608 99.73 77.1501C102.948 71.2333 103.891 64.3438 102.38 57.7801C102.303 57.5185 102.28 57.2439 102.312 56.9731C102.345 56.7023 102.433 56.441 102.57 56.2054C102.708 55.9697 102.892 55.7647 103.111 55.6029C103.331 55.441 103.581 55.3258 103.847 55.2644C104.113 55.2029 104.388 55.1964 104.657 55.2453C104.925 55.2943 105.181 55.3976 105.407 55.5489C105.634 55.7003 105.828 55.8964 105.976 56.1254C106.125 56.3543 106.225 56.6111 106.27 56.8801C108.012 64.3917 106.945 72.2813 103.27 79.0601C102.76 79.9801 102.21 80.8901 101.62 81.7601C101.434 82.0325 101.182 82.2545 100.889 82.4063C100.596 82.5581 100.27 82.635 99.94 82.6301Z" fill="black"/>
  <path d="M75.4303 95.57C71.2549 95.5518 67.1242 94.7094 63.2751 93.0912C59.4261 91.4729 55.9343 89.1107 53.0003 86.14C52.8014 85.9562 52.6418 85.734 52.5314 85.4867C52.4209 85.2395 52.3618 84.9724 52.3577 84.7016C52.3535 84.4309 52.4044 84.1621 52.5072 83.9116C52.61 83.661 52.7626 83.434 52.9558 83.2442C53.1489 83.0544 53.3786 82.9059 53.6309 82.8075C53.8832 82.7091 54.1529 82.663 54.4235 82.672C54.6942 82.6809 54.9602 82.7448 55.2054 82.8596C55.4507 82.9744 55.6701 83.1378 55.8503 83.34C57.7663 85.2762 59.9563 86.9204 62.3503 88.22C67.579 91.0764 73.5962 92.1506 79.4903 91.28C79.7529 91.2419 80.0205 91.2559 80.2777 91.3212C80.5349 91.3866 80.7768 91.5019 80.9894 91.6607C81.2021 91.8195 81.3814 92.0186 81.5171 92.2467C81.6528 92.4748 81.7422 92.7273 81.7803 92.99C81.8184 93.2526 81.8043 93.5202 81.739 93.7774C81.6737 94.0346 81.5583 94.2765 81.3996 94.4891C81.2408 94.7018 81.0416 94.8811 80.8136 95.0167C80.5855 95.1524 80.3329 95.2419 80.0703 95.28C78.533 95.4919 76.982 95.5889 75.4303 95.57Z" fill="black"/>
  <path d="M46.0003 67.7304C45.49 67.7313 44.9987 67.5371 44.6269 67.1876C44.2551 66.8381 44.0309 66.3597 44.0003 65.8504C43.6713 60.232 44.8492 54.6278 47.4122 49.6173C49.9752 44.6068 53.8303 40.372 58.5786 37.3509C63.327 34.3298 68.7962 32.632 74.4207 32.4333C80.0451 32.2345 85.6206 33.542 90.5703 36.2204C90.8131 36.3388 91.0294 36.5052 91.2062 36.7095C91.3829 36.9138 91.5165 37.1518 91.5987 37.4091C91.681 37.6664 91.7102 37.9378 91.6847 38.2067C91.6592 38.4757 91.5795 38.7367 91.4504 38.9739C91.3213 39.2112 91.1454 39.4199 90.9334 39.5874C90.7214 39.7548 90.4777 39.8776 90.217 39.9483C89.9562 40.019 89.6839 40.0361 89.4164 39.9987C89.1488 39.9612 88.8916 39.87 88.6603 39.7304C84.3354 37.3825 79.4613 36.2338 74.5431 36.403C69.6249 36.5723 64.8414 38.0535 60.6881 40.6932C56.5348 43.3328 53.1628 47.0349 50.9214 51.416C48.6801 55.7971 47.6508 60.6978 47.9403 65.6104C47.9732 66.1394 47.7947 66.6599 47.4441 67.0574C47.0934 67.4549 46.5993 67.6969 46.0703 67.7304H46.0003Z" fill="black"/>
  <path d="M81.0898 42.6503C80.6108 42.652 80.1471 42.4816 79.783 42.1702C79.419 41.8589 79.1788 41.4272 79.1062 40.9537C79.0335 40.4802 79.1332 39.9963 79.3871 39.5902C79.6411 39.184 80.0324 38.8824 80.4898 38.7403L87.0998 36.6703L85.0998 30.4003C85.0197 30.1502 84.9897 29.8867 85.0114 29.6249C85.0331 29.3631 85.1062 29.1082 85.2265 28.8746C85.3467 28.6411 85.5118 28.4335 85.7123 28.2638C85.9127 28.094 86.1447 27.9654 86.3948 27.8853C86.645 27.8052 86.9085 27.7752 87.1703 27.7969C87.4321 27.8186 87.687 27.8917 87.9205 28.0119C88.1541 28.1322 88.3616 28.2973 88.5314 28.4977C88.7011 28.6982 88.8297 28.9302 88.9098 29.1803L91.5298 37.3603C91.6134 37.6108 91.645 37.8756 91.6227 38.1387C91.6003 38.4018 91.5245 38.6576 91.3998 38.8903C91.2805 39.126 91.1157 39.3357 90.9149 39.5074C90.7141 39.679 90.4812 39.8092 90.2298 39.8903L81.6998 42.5603C81.5032 42.6252 81.2968 42.6556 81.0898 42.6503Z" fill="black"/>
  <path d="M56.7797 95.1702C56.355 95.1713 55.9409 95.0372 55.5975 94.7873C55.2541 94.5374 54.9992 94.1847 54.8697 93.7802L52.2497 85.6002C52.0898 85.1041 52.13 84.5651 52.3616 84.0982C52.5932 83.6312 52.998 83.2731 53.4897 83.1002L61.3797 80.3302C61.8809 80.1551 62.4312 80.1864 62.9094 80.4171C63.3876 80.6477 63.7546 81.0589 63.9297 81.5602C64.1047 82.0614 64.0735 82.6117 63.8428 83.0899C63.6121 83.5681 63.2009 83.9351 62.6997 84.1102L56.6497 86.2302L58.6497 92.5602C58.7307 92.8103 58.7616 93.074 58.7406 93.3361C58.7196 93.5982 58.6471 93.8536 58.5273 94.0877C58.4074 94.3218 58.2426 94.5299 58.0423 94.7002C57.8419 94.8705 57.61 94.9996 57.3597 95.0802C57.1714 95.1366 56.9762 95.1668 56.7797 95.1702Z" fill="black"/>
  <path d="M98.2504 137.8C97.8593 137.8 97.4769 137.686 97.1504 137.47L96.8104 137.24C95.5404 136.4 94.2404 135.53 92.8104 134.68L61.3204 114.75C60.7323 114.365 60.2261 113.868 59.8307 113.286C59.4354 112.705 59.1587 112.052 59.0166 111.363C58.8744 110.675 58.8696 109.965 59.0024 109.275C59.1352 108.584 59.403 107.927 59.7904 107.34C61.3239 105.036 63.7096 103.436 66.423 102.89C69.1364 102.344 71.9554 102.898 74.2604 104.43L81.5004 108.78L71.8104 70.9304C71.5523 69.9277 71.4943 68.8841 71.6396 67.859C71.7849 66.8339 72.1306 65.8475 72.6571 64.9561C73.1837 64.0646 73.8806 63.2856 74.7082 62.6635C75.5357 62.0414 76.4777 61.5884 77.4804 61.3304C78.483 61.0723 79.5267 61.0143 80.5517 61.1596C81.5768 61.3048 82.5632 61.6506 83.4547 62.1771C84.3461 62.7036 85.1251 63.4006 85.7472 64.2281C86.3693 65.0557 86.8223 65.9977 87.0804 67.0004L90.0004 78.3604C90.9767 77.4 92.1865 76.7107 93.5104 76.3604C94.5712 76.1145 95.6726 76.1007 96.7392 76.3199C97.8058 76.5391 98.8125 76.9861 99.6904 77.6304C99.8687 77.7491 100.039 77.8794 100.2 78.0203C101.333 76.2214 103.13 74.9421 105.2 74.4604C106.203 74.2034 107.246 74.1466 108.271 74.293C109.296 74.4394 110.281 74.7863 111.172 75.3137C112.063 75.8412 112.84 76.5389 113.461 77.3671C114.082 78.1953 114.534 79.1376 114.79 80.1404L114.94 80.7404C115.94 79.7977 117.168 79.1322 118.503 78.8097C119.838 78.4873 121.235 78.5191 122.554 78.9019C123.873 79.2848 125.07 80.0054 126.025 80.9926C126.98 81.9798 127.661 83.1992 128 84.5304L135.65 114.43C135.725 114.733 135.782 115.041 135.82 115.35C136.635 119.396 136.377 123.585 135.07 127.5C134.999 127.763 134.875 128.008 134.705 128.22C134.536 128.433 134.325 128.609 134.085 128.737C133.846 128.866 133.582 128.944 133.311 128.967C133.041 128.991 132.768 128.958 132.51 128.872C132.252 128.787 132.014 128.649 131.811 128.468C131.608 128.288 131.444 128.067 131.329 127.821C131.214 127.575 131.15 127.307 131.142 127.036C131.133 126.764 131.181 126.493 131.28 126.24C132.37 122.966 132.581 119.462 131.89 116.08V115.92C131.875 115.755 131.845 115.591 131.8 115.43L124.1 85.5203C123.975 85.0259 123.753 84.5611 123.448 84.1527C123.142 83.7442 122.759 83.4002 122.32 83.1404C121.66 82.7481 120.898 82.5606 120.131 82.6016C119.364 82.6427 118.627 82.9103 118.012 83.3708C117.398 83.8312 116.934 84.4637 116.679 85.1882C116.424 85.9126 116.39 86.6965 116.58 87.4404C116.658 87.6981 116.682 87.9687 116.652 88.2361C116.622 88.5035 116.539 88.7621 116.406 88.9964C116.274 89.2308 116.096 89.436 115.883 89.5999C115.669 89.7638 115.425 89.883 115.165 89.9503C114.904 90.0176 114.633 90.0317 114.367 89.9917C114.101 89.9516 113.846 89.8583 113.616 89.7174C113.387 89.5764 113.189 89.3906 113.033 89.1712C112.878 88.9518 112.768 88.7032 112.71 88.4404L110.85 81.1904C110.594 80.1949 109.953 79.342 109.068 78.8189C108.183 78.2958 107.126 78.1452 106.13 78.4004C105.646 78.4826 105.185 78.6635 104.774 78.9317C104.363 79.2 104.011 79.5499 103.741 79.9597C103.471 80.3695 103.288 80.8305 103.204 81.314C103.119 81.7976 103.135 82.2932 103.25 82.7703C103.289 82.9342 103.31 83.1019 103.31 83.2703C103.311 83.7587 103.134 84.2305 102.811 84.5968C102.488 84.9631 102.042 85.1986 101.557 85.2589C101.073 85.3191 100.583 85.2 100.18 84.924C99.777 84.6479 99.4891 84.234 99.3704 83.7604C99.0461 82.6272 98.3394 81.6413 97.3704 80.9704C96.962 80.6595 96.4926 80.4382 95.9929 80.3211C95.4932 80.2039 94.9744 80.1934 94.4704 80.2904C93.48 80.5517 92.6322 81.1923 92.1101 82.0736C91.5881 82.9549 91.4337 84.0062 91.6804 85.0004C91.7575 85.2581 91.7819 85.5288 91.752 85.7961C91.7221 86.0635 91.6386 86.3221 91.5064 86.5564C91.3742 86.7908 91.1962 86.996 90.9828 87.1599C90.7695 87.3238 90.5252 87.443 90.2647 87.5103C90.0043 87.5776 89.7329 87.5917 89.4668 87.5517C89.2008 87.5116 88.9455 87.4184 88.7164 87.2774C88.4872 87.1364 88.2889 86.9506 88.1332 86.7312C87.9775 86.5118 87.8677 86.2632 87.8104 86.0004L83.2104 68.0004C83.0843 67.5066 82.8622 67.0425 82.5568 66.6345C82.2514 66.2266 81.8686 65.8828 81.4303 65.6228C80.992 65.3628 80.5068 65.1917 80.0023 65.1192C79.4979 65.0467 78.9841 65.0743 78.4904 65.2004C77.9966 65.3264 77.5325 65.5485 77.1246 65.8539C76.7166 66.1594 76.3728 66.5422 76.1128 66.9805C75.8528 67.4187 75.6817 67.904 75.6092 68.4084C75.5367 68.9128 75.5643 69.4266 75.6904 69.9204L86.5804 112.5C86.6849 112.889 86.6697 113.3 86.5368 113.68C86.4038 114.06 86.1593 114.391 85.8352 114.63C85.5111 114.869 85.1225 115.004 84.7202 115.019C84.3179 115.033 83.9206 114.925 83.5804 114.71L72.0804 107.8C71.376 107.32 70.5833 106.984 69.7482 106.812C68.9131 106.64 68.0522 106.635 67.2153 106.798C66.3783 106.961 65.582 107.288 64.8722 107.76C64.1625 108.233 63.5535 108.841 63.0804 109.55C62.9832 109.694 62.9156 109.856 62.8816 110.027C62.8475 110.197 62.8477 110.373 62.8822 110.543C62.9166 110.713 62.9846 110.875 63.0821 111.019C63.1797 111.162 63.3049 111.285 63.4504 111.38L95.0004 131.29C96.4204 132.17 97.7504 133.05 99.0004 133.91L99.3404 134.14C99.6957 134.379 99.9651 134.726 100.109 135.129C100.253 135.532 100.263 135.971 100.139 136.381C100.015 136.791 99.762 137.15 99.4185 137.405C99.075 137.661 98.6585 137.799 98.2304 137.8H98.2504Z" fill="black"/>
  <path d="M91.9998 96.43C91.5562 96.428 91.1258 96.2786 90.7764 96.0052C90.4271 95.7319 90.1785 95.3501 90.0698 94.92L84.5098 73.2C84.4326 72.9423 84.4083 72.6716 84.4382 72.4043C84.4681 72.1369 84.5516 71.8783 84.6837 71.644C84.8159 71.4096 84.994 71.2044 85.2074 71.0405C85.4207 70.8766 85.6649 70.7574 85.9254 70.6901C86.1859 70.6228 86.4573 70.6087 86.7233 70.6487C86.9894 70.6888 87.2446 70.782 87.4738 70.923C87.7029 71.064 87.9013 71.2498 88.0569 71.4692C88.2126 71.6886 88.3224 71.9372 88.3798 72.2L93.9398 93.92C94.0703 94.4332 93.992 94.9772 93.7221 95.4327C93.4522 95.8882 93.0126 96.2181 92.4998 96.35C92.338 96.4011 92.1695 96.428 91.9998 96.43Z" fill="black"/>
  <path d="M103.9 95.5502C103.456 95.5393 103.029 95.3811 102.685 95.1005C102.341 94.8199 102.1 94.4328 102 94.0002L99.2003 83.0002C99.09 82.4948 99.1798 81.9663 99.4509 81.5257C99.7219 81.0852 100.153 80.7667 100.654 80.6373C101.155 80.5079 101.686 80.5776 102.137 80.8317C102.587 81.0858 102.922 81.5046 103.07 82.0002L105.87 93.0002C106.001 93.5133 105.923 94.0573 105.653 94.5128C105.383 94.9684 104.943 95.2982 104.43 95.4302C104.261 95.4978 104.082 95.5383 103.9 95.5502Z" fill="black"/>
  <path d="M115.81 94.6701C115.366 94.6681 114.936 94.5187 114.586 94.2453C114.237 93.972 113.988 93.5902 113.88 93.1601L110.55 80.1601C110.417 79.6456 110.494 79.0995 110.764 78.6419C111.034 78.1843 111.475 77.8527 111.99 77.7201C112.504 77.5875 113.05 77.6647 113.508 77.9348C113.966 78.2049 114.297 78.6456 114.43 79.1601L117.75 92.1601C117.88 92.6733 117.802 93.2173 117.532 93.6728C117.262 94.1283 116.823 94.4582 116.31 94.5901C116.148 94.6412 115.979 94.6681 115.81 94.6701Z" fill="black"/>
  <path d="M96.8702 158.66C96.4262 158.661 95.9946 158.514 95.6433 158.242C95.2921 157.971 95.0412 157.59 94.9302 157.16L90.0002 137.91C89.8697 137.397 89.948 136.853 90.2179 136.397C90.4878 135.942 90.9274 135.612 91.4402 135.48L135.21 124.28C135.723 124.149 136.267 124.228 136.723 124.498C137.178 124.768 137.508 125.207 137.64 125.72L142.58 145C142.711 145.513 142.632 146.057 142.363 146.513C142.093 146.968 141.653 147.298 141.14 147.43L97.3702 158.6C97.2064 158.639 97.0386 158.659 96.8702 158.66ZM94.3802 138.86L98.3102 154.23L138.21 144L134.27 128.63L94.3802 138.86Z" fill="black"/>
  <path d="M33.6201 122.05H14.6201C14.0897 122.05 13.581 121.84 13.2059 121.465C12.8308 121.089 12.6201 120.581 12.6201 120.05C12.6201 119.52 12.8308 119.011 13.2059 118.636C13.581 118.261 14.0897 118.05 14.6201 118.05H33.6201C34.1506 118.05 34.6593 118.261 35.0343 118.636C35.4094 119.011 35.6201 119.52 35.6201 120.05C35.6201 120.581 35.4094 121.089 35.0343 121.465C34.6593 121.84 34.1506 122.05 33.6201 122.05Z" fill="black"/>
  <path d="M45.3702 122.05H39.6602C39.1297 122.05 38.621 121.84 38.2459 121.465C37.8709 121.089 37.6602 120.581 37.6602 120.05C37.6602 119.52 37.8709 119.011 38.2459 118.636C38.621 118.261 39.1297 118.05 39.6602 118.05H45.3702C45.9006 118.05 46.4093 118.261 46.7844 118.636C47.1594 119.011 47.3702 119.52 47.3702 120.05C47.3702 120.581 47.1594 121.089 46.7844 121.465C46.4093 121.84 45.9006 122.05 45.3702 122.05Z" fill="black"/>
</svg>
