<svg width="160" height="102" viewBox="0 0 160 102" fill="none"
  xmlns="http://www.w3.org/2000/svg">
  <path d="M146 66.8894H116.12C115.59 66.8894 115.081 66.6787 114.706 66.3036C114.331 65.9285 114.12 65.4198 114.12 64.8894C114.12 64.3589 114.331 63.8502 114.706 63.4752C115.081 63.1001 115.59 62.8894 116.12 62.8894H146C146.586 62.8894 147.148 62.6565 147.563 62.2421C147.977 61.8276 148.21 61.2655 148.21 60.6794V30.0594C148.207 29.475 147.973 28.9154 147.559 28.5031C147.145 28.0908 146.584 27.8594 146 27.8594H91C90.4696 27.8594 89.9609 27.6487 89.5858 27.2736C89.2107 26.8985 89 26.3898 89 25.8594C89 25.3289 89.2107 24.8202 89.5858 24.4452C89.9609 24.0701 90.4696 23.8594 91 23.8594H146C147.645 23.8594 149.223 24.5123 150.388 25.6747C151.552 26.8371 152.207 28.4141 152.21 30.0594V60.6794C152.207 62.3256 151.552 63.9036 150.388 65.0676C149.224 66.2316 147.646 66.8867 146 66.8894Z" fill="black"/>
  <path d="M73.21 58.8696C72.6795 58.8696 72.1708 58.6589 71.7957 58.2838C71.4207 57.9087 71.21 57.4 71.21 56.8696V49.5996C71.21 49.0692 71.4207 48.5605 71.7957 48.1854C72.1708 47.8103 72.6795 47.5996 73.21 47.5996C73.7404 47.5996 74.2491 47.8103 74.6242 48.1854C74.9992 48.5605 75.21 49.0692 75.21 49.5996V56.8696C75.21 57.1323 75.1582 57.3923 75.0577 57.635C74.9572 57.8776 74.8099 58.0981 74.6242 58.2838C74.4385 58.4695 74.218 58.6169 73.9753 58.7174C73.7327 58.8179 73.4726 58.8696 73.21 58.8696Z" fill="black"/>
  <path d="M140.7 53.5498H125.13C124.599 53.5498 124.091 53.3391 123.716 52.964C123.341 52.5889 123.13 52.0802 123.13 51.5498C123.13 51.0194 123.341 50.5107 123.716 50.1356C124.091 49.7605 124.599 49.5498 125.13 49.5498H140.7C141.23 49.5498 141.739 49.7605 142.114 50.1356C142.489 50.5107 142.7 51.0194 142.7 51.5498C142.7 52.0802 142.489 52.5889 142.114 52.964C141.739 53.3391 141.23 53.5498 140.7 53.5498Z" fill="black"/>
  <path d="M140.699 45.7598H116.119C115.589 45.7598 115.08 45.5491 114.705 45.174C114.33 44.7989 114.119 44.2902 114.119 43.7598C114.119 43.2293 114.33 42.7206 114.705 42.3456C115.08 41.9705 115.589 41.7598 116.119 41.7598H140.699C141.23 41.7598 141.738 41.9705 142.113 42.3456C142.488 42.7206 142.699 43.2293 142.699 43.7598C142.699 44.2902 142.488 44.7989 142.113 45.174C141.738 45.5491 141.23 45.7598 140.699 45.7598Z" fill="black"/>
  <path d="M140.699 38H96.1895C95.659 38 95.1503 37.7893 94.7752 37.4142C94.4002 37.0391 94.1895 36.5304 94.1895 36C94.1895 35.4696 94.4002 34.9609 94.7752 34.5858C95.1503 34.2107 95.659 34 96.1895 34H140.699C141.23 34 141.739 34.2107 142.114 34.5858C142.489 34.9609 142.699 35.4696 142.699 36C142.699 36.5304 142.489 37.0391 142.114 37.4142C141.739 37.7893 141.23 38 140.699 38Z" fill="black"/>
  <path d="M52.2598 101.32C52.0063 101.323 51.7547 101.275 51.5198 101.18C51.1476 101.032 50.8286 100.775 50.6039 100.444C50.3793 100.112 50.2594 99.7207 50.2598 99.3201V60.3701C50.2598 58.9132 50.8379 57.5157 51.8671 56.4846C52.8964 55.4534 54.2928 54.8728 55.7498 54.8701H85.8498C86.3802 54.8701 86.8889 55.0808 87.264 55.4559C87.6391 55.831 87.8498 56.3397 87.8498 56.8701C87.8498 57.4006 87.6391 57.9093 87.264 58.2843C86.8889 58.6594 86.3802 58.8701 85.8498 58.8701H55.7498C55.3537 58.8728 54.9747 59.032 54.6956 59.313C54.4164 59.594 54.2598 59.974 54.2598 60.3701V94.2501L60.1898 87.9001C60.3771 87.7009 60.6033 87.5421 60.8545 87.4338C61.1056 87.3254 61.3763 87.2697 61.6498 87.2701H112.65C113.045 87.2701 113.424 87.1131 113.703 86.8337C113.983 86.5543 114.14 86.1753 114.14 85.7801V60.3701C114.14 59.974 113.983 59.594 113.704 59.313C113.425 59.032 113.046 58.8728 112.65 58.8701H90.7698C90.2393 58.8701 89.7306 58.6594 89.3556 58.2843C88.9805 57.9093 88.7698 57.4006 88.7698 56.8701C88.7698 56.3397 88.9805 55.831 89.3556 55.4559C89.7306 55.0808 90.2393 54.8701 90.7698 54.8701H112.63C114.086 54.8754 115.481 55.4569 116.509 56.4875C117.538 57.5181 118.117 58.914 118.12 60.3701V85.7801C118.115 87.2345 117.534 88.6279 116.506 89.6563C115.478 90.6847 114.084 91.2648 112.63 91.2701H62.5198L53.7198 100.69C53.5324 100.889 53.3062 101.048 53.0551 101.156C52.8039 101.265 52.5333 101.321 52.2598 101.32Z" fill="black"/>
  <path d="M90.4098 64.07C90.1307 64.0693 89.8548 64.0102 89.5999 63.8966C89.345 63.7829 89.1168 63.6171 88.9298 63.41L78.1798 51.6H17.4798C15.8309 51.5973 14.2504 50.9412 13.0845 49.7752C11.9186 48.6093 11.2624 47.0288 11.2598 45.38V14.68C11.2624 13.0311 11.9186 11.4506 13.0845 10.2847C14.2504 9.11878 15.8309 8.46261 17.4798 8.45996H86.1898C87.8386 8.46261 89.4191 9.11878 90.585 10.2847C91.7509 11.4506 92.4071 13.0311 92.4098 14.68V62.07C92.4086 62.4728 92.2857 62.866 92.0573 63.1979C91.8289 63.5298 91.5056 63.7849 91.1298 63.93C90.9004 64.0206 90.6563 64.0681 90.4098 64.07ZM17.4798 12.46C16.891 12.46 16.3263 12.6939 15.91 13.1102C15.4937 13.5265 15.2598 14.0912 15.2598 14.68V45.38C15.2584 45.6719 15.315 45.9611 15.4261 46.2311C15.5372 46.501 15.7006 46.7463 15.907 46.9527C16.1134 47.1591 16.3587 47.3226 16.6286 47.4337C16.8986 47.5448 17.1879 47.6013 17.4798 47.6H79.0598C79.3381 47.5994 79.6135 47.6569 79.8684 47.7688C80.1232 47.8807 80.3519 48.0446 80.5398 48.25L88.4098 56.9V14.68C88.4071 14.092 88.1724 13.5289 87.7566 13.1131C87.3409 12.6973 86.7777 12.4626 86.1898 12.46H17.4798Z" fill="black"/>
  <path d="M38.1696 25.4795H22.5996C22.0692 25.4795 21.5605 25.2688 21.1854 24.8937C20.8103 24.5186 20.5996 24.0099 20.5996 23.4795C20.5996 22.9491 20.8103 22.4404 21.1854 22.0653C21.5605 21.6902 22.0692 21.4795 22.5996 21.4795H38.1696C38.7 21.4795 39.2087 21.6902 39.5838 22.0653C39.9589 22.4404 40.1696 22.9491 40.1696 23.4795C40.1696 24.0099 39.9589 24.5186 39.5838 24.8937C39.2087 25.2688 38.7 25.4795 38.1696 25.4795Z" fill="black"/>
  <path d="M73.91 25.4795H46C45.4696 25.4795 44.9609 25.2688 44.5858 24.8937C44.2107 24.5186 44 24.0099 44 23.4795C44 22.9491 44.2107 22.4404 44.5858 22.0653C44.9609 21.6902 45.4696 21.4795 46 21.4795H74C74.5304 21.4795 75.0391 21.6902 75.4142 22.0653C75.7893 22.4404 76 22.9491 76 23.4795C76 24.0099 75.7893 24.5186 75.4142 24.8937C75.0391 25.2688 74.5304 25.4795 74 25.4795H73.91Z" fill="black"/>
  <path d="M56.5596 33.2598H22.5596C22.0291 33.2598 21.5204 33.0491 21.1454 32.674C20.7703 32.2989 20.5596 31.7902 20.5596 31.2598C20.5596 30.7293 20.7703 30.2206 21.1454 29.8456C21.5204 29.4705 22.0291 29.2598 22.5596 29.2598H56.5596C57.09 29.2598 57.5987 29.4705 57.9738 29.8456C58.3489 30.2206 58.5596 30.7293 58.5596 31.2598C58.5596 31.7902 58.3489 32.2989 57.9738 32.674C57.5987 33.0491 57.09 33.2598 56.5596 33.2598Z" fill="black"/>
  <path d="M67.1096 41.0498H22.5996C22.0692 41.0498 21.5605 40.8391 21.1854 40.464C20.8103 40.0889 20.5996 39.5802 20.5996 39.0498C20.5996 38.5194 20.8103 38.0107 21.1854 37.6356C21.5605 37.2605 22.0692 37.0498 22.5996 37.0498H67.1096C67.64 37.0498 68.1488 37.2605 68.5238 37.6356C68.8989 38.0107 69.1096 38.5194 69.1096 39.0498C69.1096 39.5802 68.8989 40.0889 68.5238 40.464C68.1488 40.8391 67.64 41.0498 67.1096 41.0498Z" fill="black"/>
  <path d="M73.9092 33.2598H63.4092C62.8787 33.2598 62.37 33.0491 61.995 32.674C61.6199 32.2989 61.4092 31.7902 61.4092 31.2598C61.4092 30.7293 61.6199 30.2206 61.995 29.8456C62.37 29.4705 62.8787 29.2598 63.4092 29.2598H73.9092C74.4396 29.2598 74.9483 29.4705 75.3234 29.8456C75.6985 30.2206 75.9092 30.7293 75.9092 31.2598C75.9092 31.7902 75.6985 32.2989 75.3234 32.674C74.9483 33.0491 74.4396 33.2598 73.9092 33.2598Z" fill="black"/>
  <path d="M106.78 79.1201H76.4199C75.8895 79.1201 75.3808 78.9094 75.0057 78.5343C74.6306 78.1593 74.4199 77.6506 74.4199 77.1201C74.4199 76.5897 74.6306 76.081 75.0057 75.7059C75.3808 75.3308 75.8895 75.1201 76.4199 75.1201H106.78C107.31 75.1201 107.819 75.3308 108.194 75.7059C108.569 76.081 108.78 76.5897 108.78 77.1201C108.78 77.6506 108.569 78.1593 108.194 78.5343C107.819 78.9094 107.31 79.1201 106.78 79.1201Z" fill="black"/>
  <path d="M106.78 71.3301H62.2598C61.7293 71.3301 61.2206 71.1194 60.8456 70.7443C60.4705 70.3692 60.2598 69.8605 60.2598 69.3301C60.2598 68.7996 60.4705 68.2909 60.8456 67.9159C61.2206 67.5408 61.7293 67.3301 62.2598 67.3301H106.78C107.31 67.3301 107.819 67.5408 108.194 67.9159C108.569 68.2909 108.78 68.7996 108.78 69.3301C108.78 69.8605 108.569 70.3692 108.194 70.7443C107.819 71.1194 107.31 71.3301 106.78 71.3301Z" fill="black"/>
  <path d="M157.939 60.8096C157.409 60.8096 156.9 60.5989 156.525 60.2238C156.15 59.8487 155.939 59.34 155.939 58.8096V43.8096C155.939 43.2791 156.15 42.7704 156.525 42.3954C156.9 42.0203 157.409 41.8096 157.939 41.8096C158.47 41.8096 158.979 42.0203 159.354 42.3954C159.729 42.7704 159.939 43.2791 159.939 43.8096V58.8096C159.939 59.34 159.729 59.8487 159.354 60.2238C158.979 60.5989 158.47 60.8096 157.939 60.8096Z" fill="black"/>
  <path d="M157.939 39.4596C157.409 39.4596 156.9 39.2489 156.525 38.8738C156.15 38.4987 155.939 37.99 155.939 37.4596V32.3096C155.939 31.7791 156.15 31.2704 156.525 30.8954C156.9 30.5203 157.409 30.3096 157.939 30.3096C158.47 30.3096 158.979 30.5203 159.354 30.8954C159.729 31.2704 159.939 31.7791 159.939 32.3096V37.4596C159.939 37.99 159.729 38.4987 159.354 38.8738C158.979 39.2489 158.47 39.4596 157.939 39.4596Z" fill="black"/>
  <path d="M60.9398 4.67969H45.3398C44.8094 4.67969 44.3007 4.46898 43.9256 4.0939C43.5506 3.71883 43.3398 3.21012 43.3398 2.67969C43.3398 2.14925 43.5506 1.64055 43.9256 1.26547C44.3007 0.890402 44.8094 0.679688 45.3398 0.679688H60.9398C61.4703 0.679688 61.979 0.890402 62.3541 1.26547C62.7291 1.64055 62.9398 2.14925 62.9398 2.67969C62.9398 3.21012 62.7291 3.71883 62.3541 4.0939C61.979 4.46898 61.4703 4.67969 60.9398 4.67969Z" fill="black"/>
  <path d="M39.5897 4.67969H34.4297C33.8993 4.67969 33.3905 4.46898 33.0155 4.0939C32.6404 3.71883 32.4297 3.21012 32.4297 2.67969C32.4297 2.14925 32.6404 1.64055 33.0155 1.26547C33.3905 0.890402 33.8993 0.679688 34.4297 0.679688H39.5897C40.1201 0.679688 40.6288 0.890402 41.0039 1.26547C41.379 1.64055 41.5897 2.14925 41.5897 2.67969C41.5897 3.21012 41.379 3.71883 41.0039 4.0939C40.6288 4.46898 40.1201 4.67969 39.5897 4.67969Z" fill="black"/>
  <path d="M13.2598 71C12.7293 71 12.2206 70.7893 11.8456 70.4143C11.4705 70.0392 11.2598 69.5305 11.2598 69V61.29C11.2598 60.7596 11.4705 60.2509 11.8456 59.8758C12.2206 59.5008 12.7293 59.29 13.2598 59.29C13.7902 59.29 14.2989 59.5008 14.674 59.8758C15.0491 60.2509 15.2598 60.7596 15.2598 61.29V69C15.2598 69.5305 15.0491 70.0392 14.674 70.4143C14.2989 70.7893 13.7902 71 13.2598 71Z" fill="black"/>
  <path d="M13.2598 85.69C12.7293 85.69 12.2206 85.4793 11.8456 85.1042C11.4705 84.7291 11.2598 84.2204 11.2598 83.69V76C11.2598 75.4696 11.4705 74.9609 11.8456 74.5858C12.2206 74.2107 12.7293 74 13.2598 74C13.7902 74 14.2989 74.2107 14.674 74.5858C15.0491 74.9609 15.2598 75.4696 15.2598 76V83.74C15.2467 84.2617 15.0303 84.7577 14.6566 85.122C14.2829 85.4863 13.7816 85.6902 13.2598 85.69Z" fill="black"/>
  <path d="M24.4597 74.4893H16.7197C16.1893 74.4893 15.6806 74.2785 15.3055 73.9035C14.9304 73.5284 14.7197 73.0197 14.7197 72.4893C14.7197 71.9588 14.9304 71.4501 15.3055 71.075C15.6806 70.7 16.1893 70.4893 16.7197 70.4893H24.4597C24.9902 70.4893 25.4989 70.7 25.8739 71.075C26.249 71.4501 26.4597 71.9588 26.4597 72.4893C26.4597 73.0197 26.249 73.5284 25.8739 73.9035C25.4989 74.2785 24.9902 74.4893 24.4597 74.4893Z" fill="black"/>
  <path d="M9.79957 74.4893H2.05957C1.52914 74.4893 1.02043 74.2785 0.645357 73.9035C0.270284 73.5284 0.0595703 73.0197 0.0595703 72.4893C0.0595703 71.9588 0.270284 71.4501 0.645357 71.075C1.02043 70.7 1.52914 70.4893 2.05957 70.4893H9.79957C10.33 70.4893 10.8387 70.7 11.2138 71.075C11.5889 71.4501 11.7996 71.9588 11.7996 72.4893C11.7996 73.0197 11.5889 73.5284 11.2138 73.9035C10.8387 74.2785 10.33 74.4893 9.79957 74.4893Z" fill="black"/>
</svg>
