<svg width="160" height="160" viewBox="0 0 160 160" fill="none"
  xmlns="http://www.w3.org/2000/svg">
  <path d="M148.2 134.06H20.73C18.4172 134.057 16.1997 133.138 14.5634 131.504C12.9271 129.869 12.0053 127.653 12 125.34V52.7001C12.0106 50.3908 12.9347 48.1795 14.5704 46.5493C16.2062 44.9192 18.4207 44.0027 20.73 44.0001H52.39C52.939 44.0001 53.4655 44.2182 53.8537 44.6064C54.2419 44.9946 54.46 45.5211 54.46 46.0701C54.46 46.6191 54.2419 47.1456 53.8537 47.5338C53.4655 47.922 52.939 48.1401 52.39 48.1401H20.73C19.5135 48.1427 18.3475 48.6272 17.4873 49.4874C16.6271 50.3476 16.1426 51.5136 16.14 52.7301V125.37C16.1426 126.586 16.6274 127.751 17.4879 128.609C18.3484 129.468 19.5144 129.95 20.73 129.95H148.2C149.416 129.95 150.582 129.468 151.442 128.609C152.303 127.751 152.787 126.586 152.79 125.37V52.7001C152.787 51.4836 152.303 50.3176 151.443 49.4574C150.582 48.5972 149.417 48.1127 148.2 48.1101H140.09C139.541 48.1101 139.014 47.892 138.626 47.5038C138.238 47.1156 138.02 46.5891 138.02 46.0401C138.02 45.4911 138.238 44.9646 138.626 44.5764C139.014 44.1882 139.541 43.9701 140.09 43.9701H148.2C150.515 43.9727 152.734 44.8934 154.37 46.53C156.007 48.1666 156.927 50.3856 156.93 52.7001V125.34C156.925 127.653 156.003 129.869 154.367 131.504C152.73 133.138 150.513 134.057 148.2 134.06Z" fill="black"/>
  <path d="M83.63 114.57H14.07C13.521 114.57 12.9945 114.352 12.6063 113.964C12.2181 113.576 12 113.049 12 112.5V98.1801C12 97.6311 12.2181 97.1046 12.6063 96.7164C12.9945 96.3282 13.521 96.1101 14.07 96.1101H83.63C83.9133 96.0904 84.1976 96.1291 84.4652 96.224C84.7328 96.3188 84.9781 96.4677 85.1857 96.6614C85.3934 96.8551 85.559 97.0894 85.6722 97.3498C85.7854 97.6102 85.8438 97.8912 85.8438 98.1751C85.8438 98.4591 85.7854 98.74 85.6722 99.0004C85.559 99.2608 85.3934 99.4951 85.1857 99.6888C84.9781 99.8825 84.7328 100.031 84.4652 100.126C84.1976 100.221 83.9133 100.26 83.63 100.24H16.14V110.43H83.63C84.179 110.43 84.7055 110.648 85.0937 111.036C85.4819 111.425 85.7 111.951 85.7 112.5C85.7 113.049 85.4819 113.576 85.0937 113.964C84.7055 114.352 84.179 114.57 83.63 114.57Z" fill="black"/>
  <path d="M154.861 114.57H107.411C106.862 114.57 106.335 114.352 105.947 113.964C105.559 113.576 105.341 113.049 105.341 112.5C105.341 111.951 105.559 111.425 105.947 111.036C106.335 110.648 106.862 110.43 107.411 110.43H152.791V100.24H106.551C106.267 100.26 105.983 100.221 105.715 100.126C105.448 100.031 105.203 99.8825 104.995 99.6888C104.787 99.4951 104.622 99.2608 104.509 99.0004C104.395 98.74 104.337 98.4591 104.337 98.1751C104.337 97.8912 104.395 97.6102 104.509 97.3498C104.622 97.0894 104.787 96.8551 104.995 96.6614C105.203 96.4677 105.448 96.3188 105.715 96.224C105.983 96.1291 106.267 96.0904 106.551 96.1101H154.861C155.41 96.1101 155.936 96.3282 156.324 96.7164C156.713 97.1046 156.931 97.6311 156.931 98.1801V112.5C156.931 113.049 156.713 113.576 156.324 113.964C155.936 114.352 155.41 114.57 154.861 114.57Z" fill="black"/>
  <path d="M106.55 134.06H83.6304C83.0841 134.06 82.5601 133.843 82.1738 133.457C81.7875 133.07 81.5704 132.546 81.5704 132V82.0001C81.5507 81.7168 81.5895 81.4325 81.6843 81.1649C81.7792 80.8972 81.9281 80.652 82.1217 80.4443C82.3154 80.2367 82.5498 80.0711 82.8102 79.9579C83.0706 79.8447 83.3515 79.7863 83.6354 79.7863C83.9194 79.7863 84.2003 79.8447 84.4607 79.9579C84.7211 80.0711 84.9554 80.2367 85.1491 80.4443C85.3428 80.652 85.4917 80.8972 85.5865 81.1649C85.6814 81.4325 85.7202 81.7168 85.7004 82.0001V130H104.48V79.6401C104.48 79.0911 104.699 78.5646 105.087 78.1764C105.475 77.7882 106.001 77.5701 106.55 77.5701C107.099 77.5701 107.626 77.7882 108.014 78.1764C108.402 78.5646 108.62 79.0911 108.62 79.6401V132C108.62 132.271 108.567 132.54 108.463 132.791C108.359 133.041 108.206 133.269 108.014 133.46C107.821 133.652 107.593 133.803 107.342 133.906C107.091 134.009 106.822 134.061 106.55 134.06Z" fill="black"/>
  <path d="M78.9999 92.3301C78.6311 92.3258 78.27 92.2236 77.9537 92.0338C77.6374 91.844 77.3772 91.5735 77.1999 91.25L72.4499 82.4801L63.2299 83.38C62.8532 83.424 62.4716 83.3599 62.1299 83.1953C61.7882 83.0306 61.5003 82.7721 61.2999 82.45C61.0938 82.1341 60.9775 81.7681 60.9634 81.3911C60.9493 81.0142 61.038 80.6405 61.2199 80.31L74.8699 55.85C75.1484 55.3959 75.5913 55.0666 76.1064 54.9307C76.6216 54.7947 77.1693 54.8627 77.6356 55.1203C78.1019 55.3779 78.4509 55.8054 78.6101 56.3139C78.7692 56.8223 78.7262 57.3725 78.4899 57.85L66.7399 78.85L73.3799 78.2C73.7824 78.1549 74.1892 78.233 74.5463 78.4241C74.9034 78.6152 75.1941 78.9102 75.3799 79.27L78.9999 86.0001L95.9999 55.53C96.1181 55.27 96.2889 55.0372 96.5014 54.8464C96.714 54.6556 96.9637 54.5108 97.235 54.4212C97.5062 54.3315 97.793 54.299 98.0774 54.3257C98.3618 54.3523 98.6377 54.4375 98.8875 54.576C99.1374 54.7144 99.3559 54.903 99.5293 55.13C99.7027 55.357 99.8273 55.6175 99.8951 55.8949C99.963 56.1724 99.9727 56.4609 99.9236 56.7423C99.8745 57.0237 99.7677 57.2919 99.6099 57.53L80.7999 91.27C80.6192 91.5891 80.3578 91.855 80.0419 92.0411C79.7259 92.2271 79.3666 92.3268 78.9999 92.3301Z" fill="black"/>
  <path d="M51.39 50.8601C51.2282 50.8596 51.067 50.8394 50.91 50.8001C50.3774 50.672 49.9173 50.3379 49.6306 49.8712C49.3438 49.4045 49.2537 48.8431 49.38 48.3101L53.61 30.6301C53.9375 29.2604 54.5774 27.9851 55.4796 26.9038C56.3819 25.8225 57.522 24.9646 58.8109 24.3972C60.0997 23.8297 61.5024 23.5681 62.9092 23.6328C64.3159 23.6975 65.6887 24.0867 66.92 24.7701L86.09 35.4301C86.5442 35.7086 86.8735 36.1515 87.0094 36.6666C87.1453 37.1817 87.0774 37.7294 86.8198 38.1958C86.5621 38.6621 86.1346 39.0111 85.6262 39.1702C85.1178 39.3294 84.5675 39.2863 84.09 39.0501L64.91 28.3901C64.237 28.0196 63.4877 27.8092 62.7201 27.7752C61.9526 27.7411 61.1876 27.8844 60.4844 28.194C59.7813 28.5035 59.1589 28.9708 58.6656 29.5598C58.1723 30.1488 57.8214 30.8435 57.64 31.5901L53.4 49.2701C53.2922 49.7223 53.0353 50.1251 52.6707 50.4136C52.3061 50.702 51.855 50.8593 51.39 50.8601Z" fill="black"/>
  <path d="M58.2402 59.56C56.845 59.5606 55.4683 59.2414 54.2157 58.627C52.963 58.0126 51.8679 57.1192 51.0144 56.0156C50.1608 54.912 49.5716 53.6274 49.2918 52.2606C49.0121 50.8937 49.0494 49.4809 49.4007 48.1307C49.7521 46.7805 50.4082 45.5287 51.3188 44.4716C52.2293 43.4145 53.37 42.5801 54.6532 42.0326C55.9365 41.485 57.3281 41.2388 58.7214 41.3129C60.1146 41.387 61.4723 41.7795 62.6902 42.46L86.6902 54.7C87.0975 54.9092 87.424 55.2476 87.6185 55.6621C87.8131 56.0767 87.8646 56.544 87.7652 56.991C87.6657 57.438 87.4208 57.8394 87.0689 58.1324C86.717 58.4253 86.2778 58.5933 85.8202 58.61L58.6402 59.61L58.2402 59.56ZM58.2402 45.44C57.5504 45.4377 56.8681 45.5844 56.2402 45.87C55.1911 46.3471 54.3391 47.172 53.8282 48.205C53.3173 49.238 53.179 50.4158 53.4366 51.5391C53.6942 52.6624 54.3319 53.6622 55.2418 54.3694C56.1518 55.0766 57.2781 55.4477 58.4302 55.42L77.6302 54.75L60.7402 46.11C59.9789 45.6742 59.1175 45.4433 58.2402 45.44Z" fill="black"/>
  <path d="M112.49 92.33C112.131 92.3302 111.778 92.2384 111.465 92.0633C111.152 91.8882 110.888 91.6358 110.7 91.33L93.5603 62.05C93.3677 61.5829 93.3518 61.0616 93.5155 60.5836C93.6792 60.1055 94.0112 59.7034 94.4497 59.4523C94.8882 59.2012 95.4031 59.1183 95.8982 59.2191C96.3933 59.3199 96.8349 59.5975 97.1403 60L112.42 86.1L116.07 79.35C116.263 78.9964 116.555 78.7067 116.911 78.5167C117.266 78.3266 117.669 78.2444 118.07 78.28L124.72 78.93L113 57.86C112.843 57.6219 112.736 57.3537 112.687 57.0723C112.638 56.7909 112.647 56.5024 112.715 56.2249C112.783 55.9474 112.907 55.687 113.081 55.46C113.254 55.233 113.473 55.0444 113.723 54.9059C113.973 54.7675 114.248 54.6823 114.533 54.6556C114.817 54.629 115.104 54.6615 115.375 54.7511C115.646 54.8407 115.896 54.9855 116.109 55.1764C116.321 55.3672 116.492 55.6 116.61 55.86L130.29 80.33C130.474 80.6593 130.565 81.0327 130.552 81.4096C130.539 81.7866 130.423 82.1529 130.217 82.4689C130.011 82.7849 129.723 83.0387 129.383 83.2028C129.044 83.3669 128.666 83.4351 128.29 83.4L119.07 82.5L114.32 91.27C114.144 91.592 113.885 91.8615 113.571 92.0512C113.256 92.2409 112.897 92.344 112.53 92.35L112.49 92.33Z" fill="black"/>
  <path d="M140.09 50.8601C139.627 50.8588 139.177 50.7012 138.814 50.4126C138.451 50.1241 138.196 49.7215 138.09 49.2701L133.85 31.5901C133.669 30.8421 133.318 30.146 132.824 29.5559C132.33 28.9658 131.707 28.4977 131.002 28.1881C130.298 27.8784 129.531 27.7355 128.763 27.7706C127.994 27.8056 127.244 28.0176 126.57 28.3901L107.34 39.2701C107.103 39.436 106.833 39.5501 106.549 39.6052C106.264 39.6603 105.971 39.6551 105.689 39.5899C105.407 39.5247 105.141 39.4009 104.91 39.2267C104.678 39.0524 104.486 38.8315 104.345 38.5783C104.205 38.325 104.119 38.0451 104.093 37.7565C104.067 37.4679 104.103 37.1772 104.196 36.9031C104.29 36.6289 104.44 36.3776 104.637 36.1652C104.834 35.9528 105.074 35.7841 105.34 35.6701L124.58 24.7801C125.812 24.0948 127.186 23.7038 128.594 23.6374C130.002 23.5711 131.406 23.8314 132.697 24.3978C133.987 24.9643 135.13 25.8216 136.034 26.9028C136.938 27.9839 137.581 29.2596 137.91 30.6301L142.14 48.3101C142.267 48.8431 142.176 49.4045 141.89 49.8712C141.603 50.3379 141.143 50.672 140.61 50.8001C140.44 50.8428 140.265 50.863 140.09 50.8601Z" fill="black"/>
  <path d="M133.23 59.56H132.89L106.08 58.56C105.615 58.5541 105.165 58.3923 104.802 58.1004C104.44 57.8085 104.186 57.4034 104.08 56.95C103.979 56.5037 104.029 56.0363 104.223 55.6216C104.417 55.2069 104.743 54.8686 105.15 54.66L128.79 42.38C130.011 41.7088 131.369 41.3258 132.76 41.2601C134.151 41.1945 135.539 41.4481 136.817 42.0014C138.096 42.5548 139.23 43.3932 140.134 44.4526C141.039 45.512 141.689 46.7642 142.034 48.1135C142.38 49.4627 142.413 50.8731 142.129 52.2368C141.846 53.6005 141.255 54.8814 140.4 55.9813C139.546 57.0812 138.451 57.971 137.199 58.5826C135.948 59.1942 134.573 59.5115 133.18 59.51L133.23 59.56ZM114.09 54.75L133.03 55.42C133.804 55.4536 134.574 55.3072 135.281 54.9923C135.988 54.6775 136.613 54.2027 137.105 53.6056C137.598 53.0084 137.945 52.305 138.119 51.5509C138.293 50.7968 138.29 50.0125 138.11 49.2598C137.93 48.5071 137.577 47.8065 137.08 47.2133C136.583 46.62 135.955 46.1503 135.245 45.8411C134.535 45.5318 133.764 45.3916 132.991 45.4313C132.218 45.471 131.465 45.6897 130.79 46.07L114.09 54.75Z" fill="black"/>
  <path d="M86.4799 58.6301C85.6509 58.6314 84.8298 58.4691 84.0636 58.1525C83.2975 57.8358 82.6014 57.3711 82.0152 56.7849C81.429 56.1987 80.9642 55.5025 80.6476 54.7364C80.3309 53.9702 80.1686 53.1491 80.1699 52.3201V41.5401C80.1686 40.7115 80.3305 39.8907 80.6464 39.1246C80.9623 38.3585 81.426 37.6622 82.011 37.0753C82.596 36.4885 83.2909 36.0226 84.056 35.7042C84.821 35.3859 85.6413 35.2214 86.4699 35.2201H105.01C106.681 35.2227 108.283 35.887 109.465 37.0676C110.648 38.2482 111.315 39.8491 111.32 41.5201V52.3001C111.315 53.9728 110.646 55.5752 109.462 56.7561C108.277 57.937 106.673 58.6001 105 58.6001H86.4699L86.4799 58.6301ZM105 39.3301H86.4699C86.1841 39.3301 85.9011 39.3865 85.6372 39.4962C85.3733 39.6059 85.1336 39.7666 84.932 39.9692C84.7303 40.1718 84.5707 40.4122 84.4622 40.6766C84.3538 40.941 84.2986 41.2243 84.2999 41.5101V52.2901C84.2981 52.5742 84.3529 52.8558 84.4611 53.1184C84.5692 53.3811 84.7286 53.6196 84.9299 53.8201C85.3388 54.2282 85.8923 54.4582 86.4699 54.4601H105.01C105.295 54.46 105.576 54.4034 105.839 54.2936C106.102 54.1837 106.34 54.0228 106.54 53.8201C106.743 53.6183 106.904 53.3783 107.014 53.114C107.124 52.8497 107.18 52.5663 107.18 52.2801V41.5001C107.18 41.2139 107.124 40.9305 107.014 40.6662C106.904 40.4019 106.743 40.1619 106.54 39.9601C106.338 39.7576 106.098 39.5975 105.834 39.4893C105.569 39.3811 105.286 39.327 105 39.3301Z" fill="black"/>
  <path d="M138.601 143H98.3405C97.7915 143 97.265 142.782 96.8768 142.394C96.4886 142.006 96.2705 141.479 96.2705 140.93C96.2705 140.381 96.4886 139.855 96.8768 139.466C97.265 139.078 97.7915 138.86 98.3405 138.86H138.601C139.15 138.86 139.676 139.078 140.064 139.466C140.452 139.855 140.671 140.381 140.671 140.93C140.671 141.479 140.452 142.006 140.064 142.394C139.676 142.782 139.15 143 138.601 143Z" fill="black"/>
  <path d="M90.5206 143H85.1706C84.6216 143 84.0951 142.782 83.7069 142.394C83.3187 142.006 83.1006 141.479 83.1006 140.93C83.1006 140.381 83.3187 139.855 83.7069 139.466C84.0951 139.078 84.6216 138.86 85.1706 138.86H90.5206C91.0696 138.86 91.5961 139.078 91.9843 139.466C92.3725 139.855 92.5906 140.381 92.5906 140.93C92.5906 141.479 92.3725 142.006 91.9843 142.394C91.5961 142.782 91.0696 143 90.5206 143Z" fill="black"/>
  <path d="M5.14031 93.6801C4.59131 93.6801 4.0648 93.462 3.6766 93.0738C3.2884 92.6856 3.07031 92.1591 3.07031 91.6101V65.7501C3.07031 65.2011 3.2884 64.6745 3.6766 64.2863C4.0648 63.8981 4.59131 63.6801 5.14031 63.6801C5.68931 63.6801 6.21582 63.8981 6.60402 64.2863C6.99222 64.6745 7.21031 65.2011 7.21031 65.7501V91.6101C7.21031 91.8819 7.15677 92.1511 7.05274 92.4022C6.94872 92.6534 6.79624 92.8815 6.60402 93.0738C6.41181 93.266 6.18361 93.4185 5.93247 93.5225C5.68132 93.6265 5.41215 93.6801 5.14031 93.6801Z" fill="black"/>
  <path d="M5.14031 61.9001C4.86848 61.9001 4.5993 61.8465 4.34816 61.7425C4.09701 61.6385 3.86882 61.486 3.6766 61.2938C3.48438 61.1015 3.33191 60.8734 3.22788 60.6222C3.12385 60.3711 3.07031 60.1019 3.07031 59.8301V53.0001C3.07031 52.4511 3.2884 51.9245 3.6766 51.5363C4.0648 51.1481 4.59131 50.9301 5.14031 50.9301C5.68931 50.9301 6.21582 51.1481 6.60402 51.5363C6.99222 51.9245 7.21031 52.4511 7.21031 53.0001V59.8701C7.19984 60.4121 6.97713 60.9284 6.59006 61.308C6.20299 61.6876 5.68245 61.9002 5.14031 61.9001Z" fill="black"/>
  <path d="M98.8603 28.5301C98.3986 28.5332 97.9492 28.3818 97.5834 28.1002C97.2176 27.8185 96.9565 27.4226 96.8416 26.9755C96.7266 26.5283 96.7644 26.0556 96.949 25.6325C97.1336 25.2093 97.4544 24.86 97.8603 24.6401L111.61 17.2601C112.093 16.9948 112.661 16.9322 113.19 17.086C113.719 17.2398 114.165 17.5974 114.43 18.0801C114.696 18.5627 114.758 19.131 114.604 19.6599C114.451 20.1887 114.093 20.6348 113.61 20.9001L99.8403 28.2801C99.5404 28.446 99.203 28.5321 98.8603 28.5301Z" fill="black"/>
  <path d="M34.7004 89.1501C34.2916 89.1451 33.8927 89.0237 33.5504 88.8001C33.0977 88.4918 32.7856 88.0166 32.6825 87.4787C32.5794 86.9408 32.6937 86.3839 33.0004 85.9301L46.7204 65.3201C47.033 64.8821 47.5038 64.5831 48.0331 64.4864C48.5624 64.3896 49.1085 64.5028 49.5558 64.8018C50.0031 65.1009 50.3163 65.5624 50.4292 66.0884C50.5421 66.6145 50.4457 67.1639 50.1604 67.6201L36.4204 88.2201C36.2339 88.5061 35.9788 88.7409 35.6784 88.9034C35.3781 89.0658 35.0419 89.1506 34.7004 89.1501Z" fill="black"/>
  <path d="M30.7502 73.3C29.5468 73.302 28.3699 72.9468 27.3685 72.2795C26.3671 71.6122 25.5863 70.6627 25.1249 69.5513C24.6635 68.44 24.5422 67.2167 24.7765 66.0363C25.0108 64.856 25.59 63.7717 26.441 62.9208C27.2919 62.0699 28.3761 61.4906 29.5565 61.2564C30.7368 61.0221 31.9601 61.1433 33.0715 61.6047C34.1829 62.0662 35.1323 62.847 35.7997 63.8484C36.467 64.8498 36.8221 66.0267 36.8202 67.23C36.8202 68.8399 36.1806 70.3838 35.0423 71.5222C33.9039 72.6605 32.36 73.3 30.7502 73.3ZM30.7502 65.3C30.366 65.298 29.99 65.4101 29.6696 65.6221C29.3493 65.834 29.0991 66.1363 28.9507 66.4906C28.8023 66.845 28.7625 67.2353 28.8362 67.6123C28.9099 67.9893 29.0939 68.3359 29.3648 68.6082C29.6357 68.8805 29.9814 69.0663 30.358 69.142C30.7346 69.2176 31.1252 69.1798 31.4802 69.0333C31.8353 68.8867 32.1389 68.6381 32.3525 68.3188C32.5661 67.9996 32.6801 67.6241 32.6802 67.24C32.6815 66.9852 32.6326 66.7327 32.5363 66.4968C32.44 66.261 32.2982 66.0464 32.119 65.8653C31.9398 65.6842 31.7267 65.5402 31.4918 65.4415C31.2569 65.3428 31.0049 65.2913 30.7502 65.29V65.3Z" fill="black"/>
  <path d="M52.3905 91.0901C51.1885 91.09 50.0133 90.7337 49.0137 90.0661C48.0141 89.3984 47.2348 88.4495 46.7743 87.3391C46.3138 86.2287 46.1929 85.0067 46.4266 83.8276C46.6604 82.6484 47.2385 81.5651 48.0878 80.7144C48.9371 79.8637 50.0195 79.2838 51.1983 79.0481C52.377 78.8124 53.5992 78.9314 54.7103 79.39C55.8215 79.8486 56.7717 80.6264 57.441 81.6249C58.1103 82.6235 58.4686 83.798 58.4705 85.0001C58.4705 86.6135 57.8303 88.161 56.6904 89.3028C55.5504 90.4446 54.004 91.0874 52.3905 91.0901ZM52.3905 83.0901C52.0056 83.0901 51.6293 83.2047 51.3097 83.4192C50.99 83.6337 50.7414 83.9385 50.5955 84.2947C50.4496 84.651 50.413 85.0426 50.4903 85.4197C50.5676 85.7968 50.7554 86.1424 51.0297 86.4125C51.304 86.6826 51.6525 86.8649 52.0308 86.9364C52.4091 87.0078 52.8 86.9651 53.154 86.8136C53.5079 86.6622 53.8088 86.4089 54.0183 86.0859C54.2278 85.763 54.3365 85.385 54.3305 85.0001C54.3253 84.489 54.1186 84.0007 53.7553 83.6412C53.3921 83.2817 52.9016 83.08 52.3905 83.0801V83.0901Z" fill="black"/>
</svg>
