<svg width="132" height="134" viewBox="0 0 132 134" fill="none"
  xmlns="http://www.w3.org/2000/svg">
  <path d="M17.1809 104C16.8654 104.001 16.5541 103.927 16.2725 103.785C15.991 103.642 15.7471 103.435 15.5609 103.18C12.6457 99.1931 11.0797 94.3794 11.0909 89.4402C11.0909 89.1202 11.0909 88.7869 11.0909 88.4402L9.51093 44.8402C9.46855 43.7362 9.85977 42.6595 10.6009 41.8402C10.9817 41.4171 11.4433 41.0743 11.9585 40.8322C12.4737 40.5901 13.0321 40.4534 13.6009 40.4302C14.6221 40.3727 15.6445 40.52 16.608 40.8634C17.5714 41.2069 18.4564 41.7396 19.2109 42.4302C20.075 43.2055 20.7578 44.1614 21.2109 45.2302L24.2909 32.0002C24.5546 30.897 25.2444 29.9431 26.2095 29.3471C27.1746 28.7512 28.3365 28.5617 29.4409 28.8202C30.6839 29.1149 31.8355 29.7103 32.7945 30.5543C33.7536 31.3982 34.4906 32.4647 34.9409 33.6602L37.0009 29.0002C37.4682 27.9686 38.3245 27.1637 39.3829 26.761C40.4413 26.3582 41.6161 26.3903 42.6509 26.8502C43.5829 27.2668 44.4237 27.863 45.1251 28.6047C45.8266 29.3465 46.375 30.2191 46.7391 31.1729C47.1031 32.1267 47.2757 33.1428 47.2468 34.1633C47.2179 35.1837 46.9883 36.1885 46.5709 37.1202L34.7709 66.6602C34.5622 67.136 34.1766 67.5119 33.6956 67.7084C33.2147 67.9048 32.6761 67.9064 32.194 67.7128C31.7119 67.5192 31.324 67.1455 31.1125 66.671C30.9011 66.1964 30.8825 65.6582 31.0609 65.1702L42.8909 35.5902C43.1115 35.1237 43.2349 34.6172 43.2539 34.1015C43.2728 33.5858 43.1867 33.0716 43.0009 32.5902C42.8237 32.1249 42.5555 31.6996 42.2121 31.339C41.8688 30.9785 41.457 30.6899 41.0009 30.4902C40.9678 30.4756 40.9321 30.4681 40.8959 30.4681C40.8598 30.4681 40.824 30.4756 40.7909 30.4902C40.7555 30.5031 40.7231 30.5231 40.6956 30.5489C40.6681 30.5747 40.6461 30.6057 40.6309 30.6402L32.8509 48.1002C32.6562 48.5683 32.2909 48.945 31.829 49.1541C31.3671 49.3632 30.8431 49.389 30.3628 49.2264C29.8826 49.0638 29.4821 48.7248 29.2422 48.2781C29.0024 47.8314 28.9412 47.3103 29.0709 46.8202L31.3309 37.2302C31.4466 36.7478 31.4646 36.2472 31.3838 35.7577C31.3031 35.2683 31.1253 34.7999 30.8609 34.3802C30.6009 33.9598 30.2603 33.5949 29.8587 33.3065C29.4571 33.0182 29.0025 32.8122 28.5209 32.7002C28.4861 32.6898 28.4495 32.6867 28.4134 32.6913C28.3773 32.6959 28.3426 32.708 28.3115 32.7269C28.2804 32.7457 28.2536 32.7709 28.2328 32.8008C28.2121 32.8306 28.1978 32.8645 28.1909 32.9002L22.1909 58.2202C22.0797 58.689 21.803 59.102 21.4117 59.383C21.0204 59.6641 20.5407 59.7945 20.0609 59.7502C19.5841 59.7054 19.1392 59.4911 18.807 59.1461C18.4749 58.8011 18.2776 58.3484 18.2509 57.8702L17.7709 48.0002C17.7448 47.5043 17.6208 47.0184 17.4063 46.5705C17.1918 46.1226 16.8909 45.7215 16.5209 45.3902C16.1572 45.0505 15.7292 44.787 15.262 44.6152C14.7949 44.4435 14.2981 44.367 13.8009 44.3902C13.729 44.3972 13.6618 44.429 13.6109 44.4802C13.5851 44.5066 13.5647 44.5379 13.5509 44.5722C13.5372 44.6065 13.5304 44.6432 13.5309 44.6802L15.1109 88.2202C15.1109 88.2202 15.1109 88.2802 15.1109 88.3102V88.6202C15.1109 88.8902 15.1109 89.1502 15.1109 89.4202C15.0991 93.511 16.3955 97.4985 18.8109 100.8C19.0354 101.099 19.1714 101.455 19.2037 101.828C19.2359 102.201 19.163 102.575 18.9932 102.908C18.8235 103.241 18.5637 103.52 18.2433 103.713C17.923 103.907 17.5549 104.006 17.1809 104Z" fill="black"/>
  <path d="M41.2401 114.79C40.8875 114.793 40.5403 114.703 40.2338 114.529C39.9272 114.355 39.6722 114.102 39.4945 113.798C39.3169 113.493 39.2229 113.147 39.2221 112.794C39.2213 112.442 39.3138 112.095 39.4901 111.79C39.9201 111.02 43.8201 104.21 48.8601 102.64C51.7701 101.74 54.8601 103.1 57.6801 104.3C59.1401 104.93 61.5801 105.99 62.1801 105.59C62.3195 105.518 62.44 105.415 62.5321 105.288C62.6241 105.161 62.6851 105.015 62.7101 104.86C62.8801 103.86 62.0901 102.2 60.3601 99.86C59.3601 98.47 56.0001 96.1899 53.3001 94.3499C51.3001 93.0299 49.5001 91.7699 48.1801 90.6699C44.7101 87.7699 40.3501 81.2199 40.1801 80.9499C40.0269 80.7202 39.9229 80.4612 39.8747 80.1893C39.8265 79.9173 39.8352 79.6384 39.9001 79.37L42.6401 68C43.1401 66.21 44.6401 63.41 47.1701 63.67L52.9201 64.07C53.2798 64.0976 53.6253 64.222 53.9201 64.43L59.3201 68.23C59.9999 68.7046 60.8399 68.891 61.6568 68.7487C62.4736 68.6063 63.2009 68.1466 63.6801 67.47L63.8901 67.18C63.9756 67.0564 64.0088 66.9041 63.9826 66.7561C63.9564 66.6082 63.8728 66.4766 63.7501 66.39L54.0001 59.48C53.8274 59.3683 53.6385 59.284 53.4401 59.23H53.3401L42.3901 57H42.2801H42.0701C41.6324 56.923 41.1816 56.9768 40.7743 57.1547C40.367 57.3325 40.0212 57.6266 39.7801 58L34.6501 66.8799C34.5251 67.119 34.353 67.3302 34.1442 67.501C33.9354 67.6718 33.6942 67.7986 33.4352 67.8737C33.1761 67.9489 32.9045 67.9708 32.6368 67.9383C32.369 67.9058 32.1106 67.8194 31.877 67.6844C31.6435 67.5494 31.4397 67.3686 31.2779 67.1528C31.116 66.937 30.9995 66.6907 30.9354 66.4287C30.8712 66.1667 30.8607 65.8945 30.9044 65.6283C30.9482 65.3621 31.0454 65.1076 31.1901 64.8799L36.3101 56C36.9429 54.9229 37.8847 54.061 39.0135 53.526C40.1423 52.9911 41.4058 52.8078 42.6401 53L43.2301 53.12L54.0001 55.26C54.1018 55.2703 54.2023 55.2904 54.3001 55.32H54.3601C54.5083 55.3502 54.6525 55.3972 54.7901 55.46C55.3225 55.627 55.8253 55.8767 56.2801 56.1999L66.0501 63.07C67.0396 63.767 67.7122 64.8281 67.9203 66.0204C68.1284 67.2128 67.855 68.439 67.1601 69.43L66.9501 69.72C66.4121 70.4889 65.7276 71.144 64.9359 71.6478C64.1441 72.1516 63.2608 72.4941 62.3364 72.6558C61.412 72.8174 60.4647 72.795 59.549 72.5898C58.6333 72.3846 57.7671 72.0006 57.0001 71.46L52.0901 68L47.1601 67.65C46.8625 68.0563 46.6422 68.5139 46.5101 69L44.0001 79.43C45.1901 81.15 48.3401 85.56 50.7501 87.58C51.9201 88.58 53.6901 89.7499 55.5601 91.0199C58.9701 93.3399 62.2001 95.5399 63.5601 97.4899C65.3401 99.9499 67.0901 102.83 66.6101 105.58C66.4918 106.259 66.2344 106.906 65.8541 107.481C65.4738 108.056 64.9788 108.546 64.4001 108.92C61.9801 110.57 58.9601 109.26 56.0401 108C53.9201 107.07 51.5001 106 50.0401 106.49C47.0401 107.42 43.8601 112.17 42.9801 113.76C42.8077 114.071 42.5557 114.33 42.2498 114.511C41.944 114.692 41.5955 114.788 41.2401 114.79Z" fill="black"/>
  <path d="M22.1008 70.4303C21.8294 70.4311 21.5606 70.3767 21.3108 70.2703C21.069 70.1668 20.8499 70.0166 20.6662 69.8284C20.4825 69.6401 20.3378 69.4174 20.2402 69.1731C20.1427 68.9288 20.0943 68.6677 20.0978 68.4047C20.1014 68.1416 20.1568 67.8819 20.2608 67.6403L31.4508 41.4303C31.659 40.9423 32.0526 40.557 32.5448 40.3591C33.0371 40.1613 33.5878 40.1671 34.0758 40.3753C34.5638 40.5835 34.9491 40.977 35.147 41.4693C35.3448 41.9616 35.339 42.5123 35.1308 43.0003L23.9408 69.2103C23.7877 69.5718 23.5316 69.8802 23.2044 70.0972C22.8772 70.3141 22.4934 70.43 22.1008 70.4303Z" fill="black"/>
  <path d="M38.6505 133.72C38.3682 133.722 38.0887 133.664 37.8305 133.55L1.46047 117.26C1.22031 117.152 1.00392 116.997 0.823726 116.805C0.643534 116.612 0.503093 116.387 0.41047 116.14C0.317929 115.894 0.274715 115.632 0.283294 115.37C0.291873 115.107 0.352077 114.849 0.46047 114.61L8.00047 97.8799C8.10852 97.64 8.26284 97.4237 8.4546 97.2436C8.64635 97.0634 8.87178 96.9229 9.11795 96.83C9.36412 96.7371 9.62621 96.6937 9.88919 96.7022C10.1522 96.7108 10.4109 96.7712 10.6505 96.8799L47.0005 113.16C47.4647 113.387 47.823 113.785 48.0005 114.27C48.2033 114.76 48.2033 115.31 48.0005 115.8L40.5005 132.54C40.3407 132.895 40.0804 133.197 39.7517 133.406C39.4231 133.616 39.0403 133.725 38.6505 133.72ZM4.92047 114.42L37.6405 129.08L43.5005 116L10.7905 101.34L4.92047 114.42Z" fill="black"/>
  <path d="M114.82 104.001C114.451 104 114.09 103.897 113.776 103.703C113.462 103.51 113.207 103.233 113.041 102.904C112.874 102.575 112.802 102.206 112.831 101.838C112.861 101.471 112.992 101.119 113.21 100.821C115.625 97.519 116.922 93.5315 116.91 89.4407C116.91 89.1707 116.91 88.9107 116.91 88.6407V88.3307C116.91 88.3307 116.91 88.2707 116.91 88.2407L118.48 44.7407C118.487 44.698 118.484 44.6543 118.472 44.6127C118.46 44.5712 118.439 44.5329 118.41 44.5007C118.359 44.4494 118.292 44.4176 118.22 44.4107C117.217 44.356 116.233 44.701 115.483 45.37C114.734 46.039 114.279 46.9777 114.22 47.9807L113.7 57.8607C113.673 58.3388 113.476 58.7916 113.144 59.1366C112.812 59.4816 112.367 59.6959 111.89 59.7407C111.41 59.785 110.931 59.6546 110.539 59.3735C110.148 59.0924 109.871 58.6795 109.76 58.2107L103.76 32.8907C103.753 32.855 103.739 32.8211 103.718 32.7912C103.697 32.7614 103.671 32.7362 103.64 32.7174C103.608 32.6985 103.574 32.6864 103.538 32.6818C103.502 32.6772 103.465 32.6802 103.43 32.6907C102.949 32.8026 102.494 33.0087 102.092 33.297C101.691 33.5853 101.35 33.9502 101.09 34.3707C100.826 34.7904 100.648 35.2587 100.567 35.7482C100.486 36.2376 100.504 36.7383 100.62 37.2207L102.88 46.8107C103.01 47.3008 102.949 47.8219 102.709 48.2686C102.469 48.7153 102.068 49.0543 101.588 49.2169C101.108 49.3795 100.584 49.3536 100.122 49.1446C99.6601 48.9355 99.2948 48.5588 99.1001 48.0907L91.3001 30.6607C91.2849 30.6262 91.2629 30.5951 91.2354 30.5694C91.2079 30.5436 91.1755 30.5236 91.1401 30.5107C91.0722 30.4862 90.9979 30.4862 90.9301 30.5107C90.4768 30.714 90.0681 31.0047 89.7272 31.366C89.3864 31.7274 89.1202 32.1525 88.9437 32.6168C88.7672 33.0812 88.684 33.5758 88.6989 34.0724C88.7137 34.5689 88.8262 35.0576 89.0301 35.5107C89.0317 35.544 89.0317 35.5774 89.0301 35.6107L99.6601 63.0007C99.8333 63.4914 99.8085 64.0303 99.5908 64.5029C99.3732 64.9756 98.9799 65.3448 98.4945 65.5323C98.009 65.7197 97.4696 65.7105 96.9908 65.5067C96.512 65.3029 96.1315 64.9205 95.9301 64.4407L85.4101 37.1007C84.5841 35.2221 84.5349 33.0931 85.273 31.1784C86.0112 29.2636 87.4769 27.7186 89.3501 26.8807C90.3812 26.4188 91.553 26.3824 92.6108 26.7793C93.6687 27.1762 94.5273 27.9745 95.0001 29.0007L97.0601 33.6107C97.5104 32.4152 98.2475 31.3487 99.2065 30.5047C100.165 29.6608 101.317 29.0653 102.56 28.7707C103.11 28.6434 103.68 28.6261 104.237 28.7197C104.794 28.8133 105.327 29.0159 105.806 29.3161C106.284 29.6162 106.699 30.0078 107.026 30.4685C107.352 30.9292 107.585 31.4499 107.71 32.0007L110.82 45.2307C111.273 44.1619 111.956 43.2059 112.82 42.4307C113.577 41.7434 114.462 41.2127 115.425 40.8695C116.388 40.5262 117.409 40.3771 118.43 40.4307C118.991 40.4588 119.541 40.5974 120.048 40.8384C120.556 41.0795 121.011 41.4182 121.387 41.8353C121.763 42.2524 122.053 42.7396 122.241 43.2691C122.428 43.7985 122.51 44.3597 122.48 44.9207L120.9 88.4807C120.9 88.8407 120.9 89.1307 120.9 89.4807C120.911 94.4198 119.345 99.2336 116.43 103.221C116.241 103.467 115.997 103.665 115.717 103.801C115.438 103.936 115.131 104.005 114.82 104.001Z" fill="black"/>
  <path d="M90.7602 114.79C90.4061 114.793 90.0575 114.702 89.75 114.527C89.4426 114.351 89.1873 114.097 89.0102 113.79C88.0102 112.09 84.9302 107.45 81.9502 106.52C80.4602 106.05 78.0402 107.1 75.9502 108.03C73.0302 109.29 70.0102 110.6 67.5902 108.95C67.0115 108.576 66.5165 108.086 66.1362 107.511C65.7559 106.936 65.4985 106.289 65.3802 105.61C64.9002 102.86 66.6502 99.98 68.4302 97.52C69.8402 95.57 73.0702 93.37 76.4302 91.05C78.3002 89.78 80.0702 88.59 81.2402 87.61C83.6502 85.61 86.8002 81.18 87.9902 79.46L85.4702 68.9C85.3408 68.4443 85.1271 68.0169 84.8402 67.64L79.9102 68L75.0002 71.46C74.2322 72.009 73.3627 72.4 72.4423 72.6103C71.5219 72.8206 70.5689 72.846 69.6386 72.6851C68.7083 72.5242 67.8193 72.1801 67.023 71.6728C66.2268 71.1655 65.5392 70.5051 65.0002 69.73L64.7902 69.44C64.0953 68.449 63.8219 67.2228 64.03 66.0305C64.2381 64.8381 64.9107 63.777 65.9002 63.08L75.6602 56.21C76.1209 55.8905 76.6264 55.6412 77.1602 55.47C77.2983 55.4084 77.4424 55.3615 77.5902 55.33H77.7302H77.9502L88.7302 53.16C88.9302 53.1133 89.1302 53.0733 89.3302 53.04C90.5651 52.8363 91.8327 53.0098 92.9673 53.5379C94.102 54.0659 95.051 54.924 95.6902 56L100.81 64.88C100.955 65.1076 101.052 65.3622 101.096 65.6284C101.14 65.8945 101.129 66.1668 101.065 66.4288C101.001 66.6908 100.884 66.9371 100.722 67.1529C100.561 67.3687 100.357 67.5495 100.123 67.6845C99.8897 67.8195 99.6313 67.9058 99.3636 67.9384C99.0958 67.9709 98.8242 67.9489 98.5651 67.8738C98.3061 67.7986 98.0649 67.6718 97.8561 67.501C97.6473 67.3303 97.4753 67.119 97.3502 66.88L92.2202 58C91.9934 57.61 91.655 57.2969 91.2487 57.1008C90.8424 56.9048 90.3866 56.8348 89.9402 56.9H89.7202H89.6102L78.7702 59.18H78.6802H78.5702C78.3692 59.2355 78.1772 59.3197 78.0002 59.43L68.2402 66.3C68.1175 66.3867 68.0339 66.5183 68.0077 66.6662C67.9815 66.8141 68.0147 66.9665 68.1002 67.09L68.3102 67.38C68.7894 68.0567 69.5167 68.5163 70.3336 68.6587C71.1504 68.8011 71.9904 68.6146 72.6702 68.14L78.0702 64.34C78.365 64.132 78.7105 64.0076 79.0702 63.98L84.8202 63.58C87.3902 63.31 88.8202 66.12 89.3302 67.84L92.1002 79.3C92.1652 79.5684 92.1738 79.8474 92.1256 80.1193C92.0774 80.3912 91.9734 80.6502 91.8202 80.88C91.6402 81.15 87.2802 87.7 83.8202 90.6C82.5002 91.7 80.6602 92.96 78.7002 94.28C76.0002 96.12 72.6402 98.4 71.6402 99.79C69.9102 102.18 69.1202 103.88 69.2902 104.79C69.3152 104.945 69.3762 105.091 69.4682 105.218C69.5603 105.345 69.6809 105.448 69.8202 105.52C70.4202 105.92 72.8202 104.86 74.3202 104.23C77.0902 103.03 80.2302 101.67 83.1402 102.57C88.1402 104.14 92.0802 110.95 92.5102 111.72C92.6865 112.025 92.779 112.372 92.7782 112.725C92.7774 113.077 92.6834 113.423 92.5058 113.728C92.3281 114.032 92.0731 114.285 91.7665 114.459C91.46 114.633 91.1128 114.723 90.7602 114.72V114.79Z" fill="black"/>
  <path d="M109.9 70.4303C109.508 70.43 109.124 70.3141 108.797 70.0972C108.47 69.8802 108.214 69.5718 108.06 69.2103L96.8704 43.0003C96.6622 42.5123 96.6564 41.9616 96.8543 41.4693C97.0521 40.977 97.4374 40.5835 97.9254 40.3753C98.4134 40.1671 98.9641 40.1613 99.4564 40.3591C99.9487 40.557 100.342 40.9423 100.55 41.4303L111.74 67.6403C111.954 68.122 111.968 68.6684 111.781 69.1609C111.594 69.6533 111.22 70.052 110.74 70.2703C110.475 70.3836 110.189 70.4381 109.9 70.4303Z" fill="black"/>
  <path d="M93.3507 133.72C92.966 133.719 92.5897 133.608 92.2669 133.398C91.9441 133.189 91.6885 132.891 91.5307 132.54L84.0007 115.8C83.7979 115.31 83.7979 114.76 84.0007 114.27C84.1782 113.785 84.5365 113.387 85.0007 113.16L121.361 96.8701C121.6 96.7614 121.859 96.701 122.122 96.6925C122.385 96.6839 122.647 96.7273 122.893 96.8202C123.139 96.9131 123.365 97.0537 123.557 97.2338C123.748 97.414 123.903 97.6302 124.011 97.8701L131.501 114.6C131.609 114.839 131.669 115.098 131.678 115.36C131.686 115.623 131.643 115.884 131.551 116.13C131.458 116.377 131.318 116.603 131.137 116.795C130.957 116.987 130.741 117.142 130.501 117.25L94.1307 133.54C93.8855 133.652 93.6202 133.713 93.3507 133.72ZM88.5007 116L94.3607 129.08L127.081 114.42L121.211 101.34L88.5007 116Z" fill="black"/>
  <path d="M126.08 71.6406H126C125.471 71.6097 124.976 71.3701 124.624 70.9745C124.271 70.5789 124.09 70.0596 124.12 69.5306L125.12 51.2006C125.151 50.6717 125.391 50.1766 125.787 49.8241C126.182 49.4717 126.701 49.2906 127.23 49.3206C127.759 49.3515 128.254 49.5911 128.607 49.9867C128.959 50.3823 129.14 50.9016 129.11 51.4306L128.11 69.7606C128.08 70.2752 127.851 70.758 127.473 71.1083C127.095 71.4586 126.596 71.6493 126.08 71.6406Z" fill="black"/>
  <path d="M127.491 47.0001H127.371C126.842 46.9692 126.347 46.7296 125.994 46.334C125.642 45.9384 125.46 45.4191 125.491 44.8901L125.701 41.1401C125.73 40.6097 125.968 40.1125 126.364 39.7581C126.76 39.4037 127.28 39.2209 127.811 39.2501C128.341 39.2793 128.838 39.518 129.193 39.9137C129.547 40.3094 129.73 40.8297 129.701 41.3601L129.481 45.1201C129.45 45.6277 129.227 46.1047 128.858 46.4539C128.488 46.8032 127.999 46.9985 127.491 47.0001Z" fill="black"/>
  <path d="M5.34013 66.0806C4.82822 66.0814 4.3355 65.8859 3.96343 65.5343C3.59137 65.1827 3.36829 64.7018 3.34013 64.1906L2.04013 40.9206C2.01096 40.3902 2.19369 39.8699 2.54814 39.4742C2.90258 39.0785 3.3997 38.8398 3.93013 38.8106C4.46057 38.7815 4.98086 38.9642 5.37657 39.3186C5.77227 39.6731 6.01096 40.1702 6.04013 40.7006L7.34013 64.0006C7.35498 64.2634 7.31784 64.5265 7.23082 64.7748C7.14381 65.0232 7.00864 65.2519 6.83306 65.4479C6.65749 65.6439 6.44495 65.8034 6.20764 65.9171C5.97033 66.0308 5.71291 66.0966 5.45013 66.1106L5.34013 66.0806Z" fill="black"/>
  <path d="M18 13.5403C17.4696 13.5403 16.9609 13.3296 16.5858 12.9545C16.2107 12.5794 16 12.0707 16 11.5403V2.28027C16 1.74984 16.2107 1.24113 16.5858 0.86606C16.9609 0.490988 17.4696 0.280273 18 0.280273C18.5304 0.280273 19.0391 0.490988 19.4142 0.86606C19.7893 1.24113 20 1.74984 20 2.28027V11.5403C20 12.0707 19.7893 12.5794 19.4142 12.9545C19.0391 13.3296 18.5304 13.5403 18 13.5403Z" fill="black"/>
  <path d="M18 31.0803C17.4696 31.0803 16.9609 30.8696 16.5858 30.4945C16.2107 30.1195 16 29.6107 16 29.0803V19.8203C16 19.2899 16.2107 18.7812 16.5858 18.4061C16.9609 18.031 17.4696 17.8203 18 17.8203C18.5304 17.8203 19.0391 18.031 19.4142 18.4061C19.7893 18.7812 20 19.2899 20 19.8203V29.0803C20 29.6107 19.7893 30.1195 19.4142 30.4945C19.0391 30.8696 18.5304 31.0803 18 31.0803Z" fill="black"/>
  <path d="M31.3606 17.6807H22.1006C21.5702 17.6807 21.0614 17.4699 20.6864 17.0949C20.3113 16.7198 20.1006 16.2111 20.1006 15.6807C20.1006 15.1502 20.3113 14.6415 20.6864 14.2665C21.0614 13.8914 21.5702 13.6807 22.1006 13.6807H31.3606C31.891 13.6807 32.3997 13.8914 32.7748 14.2665C33.1499 14.6415 33.3606 15.1502 33.3606 15.6807C33.3606 16.2111 33.1499 16.7198 32.7748 17.0949C32.3997 17.4699 31.891 17.6807 31.3606 17.6807Z" fill="black"/>
  <path d="M13.8205 17.6807H4.56055C4.03011 17.6807 3.52141 17.4699 3.14633 17.0949C2.77126 16.7198 2.56055 16.2111 2.56055 15.6807C2.56055 15.1502 2.77126 14.6415 3.14633 14.2665C3.52141 13.8914 4.03011 13.6807 4.56055 13.6807H13.8205C14.351 13.6807 14.8597 13.8914 15.2348 14.2665C15.6098 14.6415 15.8205 15.1502 15.8205 15.6807C15.8205 16.2111 15.6098 16.7198 15.2348 17.0949C14.8597 17.4699 14.351 17.6807 13.8205 17.6807Z" fill="black"/>
</svg>
