<svg xmlns="http://www.w3.org/2000/svg" viewBox="0 0 101.49 111.83">
  <path class="cls-1" d="M50.44,94.47a5,5,0,1,0,5.28,4.8A5.06,5.06,0,0,0,50.44,94.47Z" fill="#464343"/>
  <path class="cls-1" d="M50.68,8.94a35.87,35.87,0,0,0-9.8,70.37c1.11.55,4.26,1.09,6.39,4,1.86,2.54,2,5.18,3,5.18h.07c1,0,1.14-2.64,3-5.18a10.06,10.06,0,0,1,4.9-3.42A35.87,35.87,0,0,0,50.68,8.94Z" fill="#464343"/>
  <path class="cls-2" d="M36.64,29.47v28l0,3.15h11V52.87h6.11v7.79h11l0-31.19Zm11,17.45H42.9V42.15h4.72Zm0-7.79H42.9V34.47h4.72Zm10.83,7.79H53.73V42.15h4.72Zm0-7.79H53.73V34.47h4.72Z" fill="#fff"/>
</svg>
