<svg width="160" height="118" viewBox="0 0 160 118" fill="none"
  xmlns="http://www.w3.org/2000/svg">
  <path d="M62.7799 117.66H17.5799C15.4829 117.657 13.4725 116.823 11.9896 115.34C10.5068 113.857 9.67257 111.847 9.66992 109.75V8.24984C9.67257 6.15279 10.5068 4.14239 11.9896 2.65955C13.4725 1.17671 15.4829 0.34249 17.5799 0.339844H62.7799C64.877 0.34249 66.8874 1.17671 68.3702 2.65955C69.8531 4.14239 70.6873 6.15279 70.6899 8.24984V39.8398C70.6899 40.3703 70.4792 40.879 70.1041 41.2541C69.7291 41.6291 69.2204 41.8398 68.6899 41.8398C68.1595 41.8398 67.6508 41.6291 67.2757 41.2541C66.9006 40.879 66.6899 40.3703 66.6899 39.8398V8.24984C66.6899 7.21285 66.278 6.21832 65.5447 5.48506C64.8114 4.75179 63.8169 4.33984 62.7799 4.33984H17.5799C16.5429 4.33984 15.5484 4.75179 14.8151 5.48506C14.0819 6.21832 13.6699 7.21285 13.6699 8.24984V109.75C13.6699 110.787 14.0819 111.781 14.8151 112.515C15.5484 113.248 16.5429 113.66 17.5799 113.66H62.7799C63.8169 113.66 64.8114 113.248 65.5447 112.515C66.278 111.781 66.6899 110.787 66.6899 109.75V85.2898C66.6899 84.7594 66.9006 84.2507 67.2757 83.8756C67.6508 83.5005 68.1595 83.2898 68.6899 83.2898C69.2204 83.2898 69.7291 83.5005 70.1041 83.8756C70.4792 84.2507 70.6899 84.7594 70.6899 85.2898V109.75C70.6873 111.847 69.8531 113.857 68.3702 115.34C66.8874 116.823 64.877 117.657 62.7799 117.66Z" fill="black"/>
  <path d="M50.7096 10.1602H29.6396C29.1092 10.1602 28.6005 9.94944 28.2254 9.57437C27.8504 9.1993 27.6396 8.69059 27.6396 8.16016C27.6396 7.62972 27.8504 7.12102 28.2254 6.74594C28.6005 6.37087 29.1092 6.16016 29.6396 6.16016H50.7096C51.2401 6.16016 51.7488 6.37087 52.1239 6.74594C52.4989 7.12102 52.7096 7.62972 52.7096 8.16016C52.7096 8.69059 52.4989 9.1993 52.1239 9.57437C51.7488 9.94944 51.2401 10.1602 50.7096 10.1602Z" fill="black"/>
  <path d="M2.12988 106.63C1.59945 106.63 1.09074 106.419 0.715669 106.044C0.340597 105.669 0.129883 105.16 0.129883 104.63V76.3496C0.129883 75.8192 0.340597 75.3105 0.715669 74.9354C1.09074 74.5603 1.59945 74.3496 2.12988 74.3496C2.66032 74.3496 3.16902 74.5603 3.5441 74.9354C3.91917 75.3105 4.12988 75.8192 4.12988 76.3496V104.63C4.12988 105.16 3.91917 105.669 3.5441 106.044C3.16902 106.419 2.66032 106.63 2.12988 106.63Z" fill="black"/>
  <path d="M2.12988 71.53C1.59945 71.53 1.09074 71.3193 0.715669 70.9442C0.340597 70.5691 0.129883 70.0604 0.129883 69.53V60.25C0.129883 59.7196 0.340597 59.2109 0.715669 58.8358C1.09074 58.4607 1.59945 58.25 2.12988 58.25C2.66032 58.25 3.16902 58.4607 3.5441 58.8358C3.91917 59.2109 4.12988 59.7196 4.12988 60.25V69.53C4.12988 70.0604 3.91917 70.5691 3.5441 70.9442C3.16902 71.3193 2.66032 71.53 2.12988 71.53Z" fill="black"/>
  <path d="M23.5498 53.7901V58.8801L37.2598 57.3701V51.8701L23.5498 53.7901Z" fill="#050703"/>
  <path d="M27.9297 59.1899V76.6099H32.9497V58.6699L27.9297 59.1899Z" fill="#050703"/>
  <path d="M39.1104 51.6094V76.6094H44.4004V50.8594L39.1104 51.6094Z" fill="#050703"/>
  <path d="M45.3896 50.7194V56.4694L53.0296 55.6394V49.6494L45.3896 50.7194Z" fill="#050703"/>
  <path d="M45.3896 60.7503V66.6103L50.3997 66.3403V60.3203L45.3896 60.7503Z" fill="#050703"/>
  <path d="M45.3896 70.8296V76.6096H53.0296V70.5996L45.3896 70.8296Z" fill="#050703"/>
  <path d="M72.7803 46.8697V76.6096H79.7203V45.8896L72.7803 46.8697Z" fill="#050703"/>
  <path d="M81.0098 45.71V52.55L91.1198 51.44V44.29L81.0098 45.71Z" fill="#050703"/>
  <path d="M81.0098 57.6899V64.6599L87.6398 64.2999V57.1299L81.0098 57.6899Z" fill="#050703"/>
  <path d="M81.0098 69.7502V76.6102H91.1198V69.4502L81.0098 69.7502Z" fill="#050703"/>
  <path d="M55.0498 49.3695V76.6095H61.0798V48.5195L55.0498 49.3695Z" fill="#050703"/>
  <path d="M62.2002 70.3196V76.6096H70.9502V70.0596L62.2002 70.3196Z" fill="#050703"/>
  <path d="M113.78 44.0002C112.573 42.9487 111.143 42.1854 109.597 41.7679C108.052 41.3504 106.432 41.2896 104.86 41.5902V49.1702C105.471 49.0601 106.101 49.1424 106.664 49.4057C107.226 49.669 107.693 50.1004 108 50.6402C108.81 52.3102 108 54.8303 106 57.1603C103 60.7603 94.8398 68.1603 94.8398 68.1603L106.48 67.7802C113.59 60.8302 116.14 56.6202 116.6 51.3502C116.717 49.9915 116.525 48.6239 116.036 47.3506C115.548 46.0773 114.776 44.9316 113.78 44.0002Z" fill="#050703"/>
  <path d="M93.3604 69.3799V76.6099H116.96V68.6699L93.3604 69.3799Z" fill="#050703"/>
  <path d="M103.5 41.71C96.6398 43.17 93.2798 48.21 93.6598 56.44L100.97 55.79C100.64 51.14 102.06 50.04 103.5 49.43V41.71Z" fill="#050703"/>
  <path d="M119.13 86.1594C118.715 86.1611 118.309 86.0338 117.97 85.795C117.631 85.5562 117.374 85.2178 117.236 84.8267C117.097 84.4356 117.084 84.011 117.197 83.612C117.311 83.2129 117.546 82.859 117.87 82.5994C121.391 79.7523 124.235 76.1577 126.196 72.0759C128.157 67.9941 129.186 63.5273 129.208 58.9989C129.23 54.4706 128.245 49.994 126.324 45.8933C124.402 41.7927 121.593 38.1706 118.1 35.2894C117.69 34.9512 117.431 34.4642 117.381 33.9353C117.33 33.4064 117.491 32.8791 117.83 32.4694C118.168 32.0596 118.655 31.801 119.184 31.7503C119.712 31.6997 120.24 31.8612 120.65 32.1994C124.601 35.4587 127.778 39.5559 129.95 44.1944C132.123 48.8329 133.236 53.8965 133.21 59.0184C133.184 64.1404 132.02 69.1925 129.801 73.8088C127.582 78.4251 124.363 82.4901 120.38 85.7094C120.026 85.9974 119.585 86.1562 119.13 86.1594Z" fill="black"/>
  <path d="M127.48 96.4999C127.068 96.4971 126.667 96.3673 126.332 96.1282C125.997 95.8892 125.744 95.5525 125.607 95.1642C125.47 94.7759 125.457 94.3549 125.568 93.9586C125.68 93.5623 125.911 93.2101 126.23 92.9499C131.314 88.8394 135.415 83.6439 138.232 77.7437C141.049 71.8436 142.511 65.3881 142.511 58.8499C142.511 52.3117 141.049 45.8563 138.232 39.9561C135.415 34.056 131.314 28.8605 126.23 24.7499C126.013 24.5895 125.831 24.3868 125.695 24.1542C125.558 23.9216 125.47 23.6638 125.436 23.3963C125.402 23.1288 125.422 22.8572 125.496 22.5977C125.569 22.3383 125.694 22.0963 125.864 21.8865C126.033 21.6766 126.243 21.5032 126.481 21.3766C126.719 21.25 126.98 21.1729 127.249 21.1499C127.518 21.1269 127.788 21.1584 128.045 21.2426C128.301 21.3268 128.537 21.462 128.74 21.6399C134.289 26.1244 138.766 31.7934 141.841 38.2318C144.916 44.6702 146.512 51.7149 146.512 58.8499C146.512 65.985 144.916 73.0297 141.841 79.4681C138.766 85.9065 134.289 91.5755 128.74 96.0599C128.383 96.3465 127.938 96.5019 127.48 96.4999Z" fill="black"/>
  <path d="M135.88 106.89C135.467 106.889 135.065 106.761 134.728 106.522C134.392 106.284 134.137 105.947 133.999 105.559C133.861 105.17 133.847 104.748 133.958 104.351C134.069 103.954 134.3 103.6 134.62 103.34C141.245 97.986 146.59 91.2205 150.266 83.5369C153.942 75.8534 155.856 67.4459 155.867 58.9283C155.879 50.4108 153.988 41.9981 150.333 34.3047C146.677 26.6113 141.35 19.8313 134.74 14.4597C134.327 14.1256 134.065 13.6412 134.009 13.1133C133.954 12.5854 134.111 12.0571 134.445 11.6447C134.779 11.2323 135.263 10.9696 135.791 10.9142C136.319 10.8589 136.847 11.0156 137.26 11.3497C144.334 17.0963 150.035 24.3501 153.947 32.5817C157.859 40.8132 159.883 49.8145 159.872 58.9283C159.86 68.0422 157.813 77.0384 153.88 85.26C149.948 93.4816 144.228 100.721 137.14 106.45C136.783 106.736 136.338 106.892 135.88 106.89Z" fill="black"/>
</svg>
