<svg width="160" height="160" viewBox="0 0 160 160" fill="none"
  xmlns="http://www.w3.org/2000/svg">
  <path d="M84.5702 50.62C84.0398 50.6558 83.5169 50.4794 83.1165 50.1297C82.7161 49.7799 82.471 49.2854 82.4352 48.755C82.3994 48.2246 82.5758 47.7016 82.9255 47.3013C83.2753 46.9009 83.7698 46.6558 84.3002 46.62C89.6602 45.87 93.1402 43.79 97.1802 41.38C103.33 37.71 110.29 33.55 124.5 33.38C125.031 33.38 125.539 33.5907 125.914 33.9658C126.29 34.3409 126.5 34.8496 126.5 35.38C126.5 35.9104 126.29 36.4191 125.914 36.7942C125.539 37.1693 125.031 37.38 124.5 37.38C111.37 37.54 104.9 41.38 99.1902 44.82C95.0002 47.35 91.0002 49.74 84.8602 50.6C84.7645 50.6166 84.6673 50.6233 84.5702 50.62Z" fill="black"/>
  <path d="M111.75 73.1201C111.4 73.1285 111.054 73.0421 110.75 72.8701C110.519 72.7437 110.315 72.5729 110.151 72.3677C109.986 72.1624 109.864 71.9267 109.79 71.674C109.717 71.4214 109.694 71.1567 109.723 70.8952C109.752 70.6337 109.833 70.3805 109.96 70.1501L125.7 41.6301C125.956 41.1646 126.386 40.8199 126.896 40.6718C127.406 40.5236 127.954 40.5842 128.42 40.8401C128.885 41.096 129.23 41.5264 129.378 42.0365C129.526 42.5466 129.466 43.0946 129.21 43.5601L113.5 72.0801C113.328 72.3942 113.075 72.6565 112.767 72.8394C112.459 73.0223 112.108 73.1193 111.75 73.1201Z" fill="black"/>
  <path d="M145.21 73.1201C144.856 73.1232 144.507 73.0323 144.2 72.8566C143.892 72.6809 143.637 72.4268 143.46 72.1201L127.71 43.5601C127.478 43.0981 127.435 42.5644 127.588 42.071C127.741 41.5775 128.08 41.1626 128.532 40.9131C128.985 40.6635 129.516 40.5988 130.015 40.7325C130.515 40.8662 130.943 41.1878 131.21 41.6301L147 70.1501C147.127 70.3805 147.207 70.6336 147.236 70.8952C147.265 71.1567 147.243 71.4213 147.169 71.674C147.096 71.9267 146.973 72.1624 146.809 72.3676C146.644 72.5729 146.441 72.7436 146.21 72.8701C145.905 73.042 145.56 73.1284 145.21 73.1201Z" fill="black"/>
  <path d="M120.54 94.2801C120.228 94.2784 119.92 94.2067 119.64 94.0701C116.416 92.4526 113.707 89.9685 111.817 86.8966C109.927 83.8248 108.93 80.2868 108.94 76.6801C108.94 76.1496 109.15 75.6409 109.525 75.2658C109.9 74.8908 110.409 74.6801 110.94 74.6801C111.47 74.6801 111.979 74.8908 112.354 75.2658C112.729 75.6409 112.94 76.1496 112.94 76.6801C112.932 79.5472 113.724 82.3597 115.228 84.8012C116.731 87.2426 118.886 89.2162 121.45 90.5001C121.849 90.7046 122.168 91.0376 122.355 91.4453C122.542 91.8531 122.587 92.3119 122.482 92.7482C122.377 93.1844 122.128 93.5726 121.776 93.8505C121.424 94.1283 120.988 94.2796 120.54 94.2801Z" fill="black"/>
  <path d="M135.68 94.5801C135.224 94.5802 134.781 94.424 134.425 94.1374C134.069 93.8508 133.822 93.4511 133.725 93.0047C133.628 92.5583 133.687 92.0922 133.892 91.6838C134.096 91.2754 134.435 90.9494 134.85 90.7601C137.537 89.5152 139.811 87.5283 141.406 85.0337C143 82.5391 143.848 79.6407 143.85 76.6801C143.85 76.1496 144.061 75.6409 144.436 75.2658C144.811 74.8908 145.32 74.6801 145.85 74.6801C146.381 74.6801 146.89 74.8908 147.265 75.2658C147.64 75.6409 147.85 76.1496 147.85 76.6801C147.846 80.4074 146.776 84.0559 144.767 87.1955C142.758 90.335 139.893 92.8347 136.51 94.4001C136.25 94.5188 135.967 94.5802 135.68 94.5801Z" fill="black"/>
  <path d="M148.15 78.4601H108.81C108.279 78.4601 107.77 78.2494 107.395 77.8743C107.02 77.4993 106.81 76.9905 106.81 76.4601V71.1201C106.81 70.5897 107.02 70.081 107.395 69.7059C107.77 69.3308 108.279 69.1201 108.81 69.1201H148.15C148.68 69.1201 149.189 69.3308 149.564 69.7059C149.939 70.081 150.15 70.5897 150.15 71.1201V76.4601C150.15 76.9905 149.939 77.4993 149.564 77.8743C149.189 78.2494 148.68 78.4601 148.15 78.4601ZM110.81 74.4601H146.15V73.1201H110.81V74.4601Z" fill="black"/>
  <path d="M128.48 44.6001C127.157 44.6001 125.863 44.2077 124.763 43.4726C123.663 42.7375 122.806 41.6927 122.299 40.4702C121.793 39.2478 121.66 37.9027 121.919 36.6049C122.177 35.3072 122.814 34.1152 123.749 33.1796C124.685 32.2439 125.877 31.6068 127.175 31.3486C128.473 31.0905 129.818 31.223 131.04 31.7293C132.263 32.2357 133.307 33.0932 134.043 34.1933C134.778 35.2935 135.17 36.5869 135.17 37.9101C135.167 39.6836 134.462 41.3837 133.208 42.6377C131.954 43.8918 130.254 44.5974 128.48 44.6001ZM128.48 35.2201C127.948 35.2201 127.428 35.3779 126.986 35.6734C126.543 35.969 126.198 36.3891 125.995 36.8807C125.791 37.3722 125.738 37.9131 125.842 38.4349C125.946 38.9567 126.202 39.436 126.578 39.8122C126.954 40.1884 127.433 40.4446 127.955 40.5484C128.477 40.6522 129.018 40.5989 129.509 40.3953C130.001 40.1917 130.421 39.8469 130.717 39.4046C131.012 38.9622 131.17 38.4421 131.17 37.9101C131.17 37.1967 130.887 36.5124 130.382 36.008C129.878 35.5035 129.193 35.2201 128.48 35.2201Z" fill="black"/>
  <path d="M73.0796 50.62C72.9832 50.6299 72.886 50.6299 72.7896 50.62C66.6396 49.75 62.6496 47.37 58.4296 44.85C52.7096 41.44 46.2296 37.57 33.0996 37.41C32.5692 37.41 32.0605 37.1993 31.6854 36.8242C31.3103 36.4492 31.0996 35.9405 31.0996 35.41C31.0996 34.8796 31.3103 34.3709 31.6854 33.9958C32.0605 33.6207 32.5692 33.41 33.0996 33.41C47.3096 33.59 54.2696 37.75 60.4196 41.41C64.4196 43.83 67.9496 45.91 73.2996 46.66C73.83 46.6958 74.3245 46.9409 74.6743 47.3413C75.024 47.7417 75.2004 48.2646 75.1646 48.795C75.1288 49.3255 74.8838 49.82 74.4834 50.1697C74.083 50.5195 73.56 50.6958 73.0296 50.66L73.0796 50.62Z" fill="black"/>
  <path d="M45.72 72.7801C45.3642 72.785 45.0135 72.695 44.7041 72.5192C44.3948 72.3434 44.1379 72.0882 43.96 71.7801L28.41 43.5601C28.1786 43.0981 28.135 42.5644 28.2883 42.071C28.4416 41.5775 28.78 41.1626 29.2325 40.9131C29.685 40.6635 30.2165 40.5988 30.7156 40.7325C31.2147 40.8662 31.6428 41.1878 31.91 41.6301L47.47 69.8201C47.7235 70.2844 47.7827 70.8303 47.6347 71.3382C47.4866 71.8461 47.1433 72.2747 46.68 72.5301C46.3861 72.6927 46.0559 72.7787 45.72 72.7801Z" fill="black"/>
  <path d="M12.6303 72.78C12.2805 72.7884 11.935 72.702 11.6303 72.53C11.167 72.2746 10.8237 71.8461 10.6756 71.3382C10.5276 70.8303 10.5868 70.2844 10.8403 69.82L26.4903 41.54C26.617 41.3095 26.7879 41.1063 26.9932 40.9419C27.1985 40.7774 27.4341 40.655 27.6867 40.5817C27.9393 40.5083 28.2038 40.4854 28.4652 40.5143C28.7267 40.5432 28.9798 40.6233 29.2103 40.75C29.4408 40.8767 29.644 41.0476 29.8085 41.2529C29.9729 41.4582 30.0953 41.6938 30.1686 41.9464C30.242 42.199 30.2649 42.4635 30.236 42.7249C30.2071 42.9864 30.127 43.2395 30.0003 43.47L14.3803 71.75C14.2071 72.0623 13.9535 72.3225 13.6458 72.5036C13.338 72.6847 12.9874 72.7802 12.6303 72.78Z" fill="black"/>
  <path d="M29.2398 96C24.0732 95.9947 19.12 93.9393 15.4676 90.2851C11.8153 86.6308 9.76241 81.6765 9.75977 76.51C9.75977 75.9796 9.97048 75.4709 10.3456 75.0958C10.7206 74.7207 11.2293 74.51 11.7598 74.51C12.2902 74.51 12.7989 74.7207 13.174 75.0958C13.5491 75.4709 13.7598 75.9796 13.7598 76.51C13.7598 80.6209 15.3928 84.5633 18.2996 87.4702C21.2064 90.377 25.1489 92.01 29.2598 92.01C33.3706 92.01 37.3131 90.377 40.2199 87.4702C43.1267 84.5633 44.7598 80.6209 44.7598 76.51C44.7598 75.9796 44.9705 75.4709 45.3456 75.0958C45.7206 74.7207 46.2293 74.51 46.7598 74.51C47.2902 74.51 47.7989 74.7207 48.174 75.0958C48.5491 75.4709 48.7598 75.9796 48.7598 76.51C48.7598 79.072 48.2547 81.6088 47.2733 83.9754C46.292 86.342 44.8537 88.4919 43.0407 90.3021C41.2277 92.1123 39.0756 93.5473 36.7075 94.525C34.3394 95.5027 31.8018 96.004 29.2398 96Z" fill="black"/>
  <path d="M48.85 78.4601H9.5C8.96957 78.4601 8.46086 78.2494 8.08579 77.8743C7.71071 77.4993 7.5 76.9905 7.5 76.4601V71.1201C7.5 70.5897 7.71071 70.081 8.08579 69.7059C8.46086 69.3308 8.96957 69.1201 9.5 69.1201H48.85C49.3804 69.1201 49.8891 69.3308 50.2642 69.7059C50.6393 70.081 50.85 70.5897 50.85 71.1201V76.4601C50.85 76.9905 50.6393 77.4993 50.2642 77.8743C49.8891 78.2494 49.3804 78.4601 48.85 78.4601ZM11.5 74.4601H46.85V73.1201H11.5V74.4601Z" fill="black"/>
  <path d="M29.1705 44.6001C27.8473 44.6001 26.5539 44.2077 25.4537 43.4726C24.3535 42.7375 23.4961 41.6927 22.9897 40.4702C22.4834 39.2478 22.3509 37.9027 22.609 36.6049C22.8672 35.3072 23.5043 34.1152 24.4399 33.1796C25.3755 32.2439 26.5676 31.6068 27.8653 31.3486C29.163 31.0905 30.5082 31.223 31.7306 31.7293C32.9531 32.2357 33.9979 33.0932 34.733 34.1933C35.4681 35.2935 35.8605 36.5869 35.8605 37.9101C35.8578 39.6836 35.1521 41.3837 33.8981 42.6377C32.644 43.8918 30.944 44.5974 29.1705 44.6001ZM29.1705 35.2201C28.6384 35.2201 28.1184 35.3779 27.676 35.6734C27.2336 35.969 26.8888 36.3891 26.6852 36.8807C26.4816 37.3722 26.4284 37.9131 26.5322 38.4349C26.636 38.9567 26.8922 39.436 27.2684 39.8122C27.6446 40.1884 28.1239 40.4446 28.6457 40.5484C29.1675 40.6522 29.7084 40.5989 30.1999 40.3953C30.6914 40.1917 31.1115 39.8469 31.4071 39.4046C31.7027 38.9622 31.8605 38.4421 31.8605 37.9101C31.8605 37.1967 31.5771 36.5124 31.0726 36.008C30.5681 35.5035 29.8839 35.2201 29.1705 35.2201Z" fill="black"/>
  <path d="M75.7998 48.6301C75.2694 48.6301 74.7607 48.4194 74.3856 48.0443C74.0105 47.6692 73.7998 47.1605 73.7998 46.6301L73.9998 37.4001C74.0128 36.8784 74.2293 36.3824 74.603 36.0181C74.9766 35.6537 75.4779 35.4499 75.9998 35.4501C76.5302 35.4501 77.0389 35.6608 77.414 36.0359C77.7891 36.4109 77.9998 36.9196 77.9998 37.4501L77.7698 46.6301C77.7699 47.1553 77.5633 47.6596 77.1947 48.0338C76.8261 48.408 76.325 48.6222 75.7998 48.6301Z" fill="black"/>
  <path d="M81.8403 48.2701C81.3099 48.2701 80.8012 48.0594 80.4261 47.6843C80.0511 47.3092 79.8403 46.8005 79.8403 46.2701L79.6104 37.8401C79.6102 37.3182 79.814 36.8169 80.1784 36.4433C80.5427 36.0696 81.0386 35.8531 81.5603 35.8401H81.6104C82.1306 35.8399 82.6304 36.0423 83.0038 36.4045C83.3772 36.7667 83.5947 37.2601 83.6104 37.7801L83.8304 46.2101C83.8384 46.4728 83.7945 46.7344 83.7013 46.9802C83.6081 47.2259 83.4674 47.4508 83.2873 47.6421C83.1071 47.8334 82.891 47.9874 82.6513 48.0951C82.4116 48.2029 82.153 48.2623 81.8904 48.2701H81.8403Z" fill="black"/>
  <path d="M83.0502 104.32C82.5198 104.32 82.0111 104.109 81.636 103.734C81.2609 103.359 81.0502 102.85 81.0502 102.32L80.0502 56.3201C80.045 56.0574 80.0915 55.7963 80.1871 55.5517C80.2828 55.307 80.4257 55.0836 80.6077 54.8941C80.7897 54.7047 81.0072 54.553 81.2479 54.4476C81.4885 54.3422 81.7476 54.2853 82.0102 54.2801C82.2728 54.2748 82.534 54.3213 82.7786 54.417C83.0233 54.5127 83.2467 54.6556 83.4361 54.8376C83.6256 55.0196 83.7773 55.2371 83.8827 55.4777C83.988 55.7184 84.045 55.9774 84.0502 56.2401L85.0502 102.24C85.0502 102.77 84.8395 103.279 84.4644 103.654C84.0893 104.029 83.5806 104.24 83.0502 104.24V104.32Z" fill="black"/>
  <path d="M74.6104 104.32C74.0799 104.32 73.5712 104.109 73.1961 103.734C72.8211 103.359 72.6104 102.85 72.6104 102.32L73.6104 56.32C73.621 55.7896 73.8418 55.2851 74.2244 54.9175C74.607 54.55 75.1199 54.3494 75.6504 54.36C76.1808 54.3706 76.6853 54.5915 77.0528 54.9741C77.4204 55.3567 77.621 55.8696 77.6104 56.4L76.6104 102.4C76.5897 102.916 76.3699 103.405 75.997 103.763C75.6242 104.121 75.1272 104.32 74.6104 104.32Z" fill="black"/>
  <path d="M88.3602 112.87C87.8297 112.87 87.321 112.659 86.9459 112.284C86.5709 111.909 86.3602 111.4 86.3602 110.87C86.3971 109.857 86.2295 108.848 85.8674 107.901C85.5054 106.955 84.9563 106.091 84.2529 105.362C83.5496 104.632 82.7065 104.052 81.7739 103.656C80.8413 103.26 79.8384 103.055 78.8252 103.055C77.8119 103.055 76.809 103.26 75.8764 103.656C74.9438 104.052 74.1007 104.632 73.3974 105.362C72.694 106.091 72.1449 106.955 71.7829 107.901C71.4208 108.848 71.2533 109.857 71.2902 110.87C71.2902 111.4 71.0794 111.909 70.7044 112.284C70.3293 112.659 69.8206 112.87 69.2902 112.87C68.7597 112.87 68.251 112.659 67.8759 112.284C67.5009 111.909 67.2902 111.4 67.2902 110.87C67.2447 109.327 67.5094 107.79 68.0687 106.351C68.6279 104.911 69.4703 103.599 70.5459 102.491C71.6215 101.384 72.9085 100.503 74.3306 99.9016C75.7528 99.3002 77.2811 98.9904 78.8252 98.9904C80.3692 98.9904 81.8975 99.3002 83.3197 99.9016C84.7418 100.503 86.0288 101.384 87.1044 102.491C88.18 103.599 89.0224 104.911 89.5816 106.351C90.1409 107.79 90.4056 109.327 90.3602 110.87C90.3602 111.4 90.1494 111.909 89.7744 112.284C89.3993 112.659 88.8906 112.87 88.3602 112.87Z" fill="black"/>
  <path d="M77.2503 125.94H51.7803C51.2498 125.94 50.7411 125.729 50.3661 125.354C49.991 124.979 49.7803 124.471 49.7803 123.94V115.63C49.7803 113.839 50.4911 112.121 51.7567 110.854C53.0223 109.586 54.7391 108.873 56.5303 108.87H101.12C102.449 108.869 103.748 109.26 104.854 109.995C105.961 110.73 106.826 111.775 107.34 113C107.461 113.245 107.53 113.511 107.543 113.783C107.557 114.056 107.515 114.328 107.419 114.583C107.324 114.838 107.178 115.071 106.989 115.268C106.8 115.465 106.573 115.621 106.322 115.726C106.071 115.832 105.801 115.886 105.528 115.883C105.256 115.881 104.987 115.823 104.737 115.713C104.488 115.602 104.264 115.443 104.079 115.243C103.894 115.043 103.751 114.807 103.66 114.55C103.449 114.051 103.096 113.625 102.644 113.326C102.192 113.028 101.662 112.869 101.12 112.87H56.5303C55.8 112.873 55.1006 113.165 54.5851 113.682C54.0697 114.199 53.7803 114.9 53.7803 115.63V121.94H77.2503C77.7807 121.94 78.2894 122.151 78.6645 122.526C79.0396 122.901 79.2503 123.41 79.2503 123.94C79.2503 124.471 79.0396 124.979 78.6645 125.354C78.2894 125.729 77.7807 125.94 77.2503 125.94Z" fill="black"/>
  <path d="M78.8301 40.16C77.2478 40.16 75.7011 39.6908 74.3855 38.8118C73.0699 37.9327 72.0445 36.6833 71.439 35.2215C70.8335 33.7597 70.6751 32.1512 70.9838 30.5993C71.2925 29.0475 72.0544 27.622 73.1732 26.5032C74.292 25.3844 75.7175 24.6224 77.2694 24.3138C78.8212 24.0051 80.4297 24.1635 81.8915 24.769C83.3534 25.3745 84.6028 26.3999 85.4818 27.7155C86.3609 29.0311 86.8301 30.5778 86.8301 32.16C86.8301 34.2818 85.9872 36.3166 84.4869 37.8169C82.9866 39.3172 80.9518 40.16 78.8301 40.16ZM78.8301 28.16C78.039 28.16 77.2656 28.3946 76.6078 28.8342C75.95 29.2737 75.4373 29.8984 75.1346 30.6293C74.8318 31.3602 74.7526 32.1645 74.9069 32.9404C75.0613 33.7163 75.4422 34.4291 76.0017 34.9885C76.5611 35.5479 77.2738 35.9288 78.0497 36.0832C78.8256 36.2375 79.6299 36.1583 80.3608 35.8556C81.0917 35.5528 81.7164 35.0401 82.156 34.3823C82.5955 33.7245 82.8301 32.9512 82.8301 32.16C82.8367 31.6306 82.7381 31.105 82.5401 30.6139C82.342 30.1229 82.0484 29.676 81.6763 29.2992C81.3042 28.9225 80.861 28.6234 80.3724 28.4192C79.8839 28.2151 79.3596 28.11 78.8301 28.11V28.16Z" fill="black"/>
  <path d="M67.1299 34.1301C66.5994 34.1301 66.0907 33.9193 65.7157 33.5443C65.3406 33.1692 65.1299 32.6605 65.1299 32.1301C65.1325 28.4974 66.5768 25.0143 69.1454 22.4456C71.7141 19.8769 75.1972 18.4327 78.8299 18.4301C79.3603 18.4301 79.869 18.6408 80.2441 19.0158C80.6192 19.3909 80.8299 19.8996 80.8299 20.4301C80.8299 20.9605 80.6192 21.4692 80.2441 21.8443C79.869 22.2193 79.3603 22.4301 78.8299 22.4301C76.2581 22.4327 73.7924 23.4555 71.9739 25.274C70.1553 27.0926 69.1325 29.5583 69.1299 32.1301C69.1299 32.6605 68.9192 33.1692 68.5441 33.5443C68.169 33.9193 67.6603 34.1301 67.1299 34.1301Z" fill="black"/>
  <path d="M17.54 40C17.0096 40 16.5009 39.7893 16.1258 39.4143C15.7508 39.0392 15.54 38.5305 15.54 38C15.5427 34.3674 16.9869 30.8843 19.5556 28.3156C22.1243 25.7469 25.6074 24.3027 29.24 24.3C29.7705 24.3 30.2792 24.5108 30.6543 24.8858C31.0293 25.2609 31.24 25.7696 31.24 26.3C31.24 26.8305 31.0293 27.3392 30.6543 27.7143C30.2792 28.0893 29.7705 28.3 29.24 28.3C26.6683 28.3027 24.2026 29.3255 22.384 31.144C20.5655 32.9626 19.5427 35.4283 19.54 38C19.54 38.5305 19.3293 39.0392 18.9543 39.4143C18.5792 39.7893 18.0705 40 17.54 40Z" fill="black"/>
  <path d="M78.8296 59.27C77.2939 59.272 75.7922 58.8183 74.5146 57.9664C73.2369 57.1145 72.2408 55.9026 71.6522 54.4842C71.0636 53.0659 70.9091 51.5048 71.2082 49.9986C71.5073 48.4923 72.2466 47.1087 73.3324 46.0229C74.4183 44.937 75.8019 44.1977 77.3081 43.8986C78.8143 43.5995 80.3754 43.754 81.7938 44.3426C83.2122 44.9312 84.424 45.9274 85.2759 47.205C86.1279 48.4827 86.5815 49.9844 86.5796 51.52C86.5743 53.5738 85.7561 55.542 84.3038 56.9942C82.8515 58.4465 80.8834 59.2647 78.8296 59.27ZM78.8296 47.76C78.0855 47.758 77.3575 47.9769 76.7379 48.3888C76.1183 48.8008 75.6348 49.3873 75.3487 50.0742C75.0625 50.761 74.9867 51.5174 75.1306 52.2474C75.2746 52.9774 75.6319 53.6483 76.1573 54.1752C76.6827 54.702 77.3527 55.0611 78.0823 55.207C78.812 55.3529 79.5685 55.279 80.2561 54.9947C80.9438 54.7104 81.5316 54.2285 81.9452 53.61C82.3588 52.9914 82.5796 52.2641 82.5796 51.52C82.5769 50.5253 82.1813 49.572 81.4789 48.8677C80.7765 48.1634 79.8242 47.7653 78.8296 47.76Z" fill="black"/>
  <path d="M127.65 125.15C127.379 125.146 127.111 125.092 126.86 124.99C126.375 124.778 125.994 124.383 125.8 123.89L116.67 101C116.572 100.756 116.524 100.495 116.528 100.232C116.531 99.9689 116.586 99.7093 116.691 99.4678C116.795 99.2263 116.945 99.0077 117.134 98.8245C117.322 98.6413 117.545 98.4971 117.79 98.4001L131.79 92.8301C132.28 92.6273 132.83 92.6273 133.32 92.8301C133.805 93.0452 134.188 93.4393 134.39 93.9301L143.51 116.79C143.607 117.034 143.655 117.295 143.652 117.558C143.648 117.821 143.593 118.081 143.489 118.322C143.385 118.564 143.234 118.782 143.046 118.966C142.857 119.149 142.634 119.293 142.39 119.39L128.39 124.96C128.158 125.07 127.906 125.135 127.65 125.15ZM121.13 101.4L128.77 120.55L139 116.47L131.36 97.3201L121.13 101.4Z" fill="black"/>
  <path d="M117.8 102.36C116.655 102.391 115.537 102.014 114.645 101.296C113.752 100.579 113.144 99.5681 112.928 98.4439C112.712 97.3196 112.902 96.1551 113.464 95.158C114.027 94.1609 114.926 93.3961 116 93L129.32 87.69C129.911 87.4543 130.542 87.3373 131.178 87.3456C131.815 87.354 132.443 87.4876 133.028 87.7388C133.612 87.99 134.141 88.3538 134.585 88.8096C135.029 89.2653 135.379 89.8041 135.615 90.395C135.851 90.986 135.968 91.6175 135.959 92.2537C135.951 92.8899 135.817 93.5182 135.566 94.1027C135.315 94.6873 134.951 95.2166 134.495 95.6605C134.039 96.1045 133.501 96.4543 132.91 96.69L119.59 102C119.022 102.233 118.414 102.355 117.8 102.36ZM131.07 91.38C130.967 91.3805 130.865 91.4009 130.77 91.44L117.45 96.76C117.342 96.7948 117.242 96.8514 117.156 96.9264C117.071 97.0013 117.002 97.093 116.954 97.1957C116.905 97.2984 116.878 97.41 116.875 97.5235C116.871 97.6371 116.891 97.7501 116.932 97.8558C116.974 97.9614 117.037 98.0573 117.118 98.1375C117.198 98.2178 117.294 98.2807 117.4 98.3223C117.505 98.3639 117.619 98.3835 117.732 98.3796C117.846 98.3758 117.957 98.3487 118.06 98.3L131.42 93C131.523 92.9594 131.616 92.8987 131.695 92.8214C131.774 92.7441 131.837 92.6519 131.88 92.55C131.922 92.4503 131.944 92.3432 131.944 92.235C131.944 92.1268 131.922 92.0197 131.88 91.92C131.82 91.7635 131.715 91.6284 131.577 91.5321C131.44 91.4359 131.277 91.3829 131.11 91.38H131.07Z" fill="black"/>
  <path d="M129 130.49C127.875 130.492 126.785 130.102 125.918 129.387C125.05 128.671 124.459 127.675 124.247 126.571C124.035 125.467 124.215 124.323 124.756 123.337C125.297 122.351 126.165 121.585 127.21 121.17L140.53 115.85C141.724 115.375 143.057 115.394 144.236 115.902C145.416 116.411 146.345 117.367 146.82 118.56C147.295 119.753 147.276 121.087 146.768 122.266C146.26 123.446 145.304 124.375 144.11 124.85L130.79 130.16C130.221 130.385 129.613 130.497 129 130.49ZM142.32 119.49C142.214 119.489 142.108 119.51 142.01 119.55L128.69 124.86C128.588 124.9 128.495 124.959 128.416 125.035C128.337 125.111 128.274 125.202 128.23 125.302C128.187 125.403 128.163 125.511 128.161 125.62C128.16 125.73 128.18 125.838 128.22 125.94C128.305 126.145 128.466 126.309 128.669 126.397C128.873 126.485 129.103 126.489 129.31 126.41L142.63 121.09C142.832 121.008 142.994 120.85 143.08 120.65C143.165 120.445 143.165 120.215 143.08 120.01C143.017 119.865 142.914 119.741 142.783 119.652C142.652 119.563 142.498 119.514 142.34 119.51L142.32 119.49Z" fill="black"/>
  <path d="M70.5399 140.42C69.2771 140.415 68.0353 140.097 66.9252 139.494C65.8152 138.892 64.8715 138.025 64.1783 136.969C63.4851 135.914 63.0641 134.703 62.9527 133.445C62.8413 132.187 63.043 130.921 63.5399 129.76C64.3411 127.899 65.848 126.431 67.7299 125.68L113.25 109.53C113.736 109.359 114.269 109.382 114.739 109.594C115.208 109.807 115.578 110.192 115.77 110.67L118.52 117.55C118.715 118.025 118.72 118.557 118.534 119.035C118.348 119.513 117.985 119.902 117.52 120.12L73.5199 139.84H73.4499C72.5261 140.218 71.5382 140.415 70.5399 140.42ZM112.75 113.94L69.1199 129.43C68.2346 129.792 67.5279 130.489 67.1534 131.369C66.7789 132.249 66.7669 133.241 67.1199 134.13C67.4861 135.012 68.1832 135.715 69.0618 136.089C69.9404 136.463 70.9306 136.478 71.8199 136.13L114.04 117.21L112.75 113.94Z" fill="black"/>
  <path d="M120.15 122.12C119.297 122.115 118.453 121.938 117.67 121.6C116.911 121.278 116.224 120.808 115.649 120.217C115.074 119.626 114.622 118.927 114.32 118.16L112.32 113.08C111.703 111.531 111.727 109.801 112.386 108.27C113.045 106.738 114.286 105.532 115.835 104.915C117.384 104.298 119.114 104.322 120.645 104.982C122.177 105.641 123.383 106.881 124 108.43L126 113.51C126.38 114.463 126.522 115.494 126.412 116.514C126.302 117.534 125.943 118.512 125.368 119.361C124.793 120.211 124.018 120.906 123.112 121.387C122.206 121.868 121.196 122.12 120.17 122.12H120.15ZM118.15 108.48C117.862 108.479 117.577 108.533 117.31 108.64C117.031 108.751 116.777 108.916 116.563 109.125C116.348 109.334 116.177 109.584 116.06 109.86C115.944 110.135 115.884 110.431 115.884 110.73C115.884 111.029 115.944 111.325 116.06 111.6L118.06 116.68C118.286 117.241 118.725 117.69 119.28 117.93C119.555 118.046 119.851 118.106 120.15 118.106C120.449 118.106 120.744 118.046 121.02 117.93C121.302 117.819 121.56 117.653 121.777 117.441C121.994 117.229 122.167 116.976 122.285 116.697C122.404 116.418 122.465 116.117 122.466 115.814C122.466 115.511 122.407 115.21 122.29 114.93L120.29 109.85C120.063 109.289 119.625 108.84 119.07 108.6C118.765 108.495 118.441 108.454 118.12 108.48H118.15Z" fill="black"/>
  <path d="M146.29 141.57H108.29C106.642 141.567 105.063 140.911 103.898 139.745C102.734 138.579 102.08 136.998 102.08 135.35V133.67C102.083 132.024 102.738 130.446 103.902 129.282C105.066 128.118 106.644 127.463 108.29 127.46H146.29C147.936 127.463 149.514 128.118 150.678 129.282C151.842 130.446 152.497 132.024 152.5 133.67V135.35C152.5 136.998 151.846 138.579 150.682 139.745C149.518 140.911 147.938 141.567 146.29 141.57ZM108.29 131.46C107.704 131.46 107.142 131.693 106.727 132.107C106.313 132.522 106.08 133.084 106.08 133.67V135.35C106.08 135.937 106.313 136.5 106.727 136.916C107.141 137.332 107.703 137.567 108.29 137.57H146.29C146.877 137.567 147.439 137.332 147.853 136.916C148.268 136.5 148.5 135.937 148.5 135.35V133.67C148.5 133.084 148.267 132.522 147.853 132.107C147.438 131.693 146.876 131.46 146.29 131.46H108.29Z" fill="black"/>
  <path d="M26.5297 125.94H10.4297C9.89925 125.94 9.39055 125.729 9.01547 125.354C8.6404 124.979 8.42969 124.47 8.42969 123.94C8.42969 123.41 8.6404 122.901 9.01547 122.526C9.39055 122.151 9.89925 121.94 10.4297 121.94H26.5297C27.0601 121.94 27.5688 122.151 27.9439 122.526C28.319 122.901 28.5297 123.41 28.5297 123.94C28.5297 124.47 28.319 124.979 27.9439 125.354C27.5688 125.729 27.0601 125.94 26.5297 125.94Z" fill="black"/>
  <path d="M64.9001 125.94H34.5801C34.0496 125.94 33.5409 125.729 33.1659 125.354C32.7908 124.979 32.5801 124.47 32.5801 123.94C32.5801 123.41 32.7908 122.901 33.1659 122.526C33.5409 122.151 34.0496 121.94 34.5801 121.94H64.9001C65.4305 121.94 65.9392 122.151 66.3143 122.526C66.6894 122.901 66.9001 123.41 66.9001 123.94C66.9001 124.47 66.6894 124.979 66.3143 125.354C65.9392 125.729 65.4305 125.94 64.9001 125.94Z" fill="black"/>
</svg>
