<svg width="160" height="120" viewBox="0 0 160 120" fill="none"
  xmlns="http://www.w3.org/2000/svg">
  <path d="M63.88 119.53H18C15.8783 119.53 13.8434 118.687 12.3431 117.187C10.8429 115.687 10 113.652 10 111.53V8.46997C10 6.34824 10.8429 4.31341 12.3431 2.81312C13.8434 1.31283 15.8783 0.469971 18 0.469971H63.9C64.9506 0.469971 65.9909 0.676898 66.9615 1.07894C67.9321 1.48097 68.814 2.07025 69.5569 2.81312C70.2997 3.55599 70.889 4.4379 71.291 5.4085C71.6931 6.37911 71.9 7.4194 71.9 8.46997V13.47C71.9 14.0004 71.6893 14.5091 71.3142 14.8842C70.9391 15.2593 70.4304 15.47 69.9 15.47C69.3696 15.47 68.8609 15.2593 68.4858 14.8842C68.1107 14.5091 67.9 14.0004 67.9 13.47V8.46997C67.9 7.4091 67.4786 6.39169 66.7284 5.64154C65.9783 4.8914 64.9609 4.46997 63.9 4.46997H18C16.9391 4.46997 15.9217 4.8914 15.1716 5.64154C14.4214 6.39169 14 7.4091 14 8.46997V111.53C14 112.591 14.4214 113.608 15.1716 114.358C15.9217 115.109 16.9391 115.53 18 115.53H63.9C64.4253 115.53 64.9454 115.427 65.4307 115.225C65.916 115.024 66.357 114.73 66.7284 114.358C67.0999 113.987 67.3945 113.546 67.5955 113.061C67.7965 112.575 67.9 112.055 67.9 111.53V91C67.9 90.4695 68.1107 89.9608 68.4858 89.5858C68.8609 89.2107 69.3696 89 69.9 89C70.4304 89 70.9391 89.2107 71.3142 89.5858C71.6893 89.9608 71.9 90.4695 71.9 91V111.56C71.8921 113.68 71.0429 115.71 69.5392 117.205C68.0354 118.699 66 119.535 63.88 119.53Z" fill="black"/>
  <path d="M51.6205 10.39H30.2305C29.7 10.39 29.1913 10.1792 28.8163 9.80417C28.4412 9.4291 28.2305 8.92039 28.2305 8.38995C28.2305 7.85952 28.4412 7.35081 28.8163 6.97574C29.1913 6.60067 29.7 6.38995 30.2305 6.38995H51.6205C52.1509 6.38995 52.6596 6.60067 53.0347 6.97574C53.4098 7.35081 53.6205 7.85952 53.6205 8.38995C53.6205 8.92039 53.4098 9.4291 53.0347 9.80417C52.6596 10.1792 52.1509 10.39 51.6205 10.39Z" fill="black"/>
  <path d="M158 93H137.31C136.779 93 136.27 92.7893 135.895 92.4142C135.52 92.0391 135.31 91.5304 135.31 91C135.31 90.4695 135.52 89.9608 135.895 89.5857C136.27 89.2107 136.779 89 137.31 89H156V22.65H149.76C149.229 22.65 148.72 22.4392 148.345 22.0642C147.97 21.6891 147.76 21.1804 147.76 20.65C147.76 20.1195 147.97 19.6108 148.345 19.2357C148.72 18.8607 149.229 18.65 149.76 18.65H158C158.53 18.65 159.039 18.8607 159.414 19.2357C159.789 19.6108 160 20.1195 160 20.65V91C160 91.5304 159.789 92.0391 159.414 92.4142C159.039 92.7893 158.53 93 158 93Z" fill="black"/>
  <path d="M101.44 100.06H98.8497C96.5752 100.058 94.3514 99.3875 92.4545 98.1323C90.5576 96.8772 89.0711 95.0926 88.1797 93H42.4697C41.9393 93 41.4306 92.7893 41.0555 92.4142C40.6804 92.0391 40.4697 91.5304 40.4697 91V20.65C40.4697 20.1195 40.6804 19.6108 41.0555 19.2357C41.4306 18.8607 41.9393 18.65 42.4697 18.65H50.6997C51.2302 18.65 51.7389 18.8607 52.1139 19.2357C52.489 19.6108 52.6997 20.1195 52.6997 20.65C52.6997 21.1804 52.489 21.6891 52.1139 22.0642C51.7389 22.4392 51.2302 22.65 50.6997 22.65H44.4697V89H89.6097C90.0494 89.0002 90.4767 89.1453 90.8255 89.4129C91.1744 89.6804 91.4254 90.0554 91.5397 90.48C91.9726 92.0883 92.9231 93.5092 94.2444 94.5233C95.5657 95.5373 97.1842 96.0879 98.8497 96.09H101.44C103.106 96.0895 104.725 95.5396 106.047 94.5253C107.368 93.511 108.318 92.0891 108.75 90.48C108.864 90.0554 109.115 89.6804 109.464 89.4129C109.813 89.1453 110.24 89.0002 110.68 89H123.68C124.21 89 124.719 89.2107 125.094 89.5857C125.469 89.9608 125.68 90.4695 125.68 91C125.68 91.5304 125.469 92.0391 125.094 92.4142C124.719 92.7893 124.21 93 123.68 93H112.11C111.218 95.0926 109.732 96.8772 107.835 98.1323C105.938 99.3875 103.714 100.058 101.44 100.06Z" fill="black"/>
  <path d="M100.23 84.66H50.7002C50.1698 84.66 49.6611 84.4492 49.286 84.0742C48.9109 83.6991 48.7002 83.1904 48.7002 82.66V13.46C48.7002 12.9295 48.9109 12.4208 49.286 12.0457C49.6611 11.6707 50.1698 11.46 50.7002 11.46H91.5202C94.3598 11.4626 97.0824 12.5918 99.0904 14.5998C101.098 16.6077 102.228 19.3303 102.23 22.17V82.66C102.23 83.1904 102.019 83.6991 101.644 84.0742C101.269 84.4492 100.761 84.66 100.23 84.66ZM52.7002 80.66H98.2302V22.17C98.2276 20.3912 97.5198 18.686 96.262 17.4282C95.0042 16.1704 93.299 15.4626 91.5202 15.46H52.7002V80.66Z" fill="black"/>
  <path d="M149.76 84.66H100.23C99.7 84.66 99.1913 84.4492 98.8163 84.0742C98.4412 83.6991 98.2305 83.1904 98.2305 82.66V22.17C98.2331 19.3303 99.3623 16.6077 101.37 14.5998C103.378 12.5918 106.101 11.4626 108.94 11.46H149.76C150.291 11.46 150.8 11.6707 151.175 12.0457C151.55 12.4208 151.76 12.9295 151.76 13.46V82.66C151.76 83.1904 151.55 83.6991 151.175 84.0742C150.8 84.4492 150.291 84.66 149.76 84.66ZM102.23 80.66H147.76V15.46H108.94C107.162 15.4626 105.456 16.1704 104.199 17.4282C102.941 18.686 102.233 20.3912 102.23 22.17V80.66Z" fill="black"/>
  <path d="M140.6 64.09H108.69C108.16 64.09 107.651 63.8793 107.276 63.5042C106.901 63.1291 106.69 62.6204 106.69 62.09C106.69 61.5595 106.901 61.0508 107.276 60.6758C107.651 60.3007 108.16 60.09 108.69 60.09H140.6C141.131 60.09 141.64 60.3007 142.015 60.6758C142.39 61.0508 142.6 61.5595 142.6 62.09C142.6 62.6204 142.39 63.1291 142.015 63.5042C141.64 63.8793 141.131 64.09 140.6 64.09Z" fill="black"/>
  <path d="M140.6 50.3099H108.69C108.16 50.3099 107.651 50.0992 107.276 49.7242C106.901 49.3491 106.69 48.8404 106.69 48.3099C106.69 47.7795 106.901 47.2708 107.276 46.8957C107.651 46.5207 108.16 46.3099 108.69 46.3099H140.6C141.131 46.3099 141.64 46.5207 142.015 46.8957C142.39 47.2708 142.6 47.7795 142.6 48.3099C142.6 48.8404 142.39 49.3491 142.015 49.7242C141.64 50.0992 141.131 50.3099 140.6 50.3099Z" fill="black"/>
  <path d="M140.6 36.53H133.4C132.87 36.53 132.361 36.3193 131.986 35.9442C131.611 35.5691 131.4 35.0604 131.4 34.53C131.4 33.9995 131.611 33.4908 131.986 33.1158C132.361 32.7407 132.87 32.53 133.4 32.53H140.6C141.131 32.53 141.64 32.7407 142.015 33.1158C142.39 33.4908 142.6 33.9995 142.6 34.53C142.6 35.0604 142.39 35.5691 142.015 35.9442C141.64 36.3193 141.131 36.53 140.6 36.53Z" fill="black"/>
  <path d="M123.64 36.53H108.64C108.109 36.53 107.601 36.3193 107.225 35.9442C106.85 35.5691 106.64 35.0604 106.64 34.53C106.64 33.9995 106.85 33.4908 107.225 33.1158C107.601 32.7407 108.109 32.53 108.64 32.53H123.64C124.17 32.53 124.679 32.7407 125.054 33.1158C125.429 33.4908 125.64 33.9995 125.64 34.53C125.64 35.0604 125.429 35.5691 125.054 35.9442C124.679 36.3193 124.17 36.53 123.64 36.53Z" fill="black"/>
  <path d="M91.4198 64.09H59.5098C58.9793 64.09 58.4706 63.8793 58.0956 63.5042C57.7205 63.1291 57.5098 62.6204 57.5098 62.09C57.5098 61.5595 57.7205 61.0508 58.0956 60.6758C58.4706 60.3007 58.9793 60.09 59.5098 60.09H91.4198C91.9502 60.09 92.4589 60.3007 92.834 60.6758C93.2091 61.0508 93.4198 61.5595 93.4198 62.09C93.4198 62.6204 93.2091 63.1291 92.834 63.5042C92.4589 63.8793 91.9502 64.09 91.4198 64.09Z" fill="black"/>
  <path d="M91.4198 36.53H59.5098C58.9793 36.53 58.4706 36.3193 58.0956 35.9442C57.7205 35.5691 57.5098 35.0604 57.5098 34.53C57.5098 33.9995 57.7205 33.4908 58.0956 33.1158C58.4706 32.7407 58.9793 32.53 59.5098 32.53H91.4198C91.9502 32.53 92.4589 32.7407 92.834 33.1158C93.2091 33.4908 93.4198 33.9995 93.4198 34.53C93.4198 35.0604 93.2091 35.5691 92.834 35.9442C92.4589 36.3193 91.9502 36.53 91.4198 36.53Z" fill="black"/>
  <path d="M91.4197 50.3099H84.2197C83.6893 50.3099 83.1806 50.0992 82.8055 49.7242C82.4304 49.3491 82.2197 48.8404 82.2197 48.3099C82.2197 47.7795 82.4304 47.2708 82.8055 46.8957C83.1806 46.5207 83.6893 46.3099 84.2197 46.3099H91.4197C91.9502 46.3099 92.4589 46.5207 92.8339 46.8957C93.209 47.2708 93.4197 47.7795 93.4197 48.3099C93.4197 48.8404 93.209 49.3491 92.8339 49.7242C92.4589 50.0992 91.9502 50.3099 91.4197 50.3099Z" fill="black"/>
  <path d="M74.4598 50.3099H59.5098C58.9793 50.3099 58.4706 50.0992 58.0956 49.7242C57.7205 49.3491 57.5098 48.8404 57.5098 48.3099C57.5098 47.7795 57.7205 47.2708 58.0956 46.8957C58.4706 46.5207 58.9793 46.3099 59.5098 46.3099H74.4598C74.9902 46.3099 75.4989 46.5207 75.874 46.8957C76.2491 47.2708 76.4598 47.7795 76.4598 48.3099C76.4598 48.8404 76.2491 49.3491 75.874 49.7242C75.4989 50.0992 74.9902 50.3099 74.4598 50.3099Z" fill="black"/>
  <path d="M137 105.65C136.701 105.651 136.406 105.585 136.136 105.457C135.866 105.329 135.628 105.142 135.44 104.91L130.32 98.58L125.19 104.91C124.929 105.23 124.576 105.461 124.179 105.572C123.781 105.683 123.359 105.669 122.971 105.531C122.582 105.393 122.245 105.138 122.007 104.801C121.769 104.465 121.64 104.062 121.64 103.65V82.65C121.64 82.1195 121.85 81.6108 122.225 81.2357C122.601 80.8607 123.109 80.65 123.64 80.65H137C137.53 80.65 138.039 80.8607 138.414 81.2357C138.789 81.6108 139 82.1195 139 82.65V103.65C139.001 104.064 138.873 104.468 138.635 104.807C138.397 105.145 138.06 105.401 137.67 105.54C137.454 105.615 137.228 105.652 137 105.65ZM130.32 93.41C130.617 93.4104 130.91 93.4771 131.178 93.6051C131.446 93.7331 131.682 93.9192 131.87 94.15L135 98V84.66H125.64V98L128.76 94.14C128.949 93.9097 129.187 93.7247 129.457 93.5984C129.727 93.4721 130.022 93.4077 130.32 93.41Z" fill="black"/>
  <path d="M2 92.05C1.46957 92.05 0.960859 91.8393 0.585786 91.4642C0.210714 91.0891 0 90.5804 0 90.05V62.05C0 61.5196 0.210714 61.0108 0.585786 60.6358C0.960859 60.2607 1.46957 60.05 2 60.05C2.53043 60.05 3.03914 60.2607 3.41421 60.6358C3.78929 61.0108 4 61.5196 4 62.05V90.05C4 90.5804 3.78929 91.0891 3.41421 91.4642C3.03914 91.8393 2.53043 92.05 2 92.05Z" fill="black"/>
  <path d="M2 53.41C1.46957 53.41 0.960859 53.1993 0.585786 52.8242C0.210714 52.4491 0 51.9404 0 51.41V44.17C0 43.6395 0.210714 43.1308 0.585786 42.7558C0.960859 42.3807 1.46957 42.17 2 42.17C2.53043 42.17 3.03914 42.3807 3.41421 42.7558C3.78929 43.1308 4 43.6395 4 44.17V51.41C4 51.9404 3.78929 52.4491 3.41421 52.8242C3.03914 53.1993 2.53043 53.41 2 53.41Z" fill="black"/>
</svg>
