<svg width="160" height="108" viewBox="0 0 160 108" fill="none"
  xmlns="http://www.w3.org/2000/svg">
  <path d="M135.52 47.18C135.074 47.1796 134.64 47.0298 134.288 46.7543C133.937 46.4788 133.688 46.0936 133.58 45.66C133.128 44.0927 132.171 42.7183 130.859 41.7494C129.546 40.7805 127.951 40.2711 126.32 40.3H116.86C116.33 40.3 115.821 40.0892 115.446 39.7142C115.071 39.3391 114.86 38.8304 114.86 38.3C114.86 37.7695 115.071 37.2608 115.446 36.8857C115.821 36.5107 116.33 36.3 116.86 36.3H126.32C128.849 36.2512 131.322 37.0524 133.342 38.5754C135.361 40.0983 136.812 42.255 137.46 44.7C137.533 44.9944 137.538 45.3017 137.475 45.5983C137.411 45.895 137.281 46.1733 137.094 46.4122C136.907 46.6512 136.668 46.8445 136.396 46.9775C136.123 47.1105 135.824 47.1797 135.52 47.18Z" fill="black"/>
  <path d="M81.8096 49.2098C81.2791 49.2098 80.7704 48.999 80.3954 48.624C80.0203 48.2489 79.8096 47.7402 79.8096 47.2098C79.8856 44.2461 81.1335 41.4335 83.2798 39.3884C85.4261 37.3433 88.2957 36.2326 91.2596 36.2998H97.9996C98.53 36.2998 99.0387 36.5105 99.4138 36.8855C99.7889 37.2606 99.9996 37.7693 99.9996 38.2998C99.9996 38.8302 99.7889 39.3389 99.4138 39.714C99.0387 40.089 98.53 40.2998 97.9996 40.2998H91.2596C89.3564 40.2321 87.5039 40.9213 86.1077 42.2163C84.7114 43.5114 83.8851 45.3069 83.8096 47.2098C83.8096 47.7402 83.5989 48.2489 83.2238 48.624C82.8487 48.999 82.34 49.2098 81.8096 49.2098Z" fill="black"/>
  <path d="M106.33 106.14C105.81 106.14 105.31 105.938 104.937 105.576C104.563 105.213 104.346 104.72 104.33 104.2L102.74 50.33C102.732 50.0673 102.776 49.8056 102.869 49.5599C102.962 49.3142 103.103 49.0892 103.283 48.8979C103.463 48.7066 103.68 48.5527 103.919 48.4449C104.159 48.3372 104.418 48.2777 104.68 48.27C104.943 48.262 105.205 48.3058 105.45 48.399C105.696 48.4922 105.921 48.6329 106.112 48.8131C106.304 48.9932 106.457 49.2093 106.565 49.449C106.673 49.6887 106.732 49.9473 106.74 50.21L108.33 104.08C108.338 104.343 108.294 104.604 108.201 104.85C108.108 105.096 107.967 105.321 107.787 105.512C107.607 105.703 107.391 105.857 107.151 105.965C106.911 106.073 106.653 106.132 106.39 106.14H106.33Z" fill="black"/>
  <path d="M106.33 32.9301C99.4198 32.9301 93.7998 27.5801 93.7998 21.0001V12.3001C93.7998 5.72012 99.4198 0.370117 106.33 0.370117C113.24 0.370117 118.86 5.72012 118.86 12.3001V21.0001C118.86 27.5801 113.24 32.9301 106.33 32.9301ZM106.33 4.37012C101.63 4.37012 97.7998 7.93012 97.7998 12.3001V21.0001C97.7998 25.3701 101.63 28.9301 106.33 28.9301C111.03 28.9301 114.86 25.3701 114.86 21.0001V12.3001C114.86 7.93012 111 4.37012 106.33 4.37012Z" fill="black"/>
  <path d="M116.86 16.0997C116.743 16.1096 116.626 16.1096 116.51 16.0997C109.456 14.8722 102.613 12.643 96.1897 9.47968C95.95 9.35586 95.7379 9.18483 95.566 8.97689C95.3942 8.76895 95.2662 8.52839 95.1897 8.26968C95.11 8.01015 95.084 7.73711 95.1132 7.46719C95.1424 7.19728 95.2263 6.93614 95.3597 6.69968C96.4738 4.77194 98.0785 3.17355 100.011 2.067C101.943 0.960441 104.133 0.385176 106.36 0.399682C113.27 0.399682 118.89 5.74968 118.89 12.3297V14.1297C118.889 14.4218 118.824 14.7102 118.699 14.9745C118.575 15.2388 118.394 15.4727 118.17 15.6597C117.799 15.9573 117.335 16.1133 116.86 16.0997ZM100.15 6.88968C104.853 9.01629 109.776 10.6193 114.83 11.6697C114.577 9.61286 113.565 7.72457 111.993 6.37438C110.421 5.0242 108.401 4.30932 106.33 4.36968C104.018 4.36347 101.798 5.26896 100.15 6.88968Z" fill="black"/>
  <path d="M80.4001 107.59H70.0001C69.6836 107.596 69.3703 107.527 69.0857 107.389C68.8012 107.25 68.5535 107.046 68.3632 106.793C68.1728 106.541 68.0452 106.246 67.9907 105.934C67.9363 105.623 67.9566 105.302 68.0501 105L72.3901 90.5201C72.4556 90.258 72.5735 90.012 72.7366 89.7967C72.8998 89.5815 73.1049 89.4015 73.3396 89.2677C73.5742 89.1339 73.8335 89.049 74.1019 89.0181C74.3702 88.9873 74.6421 89.0111 74.9009 89.0882C75.1598 89.1652 75.4004 89.2939 75.6082 89.4665C75.816 89.6391 75.9867 89.852 76.11 90.0923C76.2332 90.3327 76.3065 90.5955 76.3255 90.8649C76.3444 91.1344 76.3085 91.4049 76.2201 91.6601L72.6501 103.58H79.0801L86.8601 85.1401C86.9625 84.8978 87.1116 84.6781 87.299 84.4934C87.4863 84.3088 87.7082 84.1628 87.952 84.0639C88.1957 83.965 88.4566 83.9151 88.7196 83.917C88.9827 83.919 89.2428 83.9727 89.4851 84.0751C89.7274 84.1775 89.9471 84.3267 90.1317 84.514C90.3164 84.7014 90.4623 84.9233 90.5612 85.167C90.6601 85.4108 90.71 85.6716 90.7081 85.9347C90.7062 86.1977 90.6525 86.4578 90.5501 86.7001L82.2501 106.35C82.0994 106.717 81.843 107.031 81.5136 107.251C81.1842 107.472 80.7966 107.59 80.4001 107.59Z" fill="black"/>
  <path d="M76.7398 85.0001C76.5468 85.003 76.3546 84.976 76.1698 84.9201C75.9175 84.8456 75.6823 84.722 75.4778 84.5564C75.2733 84.3909 75.1035 84.1866 74.9781 83.9552C74.8527 83.7239 74.7742 83.4702 74.747 83.2084C74.7199 82.9467 74.7446 82.6822 74.8198 82.4301L77.5698 73.2501L79.8198 47.0001C79.8754 46.476 80.1356 45.9951 80.5438 45.6618C80.952 45.3285 81.4753 45.1697 81.9998 45.2201C82.2619 45.2415 82.5172 45.3144 82.7511 45.4346C82.9849 45.5548 83.1928 45.72 83.3628 45.9206C83.5327 46.1212 83.6615 46.3534 83.7416 46.6038C83.8218 46.8543 83.8518 47.1181 83.8298 47.3801L81.5398 73.7601C81.5277 73.8959 81.5009 74.03 81.4598 74.1601L78.6598 83.5401C78.5423 83.9593 78.2912 84.3286 77.9447 84.5921C77.5982 84.8556 77.1752 84.9988 76.7398 85.0001Z" fill="black"/>
  <path d="M138.67 107.27H127.51C127.225 107.272 126.943 107.213 126.682 107.098C126.422 106.982 126.189 106.812 126 106.599C125.81 106.385 125.669 106.134 125.584 105.862C125.5 105.59 125.474 105.303 125.51 105.02L129.18 76.3198L125 62.1798C124.899 61.9236 124.852 61.6493 124.862 61.3741C124.871 61.0989 124.938 60.8287 125.057 60.5804C125.176 60.3321 125.345 60.111 125.554 59.9311C125.762 59.7512 126.006 59.6163 126.269 59.5348C126.532 59.4533 126.809 59.4271 127.082 59.4576C127.356 59.4882 127.621 59.575 127.859 59.7125C128.098 59.8501 128.305 60.0354 128.469 60.2569C128.633 60.4784 128.749 60.7313 128.81 60.9998L133.15 75.5398C133.228 75.809 133.252 76.0912 133.22 76.3698L129.79 103.23H137L142 75.0198C141.08 71.6098 135 49.0198 133.12 44.2798C132.953 43.7922 132.98 43.2589 133.196 42.7911C133.413 42.3232 133.801 41.9569 134.281 41.7686C134.761 41.5803 135.295 41.5845 135.772 41.7804C136.248 41.9762 136.631 42.3486 136.84 42.8198C138.9 48.0798 145.69 73.3298 145.98 74.4098C146.04 74.6933 146.04 74.9862 145.98 75.2698L140.63 105.58C140.557 106.048 140.319 106.475 139.96 106.785C139.601 107.094 139.144 107.266 138.67 107.27Z" fill="black"/>
  <path d="M78.2099 50.68C77.9119 50.6783 77.6181 50.6099 77.3499 50.48L62.5299 43.4C58.6318 41.5481 54.3755 40.572 50.0599 40.54H46.6699C46.1395 40.54 45.6308 40.3293 45.2557 39.9543C44.8806 39.5792 44.6699 39.0705 44.6699 38.54C44.6699 38.0096 44.8806 37.5009 45.2557 37.1258C45.6308 36.7508 46.1395 36.54 46.6699 36.54H50.0499C54.9503 36.5791 59.783 37.6883 64.2099 39.79L78.2099 46.49L80.9999 45.36C81.4851 45.1861 82.0188 45.2062 82.4896 45.4162C82.9603 45.6261 83.3318 46.0097 83.5266 46.487C83.7214 46.9643 83.7244 47.4983 83.5349 47.9777C83.3455 48.4571 82.9783 48.8448 82.5099 49.06L78.9999 50.53C78.7495 50.633 78.4807 50.684 78.2099 50.68Z" fill="black"/>
  <path d="M45.82 107.59H10.46C9.92953 107.59 9.42082 107.379 9.04575 107.004C8.67068 106.629 8.45996 106.12 8.45996 105.59V47.2098C8.53596 44.2461 9.78389 41.4335 11.9302 39.3884C14.0765 37.3433 16.9461 36.2326 19.91 36.2998L27.67 36.3598C28.2004 36.3598 28.7091 36.5705 29.0842 36.9455C29.4592 37.3206 29.67 37.8293 29.67 38.3598C29.67 38.8902 29.4592 39.3989 29.0842 39.774C28.7091 40.149 28.2004 40.3598 27.67 40.3598L19.93 40.2998C18.0302 40.2375 16.1828 40.9291 14.7909 42.2236C13.399 43.5181 12.5755 45.3104 12.5 47.2098V103.59H45.82C46.3504 103.59 46.8591 103.8 47.2342 104.176C47.6092 104.551 47.82 105.059 47.82 105.59C47.82 106.12 47.6092 106.629 47.2342 107.004C46.8591 107.379 46.3504 107.59 45.82 107.59Z" fill="black"/>
  <path d="M37.4402 32.9301C30.5302 32.9301 24.9102 27.5801 24.9102 21.0001V12.3001C24.9102 5.72012 30.5302 0.370117 37.4402 0.370117C44.3502 0.370117 50.0002 5.72012 50.0002 12.3001V21.0001C50.0002 27.5801 44.3502 32.9301 37.4402 32.9301ZM37.4402 4.37012C32.7402 4.37012 28.9102 7.93012 28.9102 12.3001V21.0001C28.9102 25.3701 32.7402 28.9301 37.4402 28.9301C42.1402 28.9301 46.0002 25.3701 46.0002 21.0001V12.3001C46.0002 7.93012 42.1402 4.37012 37.4402 4.37012Z" fill="black"/>
  <path d="M26.9102 16.0999C26.4416 16.098 25.9886 15.9317 25.6302 15.6299C25.4057 15.4429 25.2249 15.2091 25.1005 14.9447C24.9761 14.6804 24.9111 14.392 24.9102 14.0999V12.2999C24.9102 5.7199 30.5302 0.369897 37.4402 0.369897C39.6666 0.355391 41.8573 0.930654 43.7893 2.03721C45.7214 3.14376 47.3261 4.74215 48.4402 6.66989C48.5736 6.90635 48.6574 7.16749 48.6867 7.43741C48.7159 7.70732 48.6899 7.98037 48.6102 8.2399C48.5337 8.4986 48.4057 8.73916 48.2338 8.9471C48.062 9.15505 47.8498 9.32608 47.6102 9.4499C41.1862 12.6118 34.3439 14.8409 27.2902 16.0699C27.1647 16.0916 27.0375 16.1016 26.9102 16.0999ZM37.4402 4.3699C35.3681 4.30725 33.3475 5.02131 31.7748 6.37192C30.2022 7.72253 29.1912 9.61215 28.9402 11.6699C33.9939 10.6195 38.9168 9.01651 43.6202 6.88989C41.9722 5.26917 39.7516 4.36368 37.4402 4.3699Z" fill="black"/>
  <path d="M55.5696 107.59H55.4196C54.8922 107.549 54.4025 107.301 54.0577 106.9C53.7129 106.499 53.5409 105.977 53.5796 105.45L54.7996 89.0997C54.8405 88.5724 55.0886 88.0827 55.4897 87.7379C55.8907 87.393 56.412 87.2211 56.9396 87.2597C57.2016 87.2787 57.4572 87.3492 57.692 87.467C57.9268 87.5849 58.1361 87.7478 58.3078 87.9465C58.4796 88.1452 58.6106 88.3759 58.6933 88.6252C58.7759 88.8746 58.8086 89.1377 58.7896 89.3997L57.5696 105.75C57.5293 106.252 57.3009 106.72 56.9301 107.062C56.5593 107.403 56.0734 107.591 55.5696 107.59Z" fill="black"/>
  <path d="M57.7502 78.3999H57.6002C57.0729 78.359 56.5832 78.1108 56.2384 77.7098C55.8935 77.3087 55.7216 76.7874 55.7602 76.2599L57.1802 57.1999C57.1999 56.9372 57.2712 56.681 57.3899 56.4459C57.5086 56.2108 57.6724 56.0014 57.8721 55.8296C58.0717 55.6578 58.3032 55.527 58.5534 55.4447C58.8036 55.3624 59.0676 55.3302 59.3302 55.3499C59.5929 55.3696 59.8491 55.4408 60.0842 55.5595C60.3193 55.6782 60.5287 55.8421 60.7005 56.0417C60.8723 56.2414 61.0031 56.4729 61.0854 56.7231C61.1677 56.9733 61.1999 57.2372 61.1802 57.4999L59.7602 76.5599C59.7198 77.0638 59.49 77.5338 59.1171 77.8751C58.7442 78.2165 58.2558 78.404 57.7502 78.3999Z" fill="black"/>
  <path d="M64.2203 93.46C64.0267 93.4602 63.8344 93.4298 63.6503 93.37L30.0503 83.37C29.6573 83.2574 29.3083 83.0271 29.0503 82.71C28.5903 82.15 17.7503 68.84 14.9103 64.37C9.83028 56.37 7.91028 48.98 9.46028 43.63C9.79225 42.3709 10.392 41.1982 11.2187 40.192C12.0454 39.1859 13.0794 38.37 14.2503 37.8C14.729 37.568 15.2803 37.5356 15.7829 37.71C16.0317 37.7963 16.2612 37.9309 16.458 38.1059C16.6549 38.2809 16.8154 38.493 16.9303 38.73C17.0452 38.9671 17.1123 39.2244 17.1277 39.4874C17.1432 39.7503 17.1067 40.0138 17.0203 40.2626C16.934 40.5115 16.7994 40.7409 16.6244 40.9378C16.4494 41.1346 16.2373 41.2951 16.0003 41.41C15.3445 41.7383 14.769 42.2067 14.3145 42.7822C13.86 43.3577 13.5376 44.0261 13.3703 44.74C12.1403 48.91 13.9703 55.27 18.3703 62.21C20.7903 66.02 29.8503 77.21 31.8403 79.69L62.7803 88.92L64.4603 81.19L39.1803 72C38.7623 71.8398 38.4102 71.544 38.1803 71.16L29.2303 56.55C28.9545 56.0965 28.8701 55.552 28.9957 55.0363C29.1214 54.5205 29.4468 54.0759 29.9003 53.8C30.3538 53.5242 30.8983 53.4398 31.414 53.5655C31.9298 53.6911 32.3745 54.0165 32.6503 54.47L41.2103 68.47L67.4003 78C67.854 78.1655 68.2325 78.4895 68.4659 78.9122C68.6993 79.335 68.7719 79.8279 68.6703 80.3L66.1703 91.85C66.113 92.119 66.0008 92.3733 65.8408 92.597C65.6808 92.8207 65.4763 93.0089 65.2403 93.15C64.9328 93.3398 64.5814 93.4466 64.2203 93.46Z" fill="black"/>
  <path d="M74.7802 93.0897C73.7659 93.0958 72.7558 92.9578 71.7802 92.6797L64.2902 90.7697C63.7888 90.6416 63.3566 90.3242 63.0843 89.8841C62.8121 89.444 62.721 88.9155 62.8302 88.4097L64.7602 79.4797C64.8681 78.9993 65.1494 78.5756 65.5502 78.2897L72.5502 73.1997C72.8274 72.9987 73.1515 72.8723 73.4915 72.8324C73.8316 72.7926 74.1761 72.8407 74.4923 72.9722C74.8084 73.1036 75.0854 73.314 75.2969 73.5833C75.5085 73.8525 75.6473 74.1715 75.7002 74.5097L76.7002 80.9697L85.9302 83.5697C86.1955 83.644 86.4425 83.7723 86.6559 83.9465C86.8692 84.1207 87.0443 84.3371 87.1701 84.5821C87.2959 84.8272 87.3697 85.0956 87.387 85.3705C87.4042 85.6454 87.3644 85.9209 87.2702 86.1797C86.0602 89.6797 80.1402 93.0897 74.7802 93.0897ZM67.1502 87.3697L72.8402 88.8297C75.9102 89.7197 79.8402 88.2497 82.0102 86.5997L74.4602 84.4797C74.0876 84.3807 73.7515 84.176 73.4925 83.8903C73.2334 83.6047 73.0625 83.2502 73.0002 82.8697L72.2602 78.3497L68.4802 81.0797L67.1502 87.3697Z" fill="black"/>
  <path d="M76.8 67.5199C76.5072 67.5201 76.2176 67.4588 75.95 67.3399L58.33 59.1499C57.8731 58.9135 57.5249 58.5102 57.3576 58.0237C57.1904 57.5372 57.2171 57.005 57.4321 56.5376C57.6471 56.0703 58.0339 55.7038 58.5121 55.5142C58.9904 55.3247 59.5232 55.3267 60 55.5199L76.78 63.3199L79.53 62.0699C79.769 61.9609 80.0272 61.9 80.2897 61.8908C80.5522 61.8816 80.814 61.9241 81.0601 62.0161C81.3061 62.108 81.5317 62.2475 81.7239 62.4266C81.916 62.6057 82.071 62.8209 82.18 63.0599C82.289 63.2989 82.3499 63.557 82.3591 63.8196C82.3683 64.0821 82.3258 64.3438 82.2339 64.5899C82.1419 64.836 82.0024 65.0616 81.8233 65.2537C81.6442 65.4459 81.429 65.6009 81.19 65.7099L77.61 67.3399C77.3556 67.4559 77.0796 67.5172 76.8 67.5199Z" fill="black"/>
  <path d="M124.55 107.59H89.5501C89.0333 107.59 88.5363 107.391 88.1635 107.033C87.7906 106.675 87.5708 106.187 87.5501 105.67L86.1101 71.1901C86.0883 70.6645 86.2744 70.1515 86.6282 69.7621C86.982 69.3728 87.4749 69.1386 88.0001 69.1101C88.5291 69.0828 89.0472 69.2665 89.4409 69.6208C89.8346 69.9752 90.0717 70.4712 90.1001 71.0001L91.4201 103.56H124.55C125.081 103.56 125.589 103.771 125.964 104.146C126.339 104.521 126.55 105.03 126.55 105.56C126.55 106.091 126.339 106.599 125.964 106.974C125.589 107.349 125.081 107.56 124.55 107.56V107.59Z" fill="black"/>
  <path d="M158 107.63H2C1.46957 107.63 0.960859 107.419 0.585786 107.044C0.210714 106.669 0 106.16 0 105.63C0 105.099 0.210714 104.591 0.585786 104.216C0.960859 103.841 1.46957 103.63 2 103.63H158C158.53 103.63 159.039 103.841 159.414 104.216C159.789 104.591 160 105.099 160 105.63C160 106.16 159.789 106.669 159.414 107.044C159.039 107.419 158.53 107.63 158 107.63Z" fill="black"/>
  <path d="M31.5996 37.1898C31.0692 37.1898 30.5605 36.9791 30.1854 36.604C29.8103 36.229 29.5996 35.7203 29.5996 35.1898V29.3198C29.5996 28.7894 29.8103 28.2807 30.1854 27.9056C30.5605 27.5305 31.0692 27.3198 31.5996 27.3198C32.13 27.3198 32.6387 27.5305 33.0138 27.9056C33.3889 28.2807 33.5996 28.7894 33.5996 29.3198V35.1898C33.5996 35.7203 33.3889 36.229 33.0138 36.604C32.6387 36.9791 32.13 37.1898 31.5996 37.1898Z" fill="black"/>
  <path d="M43.8096 36.9998C43.2791 36.9998 42.7704 36.7891 42.3954 36.414C42.0203 36.039 41.8096 35.5303 41.8096 34.9998V29.3198C41.8096 28.7894 42.0203 28.2807 42.3954 27.9056C42.7704 27.5305 43.2791 27.3198 43.8096 27.3198C44.34 27.3198 44.8487 27.5305 45.2238 27.9056C45.5989 28.2807 45.8096 28.7894 45.8096 29.3198V34.9998C45.8096 35.5303 45.5989 36.039 45.2238 36.414C44.8487 36.7891 44.34 36.9998 43.8096 36.9998Z" fill="black"/>
  <path d="M101.24 37.1899C100.71 37.1899 100.201 36.9792 99.826 36.6041C99.4509 36.2291 99.2402 35.7204 99.2402 35.1899V30.6699C99.2402 30.1395 99.4509 29.6308 99.826 29.2557C100.201 28.8806 100.71 28.6699 101.24 28.6699C101.771 28.6699 102.279 28.8806 102.654 29.2557C103.03 29.6308 103.24 30.1395 103.24 30.6699V35.1899C103.24 35.7204 103.03 36.2291 102.654 36.6041C102.279 36.9792 101.771 37.1899 101.24 37.1899Z" fill="black"/>
  <path d="M113.45 37.4698C112.92 37.4698 112.411 37.2591 112.036 36.884C111.661 36.509 111.45 36.0003 111.45 35.4698V29.3198C111.45 28.7894 111.661 28.2807 112.036 27.9056C112.411 27.5305 112.92 27.3198 113.45 27.3198C113.981 27.3198 114.489 27.5305 114.864 27.9056C115.239 28.2807 115.45 28.7894 115.45 29.3198V35.4698C115.45 36.0003 115.239 36.509 114.864 36.884C114.489 37.2591 113.981 37.4698 113.45 37.4698Z" fill="black"/>
  <path d="M34.4904 45.9998C34.0576 45.9998 33.6366 45.8595 33.2904 45.5998L25.8104 39.9998C25.5551 39.8085 25.3493 39.559 25.2101 39.2719C25.071 38.9849 25.0025 38.6687 25.0104 38.3498C25.0179 38.0307 25.1018 37.7181 25.2549 37.438C25.408 37.1579 25.6259 36.9185 25.8904 36.7398L30.6304 33.5598C30.9246 33.3673 31.2645 33.2557 31.6156 33.2364C31.9668 33.2171 32.3168 33.2907 32.6304 33.4498L38.2804 36.3898C38.7388 36.6241 39.0893 37.0262 39.2588 37.5123C39.4283 37.9985 39.4038 38.5313 39.1904 38.9998L36.2904 44.8698C36.1535 45.1222 35.9638 45.3422 35.7343 45.5147C35.5048 45.6873 35.2409 45.8084 34.9604 45.8698C34.81 45.9333 34.652 45.977 34.4904 45.9998ZM30.4904 38.4598L33.7704 40.9998L34.7704 38.9998L31.9104 37.5098L30.4904 38.4598Z" fill="black"/>
  <path d="M40.3797 45.9999C40.23 46.0147 40.0793 46.0147 39.9297 45.9999C39.6492 45.9385 39.3852 45.8174 39.1557 45.6448C38.9263 45.4723 38.7366 45.2523 38.5997 44.9999L35.5997 39.1399C35.3586 38.6678 35.3148 38.1193 35.4779 37.6149C35.641 37.1105 35.9978 36.6915 36.4697 36.4499L42.1997 33.5099C42.5142 33.3523 42.8646 33.2804 43.2158 33.3014C43.5669 33.3225 43.9063 33.4358 44.1997 33.6299L48.9997 36.7099C49.2642 36.8886 49.4821 37.128 49.6352 37.4081C49.7883 37.6882 49.8721 38.0008 49.8797 38.3199C49.8876 38.6388 49.8191 38.955 49.6799 39.242C49.5408 39.5291 49.335 39.7787 49.0797 39.9699L41.5897 45.5999C41.2408 45.8617 40.8158 46.0021 40.3797 45.9999ZM40.0897 38.9999L41.0897 40.9999L44.4197 38.4899L42.9997 37.5099L40.0897 38.9999Z" fill="black"/>
  <path d="M104.4 45.9998C103.967 45.9998 103.546 45.8595 103.2 45.5998L95.7196 39.9998C95.4643 39.8085 95.2585 39.559 95.1193 39.2719C94.9802 38.9849 94.9117 38.6687 94.9196 38.3498C94.9271 38.0307 95.0109 37.7181 95.164 37.438C95.3171 37.1579 95.535 36.9185 95.7996 36.7398L100.54 33.5598C100.834 33.3673 101.174 33.2557 101.525 33.2364C101.876 33.2171 102.226 33.2907 102.54 33.4498L108.19 36.3898C108.648 36.6241 108.998 37.0262 109.168 37.5123C109.337 37.9985 109.313 38.5313 109.1 38.9998L106.2 44.8698C106.063 45.1222 105.873 45.3422 105.643 45.5147C105.414 45.6873 105.15 45.8084 104.87 45.8698C104.719 45.9333 104.561 45.977 104.4 45.9998ZM100.4 38.4598L103.68 40.9998L104.68 38.9998L101.82 37.5098L100.4 38.4598Z" fill="black"/>
  <path d="M110.29 45.9999C110.14 46.0147 109.989 46.0147 109.84 45.9999C109.559 45.9385 109.295 45.8174 109.066 45.6448C108.836 45.4723 108.647 45.2523 108.51 44.9999L105.51 39.1399C105.269 38.6678 105.225 38.1193 105.388 37.6149C105.551 37.1105 105.908 36.6915 106.38 36.4499L112.11 33.5099C112.424 33.3523 112.775 33.2804 113.126 33.3014C113.477 33.3225 113.816 33.4358 114.11 33.6299L118.85 36.8099C119.114 36.9886 119.332 37.228 119.485 37.5081C119.638 37.7882 119.722 38.1008 119.73 38.4199C119.735 38.7213 119.672 39.0199 119.546 39.2935C119.419 39.5671 119.233 39.8086 119 39.9999L111.51 45.6299C111.154 45.8831 110.726 46.013 110.29 45.9999ZM110 38.9999L111 40.9999L114.33 38.4899L112.91 37.5399L110 38.9999Z" fill="black"/>
  <path d="M146 20C145.47 20 144.961 19.7893 144.586 19.4142C144.211 19.0391 144 18.5304 144 18V10C144 9.46957 144.211 8.96086 144.586 8.58578C144.961 8.21071 145.47 8 146 8C146.53 8 147.039 8.21071 147.414 8.58578C147.789 8.96086 148 9.46957 148 10V18C148 18.5304 147.789 19.0391 147.414 19.4142C147.039 19.7893 146.53 20 146 20Z" fill="black"/>
  <path d="M146 35.29C145.47 35.29 144.961 35.0793 144.586 34.7043C144.211 34.3292 144 33.8205 144 33.29V25.29C144 24.7596 144.211 24.2509 144.586 23.8758C144.961 23.5008 145.47 23.29 146 23.29C146.53 23.29 147.039 23.5008 147.414 23.8758C147.789 24.2509 148 24.7596 148 25.29V33.29C148 33.8205 147.789 34.3292 147.414 34.7043C147.039 35.0793 146.53 35.29 146 35.29Z" fill="black"/>
  <path d="M157.65 23.6299H149.65C149.12 23.6299 148.611 23.4192 148.236 23.0441C147.861 22.669 147.65 22.1603 147.65 21.6299C147.65 21.0994 147.861 20.5907 148.236 20.2157C148.611 19.8406 149.12 19.6299 149.65 19.6299H157.65C158.181 19.6299 158.69 19.8406 159.065 20.2157C159.44 20.5907 159.65 21.0994 159.65 21.6299C159.65 22.1603 159.44 22.669 159.065 23.0441C158.69 23.4192 158.181 23.6299 157.65 23.6299Z" fill="black"/>
  <path d="M142.33 23.6299H134.33C133.8 23.6299 133.291 23.4192 132.916 23.0441C132.541 22.669 132.33 22.1603 132.33 21.6299C132.33 21.0994 132.541 20.5907 132.916 20.2157C133.291 19.8406 133.8 19.6299 134.33 19.6299H142.33C142.861 19.6299 143.369 19.8406 143.744 20.2157C144.119 20.5907 144.33 21.0994 144.33 21.6299C144.33 22.1603 144.119 22.669 143.744 23.0441C143.369 23.4192 142.861 23.6299 142.33 23.6299Z" fill="black"/>
</svg>
