<svg width="160" height="92" viewBox="0 0 160 92" fill="none"
  xmlns="http://www.w3.org/2000/svg">
  <path d="M9.39403 77.7797C9.07235 77.7781 8.75251 77.731 8.44403 77.6397C7.95519 77.5023 7.53691 77.1842 7.27403 76.7497C6.62716 75.5725 6.14915 74.3101 5.85403 72.9997V72.7997C5.33359 70.452 4.43882 68.2032 3.20403 66.1397C3.03403 65.8897 2.86403 65.6597 2.69403 65.4197C2.24841 64.8395 1.85045 64.2241 1.50403 63.5797C0.716646 61.9183 0.229146 60.1308 0.0640323 58.2997C-0.0728249 57.5818 0.0108438 56.8392 0.304032 56.1697C0.663244 55.4814 1.255 54.9427 1.97403 54.6497C3.29177 54.0921 4.7035 53.7901 6.13403 53.7597C6.72403 53.7097 7.27403 53.6597 7.78403 53.5697C8.78403 53.3897 9.93403 52.7697 10.004 51.9797C9.94234 51.2999 9.73425 50.6415 9.39403 50.0497C8.62049 48.6745 8.34166 47.0756 8.60403 45.5197C8.77403 44.8297 12.784 31.5197 13.534 29.7297C14.0519 28.5297 14.8136 27.4504 15.7707 26.5604C16.7279 25.6704 17.8596 24.9891 19.094 24.5597C20.293 24.2224 21.529 24.0343 22.774 23.9997C23.8934 23.9915 25.0017 23.778 26.044 23.3697C26.747 22.9438 27.3952 22.4333 27.974 21.8497L34.354 16.0997C35.124 15.4097 37.454 13.2997 39.984 14.5797C41.1723 15.3026 42.0302 16.462 42.374 17.8097C43.374 20.9297 42.784 23.9497 40.924 25.7397C40.3879 26.3003 39.7148 26.7114 38.9712 26.9324C38.2277 27.1533 37.4393 27.1766 36.684 26.9997C36.7302 27.1595 36.8123 27.3066 36.924 27.4297C37.2849 27.7826 37.7232 28.0462 38.204 28.1997C39.4002 27.8184 40.5695 27.3573 41.704 26.8197C44.234 25.6997 45.154 25.3297 46.134 25.5797C46.9353 25.8291 47.6609 26.2762 48.244 26.8797L53.044 31.3097C53.317 31.5859 53.6306 31.8186 53.974 31.9997C54.372 32.0032 54.7676 31.9389 55.144 31.8097C55.9313 31.5726 56.7525 31.4679 57.574 31.4997C58.2366 31.5569 58.8804 31.7498 59.4653 32.0663C60.0502 32.3828 60.5637 32.8163 60.974 33.3397C61.239 33.6999 61.4796 34.0774 61.694 34.4697C61.764 34.6097 61.864 34.7897 61.954 34.9397C64.374 34.7397 65.214 32.7897 65.954 30.6397C66.274 29.6397 66.664 28.4797 68.044 28.2897C68.4498 28.2427 68.8606 28.3116 69.2288 28.4886C69.5969 28.6656 69.9074 28.9434 70.124 29.2897C70.4033 29.7207 70.6031 30.1982 70.714 30.6997C72.124 30.2097 74.084 29.3497 74.894 28.9897C75.704 28.6297 76.154 28.4397 76.464 28.3297C76.8489 28.0046 77.3424 27.8367 77.8457 27.8596C78.349 27.8826 78.8251 28.0946 79.1788 28.4534C79.5326 28.8122 79.7379 29.2913 79.7537 29.7949C79.7694 30.2985 79.5946 30.7895 79.264 31.1697C78.8586 31.6134 78.3401 31.9384 77.764 32.1097C77.554 32.1797 77.094 32.3897 76.504 32.6497C72.024 34.6497 69.874 35.3697 68.504 34.9397C67.8435 36.181 66.8494 37.2131 65.6339 37.9198C64.4183 38.6265 63.0295 38.9798 61.624 38.9397C59.694 38.9397 58.774 37.2997 58.284 36.4197C58.1656 36.1996 58.0354 35.9859 57.894 35.7797C57.7451 35.5869 57.5257 35.461 57.284 35.4297C56.8972 35.4483 56.5141 35.5155 56.144 35.6297C55.0797 35.9891 53.935 36.0376 52.844 35.7697C51.9134 35.4503 51.0731 34.9118 50.394 34.1997L45.584 29.7597L45.384 29.5797C44.844 29.7797 43.994 30.1597 43.384 30.4297C40.014 31.9197 38.504 32.4297 37.214 32.0297C35.9964 31.6423 34.8959 30.9545 34.014 30.0297C33.444 29.412 33.044 28.657 32.8529 27.8385C32.6619 27.02 32.6864 26.1659 32.924 25.3597C33.0994 24.8312 33.3867 24.3468 33.7664 23.9395C34.146 23.5322 34.6091 23.2117 35.124 22.9997C35.9548 22.6783 36.8792 22.6998 37.694 23.0597C37.7824 23.0553 37.869 23.0325 37.9482 22.993C38.0273 22.9534 38.0974 22.8978 38.154 22.8297C38.764 22.2397 39.154 20.8297 38.574 19.0197C38.4875 18.7297 38.3667 18.4511 38.214 18.1897C37.777 18.4069 37.3784 18.694 37.034 19.0397L30.644 24.7897C29.8078 25.605 28.8661 26.3046 27.844 26.8697C26.3381 27.5223 24.7153 27.8625 23.074 27.8697C22.1375 27.9011 21.2078 28.042 20.304 28.2897C19.6003 28.5409 18.9577 28.938 18.4182 29.455C17.8788 29.972 17.4548 30.5973 17.174 31.2897C16.594 32.6097 12.744 45.2897 12.444 46.4597C12.4509 47.1444 12.6334 47.8158 12.974 48.4097C13.639 49.605 13.9835 50.952 13.974 52.3197C13.724 55.3197 10.974 57.0597 8.46403 57.5097C7.80206 57.6228 7.1344 57.6996 6.46403 57.7397C5.67372 57.7719 4.88918 57.8893 4.12403 58.0897C4.20824 59.3282 4.4954 60.5444 4.97403 61.6897C5.24894 62.1455 5.5529 62.583 5.88403 62.9997L6.47403 63.8397C7.96495 66.2663 9.04608 68.9218 9.67403 71.6997L9.72403 71.9097L9.84403 72.3497V71.9697C10.034 70.2797 10.284 67.9697 12.274 66.7597C13.2112 66.2557 14.2729 66.0302 15.334 66.1097H15.814C15.9746 66.106 16.1334 66.0755 16.284 66.0197C16.529 65.9029 16.7951 65.8372 17.0663 65.8265C17.3375 65.8159 17.608 65.8605 17.8613 65.9578C18.1147 66.055 18.3456 66.2028 18.5401 66.3921C18.7345 66.5814 18.8883 66.8083 18.9923 67.059C19.0962 67.3097 19.1481 67.5789 19.1446 67.8502C19.1412 68.1216 19.0826 68.3894 18.9724 68.6374C18.8622 68.8853 18.7026 69.1083 18.5035 69.2927C18.3043 69.477 18.0698 69.6189 17.814 69.7097C17.2225 69.9503 16.5924 70.0824 15.954 70.0997H15.324C14.9891 70.0788 14.6528 70.1023 14.324 70.1697C14.024 70.3497 13.874 71.7397 13.804 72.3997L13.734 72.9497C13.6445 73.7694 13.3869 74.5619 12.9774 75.2777C12.5679 75.9934 12.0153 76.6171 11.354 77.1097C10.7778 77.5151 10.0978 77.7475 9.39403 77.7797Z" fill="black"/>
  <path d="M107.894 33.8298C107.259 33.8078 106.639 33.6348 106.084 33.3253C105.529 33.0157 105.056 32.5785 104.704 32.0498C104.405 31.6378 104.275 31.1275 104.339 30.6227C104.404 30.1179 104.658 29.6567 105.051 29.3329C105.443 29.0091 105.945 28.8472 106.452 28.8801C106.96 28.9129 107.436 29.1381 107.784 29.5098C108.721 28.4736 109.748 27.5231 110.854 26.6698C111.331 25.1498 112.382 23.876 113.784 23.1198C114.908 22.5445 116.122 22.1657 117.374 21.9998L117.724 21.9298C118.563 21.8357 119.367 21.537 120.064 21.0598C120.26 20.8857 120.443 20.6986 120.614 20.4998C121.142 19.8727 121.783 19.3504 122.504 18.9598C123.256 18.6203 124.069 18.4366 124.894 18.4198C125.163 18.411 125.43 18.3809 125.694 18.3298C126.329 18.0753 126.913 17.7058 127.414 17.2398L130.484 14.7798C130.484 14.6398 130.404 14.4598 130.374 14.3298C130.245 13.9157 130.155 13.4905 130.104 13.0598C130.008 11.9517 130.238 10.8396 130.764 9.85983C132.076 7.60525 134.048 5.80762 136.414 4.70983C138.706 3.45987 141.086 2.37706 143.534 1.46983C144.383 1.10059 145.311 0.949342 146.234 1.02983C146.973 1.11399 147.664 1.43522 148.205 1.9454C148.746 2.45559 149.107 3.12727 149.234 3.85983C149.339 4.96557 149.005 6.06829 148.304 6.92983L148.164 7.13983C147.452 8.56912 147.108 10.1538 147.164 11.7498C147.861 11.909 148.508 12.2404 149.044 12.7138C149.58 13.1873 149.99 13.7875 150.234 14.4598C150.581 15.4461 150.757 16.4844 150.754 17.5298C150.834 19.0898 150.964 21.8298 151.034 23.8198C151.043 24.0825 151.001 24.3445 150.909 24.5907C150.817 24.8369 150.677 25.0626 150.498 25.2549C150.319 25.4471 150.103 25.6022 149.864 25.7111C149.625 25.8201 149.367 25.8808 149.104 25.8898C148.841 25.8992 148.579 25.8567 148.333 25.7647C148.087 25.6728 147.861 25.5332 147.669 25.3539C147.477 25.1747 147.322 24.9593 147.213 24.7201C147.104 24.4809 147.043 24.2225 147.034 23.9598C146.964 21.9598 146.834 19.2698 146.764 17.7198C146.77 17.1207 146.685 16.524 146.514 15.9498C146.479 15.85 146.425 15.7582 146.354 15.6798H146.264C145.732 15.7211 145.198 15.6196 144.718 15.3858C144.238 15.152 143.83 14.7944 143.534 14.3498C143.233 13.811 143.097 13.1953 143.144 12.5798C143.194 10.4998 143.264 7.68983 144.604 5.34983C142.461 6.16291 140.376 7.12183 138.364 8.21983C136.723 8.9457 135.332 10.1386 134.364 11.6498C134.188 11.9537 134.095 12.2986 134.094 12.6498C134.094 12.8098 134.184 13.0498 134.244 13.2898C134.454 13.8321 134.551 14.4112 134.53 14.9921C134.51 15.5731 134.371 16.1438 134.124 16.6698C133.824 17.1366 133.433 17.5379 132.974 17.8498L129.894 20.3098C128.966 21.1605 127.859 21.7926 126.654 22.1598C126.167 22.269 125.672 22.3359 125.174 22.3598C124.866 22.365 124.56 22.4121 124.264 22.4998C123.991 22.685 123.748 22.9109 123.544 23.1698C123.258 23.4871 122.954 23.7876 122.634 24.0698C121.431 24.9949 120.007 25.5911 118.504 25.7998L118.144 25.8698C117.322 25.9834 116.523 26.2229 115.774 26.5798C115.528 26.6883 115.307 26.8451 115.123 27.0409C114.939 27.2368 114.797 27.4677 114.704 27.7198C114.712 28.0472 114.64 28.3716 114.494 28.6646C114.347 28.9575 114.131 29.21 113.864 29.3998C112.643 30.2656 111.529 31.2726 110.544 32.3998C110.209 32.804 109.802 33.1429 109.344 33.3998C108.905 33.6646 108.406 33.8127 107.894 33.8298Z" fill="black"/>
  <path d="M136.194 91.1002C136.004 91.1101 135.814 91.1101 135.624 91.1002C135.056 91.0436 134.505 90.8727 134.005 90.5977C133.505 90.3227 133.066 89.9494 132.714 89.5002C132.437 89.1427 132.237 88.7311 132.129 88.2919C132.02 87.8527 132.005 87.3956 132.084 86.9502C132.263 86.1527 132.674 85.4258 133.264 84.8602C133.346 84.7789 133.423 84.692 133.494 84.6002C133.508 84.4071 133.508 84.2132 133.494 84.0202L133.144 80.9102C132.762 81.429 132.261 81.8482 131.683 82.1319C131.105 82.4157 130.467 82.5558 129.824 82.5402C128.963 82.4273 128.157 82.054 127.514 81.4702C127.397 81.3682 127.274 81.2746 127.144 81.1902C126.803 81.0687 126.445 80.9979 126.084 80.9802C125.23 80.9195 124.396 80.699 123.624 80.3302C122.671 79.7583 121.866 78.9704 121.274 78.0302C121.064 77.718 120.834 77.4206 120.584 77.1402C119.643 76.3849 118.524 75.8855 117.334 75.6902C116.693 75.4644 116.01 75.3824 115.334 75.4502C115.259 75.473 115.19 75.5103 115.13 75.5601C115.07 75.6099 115.02 75.6711 114.984 75.7402C114.984 75.7402 115.114 76.0202 115.194 76.1902C115.274 76.3602 115.374 76.5902 115.454 76.8002C115.896 77.9864 115.969 79.2789 115.662 80.5072C115.355 81.7355 114.683 82.8419 113.734 83.6802C112.357 84.6931 110.727 85.3057 109.024 85.4502C107.554 85.6902 106.634 85.8802 106.184 86.4502C106.102 86.5686 106.029 86.6922 105.964 86.8202C105.664 87.3897 105.26 87.8983 104.774 88.3202C104.114 88.8188 103.334 89.136 102.514 89.2402C100.023 89.6606 97.4756 89.6097 95.0037 89.0902C94.1668 88.9529 93.3844 88.5859 92.7437 88.0302C92.6137 87.9102 92.5037 87.7802 92.3837 87.6502H92.2737C92.1237 87.6502 91.9737 87.6502 91.8337 87.5902C90.4808 87.2987 89.2266 86.6613 88.1937 85.7402L87.4737 85.2102C86.7137 84.6802 86.1237 84.6302 86.0537 84.6902C85.8592 84.9256 85.6946 85.1842 85.5637 85.4602C85.1905 86.2602 84.6399 86.9647 83.9537 87.5202C82.2937 88.7502 80.3137 88.2002 79.0137 87.8402L78.5537 87.7202C76.75 87.2545 74.8575 87.2545 73.0537 87.7202L72.4737 87.8902C71.0095 88.4678 69.3946 88.5416 67.8837 88.1002C66.8986 87.6846 66.0175 87.0563 65.3037 86.2602C64.986 85.9139 64.6266 85.6082 64.2337 85.3502C63.8337 85.1742 63.414 85.0466 62.9837 84.9702C61.5873 84.7876 60.3027 84.1098 59.3637 83.0602C58.7397 82.1708 58.3478 81.1395 58.2237 80.0602V79.8602C57.7237 77.3102 56.7137 75.4102 55.3737 74.5202C55.0776 74.3229 54.8394 74.0502 54.6837 73.7302C53.6122 71.7344 52.0725 70.0284 50.1966 68.7587C48.3207 67.489 46.1648 66.6934 43.9137 66.4402C43.3833 66.3898 42.8946 66.1307 42.5552 65.72C42.2157 65.3093 42.0533 64.7806 42.1037 64.2502C42.1541 63.7197 42.4132 63.2311 42.8239 62.8916C43.2346 62.5522 43.7633 62.3898 44.2937 62.4402C47.1355 62.7412 49.8648 63.7144 52.2558 65.2794C54.6468 66.8445 56.6308 68.9563 58.0437 71.4402C60.0437 73.0102 61.4837 75.6102 62.1437 79.0202V79.2402C62.1937 79.6771 62.3153 80.1028 62.5037 80.5002C62.9109 80.7618 63.3728 80.926 63.8537 80.9802C64.6372 81.1282 65.3973 81.3804 66.1137 81.7302C66.8542 82.1601 67.528 82.6957 68.1137 83.3202C68.4429 83.6985 68.8354 84.0165 69.2737 84.2602C69.9813 84.3367 70.6967 84.2336 71.3537 83.9602L72.0237 83.7702C74.4855 83.1152 77.0735 83.098 79.5437 83.7202L79.9737 84.0002C80.4758 84.175 81.0022 84.2695 81.5337 84.2802C81.5337 84.2802 81.8037 83.8202 81.9537 83.5502C82.3193 82.7845 82.8404 82.1034 83.4837 81.5502C85.1037 80.2802 87.4837 80.4202 89.6437 81.9302C89.9337 82.1302 90.2237 82.3502 90.5137 82.5702C91.046 83.0533 91.6725 83.421 92.3537 83.6502H92.5937C93.3106 83.687 94.003 83.9224 94.5937 84.3302C94.8445 84.5276 95.0726 84.7524 95.2737 85.0002L95.3637 85.1002C95.3637 85.1002 95.4437 85.1002 95.7137 85.1602C97.6883 85.5783 99.7241 85.619 101.714 85.2802C101.867 85.2615 102.017 85.2281 102.164 85.1802C102.218 85.0504 102.285 84.9264 102.364 84.8102C102.492 84.5732 102.632 84.3429 102.784 84.1202C104.214 82.1202 106.444 81.7402 108.224 81.4402C109.213 81.3699 110.172 81.0685 111.024 80.5602C111.332 80.2547 111.548 79.8684 111.647 79.4457C111.747 79.023 111.724 78.5809 111.584 78.1702C111.534 78.0502 111.474 77.9202 111.414 77.8002C111.134 77.2525 110.951 76.6604 110.874 76.0502C110.8 75.0379 111.083 74.0317 111.676 73.2074C112.268 72.3831 113.131 71.793 114.114 71.5402C115.479 71.2452 116.898 71.3212 118.224 71.7602C120.137 72.1027 121.913 72.9838 123.344 74.3002C123.726 74.7162 124.08 75.1572 124.404 75.6202C124.67 76.0453 125.009 76.4209 125.404 76.7302C125.745 76.8507 126.102 76.9214 126.464 76.9402C127.372 76.9967 128.259 77.2455 129.064 77.6702C129.36 77.8506 129.644 78.0511 129.914 78.2702C130.054 78.1102 130.204 77.9202 130.314 77.7802L130.484 77.5702C130.851 77.0816 131.314 76.6739 131.846 76.3728C132.378 76.0717 132.966 75.8835 133.574 75.8202C133.993 75.8001 134.411 75.868 134.802 76.0196C135.193 76.1711 135.548 76.403 135.844 76.7002C136.45 77.3929 136.802 78.2708 136.844 79.1902L137.324 83.4702C137.474 84.3469 137.388 85.2479 137.074 86.0802C136.937 86.3958 136.759 86.6917 136.544 86.9602C137.667 86.5037 138.58 85.6443 139.104 84.5502C140.66 81.3325 140.969 77.6528 139.974 74.2202C138.949 70.7148 137.402 67.384 135.384 64.3402C134.645 64.0254 133.826 63.9519 133.044 64.1302L132.634 64.3402C132.164 64.6578 131.633 64.8719 131.074 64.9685C130.515 65.065 129.943 65.0417 129.394 64.9002C128.66 64.6174 128.034 64.1084 127.608 63.4469C127.182 62.7854 126.978 62.0056 127.024 61.2202C127.069 60.385 127.255 59.5635 127.574 58.7902L127.674 58.5002C128.203 56.9798 128.467 55.3799 128.454 53.7702V53.3202C128.366 52.1916 128.516 51.0572 128.894 49.9902C129.155 49.3998 129.491 48.8453 129.894 48.3402C130.414 47.6402 130.894 47.0002 131.404 46.3402C131.739 45.9291 132.224 45.6681 132.752 45.6147C133.28 45.5612 133.808 45.7197 134.219 46.0552C134.63 46.3907 134.891 46.8757 134.944 47.4037C134.998 47.9316 134.839 48.4591 134.504 48.8702C134.034 49.4502 133.584 50.0502 133.134 50.6402C132.921 50.8995 132.736 51.1811 132.584 51.4802C132.435 52.0406 132.387 52.6231 132.444 53.2002V53.6902C132.463 55.7626 132.125 57.8229 131.444 59.7802L131.334 60.1002L131.174 60.5502C131.264 60.5502 131.354 60.4602 131.444 60.4302C133.624 59.4302 135.854 60.2302 137.324 60.7302C137.759 60.8781 138.129 61.1711 138.374 61.5602C140.844 65.1631 142.734 69.1314 143.974 73.3202C145.216 77.7323 144.77 82.4488 142.724 86.5502C141.474 88.8002 139.144 91.1002 136.194 91.1002Z" fill="black"/>
  <path d="M29.4542 76.7102C26.1651 76.7102 22.9499 75.7349 20.2151 73.9075C17.4803 72.0802 15.3488 69.483 14.0901 66.4442C12.8314 63.4055 12.5021 60.0618 13.1438 56.8359C13.7854 53.6099 15.3693 50.6468 17.695 48.321C20.0208 45.9953 22.984 44.4114 26.2099 43.7697C29.4358 43.1281 32.7795 43.4574 35.8183 44.7161C38.857 45.9748 41.4542 48.1063 43.2816 50.8411C45.1089 53.5759 46.0842 56.7911 46.0842 60.0802C46.0789 64.4891 44.3251 68.716 41.2076 71.8335C38.09 74.9511 33.8632 76.7049 29.4542 76.7102ZM29.4542 47.4502C26.9562 47.4502 24.5144 48.1909 22.4374 49.5787C20.3604 50.9665 18.7416 52.9391 17.7856 55.2469C16.8297 57.5547 16.5796 60.0942 17.0669 62.5442C17.5542 64.9942 18.7571 67.2446 20.5235 69.011C22.2898 70.7773 24.5403 71.9802 26.9902 72.4675C29.4402 72.9549 31.9797 72.7047 34.2875 71.7488C36.5954 70.7929 38.5679 69.1741 39.9557 67.0971C41.3435 65.0201 42.0842 62.5782 42.0842 60.0802C42.0789 56.7321 40.7466 53.5227 38.3791 51.1553C36.0117 48.7878 32.8023 47.4555 29.4542 47.4502Z" fill="black"/>
  <path d="M29.4541 63.8899C27.808 63.8873 26.23 63.2322 25.0659 62.0682C23.9019 60.9041 23.2468 59.3261 23.2441 57.6799V53.9999C23.3085 52.3948 23.9915 50.8767 25.15 49.7638C26.3085 48.6509 27.8527 48.0293 29.4591 48.0293C31.0656 48.0293 32.6098 48.6509 33.7683 49.7638C34.9268 50.8767 35.6097 52.3948 35.6741 53.9999V57.6999C35.6662 59.3444 35.0074 60.9188 33.8418 62.0788C32.6762 63.2388 31.0986 63.89 29.4541 63.8899ZM29.4541 51.7699C29.1622 51.7699 28.8732 51.8278 28.6038 51.9401C28.3343 52.0524 28.0898 52.217 27.8843 52.4243C27.6788 52.6316 27.5165 52.8776 27.4066 53.1481C27.2967 53.4185 27.2415 53.708 27.2441 53.9999V57.6999C27.2819 58.2617 27.5317 58.7881 27.9429 59.1726C28.3542 59.5571 28.8961 59.771 29.4591 59.771C30.0221 59.771 30.5641 59.5571 30.9754 59.1726C31.3866 58.7881 31.6364 58.2617 31.6741 57.6999V53.9999C31.6755 53.7076 31.619 53.4178 31.508 53.1473C31.3971 52.8768 31.2337 52.6309 31.0275 52.4237C30.8212 52.2165 30.576 52.0521 30.306 51.9399C30.036 51.8277 29.7465 51.7699 29.4541 51.7699Z" fill="black"/>
  <path d="M19.334 72.3896C18.8036 72.3896 18.2948 72.1789 17.9198 71.8038C17.5447 71.4288 17.334 70.92 17.334 70.3896V68.3896C17.3366 66.9211 17.9212 65.5135 18.9595 64.4752C19.9979 63.4368 21.4055 62.8523 22.874 62.8496H36.034C37.5042 62.8496 38.9144 63.433 39.9549 64.4716C40.9954 65.5103 41.5813 66.9194 41.584 68.3896V70.3896C41.584 70.92 41.3733 71.4288 40.9982 71.8038C40.6231 72.1789 40.1144 72.3896 39.584 72.3896C39.0536 72.3896 38.5448 72.1789 38.1698 71.8038C37.7947 71.4288 37.584 70.92 37.584 70.3896V68.3896C37.5813 67.9803 37.4169 67.5886 37.1265 67.3001C36.8361 67.0115 36.4433 66.8496 36.034 66.8496H22.874C22.4655 66.8496 22.0738 67.0119 21.785 67.3007C21.4962 67.5895 21.334 67.9812 21.334 68.3896V70.3896C21.334 70.92 21.1233 71.4288 20.7482 71.8038C20.3731 72.1789 19.8644 72.3896 19.334 72.3896Z" fill="black"/>
  <path d="M143.244 54.0596C139.94 54.0557 136.711 53.0723 133.966 51.2338C131.22 49.3953 129.082 46.7841 127.82 43.7304C126.558 40.6767 126.23 37.3175 126.877 34.0774C127.524 30.8373 129.117 27.8618 131.455 25.5268C133.793 23.1919 136.77 21.6024 140.011 20.9593C143.252 20.3161 146.611 20.6482 149.663 21.9135C152.715 23.1789 155.324 25.3206 157.159 28.0681C158.994 30.8157 159.974 34.0456 159.974 37.3496C159.968 41.7832 158.203 46.0335 155.067 49.1666C151.93 52.2998 147.677 54.0596 143.244 54.0596ZM143.244 24.6496C140.73 24.6536 138.275 25.4026 136.187 26.8021C134.099 28.2015 132.473 30.1885 131.515 32.5119C130.556 34.8353 130.308 37.3907 130.801 39.8552C131.295 42.3196 132.508 44.5824 134.287 46.3576C136.066 48.1327 138.332 49.3404 140.798 49.8281C143.263 50.3158 145.818 50.0615 148.139 49.0974C150.46 48.1332 152.443 46.5026 153.838 44.4116C155.232 42.3206 155.976 39.863 155.974 37.3496C155.968 33.9778 154.625 30.7461 152.238 28.3646C149.85 25.9832 146.616 24.647 143.244 24.6496Z" fill="black"/>
  <path d="M30.0543 84.5895C26.8531 84.5933 23.6943 83.8575 20.8243 82.4395C20.3483 82.2047 19.9849 81.7905 19.8143 81.2879C19.6436 80.7853 19.6796 80.2355 19.9143 79.7595C20.149 79.2834 20.5633 78.9201 21.0659 78.7494C21.5685 78.5788 22.1183 78.6147 22.5943 78.8495C25.533 80.3014 28.8313 80.8647 32.0853 80.4704C35.3392 80.0761 38.4075 78.7412 40.9143 76.6295C41.3201 76.2873 41.8452 76.1204 42.374 76.1654C42.9029 76.2104 43.3922 76.4637 43.7343 76.8695C44.0764 77.2752 44.2434 77.8003 44.1984 78.3292C44.1534 78.858 43.9001 79.3473 43.4943 79.6895C39.7315 82.8551 34.9717 84.5905 30.0543 84.5895Z" fill="black"/>
  <path d="M143.244 41.18C142.422 41.1826 141.608 41.0232 140.848 40.7109C140.088 40.3986 139.397 39.9396 138.815 39.36C138.233 38.7804 137.77 38.0917 137.454 37.3333C137.138 36.5749 136.975 35.7616 136.974 34.94V31.23C136.94 30.3902 137.076 29.5522 137.375 28.7664C137.673 27.9806 138.127 27.2632 138.709 26.6571C139.291 26.051 139.99 25.5688 140.763 25.2394C141.536 24.91 142.368 24.7402 143.209 24.7402C144.049 24.7402 144.881 24.91 145.654 25.2394C146.428 25.5688 147.126 26.051 147.709 26.6571C148.291 27.2632 148.745 27.9806 149.043 28.7664C149.341 29.5522 149.477 30.3902 149.444 31.23V34.94C149.441 36.5872 148.788 38.1668 147.627 39.3354C146.466 40.5039 144.891 41.1668 143.244 41.18ZM143.244 28.99C142.947 28.986 142.653 29.041 142.377 29.1518C142.102 29.2626 141.852 29.427 141.64 29.6354C141.429 29.8438 141.262 30.092 141.147 30.3658C141.033 30.6395 140.974 30.9333 140.974 31.23V34.94C140.953 35.2461 140.996 35.5531 141.099 35.842C141.202 36.131 141.363 36.3957 141.573 36.6197C141.782 36.8437 142.036 37.0223 142.317 37.1444C142.598 37.2666 142.902 37.3296 143.209 37.3296C143.516 37.3296 143.819 37.2666 144.1 37.1444C144.382 37.0223 144.635 36.8437 144.845 36.6197C145.054 36.3957 145.216 36.131 145.319 35.842C145.422 35.5531 145.464 35.2461 145.444 34.94V31.23C145.444 30.6437 145.213 30.081 144.801 29.6637C144.389 29.2463 143.83 29.0079 143.244 29V28.99Z" fill="black"/>
  <path d="M153.414 49.7094C152.884 49.7094 152.375 49.4987 152 49.1236C151.625 48.7486 151.414 48.2398 151.414 47.7094V45.7094C151.414 45.2957 151.25 44.8989 150.958 44.6063C150.665 44.3138 150.268 44.1494 149.854 44.1494H136.624C136.419 44.1494 136.215 44.1901 136.025 44.2691C135.835 44.3481 135.663 44.4639 135.518 44.6099C135.373 44.7558 135.258 44.9289 135.18 45.1194C135.103 45.3098 135.063 45.5137 135.064 45.7194V47.7194C135.064 48.2498 134.854 48.7586 134.479 49.1336C134.104 49.5087 133.595 49.7194 133.064 49.7194C132.534 49.7194 132.025 49.5087 131.65 49.1336C131.275 48.7586 131.064 48.2498 131.064 47.7194V45.7194C131.067 44.2447 131.653 42.831 132.695 41.7873C133.737 40.7435 135.15 40.1547 136.624 40.1494H149.854C151.33 40.1521 152.744 40.7401 153.787 41.7844C154.829 42.8287 155.414 44.2439 155.414 45.7194V47.7194C155.412 48.2481 155.2 48.7543 154.825 49.1272C154.45 49.5001 153.943 49.7094 153.414 49.7094Z" fill="black"/>
  <path d="M91.5138 40.5198C88.2247 40.5198 85.0095 39.5444 82.2747 37.7171C79.5399 35.8898 77.4084 33.2925 76.1497 30.2538C74.891 27.2151 74.5617 23.8713 75.2033 20.6454C75.845 17.4195 77.4289 14.4563 79.7546 12.1306C82.0804 9.80484 85.0435 8.22099 88.2694 7.57931C91.4953 6.93764 94.8391 7.26697 97.8778 8.52566C100.917 9.78434 103.514 11.9159 105.341 14.6506C107.168 17.3854 108.144 20.6007 108.144 23.8898C108.139 28.2987 106.385 32.5255 103.267 35.6431C100.15 38.7607 95.9227 40.5145 91.5138 40.5198ZM91.5138 11.2598C89.0158 11.2598 86.5739 12.0005 84.4969 13.3883C82.42 14.7761 80.8011 16.7487 79.8452 19.0565C78.8893 21.3643 78.6391 23.9038 79.1265 26.3538C79.6138 28.8037 80.8167 31.0542 82.583 32.8205C84.3494 34.5869 86.5998 35.7898 89.0498 36.2771C91.4998 36.7644 94.0393 36.5143 96.3471 35.5584C98.6549 34.6024 100.627 32.9836 102.015 30.9066C103.403 28.8296 104.144 26.3878 104.144 23.8898C104.141 20.5409 102.81 17.33 100.442 14.9619C98.0736 12.5939 94.8627 11.2624 91.5138 11.2598Z" fill="black"/>
  <path d="M79.9737 8.88986C79.558 8.89007 79.1526 8.76077 78.8139 8.51994C78.4751 8.27911 78.2198 7.93871 78.0834 7.54607C77.947 7.15343 77.9363 6.72806 78.0529 6.32908C78.1694 5.93011 78.4074 5.57735 78.7337 5.31986C82.0086 2.74112 85.9883 1.21549 90.1478 0.944139C94.3073 0.672787 98.4514 1.66845 102.034 3.79986C102.294 3.91176 102.527 4.07761 102.718 4.28642C102.909 4.49523 103.054 4.74225 103.143 5.01114C103.231 5.28003 103.262 5.56466 103.232 5.84622C103.203 6.12777 103.113 6.39983 102.971 6.6444C102.828 6.88897 102.635 7.10048 102.405 7.26494C102.174 7.42939 101.912 7.54305 101.634 7.59839C101.356 7.65373 101.07 7.6495 100.794 7.58597C100.518 7.52243 100.259 7.40106 100.034 7.22986C97.4609 5.70423 94.5248 4.8994 91.5337 4.89986C87.8025 4.8871 84.1778 6.14236 81.2537 8.45986C80.8897 8.74724 80.4373 8.89924 79.9737 8.88986Z" fill="black"/>
  <path d="M91.5137 27.7C89.8675 27.6973 88.2895 27.0422 87.1255 25.8782C85.9615 24.7142 85.3064 23.1362 85.3037 21.49V17.79C85.3681 16.1848 86.0511 14.6668 87.2096 13.5538C88.3681 12.4409 89.9122 11.8193 91.5187 11.8193C93.1252 11.8193 94.6694 12.4409 95.8279 13.5538C96.9863 14.6668 97.6693 16.1848 97.7337 17.79V21.49C97.7311 23.1379 97.0746 24.7174 95.9084 25.8817C94.7422 27.046 93.1616 27.7 91.5137 27.7ZM91.5137 15.58C90.9276 15.58 90.3655 15.8128 89.951 16.2273C89.5365 16.6417 89.3037 17.2039 89.3037 17.79V21.49C89.3415 22.0517 89.5913 22.5781 90.0025 22.9626C90.4137 23.3472 90.9557 23.5611 91.5187 23.5611C92.0817 23.5611 92.6237 23.3472 93.0349 22.9626C93.4462 22.5781 93.6959 22.0517 93.7337 21.49V17.79C93.7311 17.2029 93.496 16.6408 93.08 16.2267C92.6639 15.8125 92.1008 15.58 91.5137 15.58Z" fill="black"/>
  <path d="M81.3937 36.1995C80.8633 36.1995 80.3546 35.9887 79.9795 35.6137C79.6044 35.2386 79.3937 34.7299 79.3937 34.1995V32.1995C79.3884 31.4647 79.529 30.7363 79.8074 30.0563C80.0859 29.3764 80.4965 28.7585 81.0156 28.2384C81.5347 27.7184 82.1518 27.3067 82.8313 27.027C83.5108 26.7474 84.239 26.6055 84.9737 26.6095H98.0937C99.5648 26.6121 100.975 27.1977 102.015 28.2379C103.055 29.2782 103.641 30.6883 103.644 32.1595V34.1595C103.644 34.6899 103.433 35.1986 103.058 35.5737C102.683 35.9487 102.174 36.1595 101.644 36.1595C101.113 36.1595 100.605 35.9487 100.229 35.5737C99.8544 35.1986 99.6437 34.6899 99.6437 34.1595V32.1595C99.6411 31.7492 99.4769 31.3565 99.1868 31.0663C98.8967 30.7762 98.504 30.6121 98.0937 30.6095H84.9737C84.5644 30.6121 84.1727 30.7766 83.8841 31.067C83.5956 31.3574 83.4337 31.7501 83.4337 32.1595V34.1595C83.4391 34.4289 83.3901 34.6966 83.2895 34.9465C83.1889 35.1965 83.0388 35.4236 82.8483 35.6141C82.6578 35.8046 82.4307 35.9547 82.1808 36.0553C81.9308 36.1559 81.6631 36.2049 81.3937 36.1995Z" fill="black"/>
  <path d="M55.0342 50.2396V53.1497L62.8742 52.2896V49.1396L55.0342 50.2396Z" fill="black"/>
  <path d="M57.5342 53.3303V63.2803H60.4042V53.0303L57.5342 53.3303Z" fill="black"/>
  <path d="M63.9238 48.9903V63.2803H66.9538V48.5703L63.9238 48.9903Z" fill="black"/>
  <path d="M67.5137 48.4899V51.7799L71.8837 51.2999V47.8799L67.5137 48.4899Z" fill="black"/>
  <path d="M67.5137 54.2197V57.5697L70.3837 57.4097V53.9697L67.5137 54.2197Z" fill="black"/>
  <path d="M67.5137 59.9796V63.2796H71.8837V59.8496L67.5137 59.9796Z" fill="black"/>
  <path d="M83.1641 46.2795V63.2795H87.1341V45.7295L83.1641 46.2795Z" fill="black"/>
  <path d="M87.874 45.6196V49.5296L93.644 48.8996V44.8096L87.874 45.6196Z" fill="black"/>
  <path d="M87.874 52.4694V56.4494L91.654 56.2494V52.1494L87.874 52.4694Z" fill="black"/>
  <path d="M87.874 59.3595V63.2794H93.644V59.1895L87.874 59.3595Z" fill="black"/>
  <path d="M73.0342 47.7095V63.2795H76.4742V47.2295L73.0342 47.7095Z" fill="black"/>
  <path d="M77.124 59.69V63.28H82.114V59.54L77.124 59.69Z" fill="black"/>
  <path d="M106.594 44.6197C105.906 44.0158 105.088 43.5774 104.204 43.3382C103.32 43.099 102.393 43.0653 101.494 43.2397V47.5697C101.843 47.5172 102.199 47.5723 102.515 47.7278C102.832 47.8833 103.093 48.1317 103.264 48.4397C103.724 49.4397 103.264 50.8297 102.124 52.1697C100.384 54.1697 95.7441 58.4297 95.7441 58.4297L102.394 58.2097C106.464 54.2097 107.924 51.8297 108.184 48.8197C108.256 48.0448 108.151 47.2636 107.875 46.5357C107.6 45.8078 107.162 45.1525 106.594 44.6197Z" fill="black"/>
  <path d="M94.9238 59.1502V63.2802H108.414V58.7402L94.9238 59.1502Z" fill="black"/>
  <path d="M100.724 43.3398C96.8039 44.1698 94.8839 47.0498 95.1039 51.7598L99.2839 51.3898C99.0939 48.7298 99.9039 48.0998 100.724 47.7498V43.3398Z" fill="black"/>
</svg>
