<svg width="160" height="116" viewBox="0 0 160 116" fill="none"
  xmlns="http://www.w3.org/2000/svg">
  <path d="M50.9998 112.74C50.4716 112.74 49.9647 112.532 49.5898 112.16L7.15976 69.71C2.73386 65.1047 0.290291 58.9474 0.353745 52.5604C0.417198 46.1734 2.98261 40.0659 7.49914 35.5494C12.0157 31.0329 18.1231 28.4675 24.5101 28.404C30.8972 28.3406 37.0544 30.7842 41.6598 35.21L50.9998 44.57L60.3598 35.21C64.9651 30.7842 71.1224 28.3406 77.5094 28.404C83.8964 28.4675 90.0039 31.0329 94.5204 35.5494C99.0369 40.0659 101.602 46.1734 101.666 52.5604C101.729 58.9474 99.2857 65.1047 94.8598 69.71C94.4845 70.0853 93.9755 70.2962 93.4448 70.2962C92.914 70.2962 92.405 70.0853 92.0298 69.71C91.6545 69.3348 91.4436 68.8258 91.4436 68.295C91.4436 67.7643 91.6545 67.2553 92.0298 66.88C95.8595 63.0583 98.0142 57.8717 98.0198 52.4613C98.0254 47.0508 95.8815 41.8598 92.0598 38.03C88.238 34.2003 83.0514 32.0456 77.641 32.04C72.2305 32.0344 67.0395 34.1783 63.2098 38L52.4298 48.81C52.055 49.1825 51.5481 49.3916 51.0198 49.3916C50.4914 49.3916 49.9845 49.1825 49.6098 48.81L38.8298 38C35 34.177 29.8084 32.0318 24.3971 32.0365C18.9857 32.0412 13.7979 34.1953 9.97476 38.0251C6.15166 41.8548 4.0065 47.0464 4.01119 52.4577C4.01588 57.8691 6.17003 63.0569 9.99976 66.88L50.9998 107.88L75.1698 83.7201C75.5477 83.3448 76.0592 83.135 76.5918 83.1369C77.1244 83.1387 77.6345 83.3521 78.0098 83.7301C78.385 84.108 78.5948 84.6195 78.5929 85.1521C78.5911 85.6847 78.3777 86.1948 77.9998 86.57L52.4298 112.16C52.2417 112.347 52.0184 112.494 51.7729 112.594C51.5275 112.693 51.2647 112.743 50.9998 112.74Z" fill="black"/>
  <path d="M41.72 116C41.1918 116.001 40.685 115.792 40.31 115.42L22.66 97.7201C22.3146 97.3403 22.1284 96.8421 22.1402 96.3289C22.1519 95.8156 22.3605 95.3265 22.7229 94.9628C23.0853 94.5991 23.5737 94.3887 24.0869 94.3752C24.6001 94.3617 25.0989 94.546 25.48 94.8901L43.14 112.54C43.4364 112.817 43.6415 113.178 43.7279 113.575C43.8144 113.971 43.7782 114.385 43.6241 114.76C43.47 115.136 43.2053 115.455 42.8652 115.677C42.5251 115.898 42.1257 116.011 41.72 116Z" fill="black"/>
  <path d="M17.0501 91.28C16.5219 91.2805 16.015 91.072 15.6401 90.7L5.88006 80.94C5.69424 80.7542 5.54684 80.5336 5.44627 80.2908C5.34571 80.048 5.29395 79.7878 5.29395 79.525C5.29395 79.2622 5.34571 79.002 5.44627 78.7592C5.54684 78.5165 5.69424 78.2959 5.88006 78.11C6.06588 77.9242 6.28648 77.7768 6.52927 77.6763C6.77205 77.5757 7.03227 77.5239 7.29506 77.5239C7.55785 77.5239 7.81806 77.5757 8.06085 77.6763C8.30364 77.7768 8.52424 77.9242 8.71006 78.11L18.4701 87.87C18.7487 88.1503 18.938 88.5068 19.0142 88.8946C19.0903 89.2824 19.0499 89.6841 18.898 90.0489C18.746 90.4137 18.4894 90.7253 18.1606 90.9445C17.8317 91.1636 17.4452 91.2804 17.0501 91.28Z" fill="black"/>
  <path d="M99.4795 101.13C99.059 101.13 98.6491 100.998 98.308 100.752C97.9669 100.506 97.712 100.159 97.5795 99.7601L90.5195 78.5801H73.5195C72.9891 78.5801 72.4804 78.3694 72.1053 77.9943C71.7303 77.6192 71.5195 77.1105 71.5195 76.5801C71.5195 76.0496 71.7303 75.5409 72.1053 75.1659C72.4804 74.7908 72.9891 74.5801 73.5195 74.5801H91.9995C92.4194 74.5915 92.825 74.7348 93.1589 74.9897C93.4927 75.2445 93.7379 75.5981 93.8595 76.0001L99.1595 91.9001L109.56 48.3701C109.663 47.9328 109.91 47.543 110.262 47.2636C110.614 46.9842 111.05 46.8315 111.5 46.8301C111.958 46.8405 112.399 47.0082 112.748 47.3049C113.098 47.6016 113.335 48.0095 113.42 48.4601L117.37 69.0001L120.3 61.0001C120.439 60.6135 120.695 60.2794 121.031 60.0433C121.368 59.8071 121.769 59.6803 122.18 59.6801C122.596 59.674 123.003 59.7979 123.346 60.0346C123.688 60.2712 123.948 60.6087 124.09 61.0001L132.63 87.6301L137.71 75.0301C137.859 74.6614 138.114 74.3456 138.444 74.1229C138.773 73.9002 139.162 73.7809 139.56 73.7801H157.95C158.48 73.7801 158.989 73.9908 159.364 74.3659C159.739 74.7409 159.95 75.2496 159.95 75.7801C159.95 76.3105 159.739 76.8192 159.364 77.1943C158.989 77.5694 158.48 77.7801 157.95 77.7801H140.9L134.27 94.2601C134.116 94.6417 133.848 94.9665 133.502 95.1902C133.157 95.4139 132.751 95.5256 132.34 95.5101C131.929 95.4946 131.532 95.3529 131.205 95.1041C130.877 94.8554 130.635 94.5118 130.51 94.1201L122.06 67.7901L118.63 77.2401C118.482 77.6461 118.207 77.9934 117.846 78.2301C117.484 78.4667 117.056 78.58 116.625 78.553C116.194 78.526 115.783 78.3601 115.454 78.0802C115.125 77.8003 114.895 77.4213 114.8 77.0001L111.27 58.3801L101.42 99.6301C101.318 100.051 101.083 100.428 100.75 100.704C100.416 100.979 100.002 101.14 99.5695 101.16L99.4795 101.13Z" fill="black"/>
  <path d="M100.569 13C100.039 13 99.5302 12.7893 99.1551 12.4142C98.78 12.0391 98.5693 11.5304 98.5693 11V2C98.5693 1.46957 98.78 0.96086 99.1551 0.585787C99.5302 0.210714 100.039 0 100.569 0C101.1 0 101.608 0.210714 101.984 0.585787C102.359 0.96086 102.569 1.46957 102.569 2V11C102.569 11.5304 102.359 12.0391 101.984 12.4142C101.608 12.7893 101.1 13 100.569 13Z" fill="black"/>
  <path d="M100.569 30.16C100.039 30.16 99.5302 29.9492 99.1551 29.5742C98.78 29.1991 98.5693 28.6904 98.5693 28.16V19.21C98.5693 18.6795 98.78 18.1708 99.1551 17.7957C99.5302 17.4207 100.039 17.21 100.569 17.21C101.1 17.21 101.608 17.4207 101.984 17.7957C102.359 18.1708 102.569 18.6795 102.569 19.21V28.16C102.569 28.6904 102.359 29.1991 101.984 29.5742C101.608 29.9492 101.1 30.16 100.569 30.16Z" fill="black"/>
  <path d="M113.63 17.1099H104.63C104.099 17.1099 103.591 16.8991 103.216 16.5241C102.841 16.149 102.63 15.6403 102.63 15.1099C102.63 14.5794 102.841 14.0707 103.216 13.6956C103.591 13.3206 104.099 13.1099 104.63 13.1099H113.63C114.16 13.1099 114.669 13.3206 115.044 13.6956C115.419 14.0707 115.63 14.5794 115.63 15.1099C115.63 15.6403 115.419 16.149 115.044 16.5241C114.669 16.8991 114.16 17.1099 113.63 17.1099Z" fill="black"/>
  <path d="M96.4697 17.1099H87.4697C86.9393 17.1099 86.4306 16.8991 86.0555 16.5241C85.6804 16.149 85.4697 15.6403 85.4697 15.1099C85.4697 14.5794 85.6804 14.0707 86.0555 13.6956C86.4306 13.3206 86.9393 13.1099 87.4697 13.1099H96.4697C97.0002 13.1099 97.5089 13.3206 97.8839 13.6956C98.259 14.0707 98.4697 14.5794 98.4697 15.1099C98.4697 15.6403 98.259 16.149 97.8839 16.5241C97.5089 16.8991 97.0002 17.1099 96.4697 17.1099Z" fill="black"/>
  <path d="M141.75 25.0601C141.22 25.0601 140.711 24.8493 140.336 24.4743C139.961 24.0992 139.75 23.5905 139.75 23.0601V14.0601C139.75 13.5296 139.961 13.0209 140.336 12.6458C140.711 12.2708 141.22 12.0601 141.75 12.0601C142.28 12.0601 142.789 12.2708 143.164 12.6458C143.539 13.0209 143.75 13.5296 143.75 14.0601V23.0601C143.75 23.5905 143.539 24.0992 143.164 24.4743C142.789 24.8493 142.28 25.0601 141.75 25.0601Z" fill="black"/>
  <path d="M141.75 42.22C141.22 42.22 140.711 42.0093 140.336 41.6342C139.961 41.2592 139.75 40.7505 139.75 40.22V31.27C139.75 30.7396 139.961 30.2309 140.336 29.8558C140.711 29.4807 141.22 29.27 141.75 29.27C142.28 29.27 142.789 29.4807 143.164 29.8558C143.539 30.2309 143.75 30.7396 143.75 31.27V40.22C143.75 40.7505 143.539 41.2592 143.164 41.6342C142.789 42.0093 142.28 42.22 141.75 42.22Z" fill="black"/>
  <path d="M154.81 29.1602H145.81C145.279 29.1602 144.77 28.9494 144.395 28.5744C144.02 28.1993 143.81 27.6906 143.81 27.1602C143.81 26.6297 144.02 26.121 144.395 25.7459C144.77 25.3709 145.279 25.1602 145.81 25.1602H154.81C155.34 25.1602 155.849 25.3709 156.224 25.7459C156.599 26.121 156.81 26.6297 156.81 27.1602C156.81 27.6906 156.599 28.1993 156.224 28.5744C155.849 28.9494 155.34 29.1602 154.81 29.1602Z" fill="black"/>
  <path d="M137.649 29.1602H128.649C128.119 29.1602 127.61 28.9494 127.235 28.5744C126.86 28.1993 126.649 27.6906 126.649 27.1602C126.649 26.6297 126.86 26.121 127.235 25.7459C127.61 25.3709 128.119 25.1602 128.649 25.1602H137.649C138.18 25.1602 138.689 25.3709 139.064 25.7459C139.439 26.121 139.649 26.6297 139.649 27.1602C139.649 27.6906 139.439 28.1993 139.064 28.5744C138.689 28.9494 138.18 29.1602 137.649 29.1602Z" fill="black"/>
</svg>
