<svg width="160" height="160" viewBox="0 0 160 160" fill="none" xmlns="http://www.w3.org/2000/svg">
  <g clip-path="url(#clip0)">
    <path d="M117 108.59H20.7198C18.5644 108.587 16.4981 107.73 14.974 106.206C13.4499 104.682 12.5925 102.615 12.5898 100.46V40.09C12.603 37.9415 13.4651 35.8854 14.9881 34.37C16.511 32.8545 18.5713 32.0026 20.7198 32H117C119.155 32.0026 121.222 32.86 122.746 34.3841C124.27 35.9082 125.127 37.9746 125.13 40.13V100.5C125.117 102.648 124.255 104.705 122.732 106.22C121.209 107.735 119.148 108.587 117 108.59ZM20.7198 36C19.6245 36 18.574 36.4351 17.7995 37.2096C17.025 37.9842 16.5898 39.0347 16.5898 40.13V100.5C16.5898 101.595 17.025 102.646 17.7995 103.42C18.574 104.195 19.6245 104.63 20.7198 104.63H117C118.095 104.63 119.146 104.195 119.92 103.42C120.695 102.646 121.13 101.595 121.13 100.5V40.09C121.119 39.0016 120.68 37.9614 119.906 37.1955C119.133 36.4296 118.088 35.9999 117 36H20.7198Z" fill="black"/>
    <path d="M123.11 94.75H14.5703C14.0399 94.75 13.5312 94.5393 13.1561 94.1642C12.781 93.7891 12.5703 93.2804 12.5703 92.75C12.5703 92.2196 12.781 91.7109 13.1561 91.3358C13.5312 90.9607 14.0399 90.75 14.5703 90.75H123.11C123.641 90.75 124.149 90.9607 124.525 91.3358C124.9 91.7109 125.11 92.2196 125.11 92.75C125.11 93.2804 124.9 93.7891 124.525 94.1642C124.149 94.5393 123.641 94.75 123.11 94.75Z" fill="black"/>
    <path d="M73.2197 102H64.4697C63.9393 102 63.4306 101.789 63.0555 101.414C62.6804 101.039 62.4697 100.53 62.4697 100C62.4697 99.4696 62.6804 98.9609 63.0555 98.5858C63.4306 98.2107 63.9393 98 64.4697 98H73.2197C73.7502 98 74.2589 98.2107 74.6339 98.5858C75.009 98.9609 75.2197 99.4696 75.2197 100C75.2197 100.53 75.009 101.039 74.6339 101.414C74.2589 101.789 73.7502 102 73.2197 102Z" fill="black"/>
    <path d="M85.4698 120.06H52.2198C51.9185 120.061 51.6208 119.995 51.3489 119.865C51.0771 119.735 50.8381 119.545 50.6498 119.31C50.4623 119.074 50.3308 118.798 50.265 118.504C50.1992 118.209 50.2008 117.904 50.2698 117.61L52.8898 106.24C52.9934 105.791 53.249 105.391 53.6135 105.108C53.978 104.826 54.4288 104.678 54.8898 104.69H82.8898C83.3507 104.678 83.8016 104.826 84.166 105.108C84.5305 105.391 84.7862 105.791 84.8898 106.24L87.5098 117.61C87.5787 117.904 87.5804 118.209 87.5146 118.504C87.4488 118.798 87.3172 119.074 87.1298 119.31C86.9322 119.557 86.6787 119.755 86.3901 119.885C86.1015 120.015 85.7861 120.075 85.4698 120.06ZM54.7298 116.06H82.9998L81.2998 108.69H56.4298L54.7298 116.06Z" fill="black"/>
    <path d="M96.72 128H41C40.4696 128 39.9609 127.789 39.5858 127.414C39.2107 127.039 39 126.53 39 126V124.25C39.0026 122.095 39.86 120.028 41.3841 118.504C42.9082 116.98 44.9746 116.123 47.13 116.12H90.63C92.7854 116.123 94.8518 116.98 96.3759 118.504C97.9 120.028 98.7574 122.095 98.76 124.25V126C98.7601 126.266 98.707 126.529 98.604 126.775C98.501 127.02 98.3501 127.242 98.1601 127.429C97.9702 127.615 97.7449 127.761 97.4977 127.859C97.2504 127.958 96.986 128.005 96.72 128ZM43 124H94.71C94.644 122.951 94.1816 121.967 93.4165 121.246C92.6514 120.526 91.6409 120.123 90.59 120.12H47.09C46.0443 120.131 45.0413 120.537 44.2825 121.256C43.5238 121.976 43.0656 122.956 43 124Z" fill="black"/>
    <path d="M147.36 128H128.53C128 128 127.491 127.789 127.116 127.414C126.741 127.039 126.53 126.53 126.53 126V99.54C126.53 99.0095 126.741 98.5008 127.116 98.1258C127.491 97.7507 128 97.54 128.53 97.54H147.36C147.891 97.54 148.399 97.7507 148.774 98.1258C149.15 98.5008 149.36 99.0095 149.36 99.54V126C149.36 126.53 149.15 127.039 148.774 127.414C148.399 127.789 147.891 128 147.36 128ZM130.53 124H145.36V101.5H130.53V124Z" fill="black"/>
    <path d="M147.36 123.17C146.945 123.172 146.54 123.044 146.201 122.806C145.861 122.567 145.605 122.228 145.466 121.837C145.328 121.446 145.314 121.022 145.428 120.623C145.542 120.223 145.776 119.87 146.1 119.61L151.5 115.25C151.919 114.916 152.257 114.491 152.489 114.008C152.721 113.525 152.841 112.996 152.84 112.46V106.72H147.36C146.83 106.72 146.321 106.509 145.946 106.134C145.571 105.759 145.36 105.25 145.36 104.72C145.36 104.19 145.571 103.681 145.946 103.306C146.321 102.931 146.83 102.72 147.36 102.72H154.84C155.37 102.72 155.879 102.931 156.254 103.306C156.629 103.681 156.84 104.19 156.84 104.72V112.46C156.842 113.592 156.59 114.71 156.102 115.731C155.614 116.752 154.902 117.651 154.02 118.36L148.61 122.72C148.257 123.008 147.816 123.167 147.36 123.17Z" fill="black"/>
    <path d="M134.94 87.16C134.41 87.16 133.901 86.9493 133.526 86.5742C133.151 86.1991 132.94 85.6904 132.94 85.16V76.81C132.94 76.2796 133.151 75.7709 133.526 75.3958C133.901 75.0207 134.41 74.81 134.94 74.81C135.471 74.81 135.98 75.0207 136.355 75.3958C136.73 75.7709 136.94 76.2796 136.94 76.81V85.16C136.94 85.6904 136.73 86.1991 136.355 86.5742C135.98 86.9493 135.471 87.16 134.94 87.16Z" fill="black"/>
    <path d="M134.94 94.77C134.41 94.77 133.901 94.5593 133.526 94.1842C133.151 93.8091 132.94 93.3004 132.94 92.77V91.11C132.94 90.5796 133.151 90.0708 133.526 89.6958C133.901 89.3207 134.41 89.11 134.94 89.11C135.471 89.11 135.98 89.3207 136.355 89.6958C136.73 90.0708 136.94 90.5796 136.94 91.11V92.77C136.94 93.3004 136.73 93.8091 136.355 94.1842C135.98 94.5593 135.471 94.77 134.94 94.77Z" fill="black"/>
    <path d="M140.5 91.28C139.97 91.28 139.461 91.0693 139.086 90.6942C138.711 90.3191 138.5 89.8104 138.5 89.28V82.44C138.5 81.9096 138.711 81.4009 139.086 81.0258C139.461 80.6507 139.97 80.44 140.5 80.44C141.03 80.44 141.539 80.6507 141.914 81.0258C142.289 81.4009 142.5 81.9096 142.5 82.44V89.28C142.5 89.8104 142.289 90.3191 141.914 90.6942C141.539 91.0693 141.03 91.28 140.5 91.28Z" fill="black"/>
    <path d="M98.2695 67.29C97.7391 67.29 97.2304 67.0793 96.8553 66.7042C96.4803 66.3291 96.2695 65.8204 96.2695 65.29V58C96.2695 57.4696 96.4803 56.9609 96.8553 56.5858C97.2304 56.2107 97.7391 56 98.2695 56C98.8 56 99.3087 56.2107 99.6837 56.5858C100.059 56.9609 100.27 57.4696 100.27 58V65.32C100.262 65.8452 100.047 66.3463 99.6732 66.7149C99.299 67.0835 98.7948 67.2901 98.2695 67.29Z" fill="black"/>
    <path d="M101.28 76.25H95.5195C94.9891 76.25 94.4804 76.0393 94.1053 75.6642C93.7303 75.2892 93.5195 74.7805 93.5195 74.25V68.16C93.5195 66.8658 94.0337 65.6245 94.9489 64.7094C95.864 63.7942 97.1053 63.28 98.3995 63.28C99.6938 63.28 100.935 63.7942 101.85 64.7094C102.765 65.6245 103.28 66.8658 103.28 68.16V74.25C103.28 74.7805 103.069 75.2892 102.694 75.6642C102.319 76.0393 101.81 76.25 101.28 76.25ZM97.5195 72.25H99.2795V68.16C99.2795 67.9266 99.1868 67.7028 99.0218 67.5378C98.8568 67.3727 98.6329 67.28 98.3995 67.28C98.1661 67.28 97.9423 67.3727 97.7773 67.5378C97.6123 67.7028 97.5195 67.9266 97.5195 68.16V72.25Z" fill="black"/>
    <path d="M69.0005 72.78C68.7249 72.7791 68.4526 72.7212 68.2005 72.61L38.7605 59.61C38.4056 59.4535 38.1038 59.1972 37.892 58.8723C37.6802 58.5474 37.5674 58.1679 37.5674 57.78C37.5674 57.3922 37.6802 57.0127 37.892 56.6877C38.1038 56.3628 38.4056 56.1065 38.7605 55.95L68.1605 43.06C68.4142 42.9485 68.6883 42.8909 68.9655 42.8909C69.2426 42.8909 69.5168 42.9485 69.7705 43.06L99.2105 56C99.5654 56.1565 99.8671 56.4128 100.079 56.7377C100.291 57.0627 100.404 57.4422 100.404 57.83C100.404 58.2179 100.291 58.5974 100.079 58.9223C99.8671 59.2472 99.5654 59.5035 99.2105 59.66L69.7705 72.66C69.5238 72.7487 69.2624 72.7894 69.0005 72.78ZM44.5305 57.78L69.0005 68.59L93.4305 57.83L69.0005 47.07L44.5305 57.78Z" fill="black"/>
    <path d="M69.0002 84.83C68.703 84.8313 68.4092 84.7664 68.1402 84.64L50.8802 76.42C50.5399 76.2579 50.2523 76.0029 50.0506 75.6844C49.8489 75.3659 49.7413 74.9969 49.7402 74.62V63.41C49.7402 62.8795 49.9509 62.3708 50.326 61.9958C50.7011 61.6207 51.2098 61.41 51.7402 61.41C52.2707 61.41 52.7794 61.6207 53.1544 61.9958C53.5295 62.3708 53.7402 62.8795 53.7402 63.41V73.35L69.0002 80.62L84.2302 73.35V63.54C84.2302 63.0095 84.4409 62.5008 84.816 62.1258C85.1911 61.7507 85.6998 61.54 86.2302 61.54C86.7607 61.54 87.2694 61.7507 87.6444 62.1258C88.0195 62.5008 88.2302 63.0095 88.2302 63.54V74.62C88.2292 74.9969 88.1216 75.3659 87.9199 75.6844C87.7182 76.0029 87.4306 76.2579 87.0902 76.42L69.8202 84.64C69.5635 84.7608 69.2839 84.8255 69.0002 84.83Z" fill="black"/>
    <path d="M69 84.83C68.4696 84.83 67.9609 84.6193 67.5858 84.2442C67.2107 83.8692 67 83.3604 67 82.83V70.83C67 70.2996 67.2107 69.7909 67.5858 69.4158C67.9609 69.0407 68.4696 68.83 69 68.83C69.5304 68.83 70.0391 69.0407 70.4142 69.4158C70.7893 69.7909 71 70.2996 71 70.83V82.83C71 83.3604 70.7893 83.8692 70.4142 84.2442C70.0391 84.6193 69.5304 84.83 69 84.83Z" fill="black"/>
    <path d="M158.05 128H2C1.46957 128 0.960859 127.789 0.585786 127.414C0.210714 127.039 0 126.53 0 126C0 125.47 0.210714 124.961 0.585786 124.586C0.960859 124.211 1.46957 124 2 124H158.1C158.63 124 159.139 124.211 159.514 124.586C159.889 124.961 160.1 125.47 160.1 126C160.1 126.53 159.889 127.039 159.514 127.414C159.139 127.789 158.63 128 158.1 128H158.05Z" fill="black"/>
    <path d="M6.58008 84.83C6.04965 84.83 5.54094 84.6193 5.16586 84.2442C4.79079 83.8691 4.58008 83.3604 4.58008 82.83V58C4.58008 57.4696 4.79079 56.9609 5.16586 56.5858C5.54094 56.2107 6.04965 56 6.58008 56C7.11051 56 7.61922 56.2107 7.99429 56.5858C8.36936 56.9609 8.58008 57.4696 8.58008 58V82.83C8.58008 83.3604 8.36936 83.8691 7.99429 84.2442C7.61922 84.6193 7.11051 84.83 6.58008 84.83Z" fill="black"/>
    <path d="M6.58008 53.55C6.04965 53.55 5.54094 53.3393 5.16586 52.9642C4.79079 52.5892 4.58008 52.0804 4.58008 51.55V44.89C4.58008 44.3596 4.79079 43.8509 5.16586 43.4758C5.54094 43.1007 6.04965 42.89 6.58008 42.89C7.11051 42.89 7.61922 43.1007 7.99429 43.4758C8.36936 43.8509 8.58008 44.3596 8.58008 44.89V51.55C8.58008 52.0804 8.36936 52.5892 7.99429 52.9642C7.61922 53.3393 7.11051 53.55 6.58008 53.55Z" fill="black"/>
  </g>
  <defs>
    <clipPath id="clip0">
      <rect width="160" height="160" fill="white"/>
    </clipPath>
  </defs>
</svg>
