<svg width="160" height="160" viewBox="0 0 160 160" fill="none"
  xmlns="http://www.w3.org/2000/svg">
  <path d="M106.8 125.19H45.4196C44.2146 125.19 43.0215 124.952 41.9088 124.49C40.7961 124.028 39.7856 123.35 38.9354 122.496C38.0852 121.642 37.4121 120.629 36.9546 119.514C36.4971 118.399 36.2644 117.205 36.2696 116V42.0001C36.2723 39.5742 37.2371 37.2484 38.9525 35.533C40.6679 33.8177 42.9937 32.8528 45.4196 32.8501H106.8C108.005 32.8462 109.199 33.0798 110.313 33.5376C111.428 33.9955 112.442 34.6685 113.296 35.5183C114.151 36.3681 114.829 37.3779 115.293 38.4901C115.757 39.6024 115.997 40.7951 116 42.0001V74.0001C116 74.5306 115.789 75.0393 115.414 75.4144C115.039 75.7894 114.53 76.0001 114 76.0001C113.469 76.0001 112.96 75.7894 112.585 75.4144C112.21 75.0393 112 74.5306 112 74.0001V42.0001C111.997 40.6334 111.452 39.3235 110.485 38.3579C109.517 37.3924 108.206 36.8501 106.84 36.8501H45.4196C44.0546 36.8528 42.7462 37.3962 41.7809 38.3615C40.8157 39.3267 40.2723 40.6351 40.2696 42.0001V116C40.2723 117.365 40.8157 118.674 41.7809 119.639C42.7462 120.604 44.0546 121.148 45.4196 121.15H106.8C107.48 121.155 108.154 121.026 108.784 120.77C109.414 120.514 109.987 120.135 110.471 119.657C110.954 119.178 111.338 118.608 111.6 117.981C111.863 117.353 111.998 116.68 112 116V86.6202C112 86.0897 112.21 85.581 112.585 85.2059C112.96 84.8309 113.469 84.6202 114 84.6202C114.53 84.6202 115.039 84.8309 115.414 85.2059C115.789 85.581 116 86.0897 116 86.6202V116C116.004 117.209 115.768 118.407 115.307 119.524C114.846 120.641 114.168 121.657 113.313 122.511C112.458 123.365 111.442 124.042 110.324 124.502C109.206 124.961 108.008 125.195 106.8 125.19Z" fill="black"/>
  <path d="M105.42 117.3H46.8C46.3024 117.304 45.8089 117.209 45.3481 117.022C44.8872 116.834 44.4681 116.557 44.1148 116.206C43.7615 115.856 43.4812 115.439 43.2898 114.98C43.0985 114.52 43 114.028 43 113.53V44.53C43 43.5292 43.3969 42.5693 44.1036 41.8607C44.8103 41.1521 45.7692 40.7526 46.77 40.75H105.39C106.392 40.7526 107.352 41.1517 108.06 41.8601C108.768 42.5684 109.167 43.5283 109.17 44.53V74C109.17 74.5304 108.959 75.0391 108.584 75.4142C108.209 75.7893 107.7 76 107.17 76C106.64 76 106.131 75.7893 105.756 75.4142C105.381 75.0391 105.17 74.5304 105.17 74V44.71H47V113.3H105.2V86.62C105.2 86.0896 105.411 85.5809 105.786 85.2058C106.161 84.8307 106.67 84.62 107.2 84.62C107.73 84.62 108.239 84.8307 108.614 85.2058C108.989 85.5809 109.2 86.0896 109.2 86.62V113.53C109.197 114.531 108.798 115.49 108.089 116.196C107.381 116.903 106.421 117.3 105.42 117.3Z" fill="black"/>
  <path d="M102.539 36.8202H49.6793C49.3904 36.8202 49.105 36.7576 48.8426 36.6368C48.5802 36.516 48.3471 36.3397 48.1593 36.1202C47.9709 35.901 47.8321 35.6436 47.7527 35.3656C47.6733 35.0877 47.6551 34.7958 47.6993 34.5102L50.7693 14.7302C50.8438 14.2551 51.087 13.8228 51.4543 13.5124C51.8216 13.202 52.2885 13.0344 52.7693 13.0402H99.4793C99.9602 13.0344 100.427 13.202 100.794 13.5124C101.162 13.8228 101.405 14.2551 101.479 14.7302L104.539 34.5102C104.584 34.7958 104.565 35.0877 104.486 35.3656C104.407 35.6436 104.268 35.901 104.079 36.1202C103.889 36.3423 103.653 36.5201 103.387 36.641C103.121 36.762 102.832 36.8231 102.539 36.8202ZM51.9993 32.8202H100.199L97.7693 17.0002H54.4593L51.9993 32.8202Z" fill="black"/>
  <path d="M99.48 145H52.74C52.2591 145.006 51.7923 144.838 51.425 144.528C51.0577 144.217 50.8145 143.785 50.74 143.31L47.7 123.5C47.6549 123.213 47.673 122.919 47.7531 122.639C47.8332 122.36 47.9733 122.101 48.1638 121.881C48.3542 121.661 48.5903 121.485 48.8556 121.366C49.1209 121.247 49.4091 121.187 49.7 121.19H102.56C102.851 121.187 103.139 121.247 103.404 121.366C103.67 121.485 103.906 121.661 104.096 121.881C104.287 122.101 104.427 122.36 104.507 122.639C104.587 122.919 104.605 123.213 104.56 123.5L101.5 143.28C101.432 143.764 101.188 144.206 100.816 144.523C100.444 144.84 99.9687 145.01 99.48 145ZM54.48 141H97.77L100.21 125.22H52L54.48 141Z" fill="black"/>
  <path d="M90.6993 26.9302H61.5293C60.9989 26.9302 60.4902 26.7195 60.1151 26.3444C59.74 25.9693 59.5293 25.4606 59.5293 24.9302C59.5293 24.3997 59.74 23.891 60.1151 23.516C60.4902 23.1409 60.9989 22.9302 61.5293 22.9302H90.6993C91.2297 22.9302 91.7384 23.1409 92.1135 23.516C92.4886 23.891 92.6993 24.3997 92.6993 24.9302C92.6993 25.4606 92.4886 25.9693 92.1135 26.3444C91.7384 26.7195 91.2297 26.9302 90.6993 26.9302Z" fill="black"/>
  <path d="M90.6993 135.08H61.5293C60.9989 135.08 60.4902 134.869 60.1151 134.494C59.74 134.119 59.5293 133.611 59.5293 133.08C59.5293 132.55 59.74 132.041 60.1151 131.666C60.4902 131.291 60.9989 131.08 61.5293 131.08H90.6993C91.2297 131.08 91.7384 131.291 92.1135 131.666C92.4886 132.041 92.6993 132.55 92.6993 133.08C92.6993 133.611 92.4886 134.119 92.1135 134.494C91.7384 134.869 91.2297 135.08 90.6993 135.08Z" fill="black"/>
  <path d="M55.9999 80.8602C55.4703 80.8579 54.9632 80.6458 54.5899 80.2702C52.371 77.8339 51.1755 74.6367 51.2515 71.3423C51.3274 68.0479 52.6691 64.9092 54.9979 62.5778C57.3268 60.2464 60.4639 58.9013 63.7583 58.8216C67.0526 58.742 70.2511 59.934 72.6899 62.1502L76.4799 65.9402L80.2698 62.1502C82.4215 60.0086 85.2634 58.7 88.2895 58.4575C91.3156 58.215 94.3296 59.0542 96.7949 60.8257C99.2602 62.5973 101.017 65.1862 101.752 68.1317C102.487 71.0771 102.153 74.1879 100.81 76.9102C100.694 77.1459 100.532 77.3564 100.335 77.5297C100.137 77.703 99.9072 77.8357 99.6583 77.9202C99.4095 78.0047 99.1464 78.0394 98.8841 78.0222C98.6219 78.0051 98.3656 77.9364 98.1299 77.8202C97.8941 77.704 97.6836 77.5424 97.5103 77.3449C97.337 77.1473 97.2043 76.9175 97.1198 76.6686C97.0353 76.4198 97.0006 76.1567 97.0178 75.8945C97.035 75.6322 97.1036 75.3759 97.2199 75.1402C98.1443 73.2688 98.3744 71.1299 97.8689 69.1048C97.3635 67.0796 96.1554 65.2997 94.46 64.0822C92.7646 62.8647 90.692 62.2886 88.6115 62.4568C86.531 62.6249 84.5778 63.5262 83.0999 65.0002L77.8899 70.2002C77.7041 70.3861 77.4835 70.5336 77.2407 70.6343C76.9979 70.7349 76.7377 70.7868 76.4749 70.7868C76.212 70.7868 75.9518 70.7349 75.709 70.6343C75.4662 70.5336 75.2456 70.3861 75.0599 70.2002L69.8599 65.0002C68.1845 63.4707 65.9842 62.6455 63.7162 62.6962C61.4482 62.7469 59.2869 63.6695 57.6815 65.2723C56.0761 66.8751 55.15 69.0349 55.0957 71.3028C55.0414 73.5707 55.863 75.7723 57.3899 77.4502C57.7624 77.8249 57.9714 78.3318 57.9714 78.8602C57.9714 79.3886 57.7624 79.8955 57.3899 80.2702C57.0214 80.6409 56.5225 80.8527 55.9999 80.8602Z" fill="black"/>
  <path d="M76.4792 101.36C76.216 101.362 75.9551 101.311 75.7114 101.212C75.4677 101.112 75.2461 100.965 75.0592 100.78L63.7492 89.4701C63.3739 89.0948 63.1631 88.5858 63.1631 88.0551C63.1631 87.5243 63.3739 87.0154 63.7492 86.6401C64.1245 86.2648 64.6335 86.054 65.1642 86.054C65.6949 86.054 66.2039 86.2648 66.5792 86.6401L76.4792 96.5401L88.3592 84.6501C88.545 84.4643 88.7656 84.3169 89.0084 84.2163C89.2512 84.1157 89.5114 84.064 89.7742 84.064C90.037 84.064 90.2972 84.1157 90.54 84.2163C90.7828 84.3169 91.0034 84.4643 91.1892 84.6501C91.375 84.8359 91.5224 85.0565 91.623 85.2993C91.7236 85.5421 91.7753 85.8023 91.7753 86.0651C91.7753 86.3279 91.7236 86.5881 91.623 86.8309C91.5224 87.0737 91.375 87.2943 91.1892 87.4801L77.8892 100.78C77.5142 101.152 77.0073 101.36 76.4792 101.36Z" fill="black"/>
  <path d="M123.06 93.7103C122.688 93.7036 122.326 93.5934 122.013 93.392C121.7 93.1906 121.45 92.9061 121.29 92.5703L116.42 82.2303H83.9L79.58 87.1403C79.3926 87.3536 79.1619 87.5246 78.9032 87.6418C78.6446 87.7591 78.364 87.8199 78.08 87.8203C77.7897 87.8139 77.5042 87.7445 77.2434 87.6167C76.9827 87.4889 76.7529 87.3058 76.57 87.0803L69.06 77.9003L64.21 84.4703C64.0248 84.7237 63.7826 84.93 63.5029 85.0724C63.2232 85.2149 62.9139 85.2895 62.6 85.2903H52C51.4696 85.2903 50.9609 85.0796 50.5858 84.7045C50.2107 84.3294 50 83.8207 50 83.2903C50 82.7598 50.2107 82.2511 50.5858 81.876C50.9609 81.501 51.4696 81.2903 52 81.2903H61.59L67.37 73.4503C67.5516 73.2051 67.7868 73.0048 68.0576 72.8646C68.3285 72.7243 68.6279 72.6479 68.9329 72.6412C69.2378 72.6344 69.5403 72.6975 69.8171 72.8256C70.0939 72.9537 70.3378 73.1434 70.53 73.3803L78.14 82.7203L81.5 78.9103C81.6874 78.6969 81.9181 78.5259 82.1768 78.4087C82.4354 78.2914 82.716 78.2306 83 78.2303H117.65C118.03 78.2303 118.402 78.3385 118.722 78.5422C119.043 78.7458 119.299 79.0365 119.46 79.3803L123.14 87.1903L130.06 73.7203C130.229 73.3942 130.484 73.1209 130.798 72.9304C131.112 72.7399 131.473 72.6395 131.84 72.6403C132.214 72.6451 132.578 72.7544 132.893 72.9559C133.208 73.1574 133.459 73.443 133.62 73.7803L135.37 77.4803L141.06 57.1403C141.182 56.7147 141.443 56.3418 141.8 56.0801C142.157 55.8184 142.591 55.6826 143.034 55.694C143.476 55.7055 143.903 55.8635 144.246 56.1433C144.589 56.4231 144.83 56.809 144.93 57.2403L149.93 79.3403H152.09C152.62 79.3403 153.129 79.551 153.504 79.9261C153.879 80.3011 154.09 80.8098 154.09 81.3403C154.09 81.8707 153.879 82.3794 153.504 82.7545C153.129 83.1295 152.62 83.3403 152.09 83.3403H148.33C147.876 83.34 147.436 83.1855 147.082 82.902C146.727 82.6185 146.48 82.2229 146.38 81.7803L142.79 65.8403L137.79 83.7203C137.679 84.1125 137.451 84.4615 137.137 84.7207C136.822 84.9798 136.436 85.1367 136.03 85.1703C135.62 85.2094 135.208 85.1209 134.85 84.9169C134.492 84.7128 134.205 84.4032 134.03 84.0303L131.72 79.1603L124.79 92.6303C124.625 92.9489 124.377 93.2173 124.073 93.4073C123.769 93.5974 123.419 93.702 123.06 93.7103Z" fill="black"/>
  <path d="M114 68.24C113.47 68.24 112.961 68.0293 112.586 67.6542C112.211 67.2791 112 66.7704 112 66.24C112 65.7096 112.211 65.2009 112.586 64.8258C112.961 64.4507 113.47 64.24 114 64.24C115.428 64.2373 116.796 63.6683 117.805 62.6578C118.813 61.6472 119.38 60.2778 119.38 58.85V52.43C119.387 51.7193 119.252 51.0143 118.985 50.3558C118.717 49.6973 118.322 49.0983 117.822 48.5934C117.322 48.0885 116.726 47.6877 116.07 47.4143C115.414 47.1408 114.711 47 114 47C113.47 47 112.961 46.7893 112.586 46.4142C112.211 46.0391 112 45.5304 112 45C112 44.4696 112.211 43.9609 112.586 43.5858C112.961 43.2107 113.47 43 114 43C116.488 43.0053 118.872 43.9966 120.63 45.7567C122.389 47.5168 123.377 49.9022 123.38 52.39V58.81C123.384 60.0453 123.144 61.2692 122.675 62.4118C122.206 63.5544 121.516 64.5933 120.644 65.4691C119.773 66.3449 118.738 67.0404 117.598 67.5159C116.458 67.9913 115.235 68.2374 114 68.24Z" fill="black"/>
  <path d="M16.0596 128.91C15.5291 128.91 15.0204 128.7 14.6454 128.325C14.2703 127.95 14.0596 127.441 14.0596 126.91V117.38C14.0596 116.85 14.2703 116.341 14.6454 115.966C15.0204 115.591 15.5291 115.38 16.0596 115.38C16.59 115.38 17.0987 115.591 17.4738 115.966C17.8489 116.341 18.0596 116.85 18.0596 117.38V126.91C18.0596 127.441 17.8489 127.95 17.4738 128.325C17.0987 128.7 16.59 128.91 16.0596 128.91Z" fill="black"/>
  <path d="M16.0596 147C15.5291 147 15.0204 146.79 14.6454 146.414C14.2703 146.039 14.0596 145.531 14.0596 145V135.47C14.0596 134.94 14.2703 134.431 14.6454 134.056C15.0204 133.681 15.5291 133.47 16.0596 133.47C16.59 133.47 17.0987 133.681 17.4738 134.056C17.8489 134.431 18.0596 134.94 18.0596 135.47V145C18.0596 145.531 17.8489 146.039 17.4738 146.414C17.0987 146.79 16.59 147 16.0596 147Z" fill="black"/>
  <path d="M29.8493 133.17H20.3193C19.7889 133.17 19.2802 132.96 18.9051 132.585C18.5301 132.21 18.3193 131.701 18.3193 131.17C18.3193 130.64 18.5301 130.131 18.9051 129.756C19.2802 129.381 19.7889 129.17 20.3193 129.17H29.8493C30.3798 129.17 30.8885 129.381 31.2635 129.756C31.6386 130.131 31.8493 130.64 31.8493 131.17C31.8493 131.701 31.6386 132.21 31.2635 132.585C30.8885 132.96 30.3798 133.17 29.8493 133.17Z" fill="black"/>
  <path d="M11.7995 133.17H2.26953C1.7391 133.17 1.23039 132.96 0.855318 132.585C0.480245 132.21 0.269531 131.701 0.269531 131.17C0.269531 130.64 0.480245 130.131 0.855318 129.756C1.23039 129.381 1.7391 129.17 2.26953 129.17H11.7995C12.33 129.17 12.8387 129.381 13.2137 129.756C13.5888 130.131 13.7995 130.64 13.7995 131.17C13.7995 131.701 13.5888 132.21 13.2137 132.585C12.8387 132.96 12.33 133.17 11.7995 133.17Z" fill="black"/>
  <path d="M27.1699 118C26.6395 118 26.1308 117.789 25.7557 117.414C25.3806 117.039 25.1699 116.531 25.1699 116V80.4302C25.1699 79.8997 25.3806 79.391 25.7557 79.016C26.1308 78.6409 26.6395 78.4302 27.1699 78.4302C27.7004 78.4302 28.2091 78.6409 28.5841 79.016C28.9592 79.391 29.1699 79.8997 29.1699 80.4302V116C29.1699 116.531 28.9592 117.039 28.5841 117.414C28.2091 117.789 27.7004 118 27.1699 118Z" fill="black"/>
  <path d="M27.1699 75.81C26.6395 75.81 26.1308 75.5993 25.7557 75.2242C25.3806 74.8491 25.1699 74.3404 25.1699 73.81V62.5C25.1699 61.9696 25.3806 61.4609 25.7557 61.0858C26.1308 60.7107 26.6395 60.5 27.1699 60.5C27.7004 60.5 28.2091 60.7107 28.5841 61.0858C28.9592 61.4609 29.1699 61.9696 29.1699 62.5V73.81C29.1699 74.3404 28.9592 74.8491 28.5841 75.2242C28.2091 75.5993 27.7004 75.81 27.1699 75.81Z" fill="black"/>
  <path d="M157.73 83.3804H157.25C156.72 83.3804 156.211 83.1697 155.836 82.7946C155.461 82.4195 155.25 81.9108 155.25 81.3804C155.25 80.8499 155.461 80.3412 155.836 79.9662C156.211 79.5911 156.72 79.3804 157.25 79.3804H157.73C158.26 79.3804 158.769 79.5911 159.144 79.9662C159.519 80.3412 159.73 80.8499 159.73 81.3804C159.73 81.9108 159.519 82.4195 159.144 82.7946C158.769 83.1697 158.26 83.3804 157.73 83.3804Z" fill="black"/>
</svg>
