<svg width="160" height="160" viewBox="0 0 160 160" fill="none"
  xmlns="http://www.w3.org/2000/svg">
  <path d="M55.05 84.3998C53.8559 84.3979 52.6846 84.0731 51.66 83.4598C30.36 70.9998 25.56 67.8298 24.32 66.7198C20.5817 63.2515 18.3191 58.4792 18 53.3898C17.9816 53.1271 18.0152 52.8634 18.0987 52.6137C18.1822 52.3641 18.3141 52.1333 18.4868 51.9345C18.8356 51.5332 19.3296 51.2869 19.86 51.2498C20.3904 51.2126 20.9139 51.3877 21.3152 51.7366C21.7166 52.0854 21.9629 52.5793 22 53.1098C22.2391 57.1783 24.0285 61.0004 27 63.7898L27.14 63.9398C28.86 65.2998 44.25 74.4698 53.69 79.9998C53.9924 80.1995 54.3322 80.3358 54.6888 80.4005C55.0454 80.4651 55.4115 80.4568 55.7648 80.376C56.118 80.2951 56.4513 80.1435 56.7443 79.9302C57.0373 79.7169 57.284 79.4463 57.4695 79.135C57.6549 78.8236 57.7753 78.4778 57.8233 78.1186C57.8714 77.7594 57.846 77.3941 57.7489 77.045C57.6517 76.6958 57.4847 76.37 57.258 76.0872C57.0314 75.8044 56.7497 75.5706 56.43 75.3998C56.175 75.2845 55.947 75.117 55.7608 74.9081C55.5746 74.6993 55.4343 74.4536 55.3489 74.1871C55.2636 73.9206 55.2351 73.6391 55.2654 73.3609C55.2957 73.0827 55.384 72.8139 55.5247 72.572C55.6653 72.3301 55.8552 72.1204 56.082 71.9564C56.3088 71.7925 56.5675 71.6779 56.8413 71.6202C57.1151 71.5625 57.398 71.5629 57.6717 71.6214C57.9453 71.6799 58.2037 71.7952 58.43 71.9598L67.43 77.2598C68.0401 77.5973 68.7576 77.6839 69.4304 77.501C70.1032 77.3181 70.6783 76.8803 71.0335 76.2804C71.3888 75.6805 71.4963 74.9658 71.3332 74.2879C71.1701 73.61 70.7493 73.0224 70.16 72.6498C69.905 72.5345 69.677 72.367 69.4908 72.1581C69.3046 71.9493 69.1643 71.7036 69.0789 71.4371C68.9936 71.1706 68.9652 70.8891 68.9954 70.6109C69.0257 70.3327 69.114 70.0639 69.2547 69.822C69.3953 69.5801 69.5852 69.3704 69.812 69.2064C70.0388 69.0425 70.2975 68.9279 70.5713 68.8702C70.8451 68.8125 71.128 68.8129 71.4017 68.8714C71.6753 68.9299 71.9337 69.0452 72.16 69.2098L74.73 70.7298C75.3414 71.0915 76.0714 71.1957 76.7596 71.0194C77.4477 70.8431 78.0378 70.4009 78.4 69.7898C78.754 69.1865 78.858 68.4687 78.69 67.7898C78.6058 67.4478 78.4534 67.1263 78.2421 66.8445C78.0307 66.5627 77.7647 66.3264 77.46 66.1498L74.9 64.6298C74.4855 64.3441 74.194 63.9126 74.0837 63.4214C73.9734 62.9302 74.0523 62.4155 74.3048 61.98C74.5573 61.5445 74.9647 61.2202 75.4458 61.0719C75.9268 60.9235 76.4461 60.9621 76.9 61.1798C77.203 61.3714 77.5414 61.5003 77.8952 61.5588C78.2489 61.6173 78.6108 61.6042 78.9594 61.5204C79.308 61.4365 79.6362 61.2835 79.9246 61.0705C80.213 60.8575 80.4558 60.5888 80.6385 60.2803C80.8212 59.9718 80.9401 59.6298 80.9882 59.2745C81.0364 58.9192 81.0127 58.5578 80.9187 58.2118C80.8246 57.8659 80.6621 57.5423 80.4408 57.2602C80.2194 56.9781 79.9437 56.7434 79.63 56.5698L51.83 41.1498C51.4831 40.9539 51.2026 40.6589 51.0244 40.3026C50.8462 39.9462 50.7785 39.5448 50.83 39.1498C50.8915 38.7445 51.0761 38.3679 51.3587 38.071C51.6413 37.7741 52.0083 37.5712 52.41 37.4898L66.23 34.6998C66.8409 34.5773 67.4213 34.3345 67.9375 33.9857C68.4537 33.6368 68.8954 33.1888 69.2369 32.6678C69.5784 32.1467 69.8129 31.5629 69.9267 30.9504C70.0406 30.3378 70.0315 29.7088 69.9 29.0998C69.8859 29.0165 69.8546 28.937 69.8081 28.8664C69.7616 28.7958 69.701 28.7357 69.63 28.6898C69.5587 28.6422 69.4785 28.6098 69.3943 28.5943C69.31 28.5788 69.2235 28.5807 69.14 28.5998L38.82 34.7198C38.5673 34.7763 38.3245 34.8707 38.1 34.9998C37.8484 35.1306 37.5728 35.2088 37.29 35.2298C35.2461 35.3587 33.2446 35.8709 31.39 36.7398C30.9086 36.9639 30.358 36.9876 29.8591 36.8057C29.3603 36.6238 28.9541 36.2511 28.73 35.7698C28.5059 35.2884 28.4822 34.7377 28.6641 34.2389C28.846 33.74 29.2186 33.3339 29.7 33.1098C31.8809 32.0937 34.223 31.4676 36.62 31.2598C37.062 31.057 37.5247 30.9028 38 30.7998L68.33 24.6698C69.5389 24.4307 70.7933 24.6792 71.8198 25.361C72.8462 26.0429 73.5616 27.1028 73.81 28.3098C74.2641 30.5731 73.8022 32.924 72.5256 34.8473C71.2491 36.7706 69.262 38.1092 67 38.5698L58.52 40.2898L81.68 53.0798C82.4433 53.5221 83.1113 54.1113 83.6457 54.8133C84.18 55.5153 84.57 56.3161 84.7931 57.1696C85.0163 58.0231 85.0681 58.9124 84.9457 59.786C84.8233 60.6597 84.5291 61.5004 84.08 62.2598C83.4899 63.2554 82.6529 64.082 81.65 64.6598C82.1035 65.3032 82.4419 66.0205 82.65 66.7798C83.0868 68.4957 82.8245 70.3148 81.9207 71.8374C81.0169 73.36 79.5455 74.4615 77.83 74.8998C77.0735 75.0968 76.2885 75.1611 75.51 75.0898C75.4985 76.2452 75.181 77.3769 74.59 78.3698C73.6827 79.8914 72.2104 80.9924 70.4943 81.4326C68.7783 81.8729 66.9578 81.6166 65.43 80.7198L61.73 78.5198C61.6165 79.4372 61.317 80.3219 60.85 81.1198C60.4045 81.8749 59.8136 82.5342 59.1115 83.0595C58.4095 83.5847 57.6102 83.9655 56.76 84.1798C56.2027 84.3307 55.6274 84.4048 55.05 84.3998Z" fill="black"/>
  <path d="M61.3095 77.8197C60.9573 77.8161 60.6124 77.7195 60.3095 77.5397L45.4195 68.7297C45.1645 68.6145 44.9365 68.447 44.7503 68.2381C44.564 68.0292 44.4237 67.7836 44.3384 67.5171C44.2531 67.2505 44.2246 66.9691 44.2549 66.6909C44.2852 66.4127 44.3735 66.1439 44.5142 65.902C44.6548 65.6601 44.8447 65.4503 45.0715 65.2864C45.2983 65.1224 45.5569 65.0079 45.8308 64.9502C46.1046 64.8925 46.3875 64.8929 46.6612 64.9514C46.9348 65.0099 47.1932 65.1251 47.4195 65.2897L62.3295 74.0997C62.7049 74.3224 62.9971 74.6618 63.1616 75.0662C63.3261 75.4705 63.3538 75.9175 63.2405 76.339C63.1272 76.7606 62.8791 77.1335 62.534 77.4008C62.189 77.6682 61.766 77.8153 61.3295 77.8197H61.3095Z" fill="black"/>
  <path d="M71.1998 72.9002C70.8477 72.8966 70.5027 72.8 70.1998 72.6203L53.5298 62.7502C53.2748 62.635 53.0468 62.4675 52.8606 62.2586C52.6744 62.0497 52.5341 61.8041 52.4488 61.5376C52.3634 61.271 52.335 60.9896 52.3653 60.7114C52.3955 60.4332 52.4838 60.1644 52.6245 59.9225C52.7652 59.6806 52.955 59.4708 53.1818 59.3069C53.4086 59.1429 53.6673 59.0284 53.9411 58.9707C54.2149 58.913 54.4978 58.9134 54.7715 58.9719C55.0452 59.0304 55.3035 59.1457 55.5298 59.3102L72.1898 69.1802C72.5653 69.403 72.8575 69.7424 73.022 70.1467C73.1865 70.551 73.2142 70.998 73.1009 71.4196C72.9875 71.8411 72.7394 72.214 72.3944 72.4813C72.0494 72.7487 71.6263 72.8958 71.1898 72.9002H71.1998Z" fill="black"/>
  <path d="M76.5398 65.1603C76.1877 65.1566 75.8427 65.06 75.5398 64.8802L58.7798 55.0002C58.5248 54.885 58.2968 54.7175 58.1106 54.5086C57.9244 54.2997 57.7841 54.0541 57.6988 53.7876C57.6134 53.521 57.585 53.2396 57.6153 52.9614C57.6455 52.6832 57.7338 52.4144 57.8745 52.1725C58.0152 51.9306 58.205 51.7208 58.4318 51.5569C58.6586 51.3929 58.9173 51.2784 59.1911 51.2207C59.4649 51.163 59.7478 51.1634 60.0215 51.2219C60.2952 51.2804 60.5535 51.3957 60.7798 51.5602L77.5298 61.4702C77.9053 61.693 78.1975 62.0324 78.362 62.4367C78.5265 62.841 78.5542 63.288 78.4409 63.7096C78.3275 64.1311 78.0794 64.504 77.7344 64.7713C77.3893 65.0387 76.9663 65.1858 76.5298 65.1903L76.5398 65.1603Z" fill="black"/>
  <path d="M15.9998 62.1602C15.6491 62.1559 15.3051 62.063 14.9998 61.8902L1.06985 53.8902C0.611381 53.6246 0.277018 53.188 0.140154 52.6762C0.00328932 52.1643 0.0751085 51.6191 0.339846 51.1602L18.6098 19.4302C18.8744 18.9724 19.3094 18.638 19.8198 18.5002C20.0739 18.4319 20.3389 18.4144 20.5998 18.4487C20.8606 18.4831 21.1121 18.5685 21.3398 18.7002L35.2698 26.7002C35.5036 26.8316 35.7085 27.0087 35.8724 27.2209C36.0363 27.4331 36.1558 27.6761 36.2239 27.9355C36.2921 28.1948 36.3073 28.4652 36.2688 28.7306C36.2303 28.9959 36.1388 29.2509 35.9998 29.4802L17.7098 61.1602C17.4453 61.6179 17.0102 61.9523 16.4998 62.0902C16.3363 62.1322 16.1686 62.1557 15.9998 62.1602ZM4.77985 51.3802L15.2498 57.3802L31.5398 29.2102L21.0698 23.2102L4.77985 51.3802Z" fill="black"/>
  <path d="M50.1099 90.3897C49.7577 90.3861 49.4128 90.2895 49.1099 90.1097L46.5999 88.6497C46.1646 88.373 45.853 87.9388 45.7303 87.4377C45.6076 86.9367 45.6832 86.4076 45.9413 85.961C46.1995 85.5144 46.6202 85.1848 47.1156 85.0411C47.611 84.8974 48.1428 84.9506 48.5999 85.1897L51.1099 86.6598C51.4902 86.8803 51.7872 87.2201 51.955 87.6264C52.1228 88.0327 52.152 88.483 52.0381 88.9077C51.9243 89.3323 51.6737 89.7076 51.3252 89.9755C50.9766 90.2434 50.5495 90.389 50.1099 90.3897Z" fill="black"/>
  <path d="M43.5595 86.5499C43.2079 86.5522 42.8622 86.4589 42.5595 86.2799L30.1995 79.0599C29.7642 78.7832 29.4526 78.3489 29.3299 77.8479C29.2072 77.3469 29.2828 76.8178 29.5409 76.3712C29.7991 75.9246 30.2198 75.595 30.7152 75.4513C31.2106 75.3075 31.7424 75.3608 32.1995 75.5999L44.5595 82.8299C44.9349 83.0526 45.2272 83.392 45.3917 83.7963C45.5561 84.2007 45.5838 84.6477 45.4705 85.0692C45.3572 85.4907 45.1091 85.8636 44.7641 86.131C44.419 86.3983 43.996 86.5455 43.5595 86.5499Z" fill="black"/>
  <path d="M122.16 127.451C120.188 127.452 118.227 127.163 116.34 126.591C114.74 126.101 109.53 123.591 87.8603 112.091C86.8811 111.557 86.0508 110.787 85.445 109.85C84.8392 108.914 84.4771 107.841 84.3917 106.729C84.3062 105.617 84.5001 104.502 84.9557 103.484C85.4113 102.466 86.1141 101.578 87.0003 100.901L83.2303 98.8406C82.2024 98.2829 81.3392 97.4648 80.7273 96.4683C80.1154 95.4718 79.7762 94.3319 79.7438 93.1629C79.7114 91.9939 79.9868 90.837 80.5426 89.8081C81.0984 88.7792 81.9149 87.9145 82.9103 87.3007C82.4541 86.6697 82.1154 85.9617 81.9103 85.2106C81.6618 84.3695 81.5817 83.4877 81.6745 82.6156C81.7673 81.7435 82.0311 80.8982 82.451 80.1282C82.8708 79.3582 83.4384 78.6785 84.1212 78.1282C84.804 77.5778 85.5887 77.1674 86.4303 76.9206C87.1796 76.7018 87.9611 76.6139 88.7403 76.6607C88.7162 75.4902 89.0003 74.3339 89.5639 73.3078C90.1275 72.2816 90.9508 71.4216 91.9515 70.8139C92.9522 70.2062 94.095 69.8722 95.2654 69.8453C96.4358 69.8184 97.5928 70.0996 98.6203 70.6607L121.05 83.0006L118.58 76.0006C118.199 74.9213 118.034 73.7773 118.096 72.6342C118.158 71.4912 118.444 70.3715 118.939 69.3394C119.435 68.3073 120.128 67.3831 120.981 66.6197C121.834 65.8562 122.83 65.2687 123.91 64.8906C125.073 64.4847 126.35 64.5568 127.46 65.0911C128.57 65.6254 129.422 66.5783 129.83 67.7406L140.08 96.9306C140.243 97.3965 140.35 97.8798 140.4 98.3707C141.481 100.565 142.159 102.936 142.4 105.371C142.425 105.633 142.398 105.898 142.321 106.15C142.243 106.403 142.117 106.637 141.949 106.841C141.781 107.044 141.574 107.212 141.341 107.336C141.108 107.459 140.853 107.536 140.59 107.561C140.328 107.586 140.063 107.559 139.81 107.481C139.558 107.404 139.324 107.277 139.12 107.109C138.917 106.941 138.749 106.735 138.625 106.502C138.502 106.268 138.425 106.013 138.4 105.751C138.204 103.686 137.617 101.677 136.67 99.8307C136.543 99.5748 136.468 99.296 136.45 99.0107C136.449 98.7527 136.408 98.4965 136.33 98.2506L126.06 69.0006C126.001 68.8402 125.883 68.7081 125.73 68.6306C125.653 68.5985 125.569 68.5819 125.485 68.5819C125.401 68.5819 125.318 68.5985 125.24 68.6306C124.656 68.8338 124.117 69.1504 123.655 69.5622C123.194 69.9741 122.818 70.473 122.549 71.0305C122.281 71.5879 122.125 72.1929 122.091 72.8107C122.057 73.4285 122.145 74.047 122.35 74.6306L127.23 88.5507C127.354 88.8858 127.387 89.248 127.323 89.5998C127.26 89.9515 127.104 90.2799 126.87 90.5507C126.643 90.8172 126.35 91.0193 126.02 91.1369C125.69 91.2545 125.335 91.2834 124.99 91.2206C124.604 91.1532 124.244 90.9829 123.946 90.7277C123.649 90.4725 123.426 90.1419 123.3 89.7706C123.224 89.3994 123.068 89.049 122.844 88.7435C122.619 88.438 122.332 88.1846 122 88.0006L96.6403 74.1907C96.0272 73.8614 95.3103 73.7825 94.6403 73.9706C94.1327 74.1205 93.6808 74.4173 93.3417 74.8237C93.0025 75.23 92.7913 75.7277 92.7346 76.2539C92.6779 76.7801 92.7783 77.3114 93.0231 77.7806C93.268 78.2499 93.6462 78.6361 94.1103 78.8906C94.3414 79.0167 94.5454 79.1871 94.7107 79.392C94.876 79.5969 94.9993 79.8324 95.0736 80.085C95.1479 80.3375 95.1717 80.6023 95.1437 80.8641C95.1157 81.1258 95.0364 81.3795 94.9103 81.6106C94.7842 81.8418 94.6139 82.0458 94.4089 82.2111C94.204 82.3764 93.9685 82.4997 93.716 82.574C93.4634 82.6483 93.1987 82.6721 92.9369 82.6441C92.6751 82.616 92.4214 82.5367 92.1903 82.4107L89.5303 81.0006C89.065 80.7481 88.5353 80.639 88.008 80.6872C87.4808 80.7354 86.9796 80.9386 86.5678 81.2713C86.1559 81.604 85.8519 82.0512 85.6939 82.5565C85.536 83.0618 85.5312 83.6026 85.6803 84.1106C85.7859 84.4464 85.957 84.758 86.1835 85.0275C86.41 85.2969 86.6876 85.5189 87.0003 85.6806L89.6203 87.1106C90.0857 87.3653 90.431 87.7943 90.5801 88.3035C90.7292 88.8127 90.6699 89.3602 90.4153 89.8256C90.1607 90.2911 89.7316 90.6364 89.2224 90.7854C88.7133 90.9345 88.1657 90.8753 87.7003 90.6207C87.0757 90.2798 86.3413 90.2011 85.6587 90.4018C84.976 90.6024 84.4011 91.0661 84.0603 91.6907C83.7195 92.3152 83.6408 93.0496 83.8414 93.7323C84.0421 94.4149 84.5057 94.9898 85.1303 95.3307L94.2803 100.331C94.5231 100.449 94.7394 100.615 94.9162 100.82C95.0929 101.024 95.2264 101.262 95.3087 101.519C95.3909 101.777 95.4202 102.048 95.3947 102.317C95.3692 102.586 95.2895 102.847 95.1603 103.084C95.0312 103.322 94.8554 103.53 94.6434 103.698C94.4314 103.865 94.1877 103.988 93.9269 104.059C93.6662 104.129 93.3938 104.146 93.1263 104.109C92.8588 104.071 92.6016 103.98 92.3703 103.841C91.7572 103.511 91.0403 103.433 90.3703 103.621C90.0309 103.718 89.7144 103.882 89.4396 104.104C89.1648 104.325 88.9372 104.6 88.7703 104.911C88.6012 105.22 88.4947 105.559 88.4569 105.91C88.4192 106.26 88.4509 106.614 88.5503 106.953C88.6497 107.291 88.8148 107.606 89.0361 107.88C89.2575 108.154 89.5308 108.382 89.8403 108.551C99.4703 113.671 115.3 121.981 117.35 122.721L117.56 122.771C121.54 123.992 125.837 123.633 129.56 121.771C129.795 121.653 130.051 121.583 130.313 121.564C130.576 121.546 130.839 121.579 131.088 121.662C131.337 121.745 131.568 121.877 131.767 122.049C131.965 122.221 132.128 122.431 132.245 122.666C132.363 122.901 132.433 123.157 132.452 123.419C132.47 123.681 132.437 123.944 132.354 124.194C132.271 124.443 132.139 124.673 131.967 124.872C131.795 125.07 131.585 125.233 131.35 125.351C128.494 126.762 125.346 127.481 122.16 127.451Z" fill="black"/>
  <path d="M104.66 110.12C104.311 110.129 103.966 110.046 103.66 109.88L88.5296 101.6C88.2868 101.482 88.0705 101.316 87.8937 101.111C87.717 100.907 87.5834 100.669 87.5012 100.412C87.4189 100.154 87.3897 99.883 87.4152 99.614C87.4407 99.3451 87.5204 99.0841 87.6495 98.8468C87.7786 98.6095 87.9545 98.4008 88.1665 98.2334C88.3785 98.0659 88.6222 97.9431 88.8829 97.8724C89.1436 97.8017 89.416 97.7846 89.6835 97.8221C89.9511 97.8595 90.2083 97.9508 90.4396 98.0903L105.62 106.37C106.01 106.586 106.317 106.927 106.492 107.337C106.667 107.748 106.699 108.205 106.584 108.636C106.469 109.067 106.213 109.447 105.857 109.716C105.501 109.985 105.066 110.128 104.62 110.12H104.66Z" fill="black"/>
  <path d="M105.65 100.101C105.3 100.106 104.956 100.02 104.65 99.8506L87.6498 90.5806C87.1843 90.326 86.8391 89.8969 86.69 89.3878C86.5409 88.8786 86.6002 88.3311 86.8548 87.8656C87.1094 87.4001 87.5385 87.0549 88.0476 86.9058C88.5568 86.7567 89.1043 86.816 89.5698 87.0706L106.57 96.3406C106.966 96.5539 107.278 96.8944 107.457 97.3071C107.635 97.7199 107.669 98.1807 107.554 98.6153C107.438 99.0499 107.18 99.4328 106.82 99.7023C106.46 99.9718 106.019 100.112 105.57 100.101H105.65Z" fill="black"/>
  <path d="M109.649 91.5998C109.3 91.6122 108.955 91.5292 108.649 91.3598L91.6194 81.9998C91.3766 81.8813 91.1603 81.715 90.9835 81.5107C90.8068 81.3064 90.6733 81.0683 90.591 80.811C90.5088 80.5537 90.4795 80.2824 90.505 80.0134C90.5305 79.7445 90.6102 79.4835 90.7393 79.2462C90.8685 79.0089 91.0443 78.8002 91.2563 78.6328C91.4683 78.4653 91.712 78.3425 91.9728 78.2718C92.2335 78.2011 92.5058 78.184 92.7734 78.2215C93.0409 78.2589 93.2981 78.3502 93.5294 78.4898L110.609 87.8098C111 88.0257 111.307 88.366 111.482 88.7765C111.657 89.187 111.689 89.6442 111.574 90.0753C111.459 90.5065 111.203 90.8868 110.847 91.1558C110.491 91.4247 110.056 91.567 109.609 91.5598L109.649 91.5998Z" fill="black"/>
  <path d="M125.73 108.7C125.253 108.7 124.792 108.53 124.43 108.22C123.019 107.125 121.852 105.747 121.005 104.175C120.158 102.603 119.648 100.871 119.51 99.0901C119.15 92.9501 123.69 88.0001 123.88 87.7901C124.24 87.4002 124.741 87.1696 125.272 87.149C125.803 87.1283 126.32 87.3194 126.71 87.6801C127.099 88.0408 127.33 88.5416 127.351 89.0723C127.371 89.603 127.18 90.1202 126.82 90.5101C126.76 90.5701 123.24 94.5101 123.5 98.8801C123.621 100.117 123.997 101.315 124.605 102.4C125.213 103.484 126.038 104.431 127.03 105.18C127.34 105.446 127.562 105.8 127.665 106.196C127.768 106.592 127.748 107.009 127.606 107.393C127.464 107.777 127.208 108.107 126.873 108.341C126.537 108.575 126.138 108.7 125.73 108.7Z" fill="black"/>
  <path d="M139.66 141.57C139.309 141.569 138.964 141.476 138.66 141.3L124.73 133.3C124.502 133.168 124.303 132.992 124.143 132.783C123.984 132.573 123.867 132.334 123.8 132.08C123.732 131.826 123.714 131.561 123.749 131.3C123.783 131.039 123.868 130.788 124 130.56L142.29 98.8898C142.421 98.662 142.595 98.4621 142.803 98.3016C143.011 98.1411 143.248 98.0231 143.502 97.9544C143.755 97.8857 144.02 97.8676 144.28 97.9011C144.541 97.9347 144.792 98.0192 145.02 98.1498L158.95 106.15C159.408 106.415 159.743 106.852 159.88 107.364C160.017 107.876 159.945 108.421 159.68 108.88L141.39 140.56C141.216 140.865 140.964 141.12 140.661 141.297C140.357 141.474 140.012 141.568 139.66 141.57ZM128.46 130.79L138.93 136.79L155.22 108.58L144.75 102.58L128.46 130.79Z" fill="black"/>
  <path d="M141.56 86.0002C141.144 86.0007 140.739 85.8719 140.401 85.6318C140.062 85.3917 139.807 85.0521 139.67 84.6602L135 71.1902C134.913 70.942 134.876 70.6792 134.891 70.4167C134.906 70.1543 134.972 69.8973 135.087 69.6605C135.201 69.4237 135.36 69.2117 135.557 69.0367C135.753 68.8616 135.981 68.7269 136.23 68.6402C136.478 68.5536 136.741 68.5166 137.003 68.5315C137.266 68.5464 137.523 68.6129 137.759 68.7271C137.996 68.8413 138.208 69.0011 138.383 69.1972C138.558 69.3934 138.693 69.622 138.78 69.8702L143.49 83.3802C143.577 83.6284 143.614 83.8913 143.599 84.1539C143.584 84.4164 143.518 84.6735 143.403 84.9103C143.289 85.1472 143.129 85.3592 142.933 85.5342C142.737 85.7092 142.508 85.8438 142.26 85.9302C142.032 85.9926 141.795 86.0162 141.56 86.0002Z" fill="black"/>
  <path d="M115.479 47.1C114.949 47.1 114.44 46.8893 114.065 46.5142C113.69 46.1391 113.479 45.6304 113.479 45.1V38C113.479 37.4696 113.69 36.9609 114.065 36.5858C114.44 36.2107 114.949 36 115.479 36C116.01 36 116.519 36.2107 116.894 36.5858C117.269 36.9609 117.479 37.4696 117.479 38V45.1C117.479 45.6304 117.269 46.1391 116.894 46.5142C116.519 46.8893 116.01 47.1 115.479 47.1Z" fill="black"/>
  <path d="M115.479 60.83C114.949 60.83 114.44 60.6193 114.065 60.2442C113.69 59.8691 113.479 59.3604 113.479 58.83V51.75C113.479 51.2196 113.69 50.7109 114.065 50.3358C114.44 49.9607 114.949 49.75 115.479 49.75C116.01 49.75 116.519 49.9607 116.894 50.3358C117.269 50.7109 117.479 51.2196 117.479 51.75V58.83C117.479 59.3604 117.269 59.8691 116.894 60.2442C116.519 60.6193 116.01 60.83 115.479 60.83Z" fill="black"/>
  <path d="M125.88 50.4199H118.81C118.279 50.4199 117.77 50.2092 117.395 49.8341C117.02 49.4591 116.81 48.9504 116.81 48.4199C116.81 47.8895 117.02 47.3808 117.395 47.0057C117.77 46.6306 118.279 46.4199 118.81 46.4199H125.88C126.41 46.4199 126.919 46.6306 127.294 47.0057C127.669 47.3808 127.88 47.8895 127.88 48.4199C127.88 48.9504 127.669 49.4591 127.294 49.8341C126.919 50.2092 126.41 50.4199 125.88 50.4199Z" fill="black"/>
  <path d="M112.15 50.4199H105.08C104.55 50.4199 104.041 50.2092 103.666 49.8341C103.291 49.4591 103.08 48.9504 103.08 48.4199C103.08 47.8895 103.291 47.3808 103.666 47.0057C104.041 46.6306 104.55 46.4199 105.08 46.4199H112.15C112.681 46.4199 113.189 46.6306 113.564 47.0057C113.939 47.3808 114.15 47.8895 114.15 48.4199C114.15 48.9504 113.939 49.4591 113.564 49.8341C113.189 50.2092 112.681 50.4199 112.15 50.4199Z" fill="black"/>
</svg>
