<svg width="160" height="160" viewBox="0 0 160 160" fill="none"
  xmlns="http://www.w3.org/2000/svg">
  <path d="M92.1004 80.79H66.6904C66.16 80.79 65.6513 80.5793 65.2762 80.2043C64.9011 79.8292 64.6904 79.3205 64.6904 78.79C64.6904 78.2596 64.9011 77.7509 65.2762 77.3758C65.6513 77.0008 66.16 76.79 66.6904 76.79H92.1004C92.6309 76.79 93.1396 77.0008 93.5146 77.3758C93.8897 77.7509 94.1004 78.2596 94.1004 78.79C94.1004 79.3205 93.8897 79.8292 93.5146 80.2043C93.1396 80.5793 92.6309 80.79 92.1004 80.79Z" fill="black"/>
  <path d="M72.6803 45.4499C72.2446 45.4515 71.8202 45.3107 71.4719 45.049C71.1235 44.7872 70.8701 44.4189 70.7503 43.9999C67.6003 31.9999 64.3703 27.0799 64.3403 26.9999C64.1926 26.7826 64.0891 26.5383 64.0358 26.281C63.9824 26.0236 63.9803 25.7583 64.0295 25.5002C64.0788 25.242 64.1783 24.9961 64.3226 24.7764C64.4669 24.5568 64.653 24.3677 64.8703 24.2199C65.0876 24.0722 65.3319 23.9687 65.5893 23.9154C65.8466 23.8621 66.1119 23.86 66.3701 23.9092C66.6282 23.9584 66.8741 24.058 67.0938 24.2022C67.3135 24.3465 67.5026 24.5326 67.6503 24.7499C67.7903 24.9599 71.2703 30.1399 74.6503 42.9499C74.7181 43.2047 74.7348 43.4704 74.6996 43.7317C74.6643 43.9929 74.5777 44.2447 74.4448 44.4723C74.3119 44.7 74.1353 44.8992 73.9252 45.0584C73.715 45.2176 73.4755 45.3337 73.2203 45.3999C73.043 45.4386 72.8617 45.4554 72.6803 45.4499Z" fill="black"/>
  <path d="M64.0599 45.45C63.6582 45.4496 63.2659 45.3283 62.9342 45.1017C62.6024 44.8752 62.3465 44.554 62.1999 44.18C58.8199 35.59 56.9999 31.73 56.9399 31.7C56.7969 31.4605 56.7056 31.1937 56.6719 30.9168C56.6382 30.6398 56.6627 30.3589 56.744 30.0921C56.8254 29.8252 56.9616 29.5783 57.144 29.3672C57.3264 29.1561 57.551 28.9856 57.8032 28.8664C58.0555 28.7473 58.3299 28.6823 58.6088 28.6755C58.8876 28.6688 59.1649 28.7204 59.4226 28.8272C59.6803 28.9339 59.9129 29.0934 60.1053 29.2954C60.2977 29.4974 60.4458 29.7374 60.5399 30C60.6199 30.16 62.4799 34 65.9199 42.77C66.113 43.2634 66.1025 43.8132 65.8906 44.2988C65.6788 44.7843 65.2829 45.166 64.7899 45.36C64.555 45.4383 64.3068 45.4689 64.0599 45.45Z" fill="black"/>
  <path d="M85.2206 45.45C85.0488 45.4498 84.8777 45.4297 84.7105 45.39C84.4563 45.3226 84.2178 45.2058 84.0087 45.0461C83.7997 44.8865 83.6242 44.6872 83.4923 44.4596C83.3604 44.232 83.2747 43.9806 83.2401 43.7199C83.2054 43.4591 83.2226 43.1941 83.2905 42.94C86.6405 30.13 90.1105 24.94 90.2905 24.74C90.6136 24.3692 91.0619 24.1304 91.5498 24.0692C92.0378 24.0081 92.5311 24.1288 92.9357 24.4084C93.3402 24.688 93.6276 25.1069 93.7429 25.5849C93.8581 26.063 93.7932 26.5668 93.5605 27C93.5605 27.08 90.2906 32 87.1606 44C87.0403 44.4206 86.7854 44.7902 86.435 45.052C86.0846 45.3139 85.658 45.4537 85.2206 45.45Z" fill="black"/>
  <path d="M93.8406 45.45C93.5904 45.4521 93.3423 45.4045 93.1106 45.31C92.6213 45.1121 92.23 44.7288 92.0221 44.2437C91.8141 43.7585 91.8064 43.2108 92.0006 42.72C95.4306 34 97.2906 30.11 97.3706 30C97.4823 29.7617 97.6397 29.5476 97.8341 29.3701C98.0284 29.1926 98.2558 29.0552 98.5033 28.9656C98.7507 28.876 99.0134 28.836 99.2764 28.8479C99.5393 28.8598 99.7973 28.9234 100.036 29.035C100.274 29.1466 100.488 29.3041 100.666 29.4984C100.843 29.6928 100.98 29.9202 101.07 30.1676C101.16 30.4151 101.2 30.6778 101.188 30.9407C101.176 31.2037 101.112 31.4617 101.001 31.7C101.001 31.7 99.1206 35.59 95.7406 44.18C95.5916 44.5604 95.3296 44.8861 94.9899 45.1131C94.6502 45.3402 94.2491 45.4577 93.8406 45.45Z" fill="black"/>
  <path d="M49.7504 71.5799C49.3164 71.5793 48.8944 71.4375 48.548 71.1759C48.2017 70.9144 47.9498 70.5472 47.8304 70.1299L45.2604 61.1299C37.5704 60.7299 32.3604 57.3999 27.7404 54.4399C26.4904 53.6499 25.3204 52.8999 24.1404 52.2399C20.9824 50.5802 17.574 49.4485 14.0504 48.8899C13.6384 48.8335 13.2542 48.6501 12.9513 48.3651C12.6484 48.0801 12.4418 47.7078 12.3604 47.2999C12.2829 46.8863 12.3378 46.4587 12.5173 46.0781C12.6969 45.6975 12.9919 45.3832 13.3604 45.1799C17.3004 42.9099 23.0304 43.1799 29.0904 43.5399C30.2904 43.5999 31.5204 43.6699 32.7704 43.7199C40.4847 44.1084 48.1557 45.1116 55.7104 46.7199C55.9767 46.7667 56.2306 46.867 56.457 47.0147C56.6834 47.1624 56.8775 47.3544 57.0276 47.5792C57.1777 47.804 57.2806 48.0569 57.3302 48.3227C57.3799 48.5884 57.3751 48.8614 57.3162 49.1252C57.2574 49.389 57.1457 49.6382 56.9878 49.8576C56.83 50.077 56.6293 50.2622 56.3979 50.4019C56.1665 50.5416 55.9092 50.633 55.6415 50.6704C55.3738 50.7079 55.1013 50.6907 54.8404 50.6199C47.5203 49.0703 40.0917 48.0874 32.6204 47.6799C31.3471 47.6266 30.0971 47.5666 28.8704 47.4999C26.8704 47.3999 24.9704 47.2899 23.1704 47.2799C24.1963 47.7041 25.1978 48.1848 26.1704 48.7199C27.4404 49.4399 28.6604 50.2199 29.9504 51.0399C34.6304 54.0399 39.4704 57.1299 46.8504 57.1299C47.2858 57.1312 47.7088 57.2744 48.0553 57.5379C48.4018 57.8014 48.6529 58.1708 48.7704 58.5899L51.7704 69.0399C51.8557 69.3382 51.8705 69.6522 51.8136 69.9571C51.7566 70.2621 51.6295 70.5496 51.4423 70.7969C51.2551 71.0443 51.0129 71.2447 50.7349 71.3823C50.4569 71.52 50.1506 71.591 49.8404 71.5899L49.7504 71.5799Z" fill="black"/>
  <path d="M49.1603 47.78C48.9951 47.7798 48.8306 47.7597 48.6703 47.72C48.4155 47.6558 48.1758 47.5419 47.965 47.385C47.7542 47.2281 47.5764 47.0312 47.4417 46.8055C47.307 46.5798 47.2182 46.3298 47.1802 46.0698C47.1422 45.8097 47.1558 45.5448 47.2203 45.29C50.2203 33.5 59.8103 26.88 65.2203 23.99C65.8003 23.68 66.4003 23.33 67.0003 22.99C69.4103 21.58 72.1403 19.99 75.1203 19.99H79.5303C80.0607 19.99 80.5694 20.2007 80.9445 20.5758C81.3196 20.9508 81.5303 21.4596 81.5303 21.99C81.5303 22.5204 81.3196 23.0291 80.9445 23.4042C80.5694 23.7793 80.0607 23.99 79.5303 23.99H75.1703C73.2703 23.99 71.1703 25.24 69.0703 26.44C68.4103 26.82 67.7703 27.2 67.1403 27.53C62.2703 30.1 53.7103 36 51.1003 46.27C50.9912 46.7017 50.7411 47.0847 50.3897 47.3583C50.0383 47.6318 49.6056 47.7802 49.1603 47.78Z" fill="black"/>
  <path d="M79.5806 71.58C79.374 71.5801 79.1684 71.5498 78.9706 71.4899L73.7306 69.8099C73.2378 69.6529 72.8249 69.311 72.5788 68.856C72.3327 68.401 72.2724 67.8684 72.4106 67.37L75.9206 54.56C75.9902 54.3065 76.1091 54.0692 76.2704 53.8617C76.4316 53.6542 76.6322 53.4805 76.8607 53.3505C77.0891 53.2205 77.3409 53.1367 77.6017 53.104C77.8625 53.0714 78.1272 53.0903 78.3806 53.1599C78.6341 53.2295 78.8713 53.3484 79.0788 53.5097C79.2864 53.671 79.4601 53.8716 79.5901 54.1C79.7201 54.3284 79.8038 54.5802 79.8365 54.841C79.8692 55.1018 79.8502 55.3665 79.7806 55.6199L76.7806 66.62L80.2006 67.72C80.6513 67.868 81.0347 68.1715 81.2823 68.5762C81.5299 68.9809 81.6256 69.4604 81.5523 69.9291C81.4789 70.3978 81.2414 70.8252 80.8821 71.1349C80.5227 71.4446 80.065 71.6166 79.5906 71.62L79.5806 71.58Z" fill="black"/>
  <path d="M66.0003 82.31H65.8703C65.3432 82.2765 64.8506 82.0359 64.5003 81.6406C64.1499 81.2453 63.9702 80.7274 64.0003 80.2C64.0003 79.74 64.7803 68.84 74.6403 65.98C75.1495 65.8315 75.6969 65.8914 76.162 66.1464C76.6271 66.4015 76.9718 66.8308 77.1203 67.34C77.2689 67.8492 77.209 68.3966 76.954 68.8617C76.6989 69.3268 76.2695 69.6715 75.7603 69.82C68.6303 71.89 68.0003 80.09 68.0003 80.44C67.9673 80.9476 67.742 81.4235 67.3705 81.7709C66.9989 82.1183 66.509 82.3111 66.0003 82.31Z" fill="black"/>
  <path d="M109.91 71.58C109.724 71.5813 109.539 71.5578 109.36 71.51C109.104 71.4367 108.866 71.3131 108.659 71.1467C108.452 70.9802 108.28 70.7741 108.153 70.5404C108.026 70.3067 107.948 70.0501 107.921 69.7856C107.895 69.5211 107.922 69.254 108 69L111 58.55C111.118 58.1292 111.37 57.7586 111.719 57.4949C112.067 57.2313 112.493 57.089 112.93 57.09C120.17 57.09 124.93 53.96 129.62 50.93C130.99 50.03 132.29 49.18 133.62 48.42C133.99 48.21 134.36 48.02 134.74 47.83L133.16 47.95C131.28 48.09 129.34 48.24 127.41 48.29C119.84 48.6271 112.327 49.7702 105 51.7C104.498 51.8153 103.971 51.7327 103.529 51.4694C103.086 51.2061 102.763 50.7824 102.625 50.2864C102.487 49.7903 102.546 49.2603 102.789 48.8065C103.032 48.3527 103.441 48.0101 103.93 47.85C111.581 45.8229 119.431 44.6392 127.34 44.32C129.16 44.32 131.05 44.13 132.87 43.99C138.1 43.59 143.04 43.21 146.38 45.14C146.746 45.3525 147.035 45.6756 147.205 46.0629C147.376 46.4501 147.42 46.8815 147.33 47.295C147.24 47.7085 147.021 48.0827 146.704 48.3639C146.388 48.6452 145.991 48.8188 145.57 48.86C142.077 49.2718 138.689 50.3155 135.57 51.94C134.34 52.63 133.09 53.45 131.78 54.3C127.18 57.3 122.01 60.68 114.42 61.08L111.85 70.08C111.739 70.5099 111.488 70.8906 111.137 71.1622C110.785 71.4338 110.354 71.5808 109.91 71.58Z" fill="black"/>
  <path d="M89.3002 97.0599H70.3602C70.1715 97.0699 69.9824 97.0497 69.8002 96.9999C66.9439 96.1688 64.4104 94.4833 62.5402 92.1699L51.1202 77.9999C49.764 76.3248 48.8096 74.3612 48.3302 72.2599L48.1602 71.5099C22.0502 70.6099 12.5602 47.8099 12.4702 47.5799C12.3626 47.3346 12.3053 47.0701 12.3019 46.8022C12.2985 46.5342 12.3489 46.2684 12.4503 46.0203C12.5516 45.7723 12.7017 45.5471 12.8917 45.3582C13.0817 45.1693 13.3078 45.0205 13.5564 44.9207C13.805 44.8208 14.0712 44.772 14.3391 44.777C14.607 44.782 14.8711 44.8407 15.1158 44.9498C15.3606 45.0589 15.5809 45.216 15.7637 45.4118C15.9466 45.6077 16.0882 45.8383 16.1802 46.0899C16.5402 46.9599 25.1802 67.5399 49.7602 67.5399C50.2225 67.5286 50.6745 67.6779 51.0391 67.9623C51.4038 68.2468 51.6586 68.6488 51.7602 69.0999L52.2802 71.3699C52.626 72.8741 53.31 74.2796 54.2802 75.4799L65.6502 89.6299C66.9481 91.2349 68.6856 92.4268 70.6502 93.0599H89.0002C90.9648 92.4268 92.7023 91.2349 94.0002 89.6299L105.43 75.5199C106.396 74.3168 107.079 72.9123 107.43 71.4099L107.95 69.1399C108.052 68.6888 108.307 68.2868 108.671 68.0023C109.036 67.7179 109.488 67.5686 109.95 67.5799C134.51 67.5799 143.17 46.9999 143.52 46.1199C143.719 45.628 144.105 45.2351 144.594 45.0279C145.082 44.8207 145.633 44.816 146.125 45.0149C146.617 45.2138 147.01 45.6 147.217 46.0886C147.424 46.5771 147.429 47.128 147.23 47.6199C147.14 47.8499 137.66 70.6199 111.55 71.5499L111.37 72.3099C110.87 74.3947 109.907 76.3397 108.55 77.9999L97.1202 92.1499C95.2529 94.4707 92.7191 96.1634 89.8602 96.9999C89.6779 97.0497 89.4889 97.0699 89.3002 97.0599Z" fill="black"/>
  <path d="M110.5 47.78C110.055 47.7802 109.622 47.6318 109.271 47.3583C108.919 47.0847 108.669 46.7018 108.56 46.27C106 36 97.3901 30.1 92.5201 27.52C91.8901 27.19 91.2501 26.81 90.6001 26.43C88.5301 25.23 86.3901 24 84.5001 24H80.0801C79.5496 24 79.0409 23.7893 78.6659 23.4142C78.2908 23.0391 78.0801 22.5304 78.0801 22C78.0801 21.4696 78.2908 20.9609 78.6659 20.5858C79.0409 20.2107 79.5496 20 80.0801 20H84.5001C87.5001 20 90.2001 21.59 92.6101 23C93.2201 23.35 93.8101 23.7 94.3901 24C99.8501 26.89 109.45 33.51 112.39 45.3C112.519 45.805 112.447 46.3405 112.187 46.7925C111.927 47.2445 111.501 47.5773 111 47.72C110.836 47.7591 110.668 47.7792 110.5 47.78Z" fill="black"/>
  <path d="M80.0804 71.58C79.606 71.5766 79.1483 71.4047 78.7889 71.095C78.4296 70.7852 78.1921 70.3579 78.1188 69.8892C78.0454 69.4205 78.1411 68.9409 78.3887 68.5363C78.6363 68.1316 79.0197 67.8281 79.4704 67.68L82.8904 66.58L79.8904 55.58C79.7498 55.0682 79.8184 54.5214 80.0809 54.0601C80.3435 53.5988 80.7785 53.2606 81.2904 53.12C81.8023 52.9795 82.349 53.048 82.8103 53.3106C83.2717 53.5731 83.6098 54.0082 83.7504 54.52L87.2604 67.33C87.3986 67.8285 87.3383 68.3611 87.0922 68.8161C86.8461 69.2711 86.4332 69.613 85.9404 69.77L80.7004 71.49C80.499 71.5493 80.2903 71.5796 80.0804 71.58Z" fill="black"/>
  <path d="M93.6698 86.85C93.1393 86.85 92.6306 86.6393 92.2555 86.2642C91.8805 85.8891 91.6698 85.3804 91.6698 84.85V80.39C91.6098 79.63 90.8298 71.83 83.9098 69.82C83.631 69.7748 83.3649 69.6712 83.1291 69.5158C82.8933 69.3604 82.693 69.1568 82.5415 68.9185C82.3901 68.6801 82.2908 68.4124 82.2502 68.1329C82.2097 67.8534 82.2288 67.5685 82.3063 67.2969C82.3837 67.0253 82.5179 66.7733 82.6998 66.5573C82.8818 66.3413 83.1074 66.1662 83.3618 66.0437C83.6163 65.9212 83.8938 65.854 84.1761 65.8464C84.4584 65.8389 84.7391 65.8912 84.9998 66C94.8598 68.86 95.6198 79.76 95.6398 80.22C95.6447 80.2598 95.6447 80.3001 95.6398 80.34V84.87C95.6346 85.3918 95.4257 85.8909 95.0576 86.2608C94.6896 86.6308 94.1915 86.8422 93.6698 86.85Z" fill="black"/>
  <path d="M71.4906 61.12H54.1006C53.5702 61.12 53.0614 60.9093 52.6864 60.5342C52.3113 60.1591 52.1006 59.6504 52.1006 59.12C52.1006 53.49 56.5606 49.39 62.7206 49.34H62.8706C69.0306 49.34 73.4906 53.49 73.4906 59.12C73.4906 59.6504 73.2799 60.1591 72.9048 60.5342C72.5297 60.9093 72.021 61.12 71.4906 61.12ZM56.4306 57.12H69.1606C68.2406 54.54 65.5106 53.35 62.8006 53.34C60.0906 53.33 57.3506 54.54 56.4306 57.12Z" fill="black"/>
  <path d="M62.7997 67C61.0554 66.9974 59.3833 66.3033 58.1499 65.0699C56.9165 63.8365 56.2224 62.1644 56.2197 60.42C56.2197 59.8896 56.4304 59.3809 56.8055 59.0058C57.1806 58.6308 57.6893 58.42 58.2197 58.42C58.7502 58.42 59.2589 58.6308 59.6339 59.0058C60.009 59.3809 60.2197 59.8896 60.2197 60.42C60.1978 60.7717 60.2481 61.1241 60.3676 61.4556C60.4871 61.787 60.6732 62.0905 60.9145 62.3473C61.1557 62.604 61.447 62.8087 61.7704 62.9485C62.0938 63.0884 62.4424 63.1606 62.7947 63.1606C63.1471 63.1606 63.4957 63.0884 63.819 62.9485C64.1424 62.8087 64.4337 62.604 64.675 62.3473C64.9162 62.0905 65.1023 61.787 65.2218 61.4556C65.3413 61.1241 65.3917 60.7717 65.3697 60.42C65.3697 59.8896 65.5804 59.3809 65.9555 59.0058C66.3306 58.6308 66.8393 58.42 67.3697 58.42C67.9002 58.42 68.4089 58.6308 68.7839 59.0058C69.159 59.3809 69.3697 59.8896 69.3697 60.42C69.3697 62.1634 68.6778 63.8356 67.446 65.0693C66.2142 66.303 64.5431 66.9974 62.7997 67Z" fill="black"/>
  <path d="M105.56 61.12H88.1699C87.6395 61.12 87.1308 60.9093 86.7557 60.5342C86.3806 60.1591 86.1699 59.6504 86.1699 59.12C86.1699 53.49 90.6299 49.39 96.7899 49.34H96.9399C103.1 49.34 107.56 53.49 107.56 59.12C107.56 59.6504 107.349 60.1591 106.974 60.5342C106.599 60.9093 106.09 61.12 105.56 61.12ZM90.4999 57.12H103.23C102.31 54.54 99.5799 53.35 96.8699 53.34C94.1599 53.33 91.4199 54.54 90.4999 57.12Z" fill="black"/>
  <path d="M96.87 67C95.1257 66.9974 93.4536 66.3033 92.2202 65.0699C90.9868 63.8365 90.2927 62.1644 90.29 60.42C90.29 59.8896 90.5008 59.3809 90.8758 59.0058C91.2509 58.6308 91.7596 58.42 92.29 58.42C92.8205 58.42 93.3292 58.6308 93.7043 59.0058C94.0793 59.3809 94.29 59.8896 94.29 60.42C94.2681 60.7717 94.3184 61.1241 94.4379 61.4556C94.5574 61.787 94.7435 62.0905 94.9848 62.3473C95.2261 62.604 95.5174 62.8087 95.8407 62.9485C96.1641 63.0884 96.5127 63.1606 96.865 63.1606C97.2174 63.1606 97.566 63.0884 97.8893 62.9485C98.2127 62.8087 98.504 62.604 98.7453 62.3473C98.9865 62.0905 99.1726 61.787 99.2921 61.4556C99.4116 61.1241 99.462 60.7717 99.44 60.42C99.44 59.8896 99.6508 59.3809 100.026 59.0058C100.401 58.6308 100.91 58.42 101.44 58.42C101.97 58.42 102.479 58.6308 102.854 59.0058C103.229 59.3809 103.44 59.8896 103.44 60.42C103.44 62.1634 102.748 63.8356 101.516 65.0693C100.285 66.303 98.6134 66.9974 96.87 67Z" fill="black"/>
  <path d="M66 86.85C65.4696 86.85 64.9609 86.6393 64.5858 86.2642C64.2107 85.8892 64 85.3805 64 84.85L64.08 79.64C64.088 79.1096 64.3063 78.604 64.687 78.2346C65.0677 77.8652 65.5796 77.6621 66.11 77.67C66.6404 77.678 67.146 77.8963 67.5154 78.277C67.8849 78.6577 68.088 79.1696 68.08 79.7L68 84.87C67.9947 85.397 67.7817 85.9006 67.4072 86.2713C67.0327 86.6421 66.527 86.8501 66 86.85Z" fill="black"/>
  <path d="M111.33 66.56C110.8 66.5958 110.277 66.4194 109.876 66.0696C109.476 65.7199 109.231 65.2254 109.195 64.695C109.159 64.1645 109.336 63.6416 109.685 63.2412C110.035 62.8408 110.53 62.5958 111.06 62.56L117.31 61.69C117.84 61.617 118.378 61.7578 118.805 62.0813C119.231 62.4048 119.512 62.8845 119.585 63.415C119.658 63.9454 119.517 64.4831 119.194 64.9097C118.87 65.3364 118.39 65.617 117.86 65.69L111.61 66.55L111.33 66.56Z" fill="black"/>
  <path d="M48.4603 67C48.3078 67.023 48.1528 67.023 48.0003 67L42.0903 65.72C41.5652 65.5993 41.1095 65.275 40.8235 64.8183C40.5375 64.3617 40.4446 63.8101 40.5653 63.285C40.686 62.7599 41.0103 62.3042 41.4669 62.0182C41.9236 61.7322 42.4752 61.6393 43.0003 61.76L48.9103 63.05C49.1729 63.0776 49.4276 63.1566 49.6597 63.2826C49.8918 63.4086 50.0968 63.5791 50.263 63.7843C50.4292 63.9895 50.5534 64.2254 50.6284 64.4786C50.7034 64.7318 50.7279 64.9973 50.7003 65.26C50.6727 65.5226 50.5937 65.7773 50.4677 66.0094C50.3417 66.2415 50.1712 66.4465 49.966 66.6127C49.7608 66.7789 49.5248 66.9031 49.2716 66.9781C49.0184 67.0531 48.7529 67.0776 48.4903 67.05L48.4603 67Z" fill="black"/>
  <path d="M62.6605 67.28C60.1242 67.2978 57.605 66.8643 55.2205 66L54.9205 65.89C54.6697 65.8022 54.4389 65.6653 54.2415 65.4873C54.0442 65.3094 53.8843 65.0938 53.7712 64.8534C53.6581 64.6129 53.5941 64.3523 53.5828 64.0868C53.5716 63.8213 53.6134 63.5562 53.7057 63.3071C53.7981 63.0579 53.9392 62.8296 54.1208 62.6356C54.3023 62.4416 54.5208 62.2857 54.7633 62.177C55.0058 62.0684 55.2675 62.0091 55.5332 62.0028C55.7988 61.9964 56.0631 62.043 56.3105 62.14L56.6005 62.25C60.6142 63.7115 65.0233 63.6582 69.0005 62.0999C69.2454 62.0047 69.5067 61.9587 69.7694 61.9645C70.0321 61.9702 70.2911 62.0277 70.5316 62.1335C70.7721 62.2394 70.9894 62.3916 71.1711 62.5814C71.3528 62.7713 71.4953 62.995 71.5905 63.24C71.6857 63.4849 71.7317 63.7461 71.726 64.0088C71.7202 64.2715 71.6628 64.5306 71.5569 64.7711C71.4511 65.0116 71.2989 65.2289 71.109 65.4105C70.9192 65.5922 70.6954 65.7347 70.4505 65.83C67.9664 66.7929 65.3247 67.2846 62.6605 67.28Z" fill="black"/>
  <path d="M96.8698 67.2799C94.3303 67.2968 91.8079 66.8634 89.4197 65.9999L89.1297 65.8899C88.8721 65.8082 88.6337 65.6751 88.4289 65.4987C88.2241 65.3222 88.0572 65.1061 87.9383 64.8634C87.8194 64.6207 87.7509 64.3563 87.737 64.0864C87.7231 63.8164 87.7641 63.5465 87.8574 63.2928C87.9508 63.0391 88.0946 62.807 88.2802 62.6105C88.4657 62.4139 88.6892 62.2571 88.9371 62.1493C89.185 62.0415 89.4522 61.9852 89.7225 61.9836C89.9928 61.9819 90.2606 62.0351 90.5097 62.1399L90.8097 62.2499C94.8114 63.7225 99.2124 63.687 103.19 62.1499C103.436 62.0464 103.701 61.9934 103.969 61.994C104.236 61.9947 104.501 62.049 104.747 62.1538C104.993 62.2586 105.216 62.4117 105.402 62.6041C105.588 62.7964 105.733 63.0241 105.83 63.2737C105.926 63.5233 105.971 63.7897 105.963 64.0571C105.955 64.3245 105.893 64.5875 105.781 64.8305C105.669 65.0735 105.509 65.2916 105.312 65.4718C105.114 65.6521 104.882 65.7909 104.63 65.8799C102.152 66.8223 99.5207 67.297 96.8698 67.2799Z" fill="black"/>
  <path d="M133.3 136.77C132.77 136.77 132.261 136.559 131.886 136.184C131.511 135.809 131.3 135.3 131.3 134.77V122.91C131.289 114.39 127.9 106.222 121.874 100.199C115.849 94.1753 107.68 90.788 99.1601 90.78H98.5801C98.0496 90.78 97.5409 90.5693 97.1659 90.1942C96.7908 89.8192 96.5801 89.3105 96.5801 88.78C96.5801 88.2496 96.7908 87.7409 97.1659 87.3658C97.5409 86.9907 98.0496 86.78 98.5801 86.78H99.1601C108.74 86.7906 117.925 90.6002 124.7 97.3733C131.475 104.146 135.287 113.33 135.3 122.91V134.77C135.3 135.3 135.089 135.809 134.714 136.184C134.339 136.559 133.831 136.77 133.3 136.77Z" fill="black"/>
  <path d="M25.8506 137.19C25.3202 137.19 24.8114 136.979 24.4364 136.604C24.0613 136.229 23.8506 135.72 23.8506 135.19V122.91C23.8506 104.64 40.0806 88.5 59.2806 86.91C59.5085 86.829 59.7487 86.7884 59.9906 86.79H62.3906C62.921 86.79 63.4297 87.0007 63.8048 87.3757C64.1799 87.7508 64.3906 88.2595 64.3906 88.79C64.3906 89.3204 64.1799 89.8291 63.8048 90.2042C63.4297 90.5792 62.921 90.79 62.3906 90.79C43.9906 90.79 27.8506 105.79 27.8506 122.92V135.2C27.8479 135.729 27.6361 136.235 27.2613 136.608C26.8865 136.981 26.3793 137.19 25.8506 137.19Z" fill="black"/>
  <path d="M85.3197 136.77H76.9997C76.6276 136.77 76.263 136.666 75.9467 136.47C75.6305 136.274 75.3753 135.993 75.2097 135.66L53.4597 92C53.305 91.7652 53.2016 91.5005 53.1562 91.223C53.1107 90.9456 53.1243 90.6617 53.196 90.3898C53.2677 90.118 53.3959 89.8643 53.5722 89.6453C53.7485 89.4264 53.9691 89.247 54.2194 89.119C54.4697 88.9911 54.7442 88.9173 55.025 88.9025C55.3057 88.8878 55.5864 88.9324 55.8488 89.0335C56.1111 89.1345 56.3492 89.2897 56.5475 89.489C56.7459 89.6883 56.8999 89.9272 56.9997 90.19L78.1997 132.77H83.9997L102.28 88.77C102.378 88.5257 102.523 88.3032 102.706 88.1149C102.89 87.9267 103.109 87.7765 103.351 87.673C103.593 87.5695 103.853 87.5146 104.116 87.5115C104.379 87.5084 104.64 87.5572 104.885 87.655C105.129 87.7528 105.352 87.8978 105.54 88.0817C105.728 88.2655 105.878 88.4847 105.982 88.7266C106.085 88.9685 106.14 89.2284 106.143 89.4915C106.146 89.7546 106.098 90.0158 106 90.26L87.1697 135.53C87.019 135.897 86.7627 136.211 86.4333 136.431C86.1039 136.652 85.7163 136.77 85.3197 136.77Z" fill="black"/>
  <path d="M145.34 137.19H14.3398C13.8094 137.19 13.3007 136.979 12.9256 136.604C12.5506 136.229 12.3398 135.72 12.3398 135.19C12.3398 134.66 12.5506 134.151 12.9256 133.776C13.3007 133.401 13.8094 133.19 14.3398 133.19H145.34C145.87 133.19 146.379 133.401 146.754 133.776C147.129 134.151 147.34 134.66 147.34 135.19C147.34 135.72 147.129 136.229 146.754 136.604C146.379 136.979 145.87 137.19 145.34 137.19Z" fill="black"/>
  <path d="M99.1598 126.52C98.7949 126.519 98.4372 126.419 98.1253 126.23C97.8134 126.04 97.5592 125.769 97.3903 125.446C97.2214 125.123 97.1442 124.759 97.167 124.395C97.1898 124.031 97.3118 123.68 97.5198 123.38L112.81 101.12C112.959 100.903 113.149 100.718 113.37 100.575C113.59 100.432 113.837 100.334 114.096 100.286C114.354 100.238 114.62 100.241 114.877 100.296C115.134 100.351 115.378 100.456 115.595 100.605C115.811 100.754 115.997 100.944 116.14 101.165C116.283 101.386 116.381 101.632 116.429 101.891C116.477 102.149 116.473 102.415 116.419 102.672C116.364 102.929 116.259 103.173 116.11 103.39L100.81 125.65C100.626 125.918 100.38 126.138 100.092 126.289C99.8049 126.441 99.4848 126.52 99.1598 126.52Z" fill="black"/>
  <path d="M61.4001 129.27C61.0629 129.27 60.7311 129.185 60.4356 129.022C60.1401 128.86 59.8905 128.625 59.7101 128.34L45.4701 105.58C45.1877 105.129 45.0959 104.584 45.215 104.066C45.3341 103.547 45.6542 103.097 46.1051 102.815C46.556 102.533 47.1006 102.441 47.6191 102.56C48.1377 102.679 48.5877 102.999 48.8701 103.45L63.1001 126.21C63.2398 126.433 63.334 126.682 63.3774 126.941C63.4208 127.201 63.4126 127.466 63.3531 127.723C63.2936 127.979 63.1842 128.221 63.0309 128.435C62.8777 128.649 62.6837 128.831 62.4601 128.97C62.1432 129.17 61.775 129.274 61.4001 129.27Z" fill="black"/>
</svg>
