<svg width="160" height="115" viewBox="0 0 160 115" fill="none"
  xmlns="http://www.w3.org/2000/svg">
  <path d="M113.72 115H13.7197C13.1893 115 12.6806 114.789 12.3055 114.414C11.9304 114.039 11.7197 113.53 11.7197 113C11.7197 112.47 11.9304 111.961 12.3055 111.586C12.6806 111.211 13.1893 111 13.7197 111H113.72C114.25 111 114.759 111.211 115.134 111.586C115.509 111.961 115.72 112.47 115.72 113C115.72 113.53 115.509 114.039 115.134 114.414C114.759 114.789 114.25 115 113.72 115Z" fill="black"/>
  <path d="M90.9998 62.4701C90.6166 62.4691 90.2417 62.358 89.9198 62.1501C86.1498 59.7501 84.2398 61.7901 84.2198 61.8101C83.8631 62.2079 83.3629 62.4477 82.8294 62.4768C82.2958 62.5059 81.7726 62.3218 81.3748 61.9651C80.977 61.6084 80.7371 61.1082 80.7081 60.5747C80.679 60.0411 80.8631 59.5179 81.2198 59.1201C82.6598 57.5401 86.7798 55.4201 92.0398 58.7801C92.4039 59.0104 92.6839 59.3522 92.8381 59.7545C92.9923 60.1568 93.0125 60.5982 92.8956 61.0129C92.7787 61.4275 92.531 61.7934 92.1894 62.056C91.8478 62.3186 91.4306 62.4638 90.9998 62.4701Z" fill="black"/>
  <path d="M15.83 76.7601H15.68C2.66995 75.7701 -0.270048 63.8501 -4.75366e-05 57.6801C0.017076 57.295 0.14511 56.9231 0.368647 56.609C0.592185 56.295 0.901701 56.0523 1.25995 55.9101C1.61866 55.7688 2.01055 55.7343 2.38844 55.8105C2.76634 55.8868 3.11413 56.0707 3.38995 56.34C3.44995 56.4 9.88995 62.6 15.91 62.6C16.4404 62.6 16.9491 62.8108 17.3242 63.1858C17.6992 63.5609 17.91 64.0696 17.91 64.6C17.91 65.1305 17.6992 65.6392 17.3242 66.0143C16.9491 66.3893 16.4404 66.6 15.91 66.6C11.59 66.6 7.36995 64.34 4.44995 62.31C5.36995 66.49 8.07995 72.17 16 72.77C16.5304 72.7899 17.0312 73.0197 17.3922 73.4089C17.7532 73.798 17.9448 74.3146 17.925 74.8451C17.9051 75.3755 17.6753 75.8763 17.2861 76.2373C16.897 76.5983 16.3804 76.7899 15.85 76.77L15.83 76.7601Z" fill="black"/>
  <path d="M88.4104 115H74.9204C74.4035 115 73.9066 114.801 73.5337 114.443C73.1609 114.085 72.9411 113.596 72.9204 113.08L72.7004 107.53C65.2277 109.005 57.5408 109.025 50.0604 107.59L49.8504 113.08C49.8297 113.596 49.6099 114.085 49.2371 114.443C48.8642 114.801 48.3672 115 47.8504 115H34.3604C34.0029 115.007 33.6502 114.918 33.3389 114.742C33.0276 114.566 32.7691 114.31 32.5904 114L16.5904 83.9C14.5021 79.556 13.4122 74.7998 13.4004 69.98C13.4004 48.62 34.8504 31.24 61.2104 31.24C61.9804 31.24 62.7504 31.24 63.5004 31.24C63.763 31.2498 64.0212 31.3113 64.26 31.4209C64.4989 31.5305 64.7139 31.6861 64.8926 31.8788C65.0714 32.0715 65.2104 32.2975 65.3018 32.5439C65.3933 32.7903 65.4352 33.0523 65.4254 33.315C65.4155 33.5776 65.3541 33.8358 65.2444 34.0746C65.1348 34.3135 64.9792 34.5285 64.7866 34.7072C64.5939 34.886 64.3679 35.025 64.1215 35.1164C63.875 35.2079 63.613 35.2498 63.3504 35.24C62.6504 35.24 61.9304 35.24 61.2104 35.24C37.0604 35.24 17.4004 50.82 17.4004 69.98C17.4097 74.1779 18.3524 78.3213 20.1604 82.11L35.5304 111.11H45.9304L46.1104 106.36C45.8548 106.032 45.7078 105.632 45.6901 105.216C45.6723 104.801 45.7845 104.39 46.0112 104.041C46.2379 103.692 46.5677 103.423 46.9547 103.27C47.3417 103.118 47.7667 103.09 48.1704 103.19C56.9293 105.303 66.0725 105.237 74.8004 103C75.2308 102.89 75.6856 102.926 76.0931 103.103C76.5005 103.28 76.8374 103.588 77.0507 103.978C77.2639 104.367 77.3413 104.817 77.2706 105.256C77.1999 105.694 76.9852 106.097 76.6604 106.4L76.8404 111.05H87.1904L100.94 84.71C100.973 84.6122 101.017 84.5184 101.07 84.43C101.36 83.94 101.62 83.43 101.88 82.93C102.034 82.6264 102.262 82.3669 102.544 82.1762C102.826 81.9854 103.151 81.8697 103.49 81.84L107.09 80.84C107.779 80.6551 108.388 80.2482 108.822 79.6823C109.255 79.1164 109.491 78.4231 109.49 77.71V63.86C109.49 62.9998 109.149 62.1746 108.542 61.5654C107.935 60.9562 107.111 60.6126 106.25 60.61H105C104.58 60.642 104.16 60.5403 103.801 60.3194C103.442 60.0985 103.162 59.7697 103 59.38C100.734 53.9907 97.1344 49.2661 92.5404 45.65C92.128 45.3158 91.8652 44.8315 91.8099 44.3036C91.7546 43.7757 91.9112 43.2474 92.2454 42.835C92.5796 42.4226 93.0639 42.1598 93.5918 42.1045C94.1197 42.0492 94.648 42.2058 95.0604 42.54C99.7938 46.3108 103.59 51.1266 106.15 56.61H106.25C108.171 56.6126 110.013 57.3776 111.37 58.737C112.728 60.0963 113.49 61.9389 113.49 63.86V77.71C113.487 79.3028 112.961 80.8505 111.993 82.1152C111.024 83.3799 109.667 84.2915 108.13 84.71L105.01 85.55L104.65 86.2L104.59 86.31L90.1804 113.94C90.0095 114.261 89.7545 114.529 89.4426 114.716C89.1308 114.903 88.7739 115.001 88.4104 115Z" fill="black"/>
  <path d="M53.1403 24.3701H52.8103C52.5438 24.3282 52.2886 24.2327 52.0599 24.0896C51.8312 23.9464 51.6339 23.7585 51.4797 23.5371C51.3256 23.3157 51.2178 23.0654 51.1629 22.8012C51.108 22.5371 51.1072 22.2646 51.1603 22.0001L52.1603 15.7601C52.203 15.4974 52.297 15.2458 52.437 15.0194C52.5769 14.7931 52.76 14.5966 52.9759 14.441C53.1918 14.2855 53.4363 14.174 53.6952 14.1129C53.9542 14.0519 54.2227 14.0424 54.4853 14.0851C54.748 14.1278 54.9997 14.2217 55.226 14.3617C55.4523 14.5016 55.6488 14.6848 55.8044 14.9007C55.9599 15.1166 56.0714 15.361 56.1325 15.62C56.1936 15.8789 56.203 16.1474 56.1603 16.4101L55.1603 22.6501C55.092 23.1341 54.8488 23.5763 54.4766 23.8932C54.1044 24.2101 53.6291 24.3798 53.1403 24.3701Z" fill="black"/>
  <path d="M54.2204 32.4H53.9004L49.0004 31.56C48.7411 31.5171 48.4928 31.4234 48.2698 31.2844C48.0467 31.1454 47.8532 30.9639 47.7004 30.75C47.3908 30.3194 47.2649 29.7835 47.3504 29.26L48.2004 24.07C48.3989 22.8982 49.0529 21.8525 50.0196 21.1612C50.9864 20.4699 52.1873 20.189 53.3604 20.38C54.5332 20.5738 55.5814 21.2248 56.275 22.1902C56.9686 23.1556 57.251 24.3567 57.0604 25.53L56.2004 30.72C56.1242 31.1899 55.883 31.6171 55.5201 31.9251C55.1572 32.233 54.6964 32.4014 54.2204 32.4ZM51.6104 27.94L52.6104 28.1L53.1404 24.88C53.1518 24.8169 53.1505 24.7521 53.1364 24.6895C53.1224 24.6269 53.096 24.5678 53.0587 24.5156C53.0214 24.4634 52.974 24.4192 52.9193 24.3856C52.8647 24.352 52.8038 24.3297 52.7404 24.32C52.6132 24.2997 52.4832 24.3303 52.3784 24.4052C52.2736 24.48 52.2024 24.5932 52.1804 24.72L51.6104 27.94Z" fill="black"/>
  <path d="M92.4297 33.26C92.3199 33.2694 92.2095 33.2694 92.0997 33.26C91.5775 33.1719 91.1116 32.8802 90.8042 32.4491C90.4968 32.0179 90.3729 31.4824 90.4597 30.96L91.1097 26.96C91.1524 26.6974 91.2464 26.4457 91.3863 26.2194C91.5262 25.9931 91.7094 25.7965 91.9253 25.641C92.1412 25.4855 92.3856 25.374 92.6446 25.3129C92.9036 25.2518 93.172 25.2423 93.4347 25.285C93.6973 25.3277 93.949 25.4217 94.1753 25.5616C94.4016 25.7016 94.5982 25.8847 94.7537 26.1006C94.9092 26.3165 95.0207 26.5609 95.0818 26.8199C95.1429 27.0789 95.1524 27.3474 95.1097 27.61L94.4497 31.61C94.3661 32.0812 94.1163 32.5069 93.7457 32.8096C93.375 33.1124 92.9081 33.2722 92.4297 33.26Z" fill="black"/>
  <path d="M79.6995 41.36C74.692 41.3641 69.8044 39.828 65.6995 36.96L60.9995 33.66C60.6838 33.4415 60.4376 33.1367 60.2905 32.7821C60.1433 32.4274 60.1013 32.0379 60.1695 31.66L61.7195 22.21C61.8057 21.6862 62.0965 21.2181 62.5278 20.9087C62.9591 20.5992 63.4957 20.4738 64.0195 20.56C64.5433 20.6462 65.0114 20.937 65.3209 21.3683C65.6303 21.7996 65.7557 22.3362 65.6695 22.86L64.3195 31.06L67.9995 33.68C72.2214 36.6183 77.3928 37.8639 82.4895 37.17C82.7522 37.1346 83.0192 37.1512 83.2755 37.2189C83.5317 37.2867 83.772 37.4042 83.9828 37.5649C84.1936 37.7255 84.3707 37.9261 84.504 38.1552C84.6372 38.3843 84.7241 38.6374 84.7595 38.9C84.795 39.1627 84.7784 39.4297 84.7106 39.6859C84.6429 39.9422 84.5253 40.1825 84.3647 40.3933C84.204 40.6041 84.0034 40.7812 83.7743 40.9145C83.5453 41.0477 83.2922 41.1346 83.0295 41.17C81.925 41.3074 80.8125 41.3709 79.6995 41.36Z" fill="black"/>
  <path d="M77.3595 33.1701C76.9729 33.171 76.5943 33.0599 76.2695 32.8501L52.9995 17.6701C52.6721 17.4585 52.4136 17.1558 52.2559 16.7993C52.0982 16.4427 52.0481 16.0479 52.1119 15.6632C52.1756 15.2786 52.3504 14.921 52.6147 14.6344C52.879 14.3478 53.2213 14.1447 53.5995 14.0501L80.5195 7.15008C80.7887 7.08224 81.0692 7.07122 81.3429 7.1177C81.6167 7.16419 81.8777 7.26717 82.1095 7.42008L105.389 22.5901C105.717 22.8009 105.976 23.1028 106.134 23.4587C106.292 23.8146 106.343 24.209 106.281 24.5934C106.218 24.9779 106.045 25.3357 105.781 25.6228C105.518 25.91 105.177 26.1141 104.8 26.2101L77.8795 33.1101C77.7092 33.1507 77.5346 33.1708 77.3595 33.1701ZM58.9995 16.8001L77.7095 29.0001L99.3795 23.4501L80.6395 11.2501L58.9995 16.8001Z" fill="black"/>
  <path d="M75.1898 6.00004C74.7006 6.00346 74.227 5.82745 73.8588 5.5053C73.4906 5.18315 73.2533 4.73722 73.1917 4.25188C73.1301 3.76654 73.2485 3.27545 73.5246 2.87155C73.8007 2.46764 74.2152 2.17893 74.6898 2.06004L78.8198 1.00004C79.0745 0.934382 79.3397 0.919543 79.6002 0.956374C79.8607 0.993206 80.1114 1.08099 80.338 1.2147C80.5646 1.34842 80.7626 1.52545 80.9208 1.7357C81.0789 1.94594 81.1941 2.18528 81.2598 2.44004C81.3254 2.69481 81.3403 2.96001 81.3034 3.22051C81.2666 3.48101 81.1788 3.7317 81.0451 3.95828C80.9114 4.18485 80.7344 4.38287 80.5241 4.54103C80.3139 4.69919 80.0745 4.81438 79.8198 4.88004L75.6798 6.00004C75.517 6.01963 75.3525 6.01963 75.1898 6.00004Z" fill="black"/>
  <path d="M56.6302 10.8C56.141 10.8034 55.6675 10.6274 55.2993 10.3053C54.9311 9.98313 54.6937 9.5372 54.6321 9.05186C54.5705 8.56651 54.689 8.07543 54.965 7.67152C55.2411 7.26762 55.6556 6.97891 56.1302 6.86002L68.3702 3.72002C68.8847 3.58741 69.4308 3.66463 69.8884 3.93468C70.346 4.20473 70.6776 4.6455 70.8102 5.16002C70.9428 5.67454 70.8656 6.22066 70.5955 6.67825C70.3255 7.13584 69.8847 7.46741 69.3702 7.60002L57.1302 10.73C56.9677 10.7771 56.7994 10.8007 56.6302 10.8Z" fill="black"/>
  <path d="M83.9998 50.8C83.6004 50.8012 83.2097 50.6828 82.8782 50.46C82.5467 50.2372 82.2895 49.9203 82.1398 49.55C80.0398 44.3 80.1398 39.83 82.3198 36.28C86.2198 30.04 95.3198 29.28 95.7198 29.28C96.0205 29.2582 96.3223 29.3046 96.6026 29.4159C96.8829 29.5271 97.1344 29.7003 97.3383 29.9225C97.5422 30.1446 97.6932 30.41 97.78 30.6988C97.8669 30.9876 97.8873 31.2923 97.8398 31.59L95.7498 44.44C95.7077 44.7027 95.6144 44.9545 95.4751 45.1811C95.3357 45.4076 95.1531 45.6045 94.9377 45.7605C94.7223 45.9165 94.4782 46.0286 94.2195 46.0903C93.9608 46.1519 93.6924 46.1621 93.4298 46.12C93.1671 46.078 92.9153 45.9847 92.6888 45.8453C92.4622 45.706 92.2653 45.5234 92.1093 45.308C91.9533 45.0926 91.8412 44.8485 91.7795 44.5898C91.7179 44.331 91.7077 44.0627 91.7498 43.8L93.3798 33.7C90.9398 34.29 87.3798 35.59 85.6498 38.41C84.1498 40.82 84.1998 44.07 85.7998 48.06C85.8972 48.3043 85.9455 48.5653 85.9419 48.8282C85.9383 49.0912 85.883 49.3508 85.7789 49.5923C85.6749 49.8338 85.5243 50.0524 85.3357 50.2356C85.1471 50.4188 84.9242 50.5631 84.6798 50.66C84.4636 50.7479 84.2331 50.7953 83.9998 50.8Z" fill="black"/>
  <path d="M105.43 63.9C104.928 63.9018 104.443 63.7146 104.073 63.3756C103.702 63.0365 103.473 62.5704 103.43 62.07C103.238 60.3248 102.726 58.6299 101.92 57.07C101.655 56.6085 101.584 56.0606 101.723 55.5467C101.862 55.0329 102.199 54.5952 102.66 54.33C103.122 54.0648 103.67 53.9938 104.183 54.1325C104.697 54.2713 105.135 54.6085 105.4 55.07C106.485 57.1388 107.164 59.3961 107.4 61.72C107.422 61.982 107.392 62.2458 107.312 62.4963C107.232 62.7467 107.103 62.9789 106.933 63.1795C106.763 63.3801 106.555 63.5453 106.321 63.6655C106.088 63.7857 105.832 63.8586 105.57 63.88L105.43 63.9Z" fill="black"/>
  <path d="M50.3297 43.3C49.8519 43.3063 49.3876 43.1412 49.0209 42.8346C48.6543 42.5281 48.4095 42.1004 48.3309 41.629C48.2524 41.1576 48.3452 40.6737 48.5926 40.2648C48.84 39.8559 49.2257 39.5491 49.6797 39.4C50.0397 39.28 58.4497 36.47 66.0597 39.26C66.3261 39.3341 66.5742 39.4626 66.7885 39.6374C67.0027 39.8123 67.1783 40.0296 67.3043 40.2757C67.4302 40.5219 67.5038 40.7914 67.5203 41.0674C67.5368 41.3434 67.4959 41.6199 67.4002 41.8793C67.3045 42.1387 67.1561 42.3754 66.9642 42.5745C66.7724 42.7736 66.5414 42.9308 66.2857 43.0361C66.0301 43.1415 65.7554 43.1926 65.4789 43.1864C65.2025 43.1802 64.9304 43.1167 64.6797 43C58.4197 40.7 51.0397 43.15 50.9697 43.17C50.7647 43.2473 50.5486 43.2912 50.3297 43.3Z" fill="black"/>
  <path d="M143.15 115H120.93C120.399 115 119.891 114.789 119.515 114.414C119.14 114.039 118.93 113.53 118.93 113V105.62C118.93 105.09 119.14 104.581 119.515 104.206C119.891 103.831 120.399 103.62 120.93 103.62H143.15C143.68 103.62 144.189 103.831 144.564 104.206C144.939 104.581 145.15 105.09 145.15 105.62V113C145.15 113.53 144.939 114.039 144.564 114.414C144.189 114.789 143.68 115 143.15 115ZM122.93 111H141.15V107.62H122.93V111Z" fill="black"/>
  <path d="M136.67 107.64H114.45C113.92 107.64 113.411 107.429 113.036 107.054C112.661 106.679 112.45 106.17 112.45 105.64V98.25C112.45 97.7196 112.661 97.2109 113.036 96.8358C113.411 96.4607 113.92 96.25 114.45 96.25H136.67C137.201 96.25 137.709 96.4607 138.084 96.8358C138.459 97.2109 138.67 97.7196 138.67 98.25V105.64C138.67 105.903 138.618 106.163 138.518 106.405C138.417 106.648 138.27 106.868 138.084 107.054C137.899 107.24 137.678 107.387 137.436 107.488C137.193 107.588 136.933 107.64 136.67 107.64ZM116.45 103.64H134.67V100.25H116.45V103.64Z" fill="black"/>
  <path d="M140.89 100.25H118.67C118.139 100.25 117.631 100.039 117.256 99.6642C116.881 99.2891 116.67 98.7804 116.67 98.25V90.87C116.67 90.3396 116.881 89.8309 117.256 89.4558C117.631 89.0807 118.139 88.87 118.67 88.87H140.89C141.42 88.87 141.929 89.0807 142.304 89.4558C142.679 89.8309 142.89 90.3396 142.89 90.87V98.25C142.89 98.7804 142.679 99.2891 142.304 99.6642C141.929 100.039 141.42 100.25 140.89 100.25ZM120.67 96.25H138.89V92.87H120.67V96.25Z" fill="black"/>
  <path d="M129.78 92.87C127.187 92.87 124.652 92.1011 122.496 90.6606C120.34 89.2201 118.66 87.1726 117.668 84.777C116.676 82.3815 116.416 79.7455 116.922 77.2024C117.428 74.6593 118.676 72.3233 120.51 70.4899C122.343 68.6564 124.679 67.4078 127.222 66.9019C129.765 66.3961 132.401 66.6557 134.797 67.648C137.192 68.6402 139.24 70.3206 140.681 72.4765C142.121 74.6324 142.89 77.1671 142.89 79.76C142.887 83.2362 141.505 86.5692 139.047 89.0273C136.589 91.4853 133.256 92.8674 129.78 92.87ZM129.78 70.65C127.978 70.65 126.217 71.1843 124.719 72.1853C123.221 73.1864 122.053 74.6091 121.363 76.2738C120.674 77.9384 120.493 79.7701 120.845 81.5373C121.196 83.3045 122.064 84.9277 123.338 86.2018C124.612 87.4758 126.235 88.3435 128.003 88.695C129.77 89.0465 131.602 88.8661 133.266 88.1766C134.931 87.4871 136.354 86.3194 137.355 84.8213C138.356 83.3231 138.89 81.5618 138.89 79.76C138.89 77.3439 137.93 75.0267 136.222 73.3183C134.513 71.6098 132.196 70.65 129.78 70.65Z" fill="black"/>
  <path d="M147.64 81.76C147.11 81.76 146.601 81.5493 146.226 81.1742C145.851 80.7992 145.64 80.2905 145.64 79.76C145.635 75.5553 143.962 71.5243 140.989 68.5512C138.016 65.578 133.985 63.9053 129.78 63.9C129.25 63.9 128.741 63.6893 128.366 63.3142C127.991 62.9392 127.78 62.4305 127.78 61.9C127.78 61.3696 127.991 60.8609 128.366 60.4858C128.741 60.1107 129.25 59.9 129.78 59.9C135.046 59.9053 140.094 61.9994 143.818 65.7227C147.541 69.4461 149.635 74.4945 149.64 79.76C149.64 80.2905 149.43 80.7992 149.054 81.1742C148.679 81.5493 148.171 81.76 147.64 81.76Z" fill="black"/>
  <path d="M158 114.87H149.92C149.389 114.87 148.881 114.659 148.506 114.284C148.131 113.909 147.92 113.4 147.92 112.87C147.92 112.34 148.131 111.831 148.506 111.456C148.881 111.081 149.389 110.87 149.92 110.87H158C158.53 110.87 159.039 111.081 159.414 111.456C159.789 111.831 160 112.34 160 112.87C160 113.4 159.789 113.909 159.414 114.284C159.039 114.659 158.53 114.87 158 114.87Z" fill="black"/>
</svg>
