<svg xmlns="http://www.w3.org/2000/svg" width="42" height="43" viewBox="0 0 42 43"><g><g><g><path fill="none" stroke="#35506f" stroke-miterlimit="20" d="M1.143 21.396c0-11.145 9.034-20.18 20.178-20.18 11.145 0 20.18 9.035 20.18 20.18 0 11.144-9.035 20.178-20.18 20.178-11.144 0-20.178-9.034-20.178-20.178z"/></g><g><g><path fill="#2e4560" d="M25.269 12.569c1.012.046 1.703.207 2.307.442a4.664 4.664 0 0 1 1.684 1.096 4.66 4.66 0 0 1 1.096 1.684c.236.605.396 1.296.443 2.308.046 1.013.056 1.337.056 3.919s-.01 2.905-.056 3.92c-.047 1.011-.207 1.702-.443 2.307a4.66 4.66 0 0 1-1.096 1.683 4.664 4.664 0 0 1-1.684 1.097c-.604.235-1.295.396-2.307.442-1.014.046-1.338.057-3.92.057-2.581 0-2.905-.011-3.92-.057-1.01-.046-1.702-.207-2.307-.442a4.656 4.656 0 0 1-1.683-1.097 4.662 4.662 0 0 1-1.097-1.683c-.235-.605-.395-1.296-.441-2.308-.047-1.014-.058-1.337-.058-3.92 0-2.58.01-2.905.058-3.918.046-1.012.206-1.703.441-2.308a4.662 4.662 0 0 1 1.097-1.684 4.656 4.656 0 0 1 1.683-1.096c.605-.235 1.296-.396 2.308-.442 1.014-.046 1.338-.057 3.92-.057zm-7.76 1.71c-.928.043-1.431.198-1.766.328-.444.173-.76.379-1.093.712a2.95 2.95 0 0 0-.711 1.092c-.13.335-.285.838-.328 1.765-.045 1.003-.055 1.304-.055 3.842 0 2.538.01 2.839.055 3.841.043.927.198 1.43.328 1.765.173.444.378.76.711 1.093.332.333.65.539 1.093.711.335.131.838.286 1.765.328 1.002.046 1.303.055 3.842.055 2.538 0 2.838-.01 3.84-.055.927-.042 1.43-.197 1.766-.328.444-.172.76-.378 1.093-.71a2.94 2.94 0 0 0 .711-1.094c.13-.334.285-.838.327-1.765.046-1.002.056-1.303.056-3.841 0-2.538-.01-2.84-.056-3.842-.042-.927-.197-1.43-.327-1.765a2.942 2.942 0 0 0-.711-1.092 2.944 2.944 0 0 0-1.093-.712c-.335-.13-.839-.285-1.766-.327-1.002-.046-1.302-.056-3.84-.056z"/></g><g><path fill="#2e4560" d="M21.35 25.186a3.169 3.169 0 1 1 3.168-3.168zm0-8.05a4.881 4.881 0 1 0 4.881 4.882z"/></g><g><path fill="#2e4560" d="M27.564 16.943a1.141 1.141 0 1 1-2.282 0 1.141 1.141 0 0 1 2.282 0"/></g></g></g></g></svg>