<svg xmlns="http://www.w3.org/2000/svg" width="39" height="39" viewBox="0 0 39 39"><defs><clipPath id="ndppa"><path fill="#fff" d="M.214 19.12C.214 8.54 8.792-.038 19.372-.038c10.58 0 19.158 8.577 19.158 19.158 0 10.58-8.577 19.158-19.158 19.158C8.792 38.278.214 29.7.214 19.12z"/></clipPath></defs><g><g><path fill="#fff" d="M25.34 23.594c-1.772 1.862-3.93 3.445-5.536 4.504-1.606-1.06-3.764-2.642-5.535-4.504-2.148-2.258-3.237-4.392-3.237-6.343a4.603 4.603 0 0 1 4.598-4.598c1.46 0 2.8.67 3.679 1.84l.495.659.495-.66a4.564 4.564 0 0 1 3.679-1.839 4.603 4.603 0 0 1 4.598 4.598c0 1.951-1.089 4.085-3.237 6.343zm-1.362-12.18c-.934 0-1.826.215-2.652.637a5.882 5.882 0 0 0-1.522 1.122 5.882 5.882 0 0 0-1.522-1.122 5.774 5.774 0 0 0-2.652-.636 5.843 5.843 0 0 0-5.837 5.836c0 2.28 1.204 4.7 3.578 7.196 1.983 2.084 4.41 3.82 6.097 4.91l.336.218.336-.217c1.687-1.09 4.114-2.827 6.096-4.91 2.375-2.496 3.579-4.917 3.579-7.197a5.843 5.843 0 0 0-5.837-5.836z"/></g><g><path fill="none" stroke="#e8e5e5" stroke-miterlimit="20" stroke-width="2.8" d="M.214 19.12C.214 8.54 8.792-.038 19.372-.038c10.58 0 19.158 8.577 19.158 19.158 0 10.58-8.577 19.158-19.158 19.158C8.792 38.278.214 29.7.214 19.12z" clip-path="url(&quot;#ndppa&quot;)"/></g></g></svg>