<svg width="24" height="24" viewBox="0 0 24 24" fill="none" xmlns="http://www.w3.org/2000/svg">
<path d="M12.5996 17.5L12.5994 17.5002C12.4218 17.6327 12.2112 17.7 11.9999 17.7C11.7886 17.7 11.578 17.6327 11.4004 17.5002L11.4002 17.5C10.8182 17.0648 9.71975 16.2236 8.66976 15.3103C8.14488 14.8537 7.62883 14.3764 7.19429 13.9206C6.76359 13.4688 6.39755 13.0225 6.18785 12.6287C5.18697 10.7491 5.77225 8.33478 7.5287 7.23559L12.5996 17.5ZM12.5996 17.5C13.1816 17.0648 14.2801 16.2236 15.3302 15.3103C15.8551 14.8538 16.3712 14.3764 16.8057 13.9206C17.2364 13.4688 17.6025 13.0225 17.8122 12.6287C18.8131 10.749 18.2275 8.33472 16.4713 7.23557L16.4713 7.23556C15.8927 6.87345 15.2588 6.7 14.6317 6.7C13.6507 6.7 12.6968 7.1238 11.9999 7.89265M12.5996 17.5L11.9999 7.89265M11.9999 7.89265C11.3034 7.12396 10.3493 6.7 9.36815 6.7C8.74108 6.7 8.10715 6.87343 7.52876 7.23555L11.9999 7.89265ZM15.8883 8.16989L15.8882 8.16985C15.5018 7.92791 15.0672 7.80178 14.6317 7.80178C13.8634 7.80178 13.1374 8.17529 12.6419 8.84326C12.6419 8.84327 12.6419 8.84329 12.6419 8.84331L12.2409 9.38409L12 9.709L11.759 9.38416L11.3577 8.84333L11.3577 8.84324C10.8627 8.17556 10.1364 7.80178 9.36815 7.80178C8.93262 7.80178 8.49803 7.92791 8.1116 8.16985L8.11156 8.16988C6.8623 8.95179 6.41811 10.7198 7.15844 12.1103L15.8883 8.16989ZM15.8883 8.16989C17.1378 8.95181 17.5819 10.7198 16.8416 12.1104C16.6819 12.4102 16.3665 12.7965 15.9464 13.2301C15.5309 13.6589 15.0302 14.1166 14.5175 14.5585C13.5314 15.4083 12.5133 16.1884 12 16.5736M15.8883 8.16989L12 16.5736M12 16.5736C11.4867 16.1885 10.4686 15.4083 9.48246 14.5585C8.96976 14.1167 8.46906 13.6589 8.05361 13.2301C7.63352 12.7965 7.31816 12.4102 7.15846 12.1104L12 16.5736ZM12.0581 16.617C12.0582 16.6172 12.0584 16.6173 12.0586 16.6174L12.0585 16.6174C12.0584 16.6173 12.0582 16.6171 12.0581 16.617Z" fill="#6B5B73" stroke="#6B5B73" stroke-width="0.6"/>
</svg>
