<svg width="105" height="40" viewBox="0 0 105 40" fill="none" xmlns="http://www.w3.org/2000/svg">
  <path d="M0 13.9079V19.607L15.398 17.918V11.7457L0 13.9079Z" fill="#1B1B1B"/>
  <path d="M4.91211 19.9545V39.4914H10.5504V19.3816L4.91211 19.9545Z" fill="#1B1B1B"/>
  <path d="M17.4746 11.4538V39.4914H23.4163V10.6185L17.4746 11.4538Z" fill="#1B1B1B"/>
  <path d="M24.5215 10.4632V16.9127L33.0973 15.9739V9.26205L24.5215 10.4632Z" fill="#1B1B1B"/>
  <path d="M24.5215 21.7138V28.2815L30.1524 27.9747V21.2296L24.5215 21.7138Z" fill="#1B1B1B"/>
  <path d="M24.5215 33.016V39.4914H33.0973V32.7573L24.5215 33.016Z" fill="#1B1B1B"/>
  <path d="M55.2773 6.13895V39.4914H63.0614V5.04494L55.2773 6.13895Z" fill="#1B1B1B"/>
  <path d="M64.5137 4.83797V12.5108L75.8605 11.2653V3.24501L64.5137 4.83797Z" fill="#1B1B1B"/>
  <path d="M64.5137 18.2839V26.0972L71.9537 25.6906V17.6445L64.5137 18.2839Z" fill="#1B1B1B"/>
  <path d="M64.5137 31.8074V39.4914H75.8605V31.4674L64.5137 31.8074Z" fill="#1B1B1B"/>
  <path d="M35.3652 8.94418V39.4914H42.1319V7.99062L35.3652 8.94418Z" fill="#1B1B1B"/>
  <path d="M43.3926 32.4468V39.4914H53.2152V32.1512L43.3926 32.4468Z" fill="#1B1B1B"/>
  <path d="M101.3 2.86802C98.8398 0.546948 95.2327 -0.406611 91.2851 0.158872V8.6596C92.8834 8.5709 94.1782 9.16225 94.7554 10.356C95.6655 12.2373 94.7258 15.0573 92.5097 17.6704C89.0875 21.7064 79.9863 29.9632 79.9863 29.9632L93.0499 29.5344C101.034 21.7433 103.897 17.0162 104.412 11.1137C104.551 9.59371 104.343 8.06189 103.805 6.63361C103.266 5.20533 102.409 3.91781 101.3 2.86802Z" fill="#1B1B1B"/>
  <path d="M78.377 31.3861L78.3806 39.4914H104.874V30.5878L78.377 31.3861Z" fill="#1B1B1B"/>
  <path d="M89.7622 0.351067C82.0669 1.98838 78.2932 7.64691 78.7224 16.8794L86.9282 16.1402C86.5583 10.9252 88.1528 9.68708 89.7659 9.00702L89.7622 0.351067Z" fill="#1B1B1B"/>
</svg>
