<svg width="87" height="33" viewBox="0 0 87 33" fill="none"
  xmlns="http://www.w3.org/2000/svg">
  <path d="M0 11.5497V16.3378L12.5141 14.9188V9.73315L0 11.5497Z" fill="white"/>
  <path d="M3.82324 16.4656V32.6757H8.68983V15.9902L3.82324 16.4656Z" fill="white"/>
  <path d="M14.252 9.3842V32.6756H19.1185V8.69031L14.252 9.3842Z" fill="white"/>
  <path d="M20.1621 8.62985V13.9045L27.1144 13.1367V7.64746L20.1621 8.62985Z" fill="white"/>
  <path d="M20.1621 17.7863V23.29L24.6811 23.033V17.3806L20.1621 17.7863Z" fill="white"/>
  <path d="M20.1621 27.3274V32.6756H27.1144V27.1138L20.1621 27.3274Z" fill="white"/>
  <path d="M45.5371 5.07667V32.6757H51.7941V4.17139L45.5371 5.07667Z" fill="white"/>
  <path d="M53.1846 4.09563V10.4284L62.5701 9.40037V2.78088L53.1846 4.09563Z" fill="white"/>
  <path d="M53.1846 15.1256V21.552L59.4416 21.2176V14.5997L53.1846 15.1256Z" fill="white"/>
  <path d="M53.1846 26.3508V32.6756H62.5701V26.0709L53.1846 26.3508Z" fill="white"/>
  <path d="M29.2002 7.39393V32.6757H34.762V6.60474L29.2002 7.39393Z" fill="white"/>
  <path d="M35.8037 26.6706V32.6756H43.7988V26.4186L35.8037 26.6706Z" fill="white"/>
  <path d="M83.6088 2.36237C81.5815 0.450519 78.6091 -0.334924 75.3563 0.130863V7.13288C76.6733 7.05981 77.7403 7.54691 78.2159 8.53023C78.9658 10.0798 78.1915 12.4027 76.3654 14.555C73.5454 17.8794 66.0459 24.6805 66.0459 24.6805L76.8105 24.3274C83.3893 17.9099 85.749 14.0162 86.1727 9.15433C86.2876 7.9023 86.1166 6.64054 85.6725 5.46408C85.2284 4.28761 84.5228 3.22709 83.6088 2.36237Z" fill="white"/>
  <path d="M64.6553 26.0303L64.6583 32.6756H86.5549V25.3757L64.6553 26.0303Z" fill="white"/>
  <path d="M74.0388 0.347656C67.7597 1.69061 64.6806 6.33186 65.0308 13.9046L71.7264 13.2983C71.4246 9.0208 72.7257 8.00525 74.0418 7.44745L74.0388 0.347656Z" fill="white"/>
</svg>
