<svg width="83" height="68" viewBox="0 0 83 68" fill="none" xmlns="http://www.w3.org/2000/svg">
<path d="M10.8342 25.482L2.54889 35.4087H0.144043L9.64668 24.0278L0.3221 12.9634H2.905L10.8938 22.5104L18.8818 12.9634H21.2866L12.1112 23.9648L21.6733 35.4087H19.2081L10.8342 25.482Z" fill="#020202"/>
<path d="M62.0736 25.4598C61.6578 25.5545 61.2123 25.6176 60.7074 25.7124C59.8755 25.8389 58.6883 25.9654 57.4112 25.9654C53.5802 25.9654 51.3828 24.3529 51.3828 20.0539V16.5764H53.2244V19.8954C53.2244 23.0252 54.6793 24.1633 57.4112 24.1633C58.718 24.1633 59.8755 24.0686 60.7074 23.9422C61.2123 23.8474 61.6578 23.7839 62.0736 23.6891V16.5764H63.9143V31.8138H62.0736V25.4598Z" fill="#020202"/>
<path d="M73.2351 38.8952H71.3047L74.4227 31.6557L67.6816 16.5763H69.79L75.4029 29.348L80.9258 16.5763H82.8561L73.2351 38.8952Z" fill="#020202"/>
<path d="M0.144287 38.4734H21.6736V40.4018H11.8885V60.9186H9.9293V40.4018H0.144287V38.4734Z" fill="#020202"/>
<path d="M32.106 57.6307C31.7191 58.6423 30.1158 61.2982 26.5525 61.2982C22.6324 61.2982 19.5144 58.0101 19.5144 53.2999C19.5144 48.5895 22.6324 45.3017 26.5525 45.3017C30.0563 45.3017 31.7789 47.9571 32.106 48.8739V45.6811H33.9765V60.9186H32.106V57.6307ZM26.8201 47.1666C23.6126 47.1666 21.4447 49.9172 21.4447 53.2999C21.4447 56.6508 23.6126 59.4326 26.8201 59.4326C29.9967 59.4326 32.1647 56.6508 32.1647 53.2999C32.1647 49.9172 29.9967 47.1666 26.8201 47.1666" fill="#020202"/>
<path d="M44.1518 47.4832H37.9155V45.6813H52.2583V47.4832H46.0225V60.9187H44.1518V47.4832Z" fill="#020202"/>
<path d="M60.7392 68H58.8089L61.927 60.7605L55.1858 45.6811H57.2942L62.9073 58.4531L68.4299 45.6811H70.3603L60.7392 68Z" fill="#020202"/>
<path d="M29.2481 9.65058C25.4103 16.0302 23.4644 20.8606 23.4644 24.0076C23.4644 31.6571 28.9448 37.8841 35.693 37.9168H35.7997C42.5479 37.8841 48.0288 31.6571 48.0288 24.0076C48.0288 20.8606 46.0829 16.0302 42.2452 9.65042C39.4399 4.98793 35.7464 2.75333e-06 35.7464 2.75333e-06C35.7464 2.75333e-06 32.0532 4.98793 29.2481 9.65058Z" fill="url(#paint0_radial)"/>
<defs>
<radialGradient id="paint0_radial" cx="0" cy="0" r="1" gradientUnits="userSpaceOnUse" gradientTransform="translate(35.7466 26.4411) rotate(180) scale(16.6516 17.7268)">
<stop stop-color="#8C1913"/>
<stop offset="1" stop-color="#1D1E1C"/>
</radialGradient>
</defs>
</svg>
