<svg xmlns="http://www.w3.org/2000/svg" fill="none" viewBox="0 0 210 56">
  <defs/>
  <path fill="#E72430" d="M41.62 34.48l-6.93 6.88v13.85h164.37l6.94-6.88V34.48H41.62z"/>
  <path fill="#1F1F1F" d="M45.8 13.7h-4.16v-3.36h12.18v3.35h-4.17v10.44h-3.84V13.7zM55.84 10.34H67v3.25h-7.35v2.1h6.66v3h-6.66v2.2h7.45v3.24H55.84V10.34zM73.44 17.12l-4.56-6.78h4.42l2.46 3.89 2.48-3.88h4.32L78 17.08l4.76 7.05h-4.42l-2.66-4.15L73 24.13h-4.32l4.76-7zM84.58 10.34h3.84v5.17h4.94v-5.17h3.85v13.8h-3.85v-5.25h-4.94v5.24h-3.84V10.34zM110.54 17.24c0-1.99-1.44-3.72-3.56-3.72-2.1 0-3.52 1.69-3.52 3.72 0 1.99 1.45 3.72 3.56 3.72 2.12 0 3.52-1.69 3.52-3.72zm-11.02 0c0-3.96 3.21-7.17 7.5-7.17 4.28 0 7.45 3.17 7.45 7.17 0 3.96-3.21 7.17-7.5 7.17-4.28 0-7.45-3.17-7.45-7.17zM116.8 10.34h3.85v5.17h4.93v-5.17h3.85v13.8h-3.85v-5.25h-4.93v5.24h-3.85V10.34zM132.43 10.34h3.8v7.77l5.38-7.77h3.58v13.8h-3.8v-7.77L136 24.13h-3.58V10.34zM148.19 10.34h3.85v5.6l4.78-5.6h4.56l-5.26 5.93 5.43 7.86h-4.62l-3.48-5.12-1.41 1.56v3.56h-3.85V10.34zM172.6 17.24c0-1.99-1.44-3.72-3.56-3.72-2.1 0-3.5 1.69-3.5 3.72 0 1.99 1.44 3.72 3.54 3.72 2.12 0 3.53-1.69 3.53-3.72zm-11.01 0c0-3.96 3.2-7.17 7.49-7.17 4.28 0 7.46 3.17 7.46 7.17 0 3.96-3.22 7.17-7.5 7.17-4.28 0-7.45-3.17-7.45-7.17zM199.57 20.92c1.27 0 2.03-.57 2.03-1.65 0-.97-.76-1.6-2-1.6h-2.03v3.25h2zm-5.85-10.58h3.85v4.34h2.1c3.33 0 5.77 1.57 5.77 4.68 0 2.98-2.18 4.77-5.57 4.77h-6.15V10.35z"/>
  <path fill="#E72430" d="M34.7 27.58l-6.94 6.9H2.1L0 32.4V6.9L6.94 0h25.67l2.1 2.08v25.5z"/>
  <path fill="#fff" d="M32.61 0l-7.8 7.75v11.33l-6.4-8.74H4.95v2.75H8.9v10.46L0 32.4v2.08h2.1l9.8-9.75V13.09h3.97v11.04h2.96V15.4l6.4 8.73h2.53V8.97l6.94-6.9V0h-2.09z"/>
  <path fill="#1F1F1F" d="M179.94 10.34v6.05c0 1.43-.14 3.5-1.1 4.23-.44.35-1.18.6-1.64.6v3.26h.36c1.33 0 2.82-.53 3.4-.9 2.31-1.46 2.6-4.24 2.6-7.38v-2.5h3.32v10.43h3.85V10.34h-10.79z"/>
  <path fill="#fff" d="M61.69 48.44v-7.42h-1.6v2.91h-3.53v-2.9h-1.59v7.4h1.6v-3.1h3.52v3.1h1.6zm9.5 0l-2.87-7.42h-1.99l-2.88 7.42h1.8l.48-1.26h3.2l.46 1.26h1.8zm-2.7-2.65h-2.33l1.17-3.19 1.16 3.19zm8.54 2.65c1.42 0 2.17-.9 2.17-2 0-.94-.64-1.7-1.43-1.83.7-.14 1.29-.77 1.29-1.7 0-.99-.73-1.89-2.15-1.89h-3.93v7.42h4.05zm-.47-4.45h-1.99v-1.61h2c.53 0 .86.34.86.8 0 .48-.33.8-.87.8zm.06 3.08h-2.05v-1.72h2.05c.62 0 .96.4.96.86 0 .54-.36.86-.96.86zm6.4 1.37l3.56-4.97v4.97h1.59v-7.42h-1.64l-3.45 4.8v-4.8h-1.6v7.42h1.54zm9.3 0V42.4h3.7v-1.39h-5.29v7.42h1.6zm12.14 0l-2.88-7.42h-2l-2.88 7.42h1.81l.47-1.26h3.2l.46 1.26h1.81zm-2.71-2.65h-2.33l1.16-3.19 1.17 3.19zm7.1 2.65V42.4h2.17v-1.39h-5.96v1.4h2.18v6.02h1.6zm7.54.13c2.26 0 3.9-1.6 3.9-3.84a3.74 3.74 0 00-3.9-3.83c-2.25 0-3.9 1.6-3.9 3.83a3.73 3.73 0 003.9 3.84zm0-1.4c-1.38 0-2.26-1.06-2.26-2.44 0-1.39.88-2.43 2.26-2.43s2.27 1.04 2.27 2.43c0 1.38-.9 2.44-2.27 2.44zm7.7 1.27V45.8h1.9c1.61 0 2.5-1.1 2.5-2.39 0-1.3-.88-2.39-2.5-2.39h-3.49v7.42h1.59zm1.69-4.03h-1.69v-2h1.69c.63 0 1.1.38 1.1 1 0 .61-.47 1-1.1 1zm10.36 4.03V45.8h1.9c1.62 0 2.51-1.1 2.51-2.39 0-1.3-.88-2.39-2.5-2.39h-3.5v7.42h1.6zm1.7-4.03h-1.7v-2h1.7c.62 0 1.09.38 1.09 1 0 .61-.47 1-1.1 1zm8.32 4.16c2.26 0 3.9-1.6 3.9-3.84a3.74 3.74 0 00-3.9-3.83c-2.25 0-3.9 1.6-3.9 3.83a3.74 3.74 0 003.9 3.84zm0-1.4c-1.38 0-2.26-1.06-2.26-2.44 0-1.39.88-2.43 2.26-2.43s2.27 1.04 2.27 2.43c0 1.38-.9 2.44-2.27 2.44zm9.73 1.4c1.64 0 2.58-.9 3.12-1.82l-1.37-.66a2 2 0 01-1.75 1.08c-1.36 0-2.34-1.04-2.34-2.44s.98-2.43 2.34-2.43c.77 0 1.44.48 1.75 1.08l1.37-.67a3.42 3.42 0 00-3.12-1.81c-2.24 0-3.97 1.55-3.97 3.83 0 2.28 1.73 3.84 3.97 3.84zm8.77 0c1.65 0 2.59-.9 3.13-1.82l-1.37-.66a2 2 0 01-1.76 1.08c-1.35 0-2.34-1.04-2.34-2.44s.99-2.43 2.34-2.43c.78 0 1.45.48 1.76 1.08l1.37-.67a3.42 3.42 0 00-3.13-1.81c-2.23 0-3.97 1.55-3.97 3.83 0 2.28 1.74 3.84 3.97 3.84zm6.7-.13l3.55-4.97v4.97h1.6v-7.42h-1.64l-3.46 4.8v-4.8h-1.59v7.42h1.54zm9.2 0l1.49-2.64h1.15v2.64h1.59v-7.42h-3.5c-1.55 0-2.5 1.01-2.5 2.4 0 1.3.83 2 1.63 2.2l-1.67 2.82h1.82zm.97-4.03c-.64 0-1.12-.38-1.12-1s.48-1 1.12-1h1.67v2h-1.67z"/>
</svg>
