<svg width="109" height="97" viewBox="0 0 109 97" fill="none" xmlns="http://www.w3.org/2000/svg">
  <path d="M7.69018 43.4878L1.5046 49.6793L0 47.9103L1.5046 43.4878L4.01227 37.886H12.0368L16.7178 36.117L32.2653 34.7903L40.1227 30.6626L57.342 28.0091L69.0445 21.965L93.2853 5.15957L96.2945 0L104.152 4.27508L109 8.55015L106.994 9.8769L96.2945 8.55015L92.6166 12.0881L80.4126 24.9134L69.0445 41.2766L70.3819 46.4362L74.7285 53.6596L76.7347 59.5562V80.1945V90.5137L79.0752 91.693L82.9202 94.3465V96.5577H79.0752L74.7285 97L71.7193 96.5577V94.3465L72.8896 88.3024V73.5608V62.5046L69.0445 59.5562L70.3819 62.5046L71.7193 70.9073L69.0445 73.5608L63.5276 74.7401L59.181 67.6641V59.5562L57.342 64.5684L59.181 73.5608V88.3024L60.8528 92.7249L62.023 95.5258L60.8528 96.5577H57.342H54.5H48.3144V92.7249L54.5 91.693V88.3024V80.1945L53.3298 73.5608L51.9923 67.6641L50.1534 62.5046L51.9923 56.9027V47.9103L50.1534 42.3085L7.69018 43.4878Z" fill="#393E4A"/>
  <path d="M68.8774 51.0061C68.8774 54.2631 65.8839 56.9027 62.1903 56.9027C58.4967 56.9027 55.5032 54.2631 55.5032 51.0061C55.5032 47.7491 58.4967 45.1094 62.1903 45.1094C65.8839 45.1094 68.8774 47.7491 68.8774 51.0061Z" fill="#393E4A"/>
  <path d="M59.1822 53.6584C59.1822 52.1923 60.5287 51.0049 62.1914 51.0049C63.854 51.0049 65.2006 49.8175 65.2006 48.3514C65.2006 46.9774 64.0173 45.8476 62.4996 45.7117C62.3964 45.7071 62.2959 45.6979 62.1914 45.6979C58.8674 45.6979 56.173 48.0738 56.173 51.0049C56.173 53.8438 58.7042 56.1564 61.8832 56.2981C60.3655 56.1622 59.1822 55.0324 59.1822 53.6584ZM62.1914 47.4669C62.7452 47.4669 63.1945 47.8631 63.1945 48.3514C63.1945 48.8397 62.7452 49.2359 62.1914 49.2359C61.6376 49.2359 61.1883 48.8397 61.1883 48.3514C61.1883 47.8631 61.6376 47.4669 62.1914 47.4669Z" fill="white"/>
  <path d="M63.1933 53.6575C63.1933 54.1458 62.744 54.542 62.1902 54.542C61.6364 54.542 61.1871 54.1458 61.1871 53.6575C61.1871 53.1692 61.6364 52.773 62.1902 52.773C62.744 52.773 63.1933 53.1692 63.1933 53.6575Z" fill="white"/>
</svg>
