<svg width="74" height="71" viewBox="0 0 74 71" fill="none" xmlns="http://www.w3.org/2000/svg">
  <path d="M4.07425 29.3847C3.36696 24.4336 5.07496 17.5194 6.00418 14.8032C3.64538 17.8053 0 25.7394 0 34.3167C0 41.6933 3.5739 48.112 5.36085 50.3993L14.5815 47.8261C8.7918 42.6797 4.93196 35.3889 4.07425 29.3847Z" fill="currentColor"/>
  <path fill-rule="evenodd" clip-rule="evenodd" d="M36.0528 40.9915C36.1696 40.9561 36.2941 40.9547 36.4117 40.9873L71.15 50.6369C71.4284 50.7142 71.6211 50.9677 71.6211 51.2567V58.9763C71.6211 59.3316 71.3331 59.6196 70.9778 59.6196H3.00219C2.6469 59.6196 2.35889 59.3316 2.35889 58.9763V51.6856C2.35889 51.4022 2.54433 51.1522 2.81552 51.07L36.0528 40.9915ZM36.2473 42.277L3.64549 52.1627V58.333H70.3345V51.7457L36.2473 42.277Z" fill="currentColor"/>
  <path d="M15.4391 59.4053C19.2989 61.907 30.1493 65.4094 42.6722 59.4053H15.4391Z" fill="currentColor"/>
  <path d="M27.6619 66.9105C20.8 66.7389 15.5106 64.1228 13.7236 62.8362C17.7979 66.9105 31.393 72.7431 42.0289 69.4837C52.6649 66.2243 58.04 61.4067 59.3981 59.4053H49.3197C42.8867 64.5517 36.2392 67.1249 27.6619 66.9105Z" fill="currentColor"/>
  <path fill-rule="evenodd" clip-rule="evenodd" d="M61.9715 8.79851C59.0409 6.94008 51.3356 3.309 43.959 3.65209C34.7384 4.08096 11.365 11.3716 11.7939 41.3924C9.14923 35.4597 5.87552 21.1927 13.9382 11.5861C22.001 1.97942 34.1665 -0.136328 39.2415 0.00662858C43.5302 -0.0648177 52.9653 0.864438 61.9715 8.79851ZM24.2311 14.5882C27.5191 12.3009 36.2394 7.76922 44.8168 7.94076C55.5385 8.1552 61.9715 13.7305 66.6891 19.0913C71.4066 24.4522 77.4108 34.745 70.9777 50.8276H69.9056C71.6925 45.8241 69.4767 29.9181 59.6127 21.6646C49.7488 13.411 39.8848 13.3016 24.2311 14.5882ZM36.4538 15.6604L22.0868 23.38V45.2523L36.025 40.9636L50.8209 45.2523V23.38L36.4538 15.6604ZM34.0951 20.5924L29.8064 22.9512V27.0254L34.0951 24.6666V20.5924ZM23.8023 25.9533L28.091 23.8089V27.8832L23.8023 30.0275V25.9533ZM28.091 29.8133L23.8023 31.9576V36.0318L28.091 33.8875V29.8133ZM29.8064 28.9555L34.3095 26.5968L34.0951 31.3143L29.8064 33.2442V28.9555ZM28.3055 35.6031L23.8023 37.7474V42.2505L28.3055 40.7495V35.6031ZM30.021 35.1743L34.3097 33.03V38.8197L30.021 40.3207V35.1743Z" fill="currentColor"/>
  <path fill-rule="evenodd" clip-rule="evenodd" d="M19.7281 48.0406V57.2612H20.8003V53.6159C21.2292 53.6873 22.2156 53.7016 22.7302 53.187C22.8175 53.0997 22.897 53.0242 22.9695 52.9552C23.4317 52.516 23.617 52.3399 23.8024 51.0426C23.9739 49.8418 23.7309 48.5409 23.5879 48.0406C23.5165 47.7547 23.1162 47.2257 22.0869 47.3973C21.0576 47.5688 20.0855 47.8976 19.7281 48.0406ZM12.8662 50.1849L13.9384 49.756V52.9726C14.453 52.9726 14.7247 51.9719 14.7961 51.4715C14.8676 51.0426 15.0963 50.0563 15.4394 49.5416C15.7825 49.027 16.4401 48.8983 16.726 48.8983V50.1849C16.2114 50.1849 15.9398 50.7567 15.8683 51.0426C15.8683 51.2571 15.8254 51.8146 15.6539 52.3293C15.4823 52.8439 15.0106 53.1155 14.7961 53.187C15.3108 53.187 15.7253 53.9018 15.8683 54.2592L16.9405 57.2612H15.6539C15.2965 56.2605 14.5388 54.2163 14.3673 54.0447C14.1957 53.8732 14.0099 53.9732 13.9384 54.0447V57.2612H12.8662V50.1849ZM8.57754 51.2571L7.50537 51.686L9.64971 55.5458C9.64971 55.7602 9.64971 55.9746 9.43528 56.1891C9.14954 56.4748 8.82478 56.5335 8.5115 56.5902L8.51136 56.5902C8.46158 56.5992 8.4121 56.6081 8.36311 56.6179V57.2612C9.43528 57.4757 9.86415 56.9753 10.0786 56.6179C10.293 56.2605 10.7219 54.9025 10.7219 54.9025L12.2229 50.1849L11.1508 50.6138L10.0786 54.0447L8.57754 51.2571ZM20.8003 49.3271C21.1577 49.1841 21.87 49.0041 22.087 49.1126C22.1329 49.1356 22.1788 49.1561 22.2239 49.1763C22.6003 49.3443 22.9217 49.4879 22.7303 50.8282C22.5587 52.029 21.3722 52.1863 20.8003 52.1148V49.3271Z" fill="currentColor"/>
  <path d="M29.3773 49.5415C29.3773 46.6252 27.9478 45.7531 27.233 45.6816C25.346 45.8532 24.7313 48.3263 24.6598 49.5415L25.732 49.7559C25.8034 49.0411 26.1608 47.6115 27.0186 47.6115C27.8763 47.6115 28.2337 49.0411 28.3052 49.7559V50.6136L26.5897 50.8281V52.5435H28.0907V54.0446C28.0192 54.5449 27.6619 55.5456 26.8041 55.5456C25.9464 55.5456 25.732 53.9731 25.732 53.1868L24.6598 54.0446C24.4882 56.7893 26.0179 57.4755 26.8041 57.4755C28.5196 57.1324 29.0914 54.9023 29.1629 53.8301C29.2344 53.6157 29.3773 52.4578 29.3773 49.5415Z" fill="currentColor"/>
  <path d="M30.2354 45.0381V57.2608H31.3075V47.3968L32.3797 57.2608H33.4519L34.524 47.3968V57.2608H35.5962V43.7515L33.8807 43.9659L32.8086 53.1866L31.9508 44.6092L30.2354 45.0381Z" fill="currentColor"/>
  <path d="M40.9571 44.8236L36.6684 43.7515V57.2608H37.7405V46.1102L39.8849 46.5391V57.2608H40.9571V44.8236Z" fill="currentColor"/>
  <path d="M45.0312 45.6817L43.7446 45.4673L45.6745 54.0447C45.6745 55.7601 45.2457 55.7601 44.6024 55.7601V57.2612C46.3178 57.9045 46.6038 55.6887 46.7467 54.688L48.4622 46.7539L47.39 46.5395L46.3178 51.6859L45.0312 45.6817Z" fill="currentColor"/>
  <path d="M48.6766 48.2549V46.7539C49.9632 46.9683 50.2634 47.6545 50.6065 49.5415C50.9496 51.4286 51.3213 51.7574 51.4643 51.6859V47.6116L52.5364 47.8261V51.9003C52.7509 51.9003 53.0634 51.5077 53.1797 51.0426C53.3942 50.1848 53.6086 49.1127 54.0375 48.6838C54.3806 48.3407 55.0382 48.3979 55.3241 48.4694V49.756C54.4663 49.5415 54.2519 50.1848 54.0375 51.4714C53.8965 52.3175 53.6086 52.5436 53.3942 52.5436C54.0804 52.8867 54.3949 53.9732 54.4663 54.4735L55.3241 57.2612H54.0375C53.966 56.7608 53.7373 55.5028 53.3942 54.4735C53.0511 53.4442 52.6794 53.044 52.5364 52.9725V57.2612H51.4643V52.9725L51.0354 53.1869L49.9632 57.2612H48.6766C48.9625 56.2605 49.5772 54.0875 49.7488 53.4014C49.9203 52.7152 50.3921 52.2577 50.6065 52.1147C49.7488 51.9003 49.7488 49.5415 49.5344 48.8982C49.3628 48.3836 48.891 48.2549 48.6766 48.2549Z" fill="currentColor"/>
  <path d="M60.6849 52.1147H59.6128C59.3983 51.6144 58.9695 50.6137 58.1117 50.6137C57.4255 50.6137 57.111 51.4714 57.0395 51.9003V54.4735C57.111 55.0453 57.4684 56.189 58.3262 56.189C59.1839 56.189 59.5413 55.0453 59.6128 54.4735L60.4705 55.1168C60.4705 55.1168 60.4705 55.5457 60.2561 56.189C60.0416 56.8323 59.527 57.4756 58.3262 57.4756C57.1253 57.4756 56.3962 56.189 56.1818 55.5457C56.0389 55.1883 55.7958 54.0018 55.9674 52.1147C56.1389 50.2277 56.7536 49.613 57.0395 49.5415C57.254 49.3271 57.9402 49.0269 58.9695 49.5415C59.9987 50.0562 60.542 51.4714 60.6849 52.1147Z" fill="currentColor"/>
  <path d="M62.6147 50.6134L61.5425 50.1846V57.4753H62.6147V54.4733C63.4724 54.4733 64.1157 56.3317 64.3301 57.2609H65.6167C65.4023 56.832 64.9734 55.7599 64.9734 55.7599C64.9734 55.7599 64.5446 54.2588 63.6868 54.0444C64.5446 53.83 64.5446 52.3289 64.759 52.1145C64.9305 51.9429 65.4023 52.043 65.6167 52.1145V51.2567C63.9013 50.8279 63.6868 52.1145 63.4724 52.7578C63.3294 53.1866 62.8291 53.544 62.6147 53.6155V50.6134Z" fill="currentColor"/>
  <path d="M64.9735 49.327C66.6889 38.8626 63.5439 30.2423 61.757 27.2402C62.4432 36.3322 60.0415 44.6094 58.7549 47.6115L64.9735 49.327Z" fill="currentColor"/>
</svg>
