<svg width="66" height="54" viewBox="0 0 66 54" fill="none"
  xmlns="http://www.w3.org/2000/svg">
  <path fill-rule="evenodd" clip-rule="evenodd" d="M23.0568 7.19898C25.2843 3.72087 28.2173 0 28.2173 0C28.2173 0 31.1503 3.72087 33.3777 7.19886C36.4256 11.9579 37.9711 15.5611 37.9711 17.9088C37.9711 23.6298 33.5956 28.2843 28.2174 28.2843C22.8391 28.2843 18.4636 23.6298 18.4636 17.9088C18.4636 15.5611 20.009 11.9579 23.0568 7.19898ZM32.1863 7.96201C30.8608 5.89248 29.2626 3.71173 28.2173 2.32503C27.1719 3.71173 25.5737 5.89248 24.2483 7.96201C20.6366 13.6013 19.8785 16.4837 19.8785 17.9088C19.8785 22.8497 23.6194 26.8694 28.2174 26.8694C32.8154 26.8694 36.5561 22.8497 36.5561 17.9088C36.5561 16.4837 35.7979 13.6012 32.1863 7.96201ZM1.90973 27.0069L8.48925 19.6021L15.1391 27.0069H17.0968L9.50333 18.4703L16.7897 10.2638H14.88L8.53662 17.3855L2.19253 10.2638H0.141399L7.54623 18.5173L0 27.0069H1.90973ZM48.5196 22.3847C48.7529 22.347 48.9709 22.3118 49.1794 22.2671V27.0069H50.6413V15.6406H49.1794V20.9463C48.97 20.9911 48.7511 21.0266 48.5167 21.0646L48.5165 21.0646L48.5157 21.0647C48.3808 21.0866 48.2407 21.1093 48.0944 21.1351C47.4341 21.2293 46.5147 21.3 45.477 21.3C43.3075 21.3 42.152 20.451 42.152 18.1165V15.6406H40.6896V18.2346C40.6896 21.4414 42.4348 22.6443 45.477 22.6443C46.491 22.6443 47.4341 22.5499 48.0944 22.4555C48.2422 22.4295 48.3835 22.4066 48.5196 22.3847ZM58.0429 32.2893H56.51L58.9859 26.8889L53.633 15.6406H55.3072L59.7646 25.1675L64.1503 15.6406H65.6832L58.0429 32.2893ZM17.0969 31.9746H0V33.4131H7.77047V48.7177H9.32647V33.4131H17.0969V31.9746ZM25.3813 46.265C25.0742 47.0196 23.801 49.0008 20.9714 49.0008C17.8582 49.0008 15.3821 46.5481 15.3821 43.0345C15.3821 39.5208 17.8582 37.0682 20.9714 37.0682C23.7537 37.0682 25.1216 39.049 25.3813 39.7329V37.3512H26.8668V48.7176H25.3813V46.265ZM21.1837 38.4593C18.6367 38.4593 16.915 40.5112 16.915 43.0345C16.915 45.5341 18.6367 47.6092 21.1837 47.6092C23.7064 47.6092 25.428 45.5341 25.428 43.0345C25.428 40.5112 23.7064 38.4593 21.1837 38.4593ZM29.9948 38.6955H34.9474V48.7176H36.4329V38.6955H41.3849V37.3513H29.9948V38.6955ZM48.1198 54H46.5869L49.0628 48.5997L43.7097 37.3513H45.384L49.8414 46.8783L54.2271 37.3513H55.76L48.1198 54Z" fill="#010000"/>
</svg>
