<svg width="100" height="100" viewBox="0 0 100 100" fill="none" xmlns="http://www.w3.org/2000/svg">
  <path d="M6.22449 97.7359H10.9184L12.3469 93.2076L21.1224 86.5409L34.5918 73.3333L51.7347 66.6667L70.5102 69.5598L68.5714 77.8616L72.551 91.9497L70.5102 95.4717V100H85.5102V97.7359L74.898 91.9497L75.9184 84.5283L77.6531 70.8176L75.9184 61.5094L57.6531 53.8365L54.2857 47.4214L56.3265 38.4906L63.4694 28.9308L70.5102 30.4403H80.102L91.0204 27.2956L100 28.9308L97.7551 25.4088L92.551 24.2767L78.5714 25.4088L67.6531 21.3836H53.3673L51.7347 18.239L52.551 15.3459L54.2857 13.0818V8.93082V3.52201L51.7347 0H44.6939L41.8367 3.52201V8.93082L43.7755 15.7233L47.6531 18.239V21.3836H35.6122L27.551 25.4088H6.22449L0 27.2956L2.85714 28.9308L12.3469 27.2956L19.2857 28.9308L27.551 30.4403L35.6122 27.2956L44.6939 38.4906L45.7143 47.4214L41.8367 53.8365L34.5918 59.2453L27.551 66.6667L14.3878 86.5409L6.22449 93.2076V97.7359Z" fill="currentColor"/>
</svg>
