<svg xmlns="http://www.w3.org/2000/svg" width="15" height="17" viewBox="0 0 15 17"><g><g><g><path fill="#bfc0c4" d="M6.986 8.19c1.125 0 2.1-.403 2.895-1.199a3.963 3.963 0 0 0 1.2-2.896c0-1.125-.404-2.099-1.2-2.895A3.963 3.963 0 0 0 6.986 0C5.86 0 4.886.404 4.09 1.2a3.963 3.963 0 0 0-1.2 2.895c0 1.126.404 2.1 1.2 2.896.796.796 1.77 1.2 2.896 1.2z"/></g><g><path fill="#bfc0c4" d="M14.151 13.075c-.022-.331-.069-.693-.137-1.074a8.465 8.465 0 0 0-.265-1.08 5.336 5.336 0 0 0-.444-1.008 3.802 3.802 0 0 0-.67-.873 2.952 2.952 0 0 0-.961-.604 3.325 3.325 0 0 0-1.228-.222c-.174 0-.342.07-.666.282l-.693.447a3.973 3.973 0 0 1-.897.395 3.562 3.562 0 0 1-1.098.178c-.364 0-.733-.06-1.097-.178a3.963 3.963 0 0 1-.897-.395 94.574 94.574 0 0 1-.694-.447c-.323-.211-.491-.282-.665-.282a3.32 3.32 0 0 0-1.228.222 2.95 2.95 0 0 0-.962.604 3.803 3.803 0 0 0-.67.873 5.346 5.346 0 0 0-.443 1.008A8.483 8.483 0 0 0 .172 12c-.069.38-.115.742-.138 1.074C.01 13.401 0 13.738 0 14.08c0 .888.282 1.607.838 2.137.55.522 1.277.788 2.161.788h8.187c.885 0 1.612-.265 2.161-.788.557-.53.839-1.249.839-2.137 0-.342-.012-.68-.035-1.004z"/></g></g></g></svg>