<svg width="24" height="24" viewBox="0 0 24 24" fill="none" xmlns="http://www.w3.org/2000/svg">
<path d="M19.7823 13.4612H19.7846C19.7243 13.3322 19.6752 13.1884 19.6406 13.0327C19.5222 12.509 19.5878 11.9634 19.7851 11.5386H19.7823C20.0086 11.1376 20.0699 10.6515 19.9116 10.1827C19.7533 9.71397 19.4066 9.3551 18.9782 9.15872L18.9801 9.15735C18.8522 9.08686 18.7257 8.99802 18.6021 8.89229C18.1865 8.53521 17.9065 8.05599 17.8066 7.60188L17.8042 7.60326C17.7466 7.18348 17.5298 6.78475 17.1684 6.49825C17.1399 6.4758 17.1109 6.45383 17.0805 6.43279C16.6663 6.14257 16.1666 6.0492 15.7002 6.1325L15.7007 6.13021C15.5542 6.14486 15.3978 6.14533 15.2333 6.1293C14.6789 6.07528 14.1597 5.84684 13.8011 5.53512L13.8002 5.53787C13.4736 5.2069 13.0119 5 12.4999 5C11.9878 5 11.5266 5.20693 11.1998 5.53787L11.1989 5.53468C11.0891 5.6299 10.9626 5.71963 10.82 5.79927C10.3387 6.06889 9.77915 6.17829 9.29841 6.12886L9.29984 6.13252C8.8334 6.0492 8.33319 6.1426 7.91952 6.43282C7.63185 6.63331 7.42409 6.90202 7.30382 7.1991C7.25056 7.32909 7.21441 7.46506 7.19539 7.60329L7.19301 7.60144C7.1631 7.74014 7.11459 7.88387 7.048 8.02945C6.82357 8.52018 6.43747 8.92481 6.01857 9.15644L6.02143 9.15872C5.59349 9.3551 5.24641 9.71397 5.08856 10.1827C4.92974 10.6515 4.99154 11.1376 5.2179 11.5386H5.21458C5.27496 11.6686 5.32347 11.8119 5.35865 11.9671C5.47706 12.4912 5.41139 13.0373 5.21458 13.4613H5.2179C4.99154 13.8632 4.92974 14.3493 5.08856 14.8181C5.24645 15.2868 5.59352 15.6457 6.02143 15.8417L6.01909 15.8435C6.14697 15.9139 6.27396 16.0028 6.3966 16.109C6.81264 16.4661 7.09271 16.9449 7.19256 17.3999L7.19542 17.3972C7.20634 17.4732 7.22205 17.5482 7.24298 17.6224C7.34569 17.9895 7.57488 18.3274 7.91955 18.5681C8.17582 18.7467 8.46493 18.8519 8.75878 18.8849C8.93995 18.906 9.12208 18.9005 9.29987 18.8684L9.29893 18.8712C9.4454 18.8565 9.60227 18.8556 9.76633 18.8721C10.3203 18.9261 10.8395 19.1541 11.1985 19.4663L11.1999 19.4626C11.5266 19.794 11.9878 20 12.4999 20C13.012 20 13.4737 19.794 13.8003 19.4626L13.8008 19.4644C13.9106 19.3692 14.0372 19.2804 14.1803 19.2008C14.6615 18.9307 15.2207 18.8217 15.7013 18.8712L15.7003 18.8684C15.7584 18.8785 15.8159 18.8867 15.8748 18.8913C16.289 18.9251 16.7179 18.8217 17.0807 18.5681C17.4011 18.3438 17.6222 18.0372 17.734 17.6993C17.7672 17.6004 17.7901 17.4997 17.8043 17.3972L17.8063 17.399C17.8362 17.2599 17.8843 17.1162 17.9513 16.9706C18.1763 16.4799 18.5623 16.0752 18.9812 15.8436L18.9783 15.8417C19.4068 15.6458 19.7534 15.286 19.9118 14.8182C20.07 14.3492 20.0086 13.8622 19.7823 13.4612Z" fill="#231437"/>
<path d="M13.878 14.8763L13.8785 14.8763L10.2178 11.6405C10.1707 11.6494 10.1267 11.671 10.0907 11.7029C10.0547 11.7349 10.0278 11.7761 10.013 11.8221C9.99822 11.8682 9.99599 11.9174 10.0066 11.9647C10.0172 12.0119 10.0402 12.0554 10.0732 12.0905L10.0366 12.1247L10.0367 12.1247L10.983 13.1356L10.8059 14.5159L10.8059 14.5162C10.7989 14.5727 10.8071 14.6302 10.8296 14.6825C10.8521 14.7348 10.8881 14.7801 10.9339 14.8137C10.9797 14.8473 11.0337 14.868 11.0901 14.8734C11.1466 14.8789 11.2035 14.8689 11.2548 14.8447L11.255 14.8446L12.5 14.2499L13.7446 14.8444C13.7447 14.8444 13.7447 14.8444 13.7448 14.8445C13.7864 14.8647 13.8318 14.8756 13.878 14.8763ZM14.7914 11.5914L13.4361 11.3336L14.9269 12.0905C14.9598 12.0554 14.9828 12.0119 14.9934 11.9647C15.004 11.9174 15.0018 11.8682 14.987 11.8221C14.9722 11.7761 14.9453 11.7349 14.9093 11.7029C14.8732 11.671 14.8293 11.6494 14.7822 11.6405L14.7915 11.5914L14.7915 11.5914C14.7915 11.5914 14.7915 11.5914 14.7914 11.5914ZM14.017 13.1356L14.9633 12.1247L14.1941 14.5159L14.1941 14.5159L14.017 13.1356Z" fill="white" stroke="white" stroke-width="0.1"/>
</svg>
