<svg xmlns="http://www.w3.org/2000/svg" fill="none" viewBox="0 0 15 18">
  <defs/>
  <path fill="#231437" d="M14.78 8.46a2.38 2.38 0 010-1.92c.23-.4.29-.89.13-1.36-.16-.47-.5-.82-.93-1.02a2.45 2.45 0 01-1.17-1.56 1.7 1.7 0 00-.73-1.17 1.84 1.84 0 00-1.38-.3c-.15.01-.3.02-.47 0A2.61 2.61 0 018.8.53 1.82 1.82 0 007.5 0c-.51 0-.97.2-1.3.54a2.65 2.65 0 01-1.9.6c-.47-.1-.97 0-1.38.3A1.72 1.72 0 002.2 2.6a2.5 2.5 0 01-1.17 1.55c-.44.2-.78.56-.94 1.03-.16.47-.1.96.13 1.36a2.38 2.38 0 010 1.92c-.23.4-.29.89-.13 1.36.16.47.5.83.93 1.02a2.45 2.45 0 011.17 1.56 1.74 1.74 0 001.57 1.48c.18.03.36.02.54-.01h.47c.55.06 1.07.28 1.43.6.33.32.79.53 1.3.53s.97-.2 1.3-.54a2.64 2.64 0 011.9-.6 1.86 1.86 0 001.38-.3 1.72 1.72 0 00.72-1.16 2.5 2.5 0 011.17-1.56c.44-.2.78-.55.94-1.02.16-.47.1-.96-.13-1.36z"/>
  <g filter="url(#filter0_d)">
    <path fill="#fff" d="M8.77 9.8a.26.26 0 00.22 0 .27.27 0 00.15-.28l-.18-1.4.97-1.03a.27.27 0 00-.15-.45L8.4 6.38l-.67-1.24A.27.27 0 007.5 5a.26.26 0 00-.23.14l-.68 1.24-1.37.26a.27.27 0 00-.2.18.27.27 0 00.05.27l.97 1.03-.18 1.4a.27.27 0 00.1.25.27.27 0 00.27.03l1.27-.6 1.27.6z"/>
    <path d="M8.88 9.88a.31.31 0 01-.14-.04L7.5 9.25l-1.25.6a.31.31 0 01-.42-.17.32.32 0 01-.02-.16l.17-1.38-.94-1.02.03-.03a.27.27 0 01.15-.45l3.66 3.24zm0 0a.31.31 0 00.3-.23.32.32 0 00.01-.13l-.17-1.38.94-1.02-1.08 2.76zm.91-3.29l-1.35-.26 1.49.76a.27.27 0 00-.15-.45l.01-.05z"/>
  </g>
  <defs>
    <filter id="filter0_d" width="13.2" height="13.03" x=".9" y="4.9" color-interpolation-filters="sRGB" filterUnits="userSpaceOnUse">
      <feFlood flood-opacity="0" result="BackgroundImageFix"/>
      <feColorMatrix in="SourceAlpha" values="0 0 0 0 0 0 0 0 0 0 0 0 0 0 0 0 0 0 127 0"/>
      <feOffset dy="4"/>
      <feGaussianBlur stdDeviation="2"/>
      <feColorMatrix values="0 0 0 0 0 0 0 0 0 0 0 0 0 0 0 0 0 0 0.25 0"/>
      <feBlend in2="BackgroundImageFix" result="effect1_dropShadow"/>
      <feBlend in="SourceGraphic" in2="effect1_dropShadow" result="shape"/>
    </filter>
  </defs>
</svg>
