<svg width="261" height="51" viewBox="0 0 261 51" fill="none"
  xmlns="http://www.w3.org/2000/svg">
  <path d="M19.1396 23.0208L27.0882 22.4649L26.6529 16.2401L18.7043 16.796L19.1396 23.0208ZM9.27567 23.7105L8.84039 17.4857L0.891794 18.0415L1.32707 24.2663L9.27567 23.7105ZM10.2769 17.3853L12.6207 50.9034L19.6116 50.4146L17.2678 16.8964L10.2769 17.3853ZM39.3522 21.6074L53.6693 20.6062L53.234 14.3814L38.9169 15.3826L39.3522 21.6074ZM40.2797 34.871L53.8306 33.9234L53.4054 27.8422L39.8545 28.7898L40.2797 34.871ZM41.2608 48.9007L56.2003 47.856L55.765 41.6312L40.8255 42.6759L41.2608 48.9007ZM37.4805 15.483L30.4895 15.9719L32.8333 49.49L39.8243 49.0012L37.4805 15.483ZM65.6305 13.5146L58.6395 14.0034L60.9833 47.5216L67.9743 47.0327L65.6305 13.5146ZM69.4108 46.9323L82.3392 46.0282L81.9039 39.8034L68.9755 40.7075L69.4108 46.9323ZM92.7063 17.8765L107.023 16.8753L106.588 10.6505L92.271 11.6517L92.7063 17.8765ZM93.6338 31.1401L107.185 30.1925L106.759 24.1114L93.2086 25.0589L93.6338 31.1401ZM94.6149 45.1698L109.554 44.1252L109.119 37.9004L94.1796 38.945L94.6149 45.1698ZM90.8345 11.7521L83.8436 12.241L86.1874 45.7591L93.1784 45.2703L90.8345 11.7521ZM113.332 43.861L115.295 43.7237L128.941 31.7507C132.794 28.3537 136.52 24.5324 136.135 19.0258C135.703 12.8489 131.305 8.44099 123.904 8.57357L124.303 14.2717C127.11 14.5084 128.936 17.2197 129.083 19.3265C129.317 22.6783 128.378 24.38 122.166 29.8186L112.917 37.9235L113.332 43.861ZM125.127 37.0697L117.689 43.5563L137.8 42.15L137.385 36.2125L125.127 37.0697ZM122.468 8.67401C114.775 9.45251 111.411 15.7024 111.746 20.4907L111.933 23.1722L118.691 23.4695C118.657 22.9907 118.454 21.4651 118.374 20.3159C118.186 17.6345 120.068 14.9527 122.866 14.3721L122.468 8.67401ZM155.996 12.8253C159.85 12.8926 162.496 15.6427 163.495 18.2194L169.611 14.8565C167.067 10.1265 162.938 6.13275 155.544 6.36109L155.996 12.8253ZM158.008 41.603C165.841 40.7666 169.655 35.4476 171.304 30.8093L164.478 28.159C163.542 31.9776 161.08 34.6037 157.556 35.1388L158.008 41.603ZM156.12 35.2393C150.87 35.1733 147.8 30.4801 147.388 24.5905C146.909 17.7432 150.037 13.6269 154.56 12.9258L154.107 6.46154C147.472 7.21426 139.209 12.2188 140.113 25.1473C140.793 34.8675 146.924 42.0413 156.572 41.7035L156.12 35.2393ZM181.402 7.63243L173.153 39.6779L180.048 39.1957L181.321 34.0063L192.478 33.2261L190.127 27.809L182.753 28.3246L185.423 16.9747L181.402 7.63243ZM181.966 5.37958L196.137 38.0707L203.415 37.5618L189.244 4.87064L181.966 5.37958ZM213.969 18.9723L214.367 24.6704L218.485 24.3824L225.985 35.9836L233.694 35.4445L225.495 22.7856C228.695 21.0702 231.035 18.0676 230.65 12.5611C230.178 5.80954 225.508 2.33482 218.565 2.82032L212.867 3.21877L213.279 9.10839L218.786 8.72334C221.275 8.54922 223.442 9.93751 223.669 13.1936C223.924 16.8327 222.013 18.4098 219.475 18.5873L213.969 18.9723ZM211.431 3.31922L204.44 3.80808L206.784 37.3262L213.775 36.8374L211.431 3.31922ZM244.024 7.29529L258.341 6.29415L257.906 0.0693466L243.589 1.07049L244.024 7.29529ZM244.952 20.5589L258.503 19.6113L258.077 13.5302L244.527 14.4778L244.952 20.5589ZM245.933 34.5886L260.872 33.544L260.437 27.3192L245.498 28.3638L245.933 34.5886ZM242.153 1.17094L235.162 1.65979L237.505 35.1779L244.496 34.6891L242.153 1.17094Z" fill="#C3E400"/>
</svg>
