<svg width="17" height="17" viewBox="0 0 17 17" fill="none"
  xmlns="http://www.w3.org/2000/svg">
  <path d="M8.49986 7.87561C8.33427 7.87561 8.17546 7.9414 8.05836 8.05849C7.94127 8.17558 7.87549 8.33439 7.87549 8.49999V10.9994C7.87549 11.1652 7.94137 11.3243 8.05864 11.4415C8.17591 11.5588 8.33496 11.6247 8.5008 11.6247C8.66664 11.6247 8.82569 11.5588 8.94296 11.4415C9.06023 11.3243 9.12611 11.1652 9.12611 10.9994V8.49999C9.12611 8.41784 9.1099 8.33649 9.07841 8.26062C9.04691 8.18474 9.00075 8.11583 8.94258 8.05782C8.8844 7.99982 8.81535 7.95387 8.73938 7.9226C8.66341 7.89133 8.58202 7.87537 8.49986 7.87561Z" fill="#F2994A"/>
  <path d="M8.49986 6.625C8.8447 6.625 9.12424 6.34546 9.12424 6.00063C9.12424 5.65579 8.8447 5.37625 8.49986 5.37625C8.15503 5.37625 7.87549 5.65579 7.87549 6.00063C7.87549 6.34546 8.15503 6.625 8.49986 6.625Z" fill="#F2994A"/>
  <path d="M8.5 0.95C7.00675 0.95 5.54704 1.3928 4.30545 2.2224C3.06386 3.05201 2.09615 4.23116 1.52471 5.61074C0.953271 6.99032 0.803756 8.50837 1.09507 9.97293C1.38639 11.4375 2.10546 12.7828 3.16135 13.8387C4.21723 14.8945 5.56251 15.6136 7.02707 15.9049C8.49163 16.1962 10.0097 16.0467 11.3893 15.4753C12.7688 14.9038 13.948 13.9361 14.7776 12.6946C15.6072 11.453 16.05 9.99325 16.05 8.5C16.05 6.49761 15.2546 4.57724 13.8387 3.16134C12.4228 1.74544 10.5024 0.95 8.5 0.95ZM8.49994 14.6994C7.27384 14.6994 6.07528 14.3358 5.05581 13.6546C4.03633 12.9734 3.24174 12.0052 2.77253 10.8724C2.30331 9.73961 2.18054 8.49312 2.41975 7.29056C2.65895 6.088 3.24938 4.98338 4.11638 4.11638C4.98338 3.24938 6.088 2.65895 7.29056 2.41974C8.49312 2.18054 9.73961 2.30331 10.8724 2.77252C12.0052 3.24174 12.9734 4.03633 13.6546 5.05581C14.3358 6.07528 14.6994 7.27384 14.6994 8.49994C14.6974 10.1435 14.0436 11.7192 12.8814 12.8814C11.7192 14.0436 10.1435 14.6974 8.49994 14.6994Z" fill="#F2994A" stroke="#F2994A" stroke-width="0.1"/>
</svg>
