<svg xmlns="http://www.w3.org/2000/svg" fill="none" viewBox="0 0 24 24">
  <defs/>
  <mask id="a" width="14" height="14" x="5" y="5" fill="#000" maskUnits="userSpaceOnUse">
    <path fill="#fff" d="M5 5h14v14H5z"/>
    <path fill-rule="evenodd" d="M14.89 8.89a2.9 2.9 0 11-5.79 0 2.9 2.9 0 015.79 0zm-1.02 0a1.87 1.87 0 10-3.75 0 1.87 1.87 0 003.75 0zM6 18.07a6 6 0 0112 0h-1.02a4.99 4.99 0 00-9.96 0H6z" clip-rule="evenodd"/>
  </mask>
  <path fill="#6B5B73" fill-rule="evenodd" d="M14.89 8.89a2.9 2.9 0 11-5.79 0 2.9 2.9 0 015.79 0zm-1.02 0a1.87 1.87 0 10-3.75 0 1.87 1.87 0 003.75 0zM6 18.07a6 6 0 0112 0h-1.02a4.99 4.99 0 00-9.96 0H6z" clip-rule="evenodd"/>
  <path fill="#6B5B73" d="M6 18.07h-.3c0 .16.13.3.3.3v-.3zm12 0v.3a.3.3 0 00.3-.3H18zm-1.02 0h-.3c0 .16.14.3.3.3v-.3zm-9.96 0v.3a.3.3 0 00.3-.3h-.3zm4.98-6a3.2 3.2 0 003.19-3.18h-.6A2.6 2.6 0 0112 11.48v.6zM8.81 8.9A3.2 3.2 0 0012 12.08v-.6a2.6 2.6 0 01-2.59-2.6h-.6zM12 5.7a3.2 3.2 0 00-3.19 3.19h.6A2.6 2.6 0 0112 6.3v-.6zm3.19 3.19A3.2 3.2 0 0012 5.7v.6a2.6 2.6 0 012.59 2.59h.6zM12 7.32c.87 0 1.57.7 1.57 1.57h.6c0-1.2-.97-2.17-2.17-2.17v.6zm-1.57 1.57c0-.87.7-1.57 1.57-1.57v-.6c-1.2 0-2.17.97-2.17 2.17h.6zM12 10.46c-.87 0-1.57-.7-1.57-1.57h-.6c0 1.2.97 2.17 2.17 2.17v-.6zm1.57-1.57c0 .87-.7 1.57-1.57 1.57v.6c1.2 0 2.17-.97 2.17-2.17h-.6zM12 11.77a6.3 6.3 0 00-6.3 6.3h.6a5.7 5.7 0 015.7-5.7v-.6zm6.3 6.3a6.3 6.3 0 00-6.3-6.3v.6a5.7 5.7 0 015.7 5.7h.6zm-1.32.3H18v-.6h-1.02v.6zM12 13.38c2.58 0 4.68 2.1 4.68 4.69h.6A5.29 5.29 0 0012 12.78v.6zm-4.68 4.69c0-2.59 2.1-4.69 4.68-4.69v-.6a5.29 5.29 0 00-5.28 5.29h.6zm-1.32.3h1.02v-.6H6v.6z" mask="url(#a)"/>
</svg>
