<svg width="468" height="92" viewBox="0 0 468 92" fill="none" xmlns="http://www.w3.org/2000/svg">
  <path d="M31.8187 90.4271L13.0075 33.6335L0.77025 34.5514L19.0026 91.3884L31.8187 90.4271ZM25.3649 63.1393L32.5545 84.7177L36.4052 52.9153L48.9343 89.1432L60.9235 88.2439L41.1201 31.5248L29.2136 32.4179L25.3649 63.1393ZM53.8475 60.4208L61.6903 82.948L69.6461 29.3851L57.6569 30.2844L53.8475 60.4208ZM91.2294 38.5756L115.952 36.7212L115.146 25.9722L90.4231 27.8267L91.2294 38.5756ZM92.9473 61.4791L116.347 59.7239L115.559 49.223L92.1597 50.9782L92.9473 61.4791ZM94.7645 85.7056L120.562 83.7705L119.756 73.0216L93.9583 74.9566L94.7645 85.7056ZM87.9426 28.0127L75.8707 28.9182L80.2121 86.7971L92.284 85.8916L87.9426 28.0127ZM136.552 24.3666L124.48 25.2721L128.821 83.151L140.893 82.2455L136.552 24.3666ZM143.374 82.0594L165.698 80.3849L164.892 69.6359L142.567 71.3105L143.374 82.0594ZM180.074 21.102L168.002 22.0075L172.344 79.8864L184.415 78.9809L180.074 21.102ZM186.896 78.7949L209.221 77.1203L208.414 66.3714L186.09 68.0459L186.896 78.7949ZM207.936 59.6722L227.201 58.2271L226.445 48.1396L207.179 49.5847L207.936 59.6722ZM252.946 73.8405L264.688 72.9598C276.759 72.0543 283.628 64.9703 282.853 54.6348C282.357 48.02 277.681 42.2177 272.22 41.4633L272.201 41.2152C276.53 39.0613 279.38 34.9394 278.903 28.5727C278.177 18.8987 270.103 14.3491 260.015 15.1057L248.605 15.9616L249.362 26.0491L259.118 25.3172C262.426 25.0691 266.386 25.7699 266.746 30.5655C267.081 35.0305 264.71 37.786 258.343 38.2635L250.323 38.8651L251.03 48.2911L260.787 47.5593C265.5 47.2057 270.178 48.601 270.636 54.7196C270.953 58.9365 267.474 62.4403 262.678 62.8L252.177 63.5877L252.946 73.8405ZM246.124 16.1477L234.053 17.0532L238.394 74.9321L250.466 74.0266L246.124 16.1477ZM302.542 22.7252L327.265 20.8708L326.459 10.1219L301.736 11.9763L302.542 22.7252ZM304.26 45.6287L327.66 43.8736L326.872 33.3727L303.473 35.1279L304.26 45.6287ZM306.077 69.8552L331.875 67.9202L331.069 57.1712L305.271 59.1063L306.077 69.8552ZM299.255 12.1624L287.184 13.0679L291.525 70.9468L303.597 70.0413L299.255 12.1624ZM352.206 66.3951L347.865 8.51624L335.793 9.42174L340.134 67.3006L352.206 66.3951ZM406.937 52.6445L403.315 4.35699L391.822 5.21907L394.11 35.7295L406.937 52.6445ZM358.475 17.3657L362.097 65.6532L373.59 64.7911L371.308 34.3634L358.475 17.3657ZM396.163 63.098L407.656 62.2359L407.284 57.2748L369.166 6.91844L357.756 7.77432L358.128 12.7354L396.163 63.098ZM440.248 11.3152C448.063 11.311 452.034 16.5841 453.777 19.8625L463.633 13.8017C461.156 8.49958 453.587 -0.411634 439.41 0.152808L440.248 11.3152ZM443.975 61.0083C448.917 60.3882 453.736 58.1143 456.816 53.7258L456.981 53.7134L457.341 58.5091L467.759 57.7276L465.365 25.8115L441.304 27.6163L442.061 37.7038L455.29 36.7115C455.712 42.334 452.527 48.6428 443.138 49.846L443.975 61.0083ZM440.657 50.032C431.589 49.9639 426.243 41.8836 425.48 31.7135C424.593 19.8897 429.962 12.7519 437.767 11.5012L436.93 0.338869C425.474 1.69706 411.244 10.4142 412.919 32.7389C414.178 49.5238 424.832 61.8622 441.494 61.1944L440.657 50.032Z" fill="#C3E400"/>
</svg>
