<?xml version="1.0" standalone="no"?>
<!DOCTYPE svg PUBLIC "-//W3C//DTD SVG 20010904//EN" "http://www.w3.org/TR/2001/REC-SVG-20010904/DTD/svg10.dtd">
<svg version="1.0" xmlns="http://www.w3.org/2000/svg" width="1680.000000pt" height="1680.000000pt" viewBox="0 0 1680.000000 1680.000000" preserveAspectRatio="xMidYMid meet">
<metadata>Created by potrace 1.11, written by Peter Selinger 2001-2013</metadata>
  <g transform="translate(0.000000,1680.000000) scale(0.100000,-0.100000)" fill="#000000" stroke="none">
    <path d="M14779 11596 c-2 -2 -33 -6 -69 -10 -36 -3 -74 -8 -85 -10 -19 -3
-20 -13 -20 -675 0 -370 2 -676 5 -680 3 -3 28 -7 55 -7 164 -2 303 -51 403
-144 176 -163 195 -485 46 -808 -13 -29 -24 -55 -24 -57 0 -8 -111 -197 -141
-238 -55 -78 -64 -90 -76 -103 -7 -7 -13 -17 -13 -22 0 -6 -3 -12 -8 -14 -4
-1 -32 -32 -62 -67 -30 -36 -62 -72 -70 -81 -8 -9 -55 -61 -105 -115 -49 -55
-238 -248 -420 -430 -328 -329 -538 -531 -891 -860 -64 -60 -134 -126 -155
-145 -20 -19 -81 -75 -135 -125 -210 -193 -221 -205 -194 -200 14 2 117 6 230
10 113 3 259 8 325 10 66 3 198 7 293 10 95 2 177 7 182 10 5 3 11 1 15 -5 4
-6 11 -7 17 -4 6 4 51 8 102 9 50 2 183 6 296 10 214 7 323 11 503 16 l108 3
237 241 c203 207 278 285 424 446 60 67 97 109 148 169 30 36 60 70 65 76 53
60 188 233 279 359 47 66 95 131 106 145 11 14 20 29 20 33 0 4 5 13 10 20 42
50 153 244 233 407 40 80 72 147 72 150 1 3 16 43 34 90 44 113 68 186 98 300
26 99 30 115 38 165 3 17 8 37 10 45 2 8 7 31 9 50 3 19 8 51 10 70 35 238 36
430 5 600 -18 99 -20 105 -30 138 -6 18 -12 39 -13 45 -14 71 -88 247 -149
352 -94 164 -264 359 -401 461 -34 25 -68 50 -76 57 -48 38 -204 121 -322 172
-62 26 -230 77 -303 91 -11 2 -31 6 -45 9 -14 3 -43 7 -65 10 -22 2 -51 7 -65
11 -27 6 -434 16 -441 10z"/>
    <path d="M14290 11528 c-19 -5 -44 -11 -55 -13 -11 -2 -21 -4 -22 -5 -2 -2 -6
-3 -10 -4 -21 -5 -130 -38 -143 -43 -8 -3 -19 -7 -25 -9 -66 -17 -316 -127
-385 -170 -81 -49 -175 -109 -180 -114 -3 -3 -21 -17 -40 -30 -19 -12 -39 -28
-45 -34 -5 -6 -23 -22 -40 -34 -123 -95 -305 -307 -396 -462 -24 -41 -46 -77
-49 -80 -5 -5 -79 -164 -105 -225 -34 -83 -70 -188 -80 -231 -2 -10 -13 -50
-24 -89 -20 -73 -48 -206 -56 -263 -2 -19 -6 -45 -9 -60 -20 -103 -30 -276
-30 -517 l-1 -240 35 1 c41 0 201 13 245 19 17 2 66 7 110 10 88 7 124 10 223
20 37 4 92 9 122 11 30 3 75 7 100 9 25 2 74 7 110 10 36 3 86 7 112 10 25 3
81 8 123 11 43 3 85 8 94 9 9 2 21 4 26 4 6 1 10 76 11 203 0 215 6 303 24
384 7 27 13 56 15 65 6 31 58 174 64 179 4 3 19 26 34 52 15 25 48 69 74 96
49 51 165 132 190 132 7 0 13 5 13 12 0 6 3 8 7 5 3 -4 13 -1 22 7 14 13 16
85 14 683 -1 367 -2 676 -2 686 -1 19 -17 20 -71 5z"/>
    <path d="M12077 11074 c-1 -1 -26 -5 -56 -9 -30 -4 -61 -8 -70 -10 -9 -1 -38
-6 -66 -9 -27 -4 -61 -9 -75 -11 -14 -2 -61 -9 -106 -15 -44 -6 -90 -12 -101
-14 -11 -3 -44 -7 -74 -11 -30 -3 -65 -8 -79 -10 -14 -2 -61 -9 -105 -15 -44
-7 -96 -14 -115 -15 -19 -2 -37 -4 -40 -5 -14 -6 -153 -24 -172 -23 -10 0 -18
-2 -18 -6 0 -3 -15 -6 -33 -7 -17 0 -50 -3 -72 -7 -94 -15 -217 -32 -305 -42
-19 -3 -51 -7 -70 -10 -19 -3 -53 -8 -75 -10 -22 -3 -49 -7 -60 -9 -11 -3 -30
-5 -41 -5 -19 -1 -22 -6 -20 -43 1 -24 -1 -51 -6 -60 -4 -9 -5 -19 -1 -21 10
-6 9 -130 -1 -145 -3 -6 -3 -13 1 -15 10 -6 9 -130 -1 -145 -3 -6 -3 -13 1
-15 10 -6 9 -130 -1 -145 -3 -6 -3 -13 1 -15 10 -6 9 -130 -1 -145 -3 -6 -3
-13 1 -15 10 -6 9 -130 -1 -145 -3 -6 -3 -13 1 -15 10 -6 9 -130 -1 -145 -3
-6 -3 -13 1 -15 5 -3 8 -37 7 -77 l0 -72 65 8 c36 4 82 8 101 10 19 2 53 6 75
8 22 3 65 8 95 11 30 3 69 8 85 10 17 2 57 7 90 10 33 3 74 8 90 10 17 3 57 7
90 10 33 3 78 8 100 11 22 2 56 6 75 8 19 2 60 7 90 10 30 4 78 9 105 11 28 2
50 5 50 5 0 1 14 3 30 4 50 5 158 17 185 21 14 3 54 7 90 10 36 3 81 8 100 10
19 3 62 7 95 10 33 4 87 10 120 14 33 5 63 7 67 4 4 -2 9 6 12 19 3 13 4 303
4 644 l-1 622 -29 -2 c-16 0 -30 -2 -31 -2z"/>
    <path d="M9990 10778 c-19 -4 -60 -9 -90 -12 -71 -7 -175 -23 -175 -26 0 -1
-100 -12 -132 -14 -13 0 -23 -3 -23 -6 0 -3 -10 -5 -22 -6 -21 0 -60 -5 -148
-19 -19 -3 -55 -8 -80 -10 -25 -2 -56 -6 -69 -9 -14 -3 -45 -8 -70 -11 -50 -6
-93 -12 -143 -20 -18 -3 -44 -7 -58 -9 -14 -1 -50 -6 -80 -10 l-55 -8 0 -2666
0 -2667 283 0 c155 0 282 -4 282 -8 0 -5 5 -5 12 -1 14 9 502 9 517 0 6 -4 11
-4 11 1 0 4 31 7 70 6 l70 -2 0 2755 0 2755 -32 -3 c-18 -1 -49 -5 -68 -10z"/>
    <path d="M6699 10316 c-2 -2 -26 -6 -54 -9 -27 -4 -66 -9 -85 -11 -19 -3 -55
-7 -80 -10 -25 -3 -56 -8 -70 -10 -14 -3 -45 -7 -70 -10 -25 -3 -56 -8 -69
-11 -13 -2 -47 -7 -75 -10 -47 -4 -72 -8 -136 -20 -14 -3 -52 -8 -85 -11 -74
-8 -100 -12 -100 -14 0 -1 -16 -3 -35 -5 -60 -5 -173 -24 -178 -30 -2 -2 -5
-1101 -6 -2443 l-1 -2439 170 -1 c94 0 175 -1 180 -2 6 -1 15 -1 20 0 6 1 167
2 358 3 191 0 350 4 353 9 4 6 8 4500 4 4986 0 34 -3 42 -18 42 -10 0 -21 -2
-23 -4z"/>
    <path d="M5269 10116 c-3 -4 -53 -10 -159 -22 -14 -1 -25 -3 -25 -4 0 -2 -35
-7 -100 -14 -27 -3 -61 -8 -75 -11 -14 -2 -45 -7 -70 -10 -25 -4 -56 -8 -70
-10 -14 -3 -47 -7 -75 -10 -27 -3 -61 -8 -75 -10 -14 -2 -43 -6 -65 -10 -23
-3 -52 -8 -65 -10 -14 -3 -49 -8 -79 -11 -30 -3 -62 -7 -71 -9 -8 -2 -43 -6
-75 -10 -33 -4 -69 -9 -80 -12 -11 -2 -38 -6 -60 -8 -22 -3 -49 -7 -61 -9 -12
-2 -45 -7 -75 -11 -30 -4 -57 -9 -60 -10 -3 -2 -5 -235 -5 -517 1 -507 1 -513
21 -511 37 3 140 14 175 19 60 7 123 14 180 19 30 3 71 7 90 10 19 3 59 7 87
10 29 3 67 7 85 9 18 2 62 7 98 11 36 3 83 8 104 11 22 3 60 7 85 10 25 2 60
6 76 8 17 2 59 7 95 10 36 4 81 10 100 12 19 2 64 6 99 9 35 3 66 7 70 9 3 2
6 244 6 537 0 500 -3 558 -26 535z"/>
    <path d="M3677 9893 c-3 -2 -85 -15 -117 -18 -14 -1 -45 -6 -70 -10 -25 -4
-56 -9 -70 -10 -68 -7 -134 -16 -139 -19 -3 -2 -35 -7 -70 -10 -35 -4 -67 -8
-70 -10 -3 -2 -37 -7 -76 -11 -38 -4 -72 -8 -75 -10 -3 -2 -27 -6 -55 -9 -86
-10 -128 -16 -134 -20 -3 -2 -6 -1011 -6 -2243 l0 -2238 476 -1 475 -1 0 2308
0 2308 -34 -2 c-18 -1 -34 -3 -35 -4z"/>
    <path d="M2375 9710 c-27 -4 -70 -11 -95 -15 -25 -4 -63 -9 -85 -10 -22 -2
-40 -4 -40 -5 0 -2 -25 -7 -75 -13 -25 -4 -60 -9 -78 -11 -84 -13 -110 -16
-152 -22 -25 -3 -56 -7 -70 -9 -30 -3 -117 -16 -145 -21 -20 -4 -303 -42 -360
-49 -16 -2 -43 -6 -60 -9 -36 -6 -118 -17 -160 -22 -16 -1 -30 -3 -30 -4 0 -1
-13 -3 -30 -5 -53 -7 -109 -15 -135 -19 -14 -3 -47 -7 -75 -11 -47 -5 -70 -9
-140 -20 -16 -2 -55 -7 -85 -11 -30 -3 -58 -8 -62 -10 -3 -2 -33 -6 -65 -9
-32 -3 -67 -7 -78 -9 -32 -6 -96 -16 -140 -21 -22 -3 -58 -7 -80 -11 -71 -10
-80 -11 -108 -13 l-27 -1 2 -457 c3 -451 3 -458 23 -456 11 1 47 4 80 8 33 3
79 7 103 10 23 3 62 7 87 10 25 3 64 7 88 10 23 3 62 7 87 10 25 2 45 4 45 5
0 1 18 3 40 4 61 5 166 17 200 22 17 3 53 7 80 9 28 2 70 6 95 9 25 3 68 8 95
11 28 3 61 8 75 10 14 3 58 7 99 10 41 4 86 8 100 10 69 8 131 16 181 20 30 3
73 8 94 10 35 5 69 9 171 20 17 2 57 6 90 9 33 4 79 8 103 11 23 3 61 7 85 10
23 3 65 7 92 10 28 3 68 7 90 10 85 10 142 16 195 21 30 3 57 9 60 14 4 6 5
920 1 968 -1 13 -11 13 -86 2z"/>
    <path d="M11468 8776 c-3 -3 -54 -8 -213 -21 -22 -2 -71 -6 -110 -9 -38 -3
-95 -8 -125 -11 -30 -2 -84 -7 -120 -11 -36 -3 -90 -8 -120 -9 -30 -2 -82 -6
-115 -10 -33 -3 -78 -8 -100 -10 -46 -5 -214 -18 -233 -18 -7 0 -11 -6 -8 -13
3 -8 1 -16 -5 -19 -5 -4 -6 -12 -2 -18 10 -16 10 -118 1 -139 -5 -9 -5 -19 -1
-21 10 -6 9 -130 -1 -145 -3 -6 -3 -13 1 -15 10 -6 9 -130 -1 -145 -3 -6 -3
-13 1 -15 10 -6 9 -130 -1 -145 -3 -6 -3 -13 1 -15 10 -6 9 -130 -1 -145 -3
-6 -3 -13 1 -15 7 -5 9 -116 3 -142 -1 -5 -1 -12 0 -15 1 -3 2 -59 3 -125 l2
-120 25 1 c67 4 283 16 345 19 147 7 284 15 375 20 179 11 255 15 342 18 49 2
91 7 95 10 4 5 9 1185 4 1267 -1 14 -32 25 -43 16z"/>
    <path d="M1617 8494 c-2 -1 -112 -13 -172 -19 -16 -1 -57 -5 -90 -9 -33 -4
-85 -9 -115 -12 -30 -2 -73 -7 -95 -9 -22 -3 -58 -7 -80 -9 -22 -3 -69 -7
-105 -11 -100 -9 -164 -17 -170 -20 -3 -2 -5 -704 -5 -1562 l1 -1558 279 -1
c154 -1 285 -3 290 -4 6 -1 15 -1 20 0 6 1 78 2 162 2 l151 0 0 1608 0 1607
-35 -1 c-19 0 -35 -2 -36 -2z"/>
    <path d="M4697 8194 c-1 -1 -40 -5 -87 -9 -47 -3 -101 -8 -120 -10 -19 -2 -70
-6 -113 -10 -42 -3 -98 -8 -125 -11 -26 -3 -72 -7 -102 -9 -160 -12 -215 -17
-220 -20 -3 -2 -6 -239 -5 -527 l0 -523 25 2 c14 1 77 4 140 7 63 3 153 8 200
11 91 6 219 12 395 20 60 3 117 7 125 10 13 4 15 71 15 537 l0 533 -63 0 c-35
0 -64 -1 -65 -1z"/>
    <path d="M16646 6703 c-1 -1 -112 -5 -246 -8 -321 -9 -475 -14 -475 -15 0 0
-85 -3 -540 -15 -93 -2 -170 -5 -170 -5 0 -2 -374 -12 -482 -14 -51 0 -93 -5
-93 -10 0 -5 -6 -3 -13 3 -8 6 -16 9 -19 6 -2 -3 -90 -7 -194 -10 -104 -3
-254 -7 -334 -10 -80 -2 -224 -7 -320 -10 -96 -2 -258 -7 -360 -11 -102 -3
-243 -7 -315 -9 -504 -14 -530 -15 -542 -32 -7 -9 -9 -22 -5 -29 4 -7 5 -49 2
-93 -3 -45 -3 -81 0 -81 3 0 4 -190 2 -423 -2 -232 -3 -431 -2 -442 0 -11 2
-63 3 -115 l2 -95 147 -1 c81 -1 155 -4 163 -8 8 -3 15 -2 15 2 0 9 613 7 628
-2 7 -4 12 -4 12 1 0 4 271 7 602 6 332 -2 618 -3 636 -3 17 0 124 1 237 1
113 0 221 0 240 0 19 0 127 0 240 0 113 0 221 0 240 0 19 0 127 0 240 0 113 0
220 -1 238 -1 17 0 158 1 312 3 l280 2 3 710 2 711 -66 -1 c-36 0 -66 -1 -68
-2z"/>
    <path d="M11970 6560 c0 -3 -64 -6 -143 -6 -78 -1 -239 -5 -357 -8 -118 -4
-280 -8 -360 -11 -80 -2 -230 -7 -335 -10 -104 -4 -245 -8 -312 -10 -68 -2
-127 -6 -132 -10 -5 -3 -9 -60 -8 -126 1 -67 -1 -123 -5 -125 -4 -3 -4 -15 0
-27 9 -26 8 -204 0 -213 -4 -3 -3 -18 1 -32 8 -33 7 -199 -2 -208 -3 -3 -3
-16 1 -28 9 -25 8 -203 0 -212 -4 -3 -3 -18 1 -32 4 -15 6 -69 5 -120 -1 -78
2 -94 16 -102 10 -5 20 -6 24 -3 5 6 348 8 371 3 6 -1 15 -1 20 0 14 2 448 3
460 0 6 -1 15 -1 20 0 28 5 414 2 424 -4 6 -4 11 -4 11 1 0 9 321 8 345 -1 8
-3 15 -2 15 2 0 4 24 6 53 5 l54 -3 -1 642 -1 643 -82 0 c-46 0 -83 -2 -83 -5z"/>
    <path d="M8417 6454 c-1 -2 -106 -5 -232 -8 -127 -3 -291 -8 -365 -10 -387
-12 -583 -19 -655 -21 -44 -1 -112 -3 -151 -4 l-71 -1 1 -562 1 -563 66 -1
c37 -1 74 -4 83 -7 9 -4 16 -3 16 1 0 6 1038 8 1065 2 6 -1 12 -1 15 0 3 1 77
2 165 3 l160 2 0 578 c0 319 -2 582 -5 586 -4 6 -88 10 -93 5z"/>
    <path d="M5097 6353 c-1 0 -112 -4 -247 -8 -135 -3 -299 -8 -365 -10 -66 -2
-208 -7 -315 -10 -107 -3 -206 -7 -220 -8 l-25 -2 0 -515 0 -515 101 -1 c55 0
105 -4 111 -7 6 -4 13 -4 17 0 3 3 77 6 163 5 87 -1 173 -2 191 -2 111 1 447
0 475 0 17 0 95 1 172 3 l140 2 0 536 0 536 -98 -1 c-54 -1 -99 -2 -100 -3z"/>
  </g>
</svg>
