<?xml version="1.0" standalone="no"?>
<!DOCTYPE svg PUBLIC "-//W3C//DTD SVG 20010904//EN"
 "http://www.w3.org/TR/2001/REC-SVG-20010904/DTD/svg10.dtd">
<svg version="1.0" xmlns="http://www.w3.org/2000/svg"
 width="700.000000pt" height="700.000000pt" viewBox="0 0 700.000000 700.000000"
 preserveAspectRatio="xMidYMid meet">
<metadata>
Created by potrace 1.11, written by Peter Selinger 2001-2013
</metadata>
<g transform="translate(0.000000,700.000000) scale(0.100000,-0.100000)"
fill="#000000" stroke="none">
<path d="M693 6310 l-693 -690 0 -2545 c0 -2525 0 -2546 20 -2532 10 7 411
403 890 880 l870 867 0 1045 0 1045 -395 0 -395 0 0 275 0 275 1348 0 1347 0
635 -868 635 -868 3 1127 2 1127 781 776 781 776 -2568 0 -2569 -1 -692 -689z"/>
<path d="M6242 5891 l-692 -686 0 -1517 0 -1518 -252 0 -253 1 -635 868 -635
868 -5 -866 -5 -866 -295 0 -295 0 -3 1103 -2 1102 -395 0 -395 0 0 -1164 0
-1163 -975 -968 c-536 -532 -975 -971 -975 -976 0 -5 1067 -9 2558 -9 l2558 0
697 692 698 693 -3 2546 -3 2546 -693 -686z"/>
</g>
</svg>
