<?xml version="1.0" standalone="no"?>
<!DOCTYPE svg PUBLIC "-//W3C//DTD SVG 20010904//EN"
 "http://www.w3.org/TR/2001/REC-SVG-20010904/DTD/svg10.dtd">
<svg version="1.0" xmlns="http://www.w3.org/2000/svg"
 width="1056.000000pt" height="1056.000000pt" viewBox="0 0 1056.000000 1056.000000"
 preserveAspectRatio="xMidYMid meet">
<metadata>
Created by potrace 1.11, written by Peter Selinger 2001-2013
</metadata>
<g transform="translate(0.000000,1056.000000) scale(0.100000,-0.100000)"
fill="#000000" stroke="none">
<path d="M4497 9576 c-9 -13 -22 -29 -29 -37 -7 -8 -26 -32 -43 -54 -16 -22
-33 -44 -38 -50 -4 -5 -43 -57 -87 -115 -44 -58 -84 -110 -90 -117 -5 -7 -10
-16 -10 -22 0 -5 -3 -11 -8 -13 -7 -3 -41 -48 -181 -243 -98 -137 -271 -395
-271 -405 0 -6 -4 -10 -8 -10 -4 0 -24 -27 -43 -60 -18 -33 -37 -60 -41 -60
-5 0 -8 -4 -8 -9 0 -12 -63 -115 -72 -119 -5 -2 -8 -7 -8 -12 0 -4 -33 -64
-73 -132 -40 -67 -77 -130 -80 -138 -4 -8 -23 -42 -42 -75 -38 -64 -198 -383
-201 -400 -1 -5 -13 -32 -25 -60 -13 -27 -24 -52 -24 -55 -1 -3 -7 -18 -14
-35 -25 -62 -62 -163 -66 -181 -3 -10 -19 -69 -35 -131 -16 -61 -33 -140 -38
-176 -14 -109 -5 -323 18 -431 5 -22 7 -44 4 -48 -3 -4 0 -8 6 -8 6 0 9 -4 6
-8 -11 -19 61 -243 114 -357 18 -38 34 -72 34 -75 2 -11 121 -203 143 -230 7
-8 26 -33 43 -55 93 -120 273 -278 412 -362 61 -37 240 -124 262 -127 6 -1 16
-4 21 -8 14 -8 164 -49 200 -54 17 -3 41 -7 55 -10 109 -25 452 -20 503 8 10
5 21 7 24 5 6 -7 151 34 238 67 88 34 268 128 316 167 20 16 42 29 48 29 6 0
11 3 11 8 0 4 27 29 61 56 56 46 122 110 198 196 40 44 181 253 181 267 0 6 7
16 15 23 8 6 14 15 13 18 -1 4 13 37 30 74 18 37 39 86 48 110 23 62 74 247
80 288 2 19 6 42 9 50 19 62 24 323 7 430 -13 84 -46 226 -62 265 -4 11 -23
63 -40 115 -18 52 -36 100 -40 105 -3 6 -15 33 -25 60 -28 79 -253 527 -267
533 -5 2 -8 8 -8 13 0 5 -37 71 -82 147 -46 75 -87 145 -93 155 -5 9 -45 72
-88 140 -43 67 -84 131 -90 142 -7 11 -15 22 -18 25 -3 3 -23 32 -44 65 -22
33 -43 65 -48 70 -4 6 -60 84 -123 175 -63 91 -120 172 -127 180 -7 8 -23 31
-37 50 -13 19 -28 40 -33 45 -4 6 -53 71 -108 145 -56 74 -105 137 -110 138
-5 2 -9 8 -9 14 0 5 -17 31 -37 56 -61 76 -59 74 -76 48z m45 -383 c9 -16 25
-38 36 -51 11 -13 38 -49 59 -80 21 -31 41 -59 45 -62 4 -3 34 -44 67 -90 33
-47 64 -89 68 -95 12 -14 136 -192 148 -213 6 -9 12 -19 15 -22 6 -5 155 -231
213 -323 21 -31 37 -61 37 -66 0 -5 4 -11 8 -13 4 -1 35 -48 67 -103 33 -55
65 -108 70 -117 25 -41 91 -162 136 -248 13 -25 27 -46 32 -48 4 -2 7 -9 7
-16 0 -6 15 -41 34 -76 28 -55 104 -225 137 -307 5 -13 13 -33 18 -45 19 -48
51 -144 54 -163 1 -11 5 -24 9 -30 3 -5 11 -35 17 -65 6 -30 14 -68 17 -85 8
-36 12 -296 5 -310 -2 -5 -6 -21 -8 -35 -1 -14 -5 -41 -7 -60 -3 -19 -14 -69
-26 -110 -11 -41 -22 -79 -23 -85 -14 -54 -33 -105 -39 -105 -4 0 -8 -7 -8
-16 0 -28 -92 -196 -156 -286 -143 -199 -332 -358 -539 -453 -76 -35 -279 -98
-302 -94 -4 1 -10 0 -13 -1 -22 -8 -63 -11 -177 -14 -130 -3 -241 8 -333 35
-25 7 -49 13 -55 15 -89 20 -332 138 -343 166 -2 4 -8 8 -13 8 -42 0 -285 246
-366 370 -35 52 -62 98 -60 101 1 4 -5 15 -14 25 -14 17 -78 153 -84 179 -1 6
-5 17 -8 25 -15 35 -57 194 -59 221 -1 16 -5 29 -8 29 -20 0 -17 425 4 459 3
4 7 18 10 32 8 39 57 201 70 234 7 17 35 82 61 145 46 109 182 389 194 400 3
3 20 32 36 65 17 33 32 62 35 65 3 3 11 16 18 29 8 13 22 38 32 55 87 154 240
400 252 404 4 2 8 8 8 13 0 9 76 128 89 139 3 3 12 17 20 32 8 15 21 36 30 46
9 10 21 25 26 34 6 9 24 36 41 59 16 24 47 69 69 99 61 87 89 125 98 128 4 2
7 8 7 13 0 5 35 56 78 112 42 57 88 120 102 140 30 44 40 46 62 10z"/>
<path d="M160 7960 c-14 -3 -49 -5 -77 -3 -29 2 -53 -1 -53 -6 0 -5 3 -11 8
-13 4 -1 39 -39 77 -83 39 -44 75 -84 81 -90 6 -5 44 -48 85 -94 41 -47 81
-92 89 -101 8 -9 49 -54 90 -100 41 -46 86 -95 99 -109 27 -30 124 -139 172
-194 19 -22 54 -61 79 -87 25 -26 68 -75 97 -107 29 -33 65 -74 80 -91 15 -16
55 -61 88 -98 33 -38 72 -80 87 -95 15 -15 24 -30 21 -33 -4 -3 -1 -6 5 -6 19
0 14 -20 -10 -47 -50 -54 -66 -72 -137 -153 -41 -47 -81 -92 -90 -100 -9 -8
-29 -31 -45 -50 -24 -30 -89 -102 -194 -219 -13 -14 -43 -48 -65 -74 -23 -27
-60 -68 -82 -91 -22 -24 -65 -72 -95 -107 -30 -35 -68 -78 -85 -96 -16 -17
-48 -52 -70 -78 -22 -26 -53 -62 -70 -79 -16 -18 -57 -64 -90 -102 -33 -37
-79 -89 -102 -114 -24 -25 -43 -48 -43 -52 0 -9 18 -10 184 -9 71 0 122 5 126
11 7 11 71 87 105 124 11 12 49 55 85 96 36 40 76 85 89 99 12 14 51 57 85 96
53 61 106 120 156 174 8 9 44 50 80 91 36 41 72 81 80 90 8 9 40 45 71 81 31
35 67 76 80 90 31 33 146 163 180 202 30 35 21 41 124 -77 33 -38 71 -81 85
-96 14 -15 57 -62 95 -105 39 -43 77 -86 85 -95 8 -9 51 -56 95 -105 95 -106
141 -158 175 -195 14 -15 54 -60 90 -100 36 -40 76 -85 90 -101 14 -15 54 -60
90 -100 36 -40 88 -97 115 -127 l50 -53 149 0 c81 0 150 2 152 4 2 2 -9 18
-26 35 -16 18 -30 34 -30 36 0 2 -19 24 -42 48 -24 25 -56 60 -73 80 -48 56
-147 168 -182 205 -17 19 -53 60 -80 90 -26 31 -61 70 -78 88 -16 18 -55 61
-85 95 -30 35 -64 73 -75 84 -11 12 -36 40 -55 62 -32 36 -145 164 -195 220
-11 12 -45 50 -75 84 -75 85 -152 170 -171 191 -36 37 -37 48 -5 83 17 18 56
61 86 96 30 34 69 77 85 95 17 18 53 59 82 91 28 33 64 73 80 91 15 17 41 46
57 65 65 73 162 183 176 198 23 25 192 216 227 256 18 21 124 141 172 193 174
193 172 191 134 189 -15 0 -44 0 -63 1 -52 1 -101 1 -135 0 -16 -1 -41 -2 -55
-2 -14 0 -31 -9 -38 -19 -7 -10 -37 -44 -66 -75 -29 -32 -95 -105 -146 -163
-191 -216 -216 -244 -250 -281 -42 -46 -130 -145 -160 -179 -39 -46 -145 -163
-172 -192 -16 -16 -28 -31 -28 -33 0 -3 -17 -22 -37 -44 -21 -21 -60 -64 -87
-95 l-49 -57 -26 29 c-14 16 -60 66 -101 113 -41 46 -83 91 -92 101 -10 10
-16 18 -14 18 2 0 -15 20 -38 43 -22 24 -66 72 -96 107 -30 34 -68 77 -85 95
-27 30 -106 118 -152 172 -11 12 -50 56 -89 99 -113 125 -117 129 -179 200
-123 140 -140 156 -172 160 -17 2 -35 4 -40 5 -4 1 -12 0 -18 -1 -21 -5 -70
-5 -75 1 -3 3 -16 3 -30 -1z"/>
<path d="M6511 6806 c1 -160 5 -295 10 -301 4 -5 9 -26 12 -45 14 -105 76
-221 160 -303 81 -78 232 -150 342 -161 17 -2 57 -7 90 -11 102 -13 327 -8
475 11 19 2 55 6 80 9 25 3 78 11 118 18 l72 13 0 -378 0 -378 48 -1 c88 -2
176 1 181 6 5 6 8 1770 3 1796 -3 13 -22 16 -118 17 l-114 1 0 -424 c0 -472 7
-428 -70 -440 -19 -3 -46 -7 -60 -10 -14 -2 -47 -7 -75 -10 -27 -3 -75 -8
-105 -11 -113 -12 -367 -11 -446 3 -208 35 -321 147 -360 358 -3 17 -7 140 -9
275 -1 135 -3 248 -4 252 -1 4 -53 6 -117 6 l-116 -1 3 -291z"/>
<path d="M8586 7093 c-3 -3 13 -39 34 -81 45 -89 134 -275 135 -282 1 -3 27
-59 59 -125 59 -122 125 -258 211 -440 88 -185 147 -310 188 -395 23 -47 42
-87 42 -90 1 -3 27 -59 59 -125 121 -251 131 -275 116 -275 -6 0 -10 -9 -10
-20 0 -11 -4 -20 -10 -20 -5 0 -10 -7 -10 -15 0 -8 -9 -31 -19 -52 -34 -66
-181 -395 -181 -404 0 -5 -4 -9 -10 -9 -5 0 -10 -6 -10 -14 0 -8 -6 -27 -14
-43 -14 -27 -46 -97 -96 -208 -12 -27 -24 -52 -26 -55 -2 -5 224 -6 249 -1 4
0 6 4 5 9 -1 4 12 36 28 72 17 36 32 68 32 73 1 4 8 20 16 35 9 15 29 56 45
92 16 36 48 106 71 155 41 88 62 135 64 145 5 19 32 70 38 70 5 0 8 6 8 14 0
7 21 58 46 112 25 55 56 122 69 149 13 28 39 85 59 127 20 42 36 79 36 81 0 3
21 49 46 103 127 269 191 414 186 419 -3 3 0 5 6 5 7 0 12 5 12 11 0 5 23 57
50 115 28 58 50 106 50 108 0 2 21 48 46 103 25 54 68 145 94 203 26 58 67
145 89 193 23 49 41 90 41 92 0 3 18 40 39 84 46 95 52 91 -101 89 l-107 -2
-32 -75 c-18 -42 -44 -96 -58 -121 -13 -25 -24 -47 -24 -50 0 -3 -18 -43 -39
-90 -22 -47 -59 -128 -83 -180 -23 -52 -59 -130 -79 -172 -20 -42 -36 -82 -36
-88 0 -5 -4 -10 -9 -10 -5 0 -12 -12 -16 -27 -3 -16 -24 -64 -46 -108 -21 -45
-39 -86 -39 -93 0 -7 -4 -12 -10 -12 -5 0 -9 -3 -8 -7 1 -5 -14 -43 -35 -86
-20 -43 -37 -80 -37 -82 0 -3 -20 -46 -44 -97 -24 -51 -57 -122 -74 -158 l-30
-65 -40 85 c-22 47 -59 126 -82 175 -43 91 -89 191 -140 300 -15 33 -79 170
-143 305 -63 135 -126 270 -140 300 -13 30 -47 102 -75 160 -27 58 -59 126
-71 151 l-20 47 -131 -1 c-71 0 -132 -2 -134 -4z"/>
<path d="M0 4369 l0 -115 616 0 c400 1 618 -3 623 -9 3 -5 6 -557 6 -1225 l-1
-1215 123 0 123 -1 1 36 c0 19 0 569 1 1222 l1 1186 26 4 c14 1 292 3 618 2
409 0 593 3 596 10 3 10 1 203 -2 216 0 3 -615 5 -1366 5 l-1365 0 0 -116z"/>
<path d="M3238 3664 c-2 -1 -19 -5 -38 -7 -19 -2 -42 -7 -50 -9 -8 -3 -46 -15
-85 -28 -282 -90 -518 -362 -580 -670 -17 -85 -19 -112 -19 -225 -1 -123 5
-190 24 -260 6 -22 13 -49 16 -60 14 -54 33 -100 69 -169 46 -90 58 -109 83
-133 12 -12 22 -25 22 -30 0 -15 128 -128 198 -174 70 -46 199 -103 258 -113
16 -3 52 -10 79 -15 53 -10 257 -7 315 4 199 39 418 199 501 364 19 38 23 42
29 25 4 -10 4 -24 -1 -30 -5 -6 -6 -13 -3 -17 3 -3 6 -74 6 -159 l-1 -153 119
0 119 0 0 910 0 910 -117 0 -117 0 -2 -140 c-1 -77 -2 -162 -2 -190 l-1 -49
-27 54 c-16 31 -64 90 -114 140 -73 74 -100 94 -190 138 -57 29 -115 55 -129
58 -14 3 -43 10 -65 15 -38 10 -290 21 -297 13z m312 -238 c67 -17 163 -55
168 -68 2 -5 9 -8 15 -8 23 0 135 -99 180 -159 69 -92 127 -224 143 -326 9
-62 13 -257 4 -270 -4 -5 -7 -22 -8 -38 -3 -41 -40 -151 -74 -215 -139 -262
-397 -391 -704 -349 -214 29 -417 194 -507 412 -42 104 -57 185 -58 320 -2
152 47 313 130 432 54 77 66 91 131 144 153 124 385 174 580 125z"/>
<path d="M4799 3605 c-2 -61 1 -188 5 -192 2 -2 180 -4 395 -4 l391 0 0 -799
c0 -440 3 -801 8 -801 22 -4 209 -5 220 -1 9 3 12 173 12 803 l0 798 391 0
c215 -1 393 1 395 4 3 3 7 166 5 202 -1 7 -311 10 -911 10 -903 0 -910 0 -911
-20z"/>
<path d="M7004 3618 c-3 -5 12 -46 34 -91 22 -45 63 -129 90 -187 60 -126 157
-330 220 -460 26 -52 47 -97 47 -100 1 -3 22 -49 48 -102 26 -54 67 -140 91
-190 24 -51 60 -126 80 -167 20 -41 36 -80 36 -88 0 -7 5 -13 10 -13 6 0 10
-4 10 -9 0 -5 30 -71 66 -147 36 -77 77 -162 90 -190 l23 -52 -29 -61 c-17
-34 -30 -63 -30 -65 0 -3 -24 -55 -54 -118 -29 -62 -57 -124 -61 -138 -4 -14
-16 -37 -26 -52 -11 -14 -19 -31 -19 -37 0 -6 -17 -46 -37 -89 -21 -42 -38
-79 -38 -82 -1 -3 -22 -50 -48 -104 -26 -54 -47 -103 -47 -108 0 -5 55 -7 121
-6 l121 3 93 202 c51 112 90 203 87 203 -4 0 -2 4 3 8 6 4 31 52 55 107 25 55
49 103 53 106 4 3 9 16 10 27 1 12 5 22 9 22 4 0 8 4 8 9 0 4 14 39 32 77 17
38 32 71 33 74 2 5 21 48 78 170 83 180 97 211 97 220 0 6 5 10 10 10 6 0 9 3
8 8 -3 7 102 242 112 252 3 3 6 10 7 15 1 6 17 44 36 85 19 41 44 95 55 120
11 25 43 94 71 153 28 60 51 110 51 113 0 2 20 46 45 97 25 52 45 99 45 106 0
6 5 11 12 11 6 0 9 3 5 6 -3 3 7 31 23 63 15 31 38 79 50 106 12 28 42 93 67
145 25 52 46 100 47 105 1 6 5 16 9 23 5 6 7 13 5 13 -2 1 -56 2 -122 3 l-119
1 -44 -95 c-25 -52 -52 -113 -60 -135 -9 -22 -22 -47 -30 -56 -7 -8 -13 -23
-13 -32 0 -9 -5 -19 -10 -22 -6 -4 -8 -11 -5 -16 4 -5 1 -9 -4 -9 -6 0 -11 -4
-11 -9 0 -9 -25 -67 -100 -226 -37 -80 -59 -129 -110 -240 -63 -138 -93 -203
-115 -247 -13 -25 -21 -49 -18 -52 4 -3 1 -6 -5 -6 -7 0 -12 -5 -12 -12 0 -6
-13 -39 -29 -72 -16 -34 -41 -88 -56 -121 -49 -109 -76 -165 -81 -165 -3 0
-16 24 -29 54 -13 29 -53 115 -89 191 -36 75 -66 138 -66 140 0 2 -29 65 -65
140 -36 75 -74 157 -86 183 -11 26 -32 68 -45 94 -13 26 -24 54 -24 63 0 8 -4
15 -9 15 -5 0 -13 10 -17 23 -8 26 -39 93 -128 281 -36 76 -66 144 -66 151 0
7 -4 15 -8 17 -4 2 -23 38 -42 81 -18 42 -38 77 -44 78 -58 6 -248 3 -252 -3z"/>
</g>
</svg>
