<?xml version="1.0" standalone="no"?>
<!DOCTYPE svg PUBLIC "-//W3C//DTD SVG 20010904//EN"
 "http://www.w3.org/TR/2001/REC-SVG-20010904/DTD/svg10.dtd">
<svg version="1.0" xmlns="http://www.w3.org/2000/svg"
 width="664.000000pt" height="664.000000pt" viewBox="0 0 664.000000 664.000000"
 preserveAspectRatio="xMidYMid meet">
<metadata>
Created by potrace 1.14, written by Peter Selinger 2001-2017
</metadata>
<g transform="translate(0.000000,664.000000) scale(0.100000,-0.100000)"
fill="#000000" stroke="none">
<path d="M2850 6026 c0 -8 -4 -16 -9 -18 -16 -6 -358 -505 -441 -643 -13 -22
-28 -41 -32 -43 -4 -2 -8 -9 -8 -16 0 -8 -8 -24 -18 -37 -10 -13 -29 -44 -42
-69 -14 -25 -29 -52 -36 -60 -25 -33 -175 -325 -233 -454 -41 -89 -93 -231
-106 -291 -2 -5 -10 -35 -19 -65 -15 -54 -29 -155 -29 -215 0 -43 13 -208 18
-214 1 -3 6 -22 9 -42 9 -58 65 -219 99 -284 80 -154 190 -288 310 -378 113
-85 264 -155 371 -171 21 -4 42 -9 47 -12 12 -7 215 -7 249 1 14 2 50 10 80
16 30 6 78 20 105 31 408 158 678 582 678 1063 0 64 -24 206 -43 255 -5 14
-11 34 -13 45 -2 11 -7 27 -10 35 -4 8 -16 42 -28 75 -23 66 -34 92 -73 176
-14 31 -26 61 -26 66 0 6 -7 16 -15 23 -9 7 -14 15 -11 17 7 8 -201 389 -232
426 -8 9 -12 17 -8 17 4 0 -6 17 -22 38 -16 20 -30 40 -31 45 -2 15 -222 350
-233 355 -5 2 -8 10 -8 17 0 7 -3 15 -7 17 -5 2 -33 39 -63 83 -71 105 -160
225 -165 225 -3 0 -5 -6 -5 -14z"/>
<path d="M40 5000 c-5 -3 3 -19 18 -36 15 -17 45 -53 67 -79 22 -27 45 -53 50
-59 6 -6 44 -51 85 -101 41 -49 77 -92 80 -95 3 -3 39 -45 80 -95 41 -49 85
-101 97 -115 234 -274 255 -302 240 -318 -7 -9 -119 -143 -247 -297 -128 -154
-245 -294 -259 -310 -14 -17 -46 -55 -71 -85 -25 -30 -49 -60 -55 -66 -5 -6
-23 -28 -40 -49 -16 -21 -40 -49 -51 -61 -12 -13 -20 -24 -19 -26 2 -2 45 -2
95 -2 103 2 94 -3 180 104 25 30 55 66 67 80 19 23 326 391 345 415 5 6 18 22
31 36 12 14 47 55 77 92 52 62 56 65 72 49 9 -9 132 -154 273 -322 140 -168
273 -325 294 -350 21 -25 50 -58 63 -74 24 -28 27 -29 116 -29 51 0 94 2 96 4
3 2 -32 47 -75 99 -105 125 -99 117 -214 255 -55 66 -109 131 -120 144 -11 13
-37 44 -59 70 -21 25 -48 57 -60 71 -11 14 -50 61 -86 105 -36 44 -78 95 -95
113 -43 49 -46 57 -27 78 10 10 35 42 57 69 22 28 45 55 51 60 6 6 30 35 55
65 24 30 46 57 49 60 3 3 25 30 50 60 58 71 83 100 95 114 9 9 115 137 175
209 8 10 22 27 30 37 8 9 33 39 55 65 22 27 53 63 68 81 15 18 24 34 20 36 -4
3 -48 4 -97 3 -73 -2 -91 -5 -102 -20 -12 -17 -52 -65 -101 -122 -10 -12 -25
-30 -33 -40 -8 -10 -35 -43 -60 -73 -25 -30 -50 -59 -56 -65 -6 -5 -28 -32
-50 -60 -21 -27 -47 -57 -56 -66 -10 -9 -18 -21 -18 -28 0 -6 -4 -11 -8 -11
-4 0 -40 -39 -79 -87 -40 -49 -84 -101 -98 -118 -14 -16 -35 -41 -47 -54 -20
-23 -21 -23 -31 -5 -6 10 -16 24 -22 29 -7 6 -79 91 -161 190 -82 99 -151 182
-154 185 -3 3 -39 46 -80 95 -41 50 -80 95 -85 101 -6 6 -35 41 -65 78 -29 36
-58 66 -64 67 -47 4 -180 3 -186 -1z"/>
<path d="M4113 4703 c-7 -18 3 -392 11 -428 29 -126 125 -240 231 -276 45 -14
45 -14 100 -25 73 -14 376 -6 404 10 3 2 29 6 56 10 l51 6 0 -253 0 -252 64 0
c36 0 70 1 75 2 7 2 9 208 8 596 -1 325 -2 599 -2 607 -1 12 -16 15 -71 15
-39 0 -70 -4 -71 -10 -1 -5 -2 -134 -3 -285 l-1 -274 -35 -8 c-34 -7 -104 -17
-165 -24 -74 -8 -257 -4 -297 6 -89 25 -146 71 -178 146 -24 55 -32 126 -34
309 l-1 139 -69 1 c-46 0 -70 -4 -73 -12z"/>
<path d="M5424 4708 c-2 -4 4 -26 15 -50 51 -113 79 -177 156 -348 45 -102 94
-210 108 -240 14 -30 61 -136 105 -235 44 -99 94 -210 111 -248 17 -37 31 -71
31 -76 0 -8 -93 -232 -140 -336 -64 -143 -101 -237 -96 -242 9 -9 138 -5 146
4 7 8 145 323 146 333 0 3 9 25 21 50 11 25 40 90 63 145 23 55 47 109 53 120
6 11 12 25 13 32 1 7 18 46 38 88 20 42 36 78 36 81 0 3 10 26 22 52 12 26 23
52 24 57 2 9 65 156 99 230 11 24 103 238 188 435 6 14 11 27 11 30 1 3 11 25
22 50 38 79 40 75 -44 74 l-76 0 -27 -60 c-15 -32 -69 -156 -119 -274 -94
-220 -113 -262 -148 -340 -29 -62 -54 -123 -58 -135 -3 -13 -85 -199 -90 -204
-2 -2 -13 18 -25 45 -29 68 -86 196 -121 274 -51 113 -46 103 -158 360 -39 91
-82 188 -94 215 -12 28 -28 65 -35 83 -8 17 -19 32 -25 33 -52 4 -149 3 -152
-3z"/>
<path d="M14 2961 c-2 -2 -4 -37 -4 -78 l0 -73 33 -1 c17 0 193 -1 389 -1 259
0 358 -3 360 -12 2 -6 3 -374 3 -818 0 -445 2 -808 5 -809 3 0 37 -1 75 -2
l70 -1 3 821 2 820 385 0 c212 0 389 3 392 7 11 10 10 137 -1 143 -11 7 -1705
10 -1712 4z"/>
<path d="M2068 2414 c-2 -1 -17 -4 -35 -7 -230 -36 -414 -234 -461 -497 -13
-71 -8 -252 8 -310 8 -25 15 -51 16 -59 5 -25 76 -163 98 -190 41 -50 102
-104 151 -135 28 -17 52 -31 55 -32 3 0 18 -6 35 -13 41 -17 111 -31 170 -33
172 -8 330 74 425 221 l35 54 5 -124 5 -124 60 1 c33 1 66 2 73 3 9 1 12 25
10 96 -2 52 0 95 4 95 4 0 5 7 1 16 -3 9 -6 240 -7 513 l-1 496 -72 0 -73 1
-1 -31 c0 -16 -1 -69 0 -117 0 -49 -2 -88 -4 -88 -2 0 -14 17 -26 38 -82 133
-234 220 -396 226 -40 2 -74 2 -75 0z m207 -169 c105 -36 190 -114 240 -220
41 -88 58 -158 57 -245 -1 -245 -136 -437 -338 -483 -71 -16 -136 -14 -208 7
-53 16 -150 75 -172 105 -7 9 -22 27 -34 41 -21 23 -69 115 -74 143 -2 7 -6
19 -9 27 -13 32 -23 118 -21 176 8 223 142 410 326 457 68 17 169 14 233 -8z"/>
<path d="M3038 2385 c0 0 -2 -32 -3 -72 l-1 -72 243 0 c135 1 247 -1 250 -4 2
-3 4 -244 4 -536 -1 -463 1 -531 14 -532 67 -5 128 -2 132 5 3 5 6 247 6 537
l0 529 36 1 c20 0 130 0 246 0 115 0 212 4 215 9 3 4 4 37 2 72 l-4 64 -569
-1 c-313 0 -570 0 -571 0z"/>
<path d="M4417 2378 c-6 -4 -7 -8 -2 -8 6 0 17 -17 24 -37 8 -21 29 -69 47
-108 58 -125 104 -232 104 -244 0 -6 5 -11 10 -11 6 0 10 -4 10 -10 0 -9 40
-104 102 -240 11 -25 38 -85 60 -135 22 -49 50 -112 63 -140 62 -135 115 -258
115 -266 0 -5 -54 -134 -120 -287 -66 -153 -120 -282 -120 -286 0 -4 34 -6 76
-4 l75 3 145 335 c153 352 166 383 164 388 0 1 6 15 14 30 8 15 29 61 46 102
18 41 40 93 50 115 9 22 27 63 38 90 11 28 31 73 43 100 13 28 24 52 24 55 1
3 14 32 29 65 15 33 29 65 30 70 4 14 22 57 47 113 24 53 116 266 129 298 8
20 5 20 -68 19 -83 -1 -78 2 -113 -80 -12 -27 -27 -64 -35 -81 -7 -16 -29 -68
-49 -114 -20 -46 -42 -98 -50 -114 -7 -17 -35 -80 -60 -141 -50 -116 -72 -166
-111 -253 -13 -29 -24 -55 -24 -58 0 -3 -12 -31 -26 -62 -14 -31 -32 -70 -39
-87 l-13 -30 -19 45 c-11 25 -29 65 -40 90 -12 25 -44 99 -73 165 -29 66 -60
136 -68 155 -9 19 -16 37 -17 40 -2 5 -23 53 -57 130 -34 75 -54 121 -92 210
-65 149 -79 180 -85 181 -27 6 -154 3 -164 -3z"/>
</g>
</svg>
