<?xml version="1.0" standalone="no"?>
<!DOCTYPE svg PUBLIC "-//W3C//DTD SVG 20010904//EN"
 "http://www.w3.org/TR/2001/REC-SVG-20010904/DTD/svg10.dtd">
<svg version="1.0" xmlns="http://www.w3.org/2000/svg"
 width="700.000000pt" height="700.000000pt" viewBox="0 0 700.000000 700.000000"
 preserveAspectRatio="xMidYMid meet">
<metadata>
Created by potrace 1.11, written by Peter Selinger 2001-2013
</metadata>
<g transform="translate(0.000000,700.000000) scale(0.100000,-0.100000)"
fill="#000000" stroke="none">
<path d="M3254 5983 l-290 -388 135 -3 136 -3 79 -222 c85 -239 173 -488 214
-604 14 -40 28 -73 31 -73 4 0 32 75 63 168 31 92 100 295 153 452 l96 286
135 -1 c74 0 134 1 134 3 0 5 -42 66 -50 72 -3 3 -71 90 -151 194 -79 105
-184 242 -233 305 -48 64 -102 135 -120 158 -17 23 -33 42 -36 43 -3 0 -136
-174 -296 -387z"/>
<path d="M1973 5705 c-117 -157 -214 -290 -215 -296 -2 -9 23 -13 94 -13 l96
0 77 -215 c42 -119 97 -274 123 -345 25 -72 47 -126 49 -120 2 5 54 160 117
344 l113 335 102 3 c55 1 101 5 101 8 0 5 -114 155 -328 432 -63 81 -115 148
-116 149 0 1 -97 -126 -213 -282z"/>
<path d="M4970 5910 c-41 -11 -86 -22 -100 -25 -24 -5 -314 -73 -335 -79 -5
-2 -28 -6 -50 -11 -72 -14 -72 -18 -1 -74 36 -29 66 -58 66 -64 0 -7 -49 -142
-109 -302 -60 -159 -108 -291 -106 -293 2 -2 164 93 235 139 8 5 82 50 164 99
l149 89 67 -55 c37 -30 69 -54 71 -54 2 0 5 26 6 58 0 31 4 118 7 192 16 343
18 400 14 399 -1 0 -37 -9 -78 -19z"/>
<path d="M5625 4924 c-137 -35 -260 -66 -272 -68 -45 -9 -42 -18 17 -62 33
-25 62 -49 65 -54 3 -4 -40 -133 -95 -286 -55 -154 -99 -282 -98 -286 2 -4
117 65 257 153 140 87 255 159 256 159 1 0 31 -23 65 -50 35 -28 64 -49 66
-47 3 3 9 147 19 470 4 124 2 137 -13 136 -9 0 -129 -30 -267 -65z"/>
<path d="M908 4945 c-2 -3 4 -53 14 -113 70 -403 99 -571 104 -602 2 -19 9
-55 14 -80 5 -25 11 -57 13 -72 2 -15 5 -30 9 -33 3 -3 43 35 90 85 l85 91 89
-39 c49 -22 112 -50 139 -62 92 -41 150 -67 194 -86 24 -10 125 -55 225 -100
99 -44 182 -77 184 -73 2 4 -12 35 -31 70 -19 35 -60 114 -92 174 -32 61 -72
137 -90 170 -18 33 -63 119 -100 190 -37 72 -77 145 -88 163 l-20 34 55 56
c111 116 119 126 100 133 -9 4 -53 9 -97 13 -44 4 -91 9 -105 11 -14 2 -54 6
-90 10 -36 4 -81 8 -101 10 -20 3 -60 7 -90 10 -118 11 -165 16 -189 20 -14 2
-61 7 -105 10 -44 4 -87 9 -96 11 -8 2 -18 2 -21 -1z"/>
<path d="M2585 4670 c-203 -153 -371 -282 -372 -287 -2 -4 52 -24 119 -43 120
-34 122 -35 123 -65 1 -16 5 -88 9 -160 4 -71 9 -161 11 -200 3 -38 7 -115 10
-170 3 -55 8 -149 11 -210 4 -60 7 -120 8 -133 0 -12 4 -23 8 -25 4 -1 49 58
100 130 51 73 169 241 262 374 93 132 175 243 181 245 7 3 65 -11 129 -30 64
-19 116 -31 116 -26 0 4 -63 171 -141 371 -77 200 -144 375 -149 389 -10 33
-49 120 -52 119 -2 0 -169 -125 -373 -279z"/>
<path d="M4747 4784 c-1 -1 -45 -5 -97 -9 -52 -3 -111 -8 -130 -10 -19 -2 -78
-7 -130 -10 -52 -4 -102 -9 -111 -10 -9 -2 -58 -6 -110 -10 -52 -4 -96 -9 -98
-11 -2 -2 29 -39 68 -83 l71 -79 -131 -239 c-72 -131 -155 -281 -185 -335 -30
-53 -54 -99 -54 -102 0 -8 78 24 575 236 l139 60 25 -29 c54 -64 112 -123 121
-123 6 0 10 10 11 23 0 12 2 29 4 37 7 32 117 606 121 630 2 14 7 35 9 48 5
22 3 23 -45 21 -28 -2 -51 -4 -53 -5z"/>
<path d="M3476 4343 c-3 -21 -8 -58 -11 -83 -9 -74 -17 -134 -21 -155 -2 -11
-7 -45 -10 -75 -3 -30 -7 -57 -9 -60 -2 -3 -6 -34 -10 -70 -4 -36 -9 -73 -11
-84 -2 -10 -6 -44 -10 -75 -3 -31 -8 -65 -10 -76 -2 -11 -7 -40 -10 -65 -3
-25 -7 -56 -10 -70 -2 -14 -6 -50 -10 -80 -3 -30 -8 -64 -10 -75 -2 -11 -9
-58 -15 -105 -6 -47 -12 -94 -14 -105 -2 -16 -28 -201 -50 -365 -2 -14 -13
-99 -26 -189 l-22 -164 -61 64 c-51 54 -126 134 -277 300 -21 23 -174 189
-249 269 -89 96 -196 214 -202 223 -4 6 -9 9 -12 7 -2 -3 22 -48 55 -100 32
-52 62 -102 67 -110 6 -13 174 -294 202 -340 6 -8 103 -170 216 -360 l206
-345 -7 -60 c-4 -33 -9 -69 -10 -80 -7 -48 -46 -324 -51 -360 -3 -22 -7 -51
-9 -65 -2 -14 -6 -45 -9 -70 -14 -111 -18 -145 -31 -230 -3 -14 -7 -43 -9 -65
-6 -47 -35 -258 -41 -295 -2 -14 -7 -50 -11 -80 -4 -30 -8 -64 -10 -75 -1 -11
-6 -45 -9 -75 -4 -30 -8 -59 -9 -64 0 -6 154 -10 379 -10 l380 -1 -1 75 c-1
69 -6 155 -19 360 -3 41 -7 112 -10 157 l-4 83 90 152 c51 84 103 173 117 198
23 41 45 78 79 135 55 94 293 496 312 529 13 22 62 106 109 186 46 80 87 150
90 155 3 6 -16 -10 -43 -35 -83 -79 -97 -92 -235 -222 -74 -69 -148 -139 -165
-154 -37 -33 -319 -299 -358 -336 -34 -33 -33 -33 -33 -10 -1 19 -12 199 -19
302 -2 36 -6 112 -10 170 -3 58 -8 134 -10 170 -2 36 -7 106 -10 155 -3 50 -8
124 -10 165 -3 41 -7 120 -11 175 -3 55 -7 125 -9 155 -2 30 -7 102 -10 160
-6 102 -8 138 -20 325 -3 50 -8 124 -10 165 -2 41 -7 111 -10 155 -3 44 -8
114 -10 155 -9 193 -18 325 -20 328 -2 2 -6 -14 -9 -35z"/>
<path d="M6287 4003 c-2 -1 -43 -4 -92 -8 -50 -3 -108 -7 -130 -10 -47 -5
-131 -13 -230 -20 -38 -3 -88 -7 -110 -9 -22 -2 -76 -7 -120 -11 -121 -10
-157 -14 -161 -18 -2 -1 11 -19 29 -38 18 -19 58 -64 89 -99 l57 -64 -18 -30
c-16 -27 -244 -439 -324 -586 -16 -30 -49 -90 -74 -133 -24 -43 -43 -82 -41
-86 3 -7 114 39 687 283 l194 83 36 -41 c61 -69 144 -156 147 -153 2 1 5 14 7
27 17 92 43 228 57 296 6 28 13 64 16 80 12 66 95 501 99 522 5 22 4 23 -55
20 -34 -2 -62 -4 -63 -5z"/>
<path d="M875 3796 c-11 -6 -109 -58 -218 -114 -120 -63 -195 -108 -191 -114
4 -6 84 -89 178 -185 186 -189 178 -186 191 -91 7 54 7 54 60 62 22 4 92 16
155 27 63 12 124 22 135 24 11 1 53 8 93 15 l74 12 -29 17 c-15 9 -66 37 -113
61 -47 24 -123 64 -170 90 -47 25 -99 51 -116 58 -30 13 -31 14 -23 63 4 27
11 59 14 69 7 23 -8 25 -40 6z"/>
<path d="M4728 3572 c-91 -70 -180 -138 -198 -152 l-32 -24 62 -18 c35 -9 65
-20 68 -23 3 -3 7 -29 8 -58 1 -28 5 -130 9 -225 8 -202 8 -203 21 -200 5 1
67 86 138 188 71 102 132 189 137 194 5 5 34 2 69 -8 34 -10 64 -16 66 -14 2
2 -14 51 -35 109 -22 57 -60 161 -86 232 -26 70 -50 127 -54 126 -3 0 -81 -58
-173 -127z"/>
<path d="M3076 3595 c-15 -13 -84 -70 -152 -127 -79 -65 -120 -105 -112 -109
7 -4 32 -10 56 -14 37 -6 42 -10 43 -33 0 -15 2 -34 3 -42 4 -19 15 -118 22
-195 7 -81 14 -138 17 -141 1 -1 49 74 107 167 l105 170 35 -5 c19 -3 46 -9
59 -13 13 -3 22 -2 19 3 -2 5 -40 89 -83 187 -43 97 -81 177 -84 177 -3 0 -19
-11 -35 -25z"/>
<path d="M3915 3328 c-53 -79 -130 -191 -171 -250 -40 -59 -74 -110 -74 -113
0 -3 37 -5 83 -5 l83 0 68 -177 c37 -98 71 -187 76 -198 5 -11 23 -60 41 -108
19 -52 36 -83 40 -75 3 7 44 140 90 296 l84 282 50 1 c27 1 65 2 83 2 17 0 32
3 32 5 0 4 -256 327 -277 350 -7 7 -33 39 -59 72 -26 33 -48 60 -50 60 -2 0
-46 -64 -99 -142z"/>
<path d="M1415 3288 c-27 -22 -68 -55 -90 -73 -22 -19 -141 -115 -265 -216
-124 -100 -239 -193 -256 -208 -16 -14 -44 -37 -62 -50 l-31 -24 62 -44 c34
-24 132 -93 217 -153 85 -60 160 -113 165 -117 23 -19 344 -243 348 -243 2 0
2 60 0 134 l-3 133 132 51 c73 27 264 100 423 162 160 62 300 114 313 117 18
4 33 23 17 23 -2 0 -194 59 -427 131 -233 72 -436 134 -452 138 l-29 6 -4 135
c-2 74 -5 135 -6 136 -1 1 -24 -16 -52 -38z"/>
<path d="M5794 2834 l-9 -59 -135 -27 c-74 -16 -151 -31 -170 -34 -19 -4 -42
-8 -50 -9 -8 -2 -24 -4 -34 -4 -37 -2 -12 -17 212 -130 l143 -73 -7 -36 c-3
-21 -8 -45 -11 -55 -3 -13 0 -18 9 -15 20 4 357 192 358 198 0 3 -67 72 -149
154 l-148 148 -9 -58z"/>
<path d="M5287 2354 c-3 -10 -11 -51 -17 -91 -6 -39 -13 -80 -15 -90 -2 -10
-4 -21 -4 -24 -1 -4 -22 -10 -48 -13 -27 -4 -55 -9 -63 -11 -8 -1 -85 -15
-170 -29 -162 -28 -186 -32 -235 -41 -28 -5 -217 -39 -275 -49 -14 -3 -27 -5
-30 -5 -5 -1 57 -36 235 -131 142 -75 249 -133 335 -180 41 -22 94 -51 118
-63 43 -22 43 -22 38 -67 -3 -25 -8 -56 -11 -70 -3 -14 -8 -47 -11 -73 l-7
-48 34 19 c19 11 165 88 324 172 281 148 377 199 383 205 2 2 -4 9 -268 286
-326 343 -307 324 -313 303z"/>
<path d="M2760 2235 l-185 -83 -42 46 c-24 26 -43 39 -44 31 0 -8 -2 -21 -4
-29 -1 -8 -17 -89 -34 -180 -18 -91 -34 -173 -38 -184 -5 -17 0 -18 79 -11 45
4 92 9 102 11 11 2 47 6 80 9 109 9 149 14 154 20 3 3 -11 23 -32 44 l-37 38
79 144 c104 189 124 229 115 228 -5 -1 -91 -38 -193 -84z"/>
<path d="M1240 2062 c-13 -21 -66 -107 -118 -192 -52 -85 -103 -167 -113 -181
l-18 -26 94 -26 c52 -15 103 -27 113 -27 10 0 22 -3 26 -7 3 -4 12 -8 19 -9 7
-1 65 -16 130 -33 65 -17 120 -31 122 -31 3 0 -6 25 -20 56 -14 31 -25 62 -25
69 0 6 53 57 117 111 135 115 183 157 232 202 l36 32 -80 -5 c-44 -2 -138 -7
-210 -10 -71 -4 -151 -8 -177 -10 -41 -4 -49 -1 -60 18 -6 12 -11 24 -11 27 0
3 -3 15 -8 28 -5 13 -9 27 -9 32 0 23 -18 15 -40 -18z"/>
<path d="M2265 1766 c-49 -27 -303 -164 -440 -236 -55 -29 -129 -70 -165 -90
-36 -20 -73 -39 -83 -43 -10 -4 -17 -11 -15 -16 3 -8 115 -127 393 -416 33
-35 89 -93 124 -130 40 -41 67 -62 71 -55 4 6 13 50 19 98 18 122 16 119 64
128 23 4 44 8 47 9 22 5 81 15 110 20 91 16 462 82 500 90 8 2 39 6 68 10 29
4 54 11 57 15 3 4 -23 23 -58 40 -34 18 -91 48 -127 68 -128 68 -206 110 -270
144 -36 19 -114 61 -174 93 l-108 58 6 46 c3 25 8 57 11 71 9 47 18 120 14
120 -2 -1 -22 -11 -44 -24z"/>
<path d="M4449 1485 c-1 -19 -3 -39 -4 -45 -1 -5 -3 -19 -4 -29 -1 -16 -32
-27 -213 -71 -117 -29 -219 -56 -227 -60 -8 -4 22 -22 85 -50 55 -24 135 -60
179 -80 44 -20 95 -42 113 -50 l34 -13 -5 -64 c-3 -34 -2 -63 1 -63 4 1 37 20
74 43 339 212 335 209 309 219 -8 3 -67 56 -268 241 -34 31 -65 57 -68 57 -3
0 -6 -16 -6 -35z"/>
</g>
</svg>
