<?xml version="1.0" standalone="no"?>
<!DOCTYPE svg PUBLIC "-//W3C//DTD SVG 20010904//EN"
 "http://www.w3.org/TR/2001/REC-SVG-20010904/DTD/svg10.dtd">
<svg version="1.0" xmlns="http://www.w3.org/2000/svg"
 width="700.000000pt" height="700.000000pt" viewBox="0 0 700.000000 700.000000"
 preserveAspectRatio="xMidYMid meet">
<metadata>
Created by potrace 1.11, written by Peter Selinger 2001-2013
</metadata>
<g transform="translate(0.000000,700.000000) scale(0.100000,-0.100000)"
fill="#000000" stroke="none">
<path d="M3278 6996 c-1 -2 -41 -6 -88 -10 -47 -4 -101 -9 -120 -12 -35 -4
-152 -22 -200 -30 -26 -4 -234 -51 -285 -64 -250 -66 -598 -210 -810 -335 -33
-19 -68 -38 -77 -41 -10 -4 -18 -10 -18 -15 0 -5 -5 -9 -10 -9 -23 0 -331
-219 -429 -305 -515 -450 -858 -959 -1065 -1577 -31 -94 -79 -267 -91 -329 -3
-13 -11 -58 -20 -99 -29 -147 -36 -199 -52 -370 -15 -164 -8 -589 12 -711 2
-13 6 -46 10 -74 12 -98 23 -161 50 -285 31 -142 109 -393 175 -555 49 -123
173 -370 235 -468 30 -49 55 -90 55 -93 0 -3 4 -10 10 -17 5 -7 46 -64 91
-126 378 -536 920 -965 1534 -1214 152 -62 416 -145 548 -173 92 -19 211 -41
272 -49 22 -2 56 -7 75 -10 187 -26 697 -27 838 0 16 3 104 15 147 20 184 24
541 126 772 221 120 49 314 144 395 194 37 22 70 40 73 40 3 0 11 5 18 10 7 6
65 45 129 88 100 66 226 160 317 237 101 85 304 288 376 375 21 25 40 47 44
50 12 9 136 172 193 255 124 179 268 444 353 650 68 164 151 426 181 570 16
79 54 301 59 350 4 33 9 71 11 85 9 47 11 525 3 605 -15 165 -21 220 -24 225
-2 3 -6 30 -10 60 -9 75 -69 337 -98 435 -108 353 -241 637 -443 940 -472 712
-1171 1216 -2002 1444 -103 29 -278 67 -352 76 -19 3 -46 7 -60 10 -13 2 -52
7 -86 11 -33 3 -74 8 -90 10 -33 5 -540 14 -546 10z m482 -590 c180 -19 479
-74 523 -97 9 -6 17 -7 17 -5 0 6 197 -61 305 -104 136 -54 357 -169 474 -246
20 -14 44 -30 55 -37 131 -86 290 -219 436 -366 371 -372 629 -828 755 -1329
67 -269 90 -457 88 -737 -1 -223 -6 -289 -44 -505 -154 -888 -745 -1676 -1562
-2086 -278 -140 -618 -247 -889 -280 -24 -2 -53 -7 -65 -9 -111 -24 -559 -24
-703 -1 -14 2 -47 7 -75 11 -331 43 -759 194 -1043 366 -35 21 -66 39 -68 39
-2 0 -45 28 -95 62 -302 208 -576 481 -780 778 -281 408 -458 912 -496 1405
-12 159 -4 568 12 595 1 3 5 28 9 55 25 217 121 552 218 764 161 353 339 612
603 876 208 208 366 331 618 479 18 10 88 47 157 81 112 55 171 80 345 146 86
32 295 86 420 107 162 28 185 31 300 38 55 4 101 8 103 9 5 4 320 -3 382 -9z"/>
<path d="M2648 4795 c-123 -33 -198 -95 -250 -207 -29 -64 -121 -404 -133
-488 -2 -14 -10 -64 -19 -110 -41 -227 -51 -360 -51 -710 0 -409 18 -545 91
-694 65 -133 202 -187 368 -145 85 21 163 117 205 249 11 36 69 250 76 284 18
81 129 380 180 486 130 268 207 397 297 495 66 73 99 90 136 73 26 -13 27 -16
27 -93 0 -76 -11 -191 -21 -226 -2 -9 -11 -52 -19 -95 -8 -43 -23 -128 -34
-189 -11 -60 -23 -128 -26 -150 -3 -22 -8 -46 -10 -53 -9 -24 -19 -179 -17
-254 5 -227 97 -407 245 -481 82 -42 161 -58 277 -58 58 0 114 2 125 4 11 3
42 8 69 12 71 10 206 58 283 100 64 35 216 144 278 200 136 121 295 297 329
362 40 79 61 245 41 333 -18 84 -72 140 -134 140 -54 0 -95 -25 -156 -95 -33
-38 -78 -89 -100 -114 -168 -192 -298 -311 -390 -359 -102 -52 -206 -23 -236
65 -18 55 -14 180 10 323 27 157 22 133 80 410 27 129 52 255 56 280 4 25 9
54 11 65 2 10 6 36 9 57 3 20 8 52 11 70 14 88 16 270 4 315 -40 150 -145 217
-333 212 -92 -2 -183 -26 -278 -74 -75 -37 -112 -58 -119 -65 -3 -3 -25 -20
-49 -37 -67 -49 -189 -170 -261 -259 -87 -108 -135 -179 -207 -304 -52 -90
-143 -272 -143 -284 0 -4 -25 -62 -68 -156 -11 -25 -11 -25 -7 5 2 17 7 57 10
90 16 155 48 318 121 609 57 228 73 309 69 368 -4 87 -47 110 -198 107 -56 -1
-123 -8 -149 -14z"/>
</g>
</svg>
