<?xml version="1.0" standalone="no"?>
<!DOCTYPE svg PUBLIC "-//W3C//DTD SVG 20010904//EN"
 "http://www.w3.org/TR/2001/REC-SVG-20010904/DTD/svg10.dtd">
<svg version="1.0" xmlns="http://www.w3.org/2000/svg"
 width="1128.000000pt" height="1128.000000pt" viewBox="0 0 1128.000000 1128.000000"
 preserveAspectRatio="xMidYMid meet">
<metadata>
Created by potrace 1.14, written by Peter Selinger 2001-2017
</metadata>
<g transform="translate(0.000000,1128.000000) scale(0.100000,-0.100000)"
fill="#000000" stroke="none">
<path d="M2263 8424 c-534 -64 -1042 -319 -1438 -719 -327 -331 -575 -760
-709 -1230 -167 -588 -151 -1252 45 -1822 148 -429 364 -779 673 -1089 330
-329 698 -544 1122 -654 64 -16 120 -27 125 -24 23 14 4 36 -48 60 -76 33
-232 139 -310 209 -228 206 -396 535 -444 873 -15 111 -6 412 16 512 99 444
351 787 714 970 168 85 291 114 551 130 175 10 239 22 360 66 622 223 988 936
844 1642 -85 421 -354 786 -712 966 -225 113 -476 148 -789 110z m392 -941
c135 -47 234 -160 280 -318 25 -85 17 -228 -18 -313 -54 -131 -152 -224 -275
-262 -77 -24 -128 -25 -207 -4 -272 70 -408 413 -271 683 94 185 307 278 491
214z"/>
<path d="M9196 8393 c-17 -17 -1 -36 51 -59 76 -33 232 -139 310 -209 228
-206 396 -535 444 -873 15 -111 6 -412 -16 -512 -99 -444 -352 -788 -714 -970
-168 -85 -291 -114 -551 -130 -175 -10 -239 -22 -360 -66 -766 -275 -1107
-1259 -704 -2034 192 -369 530 -622 914 -685 279 -45 705 17 1034 150 1175
474 1861 1804 1631 3160 -103 605 -371 1132 -789 1551 -318 317 -663 524
-1065 638 -136 39 -176 47 -185 39z m306 -118 c226 -78 517 -242 723 -408 179
-144 392 -380 529 -587 577 -865 645 -2030 175 -2970 -344 -686 -913 -1168
-1601 -1354 -178 -49 -337 -69 -538 -70 -195 -1 -244 5 -385 51 -678 218
-1050 1038 -804 1776 118 354 364 638 683 788 131 61 252 88 446 100 181 11
325 36 428 75 100 37 241 115 325 178 95 71 236 219 305 318 304 443 349 1056
112 1552 -89 188 -265 403 -425 518 -80 59 -91 68 -83 68 3 0 53 -16 110 -35z"/>
<path d="M8630 4746 c-206 -56 -350 -257 -350 -489 1 -198 121 -402 282 -477
308 -144 649 99 648 463 0 141 -56 275 -154 372 -123 121 -283 170 -426 131z"/>
<path d="M4097 7388 c4 -7 76 -101 160 -209 135 -173 159 -210 208 -318 30
-67 74 -148 98 -179 48 -63 195 -303 277 -452 82 -149 159 -400 122 -400 -19
0 -91 90 -107 135 -34 93 -97 210 -170 310 -82 115 -161 255 -229 404 -26 58
-64 123 -84 146 -22 24 -88 142 -162 288 -115 227 -127 247 -151 247 -25 0
-27 -4 -37 -67 -5 -40 -6 -89 -1 -118 4 -27 8 -55 8 -62 1 -7 27 -30 59 -51
102 -70 105 -76 131 -197 21 -98 30 -120 82 -200 52 -81 64 -111 119 -295 43
-143 82 -249 130 -350 54 -115 74 -173 100 -282 l31 -137 263 -341 263 -342
37 -136 36 -137 8 -325 9 -325 63 -125 63 -125 -17 -350 c-10 -192 -22 -365
-28 -383 -8 -26 -20 -38 -54 -52 -51 -22 -56 -37 -16 -46 56 -12 68 -17 109
-45 59 -41 97 -38 177 12 l65 42 -20 39 c-15 29 -32 45 -65 59 l-45 20 6 72
c3 40 12 185 20 322 8 138 22 332 32 432 15 173 15 185 -1 221 -18 39 -17 51
10 144 4 12 16 -3 40 -50 50 -97 55 -101 130 -123 l69 -20 63 68 c86 91 89 97
96 180 l7 72 -55 41 c-45 34 -56 48 -56 71 l0 29 129 0 129 0 160 89 c146 82
176 94 335 141 115 33 226 74 325 119 185 85 392 163 452 171 l45 5 3 47 3 46
-55 21 -56 21 -82 -20 c-61 -14 -87 -25 -98 -42 -47 -69 -54 -72 -283 -88
-156 -11 -158 -12 -226 -50 l-68 -39 -181 -11 c-179 -11 -182 -12 -264 -50
l-83 -38 -225 230 -225 231 -11 61 c-7 34 -20 114 -29 179 l-18 118 -57 72
c-63 80 -75 100 -115 202 -39 98 -117 206 -275 380 -75 83 -169 195 -210 250
-40 55 -133 164 -207 241 -135 143 -150 166 -204 309 -16 43 -27 55 -79 85
-64 38 -64 38 -75 153 l-7 67 -124 0 c-98 0 -123 -3 -117 -12z"/>
</g>
</svg>
