<?xml version="1.0" standalone="no"?>
<!DOCTYPE svg PUBLIC "-//W3C//DTD SVG 20010904//EN"
 "http://www.w3.org/TR/2001/REC-SVG-20010904/DTD/svg10.dtd">
<svg version="1.0" xmlns="http://www.w3.org/2000/svg"
 width="688.000000pt" height="688.000000pt" viewBox="0 0 688.000000 688.000000"
 preserveAspectRatio="xMidYMid meet">
<metadata>
Created by potrace 1.14, written by Peter Selinger 2001-2017
</metadata>
<g transform="translate(0.000000,688.000000) scale(0.100000,-0.100000)"
fill="#000000" stroke="none">
<path d="M3399 6710 c-829 -95 -1583 -473 -2066 -1034 -125 -145 -207 -270
-287 -436 -152 -315 -216 -625 -216 -1038 0 -309 31 -565 106 -855 36 -141
106 -355 140 -432 l18 -40 8 203 c27 764 206 1381 553 1907 415 630 1081 1093
1870 1301 410 107 758 121 1145 44 305 -61 573 -154 880 -307 113 -56 192 -90
175 -77 -490 409 -1022 652 -1630 744 -157 24 -561 35 -696 20z"/>
<path d="M3905 5969 c-410 -42 -873 -187 -1300 -408 -151 -78 -339 -190 -332
-197 2 -3 55 0 118 6 706 61 1320 57 1736 -10 509 -82 933 -269 1352 -596 328
-255 583 -587 776 -1012 201 -441 315 -937 315 -1372 0 -135 -20 -333 -35
-349 -3 -2 -108 24 -235 59 -259 72 -237 55 -220 172 6 38 14 149 20 248 25
462 -48 953 -202 1365 -38 104 -110 261 -126 277 -4 4 -7 -127 -7 -290 -1
-370 -19 -552 -90 -907 -57 -282 -161 -635 -188 -635 -7 0 -177 46 -379 102
l-368 102 -2 1009 -3 1009 -667 358 -668 359 -667 -359 -668 -358 -3 -1021 -2
-1020 -68 -20 c-37 -11 -200 -61 -362 -111 l-295 -90 -125 128 c-473 480 -795
1122 -839 1674 -24 285 39 757 150 1129 16 56 28 103 26 106 -7 6 -102 -146
-161 -259 -178 -336 -305 -744 -363 -1168 -27 -194 -24 -555 5 -724 66 -385
217 -772 414 -1064 27 -40 48 -75 46 -77 -1 -1 -55 -18 -118 -36 -63 -18 -123
-42 -132 -51 -17 -17 -18 -47 -18 -378 0 -347 1 -361 20 -380 20 -20 33 -20
622 -20 l603 0 110 -54 c196 -97 429 -166 700 -208 172 -26 546 -31 715 -9
275 35 539 104 795 206 l163 65 312 -2 312 -3 -118 -86 c-433 -315 -835 -484
-1334 -561 -125 -19 -185 -22 -440 -22 -227 0 -320 4 -403 17 -296 46 -566
129 -804 247 -140 69 -153 74 -118 43 61 -54 248 -174 365 -236 319 -169 732
-306 1105 -369 126 -21 171 -23 460 -23 310 0 324 1 445 27 315 68 808 261
1123 439 239 135 455 296 595 442 l82 87 555 0 c542 0 555 0 575 20 19 19 20
33 20 400 l0 381 -25 23 -24 22 40 109 c79 216 143 466 182 715 29 185 31 588
4 760 -59 378 -192 726 -395 1030 -108 162 -180 252 -341 428 -483 525 -990
810 -1605 903 -152 23 -473 33 -611 18z m-732 -1550 c-6 -6 -269 -153 -371
-208 l-22 -12 2 192 3 191 195 108 195 107 3 -185 c1 -102 -1 -189 -5 -193z
m-553 -109 l0 -190 -200 -100 -200 -100 0 190 0 190 198 99 c108 55 198 100
200 100 1 1 2 -84 2 -189z m574 -222 c-3 -79 -9 -176 -13 -217 l-6 -74 -181
-82 c-100 -45 -189 -85 -198 -88 -15 -6 -16 11 -14 194 l3 200 195 104 c107
57 201 104 208 104 10 1 12 -28 6 -141z m-574 -338 l0 -190 -200 -100 -200
-100 0 190 0 190 198 99 c108 55 198 100 200 100 1 1 2 -84 2 -189z m573 -650
c-5 -4 -87 -35 -184 -68 -97 -34 -184 -65 -193 -68 -14 -6 -16 17 -16 235 l0
241 198 99 197 99 3 -266 c1 -146 -1 -269 -5 -272z m-560 -181 c-5 -3 -93 -35
-198 -69 -104 -35 -196 -65 -203 -68 -10 -3 -12 40 -10 208 l3 212 205 98 205
97 3 -235 c1 -130 -1 -239 -5 -243z m2344 -585 l1583 -439 0 -307 0 -308
-3110 0 -3110 0 0 288 0 287 988 299 c543 165 1226 373 1517 462 292 89 535
161 540 159 6 -1 722 -200 1592 -441z"/>
<path d="M3230 2628 c-35 -5 -66 -10 -67 -12 -2 -1 -25 -187 -52 -412 -26
-225 -51 -402 -54 -394 -3 8 -21 179 -41 379 -19 200 -37 365 -38 367 -2 1
-35 -6 -73 -16 -39 -11 -73 -20 -77 -20 -5 0 -8 -256 -8 -570 l0 -570 50 0 50
0 2 433 3 432 43 -395 c58 -530 45 -470 102 -470 l48 0 6 43 c3 23 24 213 46
422 23 209 43 385 45 390 2 6 4 -185 4 -422 l1 -433 50 0 50 0 0 630 c0 498
-3 630 -12 629 -7 -1 -42 -6 -78 -11z"/>
<path d="M3420 2011 l0 -631 50 0 50 0 0 520 0 520 23 -5 c34 -8 168 -35 173
-35 2 0 4 -225 4 -500 l0 -500 50 0 50 0 0 580 0 579 -37 10 c-21 6 -103 26
-183 46 -80 20 -153 38 -162 41 -17 5 -18 -29 -18 -625z"/>
<path d="M4084 2463 c22 -80 176 -789 176 -815 0 -81 -29 -128 -80 -128 -20 0
-21 -4 -18 -72 l3 -73 41 -3 c76 -6 119 56 149 213 13 71 137 655 160 752 4
19 -1 23 -42 31 -26 6 -49 9 -51 7 -2 -1 -24 -105 -50 -229 -26 -124 -49 -226
-52 -226 -3 0 -25 93 -49 208 -77 362 -67 330 -109 337 -20 4 -47 8 -60 11
-19 4 -23 1 -18 -13z"/>
<path d="M2497 2450 c-90 -28 -169 -152 -191 -302 -8 -50 -9 -49 61 -63 31 -6
31 -6 42 45 14 65 34 103 67 129 35 27 56 26 92 -4 39 -33 63 -94 69 -181 l6
-72 -29 -5 c-16 -3 -53 -9 -81 -12 l-53 -7 0 -79 0 -79 70 0 70 0 0 -71 c0
-94 -16 -143 -57 -179 -76 -67 -140 -15 -159 128 -3 29 -9 52 -11 52 -3 0 -25
-17 -50 -37 l-46 -37 6 -71 c6 -87 27 -139 74 -187 70 -72 141 -74 217 -7 98
86 134 223 143 544 4 161 2 214 -11 275 -33 153 -134 250 -229 220z"/>
<path d="M4540 2292 c0 -68 1 -70 29 -80 40 -14 49 -35 71 -160 20 -117 30
-151 54 -175 15 -15 14 -19 -14 -59 -21 -30 -44 -97 -81 -227 -28 -102 -53
-191 -56 -198 -4 -10 10 -13 56 -13 l60 0 10 38 c6 20 28 104 50 187 26 98 46
154 58 163 17 12 18 4 21 -188 l2 -200 50 0 50 0 0 195 c0 107 4 195 8 195 27
0 92 -178 122 -332 l11 -58 61 0 c49 0 59 3 55 15 -8 20 -72 230 -91 295 -8
30 -28 71 -44 90 -29 34 -29 35 -11 60 9 14 25 61 33 105 19 95 41 129 84 133
32 3 32 3 32 63 l0 59 -43 0 c-77 0 -102 -32 -141 -178 -23 -87 -49 -142 -67
-142 -5 0 -9 85 -9 189 l0 189 -32 7 c-18 4 -41 9 -50 11 -17 5 -18 -9 -18
-185 0 -105 -4 -191 -9 -191 -15 0 -48 92 -70 195 -42 195 -63 230 -158 259
-22 7 -23 5 -23 -62z"/>
<path d="M2005 2289 c-22 -5 -68 -19 -102 -30 l-63 -21 0 -429 0 -429 50 0 50
0 0 170 0 170 58 0 c104 0 188 75 213 189 14 66 7 282 -11 329 -21 57 -91 75
-195 51z m92 -173 c25 -21 27 -29 26 -85 -1 -33 -10 -77 -19 -96 -20 -42 -76
-75 -129 -75 l-35 0 0 129 0 129 28 10 c49 19 99 14 129 -12z"/>
<path d="M1493 2141 c-53 -24 -74 -64 -108 -202 -14 -57 -33 -115 -43 -128
-38 -52 -42 -40 -42 118 l0 150 -50 -21 -50 -21 0 -328 0 -329 50 0 49 0 3
153 c3 127 5 152 18 152 18 0 52 -67 101 -200 l37 -100 61 -3 60 -3 -45 128
c-62 176 -77 208 -111 233 l-30 21 32 32 c25 25 36 48 44 92 21 107 26 119 58
140 30 19 32 24 33 78 0 65 -3 66 -67 38z"/>
<path d="M5357 2115 c-45 -15 -73 -39 -93 -77 -49 -96 -62 -367 -24 -492 18
-56 32 -79 75 -122 58 -58 94 -71 170 -59 78 11 131 74 150 177 6 32 4 38 -28
62 -18 14 -36 26 -40 26 -3 0 -13 -22 -22 -50 -30 -92 -103 -125 -163 -75 -48
40 -62 99 -62 254 0 115 3 141 20 176 45 93 132 84 191 -20 l31 -55 50 0 c56
0 56 1 12 95 -59 127 -171 194 -267 160z"/>
<path d="M5740 1700 l0 -340 50 0 50 0 0 140 c0 77 4 140 9 140 18 0 62 -43
85 -83 14 -23 34 -72 46 -109 l22 -68 58 0 58 0 -49 118 c-35 83 -59 126 -84
149 l-34 33 24 24 c13 13 31 50 41 82 22 77 30 87 71 81 33 -6 33 -5 33 33 0
32 -4 39 -26 44 -70 18 -142 -32 -164 -116 -7 -25 -27 -56 -48 -77 l-37 -36
-5 144 -5 143 -47 19 -48 19 0 -340z"/>
<path d="M1082 2017 c-18 -7 -37 -18 -41 -25 -4 -7 -28 -78 -52 -157 -24 -80
-46 -145 -49 -145 -3 0 -34 53 -69 118 -35 64 -66 120 -70 124 -3 4 -27 -3
-53 -15 l-47 -22 99 -175 c55 -96 99 -185 100 -197 0 -31 -30 -59 -79 -74 -35
-11 -41 -16 -41 -41 0 -27 2 -28 49 -28 65 0 102 31 131 108 55 147 176 542
166 541 -6 0 -26 -6 -44 -12z"/>
</g>
</svg>
