<?xml version="1.0" standalone="no"?>
<!DOCTYPE svg PUBLIC "-//W3C//DTD SVG 20010904//EN"
 "http://www.w3.org/TR/2001/REC-SVG-20010904/DTD/svg10.dtd">
<svg version="1.0" xmlns="http://www.w3.org/2000/svg"
 width="700.000000pt" height="700.000000pt" viewBox="0 0 700.000000 700.000000"
 preserveAspectRatio="xMidYMid meet">
<metadata>
Created by potrace 1.14, written by Peter Selinger 2001-2017
</metadata>
<g transform="translate(0.000000,700.000000) scale(0.100000,-0.100000)"
fill="#000000" stroke="none">
<path d="M3118 6991 c-1 -5 -17 -26 -35 -47 -17 -22 -59 -73 -92 -114 l-61
-74 0 -191 -1 -190 68 -237 67 -238 136 -88 136 -89 -1 -109 0 -109 -420 -1
-420 -1 -285 -141 -285 -142 -760 -2 -760 -3 -120 -38 c-66 -21 -124 -40 -130
-41 -61 -16 -132 -40 -138 -46 -5 -4 30 -28 77 -54 47 -26 88 -50 90 -55 6 -9
30 -6 106 10 25 5 61 12 80 14 32 3 124 19 175 29 20 4 191 33 250 42 17 3 38
7 48 10 10 3 46 -1 80 -10 34 -8 100 -24 147 -35 47 -11 132 -31 190 -44 58
-14 173 -37 255 -52 83 -15 159 -29 170 -31 121 -24 206 -37 235 -37 31 0 102
26 474 174 55 21 100 38 101 36 1 -1 51 -63 111 -137 61 -74 159 -196 219
-270 60 -74 153 -189 206 -254 94 -115 98 -121 104 -180 7 -67 12 -114 20
-178 11 -88 15 -114 20 -163 3 -27 8 -68 11 -90 18 -137 26 -115 -122 -360
l-135 -223 -222 -166 c-122 -91 -233 -173 -247 -183 -28 -20 -84 -77 -270
-274 -69 -72 -155 -164 -193 -203 -37 -39 -91 -107 -120 -151 -28 -44 -56 -84
-60 -90 -4 -5 -67 -100 -140 -210 -531 -807 -670 -1011 -716 -1049 -63 -54
-99 -84 -331 -272 l-195 -159 0 -152 c0 -83 3 -154 6 -158 7 -6 318 -10 323
-4 4 4 86 263 93 294 3 11 100 92 227 187 121 92 230 174 241 183 11 8 47 36
80 61 55 41 192 173 805 772 l214 210 86 32 c47 18 99 38 115 45 17 7 230 91
475 185 245 95 460 179 478 187 31 14 91 13 157 -1 11 -2 40 -7 65 -10 25 -3
56 -8 70 -11 14 -3 45 -8 70 -11 25 -3 54 -7 65 -9 52 -8 485 -75 520 -80 22
-3 65 -10 95 -15 80 -14 109 -18 160 -25 25 -3 69 -10 99 -15 30 -6 56 -10 58
-10 2 0 2 -4 -1 -8 -12 -20 -129 -541 -128 -572 0 -27 163 -623 248 -906 8
-28 16 -60 16 -70 1 -11 -30 -73 -68 -139 l-69 -120 0 -158 0 -157 525 0 525
0 0 80 c0 75 -2 81 -25 93 -72 38 -206 111 -215 117 -5 4 -55 31 -110 60 -55
29 -149 81 -210 114 -60 34 -126 70 -147 80 -22 12 -35 26 -33 35 1 9 6 43 9
76 4 33 9 67 11 75 2 8 7 37 10 64 3 27 7 59 10 70 2 12 7 44 10 71 6 53 12
93 21 152 3 21 7 58 10 83 2 25 6 59 8 75 3 17 7 53 11 80 3 28 8 64 10 80 2
17 7 53 10 80 4 28 8 61 11 75 2 14 6 50 9 81 3 31 7 66 10 78 2 12 7 49 10
82 4 33 8 68 10 77 1 9 6 46 10 82 4 36 8 67 10 70 3 5 -14 103 -35 200 -5 25
-12 61 -14 80 -3 19 -10 60 -16 90 -7 30 -14 69 -16 85 -3 17 -9 50 -14 75
-13 57 -18 91 -19 112 -1 21 -15 28 -281 138 -107 44 -204 85 -215 90 -21 10
-709 298 -760 319 -24 9 -40 30 -73 94 -23 45 -76 147 -117 225 l-75 144 26
111 c24 103 49 213 59 262 3 11 16 72 31 135 l26 115 217 290 c310 417 281
383 316 373 16 -4 41 -9 55 -12 27 -4 289 -60 357 -76 23 -6 196 -10 385 -10
l343 0 135 40 c74 21 244 71 377 109 l242 71 303 -55 c167 -30 309 -55 317
-55 11 0 11 4 -2 18 -10 10 -17 23 -17 29 0 5 -9 18 -20 28 -11 10 -20 22 -20
26 0 6 -69 116 -86 137 -1 2 -51 14 -111 27 -59 13 -140 31 -179 40 -69 15
-95 15 -279 -1 -33 -3 -85 -7 -115 -9 -91 -7 -266 -22 -350 -30 -30 -2 -95 -7
-145 -10 -49 -3 -106 -8 -126 -11 -28 -3 -88 15 -275 84 -131 49 -304 113
-383 142 l-144 53 -501 1 -501 0 -57 111 -57 111 25 85 c14 46 27 90 28 97 1
7 30 50 64 96 l62 84 0 333 0 334 -87 122 -88 122 -252 0 c-138 1 -253 -3
-255 -8z"/>
</g>
</svg>
